M48
;Layer_Color=9474304
;FILE_FORMAT=2:4
INCH
;TYPE=PLATED
T1F00S00C0.0130
T2F00S00C0.0236
T3F00S00C0.0315
T4F00S00C0.0354
%
T01
X000350Y-003450
X000902Y-002880
X001138
X001020Y-001950
X000650
X001394Y-001950
X002380Y-002566
X002400Y-002957
X003100
Y-002550
X003850Y-002560
X003841Y-002944
X003650Y-003563
X003100Y-003870
X002380
X001670Y-003570
X004750Y-003870
Y-003200
X005554Y-002220
X005544Y-001610
X004764Y-001110
X004714Y000430
X004084Y000480
X003504Y000460
X002380Y000250
Y001230
Y001820
X001710Y001680
X001224Y002860
X001204Y003650
X003620Y003720
X003600Y002880
X005330Y002940
X005344Y003650
X004950Y002410
X005110Y002040
X005460
X004770Y001210
X006100Y001070
X006820Y001830
X006710Y002990
X007424
X008130Y003190
X008100Y003570
X009250Y002760
X008414Y001410
X008320Y000070
Y-000830
X008980Y-001200
X009470Y-001590
X009890Y-002130
X009524Y-002920
X009260Y-003760
X008204Y-003490
X008274Y-002600
X007224Y-001226
X006650Y-000880
X009030Y-000340
X010280Y000290
X010620Y000300
X010691Y001200
X010450Y001440
X011440Y001140
X012220Y001160
X012514Y001626
X013154Y002330
X013800Y002050
X013414Y003120
X012950Y003610
X012324Y003470
X011690Y003250
X011420Y003490
X011140Y003240
X011510Y-000380
X012170
X012514Y-000414
X013012Y-000220
X013392Y-000790
X013854Y-001474
X013394Y-002450
X013114Y-003040
X013190Y-003760
X011904
X011710Y-002720
X011070Y-002830
X011080Y-002490
X011934Y-001770
X011914Y-001264
Y-000884
X012284Y-002054
X013394Y000996
X002114Y-000520
X001140Y-000470
X001144Y000430
X014314Y001030
Y001580
X014980
X016164Y001440
X017300Y001466
X018307Y001486
X019821Y001500
X019843Y000753
X019850Y000250
X019150
Y000750
X020770Y000753
Y000256
X019150Y-001350
X018700Y-003527
X017157Y-003453
X016030Y-003770
X016040Y-002660
X016376Y-001410
X016600Y-001000
X016254Y-000070
X015564Y-000050
X014874Y-000060
X014312Y-000686
X014134Y-002184
X015394Y-001680
X014490Y-003760
X020700Y-003600
X014644Y003076
X014724Y003710
T02
X005570Y-003480
X006070
X006570
X007070
X007570
Y-002980
X007070
X006570
X005570
X020770Y-002250
Y-001750
Y-001250
Y-000750
Y-000250
X021270
Y-001250
Y-001750
Y-002250
Y001250
Y001750
Y002250
X020770
Y001750
Y001250
T03
X002736Y-001710
X003524
X004311
T04
X010394Y-003250
X010394Y-001760
X017300Y-001439
X018300
Y-000439
Y000561
X017300
Y-000439
M30
