G04 Layer_Color=8421504*
%FSLAX24Y24*%
%MOIN*%
G70*
G01*
G75*
%ADD10R,0.0512X0.0591*%
%ADD11R,0.0433X0.0394*%
G04:AMPARAMS|DCode=12|XSize=39.4mil|YSize=21.7mil|CornerRadius=5.4mil|HoleSize=0mil|Usage=FLASHONLY|Rotation=270.000|XOffset=0mil|YOffset=0mil|HoleType=Round|Shape=RoundedRectangle|*
%AMROUNDEDRECTD12*
21,1,0.0394,0.0108,0,0,270.0*
21,1,0.0285,0.0217,0,0,270.0*
1,1,0.0108,-0.0054,-0.0143*
1,1,0.0108,-0.0054,0.0143*
1,1,0.0108,0.0054,0.0143*
1,1,0.0108,0.0054,-0.0143*
%
%ADD12ROUNDEDRECTD12*%
%ADD13R,0.0394X0.0433*%
%ADD14R,0.0394X0.0669*%
G04:AMPARAMS|DCode=15|XSize=15.7mil|YSize=33.5mil|CornerRadius=3.9mil|HoleSize=0mil|Usage=FLASHONLY|Rotation=90.000|XOffset=0mil|YOffset=0mil|HoleType=Round|Shape=RoundedRectangle|*
%AMROUNDEDRECTD15*
21,1,0.0157,0.0256,0,0,90.0*
21,1,0.0079,0.0335,0,0,90.0*
1,1,0.0079,0.0128,0.0039*
1,1,0.0079,0.0128,-0.0039*
1,1,0.0079,-0.0128,-0.0039*
1,1,0.0079,-0.0128,0.0039*
%
%ADD15ROUNDEDRECTD15*%
G04:AMPARAMS|DCode=16|XSize=15.7mil|YSize=41.3mil|CornerRadius=3.9mil|HoleSize=0mil|Usage=FLASHONLY|Rotation=90.000|XOffset=0mil|YOffset=0mil|HoleType=Round|Shape=RoundedRectangle|*
%AMROUNDEDRECTD16*
21,1,0.0157,0.0335,0,0,90.0*
21,1,0.0079,0.0413,0,0,90.0*
1,1,0.0079,0.0167,0.0039*
1,1,0.0079,0.0167,-0.0039*
1,1,0.0079,-0.0167,-0.0039*
1,1,0.0079,-0.0167,0.0039*
%
%ADD16ROUNDEDRECTD16*%
%ADD17R,0.0315X0.0472*%
%ADD18R,0.0748X0.0937*%
%ADD19R,0.0748X0.0465*%
%ADD20R,0.0543X0.0177*%
%ADD21R,0.0827X0.0583*%
%ADD22O,0.0098X0.0709*%
%ADD23O,0.0709X0.0098*%
D10*
X1488Y2260D02*
D03*
X740D02*
D03*
X3028Y2780D02*
D03*
X2280D02*
D03*
X2280Y3580D02*
D03*
X3028D02*
D03*
D11*
X10478Y2340D02*
D03*
X9809D02*
D03*
X13748Y1626D02*
D03*
X13079D02*
D03*
X14246Y-150D02*
D03*
X13577D02*
D03*
X13429Y3600D02*
D03*
X14098D02*
D03*
X3986Y1020D02*
D03*
X3317D02*
D03*
X11111Y2340D02*
D03*
X11780D02*
D03*
Y1620D02*
D03*
X11111D02*
D03*
X8951Y3570D02*
D03*
X9620D02*
D03*
X16098Y2650D02*
D03*
X15429D02*
D03*
Y3280D02*
D03*
X16098D02*
D03*
X15548Y470D02*
D03*
X14879D02*
D03*
Y1136D02*
D03*
X15548D02*
D03*
Y-1240D02*
D03*
X14879D02*
D03*
Y-564D02*
D03*
X15548D02*
D03*
X3988Y1560D02*
D03*
X3319D02*
D03*
Y2100D02*
D03*
X3988D02*
D03*
X4155Y2910D02*
D03*
X4825D02*
D03*
X12729Y-1954D02*
D03*
X13398D02*
D03*
X4157Y3550D02*
D03*
X4827D02*
D03*
X6450Y3590D02*
D03*
X5781D02*
D03*
X15429Y2016D02*
D03*
X16098D02*
D03*
X15548Y-3074D02*
D03*
X14879D02*
D03*
X11245Y20D02*
D03*
X11915D02*
D03*
Y700D02*
D03*
X11245D02*
D03*
X7750Y3590D02*
D03*
X7081D02*
D03*
X19771Y-2654D02*
D03*
X19102D02*
D03*
X19771Y-2054D02*
D03*
X19102D02*
D03*
X15548Y-2400D02*
D03*
X14879D02*
D03*
D12*
X19594Y-293D02*
D03*
X19220D02*
D03*
X19968D02*
D03*
X19220Y770D02*
D03*
X19594D02*
D03*
X19968D02*
D03*
X1020Y-3411D02*
D03*
X646D02*
D03*
X1394Y-3411D02*
D03*
X646Y-2349D02*
D03*
X1020D02*
D03*
X1394Y-2349D02*
D03*
D13*
X3254Y-985D02*
D03*
Y-315D02*
D03*
X3804Y-315D02*
D03*
Y-985D02*
D03*
X8724Y-3425D02*
D03*
Y-2755D02*
D03*
X4354Y-315D02*
D03*
Y-985D02*
D03*
X18364Y-2688D02*
D03*
Y-2019D02*
D03*
X17764Y-2688D02*
D03*
Y-2019D02*
D03*
X17164D02*
D03*
Y-2688D02*
D03*
X16564Y-2019D02*
D03*
Y-2688D02*
D03*
X4310Y-3527D02*
D03*
Y-2857D02*
D03*
X2704Y-985D02*
D03*
Y-315D02*
D03*
X1970Y-2445D02*
D03*
Y-3115D02*
D03*
D14*
X17754Y3066D02*
D03*
X19093D02*
D03*
D15*
X12969Y-684D02*
D03*
Y-940D02*
D03*
Y-1196D02*
D03*
X13855D02*
D03*
Y-940D02*
D03*
Y-684D02*
D03*
X13857Y1029D02*
D03*
Y773D02*
D03*
Y518D02*
D03*
X12971D02*
D03*
Y773D02*
D03*
Y1029D02*
D03*
D16*
X12656Y3094D02*
D03*
Y2838D02*
D03*
Y2582D02*
D03*
Y2326D02*
D03*
X14211Y3094D02*
D03*
Y2838D02*
D03*
Y2582D02*
D03*
Y2326D02*
D03*
X14141Y-3288D02*
D03*
Y-3032D02*
D03*
Y-2776D02*
D03*
Y-2520D02*
D03*
X12586Y-3288D02*
D03*
Y-3032D02*
D03*
Y-2776D02*
D03*
Y-2520D02*
D03*
D17*
X3164Y-3453D02*
D03*
X2790Y-2547D02*
D03*
X3538D02*
D03*
D18*
X566Y1146D02*
D03*
Y-1146D02*
D03*
D19*
Y-330D02*
D03*
Y330D02*
D03*
D20*
X1614Y0D02*
D03*
Y-256D02*
D03*
Y-512D02*
D03*
Y512D02*
D03*
Y256D02*
D03*
D21*
X1472Y-969D02*
D03*
Y969D02*
D03*
D22*
X6044Y2395D02*
D03*
X6241D02*
D03*
X6437D02*
D03*
X6634D02*
D03*
X6831D02*
D03*
X7028D02*
D03*
X7225D02*
D03*
X7422D02*
D03*
X7618D02*
D03*
X7815D02*
D03*
X8012D02*
D03*
X8209D02*
D03*
X8406D02*
D03*
X8603D02*
D03*
X8800D02*
D03*
X8996D02*
D03*
Y-1955D02*
D03*
X8800D02*
D03*
X8603D02*
D03*
X8406D02*
D03*
X8209D02*
D03*
X8012D02*
D03*
X7815D02*
D03*
X7618D02*
D03*
X7422D02*
D03*
X7225D02*
D03*
X7028D02*
D03*
X6831D02*
D03*
X6634D02*
D03*
X6437D02*
D03*
X6241D02*
D03*
X6044D02*
D03*
D23*
X9695Y1696D02*
D03*
Y1500D02*
D03*
Y1303D02*
D03*
Y1106D02*
D03*
Y909D02*
D03*
Y712D02*
D03*
Y515D02*
D03*
Y318D02*
D03*
Y122D02*
D03*
Y-75D02*
D03*
Y-272D02*
D03*
Y-469D02*
D03*
Y-666D02*
D03*
Y-863D02*
D03*
Y-1060D02*
D03*
Y-1256D02*
D03*
X5345D02*
D03*
Y-1060D02*
D03*
Y-863D02*
D03*
Y-666D02*
D03*
Y-469D02*
D03*
Y-272D02*
D03*
Y-75D02*
D03*
Y122D02*
D03*
Y318D02*
D03*
Y515D02*
D03*
Y712D02*
D03*
Y909D02*
D03*
Y1106D02*
D03*
Y1303D02*
D03*
Y1500D02*
D03*
Y1696D02*
D03*
M02*
