G04 Layer_Color=65535*
%FSLAX24Y24*%
%MOIN*%
G70*
G01*
G75*
%ADD24C,0.0098*%
%ADD27C,0.0079*%
%ADD42C,0.0080*%
%ADD43C,0.0236*%
%ADD44C,0.0039*%
%ADD45C,0.0120*%
%ADD46C,0.0050*%
%ADD47C,0.0100*%
%ADD48C,0.0070*%
G36*
X8416Y-3355D02*
X7866Y-3005D01*
X8416Y-2705D01*
Y-3355D01*
D02*
G37*
G36*
X21514Y-3275D02*
X20864D01*
X21214Y-2725D01*
X21514Y-3275D01*
D02*
G37*
G36*
X17369Y1695D02*
X17069Y2245D01*
X17719D01*
X17369Y1695D01*
D02*
G37*
D24*
X20303Y759D02*
G03*
X20303Y759I-49J0D01*
G01*
X1627Y-1874D02*
G03*
X1627Y-1874I-49J0D01*
G01*
X13021Y-440D02*
G03*
X13021Y-440I-49J0D01*
G01*
X13023Y1273D02*
G03*
X13023Y1273I-49J0D01*
G01*
X12703Y3340D02*
G03*
X12703Y3340I-49J0D01*
G01*
X12633Y-2274D02*
G03*
X12633Y-2274I-49J0D01*
G01*
X3903Y-2390D02*
G03*
X3903Y-2390I-49J0D01*
G01*
X5394Y1962D02*
G03*
X5394Y1962I-49J0D01*
G01*
D27*
X4705Y-2104D02*
Y-1316D01*
X2343Y-2104D02*
X4705D01*
X2343Y-1316D02*
X4705Y-1316D01*
X2343Y-2104D02*
Y-1316D01*
X5807Y-1493D02*
X9233D01*
X5807Y1933D02*
X9233D01*
Y-1493D02*
Y1933D01*
X5807Y-1493D02*
Y1933D01*
D42*
X17367Y3086D02*
G03*
X17367Y3086I-413J0D01*
G01*
X10807Y-1760D02*
G03*
X10807Y-1760I-413J0D01*
G01*
X1860Y-2080D02*
X1794Y-2013D01*
Y-1880D01*
X1860Y-1813D01*
X1927D01*
X1994Y-1880D01*
Y-1947D01*
Y-1880D01*
X2060Y-1813D01*
X2127D01*
X2194Y-1880D01*
Y-2013D01*
X2127Y-2080D01*
X1794Y-1680D02*
X2060D01*
X2194Y-1547D01*
X2060Y-1414D01*
X1794D01*
X4870Y-1863D02*
Y-2130D01*
X5070D01*
X5003Y-1997D01*
Y-1930D01*
X5070Y-1863D01*
X5203D01*
X5270Y-1930D01*
Y-2063D01*
X5203Y-2130D01*
X4870Y-1730D02*
X5137D01*
X5270Y-1597D01*
X5137Y-1464D01*
X4870D01*
X19004Y1126D02*
X19504D01*
Y1376D01*
X19420Y1460D01*
X19337D01*
X19254Y1376D01*
Y1126D01*
Y1376D01*
X19170Y1460D01*
X19087D01*
X19004Y1376D01*
Y1126D01*
Y1626D02*
X19504D01*
Y1876D01*
X19420Y1959D01*
X19087D01*
X19004Y1876D01*
Y1626D01*
X19504Y2126D02*
X19004D01*
X19170Y2293D01*
X19004Y2459D01*
X19504D01*
X19797Y1450D02*
X19714Y1366D01*
Y1200D01*
X19797Y1116D01*
X19880D01*
X19964Y1200D01*
Y1366D01*
X20047Y1450D01*
X20130D01*
X20214Y1366D01*
Y1200D01*
X20130Y1116D01*
X19714Y1616D02*
X20214D01*
X20047Y1783D01*
X20214Y1949D01*
X19714D01*
Y2116D02*
X20214D01*
Y2366D01*
X20130Y2449D01*
X19797D01*
X19714Y2366D01*
Y2116D01*
D43*
X6319Y1539D02*
G03*
X6319Y1539I-118J0D01*
G01*
D44*
X1114Y1965D02*
Y2555D01*
X2654Y2485D02*
Y3075D01*
X10144Y2143D02*
Y2537D01*
X20184Y-76D02*
Y553D01*
X19003Y-76D02*
Y553D01*
X1611Y-3195D02*
Y-2565D01*
X430Y-3195D02*
Y-2565D01*
X3047Y-650D02*
X3460D01*
X3597D02*
X4010D01*
X19014Y2574D02*
Y2656D01*
X17833Y2574D02*
Y2656D01*
Y2574D02*
X19014D01*
X17833Y3558D02*
X19014D01*
X17833Y3476D02*
Y3558D01*
X19014Y3476D02*
Y3558D01*
X7840Y-3899D02*
Y-2561D01*
X5296Y-3899D02*
X7840D01*
X5296D02*
Y-2561D01*
X7840D01*
X20350Y-2530D02*
X21690D01*
X20350Y2520D02*
X21690D01*
X13414Y1429D02*
Y1823D01*
X13912Y-347D02*
Y47D01*
X13764Y3403D02*
Y3797D01*
X3652Y823D02*
Y1217D01*
X11446Y2133D02*
Y2547D01*
Y1413D02*
Y1827D01*
X9286Y3363D02*
Y3777D01*
X13294Y-540D02*
X13530D01*
X13294Y-1330D02*
X13530D01*
X13294D02*
Y-540D01*
X13530Y-1330D02*
Y-540D01*
X13532Y383D02*
Y1173D01*
X13296Y383D02*
Y1173D01*
Y383D02*
X13532D01*
X13296Y1173D02*
X13532D01*
X15764Y2443D02*
Y2857D01*
Y3073D02*
Y3487D01*
X15214Y263D02*
Y677D01*
Y930D02*
Y1343D01*
Y-1447D02*
Y-1033D01*
Y-770D02*
Y-357D01*
X3654Y1353D02*
Y1767D01*
Y1893D02*
Y2307D01*
X2654Y3285D02*
Y3875D01*
X4490Y2713D02*
Y3107D01*
X8527Y-3090D02*
X8921D01*
X13064Y-2151D02*
Y-1757D01*
X4492Y3353D02*
Y3747D01*
X4157Y-650D02*
X4551D01*
X6116Y3383D02*
Y3797D01*
X18167Y-2354D02*
X18561D01*
X15764Y1810D02*
Y2223D01*
X13020Y2130D02*
Y3300D01*
X13847Y2130D02*
Y3300D01*
X13020D02*
X13847D01*
X13020Y2130D02*
X13847D01*
X12950Y-3484D02*
X13777D01*
X12950Y-2314D02*
X13777D01*
Y-3484D02*
Y-2314D01*
X12950Y-3484D02*
Y-2314D01*
X15214Y-3280D02*
Y-2867D01*
X17557Y-2354D02*
X17970D01*
X16957D02*
X17370D01*
X16367D02*
X16761D01*
X11580Y-187D02*
Y227D01*
Y493D02*
Y907D01*
X7416Y3393D02*
Y3787D01*
X8055Y3393D02*
Y3787D01*
X2573Y-3295D02*
Y-2921D01*
Y-3295D02*
X2839D01*
X3489D02*
X3754D01*
Y-2921D01*
X4113Y-3192D02*
X4507D01*
X2507Y-650D02*
X2901D01*
X19436Y-2851D02*
Y-2457D01*
X20076Y-2851D02*
Y-2457D01*
X19436Y-2260D02*
Y-1847D01*
X15214Y-2607D02*
Y-2193D01*
X1773Y-2780D02*
X2167D01*
X1088Y-1486D02*
X1720D01*
X-201D02*
X114D01*
X-280Y-1565D02*
X-201Y-1486D01*
X-280Y1545D02*
X-201Y1466D01*
X114D01*
X-280Y-1565D02*
Y1545D01*
X1088Y1466D02*
X1720D01*
X-4Y-1486D02*
Y1466D01*
D45*
X16864Y1500D02*
X18864D01*
X16864Y-1500D02*
X18864D01*
D46*
X-454Y0D02*
X3D01*
X2014Y-3490D02*
X1964Y-3440D01*
X1864D01*
X1814Y-3490D01*
Y-3690D01*
X1864Y-3740D01*
X1964D01*
X2014Y-3690D01*
X2264Y-3740D02*
Y-3440D01*
X2114Y-3590D01*
X2314D01*
X14724Y-2030D02*
Y-1730D01*
X14874D01*
X14924Y-1780D01*
Y-1880D01*
X14874Y-1930D01*
X14724D01*
X14824D02*
X14924Y-2030D01*
X15024Y-1980D02*
X15074Y-2030D01*
X15174D01*
X15224Y-1980D01*
Y-1780D01*
X15174Y-1730D01*
X15074D01*
X15024Y-1780D01*
Y-1830D01*
X15074Y-1880D01*
X15224D01*
X9974Y-2340D02*
X10174D01*
X10074D01*
Y-2640D01*
X10274D02*
Y-2340D01*
X10424D01*
X10474Y-2390D01*
Y-2490D01*
X10424Y-2540D01*
X10274D01*
X10623Y-2440D02*
X10723D01*
X10773Y-2490D01*
Y-2640D01*
X10623D01*
X10574Y-2590D01*
X10623Y-2540D01*
X10773D01*
X19160Y-1690D02*
Y-1390D01*
X19310D01*
X19360Y-1440D01*
Y-1540D01*
X19310Y-1590D01*
X19160D01*
X19260D02*
X19360Y-1690D01*
X19660D02*
X19460D01*
X19660Y-1490D01*
Y-1440D01*
X19610Y-1390D01*
X19510D01*
X19460Y-1440D01*
X19760Y-1690D02*
X19860D01*
X19810D01*
Y-1390D01*
X19760Y-1440D01*
X20270Y-2620D02*
Y-2920D01*
X20420D01*
X20470Y-2870D01*
Y-2670D01*
X20420Y-2620D01*
X20270D01*
X20770Y-2920D02*
X20570D01*
X20770Y-2720D01*
Y-2670D01*
X20720Y-2620D01*
X20620D01*
X20570Y-2670D01*
X2624Y190D02*
X2574Y140D01*
Y40D01*
X2624Y-10D01*
X2824D01*
X2874Y40D01*
Y140D01*
X2824Y190D01*
X2624Y290D02*
X2574Y340D01*
Y440D01*
X2624Y490D01*
X2674D01*
X2724Y440D01*
Y390D01*
Y440D01*
X2774Y490D01*
X2824D01*
X2874Y440D01*
Y340D01*
X2824Y290D01*
X4824Y-3660D02*
X4774Y-3610D01*
X4674D01*
X4624Y-3660D01*
Y-3860D01*
X4674Y-3910D01*
X4774D01*
X4824Y-3860D01*
X5124Y-3610D02*
X4924D01*
Y-3760D01*
X5024Y-3710D01*
X5074D01*
X5124Y-3760D01*
Y-3860D01*
X5074Y-3910D01*
X4974D01*
X4924Y-3860D01*
X2404Y-3650D02*
Y-3900D01*
X2454Y-3950D01*
X2554D01*
X2604Y-3900D01*
Y-3650D01*
X2704Y-3700D02*
X2754Y-3650D01*
X2854D01*
X2904Y-3700D01*
Y-3750D01*
X2854Y-3800D01*
X2804D01*
X2854D01*
X2904Y-3850D01*
Y-3900D01*
X2854Y-3950D01*
X2754D01*
X2704Y-3900D01*
X8229Y3740D02*
Y3440D01*
X8379D01*
X8429Y3490D01*
Y3690D01*
X8379Y3740D01*
X8229D01*
X8529Y3440D02*
X8629D01*
X8579D01*
Y3740D01*
X8529Y3690D01*
X10154Y560D02*
Y860D01*
X10304D01*
X10354Y810D01*
Y710D01*
X10304Y660D01*
X10154D01*
X10254D02*
X10354Y560D01*
X10654D02*
X10454D01*
X10654Y760D01*
Y810D01*
X10604Y860D01*
X10504D01*
X10454Y810D01*
X10754D02*
X10803Y860D01*
X10903D01*
X10953Y810D01*
Y610D01*
X10903Y560D01*
X10803D01*
X10754Y610D01*
Y810D01*
X10150Y-190D02*
Y110D01*
X10300D01*
X10350Y60D01*
Y-40D01*
X10300Y-90D01*
X10150D01*
X10250D02*
X10350Y-190D01*
X10650D02*
X10450D01*
X10650Y10D01*
Y60D01*
X10600Y110D01*
X10500D01*
X10450Y60D01*
X10950Y-190D02*
X10750D01*
X10950Y10D01*
Y60D01*
X10900Y110D01*
X10800D01*
X10750Y60D01*
X16314Y-3050D02*
X16264Y-3000D01*
X16164D01*
X16114Y-3050D01*
Y-3250D01*
X16164Y-3300D01*
X16264D01*
X16314Y-3250D01*
X16414Y-3300D02*
X16514D01*
X16464D01*
Y-3000D01*
X16414Y-3050D01*
X16863Y-3300D02*
X16664D01*
X16863Y-3100D01*
Y-3050D01*
X16813Y-3000D01*
X16714D01*
X16664Y-3050D01*
X16754Y-3720D02*
Y-3420D01*
X16904D01*
X16954Y-3470D01*
Y-3570D01*
X16904Y-3620D01*
X16754D01*
X16854D02*
X16954Y-3720D01*
X17054D02*
X17154D01*
X17104D01*
Y-3420D01*
X17054Y-3470D01*
X17503Y-3720D02*
X17304D01*
X17503Y-3520D01*
Y-3470D01*
X17453Y-3420D01*
X17354D01*
X17304Y-3470D01*
X17454Y-3300D02*
Y-3000D01*
X17604D01*
X17654Y-3050D01*
Y-3150D01*
X17604Y-3200D01*
X17454D01*
X17554D02*
X17654Y-3300D01*
X17754D02*
X17854D01*
X17804D01*
Y-3000D01*
X17754Y-3050D01*
X18004Y-3300D02*
X18103D01*
X18054D01*
Y-3000D01*
X18004Y-3050D01*
X14754Y-3740D02*
Y-3440D01*
X14904D01*
X14954Y-3490D01*
Y-3590D01*
X14904Y-3640D01*
X14754D01*
X14854D02*
X14954Y-3740D01*
X15054Y-3490D02*
X15104Y-3440D01*
X15204D01*
X15254Y-3490D01*
Y-3540D01*
X15204Y-3590D01*
X15254Y-3640D01*
Y-3690D01*
X15204Y-3740D01*
X15104D01*
X15054Y-3690D01*
Y-3640D01*
X15104Y-3590D01*
X15054Y-3540D01*
Y-3490D01*
X15104Y-3590D02*
X15204D01*
X11754Y-2750D02*
Y-3000D01*
X11804Y-3050D01*
X11904D01*
X11954Y-3000D01*
Y-2750D01*
X12204Y-3050D02*
Y-2750D01*
X12054Y-2900D01*
X12254D01*
X11844Y3110D02*
Y2860D01*
X11894Y2810D01*
X11994D01*
X12044Y2860D01*
Y3110D01*
X12344D02*
X12244Y3060D01*
X12144Y2960D01*
Y2860D01*
X12194Y2810D01*
X12294D01*
X12344Y2860D01*
Y2910D01*
X12294Y2960D01*
X12144D01*
X15264Y1416D02*
Y1716D01*
X15414D01*
X15464Y1666D01*
Y1566D01*
X15414Y1516D01*
X15264D01*
X15364D02*
X15464Y1416D01*
X15564D02*
X15664D01*
X15614D01*
Y1716D01*
X15564Y1666D01*
X16013Y1716D02*
X15913Y1666D01*
X15814Y1566D01*
Y1466D01*
X15864Y1416D01*
X15963D01*
X16013Y1466D01*
Y1516D01*
X15963Y1566D01*
X15814D01*
X18150Y-3490D02*
X18100Y-3440D01*
X18000D01*
X17950Y-3490D01*
Y-3690D01*
X18000Y-3740D01*
X18100D01*
X18150Y-3690D01*
X18250Y-3740D02*
X18350D01*
X18300D01*
Y-3440D01*
X18250Y-3490D01*
X18500D02*
X18550Y-3440D01*
X18650D01*
X18700Y-3490D01*
Y-3540D01*
X18650Y-3590D01*
X18600D01*
X18650D01*
X18700Y-3640D01*
Y-3690D01*
X18650Y-3740D01*
X18550D01*
X18500Y-3690D01*
X5900Y2970D02*
Y3270D01*
X6050D01*
X6100Y3220D01*
Y3120D01*
X6050Y3070D01*
X5900D01*
X6000D02*
X6100Y2970D01*
X6400Y3270D02*
X6200D01*
Y3120D01*
X6300Y3170D01*
X6350D01*
X6400Y3120D01*
Y3020D01*
X6350Y2970D01*
X6250D01*
X6200Y3020D01*
X1284Y1850D02*
X1184D01*
X1234D01*
Y1600D01*
X1184Y1550D01*
X1134D01*
X1084Y1600D01*
X1384Y1550D02*
X1484D01*
X1434D01*
Y1850D01*
X1384Y1800D01*
X4264Y190D02*
X4214Y140D01*
Y40D01*
X4264Y-10D01*
X4464D01*
X4514Y40D01*
Y140D01*
X4464Y190D01*
X4514Y290D02*
Y390D01*
Y340D01*
X4214D01*
X4264Y290D01*
Y540D02*
X4214Y590D01*
Y690D01*
X4264Y740D01*
X4464D01*
X4514Y690D01*
Y590D01*
X4464Y540D01*
X4264D01*
X3564Y3610D02*
X3514Y3660D01*
X3414D01*
X3364Y3610D01*
Y3410D01*
X3414Y3360D01*
X3514D01*
X3564Y3410D01*
X3664Y3610D02*
X3714Y3660D01*
X3814D01*
X3864Y3610D01*
Y3560D01*
X3814Y3510D01*
X3864Y3460D01*
Y3410D01*
X3814Y3360D01*
X3714D01*
X3664Y3410D01*
Y3460D01*
X3714Y3510D01*
X3664Y3560D01*
Y3610D01*
X3714Y3510D02*
X3814D01*
X13944Y-1790D02*
X13894Y-1740D01*
X13794D01*
X13744Y-1790D01*
Y-1990D01*
X13794Y-2040D01*
X13894D01*
X13944Y-1990D01*
X14244Y-1740D02*
X14144Y-1790D01*
X14044Y-1890D01*
Y-1990D01*
X14094Y-2040D01*
X14194D01*
X14244Y-1990D01*
Y-1940D01*
X14194Y-1890D01*
X14044D01*
X9264Y-3180D02*
X9214Y-3130D01*
X9114D01*
X9064Y-3180D01*
Y-3380D01*
X9114Y-3430D01*
X9214D01*
X9264Y-3380D01*
X9364Y-3430D02*
X9464D01*
X9414D01*
Y-3130D01*
X9364Y-3180D01*
X9763Y-3430D02*
Y-3130D01*
X9614Y-3280D01*
X9813D01*
X3564Y2940D02*
X3514Y2990D01*
X3414D01*
X3364Y2940D01*
Y2740D01*
X3414Y2690D01*
X3514D01*
X3564Y2740D01*
X3664Y2990D02*
X3864D01*
Y2940D01*
X3664Y2740D01*
Y2690D01*
X1624Y3600D02*
X1574Y3650D01*
X1474D01*
X1424Y3600D01*
Y3400D01*
X1474Y3350D01*
X1574D01*
X1624Y3400D01*
X1924Y3350D02*
X1724D01*
X1924Y3550D01*
Y3600D01*
X1874Y3650D01*
X1774D01*
X1724Y3600D01*
X2484Y1950D02*
Y2250D01*
X2634D01*
X2684Y2200D01*
Y2100D01*
X2634Y2050D01*
X2484D01*
X2584D02*
X2684Y1950D01*
X2784Y2200D02*
X2834Y2250D01*
X2934D01*
X2984Y2200D01*
Y2150D01*
X2934Y2100D01*
X2884D01*
X2934D01*
X2984Y2050D01*
Y2000D01*
X2934Y1950D01*
X2834D01*
X2784Y2000D01*
X2464Y1430D02*
Y1730D01*
X2614D01*
X2664Y1680D01*
Y1580D01*
X2614Y1530D01*
X2464D01*
X2564D02*
X2664Y1430D01*
X2964D02*
X2764D01*
X2964Y1630D01*
Y1680D01*
X2914Y1730D01*
X2814D01*
X2764Y1680D01*
X18074Y326D02*
X17774D01*
Y476D01*
X17824Y526D01*
X17924D01*
X17974Y476D01*
Y326D01*
X18074Y626D02*
Y726D01*
Y676D01*
X17774D01*
X17824Y626D01*
X15894Y-700D02*
Y-400D01*
X16044D01*
X16094Y-450D01*
Y-550D01*
X16044Y-600D01*
X15894D01*
X15994D02*
X16094Y-700D01*
X16394Y-400D02*
X16294Y-450D01*
X16194Y-550D01*
Y-650D01*
X16244Y-700D01*
X16344D01*
X16394Y-650D01*
Y-600D01*
X16344Y-550D01*
X16194D01*
X15914Y-1370D02*
Y-1070D01*
X16064D01*
X16114Y-1120D01*
Y-1220D01*
X16064Y-1270D01*
X15914D01*
X16014D02*
X16114Y-1370D01*
X16214Y-1070D02*
X16414D01*
Y-1120D01*
X16214Y-1320D01*
Y-1370D01*
X15905Y996D02*
Y1296D01*
X16055D01*
X16105Y1246D01*
Y1146D01*
X16055Y1096D01*
X15905D01*
X16005D02*
X16105Y996D01*
X16205D02*
X16305D01*
X16255D01*
Y1296D01*
X16205Y1246D01*
X16455D02*
X16505Y1296D01*
X16605D01*
X16655Y1246D01*
Y1196D01*
X16605Y1146D01*
X16655Y1096D01*
Y1046D01*
X16605Y996D01*
X16505D01*
X16455Y1046D01*
Y1096D01*
X16505Y1146D01*
X16455Y1196D01*
Y1246D01*
X16505Y1146D02*
X16605D01*
X15904Y290D02*
Y590D01*
X16054D01*
X16104Y540D01*
Y440D01*
X16054Y390D01*
X15904D01*
X16004D02*
X16104Y290D01*
X16204D02*
X16304D01*
X16254D01*
Y590D01*
X16204Y540D01*
X16454Y340D02*
X16504Y290D01*
X16603D01*
X16653Y340D01*
Y540D01*
X16603Y590D01*
X16504D01*
X16454Y540D01*
Y490D01*
X16504Y440D01*
X16653D01*
X15414Y3600D02*
Y3900D01*
X15564D01*
X15614Y3850D01*
Y3750D01*
X15564Y3700D01*
X15414D01*
X15514D02*
X15614Y3600D01*
X15714D02*
X15814D01*
X15764D01*
Y3900D01*
X15714Y3850D01*
X16163Y3900D02*
X15964D01*
Y3750D01*
X16063Y3800D01*
X16113D01*
X16163Y3750D01*
Y3650D01*
X16113Y3600D01*
X16014D01*
X15964Y3650D01*
X15114Y2270D02*
X14814D01*
Y2420D01*
X14864Y2470D01*
X14964D01*
X15014Y2420D01*
Y2270D01*
Y2370D02*
X15114Y2470D01*
Y2570D02*
Y2670D01*
Y2620D01*
X14814D01*
X14864Y2570D01*
X15114Y2970D02*
X14814D01*
X14964Y2820D01*
Y3020D01*
X12214Y896D02*
Y646D01*
X12264Y596D01*
X12364D01*
X12414Y646D01*
Y896D01*
X12514D02*
X12714D01*
Y846D01*
X12514Y646D01*
Y596D01*
X12154Y-840D02*
Y-1090D01*
X12204Y-1140D01*
X12304D01*
X12354Y-1090D01*
Y-840D01*
X12654Y-1140D02*
X12454D01*
X12654Y-940D01*
Y-890D01*
X12604Y-840D01*
X12504D01*
X12454Y-890D01*
X8824Y2970D02*
Y3270D01*
X8974D01*
X9024Y3220D01*
Y3120D01*
X8974Y3070D01*
X8824D01*
X8924D02*
X9024Y2970D01*
X9124D02*
X9224D01*
X9174D01*
Y3270D01*
X9124Y3220D01*
X10228Y1500D02*
Y1799D01*
X10378D01*
X10428Y1749D01*
Y1649D01*
X10378Y1600D01*
X10228D01*
X10328D02*
X10428Y1500D01*
X10678D02*
Y1799D01*
X10528Y1649D01*
X10728D01*
X10914Y2680D02*
Y2980D01*
X11064D01*
X11114Y2930D01*
Y2830D01*
X11064Y2780D01*
X10914D01*
X11014D02*
X11114Y2680D01*
X11214D02*
X11314D01*
X11264D01*
Y2980D01*
X11214Y2930D01*
X11464Y2980D02*
X11663D01*
Y2930D01*
X11464Y2730D01*
Y2680D01*
X7620Y1420D02*
Y1170D01*
X7670Y1120D01*
X7770D01*
X7820Y1170D01*
Y1420D01*
X8120D02*
X7920D01*
Y1270D01*
X8020Y1320D01*
X8070D01*
X8120Y1270D01*
Y1170D01*
X8070Y1120D01*
X7970D01*
X7920Y1170D01*
X2674Y1110D02*
X2624Y1160D01*
X2524D01*
X2474Y1110D01*
Y910D01*
X2524Y860D01*
X2624D01*
X2674Y910D01*
X2774D02*
X2824Y860D01*
X2924D01*
X2974Y910D01*
Y1110D01*
X2924Y1160D01*
X2824D01*
X2774Y1110D01*
Y1060D01*
X2824Y1010D01*
X2974D01*
X12684Y3720D02*
X12634Y3770D01*
X12534D01*
X12484Y3720D01*
Y3520D01*
X12534Y3470D01*
X12634D01*
X12684Y3520D01*
X12784Y3470D02*
X12884D01*
X12834D01*
Y3770D01*
X12784Y3720D01*
X13034Y3470D02*
X13133D01*
X13084D01*
Y3770D01*
X13034Y3720D01*
X14332Y450D02*
X14282Y500D01*
X14182D01*
X14132Y450D01*
Y250D01*
X14182Y200D01*
X14282D01*
X14332Y250D01*
X14432Y200D02*
X14532D01*
X14482D01*
Y500D01*
X14432Y450D01*
X14314Y2046D02*
X14264Y2096D01*
X14164D01*
X14114Y2046D01*
Y1846D01*
X14164Y1796D01*
X14264D01*
X14314Y1846D01*
X14414Y1796D02*
X14514D01*
X14464D01*
Y2096D01*
X14414Y2046D01*
X14863Y2096D02*
X14664D01*
Y1946D01*
X14763Y1996D01*
X14813D01*
X14863Y1946D01*
Y1846D01*
X14813Y1796D01*
X14714D01*
X14664Y1846D01*
X21164Y196D02*
X20864D01*
Y346D01*
X20914Y396D01*
X21014D01*
X21064Y346D01*
Y196D01*
X21164Y696D02*
Y496D01*
X20964Y696D01*
X20914D01*
X20864Y646D01*
Y546D01*
X20914Y496D01*
X5224Y-3240D02*
X4924D01*
Y-3090D01*
X4974Y-3040D01*
X5074D01*
X5124Y-3090D01*
Y-3240D01*
X4974Y-2940D02*
X4924Y-2890D01*
Y-2790D01*
X4974Y-2740D01*
X5024D01*
X5074Y-2790D01*
Y-2840D01*
Y-2790D01*
X5124Y-2740D01*
X5174D01*
X5224Y-2790D01*
Y-2890D01*
X5174Y-2940D01*
X1444Y3040D02*
Y2740D01*
X1644D01*
X1744D02*
X1844D01*
X1794D01*
Y3040D01*
X1744Y2990D01*
X464Y3030D02*
Y2730D01*
X664D01*
X964D02*
X764D01*
X964Y2930D01*
Y2980D01*
X914Y3030D01*
X814D01*
X764Y2980D01*
X3934Y-10D02*
X3634D01*
Y140D01*
X3684Y190D01*
X3784D01*
X3834Y140D01*
Y-10D01*
Y90D02*
X3934Y190D01*
Y290D02*
Y390D01*
Y340D01*
X3634D01*
X3684Y290D01*
Y540D02*
X3634Y590D01*
Y690D01*
X3684Y740D01*
X3884D01*
X3934Y690D01*
Y590D01*
X3884Y540D01*
X3684D01*
X3404Y0D02*
X3104D01*
Y150D01*
X3154Y200D01*
X3254D01*
X3304Y150D01*
Y0D01*
Y100D02*
X3404Y200D01*
Y300D02*
Y400D01*
Y350D01*
X3104D01*
X3154Y300D01*
Y550D02*
X3104Y600D01*
Y700D01*
X3154Y750D01*
X3204D01*
X3254Y700D01*
Y650D01*
Y700D01*
X3304Y750D01*
X3354D01*
X3404Y700D01*
Y600D01*
X3354Y550D01*
X904Y-3690D02*
Y-3940D01*
X954Y-3990D01*
X1054D01*
X1104Y-3940D01*
Y-3690D01*
X1204Y-3990D02*
X1304D01*
X1254D01*
Y-3690D01*
X1204Y-3740D01*
X19334Y440D02*
X19534D01*
Y390D01*
X19334Y190D01*
Y140D01*
X19534D01*
X19634D02*
X19734D01*
X19684D01*
Y440D01*
X19634Y390D01*
X4257Y-2261D02*
X4157D01*
X4207D01*
Y-2511D01*
X4157Y-2561D01*
X4107D01*
X4057Y-2511D01*
X4357Y-2561D02*
Y-2261D01*
X4507D01*
X4557Y-2311D01*
Y-2411D01*
X4507Y-2461D01*
X4357D01*
X4657Y-2561D02*
X4757D01*
X4707D01*
Y-2261D01*
X4657Y-2311D01*
X9864Y2940D02*
X9814Y2990D01*
X9714D01*
X9664Y2940D01*
Y2740D01*
X9714Y2690D01*
X9814D01*
X9864Y2740D01*
X9964Y2690D02*
X10064D01*
X10014D01*
Y2990D01*
X9964Y2940D01*
X10413Y2990D02*
X10313Y2940D01*
X10214Y2840D01*
Y2740D01*
X10264Y2690D01*
X10363D01*
X10413Y2740D01*
Y2790D01*
X10363Y2840D01*
X10214D01*
X6974Y3260D02*
Y2968D01*
X7032Y2910D01*
X7149D01*
X7207Y2968D01*
Y3260D01*
X7557Y3202D02*
X7499Y3260D01*
X7382D01*
X7324Y3202D01*
Y3143D01*
X7382Y3085D01*
X7499D01*
X7557Y3027D01*
Y2968D01*
X7499Y2910D01*
X7382D01*
X7324Y2968D01*
X7673Y3260D02*
Y2910D01*
X7848D01*
X7907Y2968D01*
Y3027D01*
X7848Y3085D01*
X7673D01*
X7848D01*
X7907Y3143D01*
Y3202D01*
X7848Y3260D01*
X7673D01*
X18790Y-3020D02*
X19023D01*
X18907D01*
Y-3370D01*
X19140Y-3020D02*
Y-3253D01*
X19257Y-3370D01*
X19373Y-3253D01*
Y-3020D01*
X19723D02*
Y-3370D01*
X19548D01*
X19490Y-3312D01*
Y-3195D01*
X19548Y-3137D01*
X19723D01*
X20073Y-3020D02*
Y-3370D01*
X19898D01*
X19840Y-3312D01*
Y-3195D01*
X19898Y-3137D01*
X20073D01*
D47*
X16844Y3980D02*
X17064D01*
X16714Y3830D02*
X17204D01*
X16939Y3525D02*
Y3690D01*
X16604D02*
X17304D01*
D48*
X19474Y2846D02*
Y3346D01*
X19724D01*
X19807Y3263D01*
Y3096D01*
X19724Y3013D01*
X19474D01*
X19640D02*
X19807Y2846D01*
X20223D02*
X20057D01*
X19974Y2930D01*
Y3096D01*
X20057Y3180D01*
X20223D01*
X20307Y3096D01*
Y3013D01*
X19974D01*
X20473Y2846D02*
X20723D01*
X20807Y2930D01*
X20723Y3013D01*
X20557D01*
X20473Y3096D01*
X20557Y3180D01*
X20807D01*
X21223Y2846D02*
X21057D01*
X20973Y2930D01*
Y3096D01*
X21057Y3180D01*
X21223D01*
X21306Y3096D01*
Y3013D01*
X20973D01*
X21556Y3263D02*
Y3180D01*
X21473D01*
X21640D01*
X21556D01*
Y2930D01*
X21640Y2846D01*
M02*
