M48
;Layer_Color=9474304
;FILE_FORMAT=2:4
INCH
;TYPE=PLATED
T1F00S00C0.0130
T2F00S00C0.0236
T3F00S00C0.0315
T4F00S00C0.0354
;TYPE=NON_PLATED
T5F00S00C0.0276
%
T01
X-001264Y-003450
X-000712Y-002880
X-000476
X-000594Y-001950
X-000964
X-000220Y-001950
X000780Y-002660
X001140Y-003090
X001550Y-002680
X002290
X001960Y-003080
X001946Y-003583
X003130Y-003200
X003940Y-002220
X003930Y-001610
X003150Y-001110
X003100Y000430
X002470Y000480
X001890Y000460
X000830Y000320
X000840Y001060
X000843Y001834
X000170Y001680
X-000390Y002860
X-000410Y003650
X002010Y003810
X002000Y002530
X003180Y001900
X003530Y002100
X003960Y002780
X003730Y003650
X005140Y002990
X005810
X006720Y003580
X007500Y003000
X008570Y003540
X008670Y001690
X009077Y001200
X008790Y000410
X009150Y-000050
X009746Y-000410
X010300Y-000884
Y-001264
X010320Y-001770
X010670Y-002054
X009900Y-002530
X009466Y-002490
X009456Y-002920
X008650Y-003220
X007910Y-002920
X007600Y-003650
X006590Y-003490
X006660Y-002600
X006706Y-000830
Y000070
X007470Y-000480
X007740Y-001630
X008220Y-002100
X005610Y-001226
X005036Y-000880
X005206Y001670
X006800Y001410
X010610Y001110
X010900Y001626
X011540Y002330
X012220Y001976
X011780Y000996
X011398Y-000220
X010900Y-000414
X010600Y-000590
X011778Y-000790
X012240Y-001474
X011780Y-002450
X011500Y-003040
X010290Y-003770
X010710Y003470
X011800Y003120
X000500Y-000520
X-000474Y-000470
X-000470Y000430
X000056Y-003580
X012520Y-002184
X012698Y-000686
X013260Y-000060
X013950Y-000050
X014640Y-000070
X015100Y-000580
X015040Y-001454
X016250Y-001440
X017210Y-001420
X017610Y-000844
X017980Y-000842
X018350Y-000750
X018550Y000270
X017980
X017340
X017980Y001260
X017650Y001796
X016930Y001986
X015190Y001966
X014550Y001440
X013370Y001640
X012740Y001630
X012700Y001030
X013030Y003076
X013110Y003710
X016110Y003750
X018320Y002696
X019260Y003406
X019770Y000456
X019080Y-003094
X018110Y-003104
X017550Y-003494
X016180Y-003484
X015530Y-003124
X014540Y-002660
X014530Y-003770
X013780Y-001680
T02
X003956Y-003480
Y-002980
X004456Y-003480
X004956
Y-002980
X005456
Y-003480
X005956
Y-002980
X019156Y-002250
X019656
Y-001750
X019156
Y-001250
X019656
X019156Y-000750
Y-000250
X019656
Y001250
X019156
Y001750
X019656
Y002250
X019156
T03
X001123Y-001710
X001910
X002697
T04
X008780Y-001760
X015750Y-001000
Y000000
Y001000
X016750
Y000000
Y-001000
X015340Y003086
T05
X016810Y003066
M30
