G04*
G04 #@! TF.GenerationSoftware,Altium Limited,Altium Designer,18.1.6 (161)*
G04*
G04 Layer_Color=65535*
%FSLAX24Y24*%
%MOIN*%
G70*
G01*
G75*
%ADD10C,0.0098*%
%ADD11C,0.0236*%
%ADD12C,0.0100*%
%ADD13C,0.0080*%
%ADD14C,0.0039*%
%ADD15C,0.0079*%
%ADD16C,0.0050*%
%ADD17C,0.0070*%
G36*
X8425Y-2675D02*
Y-3325D01*
X7875Y-2975D01*
X8425Y-2675D01*
D02*
G37*
G36*
X21514Y-3275D02*
X20864D01*
X21214Y-2725D01*
X21514Y-3275D01*
D02*
G37*
G36*
X16975Y1680D02*
X17625D01*
X17275Y1130D01*
X16975Y1680D01*
D02*
G37*
D10*
X1729Y-2360D02*
G03*
X1729Y-2360I-49J0D01*
G01*
X3484Y-3532D02*
G03*
X3484Y-3532I-49J0D01*
G01*
X5384Y1972D02*
G03*
X5384Y1972I-49J0D01*
G01*
X12703Y3340D02*
G03*
X12703Y3340I-49J0D01*
G01*
X12633Y-2274D02*
G03*
X12633Y-2274I-49J0D01*
G01*
X19209Y-300D02*
G03*
X19209Y-300I-49J0D01*
G01*
X13021Y-440D02*
G03*
X13021Y-440I-49J0D01*
G01*
X13023Y1273D02*
G03*
X13023Y1273I-49J0D01*
G01*
D11*
X6359Y1500D02*
G03*
X6359Y1500I-118J0D01*
G01*
D12*
X19079Y2810D02*
G03*
X19079Y2810I-689J0D01*
G01*
X17799Y1806D02*
X18981D01*
X19394Y2338D02*
Y3282D01*
X17386Y2338D02*
Y3282D01*
X17799Y3814D02*
X18981D01*
X11290Y-3384D02*
Y-3164D01*
X11140Y-3524D02*
Y-3034D01*
X10835Y-3259D02*
X11000Y-3259D01*
Y-3624D02*
Y-2924D01*
D13*
X10807Y-3250D02*
G03*
X10807Y-3250I-413J0D01*
G01*
X10807Y-1760D02*
G03*
X10807Y-1760I-413J0D01*
G01*
X1860Y-2080D02*
X1794Y-2013D01*
Y-1880D01*
X1860Y-1813D01*
X1927D01*
X1994Y-1880D01*
Y-1947D01*
Y-1880D01*
X2060Y-1813D01*
X2127D01*
X2194Y-1880D01*
Y-2013D01*
X2127Y-2080D01*
X1794Y-1680D02*
X2060D01*
X2194Y-1547D01*
X2060Y-1414D01*
X1794D01*
X4870Y-1863D02*
Y-2130D01*
X5070D01*
X5003Y-1997D01*
Y-1930D01*
X5070Y-1863D01*
X5203D01*
X5270Y-1930D01*
Y-2063D01*
X5203Y-2130D01*
X4870Y-1730D02*
X5137D01*
X5270Y-1597D01*
X5137Y-1464D01*
X4870D01*
X19004Y86D02*
X19504D01*
Y336D01*
X19420Y420D01*
X19337D01*
X19254Y336D01*
Y86D01*
Y336D01*
X19170Y420D01*
X19087D01*
X19004Y336D01*
Y86D01*
Y586D02*
X19504D01*
Y836D01*
X19420Y919D01*
X19087D01*
X19004Y836D01*
Y586D01*
X19504Y1086D02*
X19004D01*
X19170Y1253D01*
X19004Y1419D01*
X19504D01*
X19797Y410D02*
X19714Y326D01*
Y160D01*
X19797Y76D01*
X19880D01*
X19964Y160D01*
Y326D01*
X20047Y410D01*
X20130D01*
X20214Y326D01*
Y160D01*
X20130Y76D01*
X19714Y576D02*
X20214D01*
X20047Y743D01*
X20214Y909D01*
X19714D01*
Y1076D02*
X20214D01*
Y1326D01*
X20130Y1409D01*
X19797D01*
X19714Y1326D01*
Y1076D01*
D14*
X430Y-3195D02*
Y-2565D01*
X1611Y-3195D02*
Y-2565D01*
X20351Y2520D02*
X20483D01*
X21557D02*
X21689D01*
X21557Y-2520D02*
X21689D01*
X20351D02*
X20483D01*
X21689D02*
Y2520D01*
X20351Y-2520D02*
Y2520D01*
X1088Y-1486D02*
X1720D01*
X-201D02*
X114D01*
X-280Y-1565D02*
X-201Y-1486D01*
X-280Y1545D02*
X-201Y1466D01*
X114D01*
X-280Y-1565D02*
Y1545D01*
X1088Y1466D02*
X1720D01*
X-4Y-1486D02*
Y1466D01*
X7360Y3393D02*
Y3787D01*
X8000Y3393D02*
Y3787D01*
X20070Y-3141D02*
Y-2747D01*
X19430Y-3141D02*
Y-2747D01*
X2654Y3285D02*
Y3875D01*
X10144Y2143D02*
Y2537D01*
X13414Y1429D02*
Y1823D01*
X13912Y-347D02*
Y47D01*
X13764Y3403D02*
Y3797D01*
X3652Y823D02*
Y1217D01*
X4490Y2713D02*
Y3107D01*
X8527Y-3090D02*
X8921D01*
X13064Y-2151D02*
Y-1757D01*
X4492Y3353D02*
Y3747D01*
X4157Y-650D02*
X4551D01*
X18161Y-2644D02*
X18554D01*
X16361D02*
X16754D01*
X4113Y-3192D02*
X4507D01*
X2507Y-650D02*
X2901D01*
X1773Y-2780D02*
X2167D01*
X1114Y2053D02*
Y2467D01*
X2654Y2573D02*
Y2987D01*
X8830Y3383D02*
Y3797D01*
X3047Y-650D02*
X3460D01*
X3597D02*
X4010D01*
X11446Y2133D02*
Y2547D01*
Y1413D02*
Y1827D01*
X10190Y3373D02*
Y3787D01*
X15494Y2443D02*
Y2857D01*
Y3073D02*
Y3487D01*
X15214Y263D02*
Y677D01*
Y930D02*
Y1343D01*
Y-1447D02*
Y-1033D01*
Y-770D02*
Y-357D01*
X3654Y1353D02*
Y1767D01*
Y1893D02*
Y2307D01*
X6116Y3383D02*
Y3797D01*
X15494Y1810D02*
Y2223D01*
X15214Y-3280D02*
Y-2867D01*
X17551Y-2644D02*
X17964D01*
X16951D02*
X17364D01*
X11710Y-187D02*
Y227D01*
Y493D02*
Y907D01*
X19430Y-2550D02*
Y-2137D01*
X15214Y-2607D02*
Y-2193D01*
X7840Y-3899D02*
Y-3767D01*
X5296Y-3899D02*
X7840D01*
X5296Y-2561D02*
X7840D01*
Y-2693D02*
Y-2561D01*
X5300Y-2693D02*
Y-2561D01*
Y-3899D02*
Y-3767D01*
X13020Y2130D02*
Y3300D01*
X13847Y2130D02*
Y3300D01*
X13020D02*
X13847D01*
X13020Y2130D02*
X13847D01*
X12950Y-3484D02*
Y-2314D01*
X13777Y-3484D02*
Y-2314D01*
X12950D02*
X13777D01*
X12950Y-3484D02*
X13777D01*
X19482Y-400D02*
X19718D01*
X19482Y-1190D02*
X19718D01*
X19482D02*
Y-400D01*
X19718Y-1190D02*
Y-400D01*
X13294Y-540D02*
X13530D01*
X13294Y-1330D02*
X13530D01*
X13294D02*
Y-540D01*
X13530Y-1330D02*
Y-540D01*
X13296Y1173D02*
X13532D01*
X13296Y383D02*
X13532D01*
X13296D02*
Y1173D01*
X13532Y383D02*
Y1173D01*
X18800Y-1939D02*
Y1061D01*
X16800D02*
X18800D01*
X16800Y-1939D02*
Y1061D01*
Y-1939D02*
X18800D01*
D15*
X2509Y-3276D02*
X2824D01*
X2509D02*
Y-2921D01*
X3376Y-3276D02*
X3691D01*
Y-2921D01*
X5847Y-1453D02*
X9193D01*
X5847Y1893D02*
X9193D01*
Y-1453D02*
Y1893D01*
X5847Y-1453D02*
Y1893D01*
X2343Y-2104D02*
Y-1316D01*
X4705D01*
X2343Y-2104D02*
X4705D01*
Y-1316D01*
D16*
X-454Y0D02*
X3D01*
X2350Y-3400D02*
Y-3650D01*
X2400Y-3700D01*
X2500D01*
X2550Y-3650D01*
Y-3400D01*
X2650Y-3450D02*
X2700Y-3400D01*
X2800D01*
X2850Y-3450D01*
Y-3500D01*
X2800Y-3550D01*
X2750D01*
X2800D01*
X2850Y-3600D01*
Y-3650D01*
X2800Y-3700D01*
X2700D01*
X2650Y-3650D01*
X6890Y3310D02*
Y2977D01*
X6957Y2910D01*
X7090D01*
X7157Y2977D01*
Y3310D01*
X7556Y3243D02*
X7490Y3310D01*
X7357D01*
X7290Y3243D01*
Y3177D01*
X7357Y3110D01*
X7490D01*
X7556Y3043D01*
Y2977D01*
X7490Y2910D01*
X7357D01*
X7290Y2977D01*
X7690Y3310D02*
Y2910D01*
X7890D01*
X7956Y2977D01*
Y3043D01*
X7890Y3110D01*
X7690D01*
X7890D01*
X7956Y3177D01*
Y3243D01*
X7890Y3310D01*
X7690D01*
X18796Y-3350D02*
X19030D01*
X18913D01*
Y-3700D01*
X19146Y-3350D02*
Y-3583D01*
X19263Y-3700D01*
X19380Y-3583D01*
Y-3350D01*
X19729D02*
Y-3700D01*
X19554D01*
X19496Y-3642D01*
Y-3525D01*
X19554Y-3467D01*
X19729D01*
X20079Y-3350D02*
Y-3700D01*
X19904D01*
X19846Y-3642D01*
Y-3525D01*
X19904Y-3467D01*
X20079D01*
X18360Y2550D02*
X18311Y2600D01*
X18211D01*
X18161Y2550D01*
Y2500D01*
X18211Y2450D01*
X18311D01*
X18360Y2400D01*
Y2350D01*
X18311Y2300D01*
X18211D01*
X18161Y2350D01*
X18460Y2300D02*
X18560D01*
X18510D01*
Y2600D01*
X18460Y2550D01*
X1930Y-3500D02*
X1880Y-3450D01*
X1780D01*
X1730Y-3500D01*
Y-3700D01*
X1780Y-3750D01*
X1880D01*
X1930Y-3700D01*
X2180Y-3750D02*
Y-3450D01*
X2030Y-3600D01*
X2230D01*
X14724Y-2030D02*
Y-1730D01*
X14874D01*
X14924Y-1780D01*
Y-1880D01*
X14874Y-1930D01*
X14724D01*
X14824D02*
X14924Y-2030D01*
X15024Y-1980D02*
X15074Y-2030D01*
X15174D01*
X15224Y-1980D01*
Y-1780D01*
X15174Y-1730D01*
X15074D01*
X15024Y-1780D01*
Y-1830D01*
X15074Y-1880D01*
X15224D01*
X10890Y-1640D02*
X11090D01*
X10990D01*
Y-1940D01*
X11190D02*
Y-1640D01*
X11340D01*
X11390Y-1690D01*
Y-1790D01*
X11340Y-1840D01*
X11190D01*
X11540Y-1740D02*
X11640D01*
X11690Y-1790D01*
Y-1940D01*
X11540D01*
X11490Y-1890D01*
X11540Y-1840D01*
X11690D01*
X19154Y-1980D02*
Y-1680D01*
X19304D01*
X19354Y-1730D01*
Y-1830D01*
X19304Y-1880D01*
X19154D01*
X19254D02*
X19354Y-1980D01*
X19654D02*
X19454D01*
X19654Y-1780D01*
Y-1730D01*
X19604Y-1680D01*
X19504D01*
X19454Y-1730D01*
X19754Y-1980D02*
X19853D01*
X19803D01*
Y-1680D01*
X19754Y-1730D01*
X20214Y-2780D02*
Y-3080D01*
X20364D01*
X20414Y-3030D01*
Y-2830D01*
X20364Y-2780D01*
X20214D01*
X20714Y-3080D02*
X20514D01*
X20714Y-2880D01*
Y-2830D01*
X20664Y-2780D01*
X20564D01*
X20514Y-2830D01*
X2589Y220D02*
X2539Y170D01*
Y70D01*
X2589Y20D01*
X2789D01*
X2839Y70D01*
Y170D01*
X2789Y220D01*
X2589Y320D02*
X2539Y370D01*
Y470D01*
X2589Y520D01*
X2639D01*
X2689Y470D01*
Y420D01*
Y470D01*
X2739Y520D01*
X2789D01*
X2839Y470D01*
Y370D01*
X2789Y320D01*
X4820Y-3430D02*
X4770Y-3380D01*
X4670D01*
X4620Y-3430D01*
Y-3630D01*
X4670Y-3680D01*
X4770D01*
X4820Y-3630D01*
X5120Y-3380D02*
X4920D01*
Y-3530D01*
X5020Y-3480D01*
X5070D01*
X5120Y-3530D01*
Y-3630D01*
X5070Y-3680D01*
X4970D01*
X4920Y-3630D01*
X10244Y560D02*
Y860D01*
X10394D01*
X10444Y810D01*
Y710D01*
X10394Y660D01*
X10244D01*
X10344D02*
X10444Y560D01*
X10744D02*
X10544D01*
X10744Y760D01*
Y810D01*
X10694Y860D01*
X10594D01*
X10544Y810D01*
X10844D02*
X10893Y860D01*
X10993D01*
X11043Y810D01*
Y610D01*
X10993Y560D01*
X10893D01*
X10844Y610D01*
Y810D01*
X10240Y-160D02*
Y140D01*
X10390D01*
X10440Y90D01*
Y-10D01*
X10390Y-60D01*
X10240D01*
X10340D02*
X10440Y-160D01*
X10740D02*
X10540D01*
X10740Y40D01*
Y90D01*
X10690Y140D01*
X10590D01*
X10540Y90D01*
X11040Y-160D02*
X10840D01*
X11040Y40D01*
Y90D01*
X10990Y140D01*
X10890D01*
X10840Y90D01*
X16250Y-3350D02*
X16200Y-3300D01*
X16100D01*
X16050Y-3350D01*
Y-3550D01*
X16100Y-3600D01*
X16200D01*
X16250Y-3550D01*
X16350Y-3600D02*
X16450D01*
X16400D01*
Y-3300D01*
X16350Y-3350D01*
X16800Y-3600D02*
X16600D01*
X16800Y-3400D01*
Y-3350D01*
X16750Y-3300D01*
X16650D01*
X16600Y-3350D01*
X16747Y-3960D02*
Y-3660D01*
X16897D01*
X16947Y-3710D01*
Y-3810D01*
X16897Y-3860D01*
X16747D01*
X16847D02*
X16947Y-3960D01*
X17047D02*
X17147D01*
X17097D01*
Y-3660D01*
X17047Y-3710D01*
X17497Y-3960D02*
X17297D01*
X17497Y-3760D01*
Y-3710D01*
X17447Y-3660D01*
X17347D01*
X17297Y-3710D01*
X17447Y-3590D02*
Y-3290D01*
X17597D01*
X17647Y-3340D01*
Y-3440D01*
X17597Y-3490D01*
X17447D01*
X17547D02*
X17647Y-3590D01*
X17747D02*
X17847D01*
X17797D01*
Y-3290D01*
X17747Y-3340D01*
X17997Y-3590D02*
X18097D01*
X18047D01*
Y-3290D01*
X17997Y-3340D01*
X14754Y-3740D02*
Y-3440D01*
X14904D01*
X14954Y-3490D01*
Y-3590D01*
X14904Y-3640D01*
X14754D01*
X14854D02*
X14954Y-3740D01*
X15054Y-3490D02*
X15104Y-3440D01*
X15204D01*
X15254Y-3490D01*
Y-3540D01*
X15204Y-3590D01*
X15254Y-3640D01*
Y-3690D01*
X15204Y-3740D01*
X15104D01*
X15054Y-3690D01*
Y-3640D01*
X15104Y-3590D01*
X15054Y-3540D01*
Y-3490D01*
X15104Y-3590D02*
X15204D01*
X11770Y-2880D02*
Y-3130D01*
X11820Y-3180D01*
X11920D01*
X11970Y-3130D01*
Y-2880D01*
X12220Y-3180D02*
Y-2880D01*
X12070Y-3030D01*
X12270D01*
X11860Y3230D02*
Y2980D01*
X11910Y2930D01*
X12010D01*
X12060Y2980D01*
Y3230D01*
X12360D02*
X12260Y3180D01*
X12160Y3080D01*
Y2980D01*
X12210Y2930D01*
X12310D01*
X12360Y2980D01*
Y3030D01*
X12310Y3080D01*
X12160D01*
X15190Y1420D02*
Y1720D01*
X15340D01*
X15390Y1670D01*
Y1570D01*
X15340Y1520D01*
X15190D01*
X15290D02*
X15390Y1420D01*
X15490D02*
X15590D01*
X15540D01*
Y1720D01*
X15490Y1670D01*
X15940Y1720D02*
X15840Y1670D01*
X15740Y1570D01*
Y1470D01*
X15790Y1420D01*
X15890D01*
X15940Y1470D01*
Y1520D01*
X15890Y1570D01*
X15740D01*
X18100Y-3700D02*
X18050Y-3650D01*
X17950D01*
X17900Y-3700D01*
Y-3900D01*
X17950Y-3950D01*
X18050D01*
X18100Y-3900D01*
X18200Y-3950D02*
X18300D01*
X18250D01*
Y-3650D01*
X18200Y-3700D01*
X18450D02*
X18500Y-3650D01*
X18600D01*
X18650Y-3700D01*
Y-3750D01*
X18600Y-3800D01*
X18550D01*
X18600D01*
X18650Y-3850D01*
Y-3900D01*
X18600Y-3950D01*
X18500D01*
X18450Y-3900D01*
X5780Y2960D02*
Y3260D01*
X5930D01*
X5980Y3210D01*
Y3110D01*
X5930Y3060D01*
X5780D01*
X5880D02*
X5980Y2960D01*
X6280Y3260D02*
X6080D01*
Y3110D01*
X6180Y3160D01*
X6230D01*
X6280Y3110D01*
Y3010D01*
X6230Y2960D01*
X6130D01*
X6080Y3010D01*
X1284Y1850D02*
X1184D01*
X1234D01*
Y1600D01*
X1184Y1550D01*
X1134D01*
X1084Y1600D01*
X1384Y1550D02*
X1484D01*
X1434D01*
Y1850D01*
X1384Y1800D01*
X4264Y190D02*
X4214Y140D01*
Y40D01*
X4264Y-10D01*
X4464D01*
X4514Y40D01*
Y140D01*
X4464Y190D01*
X4514Y290D02*
Y390D01*
Y340D01*
X4214D01*
X4264Y290D01*
Y540D02*
X4214Y590D01*
Y690D01*
X4264Y740D01*
X4464D01*
X4514Y690D01*
Y590D01*
X4464Y540D01*
X4264D01*
X3564Y3610D02*
X3514Y3660D01*
X3414D01*
X3364Y3610D01*
Y3410D01*
X3414Y3360D01*
X3514D01*
X3564Y3410D01*
X3664Y3610D02*
X3714Y3660D01*
X3814D01*
X3864Y3610D01*
Y3560D01*
X3814Y3510D01*
X3864Y3460D01*
Y3410D01*
X3814Y3360D01*
X3714D01*
X3664Y3410D01*
Y3460D01*
X3714Y3510D01*
X3664Y3560D01*
Y3610D01*
X3714Y3510D02*
X3814D01*
X13960Y-1720D02*
X13910Y-1670D01*
X13810D01*
X13760Y-1720D01*
Y-1920D01*
X13810Y-1970D01*
X13910D01*
X13960Y-1920D01*
X14260Y-1670D02*
X14160Y-1720D01*
X14060Y-1820D01*
Y-1920D01*
X14110Y-1970D01*
X14210D01*
X14260Y-1920D01*
Y-1870D01*
X14210Y-1820D01*
X14060D01*
X9100Y-3310D02*
X9050Y-3360D01*
Y-3460D01*
X9100Y-3510D01*
X9300D01*
X9350Y-3460D01*
Y-3360D01*
X9300Y-3310D01*
X9350Y-3210D02*
Y-3110D01*
Y-3160D01*
X9050D01*
X9100Y-3210D01*
X9350Y-2810D02*
X9050D01*
X9200Y-2960D01*
Y-2760D01*
X3564Y2940D02*
X3514Y2990D01*
X3414D01*
X3364Y2940D01*
Y2740D01*
X3414Y2690D01*
X3514D01*
X3564Y2740D01*
X3664Y2990D02*
X3864D01*
Y2940D01*
X3664Y2740D01*
Y2690D01*
X1624Y3600D02*
X1574Y3650D01*
X1474D01*
X1424Y3600D01*
Y3400D01*
X1474Y3350D01*
X1574D01*
X1624Y3400D01*
X1924Y3350D02*
X1724D01*
X1924Y3550D01*
Y3600D01*
X1874Y3650D01*
X1774D01*
X1724Y3600D01*
X2484Y1950D02*
Y2250D01*
X2634D01*
X2684Y2200D01*
Y2100D01*
X2634Y2050D01*
X2484D01*
X2584D02*
X2684Y1950D01*
X2784Y2200D02*
X2834Y2250D01*
X2934D01*
X2984Y2200D01*
Y2150D01*
X2934Y2100D01*
X2884D01*
X2934D01*
X2984Y2050D01*
Y2000D01*
X2934Y1950D01*
X2834D01*
X2784Y2000D01*
X2464Y1430D02*
Y1730D01*
X2614D01*
X2664Y1680D01*
Y1580D01*
X2614Y1530D01*
X2464D01*
X2564D02*
X2664Y1430D01*
X2964D02*
X2764D01*
X2964Y1630D01*
Y1680D01*
X2914Y1730D01*
X2814D01*
X2764Y1680D01*
X18010Y-113D02*
X17710D01*
Y37D01*
X17760Y87D01*
X17860D01*
X17910Y37D01*
Y-113D01*
X18010Y187D02*
Y287D01*
Y237D01*
X17710D01*
X17760Y187D01*
X15894Y-700D02*
Y-400D01*
X16044D01*
X16094Y-450D01*
Y-550D01*
X16044Y-600D01*
X15894D01*
X15994D02*
X16094Y-700D01*
X16394Y-400D02*
X16294Y-450D01*
X16194Y-550D01*
Y-650D01*
X16244Y-700D01*
X16344D01*
X16394Y-650D01*
Y-600D01*
X16344Y-550D01*
X16194D01*
X15914Y-1370D02*
Y-1070D01*
X16064D01*
X16114Y-1120D01*
Y-1220D01*
X16064Y-1270D01*
X15914D01*
X16014D02*
X16114Y-1370D01*
X16214Y-1070D02*
X16414D01*
Y-1120D01*
X16214Y-1320D01*
Y-1370D01*
X15905Y996D02*
Y1296D01*
X16055D01*
X16105Y1246D01*
Y1146D01*
X16055Y1096D01*
X15905D01*
X16005D02*
X16105Y996D01*
X16205D02*
X16305D01*
X16255D01*
Y1296D01*
X16205Y1246D01*
X16455D02*
X16505Y1296D01*
X16605D01*
X16655Y1246D01*
Y1196D01*
X16605Y1146D01*
X16655Y1096D01*
Y1046D01*
X16605Y996D01*
X16505D01*
X16455Y1046D01*
Y1096D01*
X16505Y1146D01*
X16455Y1196D01*
Y1246D01*
X16505Y1146D02*
X16605D01*
X15904Y290D02*
Y590D01*
X16054D01*
X16104Y540D01*
Y440D01*
X16054Y390D01*
X15904D01*
X16004D02*
X16104Y290D01*
X16204D02*
X16304D01*
X16254D01*
Y590D01*
X16204Y540D01*
X16454Y340D02*
X16504Y290D01*
X16603D01*
X16653Y340D01*
Y540D01*
X16603Y590D01*
X16504D01*
X16454Y540D01*
Y490D01*
X16504Y440D01*
X16653D01*
X15144Y3600D02*
Y3900D01*
X15294D01*
X15344Y3850D01*
Y3750D01*
X15294Y3700D01*
X15144D01*
X15244D02*
X15344Y3600D01*
X15444D02*
X15544D01*
X15494D01*
Y3900D01*
X15444Y3850D01*
X15893Y3900D02*
X15694D01*
Y3750D01*
X15793Y3800D01*
X15843D01*
X15893Y3750D01*
Y3650D01*
X15843Y3600D01*
X15744D01*
X15694Y3650D01*
X14840Y2210D02*
X14540D01*
Y2360D01*
X14590Y2410D01*
X14690D01*
X14740Y2360D01*
Y2210D01*
Y2310D02*
X14840Y2410D01*
Y2510D02*
Y2610D01*
Y2560D01*
X14540D01*
X14590Y2510D01*
X14840Y2910D02*
X14540D01*
X14690Y2760D01*
Y2960D01*
X12110Y1290D02*
Y1040D01*
X12160Y990D01*
X12260D01*
X12310Y1040D01*
Y1290D01*
X12410D02*
X12610D01*
Y1240D01*
X12410Y1040D01*
Y990D01*
X12154Y-840D02*
Y-1090D01*
X12204Y-1140D01*
X12304D01*
X12354Y-1090D01*
Y-840D01*
X12654Y-1140D02*
X12454D01*
X12654Y-940D01*
Y-890D01*
X12604Y-840D01*
X12504D01*
X12454Y-890D01*
X10103Y2980D02*
Y3280D01*
X10253D01*
X10303Y3230D01*
Y3130D01*
X10253Y3080D01*
X10103D01*
X10203D02*
X10303Y2980D01*
X10403D02*
X10503D01*
X10453D01*
Y3280D01*
X10403Y3230D01*
X10280Y1580D02*
Y1880D01*
X10430D01*
X10480Y1830D01*
Y1730D01*
X10430Y1680D01*
X10280D01*
X10380D02*
X10480Y1580D01*
X10730D02*
Y1880D01*
X10580Y1730D01*
X10780D01*
X10990Y2660D02*
Y2960D01*
X11140D01*
X11190Y2910D01*
Y2810D01*
X11140Y2760D01*
X10990D01*
X11090D02*
X11190Y2660D01*
X11290D02*
X11390D01*
X11340D01*
Y2960D01*
X11290Y2910D01*
X11540Y2960D02*
X11740D01*
Y2910D01*
X11540Y2710D01*
Y2660D01*
X7620Y1420D02*
Y1170D01*
X7670Y1120D01*
X7770D01*
X7820Y1170D01*
Y1420D01*
X8120D02*
X7920D01*
Y1270D01*
X8020Y1320D01*
X8070D01*
X8120Y1270D01*
Y1170D01*
X8070Y1120D01*
X7970D01*
X7920Y1170D01*
X2674Y1110D02*
X2624Y1160D01*
X2524D01*
X2474Y1110D01*
Y910D01*
X2524Y860D01*
X2624D01*
X2674Y910D01*
X2774D02*
X2824Y860D01*
X2924D01*
X2974Y910D01*
Y1110D01*
X2924Y1160D01*
X2824D01*
X2774Y1110D01*
Y1060D01*
X2824Y1010D01*
X2974D01*
X12684Y3720D02*
X12634Y3770D01*
X12534D01*
X12484Y3720D01*
Y3520D01*
X12534Y3470D01*
X12634D01*
X12684Y3520D01*
X12784Y3470D02*
X12884D01*
X12834D01*
Y3770D01*
X12784Y3720D01*
X13034Y3470D02*
X13133D01*
X13084D01*
Y3770D01*
X13034Y3720D01*
X14332Y450D02*
X14282Y500D01*
X14182D01*
X14132Y450D01*
Y250D01*
X14182Y200D01*
X14282D01*
X14332Y250D01*
X14432Y200D02*
X14532D01*
X14482D01*
Y500D01*
X14432Y450D01*
X14300Y2000D02*
X14250Y2050D01*
X14150D01*
X14100Y2000D01*
Y1800D01*
X14150Y1750D01*
X14250D01*
X14300Y1800D01*
X14400Y1750D02*
X14500D01*
X14450D01*
Y2050D01*
X14400Y2000D01*
X14850Y2050D02*
X14650D01*
Y1900D01*
X14750Y1950D01*
X14800D01*
X14850Y1900D01*
Y1800D01*
X14800Y1750D01*
X14700D01*
X14650Y1800D01*
X21300Y227D02*
X21000D01*
Y377D01*
X21050Y427D01*
X21150D01*
X21200Y377D01*
Y227D01*
X21300Y727D02*
Y527D01*
X21100Y727D01*
X21050D01*
X21000Y677D01*
Y577D01*
X21050Y527D01*
X5220Y-3090D02*
X4920D01*
Y-2940D01*
X4970Y-2890D01*
X5070D01*
X5120Y-2940D01*
Y-3090D01*
X4970Y-2790D02*
X4920Y-2740D01*
Y-2640D01*
X4970Y-2590D01*
X5020D01*
X5070Y-2640D01*
Y-2690D01*
Y-2640D01*
X5120Y-2590D01*
X5170D01*
X5220Y-2640D01*
Y-2740D01*
X5170Y-2790D01*
X1444Y3040D02*
Y2740D01*
X1644D01*
X1744D02*
X1844D01*
X1794D01*
Y3040D01*
X1744Y2990D01*
X464Y3030D02*
Y2730D01*
X664D01*
X964D02*
X764D01*
X964Y2930D01*
Y2980D01*
X914Y3030D01*
X814D01*
X764Y2980D01*
X3930Y-10D02*
X3630D01*
Y140D01*
X3680Y190D01*
X3780D01*
X3830Y140D01*
Y-10D01*
Y90D02*
X3930Y190D01*
Y290D02*
Y390D01*
Y340D01*
X3630D01*
X3680Y290D01*
Y540D02*
X3630Y590D01*
Y690D01*
X3680Y740D01*
X3880D01*
X3930Y690D01*
Y590D01*
X3880Y540D01*
X3680D01*
X3404Y0D02*
X3104D01*
Y150D01*
X3154Y200D01*
X3254D01*
X3304Y150D01*
Y0D01*
Y100D02*
X3404Y200D01*
Y300D02*
Y400D01*
Y350D01*
X3104D01*
X3154Y300D01*
Y550D02*
X3104Y600D01*
Y700D01*
X3154Y750D01*
X3204D01*
X3254Y700D01*
Y650D01*
Y700D01*
X3304Y750D01*
X3354D01*
X3404Y700D01*
Y600D01*
X3354Y550D01*
X1830Y-2996D02*
X2080D01*
X2130Y-2946D01*
Y-2846D01*
X2080Y-2796D01*
X1830D01*
X2130Y-2696D02*
Y-2597D01*
Y-2646D01*
X1830D01*
X1880Y-2696D01*
X19430Y-1290D02*
X19630D01*
Y-1340D01*
X19430Y-1540D01*
Y-1590D01*
X19630D01*
X19730D02*
X19830D01*
X19780D01*
Y-1290D01*
X19730Y-1340D01*
X4257Y-2261D02*
X4157D01*
X4207D01*
Y-2511D01*
X4157Y-2561D01*
X4107D01*
X4057Y-2511D01*
X4357Y-2561D02*
Y-2261D01*
X4507D01*
X4557Y-2311D01*
Y-2411D01*
X4507Y-2461D01*
X4357D01*
X4657Y-2561D02*
X4757D01*
X4707D01*
Y-2261D01*
X4657Y-2311D01*
X10000Y2850D02*
X9950Y2900D01*
X9850D01*
X9800Y2850D01*
Y2650D01*
X9850Y2600D01*
X9950D01*
X10000Y2650D01*
X10100Y2600D02*
X10200D01*
X10150D01*
Y2900D01*
X10100Y2850D01*
X10550Y2900D02*
X10450Y2850D01*
X10350Y2750D01*
Y2650D01*
X10400Y2600D01*
X10500D01*
X10550Y2650D01*
Y2700D01*
X10500Y2750D01*
X10350D01*
X8440Y2980D02*
Y3280D01*
X8590D01*
X8640Y3230D01*
Y3130D01*
X8590Y3080D01*
X8440D01*
X8540D02*
X8640Y2980D01*
X8940D02*
X8740D01*
X8940Y3180D01*
Y3230D01*
X8890Y3280D01*
X8790D01*
X8740Y3230D01*
X9040D02*
X9090Y3280D01*
X9190D01*
X9240Y3230D01*
Y3180D01*
X9190Y3130D01*
X9140D01*
X9190D01*
X9240Y3080D01*
Y3030D01*
X9190Y2980D01*
X9090D01*
X9040Y3030D01*
D17*
X19686Y2650D02*
Y3150D01*
X19936D01*
X20019Y3067D01*
Y2900D01*
X19936Y2817D01*
X19686D01*
X19853D02*
X20019Y2650D01*
X20186D02*
X20436D01*
X20519Y2733D01*
X20436Y2817D01*
X20269D01*
X20186Y2900D01*
X20269Y2983D01*
X20519D01*
X20769Y3067D02*
Y2983D01*
X20686D01*
X20852D01*
X20769D01*
Y2733D01*
X20852Y2650D01*
M02*
