G04 Layer_Physical_Order=2*
G04 Layer_Color=16711680*
%FSLAX23Y23*%
%MOIN*%
G70*
G01*
G75*
%ADD24C,0.010*%
%ADD25C,0.016*%
%ADD31C,0.047*%
%ADD32R,0.047X0.047*%
%ADD33C,0.055*%
%ADD34O,0.062X0.055*%
%ADD35R,0.062X0.055*%
%ADD36R,0.039X0.039*%
%ADD37C,0.039*%
%ADD38R,0.039X0.039*%
%ADD39C,0.028*%
%ADD40C,0.027*%
%ADD41C,0.031*%
G36*
X2038Y-402D02*
X-153D01*
Y402D01*
X2038D01*
Y-402D01*
D02*
G37*
%LPC*%
G36*
X1971Y-100D02*
Y-120D01*
X1991D01*
X1991Y-118D01*
X1988Y-112D01*
X1984Y-107D01*
X1979Y-103D01*
X1972Y-100D01*
X1971Y-100D01*
D02*
G37*
G36*
X112Y-141D02*
X105Y-142D01*
X97Y-145D01*
X91Y-150D01*
X86Y-156D01*
X83Y-163D01*
X82Y-171D01*
X83Y-179D01*
X86Y-186D01*
X91Y-192D01*
X97Y-197D01*
X105Y-200D01*
X112Y-201D01*
X120Y-200D01*
X127Y-197D01*
X133Y-192D01*
X138Y-186D01*
X141Y-179D01*
X142Y-171D01*
X141Y-163D01*
X138Y-156D01*
X133Y-150D01*
X127Y-145D01*
X120Y-142D01*
X112Y-141D01*
D02*
G37*
G36*
X878Y-142D02*
X869Y-143D01*
X861Y-147D01*
X854Y-152D01*
X849Y-159D01*
X845Y-167D01*
X844Y-176D01*
X845Y-185D01*
X849Y-193D01*
X854Y-200D01*
X861Y-205D01*
X869Y-209D01*
X878Y-210D01*
X887Y-209D01*
X895Y-205D01*
X902Y-200D01*
X907Y-193D01*
X911Y-185D01*
X912Y-176D01*
X911Y-167D01*
X907Y-159D01*
X902Y-152D01*
X895Y-147D01*
X887Y-143D01*
X878Y-142D01*
D02*
G37*
G36*
X1612Y133D02*
X1538D01*
Y79D01*
X1502Y43D01*
X1500Y39D01*
X1499Y35D01*
Y-42D01*
X1496Y-44D01*
X1492Y-50D01*
X1490Y-58D01*
X1492Y-66D01*
X1496Y-72D01*
X1502Y-76D01*
X1510Y-78D01*
X1518Y-76D01*
X1524Y-72D01*
X1528Y-66D01*
X1530Y-58D01*
X1528Y-50D01*
X1524Y-44D01*
X1521Y-42D01*
Y30D01*
X1557Y67D01*
X1612D01*
Y133D01*
D02*
G37*
G36*
X750Y320D02*
X742Y318D01*
X736Y314D01*
X732Y308D01*
X730Y300D01*
X732Y292D01*
X736Y286D01*
X739Y284D01*
Y198D01*
X740Y194D01*
X742Y190D01*
X868Y64D01*
Y57D01*
X865Y55D01*
X861Y49D01*
X859Y41D01*
X861Y33D01*
X865Y27D01*
X871Y23D01*
X879Y21D01*
X887Y23D01*
X893Y27D01*
X897Y33D01*
X899Y41D01*
X897Y49D01*
X893Y55D01*
X890Y57D01*
Y69D01*
X889Y73D01*
X887Y77D01*
X887Y77D01*
X761Y203D01*
Y284D01*
X764Y286D01*
X768Y292D01*
X770Y300D01*
X768Y308D01*
X764Y314D01*
X758Y318D01*
X750Y320D01*
D02*
G37*
G36*
X84Y126D02*
X76Y124D01*
X70Y120D01*
X66Y114D01*
X64Y106D01*
X66Y98D01*
X70Y92D01*
X73Y90D01*
Y49D01*
X69Y46D01*
X65Y40D01*
X63Y32D01*
X65Y24D01*
X69Y18D01*
X75Y14D01*
X83Y12D01*
X91Y14D01*
X97Y18D01*
X101Y24D01*
X103Y32D01*
X101Y40D01*
X97Y46D01*
X95Y47D01*
Y90D01*
X98Y92D01*
X102Y98D01*
X104Y106D01*
X102Y114D01*
X98Y120D01*
X92Y124D01*
X84Y126D01*
D02*
G37*
G36*
X680Y161D02*
X672Y159D01*
X666Y155D01*
X662Y149D01*
X660Y141D01*
X662Y133D01*
X666Y127D01*
X672Y123D01*
X680Y121D01*
X683Y122D01*
X736Y69D01*
Y-32D01*
X733Y-34D01*
X729Y-40D01*
X727Y-48D01*
X729Y-56D01*
X733Y-62D01*
X739Y-66D01*
X747Y-68D01*
X755Y-66D01*
X761Y-62D01*
X765Y-56D01*
X767Y-48D01*
X765Y-40D01*
X761Y-34D01*
X758Y-32D01*
Y74D01*
X757Y78D01*
X755Y82D01*
X699Y138D01*
X700Y141D01*
X698Y149D01*
X694Y155D01*
X688Y159D01*
X680Y161D01*
D02*
G37*
G36*
X1071Y367D02*
X1063Y365D01*
X1057Y361D01*
X1053Y355D01*
X1051Y347D01*
X1053Y339D01*
X1057Y333D01*
X1063Y329D01*
X1071Y327D01*
X1076Y322D01*
Y177D01*
X1076Y177D01*
X1072Y170D01*
X1070Y163D01*
X1072Y155D01*
X1076Y149D01*
X1076Y148D01*
Y-27D01*
X1076Y-27D01*
X1072Y-34D01*
X1070Y-41D01*
X1072Y-49D01*
X1076Y-55D01*
Y-177D01*
X1067Y-186D01*
X1059Y-187D01*
X1053Y-191D01*
X1049Y-198D01*
X1047Y-205D01*
X1049Y-213D01*
X1053Y-219D01*
X1059Y-224D01*
X1067Y-225D01*
X1075Y-224D01*
X1081Y-219D01*
X1085Y-213D01*
X1087Y-206D01*
X1100Y-192D01*
X1103Y-188D01*
X1104Y-182D01*
Y-55D01*
X1108Y-49D01*
X1110Y-41D01*
X1108Y-34D01*
X1105Y-28D01*
Y150D01*
X1108Y155D01*
X1110Y163D01*
X1108Y170D01*
X1105Y176D01*
Y327D01*
X1104Y333D01*
X1101Y337D01*
X1091Y347D01*
X1089Y355D01*
X1085Y361D01*
X1079Y365D01*
X1071Y367D01*
D02*
G37*
G36*
X391Y-273D02*
X389Y-273D01*
X383Y-276D01*
X377Y-280D01*
X373Y-285D01*
X371Y-291D01*
X370Y-293D01*
X391D01*
Y-273D01*
D02*
G37*
G36*
X947Y-229D02*
X939Y-231D01*
X933Y-235D01*
X928Y-241D01*
X927Y-249D01*
X928Y-257D01*
X933Y-263D01*
X939Y-267D01*
X941Y-268D01*
Y-273D01*
X938Y-274D01*
X932Y-278D01*
X927Y-284D01*
X926Y-292D01*
X927Y-300D01*
X932Y-306D01*
X938Y-310D01*
X946Y-312D01*
X947Y-312D01*
X992Y-357D01*
X995Y-359D01*
X1000Y-360D01*
X1516D01*
X1521Y-359D01*
X1524Y-357D01*
X1550Y-332D01*
X1553Y-332D01*
X1561Y-331D01*
X1567Y-326D01*
X1571Y-320D01*
X1573Y-312D01*
X1571Y-305D01*
X1568Y-299D01*
X1569Y-294D01*
X1779D01*
X1792Y-307D01*
X1791Y-310D01*
X1793Y-318D01*
X1797Y-324D01*
X1803Y-329D01*
X1811Y-330D01*
X1819Y-329D01*
X1825Y-324D01*
X1829Y-318D01*
X1831Y-310D01*
X1829Y-303D01*
X1825Y-296D01*
X1819Y-292D01*
X1811Y-290D01*
X1808Y-291D01*
X1792Y-275D01*
X1788Y-273D01*
X1784Y-272D01*
X1543D01*
X1543Y-272D01*
X1539Y-273D01*
X1535Y-275D01*
X1535Y-275D01*
X1490Y-320D01*
X1033D01*
X966Y-252D01*
X967Y-249D01*
X965Y-241D01*
X961Y-235D01*
X954Y-231D01*
X947Y-229D01*
D02*
G37*
G36*
X299Y-141D02*
X240D01*
Y-201D01*
X255D01*
Y-323D01*
X234Y-344D01*
X209D01*
X202Y-340D01*
X195Y-338D01*
X187Y-340D01*
X181Y-344D01*
X20D01*
X20Y-344D01*
X13Y-340D01*
X6Y-338D01*
X-2Y-340D01*
X-8Y-344D01*
X-13Y-350D01*
X-14Y-358D01*
X-13Y-366D01*
X-8Y-372D01*
X-2Y-376D01*
X6Y-378D01*
X13Y-376D01*
X19Y-372D01*
X181D01*
X187Y-377D01*
X195Y-378D01*
X202Y-377D01*
X209Y-372D01*
X240D01*
X245Y-371D01*
X250Y-368D01*
X279Y-339D01*
X282Y-334D01*
X284Y-329D01*
Y-201D01*
X299D01*
Y-141D01*
D02*
G37*
G36*
X401Y-273D02*
Y-293D01*
X421D01*
X421Y-291D01*
X418Y-285D01*
X414Y-280D01*
X409Y-276D01*
X402Y-273D01*
X401Y-273D01*
D02*
G37*
G36*
X1303Y328D02*
X1295Y326D01*
X1289Y322D01*
X1285Y315D01*
X1283Y308D01*
X1285Y300D01*
X1289Y294D01*
X1289Y293D01*
Y143D01*
X1269Y123D01*
X1262Y121D01*
X1256Y117D01*
X1252Y111D01*
X1250Y103D01*
X1252Y95D01*
X1256Y89D01*
X1256Y89D01*
Y-54D01*
X1256Y-55D01*
X1251Y-61D01*
X1250Y-69D01*
X1251Y-76D01*
X1256Y-83D01*
Y-137D01*
X1242Y-151D01*
X1239Y-155D01*
X1238Y-161D01*
Y-204D01*
X1234Y-211D01*
X1232Y-218D01*
X1234Y-226D01*
X1238Y-232D01*
X1237Y-237D01*
X1213Y-261D01*
X1067D01*
X898Y-92D01*
X893Y-89D01*
X888Y-88D01*
X746D01*
X678Y-20D01*
X673Y-17D01*
X668Y-16D01*
X266D01*
X260Y-17D01*
X256Y-20D01*
X181Y-95D01*
X178Y-100D01*
X176Y-105D01*
Y-145D01*
X176Y-145D01*
X170Y-150D01*
X165Y-156D01*
X162Y-163D01*
X161Y-171D01*
X162Y-179D01*
X165Y-186D01*
X170Y-192D01*
X176Y-197D01*
X183Y-200D01*
X191Y-201D01*
X199Y-200D01*
X206Y-197D01*
X212Y-192D01*
X217Y-186D01*
X220Y-179D01*
X221Y-171D01*
X220Y-163D01*
X217Y-156D01*
X212Y-150D01*
X206Y-145D01*
X205Y-145D01*
Y-111D01*
X271Y-44D01*
X662D01*
X730Y-112D01*
X734Y-115D01*
X740Y-116D01*
X882D01*
X1051Y-285D01*
X1056Y-288D01*
X1061Y-289D01*
X1219D01*
X1224Y-288D01*
X1229Y-285D01*
X1263Y-251D01*
X1266Y-247D01*
X1267Y-241D01*
Y-233D01*
X1645D01*
X1650Y-231D01*
X1655Y-228D01*
X1681Y-202D01*
X1785D01*
X1865Y-282D01*
X1870Y-285D01*
X1875Y-286D01*
X1950D01*
X1955Y-285D01*
X1960Y-282D01*
X1976Y-266D01*
X1979Y-262D01*
X1980Y-256D01*
Y-251D01*
X1991D01*
Y-199D01*
X1984D01*
X1983Y-194D01*
X1984Y-193D01*
X1988Y-188D01*
X1991Y-182D01*
X1991Y-180D01*
X1966D01*
Y-170D01*
X1991D01*
X1991Y-168D01*
X1988Y-162D01*
X1984Y-157D01*
X1979Y-153D01*
X1978Y-150D01*
Y-150D01*
X1979Y-147D01*
X1984Y-143D01*
X1988Y-138D01*
X1991Y-132D01*
X1991Y-130D01*
X1966D01*
Y-125D01*
X1961D01*
Y-100D01*
X1959Y-100D01*
X1953Y-103D01*
X1947Y-107D01*
X1943Y-112D01*
X1941Y-112D01*
X1941D01*
X1938Y-112D01*
X1934Y-107D01*
X1929Y-103D01*
X1928Y-100D01*
Y-100D01*
X1929Y-97D01*
X1934Y-93D01*
X1938Y-88D01*
X1941Y-82D01*
X1942Y-75D01*
X1941Y-68D01*
X1938Y-62D01*
X1934Y-57D01*
X1929Y-53D01*
X1928Y-50D01*
Y-50D01*
X1929Y-47D01*
X1934Y-43D01*
X1938Y-38D01*
X1941Y-38D01*
X1941D01*
X1943Y-38D01*
X1947Y-43D01*
X1953Y-47D01*
X1959Y-50D01*
X1966Y-51D01*
X1972Y-50D01*
X1979Y-47D01*
X1984Y-43D01*
X1988Y-38D01*
X1991Y-32D01*
X1992Y-25D01*
X1991Y-18D01*
X1988Y-12D01*
X1984Y-7D01*
X1979Y-3D01*
X1972Y0D01*
X1966Y1D01*
X1959Y0D01*
X1953Y-3D01*
X1947Y-7D01*
X1943Y-12D01*
X1941Y-12D01*
X1941D01*
X1938Y-12D01*
X1934Y-7D01*
X1929Y-3D01*
X1922Y0D01*
X1916Y1D01*
X1909Y0D01*
X1903Y-3D01*
X1897Y-7D01*
X1893Y-12D01*
X1892Y-14D01*
X1813D01*
X1804Y-5D01*
X1800Y-3D01*
X1796Y-2D01*
X1714D01*
X1712Y0D01*
X1711Y9D01*
X1708Y17D01*
X1702Y24D01*
X1695Y29D01*
X1687Y33D01*
X1679Y34D01*
X1671D01*
X1663Y33D01*
X1655Y29D01*
X1648Y24D01*
X1642Y17D01*
X1639Y9D01*
X1638Y0D01*
X1639Y-9D01*
X1642Y-17D01*
X1647Y-23D01*
X1646Y-28D01*
X1619D01*
X1608Y-17D01*
X1608Y-17D01*
X1611Y-9D01*
X1612Y0D01*
X1611Y9D01*
X1608Y17D01*
X1602Y24D01*
X1595Y29D01*
X1587Y33D01*
X1579Y34D01*
X1571D01*
X1563Y33D01*
X1555Y29D01*
X1548Y24D01*
X1542Y17D01*
X1539Y9D01*
X1538Y0D01*
X1539Y-9D01*
X1542Y-17D01*
X1548Y-24D01*
X1555Y-29D01*
X1563Y-33D01*
X1571Y-34D01*
X1579D01*
X1587Y-33D01*
X1591Y-31D01*
X1606Y-46D01*
X1607Y-50D01*
X1607Y-52D01*
X1591Y-69D01*
X1587Y-67D01*
X1579Y-66D01*
X1571D01*
X1563Y-67D01*
X1555Y-71D01*
X1548Y-76D01*
X1542Y-83D01*
X1539Y-91D01*
X1538Y-100D01*
X1539Y-109D01*
X1542Y-117D01*
X1548Y-124D01*
X1555Y-129D01*
X1563Y-133D01*
X1571Y-134D01*
X1579D01*
X1587Y-133D01*
X1595Y-129D01*
X1602Y-124D01*
X1608Y-117D01*
X1611Y-109D01*
X1612Y-100D01*
X1611Y-91D01*
X1608Y-83D01*
X1608Y-83D01*
X1622Y-68D01*
X1650D01*
X1651Y-73D01*
X1648Y-76D01*
X1642Y-83D01*
X1639Y-91D01*
X1638Y-100D01*
X1639Y-109D01*
X1642Y-117D01*
X1648Y-124D01*
X1655Y-129D01*
X1661Y-132D01*
Y-182D01*
X1639Y-204D01*
X1266D01*
Y-166D01*
X1280Y-153D01*
X1283Y-148D01*
X1284Y-143D01*
Y-83D01*
X1288Y-76D01*
X1290Y-69D01*
X1288Y-61D01*
X1285Y-56D01*
Y90D01*
X1288Y95D01*
X1290Y103D01*
X1290Y103D01*
X1314Y127D01*
X1317Y132D01*
X1318Y137D01*
Y295D01*
X1321Y300D01*
X1323Y308D01*
X1321Y315D01*
X1317Y322D01*
X1311Y326D01*
X1303Y328D01*
D02*
G37*
G36*
X504Y-68D02*
X496Y-70D01*
X490Y-74D01*
X485Y-80D01*
X484Y-88D01*
X485Y-96D01*
X489Y-102D01*
Y-141D01*
X491Y-146D01*
X494Y-151D01*
X581Y-238D01*
Y-272D01*
X570D01*
Y-279D01*
X565Y-281D01*
X564Y-280D01*
X559Y-276D01*
X552Y-273D01*
X551Y-273D01*
Y-298D01*
X541D01*
Y-273D01*
X539Y-273D01*
X533Y-276D01*
X527Y-280D01*
X523Y-285D01*
X521Y-285D01*
X521D01*
X518Y-285D01*
X514Y-280D01*
X509Y-276D01*
X502Y-273D01*
X501Y-273D01*
Y-298D01*
X496D01*
Y-303D01*
X470D01*
X471Y-305D01*
X473Y-311D01*
X477Y-316D01*
X482Y-320D01*
X483Y-323D01*
Y-323D01*
X482Y-326D01*
X477Y-330D01*
X473Y-335D01*
X471Y-335D01*
X471D01*
X468Y-335D01*
X464Y-330D01*
X459Y-326D01*
X452Y-323D01*
X446Y-322D01*
X439Y-323D01*
X433Y-326D01*
X427Y-330D01*
X423Y-335D01*
X421Y-335D01*
X421D01*
X418Y-335D01*
X414Y-330D01*
X409Y-326D01*
X408Y-323D01*
Y-323D01*
X409Y-320D01*
X414Y-316D01*
X418Y-311D01*
X421Y-305D01*
X421Y-303D01*
X370D01*
X371Y-305D01*
X373Y-311D01*
X377Y-316D01*
X382Y-320D01*
X383Y-323D01*
Y-323D01*
X382Y-326D01*
X377Y-330D01*
X373Y-335D01*
X371Y-341D01*
X370Y-348D01*
X371Y-355D01*
X373Y-361D01*
X377Y-366D01*
X383Y-370D01*
X385Y-371D01*
X385Y-372D01*
X388Y-376D01*
X400Y-388D01*
X403Y-390D01*
X408Y-391D01*
X703D01*
X707Y-390D01*
X711Y-388D01*
X788Y-311D01*
X791Y-312D01*
X799Y-310D01*
X805Y-306D01*
X809Y-300D01*
X811Y-292D01*
X809Y-284D01*
X805Y-278D01*
X799Y-274D01*
X791Y-272D01*
X783Y-274D01*
X777Y-278D01*
X773Y-284D01*
X771Y-292D01*
X772Y-295D01*
X698Y-369D01*
X673D01*
X672Y-364D01*
X673Y-363D01*
X677Y-357D01*
X679Y-349D01*
X677Y-341D01*
X673Y-335D01*
X667Y-331D01*
X659Y-329D01*
X656Y-330D01*
X645Y-319D01*
Y-242D01*
X644Y-238D01*
X642Y-234D01*
X572Y-164D01*
Y-139D01*
X575Y-137D01*
X579Y-130D01*
X581Y-123D01*
X579Y-115D01*
X575Y-109D01*
X569Y-104D01*
X561Y-103D01*
X553Y-104D01*
X547Y-109D01*
X543Y-115D01*
X541Y-123D01*
X543Y-130D01*
X547Y-137D01*
X550Y-139D01*
Y-160D01*
X545Y-162D01*
X518Y-135D01*
Y-102D01*
X522Y-96D01*
X524Y-88D01*
X522Y-80D01*
X518Y-74D01*
X511Y-70D01*
X504Y-68D01*
D02*
G37*
G36*
X491Y-273D02*
X489Y-273D01*
X483Y-276D01*
X477Y-280D01*
X473Y-285D01*
X471Y-291D01*
X470Y-293D01*
X491D01*
Y-273D01*
D02*
G37*
G36*
X1971Y250D02*
Y230D01*
X1991D01*
X1991Y232D01*
X1988Y238D01*
X1984Y243D01*
X1979Y247D01*
X1972Y250D01*
X1971Y250D01*
D02*
G37*
G36*
X1529Y304D02*
X1501D01*
X1501Y300D01*
X1505Y292D01*
X1510Y285D01*
X1517Y279D01*
X1525Y276D01*
X1529Y275D01*
Y304D01*
D02*
G37*
G36*
X1539Y342D02*
Y314D01*
X1567D01*
X1567Y317D01*
X1563Y326D01*
X1558Y333D01*
X1551Y338D01*
X1543Y341D01*
X1539Y342D01*
D02*
G37*
G36*
X691Y202D02*
X545D01*
X540Y201D01*
X537Y199D01*
X524Y186D01*
X521Y187D01*
X513Y185D01*
X507Y181D01*
X502Y175D01*
X501Y167D01*
X502Y159D01*
X507Y153D01*
X513Y149D01*
X521Y147D01*
X528Y149D01*
X535Y153D01*
X539Y159D01*
X541Y167D01*
X540Y170D01*
X549Y180D01*
X686D01*
X789Y77D01*
Y29D01*
X790Y25D01*
X792Y21D01*
X826Y-13D01*
X826Y-13D01*
X830Y-15D01*
X834Y-16D01*
X834Y-16D01*
X899D01*
X901Y-19D01*
X907Y-23D01*
X915Y-25D01*
X923Y-23D01*
X929Y-19D01*
X933Y-13D01*
X935Y-5D01*
X933Y3D01*
X929Y9D01*
X923Y13D01*
X915Y15D01*
X907Y13D01*
X901Y9D01*
X899Y6D01*
X839D01*
X811Y34D01*
Y82D01*
X811Y82D01*
X810Y86D01*
X808Y90D01*
X699Y199D01*
X695Y201D01*
X691Y202D01*
D02*
G37*
G36*
X1681Y327D02*
X1673Y325D01*
X1667Y321D01*
X1662Y314D01*
X1661Y307D01*
X1662Y299D01*
X1667Y292D01*
X1673Y288D01*
X1681Y286D01*
X1689Y288D01*
X1695Y292D01*
X1700Y299D01*
X1701Y307D01*
X1700Y314D01*
X1695Y321D01*
X1689Y325D01*
X1681Y327D01*
D02*
G37*
G36*
X1529Y342D02*
X1525Y341D01*
X1517Y338D01*
X1510Y333D01*
X1505Y326D01*
X1501Y317D01*
X1501Y314D01*
X1529D01*
Y342D01*
D02*
G37*
G36*
X1567Y304D02*
X1539D01*
Y275D01*
X1543Y276D01*
X1551Y279D01*
X1558Y285D01*
X1563Y292D01*
X1567Y300D01*
X1567Y304D01*
D02*
G37*
G36*
X541Y350D02*
X-58D01*
X-62Y350D01*
X-66Y347D01*
X-134Y279D01*
X-137Y275D01*
X-137Y271D01*
Y-329D01*
X-140Y-331D01*
X-145Y-337D01*
X-146Y-345D01*
X-145Y-353D01*
X-140Y-359D01*
X-134Y-363D01*
X-126Y-365D01*
X-119Y-363D01*
X-112Y-359D01*
X-108Y-353D01*
X-106Y-345D01*
X-108Y-337D01*
X-112Y-331D01*
X-115Y-329D01*
Y-211D01*
X-111Y-209D01*
X-110Y-209D01*
X-104Y-213D01*
X-96Y-215D01*
X-89Y-213D01*
X-82Y-209D01*
X-78Y-203D01*
X-76Y-195D01*
X-78Y-187D01*
X-82Y-181D01*
X-85Y-179D01*
Y-166D01*
X-86Y-161D01*
X-88Y-158D01*
X-88Y-158D01*
X-97Y-149D01*
Y256D01*
X-43Y310D01*
X487D01*
X495Y302D01*
X494Y299D01*
X496Y291D01*
X500Y285D01*
X506Y281D01*
X514Y279D01*
X522Y281D01*
X528Y285D01*
X532Y291D01*
X534Y299D01*
X532Y307D01*
X528Y313D01*
X522Y317D01*
X514Y319D01*
X511Y318D01*
X505Y323D01*
X507Y328D01*
X536D01*
X562Y302D01*
X561Y299D01*
X563Y291D01*
X567Y285D01*
X573Y281D01*
X581Y279D01*
X589Y281D01*
X595Y285D01*
X599Y291D01*
X601Y299D01*
X599Y307D01*
X595Y313D01*
X589Y317D01*
X581Y319D01*
X578Y318D01*
X549Y347D01*
X545Y350D01*
X541Y350D01*
D02*
G37*
G36*
X1670Y95D02*
X1638D01*
X1639Y91D01*
X1642Y83D01*
X1648Y76D01*
X1655Y71D01*
X1663Y67D01*
X1670Y66D01*
Y95D01*
D02*
G37*
G36*
X1712D02*
X1680D01*
Y66D01*
X1687Y67D01*
X1695Y71D01*
X1702Y76D01*
X1708Y83D01*
X1711Y91D01*
X1712Y95D01*
D02*
G37*
G36*
X84Y203D02*
X77Y202D01*
X70Y197D01*
X66Y191D01*
X64Y183D01*
X65Y182D01*
X0Y117D01*
X-3Y113D01*
X-4Y107D01*
Y-157D01*
X-22Y-175D01*
X-30Y-177D01*
X-36Y-181D01*
X-40Y-187D01*
X-42Y-195D01*
X-40Y-203D01*
X-36Y-209D01*
X-30Y-213D01*
X-22Y-215D01*
X-14Y-213D01*
X-8Y-209D01*
X-4Y-203D01*
X-2Y-195D01*
X20Y-173D01*
X23Y-168D01*
X25Y-163D01*
Y102D01*
X87Y164D01*
X92Y165D01*
X98Y169D01*
X164D01*
X290Y43D01*
X292Y35D01*
X296Y29D01*
X302Y25D01*
X310Y23D01*
X318Y25D01*
X324Y29D01*
X328Y35D01*
X330Y43D01*
X328Y51D01*
X324Y57D01*
X318Y61D01*
X310Y63D01*
X180Y193D01*
X175Y196D01*
X170Y197D01*
X99D01*
X98Y197D01*
X92Y202D01*
X84Y203D01*
D02*
G37*
G36*
X857Y374D02*
X849Y372D01*
X843Y368D01*
X839Y362D01*
X837Y354D01*
X839Y346D01*
X843Y340D01*
X846Y338D01*
Y298D01*
X847Y293D01*
X849Y290D01*
X1020Y119D01*
Y30D01*
X1017Y29D01*
X1015Y29D01*
X1013Y32D01*
X1013Y32D01*
X927Y118D01*
X928Y120D01*
X926Y128D01*
X922Y134D01*
X915Y138D01*
X908Y140D01*
X900Y138D01*
X894Y134D01*
X889Y128D01*
X888Y120D01*
X889Y112D01*
X894Y106D01*
X900Y102D01*
X908Y100D01*
X912Y101D01*
X994Y20D01*
Y-48D01*
X993Y-48D01*
Y-101D01*
X994Y-105D01*
X997Y-109D01*
X1011Y-123D01*
X1010Y-126D01*
X1012Y-134D01*
X1016Y-140D01*
X1022Y-145D01*
X1030Y-146D01*
X1038Y-145D01*
X1044Y-140D01*
X1048Y-134D01*
X1050Y-126D01*
X1048Y-119D01*
X1044Y-112D01*
X1041Y-110D01*
Y-104D01*
X1044Y-102D01*
X1048Y-96D01*
X1050Y-88D01*
X1048Y-81D01*
X1044Y-74D01*
X1042Y-73D01*
Y124D01*
X1041Y128D01*
X1039Y132D01*
X868Y302D01*
Y338D01*
X871Y340D01*
X875Y346D01*
X877Y354D01*
X875Y362D01*
X871Y368D01*
X865Y372D01*
X857Y374D01*
D02*
G37*
G36*
X1670Y134D02*
X1663Y133D01*
X1655Y129D01*
X1648Y124D01*
X1642Y117D01*
X1639Y109D01*
X1638Y105D01*
X1670D01*
Y134D01*
D02*
G37*
G36*
X1680D02*
Y105D01*
X1712D01*
X1711Y109D01*
X1708Y117D01*
X1702Y124D01*
X1695Y129D01*
X1687Y133D01*
X1680Y134D01*
D02*
G37*
G36*
X1916Y251D02*
X1909Y250D01*
X1903Y247D01*
X1897Y243D01*
X1893Y238D01*
X1891Y232D01*
X1890Y225D01*
X1891Y218D01*
X1893Y212D01*
X1897Y207D01*
X1902Y203D01*
X1903Y200D01*
Y200D01*
X1902Y197D01*
X1897Y193D01*
X1893Y188D01*
X1891Y182D01*
X1890Y175D01*
X1891Y168D01*
X1893Y162D01*
X1897Y157D01*
X1902Y153D01*
X1903Y150D01*
Y150D01*
X1902Y147D01*
X1897Y143D01*
X1893Y138D01*
X1891Y132D01*
X1890Y125D01*
X1891Y118D01*
X1893Y112D01*
X1897Y107D01*
X1903Y103D01*
X1909Y100D01*
X1916Y99D01*
X1922Y100D01*
X1929Y103D01*
X1934Y107D01*
X1938Y112D01*
X1941Y112D01*
X1941D01*
X1943Y112D01*
X1947Y107D01*
X1953Y103D01*
X1959Y100D01*
X1961Y100D01*
Y125D01*
X1966D01*
Y130D01*
X1991D01*
X1991Y132D01*
X1988Y138D01*
X1984Y143D01*
X1979Y147D01*
X1978Y150D01*
Y150D01*
X1979Y153D01*
X1984Y157D01*
X1988Y162D01*
X1991Y168D01*
X1991Y170D01*
X1966D01*
Y180D01*
X1991D01*
X1991Y182D01*
X1988Y188D01*
X1984Y193D01*
X1979Y197D01*
X1978Y200D01*
Y200D01*
X1979Y203D01*
X1984Y207D01*
X1988Y212D01*
X1991Y218D01*
X1991Y220D01*
X1966D01*
Y225D01*
X1961D01*
Y250D01*
X1959Y250D01*
X1953Y247D01*
X1947Y243D01*
X1943Y238D01*
X1941Y238D01*
X1941D01*
X1938Y238D01*
X1934Y243D01*
X1929Y247D01*
X1922Y250D01*
X1916Y251D01*
D02*
G37*
G36*
X1991Y120D02*
X1971D01*
Y100D01*
X1972Y100D01*
X1979Y103D01*
X1984Y107D01*
X1988Y112D01*
X1991Y118D01*
X1991Y120D01*
D02*
G37*
%LPD*%
G36*
X1745Y-73D02*
X1743Y-77D01*
X1741Y-84D01*
X1743Y-92D01*
X1747Y-98D01*
X1753Y-103D01*
X1761Y-104D01*
X1764Y-104D01*
X1890Y-229D01*
X1891Y-232D01*
X1893Y-238D01*
X1897Y-243D01*
X1903Y-247D01*
X1909Y-250D01*
X1916Y-251D01*
X1922Y-250D01*
X1929Y-247D01*
X1934Y-243D01*
X1935Y-242D01*
X1940Y-244D01*
Y-251D01*
X1942D01*
X1944Y-256D01*
X1943Y-258D01*
X1881D01*
X1801Y-178D01*
X1796Y-175D01*
X1791Y-174D01*
X1689D01*
Y-132D01*
X1695Y-129D01*
X1702Y-124D01*
X1708Y-117D01*
X1711Y-109D01*
X1712Y-100D01*
X1711Y-91D01*
X1708Y-83D01*
X1702Y-76D01*
X1699Y-73D01*
X1700Y-68D01*
X1742D01*
X1745Y-73D01*
D02*
G37*
D24*
X750Y198D02*
X879Y69D01*
X750Y198D02*
Y300D01*
X-109Y260D02*
X-48Y321D01*
X-109Y-153D02*
Y260D01*
Y-153D02*
X-96Y-166D01*
X-126Y271D02*
X-58Y339D01*
X-126Y-345D02*
Y271D01*
X1902Y-225D02*
X1916D01*
X1761Y-84D02*
X1902Y-225D01*
X857Y298D02*
X1031Y124D01*
X857Y298D02*
Y354D01*
X1005Y-101D02*
Y-48D01*
Y-101D02*
X1030Y-126D01*
X1029Y-331D02*
X1495D01*
X1000Y-349D02*
X1516D01*
X947Y-249D02*
X1029Y-331D01*
X1495D02*
X1543Y-283D01*
X946Y-295D02*
X1000Y-349D01*
X1516D02*
X1553Y-312D01*
X-96Y-195D02*
Y-166D01*
X541Y339D02*
X581Y299D01*
X-48Y321D02*
X492D01*
X-58Y339D02*
X541D01*
X492Y321D02*
X514Y299D01*
X634Y-324D02*
X659Y-349D01*
X396Y-368D02*
X408Y-380D01*
X1614Y-39D02*
X1797D01*
X1839Y-71D02*
X1843Y-75D01*
X1797Y-39D02*
X1833Y-75D01*
X1835D01*
X1914Y-125D02*
X1916Y-123D01*
X1914Y-125D02*
X1916D01*
X1839D02*
X1914D01*
X1798Y-84D02*
X1839Y-125D01*
X1796Y-13D02*
X1808Y-25D01*
X1688Y-13D02*
X1796D01*
X1675Y0D02*
X1688Y-13D01*
X1808Y-25D02*
X1916D01*
X1771Y-57D02*
X1798Y-84D01*
X1618Y-57D02*
X1771D01*
X84Y33D02*
Y106D01*
X1543Y-283D02*
X1784D01*
X1811Y-310D01*
X396Y-368D02*
Y-348D01*
X1843Y-75D02*
X1916D01*
X1005Y-48D02*
Y24D01*
X1005Y-48D02*
X1005Y-48D01*
X1510Y35D02*
X1575Y100D01*
X1510Y-58D02*
Y35D01*
X1575Y0D02*
X1614Y-39D01*
X1575Y-100D02*
X1618Y-57D01*
X946Y-295D02*
Y-292D01*
X1031Y-77D02*
Y124D01*
X561Y-169D02*
Y-123D01*
Y-169D02*
X634Y-242D01*
Y-324D02*
Y-242D01*
X908Y121D02*
X1005Y24D01*
X747Y-48D02*
Y74D01*
X680Y141D02*
X747Y74D01*
X521Y167D02*
X545Y191D01*
X691D01*
X879Y41D02*
Y69D01*
X834Y-5D02*
X915D01*
X800Y29D02*
X834Y-5D01*
X800Y29D02*
Y82D01*
X691Y191D02*
X800Y82D01*
X703Y-380D02*
X791Y-292D01*
X408Y-380D02*
X703D01*
D25*
X10Y-163D02*
Y107D01*
X-22Y-195D02*
X10Y-163D01*
X1091Y-34D02*
Y327D01*
X1071Y347D02*
X1091Y327D01*
X1304Y137D02*
Y312D01*
X1271Y104D02*
X1304Y137D01*
X1271Y-69D02*
Y104D01*
X1252Y-161D02*
X1270Y-143D01*
X1253Y-241D02*
Y-218D01*
X1252D02*
Y-161D01*
X1270Y-143D02*
Y-69D01*
X1675Y-188D02*
Y-100D01*
X1645Y-218D02*
X1675Y-188D01*
X1253Y-218D02*
X1645D01*
X1252D02*
X1253D01*
X1090Y-41D02*
Y-34D01*
Y-182D02*
Y-41D01*
X1067Y-205D02*
X1090Y-182D01*
X1219Y-275D02*
X1253Y-241D01*
X1061Y-275D02*
X1219D01*
X888Y-102D02*
X1061Y-275D01*
X170Y183D02*
X310Y43D01*
X86Y183D02*
X170D01*
X269Y-329D02*
Y-173D01*
X240Y-358D02*
X269Y-329D01*
X195Y-358D02*
X240D01*
X191Y-173D02*
Y-105D01*
X266Y-30D01*
X1791Y-188D02*
X1875Y-272D01*
X1675Y-188D02*
X1791D01*
X1966Y-256D02*
Y-223D01*
X1950Y-272D02*
X1966Y-256D01*
X1875Y-272D02*
X1950D01*
X6Y-358D02*
X195D01*
X266Y-30D02*
X668D01*
X740Y-102D01*
X888D01*
X504Y-141D02*
Y-88D01*
Y-141D02*
X596Y-233D01*
Y-298D02*
Y-233D01*
X10Y107D02*
X86Y183D01*
D31*
X191Y-171D02*
D03*
X112D02*
D03*
D32*
X270D02*
D03*
D33*
X878Y-176D02*
D03*
X1534Y309D02*
D03*
D34*
X1575Y-100D02*
D03*
Y0D02*
D03*
X1675Y-100D02*
D03*
Y0D02*
D03*
Y100D02*
D03*
D35*
X1575D02*
D03*
D36*
X1966Y-225D02*
D03*
D37*
X1916D02*
D03*
X1966Y-175D02*
D03*
X1916D02*
D03*
X1966Y-125D02*
D03*
X1916D02*
D03*
Y-75D02*
D03*
X1966Y-25D02*
D03*
X1916D02*
D03*
X1966Y125D02*
D03*
X1916D02*
D03*
X1966Y175D02*
D03*
X1916D02*
D03*
X1966Y225D02*
D03*
X1916D02*
D03*
X396Y-348D02*
D03*
Y-298D02*
D03*
X446Y-348D02*
D03*
X496D02*
D03*
Y-298D02*
D03*
X546Y-348D02*
D03*
Y-298D02*
D03*
X596Y-348D02*
D03*
D38*
Y-298D02*
D03*
D39*
X1681Y307D02*
D03*
D40*
X760Y-365D02*
D03*
X750Y300D02*
D03*
X1270Y103D02*
D03*
X857Y354D02*
D03*
X867Y169D02*
D03*
X78Y-266D02*
D03*
X1611Y375D02*
D03*
X1311Y371D02*
D03*
X1178Y-79D02*
D03*
X1378Y-168D02*
D03*
X1178Y-245D02*
D03*
X394Y-222D02*
D03*
X-47Y43D02*
D03*
X659Y-349D02*
D03*
X672Y358D02*
D03*
X-39Y286D02*
D03*
X-41Y365D02*
D03*
X373D02*
D03*
X514Y299D02*
D03*
X581D02*
D03*
X1835Y-75D02*
D03*
X1798Y27D02*
D03*
X315Y-111D02*
D03*
X353Y210D02*
D03*
X318Y190D02*
D03*
X189Y46D02*
D03*
X247Y48D02*
D03*
X310Y43D02*
D03*
X84Y106D02*
D03*
X83Y32D02*
D03*
X561Y-123D02*
D03*
X396Y278D02*
D03*
X84Y183D02*
D03*
X201Y381D02*
D03*
X1453Y-377D02*
D03*
X1029D02*
D03*
X666Y-260D02*
D03*
X879Y41D02*
D03*
X915Y-5D02*
D03*
X1721Y-142D02*
D03*
X1510Y-58D02*
D03*
X1761Y-84D02*
D03*
X6Y-358D02*
D03*
X504Y-88D02*
D03*
X671Y7D02*
D03*
Y-83D02*
D03*
X521Y167D02*
D03*
X1090Y163D02*
D03*
X-22Y-195D02*
D03*
X1926Y341D02*
D03*
X1832Y270D02*
D03*
X1519Y197D02*
D03*
X1765Y180D02*
D03*
X1693Y199D02*
D03*
X1798Y-84D02*
D03*
X1625Y-144D02*
D03*
X1977Y46D02*
D03*
X1798Y126D02*
D03*
X229Y-268D02*
D03*
X1067Y-205D02*
D03*
X975Y-41D02*
D03*
X822Y-210D02*
D03*
X990Y-253D02*
D03*
X1337Y164D02*
D03*
X1178Y100D02*
D03*
X1618Y-348D02*
D03*
X1755Y-349D02*
D03*
X114Y-309D02*
D03*
X313Y-320D02*
D03*
X1455Y144D02*
D03*
X1464Y-7D02*
D03*
X1274Y163D02*
D03*
X1270Y-69D02*
D03*
X1224Y-147D02*
D03*
X1140Y-22D02*
D03*
X1030Y-126D02*
D03*
X1090Y-41D02*
D03*
X1180Y312D02*
D03*
X1504Y-145D02*
D03*
X17Y168D02*
D03*
X-96Y-195D02*
D03*
X1032Y-177D02*
D03*
X200Y253D02*
D03*
X196Y-308D02*
D03*
X1222Y198D02*
D03*
X946Y-292D02*
D03*
X947Y-249D02*
D03*
X1553Y-312D02*
D03*
X1908Y-309D02*
D03*
X1454Y-266D02*
D03*
X1150Y-304D02*
D03*
X1326Y-6D02*
D03*
X1811Y-310D02*
D03*
X393Y-161D02*
D03*
X774Y-163D02*
D03*
X1030Y-88D02*
D03*
X1060Y-59D02*
D03*
X-59Y-195D02*
D03*
X1734Y27D02*
D03*
X1855D02*
D03*
X1395Y-5D02*
D03*
X1252Y-218D02*
D03*
X1303Y308D02*
D03*
X-47Y-47D02*
D03*
X195Y-358D02*
D03*
X50Y-52D02*
D03*
X155Y-268D02*
D03*
X-126Y-345D02*
D03*
X680Y141D02*
D03*
X1061Y111D02*
D03*
X908Y120D02*
D03*
X747Y-48D02*
D03*
X791Y-292D02*
D03*
X865Y-322D02*
D03*
X1071Y347D02*
D03*
X1154Y233D02*
D03*
D41*
X-71Y-288D02*
D03*
X-48D02*
D03*
M02*
