G04*
G04 #@! TF.GenerationSoftware,Altium Limited,Altium Designer,18.1.6 (161)*
G04*
G04 Layer_Physical_Order=1*
G04 Layer_Color=255*
%FSLAX24Y24*%
%MOIN*%
G70*
G01*
G75*
%ADD10C,0.0098*%
%ADD15C,0.0079*%
G04:AMPARAMS|DCode=18|XSize=39.4mil|YSize=21.7mil|CornerRadius=5.4mil|HoleSize=0mil|Usage=FLASHONLY|Rotation=270.000|XOffset=0mil|YOffset=0mil|HoleType=Round|Shape=RoundedRectangle|*
%AMROUNDEDRECTD18*
21,1,0.0394,0.0108,0,0,270.0*
21,1,0.0285,0.0217,0,0,270.0*
1,1,0.0108,-0.0054,-0.0143*
1,1,0.0108,-0.0054,0.0143*
1,1,0.0108,0.0054,0.0143*
1,1,0.0108,0.0054,-0.0143*
%
%ADD18ROUNDEDRECTD18*%
%ADD19R,0.0236X0.0453*%
%ADD20O,0.0118X0.0709*%
%ADD21O,0.0709X0.0118*%
%ADD22R,0.0709X0.0433*%
%ADD23R,0.0748X0.0937*%
%ADD24R,0.0748X0.0465*%
%ADD25R,0.0543X0.0177*%
%ADD26R,0.0827X0.0583*%
%ADD27R,0.0433X0.0394*%
%ADD28R,0.0512X0.0591*%
%ADD29R,0.0394X0.0433*%
G04:AMPARAMS|DCode=30|XSize=15.7mil|YSize=41.3mil|CornerRadius=3.9mil|HoleSize=0mil|Usage=FLASHONLY|Rotation=90.000|XOffset=0mil|YOffset=0mil|HoleType=Round|Shape=RoundedRectangle|*
%AMROUNDEDRECTD30*
21,1,0.0157,0.0335,0,0,90.0*
21,1,0.0079,0.0413,0,0,90.0*
1,1,0.0079,0.0167,0.0039*
1,1,0.0079,0.0167,-0.0039*
1,1,0.0079,-0.0167,-0.0039*
1,1,0.0079,-0.0167,0.0039*
%
%ADD30ROUNDEDRECTD30*%
G04:AMPARAMS|DCode=31|XSize=15.7mil|YSize=33.5mil|CornerRadius=3.9mil|HoleSize=0mil|Usage=FLASHONLY|Rotation=90.000|XOffset=0mil|YOffset=0mil|HoleType=Round|Shape=RoundedRectangle|*
%AMROUNDEDRECTD31*
21,1,0.0157,0.0256,0,0,90.0*
21,1,0.0079,0.0335,0,0,90.0*
1,1,0.0079,0.0128,0.0039*
1,1,0.0079,0.0128,-0.0039*
1,1,0.0079,-0.0128,-0.0039*
1,1,0.0079,-0.0128,0.0039*
%
%ADD31ROUNDEDRECTD31*%
%ADD56C,0.0157*%
%ADD57C,0.0197*%
%ADD58C,0.0118*%
%ADD59C,0.0138*%
%ADD60R,0.0157X0.0394*%
%ADD61R,0.0551X0.0315*%
%ADD62C,0.0378*%
%ADD63R,0.0378X0.0378*%
%ADD64C,0.0472*%
%ADD65R,0.0472X0.0472*%
%ADD66C,0.0551*%
%ADD67R,0.0378X0.0378*%
%ADD68C,0.0620*%
%ADD69O,0.0620X0.0550*%
%ADD70R,0.0620X0.0620*%
%ADD71C,0.0315*%
%ADD72C,0.0270*%
G36*
X12125Y3468D02*
X12140Y3394D01*
X12183Y3329D01*
X12248Y3286D01*
X12324Y3271D01*
X12400Y3286D01*
X12460Y3326D01*
X12502Y3285D01*
X12492Y3247D01*
X12485Y3234D01*
X12450Y3227D01*
X12417Y3205D01*
X12395Y3172D01*
X12387Y3133D01*
Y3088D01*
X12364Y3073D01*
X12337Y3065D01*
X12309Y3084D01*
X12266Y3093D01*
X9706D01*
X9650Y3149D01*
X9645Y3212D01*
X9756Y3323D01*
X10132D01*
Y3799D01*
X10248D01*
Y3323D01*
X10801D01*
Y3469D01*
X10876D01*
X10933Y3411D01*
X10969Y3387D01*
X11012Y3379D01*
X11260D01*
X11279Y3349D01*
X11344Y3306D01*
X11420Y3291D01*
X11496Y3306D01*
X11561Y3349D01*
X11604Y3414D01*
X11619Y3490D01*
X11604Y3566D01*
X11561Y3631D01*
X11496Y3674D01*
X11420Y3689D01*
X11344Y3674D01*
X11279Y3631D01*
X11260Y3601D01*
X11058D01*
X11001Y3659D01*
X10965Y3683D01*
X10922Y3691D01*
X10801D01*
Y3799D01*
X11795D01*
X12125Y3468D01*
D02*
G37*
G36*
X21989Y-4019D02*
X81D01*
Y4019D01*
X5030D01*
X5049Y3973D01*
X4883Y3807D01*
X4550D01*
Y3293D01*
X4833D01*
Y3167D01*
X4548D01*
Y2653D01*
X4964D01*
X5117Y2500D01*
X5163Y2469D01*
X5217Y2459D01*
X5501D01*
X5607Y2353D01*
Y2236D01*
X5557Y2210D01*
X5536Y2224D01*
X5460Y2239D01*
X5384Y2224D01*
X5319Y2181D01*
X5310Y2166D01*
X5260D01*
X5251Y2181D01*
X5186Y2224D01*
X5110Y2239D01*
X5034Y2224D01*
X4969Y2181D01*
X4926Y2116D01*
X4911Y2040D01*
X4918Y2006D01*
X4756Y1844D01*
X4732Y1808D01*
X4724Y1765D01*
Y1567D01*
X4732Y1524D01*
X4756Y1488D01*
X4823Y1421D01*
X4860Y1397D01*
X4895Y1390D01*
X4911Y1370D01*
X4925Y1338D01*
X4918Y1303D01*
X4928Y1256D01*
X4954Y1217D01*
Y1192D01*
X4930Y1156D01*
X5335D01*
Y1056D01*
X4918D01*
X4898Y1020D01*
X4691D01*
X4601Y1110D01*
Y1554D01*
X4593Y1596D01*
X4569Y1632D01*
X4455Y1746D01*
Y1840D01*
X4455Y1840D01*
X4447Y1883D01*
X4422Y1919D01*
X4422Y1919D01*
X4265Y2076D01*
Y2357D01*
X3712D01*
Y1867D01*
X3712Y1843D01*
X3712D01*
Y1817D01*
X3712D01*
Y1303D01*
X3712D01*
X3710Y1277D01*
X3710D01*
X3710Y1254D01*
Y763D01*
X4058D01*
X4078Y734D01*
X4470Y341D01*
X4506Y317D01*
X4549Y309D01*
X4549Y309D01*
X4560D01*
X4573Y289D01*
X4638Y246D01*
X4714Y231D01*
X4741Y237D01*
X4773Y216D01*
X4815Y207D01*
X4898D01*
X4925Y157D01*
X4918Y122D01*
X4925Y86D01*
X4898Y36D01*
X4835D01*
X4722Y149D01*
X4686Y173D01*
X4644Y181D01*
X3920D01*
X3877Y173D01*
X3841Y149D01*
X3691Y-1D01*
X3667Y-37D01*
X3667Y-39D01*
X3547D01*
Y-39D01*
X3511D01*
Y-39D01*
X3011D01*
X2997Y-39D01*
X2961D01*
X2947Y-39D01*
X2754D01*
Y-315D01*
Y-592D01*
X2947D01*
X2961Y-592D01*
X2997D01*
X3011Y-592D01*
X3511D01*
Y-592D01*
X3547D01*
Y-592D01*
X3888D01*
X3907Y-638D01*
X3837Y-708D01*
X3561D01*
X3547Y-708D01*
X3511D01*
X3497Y-708D01*
X3304D01*
Y-985D01*
Y-1261D01*
X3497D01*
X3511Y-1261D01*
X3547D01*
X3561Y-1261D01*
X4047D01*
X4061Y-1261D01*
Y-1261D01*
X4097Y-1261D01*
Y-1261D01*
X4304D01*
Y-985D01*
Y-708D01*
X4218D01*
X4199Y-662D01*
X4269Y-592D01*
X4611D01*
Y-550D01*
X4657Y-531D01*
X4871Y-745D01*
X4907Y-769D01*
X4924Y-807D01*
X4926Y-824D01*
X4918Y-863D01*
X4928Y-909D01*
X4954Y-949D01*
Y-974D01*
X4930Y-1010D01*
X5335D01*
Y-1110D01*
X4930D01*
X4954Y-1145D01*
Y-1171D01*
X4930Y-1206D01*
X5335D01*
X5740D01*
X5716Y-1171D01*
Y-1145D01*
X5740Y-1110D01*
X5747Y-1105D01*
X5796Y-1095D01*
X5822Y-1122D01*
X5835Y-1142D01*
X5840Y-1165D01*
Y-1470D01*
X5848Y-1490D01*
X5855Y-1511D01*
X5871Y-1531D01*
X5874Y-1533D01*
X5876Y-1536D01*
X5896Y-1544D01*
X5915Y-1555D01*
X5918Y-1554D01*
X5921Y-1555D01*
X5944Y-1605D01*
X5932Y-1623D01*
X5922Y-1670D01*
Y-2260D01*
X5932Y-2307D01*
X5958Y-2346D01*
X5997Y-2372D01*
X6044Y-2382D01*
X6090Y-2372D01*
X6120Y-2413D01*
X5891Y-2641D01*
X5867Y-2677D01*
X5859Y-2720D01*
Y-2899D01*
X5809Y-2904D01*
X5805Y-2883D01*
X5750Y-2801D01*
X5667Y-2745D01*
X5620Y-2736D01*
Y-2980D01*
X5570D01*
Y-3030D01*
X5326D01*
X5336Y-3077D01*
X5391Y-3160D01*
X5454Y-3202D01*
Y-3258D01*
X5391Y-3300D01*
X5336Y-3383D01*
X5316Y-3480D01*
X5336Y-3577D01*
X5391Y-3659D01*
X5473Y-3715D01*
X5570Y-3734D01*
X5667Y-3715D01*
X5750Y-3659D01*
X5792Y-3596D01*
X5848D01*
X5891Y-3659D01*
X5973Y-3715D01*
X6070Y-3734D01*
X6167Y-3715D01*
X6250Y-3659D01*
X6292Y-3596D01*
X6348D01*
X6391Y-3659D01*
X6473Y-3715D01*
X6570Y-3734D01*
X6667Y-3715D01*
X6750Y-3659D01*
X6792Y-3596D01*
X6848D01*
X6891Y-3659D01*
X6964Y-3709D01*
X6967Y-3723D01*
X6991Y-3759D01*
X7107Y-3875D01*
X7143Y-3899D01*
X7186Y-3907D01*
X7918D01*
X7960Y-3899D01*
X7997Y-3875D01*
X8186Y-3685D01*
X8204Y-3689D01*
X8280Y-3674D01*
X8344Y-3631D01*
X8387Y-3566D01*
X8403Y-3490D01*
X8387Y-3414D01*
X8344Y-3349D01*
X8280Y-3306D01*
X8204Y-3291D01*
X8128Y-3306D01*
X8085Y-3335D01*
X8035Y-3308D01*
Y-2690D01*
X8027Y-2647D01*
X8002Y-2611D01*
X7922Y-2531D01*
X7886Y-2507D01*
X7844Y-2499D01*
X7740D01*
X7730Y-2489D01*
Y-2402D01*
X7780Y-2375D01*
X7815Y-2382D01*
X7862Y-2372D01*
X7901Y-2346D01*
X7926D01*
X7966Y-2372D01*
X8012Y-2382D01*
X8059Y-2372D01*
X8098Y-2346D01*
X8123D01*
X8163Y-2372D01*
X8209Y-2382D01*
X8256Y-2372D01*
X8295Y-2346D01*
X8320D01*
X8359Y-2372D01*
X8406Y-2382D01*
X8441Y-2375D01*
X8491Y-2402D01*
Y-2479D01*
X8467D01*
Y-3032D01*
X8981D01*
Y-2479D01*
X8714D01*
Y-2402D01*
X8750Y-2383D01*
Y-1965D01*
Y-1513D01*
X8746Y-1508D01*
X8753Y-1490D01*
Y-1387D01*
X8758Y-1363D01*
X8771Y-1343D01*
X8834Y-1280D01*
X8837Y-1274D01*
X8842Y-1271D01*
X8846Y-1252D01*
X8853Y-1234D01*
X8850Y-1228D01*
X8852Y-1222D01*
X8847Y-1200D01*
X8857Y-1149D01*
X8886Y-1106D01*
X8929Y-1077D01*
X8980Y-1067D01*
X9031Y-1077D01*
X9074Y-1106D01*
X9103Y-1149D01*
X9113Y-1200D01*
X9103Y-1251D01*
X9077Y-1289D01*
X9073Y-1310D01*
X9066Y-1330D01*
X9067Y-1348D01*
X9070Y-1353D01*
X9069Y-1359D01*
X9077Y-1391D01*
X9081Y-1397D01*
X9081Y-1397D01*
X9082Y-1398D01*
X9083Y-1407D01*
X9089Y-1416D01*
X9101Y-1426D01*
X9109Y-1438D01*
X9124Y-1448D01*
X9130Y-1457D01*
X9143Y-1466D01*
X9153Y-1478D01*
X9163Y-1479D01*
X9171Y-1485D01*
X9187Y-1482D01*
X9203Y-1483D01*
X9253Y-1468D01*
X9265Y-1458D01*
X9280Y-1452D01*
X9283Y-1443D01*
X9291Y-1436D01*
X9293Y-1421D01*
X9299Y-1406D01*
Y-1385D01*
X9349Y-1359D01*
X9363Y-1369D01*
X9410Y-1378D01*
X9958D01*
X9978Y-1428D01*
X9445Y-1961D01*
X9421Y-1997D01*
X9412Y-2040D01*
Y-2760D01*
X9383Y-2779D01*
X9340Y-2844D01*
X9325Y-2920D01*
X9340Y-2996D01*
X9383Y-3061D01*
X9448Y-3104D01*
X9524Y-3119D01*
X9600Y-3104D01*
X9664Y-3061D01*
X9707Y-2996D01*
X9723Y-2920D01*
X9707Y-2844D01*
X9664Y-2779D01*
X9635Y-2760D01*
Y-2086D01*
X10011Y-1710D01*
X10059Y-1733D01*
X10055Y-1760D01*
X10067Y-1848D01*
X10101Y-1929D01*
X10154Y-1999D01*
X10224Y-2053D01*
X10306Y-2087D01*
X10394Y-2098D01*
X10481Y-2087D01*
X10563Y-2053D01*
X10633Y-1999D01*
X10639Y-1992D01*
X10689Y-2009D01*
Y-2560D01*
X10697Y-2603D01*
X10721Y-2639D01*
X10878Y-2796D01*
X10871Y-2830D01*
X10886Y-2906D01*
X10929Y-2971D01*
X10994Y-3014D01*
X11070Y-3029D01*
X11146Y-3014D01*
X11211Y-2971D01*
X11254Y-2906D01*
X11269Y-2830D01*
X11254Y-2754D01*
X11211Y-2689D01*
X11209Y-2688D01*
Y-2638D01*
X11221Y-2631D01*
X11264Y-2566D01*
X11279Y-2490D01*
X11264Y-2414D01*
X11221Y-2349D01*
X11191Y-2330D01*
Y-2027D01*
X11241Y-2006D01*
X11886Y-2651D01*
Y-2794D01*
X11895Y-2837D01*
X11919Y-2873D01*
X12157Y-3110D01*
X12193Y-3135D01*
X12235Y-3143D01*
X12314D01*
X12314Y-3143D01*
X12336Y-3193D01*
X12325Y-3209D01*
X12320Y-3238D01*
X12586D01*
X12853D01*
X12847Y-3209D01*
X12825Y-3177D01*
Y-3143D01*
X12847Y-3110D01*
X12855Y-3071D01*
Y-2992D01*
X12847Y-2954D01*
X12825Y-2921D01*
Y-2887D01*
X12847Y-2854D01*
X12855Y-2815D01*
Y-2736D01*
X12847Y-2698D01*
X12837Y-2683D01*
X12829Y-2648D01*
X12837Y-2613D01*
X12847Y-2598D01*
X12855Y-2559D01*
Y-2480D01*
X12847Y-2442D01*
X12825Y-2409D01*
X12792Y-2387D01*
X12753Y-2379D01*
X12728D01*
Y-2211D01*
X13006D01*
Y-1697D01*
X12453D01*
Y-1873D01*
X12403Y-1899D01*
X12360Y-1870D01*
X12284Y-1855D01*
X12208Y-1870D01*
X12143Y-1913D01*
X12100Y-1978D01*
X12085Y-2054D01*
X12100Y-2130D01*
X12143Y-2194D01*
X12208Y-2237D01*
X12284Y-2253D01*
X12360Y-2237D01*
X12395Y-2214D01*
X12445Y-2241D01*
Y-2379D01*
X12419D01*
X12380Y-2387D01*
X12347Y-2409D01*
X12336Y-2425D01*
X12286Y-2431D01*
X12278Y-2429D01*
X12275Y-2423D01*
X12275Y-2423D01*
X11595Y-1744D01*
Y-784D01*
X11595Y-784D01*
X11587Y-741D01*
X11562Y-705D01*
X11144Y-287D01*
X11165Y-237D01*
X11652D01*
Y239D01*
X11768D01*
Y70D01*
X12321D01*
Y239D01*
X12398D01*
X12425Y211D01*
X12461Y187D01*
X12504Y179D01*
X13246D01*
X13289Y187D01*
X13325Y211D01*
X13542Y429D01*
X13567Y465D01*
X13574Y500D01*
X13577Y504D01*
X13613Y492D01*
X13627Y478D01*
X13635Y439D01*
X13657Y407D01*
X13690Y385D01*
X13729Y377D01*
X13985D01*
X14023Y385D01*
X14056Y406D01*
X14603D01*
Y213D01*
X15156D01*
Y727D01*
X14603D01*
Y629D01*
X14089D01*
X14089Y629D01*
X14067Y679D01*
X14078Y695D01*
X14086Y734D01*
Y813D01*
X14079Y848D01*
X14079Y853D01*
X14107Y898D01*
X14167D01*
X14173Y889D01*
X14238Y846D01*
X14314Y831D01*
X14390Y846D01*
X14454Y889D01*
X14460Y898D01*
X14603D01*
Y879D01*
X15156D01*
Y1393D01*
X14603D01*
Y1161D01*
X14461D01*
X14454Y1171D01*
X14390Y1214D01*
X14314Y1229D01*
X14238Y1214D01*
X14173Y1171D01*
X14167Y1161D01*
X14026D01*
X14023Y1162D01*
X13985Y1170D01*
X13729D01*
X13690Y1162D01*
X13657Y1140D01*
X13635Y1108D01*
X13627Y1069D01*
Y990D01*
X13635Y951D01*
X13646Y935D01*
X13644Y920D01*
X13630Y886D01*
X13626Y882D01*
X13598Y876D01*
X13562Y852D01*
X13562Y852D01*
X13385Y675D01*
X13361Y639D01*
X13352Y596D01*
Y554D01*
X13245Y446D01*
X13199Y471D01*
X13200Y478D01*
Y557D01*
X13192Y596D01*
X13170Y629D01*
Y662D01*
X13192Y695D01*
X13198Y723D01*
X12971D01*
X12744D01*
X12749Y695D01*
X12753Y690D01*
X12726Y640D01*
X12470D01*
X12331Y779D01*
X12321Y785D01*
Y957D01*
X11768D01*
Y461D01*
X11652D01*
Y957D01*
X11099D01*
Y791D01*
X10919D01*
X10749Y962D01*
X10765Y1016D01*
X10767Y1016D01*
X10832Y1059D01*
X10875Y1124D01*
X10890Y1200D01*
X10883Y1234D01*
X11012Y1363D01*
X11387D01*
Y1877D01*
X10834D01*
Y1501D01*
X10725Y1392D01*
X10691Y1399D01*
X10615Y1384D01*
X10550Y1341D01*
X10507Y1276D01*
X10502Y1247D01*
X10448Y1233D01*
X10300Y1381D01*
X10264Y1406D01*
X10221Y1414D01*
X10142D01*
X10123Y1450D01*
X9705D01*
Y1550D01*
X10110D01*
X10086Y1585D01*
Y1611D01*
X10113Y1650D01*
X10122Y1696D01*
X10113Y1743D01*
X10086Y1782D01*
X10047Y1809D01*
X10000Y1818D01*
X9816D01*
Y2083D01*
X10086D01*
Y2535D01*
X10202D01*
Y2390D01*
X10755D01*
Y2535D01*
X10834D01*
Y2083D01*
X11387D01*
Y2539D01*
X11504D01*
Y2390D01*
X12057D01*
Y2464D01*
X12103Y2483D01*
X12147Y2439D01*
Y2215D01*
X12156Y2172D01*
X12180Y2136D01*
X12319Y1998D01*
X12319Y1998D01*
X12355Y1973D01*
X12397Y1965D01*
X13384D01*
X13426Y1973D01*
X13462Y1998D01*
X13676Y2211D01*
X13978D01*
X14005Y2193D01*
X14044Y2185D01*
X14379D01*
X14417Y2193D01*
X14450Y2215D01*
X14472Y2248D01*
X14480Y2287D01*
Y2366D01*
X14477Y2378D01*
X14523Y2403D01*
X14883Y2044D01*
Y1759D01*
X15436D01*
Y2273D01*
X14968D01*
X14898Y2343D01*
X14919Y2393D01*
X15436D01*
Y2907D01*
X14883D01*
Y2768D01*
X14751D01*
X14684Y2834D01*
X14700Y2889D01*
X14720Y2893D01*
X14784Y2936D01*
X14827Y3000D01*
X14833Y3026D01*
X14883Y3023D01*
Y3023D01*
X15109D01*
Y3230D01*
X14883D01*
Y3131D01*
X14833Y3127D01*
X14827Y3152D01*
X14784Y3217D01*
X14720Y3260D01*
X14644Y3275D01*
X14568Y3260D01*
X14525Y3232D01*
X14393D01*
X14379Y3235D01*
X14248D01*
Y3343D01*
X14375D01*
Y3857D01*
X13822D01*
Y3343D01*
X13965D01*
Y3195D01*
X13950Y3172D01*
X13943Y3133D01*
Y3054D01*
X13950Y3016D01*
X13972Y2983D01*
Y2949D01*
X13950Y2916D01*
X13943Y2877D01*
Y2799D01*
X13950Y2760D01*
X13972Y2727D01*
Y2693D01*
X13950Y2660D01*
X13943Y2621D01*
Y2543D01*
X13950Y2504D01*
X13964Y2484D01*
X13948Y2441D01*
X13942Y2434D01*
X13630D01*
X13587Y2425D01*
X13551Y2401D01*
X13338Y2188D01*
X12937D01*
X12910Y2238D01*
X12917Y2248D01*
X12923Y2276D01*
X12656D01*
Y2376D01*
X12923D01*
X12917Y2404D01*
X12895Y2437D01*
Y2471D01*
X12917Y2504D01*
X12925Y2543D01*
Y2621D01*
X12917Y2660D01*
X12895Y2693D01*
Y2727D01*
X12917Y2760D01*
X12925Y2799D01*
Y2877D01*
X12917Y2916D01*
X12907Y2931D01*
X12899Y2966D01*
X12907Y3001D01*
X12917Y3016D01*
X12925Y3054D01*
Y3133D01*
X12917Y3172D01*
X12895Y3205D01*
X12862Y3227D01*
X12823Y3235D01*
X12798D01*
Y3330D01*
X12787Y3384D01*
X12756Y3430D01*
X12616Y3570D01*
X12570Y3601D01*
X12516Y3611D01*
X12463D01*
X12400Y3654D01*
X12325Y3669D01*
X12021Y3973D01*
X12040Y4019D01*
X21989D01*
Y-4019D01*
D02*
G37*
G36*
X5504Y3333D02*
X5674D01*
Y3228D01*
X5683Y3186D01*
X5707Y3150D01*
X5932Y2924D01*
Y2748D01*
X5932Y2747D01*
X5922Y2700D01*
Y2486D01*
X5872Y2476D01*
X5849Y2511D01*
X5660Y2700D01*
X5614Y2731D01*
X5560Y2741D01*
X5276D01*
X5116Y2901D01*
Y3640D01*
X5275Y3799D01*
X5504D01*
Y3333D01*
D02*
G37*
G36*
X9234Y-204D02*
X9184Y-219D01*
X9171Y-199D01*
X9106Y-156D01*
X9030Y-141D01*
X8954Y-156D01*
X8889Y-199D01*
X8846Y-264D01*
X8831Y-340D01*
X8846Y-416D01*
X8889Y-481D01*
X8954Y-524D01*
X9030Y-539D01*
X9064Y-532D01*
X9080Y-548D01*
X9080Y-548D01*
X9116Y-572D01*
X9159Y-580D01*
X9159Y-580D01*
X9234D01*
Y-1406D01*
X9184Y-1421D01*
X9171Y-1401D01*
X9145Y-1384D01*
X9140Y-1375D01*
X9132Y-1343D01*
X9131Y-1325D01*
X9164Y-1276D01*
X9179Y-1200D01*
X9164Y-1124D01*
X9121Y-1059D01*
X9056Y-1016D01*
X8980Y-1001D01*
X8904Y-1016D01*
X8839Y-1059D01*
X8796Y-1124D01*
X8781Y-1200D01*
X8788Y-1234D01*
X8721Y-1302D01*
X8697Y-1338D01*
X8688Y-1380D01*
Y-1490D01*
X7224D01*
X7201Y-1440D01*
X7215Y-1423D01*
X7224Y-1425D01*
X7300Y-1410D01*
X7364Y-1367D01*
X7407Y-1302D01*
X7423Y-1226D01*
X7407Y-1150D01*
X7364Y-1086D01*
X7300Y-1043D01*
X7224Y-1028D01*
X7148Y-1043D01*
X7083Y-1086D01*
X7040Y-1150D01*
X7025Y-1226D01*
X7032Y-1261D01*
X6949Y-1343D01*
X6925Y-1380D01*
X6917Y-1422D01*
Y-1490D01*
X5921D01*
X5905Y-1470D01*
Y-1159D01*
X5905Y-1159D01*
X5897Y-1116D01*
X5872Y-1080D01*
X5872Y-1080D01*
X5804Y-1012D01*
Y934D01*
X5854Y964D01*
X5880Y959D01*
X5940D01*
X5959Y929D01*
X6024Y886D01*
X6100Y871D01*
X6176Y886D01*
X6241Y929D01*
X6284Y994D01*
X6299Y1070D01*
X6284Y1146D01*
X6241Y1211D01*
X6176Y1254D01*
X6100Y1269D01*
X6024Y1254D01*
X5959Y1211D01*
X5923Y1185D01*
X5887Y1209D01*
X5844Y1217D01*
X5804D01*
Y1920D01*
X6584D01*
X6630Y1874D01*
X6621Y1830D01*
X6636Y1754D01*
X6679Y1689D01*
X6744Y1646D01*
X6820Y1631D01*
X6896Y1646D01*
X6961Y1689D01*
X7004Y1754D01*
X7019Y1830D01*
X7011Y1870D01*
X7050Y1920D01*
X8295D01*
Y1565D01*
X8273Y1551D01*
X8230Y1486D01*
X8215Y1410D01*
X8230Y1334D01*
X8273Y1269D01*
X8338Y1226D01*
X8414Y1211D01*
X8490Y1226D01*
X8554Y1269D01*
X8597Y1334D01*
X8613Y1410D01*
X8597Y1486D01*
X8554Y1551D01*
X8517Y1575D01*
Y1920D01*
X9234D01*
Y-204D01*
D02*
G37*
%LPC*%
G36*
X19985Y3825D02*
X19157D01*
Y3660D01*
X17623D01*
Y3825D01*
X16795D01*
Y3272D01*
X17623D01*
Y3437D01*
X19157D01*
Y3272D01*
X19985D01*
Y3437D01*
X20086D01*
X20239Y3284D01*
Y2954D01*
X20192Y2935D01*
X19939Y3189D01*
X19903Y3213D01*
X19860Y3221D01*
X17059D01*
X17016Y3213D01*
X16980Y3189D01*
X16529Y2738D01*
X16105D01*
Y2907D01*
X15950D01*
Y3023D01*
X16105D01*
Y3537D01*
X15552D01*
Y3023D01*
X15707D01*
Y2907D01*
X15552D01*
Y2393D01*
X16105D01*
Y2515D01*
X16575D01*
X16618Y2523D01*
X16654Y2548D01*
X17105Y2999D01*
X19814D01*
X20080Y2732D01*
Y195D01*
X19686Y-199D01*
X19662Y-235D01*
X19653Y-278D01*
Y-899D01*
X19662Y-942D01*
X19686Y-978D01*
X19816Y-1108D01*
X19821Y-1134D01*
X19843Y-1167D01*
X19876Y-1189D01*
X19915Y-1197D01*
X20059D01*
X20532Y-1670D01*
X20516Y-1750D01*
X20535Y-1847D01*
X20591Y-1929D01*
X20654Y-1972D01*
Y-2028D01*
X20591Y-2070D01*
X20535Y-2153D01*
X20516Y-2250D01*
X20535Y-2347D01*
X20591Y-2430D01*
X20673Y-2485D01*
X20770Y-2504D01*
X20867Y-2485D01*
X20949Y-2430D01*
X20971Y-2397D01*
X21021Y-2412D01*
Y-2499D01*
X21519D01*
Y-2001D01*
X21432D01*
X21417Y-1951D01*
X21449Y-1929D01*
X21505Y-1847D01*
X21514Y-1800D01*
X21270D01*
Y-1700D01*
X21514D01*
X21505Y-1653D01*
X21449Y-1570D01*
X21386Y-1528D01*
Y-1472D01*
X21449Y-1429D01*
X21505Y-1347D01*
X21514Y-1300D01*
X21270D01*
Y-1250D01*
X21220D01*
Y-1006D01*
X21173Y-1015D01*
X21091Y-1071D01*
X21048Y-1134D01*
X20992D01*
X20949Y-1071D01*
X20886Y-1028D01*
Y-972D01*
X20949Y-930D01*
X21005Y-847D01*
X21024Y-750D01*
X21005Y-653D01*
X20949Y-571D01*
X20886Y-528D01*
Y-472D01*
X20949Y-430D01*
X20992Y-366D01*
X21048D01*
X21091Y-430D01*
X21173Y-485D01*
X21270Y-504D01*
X21367Y-485D01*
X21449Y-430D01*
X21505Y-347D01*
X21524Y-250D01*
X21505Y-153D01*
X21449Y-71D01*
X21367Y-15D01*
X21270Y4D01*
X21173Y-15D01*
X21091Y-71D01*
X21048Y-134D01*
X20992D01*
X20949Y-71D01*
X20867Y-15D01*
X20770Y4D01*
X20690Y-12D01*
X20461Y216D01*
Y3330D01*
X20453Y3373D01*
X20429Y3409D01*
X20211Y3627D01*
X20174Y3651D01*
X20132Y3660D01*
X19985D01*
Y3825D01*
D02*
G37*
G36*
X13706Y3857D02*
X13479D01*
Y3650D01*
X13706D01*
Y3857D01*
D02*
G37*
G36*
X13379D02*
X13153D01*
Y3650D01*
X13379D01*
Y3857D01*
D02*
G37*
G36*
X2596Y3935D02*
X2330D01*
Y3630D01*
X2596D01*
Y3935D01*
D02*
G37*
G36*
X2230D02*
X1964D01*
Y3630D01*
X2230D01*
Y3935D01*
D02*
G37*
G36*
X4434Y3807D02*
X4207D01*
Y3600D01*
X4434D01*
Y3807D01*
D02*
G37*
G36*
X4107D02*
X3881D01*
Y3600D01*
X4107D01*
Y3807D01*
D02*
G37*
G36*
X13706Y3550D02*
X13479D01*
Y3343D01*
X13706D01*
Y3550D01*
D02*
G37*
G36*
X13379D02*
X13153D01*
Y3343D01*
X13379D01*
Y3550D01*
D02*
G37*
G36*
X15436Y3537D02*
X15209D01*
Y3330D01*
X15436D01*
Y3537D01*
D02*
G37*
G36*
X15109D02*
X14883D01*
Y3330D01*
X15109D01*
Y3537D01*
D02*
G37*
G36*
X4434Y3500D02*
X4207D01*
Y3293D01*
X4434D01*
Y3500D01*
D02*
G37*
G36*
X4107D02*
X3881D01*
Y3293D01*
X4107D01*
Y3500D01*
D02*
G37*
G36*
X2596Y3530D02*
X2330D01*
Y3225D01*
X2596D01*
Y3530D01*
D02*
G37*
G36*
X2230D02*
X1964D01*
Y3225D01*
X2230D01*
Y3530D01*
D02*
G37*
G36*
X15436Y3230D02*
X15209D01*
Y3023D01*
X15436D01*
Y3230D01*
D02*
G37*
G36*
X4432Y3167D02*
X4205D01*
Y2960D01*
X4432D01*
Y3167D01*
D02*
G37*
G36*
X4105D02*
X3879D01*
Y2960D01*
X4105D01*
Y3167D01*
D02*
G37*
G36*
X4432Y2860D02*
X4205D01*
Y2653D01*
X4432D01*
Y2860D01*
D02*
G37*
G36*
X4105D02*
X3879D01*
Y2653D01*
X4105D01*
Y2860D01*
D02*
G37*
G36*
X1725Y2517D02*
X1498D01*
Y2310D01*
X1725D01*
Y2517D01*
D02*
G37*
G36*
X1398D02*
X1172D01*
Y2310D01*
X1398D01*
Y2517D01*
D02*
G37*
G36*
X21320Y2494D02*
Y2300D01*
X21514D01*
X21505Y2347D01*
X21449Y2430D01*
X21367Y2485D01*
X21320Y2494D01*
D02*
G37*
G36*
X19985Y2348D02*
X19621D01*
Y2122D01*
X19985D01*
Y2348D01*
D02*
G37*
G36*
X19521D02*
X19157D01*
Y2122D01*
X19521D01*
Y2348D01*
D02*
G37*
G36*
X17623D02*
X17259D01*
Y2122D01*
X17623D01*
Y2348D01*
D02*
G37*
G36*
X17159D02*
X16795D01*
Y2122D01*
X17159D01*
Y2348D01*
D02*
G37*
G36*
X12057Y2290D02*
X11830D01*
Y2083D01*
X12057D01*
Y2290D01*
D02*
G37*
G36*
X11730D02*
X11504D01*
Y2083D01*
X11730D01*
Y2290D01*
D02*
G37*
G36*
X10755D02*
X10528D01*
Y2083D01*
X10755D01*
Y2290D01*
D02*
G37*
G36*
X10428D02*
X10202D01*
Y2083D01*
X10428D01*
Y2290D01*
D02*
G37*
G36*
X1725Y2210D02*
X1498D01*
Y2003D01*
X1725D01*
Y2210D01*
D02*
G37*
G36*
X1398D02*
X1172D01*
Y2003D01*
X1398D01*
Y2210D01*
D02*
G37*
G36*
X3344Y3935D02*
X2712D01*
Y3225D01*
X2892D01*
Y3037D01*
X2712D01*
Y2523D01*
X2722D01*
Y2362D01*
X2378Y2019D01*
X2304Y2004D01*
X2286Y1991D01*
X2241Y2015D01*
Y2523D01*
X2596D01*
Y3037D01*
X2043D01*
Y2743D01*
X2000Y2700D01*
X1969Y2654D01*
X1959Y2600D01*
Y1364D01*
X1945Y1320D01*
X1000D01*
Y1674D01*
X857D01*
Y2003D01*
X1056D01*
Y2517D01*
X503D01*
Y2003D01*
X635D01*
Y1674D01*
X132D01*
Y617D01*
Y38D01*
X459D01*
Y-38D01*
X132D01*
Y-622D01*
Y-1674D01*
X1000D01*
Y-1320D01*
X1945D01*
Y-617D01*
X1945D01*
Y-562D01*
X1282D01*
Y-617D01*
X1000D01*
Y-38D01*
X681D01*
Y38D01*
X1000D01*
Y617D01*
Y617D01*
X1282D01*
Y363D01*
Y107D01*
Y-149D01*
Y-404D01*
Y-462D01*
X1945D01*
Y-111D01*
X2130D01*
X2173Y-103D01*
X2209Y-79D01*
X2346Y58D01*
X2380Y51D01*
X2456Y66D01*
X2521Y109D01*
X2564Y174D01*
X2579Y250D01*
X2564Y326D01*
X2521Y391D01*
X2456Y434D01*
X2428Y439D01*
X2412Y494D01*
X2499Y581D01*
X2523Y617D01*
X2531Y659D01*
Y824D01*
X2995Y1288D01*
X3041Y1262D01*
X3041Y1254D01*
Y1070D01*
X3594D01*
Y1254D01*
X3596Y1303D01*
X3596Y1326D01*
Y1817D01*
X3596D01*
Y1843D01*
X3596D01*
Y2357D01*
X3043D01*
X3005Y2387D01*
Y2523D01*
X3265D01*
Y3037D01*
X3174D01*
Y3225D01*
X3344D01*
Y3935D01*
D02*
G37*
G36*
X19985Y2022D02*
X19621D01*
Y1795D01*
X19985D01*
Y2022D01*
D02*
G37*
G36*
X19521D02*
X19157D01*
Y1795D01*
X19521D01*
Y2022D01*
D02*
G37*
G36*
X17623D02*
X17259D01*
Y1795D01*
X17623D01*
Y2022D01*
D02*
G37*
G36*
X17159D02*
X16795D01*
Y1795D01*
X17159D01*
Y2022D01*
D02*
G37*
G36*
X13356Y1883D02*
X12803D01*
Y1769D01*
X12651D01*
X12590Y1810D01*
X12514Y1825D01*
X12438Y1810D01*
X12373Y1767D01*
X12330Y1702D01*
X12315Y1626D01*
X12330Y1550D01*
X12373Y1486D01*
X12438Y1443D01*
X12514Y1427D01*
X12590Y1443D01*
X12654Y1486D01*
X12655Y1486D01*
X12803D01*
Y1369D01*
X12839D01*
Y1169D01*
X12804Y1162D01*
X12771Y1140D01*
X12749Y1108D01*
X12742Y1069D01*
Y990D01*
X12749Y951D01*
X12771Y918D01*
Y884D01*
X12749Y852D01*
X12744Y823D01*
X12971D01*
X13198D01*
X13192Y852D01*
X13170Y884D01*
Y918D01*
X13192Y951D01*
X13200Y990D01*
Y1069D01*
X13192Y1108D01*
X13170Y1140D01*
X13138Y1162D01*
X13122Y1165D01*
Y1369D01*
X13356D01*
Y1883D01*
D02*
G37*
G36*
X14025D02*
X13798D01*
Y1676D01*
X14025D01*
Y1883D01*
D02*
G37*
G36*
X13698D02*
X13472D01*
Y1676D01*
X13698D01*
Y1883D01*
D02*
G37*
G36*
X12057Y1877D02*
X11830D01*
Y1670D01*
X12057D01*
Y1877D01*
D02*
G37*
G36*
X11730D02*
X11504D01*
Y1670D01*
X11730D01*
Y1877D01*
D02*
G37*
G36*
X14025Y1576D02*
X13798D01*
Y1369D01*
X14025D01*
Y1576D01*
D02*
G37*
G36*
X13698D02*
X13472D01*
Y1369D01*
X13698D01*
Y1576D01*
D02*
G37*
G36*
X12057Y1570D02*
X11830D01*
Y1363D01*
X12057D01*
Y1570D01*
D02*
G37*
G36*
X11730D02*
X11504D01*
Y1363D01*
X11730D01*
Y1570D01*
D02*
G37*
G36*
X21514Y1200D02*
X21320D01*
Y1006D01*
X21367Y1015D01*
X21449Y1071D01*
X21505Y1153D01*
X21514Y1200D01*
D02*
G37*
G36*
X20770Y2504D02*
X20673Y2485D01*
X20591Y2430D01*
X20535Y2347D01*
X20516Y2250D01*
X20535Y2153D01*
X20591Y2070D01*
X20654Y2028D01*
Y1972D01*
X20591Y1929D01*
X20535Y1847D01*
X20516Y1750D01*
X20535Y1653D01*
X20591Y1570D01*
X20654Y1528D01*
Y1472D01*
X20591Y1429D01*
X20535Y1347D01*
X20516Y1250D01*
X20535Y1153D01*
X20591Y1071D01*
X20673Y1015D01*
X20770Y996D01*
X20867Y1015D01*
X20949Y1071D01*
X20992Y1134D01*
X21048D01*
X21091Y1071D01*
X21173Y1015D01*
X21220Y1006D01*
Y1250D01*
X21270D01*
Y1300D01*
X21514D01*
X21505Y1347D01*
X21449Y1429D01*
X21386Y1472D01*
Y1528D01*
X21449Y1570D01*
X21505Y1653D01*
X21514Y1700D01*
X21270D01*
Y1800D01*
X21514D01*
X21505Y1847D01*
X21449Y1929D01*
X21386Y1972D01*
Y2028D01*
X21449Y2070D01*
X21505Y2153D01*
X21514Y2200D01*
X21270D01*
Y2250D01*
X21220D01*
Y2494D01*
X21173Y2485D01*
X21091Y2430D01*
X21048Y2366D01*
X20992D01*
X20949Y2430D01*
X20867Y2485D01*
X20770Y2504D01*
D02*
G37*
G36*
X3594Y970D02*
X3367D01*
Y763D01*
X3594D01*
Y970D01*
D02*
G37*
G36*
X3267D02*
X3041D01*
Y763D01*
X3267D01*
Y970D01*
D02*
G37*
G36*
X16105Y2273D02*
X15552D01*
Y1759D01*
X16105D01*
Y1799D01*
X16155Y1820D01*
X16422Y1552D01*
Y713D01*
X16421Y712D01*
X16376Y689D01*
X15860Y1205D01*
X15825Y1229D01*
Y1393D01*
X15272D01*
Y879D01*
X15435D01*
Y727D01*
X15272D01*
Y213D01*
X15825D01*
Y727D01*
X15658D01*
Y879D01*
X15825D01*
Y879D01*
X15857Y893D01*
X16446Y304D01*
Y-447D01*
X16455Y-490D01*
X16479Y-526D01*
X16757Y-804D01*
X16753Y-832D01*
X16738Y-856D01*
X16735Y-856D01*
X16676Y-816D01*
X16600Y-801D01*
X16524Y-816D01*
X16459Y-859D01*
X16440Y-889D01*
X16118D01*
X15825Y-595D01*
Y-307D01*
X15272D01*
Y-821D01*
X15537D01*
Y-983D01*
X15272D01*
Y-1497D01*
X15825D01*
Y-983D01*
X15760D01*
Y-910D01*
X15806Y-891D01*
X15993Y-1079D01*
X16029Y-1103D01*
X16072Y-1111D01*
X16072Y-1111D01*
X16440D01*
X16459Y-1141D01*
X16524Y-1184D01*
X16600Y-1199D01*
X16676Y-1184D01*
X16741Y-1141D01*
X16760Y-1111D01*
X17038D01*
X17055Y-1161D01*
X17036Y-1176D01*
X16977Y-1253D01*
X16940Y-1343D01*
X16927Y-1439D01*
X16940Y-1536D01*
X16971Y-1611D01*
X16923Y-1659D01*
X15884D01*
X15841Y-1667D01*
X15805Y-1691D01*
X15570Y-1927D01*
X15545Y-1963D01*
X15537Y-2005D01*
Y-2143D01*
X15272D01*
Y-2657D01*
X15537D01*
Y-2817D01*
X15272D01*
Y-3331D01*
X15825D01*
Y-2817D01*
X15760D01*
Y-2657D01*
X15825D01*
Y-2143D01*
X15760D01*
Y-2051D01*
X15930Y-1881D01*
X16969D01*
X17012Y-1873D01*
X17048Y-1849D01*
X17128Y-1769D01*
X17203Y-1800D01*
X17300Y-1813D01*
X17397Y-1800D01*
X17487Y-1763D01*
X17564Y-1703D01*
X17623Y-1626D01*
X17660Y-1536D01*
X17673Y-1439D01*
X17660Y-1343D01*
X17623Y-1253D01*
X17564Y-1176D01*
X17545Y-1161D01*
X17562Y-1111D01*
X18038D01*
X18055Y-1161D01*
X18036Y-1176D01*
X17977Y-1253D01*
X17940Y-1343D01*
X17927Y-1439D01*
X17940Y-1536D01*
X17977Y-1626D01*
X18036Y-1703D01*
X18113Y-1763D01*
X18203Y-1800D01*
X18236Y-1804D01*
Y-2033D01*
X18101D01*
Y-2199D01*
X18014D01*
Y-2033D01*
X17501D01*
Y-2586D01*
X18014D01*
Y-2481D01*
X18101D01*
Y-2586D01*
X18614D01*
Y-2033D01*
X18479D01*
Y-1766D01*
X18487Y-1763D01*
X18564Y-1703D01*
X18623Y-1626D01*
X18660Y-1536D01*
X18673Y-1439D01*
X18660Y-1343D01*
X18623Y-1253D01*
X18594Y-1215D01*
X18602Y-1192D01*
X18621Y-1167D01*
X18958D01*
X18974Y-1178D01*
X18989Y-1229D01*
X18989Y-1240D01*
X18966Y-1274D01*
X18951Y-1350D01*
X18966Y-1426D01*
X19009Y-1491D01*
X19074Y-1534D01*
X19150Y-1549D01*
X19226Y-1534D01*
X19291Y-1491D01*
X19334Y-1426D01*
X19349Y-1350D01*
X19334Y-1274D01*
X19312Y-1242D01*
X19320Y-1207D01*
X19333Y-1183D01*
X19357Y-1167D01*
X19379Y-1134D01*
X19386Y-1095D01*
Y-1017D01*
X19379Y-978D01*
X19357Y-945D01*
Y-911D01*
X19379Y-878D01*
X19384Y-850D01*
X19157D01*
Y-750D01*
X19384D01*
X19379Y-722D01*
X19357Y-689D01*
Y-655D01*
X19379Y-622D01*
X19386Y-583D01*
Y-505D01*
X19379Y-466D01*
X19357Y-433D01*
X19324Y-411D01*
X19285Y-403D01*
X19029D01*
X18990Y-411D01*
X18958Y-433D01*
X18851D01*
X18779Y-361D01*
X18743Y-337D01*
X18700Y-328D01*
X18651D01*
X18628Y-270D01*
X18574Y-200D01*
X18504Y-147D01*
X18422Y-113D01*
X18335Y-102D01*
X18265D01*
X18178Y-113D01*
X18096Y-147D01*
X18026Y-200D01*
X17972Y-270D01*
X17939Y-352D01*
X17927Y-439D01*
X17939Y-527D01*
X17972Y-608D01*
X17973Y-609D01*
X17852Y-730D01*
X17584D01*
X17568Y-683D01*
X17574Y-678D01*
X17628Y-608D01*
X17661Y-527D01*
X17673Y-439D01*
X17661Y-352D01*
X17628Y-270D01*
X17574Y-200D01*
X17504Y-147D01*
X17422Y-113D01*
X17335Y-102D01*
X17265D01*
X17178Y-113D01*
X17096Y-147D01*
X17026Y-200D01*
X16972Y-270D01*
X16968Y-280D01*
X16909Y-292D01*
X16827Y-210D01*
Y531D01*
X16819Y573D01*
X16795Y609D01*
X16645Y759D01*
Y1598D01*
X16637Y1641D01*
X16612Y1677D01*
X16256Y2034D01*
X16220Y2058D01*
X16177Y2066D01*
X16105D01*
Y2273D01*
D02*
G37*
G36*
X18350Y927D02*
Y611D01*
X18667D01*
X18660Y657D01*
X18623Y747D01*
X18564Y824D01*
X18487Y884D01*
X18397Y921D01*
X18350Y927D01*
D02*
G37*
G36*
X18250Y927D02*
X18203Y921D01*
X18113Y884D01*
X18036Y824D01*
X17977Y747D01*
X17940Y657D01*
X17933Y611D01*
X18250D01*
Y927D01*
D02*
G37*
G36*
Y511D02*
X17933D01*
X17940Y464D01*
X17977Y374D01*
X18036Y297D01*
X18113Y237D01*
X18203Y200D01*
X18250Y194D01*
Y511D01*
D02*
G37*
G36*
X18667D02*
X18350D01*
Y194D01*
X18397Y200D01*
X18487Y237D01*
X18564Y297D01*
X18623Y374D01*
X18660Y464D01*
X18667Y511D01*
D02*
G37*
G36*
X17670Y931D02*
X16930D01*
Y191D01*
X17670D01*
Y931D01*
D02*
G37*
G36*
X13854Y107D02*
X13627D01*
Y-100D01*
X13854D01*
Y107D01*
D02*
G37*
G36*
X13527D02*
X13301D01*
Y-100D01*
X13527D01*
Y107D01*
D02*
G37*
G36*
X12321Y-30D02*
X12095D01*
Y-237D01*
X12321D01*
Y-30D01*
D02*
G37*
G36*
X11995D02*
X11768D01*
Y-237D01*
X11995D01*
Y-30D01*
D02*
G37*
G36*
X2654Y-39D02*
X2447D01*
Y-265D01*
X2654D01*
Y-39D01*
D02*
G37*
G36*
X13854Y-200D02*
X13627D01*
Y-407D01*
X13854D01*
Y-200D01*
D02*
G37*
G36*
X13527D02*
X13301D01*
Y-407D01*
X13527D01*
Y-200D01*
D02*
G37*
G36*
X14523Y107D02*
X13970D01*
Y-407D01*
X14170D01*
Y-547D01*
X14166Y-553D01*
X14024D01*
X14021Y-551D01*
X13983Y-543D01*
X13727D01*
X13688Y-551D01*
X13655Y-573D01*
X13633Y-606D01*
X13625Y-645D01*
Y-723D01*
X13633Y-762D01*
X13645Y-781D01*
X13627Y-827D01*
X13623Y-831D01*
X13602D01*
X13602Y-831D01*
X13559Y-839D01*
X13523Y-863D01*
X13523Y-863D01*
X13360Y-1027D01*
X13335Y-1063D01*
X13327Y-1105D01*
Y-1167D01*
X13247Y-1248D01*
X13222Y-1241D01*
X13198Y-1225D01*
Y-1157D01*
X13190Y-1118D01*
X13168Y-1085D01*
Y-1051D01*
X13190Y-1018D01*
X13196Y-990D01*
X12969D01*
X12742D01*
X12747Y-1018D01*
X12758Y-1035D01*
X12737Y-1084D01*
X12736Y-1085D01*
X12466D01*
X12186Y-805D01*
X12150Y-781D01*
X12107Y-772D01*
X12074D01*
X12054Y-743D01*
X11990Y-700D01*
X11914Y-685D01*
X11838Y-700D01*
X11773Y-743D01*
X11730Y-808D01*
X11715Y-884D01*
X11730Y-960D01*
X11773Y-1024D01*
X11802Y-1044D01*
Y-1104D01*
X11773Y-1123D01*
X11730Y-1188D01*
X11715Y-1264D01*
X11730Y-1340D01*
X11773Y-1404D01*
X11838Y-1447D01*
X11914Y-1463D01*
X11990Y-1447D01*
X12054Y-1404D01*
X12060Y-1396D01*
X12118Y-1391D01*
X12215Y-1489D01*
X12215Y-1489D01*
X12251Y-1513D01*
X12294Y-1521D01*
X13242D01*
X13284Y-1513D01*
X13321Y-1489D01*
X13517Y-1292D01*
X13541Y-1256D01*
X13550Y-1214D01*
Y-1153D01*
X13586Y-1123D01*
X13628Y-1145D01*
X13625Y-1157D01*
Y-1235D01*
X13633Y-1274D01*
X13655Y-1307D01*
X13688Y-1329D01*
X13727Y-1337D01*
X13983D01*
X14021Y-1329D01*
X14051Y-1309D01*
X14511D01*
X14530Y-1356D01*
X14445Y-1440D01*
X14421Y-1476D01*
X14412Y-1519D01*
Y-2374D01*
X14362Y-2397D01*
X14347Y-2387D01*
X14309Y-2379D01*
X14275D01*
Y-2323D01*
X14317Y-2260D01*
X14333Y-2184D01*
X14317Y-2108D01*
X14274Y-2043D01*
X14210Y-2000D01*
X14134Y-1985D01*
X14058Y-2000D01*
X13993Y-2043D01*
X13950Y-2108D01*
X13935Y-2184D01*
X13950Y-2260D01*
X13992Y-2323D01*
Y-2379D01*
X13974D01*
X13935Y-2387D01*
X13902Y-2409D01*
X13880Y-2442D01*
X13873Y-2480D01*
Y-2559D01*
X13880Y-2598D01*
X13902Y-2631D01*
Y-2665D01*
X13880Y-2698D01*
X13873Y-2736D01*
Y-2815D01*
X13880Y-2854D01*
X13902Y-2887D01*
Y-2921D01*
X13880Y-2954D01*
X13873Y-2992D01*
Y-3071D01*
X13880Y-3110D01*
X13902Y-3143D01*
Y-3177D01*
X13880Y-3209D01*
X13875Y-3238D01*
X14141D01*
X14408D01*
X14402Y-3209D01*
X14391Y-3193D01*
X14413Y-3143D01*
X14413Y-3143D01*
X14603D01*
Y-3331D01*
X15156D01*
Y-2817D01*
X14648D01*
X14621Y-2767D01*
X14627Y-2758D01*
X14635Y-2716D01*
Y-2657D01*
X14829D01*
Y-2400D01*
Y-2143D01*
X14635D01*
Y-1565D01*
X14703Y-1497D01*
X15156D01*
Y-983D01*
X14603D01*
Y-1087D01*
X14086D01*
X14083Y-1083D01*
X14064Y-1037D01*
X14076Y-1018D01*
X14084Y-979D01*
Y-901D01*
X14077Y-866D01*
X14077Y-860D01*
X14105Y-816D01*
X14164D01*
X14171Y-827D01*
X14236Y-870D01*
X14312Y-885D01*
X14388Y-870D01*
X14452Y-827D01*
X14460Y-816D01*
X14603D01*
Y-821D01*
X15156D01*
Y-307D01*
X14603D01*
Y-553D01*
X14457D01*
X14453Y-547D01*
Y-407D01*
X14523D01*
Y107D01*
D02*
G37*
G36*
X2654Y-365D02*
X2447D01*
Y-592D01*
X2654D01*
Y-365D01*
D02*
G37*
G36*
X12514Y-215D02*
X12438Y-230D01*
X12373Y-273D01*
X12330Y-338D01*
X12315Y-414D01*
X12330Y-490D01*
X12373Y-554D01*
X12438Y-597D01*
X12512Y-612D01*
X12684Y-784D01*
X12722Y-810D01*
X12737Y-833D01*
X12747Y-862D01*
X12742Y-890D01*
X12969D01*
X13196D01*
X13190Y-862D01*
X13181Y-847D01*
X13172Y-812D01*
X13181Y-777D01*
X13190Y-762D01*
X13198Y-723D01*
Y-645D01*
X13190Y-606D01*
X13168Y-573D01*
X13136Y-551D01*
X13097Y-543D01*
X12973D01*
X12969Y-543D01*
X12843D01*
X12712Y-412D01*
X12697Y-338D01*
X12654Y-273D01*
X12590Y-230D01*
X12514Y-215D01*
D02*
G37*
G36*
X4611Y-708D02*
X4404D01*
Y-935D01*
X4611D01*
Y-708D01*
D02*
G37*
G36*
X21320Y-1006D02*
Y-1200D01*
X21514D01*
X21505Y-1153D01*
X21449Y-1071D01*
X21367Y-1015D01*
X21320Y-1006D01*
D02*
G37*
G36*
X4611Y-1035D02*
X4404D01*
Y-1261D01*
X4611D01*
Y-1035D01*
D02*
G37*
G36*
X2961Y-708D02*
X2947Y-708D01*
X2447D01*
Y-1261D01*
X2595D01*
Y-1448D01*
X2587Y-1451D01*
X2525Y-1499D01*
X2478Y-1561D01*
X2448Y-1633D01*
X2438Y-1710D01*
X2448Y-1787D01*
X2478Y-1859D01*
X2525Y-1921D01*
X2587Y-1969D01*
X2595Y-1972D01*
Y-2271D01*
X2548D01*
Y-2843D01*
X2904D01*
Y-2271D01*
X2878D01*
Y-1972D01*
X2886Y-1969D01*
X2948Y-1921D01*
X2995Y-1859D01*
X3025Y-1787D01*
X3035Y-1710D01*
X3025Y-1633D01*
X2995Y-1561D01*
X2948Y-1499D01*
X2886Y-1451D01*
X2878Y-1448D01*
Y-1261D01*
X2947D01*
X2997Y-1261D01*
X3011Y-1261D01*
X3204D01*
Y-985D01*
Y-708D01*
X3011D01*
X2961Y-708D01*
D02*
G37*
G36*
X5740Y-1306D02*
X5385D01*
Y-1378D01*
X5630D01*
X5677Y-1369D01*
X5716Y-1342D01*
X5740Y-1306D01*
D02*
G37*
G36*
X5285D02*
X4930D01*
X4954Y-1342D01*
X4993Y-1369D01*
X5040Y-1378D01*
X5285D01*
Y-1306D01*
D02*
G37*
G36*
X8996Y-1548D02*
X8950Y-1558D01*
X8911Y-1584D01*
X8885D01*
X8850Y-1560D01*
Y-1965D01*
Y-2370D01*
X8885Y-2346D01*
X8911D01*
X8950Y-2372D01*
X8996Y-2382D01*
X9043Y-2372D01*
X9082Y-2346D01*
X9109Y-2307D01*
X9118Y-2260D01*
Y-1670D01*
X9109Y-1623D01*
X9082Y-1584D01*
X9043Y-1558D01*
X8996Y-1548D01*
D02*
G37*
G36*
X13675Y-1697D02*
X13448D01*
Y-1904D01*
X13675D01*
Y-1697D01*
D02*
G37*
G36*
X13348D02*
X13122D01*
Y-1904D01*
X13348D01*
Y-1697D01*
D02*
G37*
G36*
X4607Y-1414D02*
X4015D01*
Y-2006D01*
X4607D01*
Y-1414D01*
D02*
G37*
G36*
X3524Y-1411D02*
X3446Y-1421D01*
X3374Y-1451D01*
X3312Y-1499D01*
X3265Y-1561D01*
X3235Y-1633D01*
X3225Y-1710D01*
X3235Y-1787D01*
X3265Y-1859D01*
X3312Y-1921D01*
X3374Y-1969D01*
X3446Y-1999D01*
X3524Y-2009D01*
X3601Y-1999D01*
X3673Y-1969D01*
X3735Y-1921D01*
X3782Y-1859D01*
X3812Y-1787D01*
X3822Y-1710D01*
X3812Y-1633D01*
X3782Y-1561D01*
X3735Y-1499D01*
X3673Y-1451D01*
X3601Y-1421D01*
X3524Y-1411D01*
D02*
G37*
G36*
X1394Y-1751D02*
X1318Y-1766D01*
X1254Y-1809D01*
X1210Y-1874D01*
X1195Y-1950D01*
X1210Y-2026D01*
X1253Y-2089D01*
Y-2131D01*
X1233Y-2161D01*
X1231Y-2161D01*
X1183D01*
X1182Y-2161D01*
X1156Y-2123D01*
X1119Y-2098D01*
X1074Y-2089D01*
X1070D01*
Y-2349D01*
Y-2608D01*
X1074D01*
X1119Y-2599D01*
X1156Y-2574D01*
X1182Y-2536D01*
X1183Y-2536D01*
X1231D01*
X1233Y-2536D01*
X1258Y-2574D01*
X1295Y-2599D01*
X1340Y-2608D01*
X1448D01*
X1493Y-2599D01*
X1531Y-2574D01*
X1556Y-2536D01*
X1561Y-2510D01*
X1713D01*
Y-2722D01*
X2227D01*
Y-2169D01*
X1713D01*
Y-2227D01*
X1565D01*
Y-2206D01*
X1556Y-2161D01*
X1536Y-2131D01*
Y-2089D01*
X1578Y-2026D01*
X1593Y-1950D01*
X1578Y-1874D01*
X1535Y-1809D01*
X1470Y-1766D01*
X1394Y-1751D01*
D02*
G37*
G36*
X13675Y-2004D02*
X13448D01*
Y-2211D01*
X13675D01*
Y-2004D01*
D02*
G37*
G36*
X13348D02*
X13122D01*
Y-2211D01*
X13348D01*
Y-2004D01*
D02*
G37*
G36*
X17414Y-2033D02*
X17207D01*
Y-2259D01*
X17414D01*
Y-2033D01*
D02*
G37*
G36*
X16814D02*
X16607D01*
Y-2259D01*
X16814D01*
Y-2033D01*
D02*
G37*
G36*
X17107D02*
X16901D01*
Y-2259D01*
X17107D01*
Y-2033D01*
D02*
G37*
G36*
X16507D02*
X16301D01*
Y-2259D01*
X16507D01*
Y-2033D01*
D02*
G37*
G36*
X19372Y-2087D02*
X19145D01*
Y-2294D01*
X19372D01*
Y-2087D01*
D02*
G37*
G36*
X19045D02*
X18819D01*
Y-2294D01*
X19045D01*
Y-2087D01*
D02*
G37*
G36*
X15156Y-2143D02*
X14929D01*
Y-2350D01*
X15156D01*
Y-2143D01*
D02*
G37*
G36*
X3652Y-2271D02*
X3524D01*
Y-2507D01*
X3652D01*
Y-2271D01*
D02*
G37*
G36*
X3424D02*
X3296D01*
Y-2507D01*
X3424D01*
Y-2271D01*
D02*
G37*
G36*
X17414Y-2359D02*
X17207D01*
Y-2586D01*
X17414D01*
Y-2359D01*
D02*
G37*
G36*
X17107D02*
X16901D01*
Y-2586D01*
X17107D01*
Y-2359D01*
D02*
G37*
G36*
X16814D02*
X16607D01*
Y-2586D01*
X16814D01*
Y-2359D01*
D02*
G37*
G36*
X16507D02*
X16301D01*
Y-2586D01*
X16507D01*
Y-2359D01*
D02*
G37*
G36*
X19372Y-2394D02*
X19145D01*
Y-2601D01*
X19372D01*
Y-2394D01*
D02*
G37*
G36*
X19045D02*
X18819D01*
Y-2601D01*
X19045D01*
Y-2394D01*
D02*
G37*
G36*
X650Y-1751D02*
X574Y-1766D01*
X509Y-1809D01*
X466Y-1874D01*
X451Y-1950D01*
X466Y-2026D01*
X509Y-2089D01*
Y-2125D01*
X484Y-2161D01*
X476Y-2206D01*
Y-2491D01*
X484Y-2536D01*
X510Y-2574D01*
X547Y-2599D01*
X592Y-2608D01*
X700D01*
X745Y-2599D01*
X782Y-2574D01*
X808Y-2536D01*
X809Y-2536D01*
X857D01*
X859Y-2536D01*
X884Y-2574D01*
X921Y-2599D01*
X966Y-2608D01*
X970D01*
Y-2349D01*
Y-2089D01*
X966D01*
X921Y-2098D01*
X884Y-2123D01*
X873Y-2140D01*
X815Y-2144D01*
X792Y-2119D01*
Y-2089D01*
X834Y-2026D01*
X849Y-1950D01*
X834Y-1874D01*
X791Y-1809D01*
X726Y-1766D01*
X650Y-1751D01*
D02*
G37*
G36*
X15156Y-2450D02*
X14929D01*
Y-2657D01*
X15156D01*
Y-2450D01*
D02*
G37*
G36*
X4567Y-2581D02*
X4360D01*
Y-2807D01*
X4567D01*
Y-2581D01*
D02*
G37*
G36*
X4260D02*
X4053D01*
Y-2807D01*
X4260D01*
Y-2581D01*
D02*
G37*
G36*
X3652Y-2607D02*
X3524D01*
Y-2843D01*
X3652D01*
Y-2607D01*
D02*
G37*
G36*
X3424D02*
X3296D01*
Y-2843D01*
X3424D01*
Y-2607D01*
D02*
G37*
G36*
X18614Y-2702D02*
X18407D01*
Y-2928D01*
X18614D01*
Y-2702D01*
D02*
G37*
G36*
X18307D02*
X18101D01*
Y-2928D01*
X18307D01*
Y-2702D01*
D02*
G37*
G36*
X5520Y-2736D02*
X5473Y-2745D01*
X5391Y-2801D01*
X5336Y-2883D01*
X5326Y-2930D01*
X5520D01*
Y-2736D01*
D02*
G37*
G36*
X2227Y-2838D02*
X2020D01*
Y-3065D01*
X2227D01*
Y-2838D01*
D02*
G37*
G36*
X1920D02*
X1713D01*
Y-3065D01*
X1920D01*
Y-2838D01*
D02*
G37*
G36*
X4567Y-2907D02*
X4360D01*
Y-3134D01*
X4567D01*
Y-2907D01*
D02*
G37*
G36*
X4260D02*
X4053D01*
Y-3134D01*
X4260D01*
Y-2907D01*
D02*
G37*
G36*
X10444Y-2918D02*
Y-3200D01*
X10726D01*
X10721Y-3162D01*
X10687Y-3081D01*
X10633Y-3011D01*
X10563Y-2957D01*
X10481Y-2923D01*
X10444Y-2918D01*
D02*
G37*
G36*
X10344D02*
X10306Y-2923D01*
X10224Y-2957D01*
X10154Y-3011D01*
X10101Y-3081D01*
X10067Y-3162D01*
X10062Y-3200D01*
X10344D01*
Y-2918D01*
D02*
G37*
G36*
X20041Y-2087D02*
X19488D01*
Y-2601D01*
X19623D01*
Y-2687D01*
X19488D01*
Y-3201D01*
X20041D01*
Y-2687D01*
X19906D01*
Y-2601D01*
X20041D01*
Y-2087D01*
D02*
G37*
G36*
X19372Y-2687D02*
X18819D01*
Y-3063D01*
X18664Y-3217D01*
X18614Y-3197D01*
Y-3028D01*
X18407D01*
Y-3255D01*
X18565D01*
X18579Y-3273D01*
X18595Y-3305D01*
X18589Y-3339D01*
Y-3366D01*
X18559Y-3386D01*
X18516Y-3450D01*
X18501Y-3527D01*
X18516Y-3603D01*
X18559Y-3667D01*
X18624Y-3710D01*
X18700Y-3725D01*
X18776Y-3710D01*
X18841Y-3667D01*
X18884Y-3603D01*
X18899Y-3527D01*
X18884Y-3450D01*
X18841Y-3386D01*
X18838Y-3359D01*
X18996Y-3201D01*
X19372D01*
Y-2687D01*
D02*
G37*
G36*
X1448Y-3152D02*
X1340D01*
X1295Y-3161D01*
X1258Y-3186D01*
X1233Y-3224D01*
X1231Y-3224D01*
X1183D01*
X1182Y-3224D01*
X1156Y-3186D01*
X1119Y-3161D01*
X1074Y-3152D01*
X966D01*
X921Y-3161D01*
X884Y-3186D01*
X859Y-3224D01*
X857Y-3224D01*
X809D01*
X808Y-3224D01*
X782Y-3186D01*
X745Y-3161D01*
X700Y-3152D01*
X592D01*
X547Y-3161D01*
X510Y-3186D01*
X484Y-3224D01*
X481Y-3243D01*
X428Y-3268D01*
X426Y-3266D01*
X350Y-3251D01*
X274Y-3266D01*
X209Y-3309D01*
X166Y-3374D01*
X151Y-3450D01*
X166Y-3526D01*
X209Y-3591D01*
X274Y-3634D01*
X350Y-3649D01*
X426Y-3634D01*
X481Y-3597D01*
X484Y-3599D01*
X510Y-3636D01*
X547Y-3662D01*
X592Y-3671D01*
X700D01*
X745Y-3662D01*
X782Y-3636D01*
X808Y-3599D01*
X809Y-3599D01*
X857D01*
X859Y-3599D01*
X884Y-3636D01*
X921Y-3662D01*
X966Y-3671D01*
X1074D01*
X1119Y-3662D01*
X1156Y-3636D01*
X1182Y-3599D01*
X1183Y-3599D01*
X1231D01*
X1233Y-3599D01*
X1258Y-3636D01*
X1295Y-3662D01*
X1340Y-3671D01*
X1433D01*
X1443Y-3680D01*
X1488Y-3711D01*
X1543Y-3721D01*
X1545Y-3721D01*
X1594Y-3754D01*
X1670Y-3769D01*
X1746Y-3754D01*
X1811Y-3711D01*
X1854Y-3646D01*
X1869Y-3570D01*
X1854Y-3494D01*
X1818Y-3441D01*
X1837Y-3391D01*
X1920D01*
Y-3165D01*
X1713D01*
Y-3340D01*
X1675Y-3372D01*
X1670Y-3371D01*
X1615Y-3382D01*
X1571Y-3354D01*
X1565Y-3346D01*
Y-3269D01*
X1556Y-3224D01*
X1531Y-3186D01*
X1493Y-3161D01*
X1448Y-3152D01*
D02*
G37*
G36*
X18307Y-3028D02*
X18101D01*
Y-3255D01*
X18307D01*
Y-3028D01*
D02*
G37*
G36*
X16814Y-2702D02*
X16301D01*
Y-3255D01*
X16814D01*
Y-3090D01*
X16901D01*
Y-3255D01*
X17012D01*
X17027Y-3305D01*
X17017Y-3312D01*
X16974Y-3377D01*
X16959Y-3453D01*
X16974Y-3529D01*
X17017Y-3593D01*
X17081Y-3636D01*
X17157Y-3651D01*
X17233Y-3636D01*
X17298Y-3593D01*
X17341Y-3529D01*
X17356Y-3453D01*
X17341Y-3377D01*
X17298Y-3312D01*
X17287Y-3305D01*
X17302Y-3255D01*
X17414D01*
Y-3090D01*
X17501D01*
Y-3255D01*
X18014D01*
Y-2702D01*
X17501D01*
Y-2867D01*
X17414D01*
Y-2702D01*
X16901D01*
Y-2867D01*
X16814D01*
Y-2702D01*
D02*
G37*
G36*
X8981Y-3148D02*
X8774D01*
Y-3375D01*
X8981D01*
Y-3148D01*
D02*
G37*
G36*
X8674D02*
X8467D01*
Y-3375D01*
X8674D01*
Y-3148D01*
D02*
G37*
G36*
X2227Y-3165D02*
X2020D01*
Y-3391D01*
X2227D01*
Y-3165D01*
D02*
G37*
G36*
X14408Y-3338D02*
X14191D01*
Y-3428D01*
X14309D01*
X14347Y-3421D01*
X14380Y-3399D01*
X14402Y-3366D01*
X14408Y-3338D01*
D02*
G37*
G36*
X14091D02*
X13875D01*
X13880Y-3366D01*
X13902Y-3399D01*
X13935Y-3421D01*
X13974Y-3428D01*
X14091D01*
Y-3338D01*
D02*
G37*
G36*
X12853D02*
X12636D01*
Y-3428D01*
X12753D01*
X12792Y-3421D01*
X12825Y-3399D01*
X12847Y-3366D01*
X12853Y-3338D01*
D02*
G37*
G36*
X12536D02*
X12320D01*
X12325Y-3366D01*
X12347Y-3399D01*
X12380Y-3421D01*
X12419Y-3428D01*
X12536D01*
Y-3338D01*
D02*
G37*
G36*
X10726Y-3300D02*
X10444D01*
Y-3582D01*
X10481Y-3577D01*
X10563Y-3543D01*
X10633Y-3489D01*
X10687Y-3419D01*
X10721Y-3338D01*
X10726Y-3300D01*
D02*
G37*
G36*
X10344D02*
X10062D01*
X10067Y-3338D01*
X10101Y-3419D01*
X10154Y-3489D01*
X10224Y-3543D01*
X10306Y-3577D01*
X10344Y-3582D01*
Y-3300D01*
D02*
G37*
G36*
X8981Y-3475D02*
X8774D01*
Y-3701D01*
X8981D01*
Y-3475D01*
D02*
G37*
G36*
X8674D02*
X8467D01*
Y-3701D01*
X8674D01*
Y-3475D01*
D02*
G37*
G36*
X3278Y-3157D02*
X2922D01*
Y-3729D01*
X3278D01*
Y-3724D01*
X3541D01*
X3574Y-3746D01*
X3650Y-3762D01*
X3726Y-3746D01*
X3759Y-3724D01*
X4053D01*
Y-3803D01*
X4567D01*
Y-3250D01*
X4053D01*
Y-3401D01*
X3759D01*
X3726Y-3379D01*
X3650Y-3364D01*
X3574Y-3379D01*
X3541Y-3401D01*
X3278D01*
Y-3157D01*
D02*
G37*
G36*
X8320Y269D02*
X8244Y254D01*
X8179Y211D01*
X8136Y146D01*
X8121Y70D01*
X8136Y-6D01*
X8179Y-71D01*
X8219Y-97D01*
Y-663D01*
X8179Y-689D01*
X8136Y-754D01*
X8121Y-830D01*
X8136Y-906D01*
X8179Y-971D01*
X8244Y-1014D01*
X8320Y-1029D01*
X8396Y-1014D01*
X8461Y-971D01*
X8504Y-906D01*
X8519Y-830D01*
X8504Y-754D01*
X8461Y-689D01*
X8421Y-663D01*
Y-97D01*
X8461Y-71D01*
X8504Y-6D01*
X8519Y70D01*
X8504Y146D01*
X8461Y211D01*
X8396Y254D01*
X8320Y269D01*
D02*
G37*
%LPD*%
D10*
X9705Y-469D02*
X10269D01*
X9159D02*
X9705D01*
X10800Y-2560D02*
Y-1000D01*
X10269Y-469D02*
X10800Y-1000D01*
X9557Y-274D02*
X10374D01*
X11080Y-2490D02*
Y-980D01*
X10374Y-274D02*
X11080Y-980D01*
X11284Y-1891D02*
Y-884D01*
X10280Y120D02*
X11284Y-884D01*
X10280Y120D02*
Y290D01*
X6831Y1830D02*
Y2405D01*
X6634Y2027D02*
X6831Y1830D01*
X11484Y-1790D02*
Y-784D01*
X10620Y80D02*
X11484Y-784D01*
X10620Y80D02*
Y300D01*
X19150Y-1350D02*
Y-1063D01*
X19157Y-1056D01*
X16952Y-842D02*
X17898D01*
X16557Y-447D02*
X16952Y-842D01*
X17898D02*
X18300Y-439D01*
X16600Y-1000D02*
X18554D01*
X15547Y1126D02*
X15781D01*
X5335Y1500D02*
X5345D01*
X4902D02*
X5335D01*
X4835Y1765D02*
X5110Y2040D01*
X4835Y1567D02*
Y1765D01*
Y1567D02*
X4902Y1500D01*
X20076Y-1056D02*
X20770Y-1750D01*
X20043Y-1056D02*
X20076D01*
X20192Y149D02*
Y2778D01*
X19765Y-278D02*
X20192Y149D01*
X19765Y-899D02*
Y-278D01*
X20350Y170D02*
Y3330D01*
Y170D02*
X20770Y-250D01*
X15648Y-3154D02*
Y-2005D01*
X18700Y-3527D02*
Y-3339D01*
X19095Y-2944D01*
X19765Y-899D02*
X19921Y-1056D01*
X18610D02*
X19157D01*
X18554Y-1000D02*
X18610Y-1056D01*
X19921D02*
X20043D01*
X20708Y-1250D02*
X20770D01*
X20258Y-800D02*
X20708Y-1250D01*
X20043Y-800D02*
X20258D01*
X20494Y-750D02*
X20770D01*
X20288Y-544D02*
X20494Y-750D01*
X20043Y-544D02*
X20288D01*
X18805D02*
X19157D01*
X18700Y-439D02*
X18805Y-544D01*
X18300Y-439D02*
X18700D01*
X17157Y-2978D02*
X17707D01*
X16587D02*
X17157D01*
Y-3453D02*
Y-2978D01*
X16969Y-1770D02*
X17300Y-1439D01*
X15884Y-1770D02*
X16969D01*
X18300Y-1439D02*
X18357Y-1497D01*
X16899Y-439D02*
X17300D01*
X16716Y-256D02*
X16899Y-439D01*
X16716Y-256D02*
Y531D01*
X16534Y713D02*
X16716Y531D01*
X16557Y-447D02*
Y350D01*
X15781Y1126D02*
X16557Y350D01*
X16072Y-1000D02*
X16600D01*
X15652Y-580D02*
X16072Y-1000D01*
X15648Y-2005D02*
X15884Y-1770D01*
X17209Y3548D02*
X19571D01*
X17059Y3110D02*
X19860D01*
X20192Y2778D01*
X16575Y2626D02*
X17059Y3110D01*
X20132Y3548D02*
X20350Y3330D01*
X19571Y3548D02*
X20132D01*
X15890Y1955D02*
X16177D01*
X16534Y713D02*
Y1598D01*
X16177Y1955D02*
X16534Y1598D01*
X15852Y2626D02*
X16575D01*
X10800Y-2560D02*
X11070Y-2830D01*
X8406Y1502D02*
Y2405D01*
X9030Y-340D02*
X9159Y-469D01*
X8800Y-2320D02*
Y-1594D01*
X8800Y-1380D02*
X8980Y-1200D01*
X8800Y-1955D02*
Y-1380D01*
X6710Y2990D02*
X7050D01*
X9571Y3070D02*
X9660Y2981D01*
X9060Y3070D02*
X9571D01*
X8800Y2810D02*
X9060Y3070D01*
X8670Y2930D02*
X8990Y3250D01*
X8706Y3190D02*
X8993Y3477D01*
X9052D01*
X9165Y3590D01*
X7880Y2930D02*
X8603D01*
X7560Y3250D02*
X7880Y2930D01*
X9483Y2646D02*
X11175D01*
X9483Y2510D02*
Y2646D01*
X8800Y2395D02*
Y2810D01*
X9215Y3590D02*
X9295Y3510D01*
X5345Y1106D02*
X5844D01*
X4812Y1218D02*
X4924Y1106D01*
X5345D01*
X5460Y1740D02*
Y2040D01*
X2130Y0D02*
X2380Y250D01*
X1614Y0D02*
X2130D01*
X2380Y1240D02*
X2750Y1610D01*
X2380Y1230D02*
Y1240D01*
X2016Y256D02*
X2420Y659D01*
X2750Y1760D02*
X3000Y2010D01*
X2750Y1610D02*
Y1760D01*
X3040Y1490D02*
X3134D01*
X2420Y870D02*
X3040Y1490D01*
X2420Y659D02*
Y870D01*
X3000Y2010D02*
X3124D01*
X4332Y962D02*
X4582Y712D01*
X4332Y962D02*
Y1412D01*
X4254Y1490D02*
X4332Y1412D01*
X4344Y1700D02*
X4490Y1554D01*
Y1064D02*
Y1554D01*
Y1064D02*
X4645Y909D01*
X4549Y420D02*
X4714D01*
X4156Y813D02*
X4549Y420D01*
X4156Y813D02*
Y970D01*
X4645Y909D02*
X5335D01*
X10940Y350D02*
X12444D01*
X10578Y712D02*
X10940Y350D01*
X9555Y712D02*
X10578D01*
X9555Y-272D02*
X9557Y-274D01*
X6634Y2395D02*
Y2405D01*
X6634Y2027D02*
Y2395D01*
X5880Y1070D02*
X6100D01*
X5844Y1106D02*
X5880Y1070D01*
X11484Y-1790D02*
X12196Y-2502D01*
Y-2726D02*
Y-2502D01*
X11998Y-2794D02*
Y-2605D01*
X11284Y-1891D02*
X11998Y-2605D01*
X5794Y-1470D02*
Y-1159D01*
X5694Y-1060D02*
X5794Y-1159D01*
X5335Y-1060D02*
X5694D01*
X8800Y-2320D02*
X8850Y-2370D01*
X8914Y-1480D02*
X9092D01*
X8800Y-1594D02*
X8914Y-1480D01*
X6044Y2405D02*
Y2970D01*
X5785Y3228D02*
X6044Y2970D01*
X5785Y3228D02*
Y3670D01*
X11225Y680D02*
X11245Y700D01*
X9705Y909D02*
X10644D01*
X9555D02*
X9705D01*
X10873Y680D02*
X11225D01*
X10644Y909D02*
X10873Y680D01*
X9705Y1106D02*
X10418D01*
X10597D02*
X10691Y1200D01*
X10418Y1106D02*
X10597D01*
X10221Y1303D02*
X10418Y1106D01*
X9705Y1303D02*
X10221D01*
X10691Y1200D02*
X11111Y1620D01*
X12413Y2834D02*
X12586D01*
X12259Y2215D02*
Y2485D01*
Y2215D02*
X12397Y2076D01*
X10276Y-863D02*
X10384Y-970D01*
Y-1600D02*
Y-970D01*
X7918Y-3796D02*
X8204Y-3510D01*
X7186Y-3796D02*
X7918D01*
X7924Y-3350D02*
Y-2690D01*
X7794Y-3480D02*
X7924Y-3350D01*
X7570Y-3480D02*
X7794D01*
X7844Y-2610D02*
X7924Y-2690D01*
X7694Y-2610D02*
X7844D01*
X7619Y-2535D02*
X7694Y-2610D01*
X7619Y-2535D02*
Y-1965D01*
X570Y-969D02*
Y1139D01*
X642Y-969D02*
X1472D01*
X744Y969D02*
X1472D01*
X1182Y-512D02*
X1614D01*
X14033Y-2776D02*
X14464D01*
X14524Y-2716D01*
X13795Y-1198D02*
X14877D01*
X5970Y-3180D02*
Y-2720D01*
Y-3180D02*
X6070Y-3280D01*
Y-3480D02*
Y-3280D01*
X5970Y-2720D02*
X6220Y-2470D01*
X7070Y-3680D02*
Y-3480D01*
X6220Y-2800D02*
X6370Y-2650D01*
X6220Y-3130D02*
Y-2800D01*
Y-3130D02*
X6570Y-3480D01*
X746Y1325D02*
Y2200D01*
X11265Y50D02*
Y335D01*
X15547Y656D02*
Y1126D01*
X14033Y-3032D02*
X14857D01*
X12514Y767D02*
X13292D01*
X12929Y-942D02*
X13240D01*
X13469Y-713D01*
Y-608D01*
X13469Y-608D01*
Y-328D01*
X13630Y2322D02*
X14211D01*
X12586Y2834D02*
X12694D01*
X13464Y508D02*
Y596D01*
X13641Y773D01*
X13857D01*
X13384Y2076D02*
X13630Y2322D01*
X3240Y-410D02*
Y-315D01*
X3750D02*
Y-220D01*
X3790Y-913D02*
X4300Y-403D01*
X7225Y-2365D02*
Y-1965D01*
X7120Y-2470D02*
X7225Y-2365D01*
X6220Y-2470D02*
X7120D01*
X7170Y-2650D02*
X7172Y-2648D01*
X6370Y-2650D02*
X7170D01*
X7422Y-2420D02*
Y-1965D01*
X7172Y-2648D02*
X7194D01*
X7422Y-2420D01*
X5335Y1303D02*
X5970D01*
X5335Y515D02*
X5970D01*
X5335Y-863D02*
X5970D01*
X6831Y-1965D02*
Y-1280D01*
X7028Y-1965D02*
Y-1422D01*
X6465Y3580D02*
X7095D01*
X7225Y2405D02*
Y2815D01*
X4950Y-666D02*
X5970D01*
X3770Y-315D02*
Y-80D01*
X3920Y70D01*
X3240Y-315D02*
X3250D01*
X3750D01*
X15548Y-608D02*
Y-564D01*
X15594Y-654D02*
X15648D01*
Y-1164D02*
Y-654D01*
X15652Y-650D01*
X11915Y700D02*
X12252D01*
X12424Y528D01*
X12931D01*
X4644Y70D02*
X4789Y-75D01*
X3920Y70D02*
X4644D01*
X4789Y-75D02*
X5335D01*
X9705Y-863D02*
X10276D01*
X12397Y2076D02*
X13384D01*
X7028Y-1422D02*
X7224Y-1226D01*
X3985Y1490D02*
X4254D01*
X4815Y318D02*
X5335D01*
X3986Y1020D02*
X4036Y970D01*
X3985D02*
X4036D01*
X1614Y256D02*
X2016D01*
X4280Y-315D02*
X4599D01*
X4950Y-666D01*
X4714Y420D02*
X4815Y318D01*
X4582Y712D02*
X5335D01*
X8603Y-2710D02*
Y-1280D01*
X3988Y2100D02*
X4084D01*
X4344Y1700D02*
Y1840D01*
X4084Y2100D02*
X4344Y1840D01*
X6241Y2405D02*
Y2927D01*
X7050Y2990D02*
X7225Y2815D01*
X7422Y2405D02*
Y2990D01*
X7070Y-3680D02*
X7186Y-3796D01*
X8204Y-3510D02*
Y-3490D01*
X12586Y-3032D02*
X12694D01*
X12246Y-2776D02*
X12586D01*
X12235Y-3032D02*
X12586D01*
X12196Y-2726D02*
X12246Y-2776D01*
X11998Y-2794D02*
X12235Y-3032D01*
X14524Y-2716D02*
Y-1519D01*
X14879Y-1164D01*
X13242Y-1410D02*
X13438Y-1214D01*
Y-1105D01*
X13602Y-942D01*
X13795D01*
X11914Y-1264D02*
X12147D01*
X12294Y-1410D01*
X13242D01*
X11914Y-884D02*
X12107D01*
X12420Y-1196D01*
X12969D01*
X8740Y1696D02*
X9705D01*
Y1500D02*
X10228D01*
X14211Y2834D02*
X14526D01*
X14704Y2656D01*
X15159D01*
X14211Y2578D02*
X14505D01*
X14977Y2106D01*
X15069D01*
X12656Y2326D02*
X13038D01*
X13857Y518D02*
X14800D01*
X12444Y350D02*
X12504Y290D01*
X13246D01*
X13464Y508D01*
X9695Y-1060D02*
X10113D01*
X9524Y-2920D02*
Y-2040D01*
X10224Y-1340D01*
Y-1170D01*
X10113Y-1060D02*
X10224Y-1170D01*
X9705Y-666D02*
X10190D01*
X10276Y-753D01*
Y-863D02*
Y-753D01*
X7770Y3570D02*
X8525D01*
X6241Y2927D02*
X6564Y3250D01*
X7560D01*
X8603Y2930D02*
X8670D01*
X8603Y2395D02*
Y2930D01*
X12417Y2578D02*
X12694D01*
X8996Y2395D02*
X9369D01*
X9483Y2510D01*
X9705Y1696D02*
Y2320D01*
X10922Y3580D02*
X11012Y3490D01*
X11420D01*
X9260Y2790D02*
X9293Y2823D01*
X12173D01*
X11175Y2366D02*
Y2650D01*
X12094D01*
X12259Y2485D01*
X12173Y2823D02*
X12417Y2578D01*
X12266Y2981D02*
X12413Y2834D01*
X9660Y2981D02*
X12266D01*
X8130Y3190D02*
X8706D01*
X9525Y3250D02*
X9855Y3580D01*
X8990Y3250D02*
X9525D01*
X10525Y3580D02*
X10922D01*
D15*
X16587Y-2309D02*
X17147D01*
X8320Y-830D02*
Y70D01*
D18*
X1394Y-2349D02*
D03*
X1020D02*
D03*
X646D02*
D03*
X1394Y-3411D02*
D03*
X646D02*
D03*
X1020D02*
D03*
D19*
X3100Y-3443D02*
D03*
X2726Y-2557D02*
D03*
X3474D02*
D03*
D20*
X6044Y2405D02*
D03*
X6241D02*
D03*
X6437D02*
D03*
X6634D02*
D03*
X6831D02*
D03*
X7028D02*
D03*
X7225D02*
D03*
X7422D02*
D03*
X7619D02*
D03*
X7815D02*
D03*
X8012D02*
D03*
X8209D02*
D03*
X8406D02*
D03*
X8603D02*
D03*
X8800D02*
D03*
X8996D02*
D03*
Y-1965D02*
D03*
X8800D02*
D03*
X8603D02*
D03*
X8406D02*
D03*
X8209D02*
D03*
X8012D02*
D03*
X7815D02*
D03*
X7619D02*
D03*
X7422D02*
D03*
X7225D02*
D03*
X7028D02*
D03*
X6831D02*
D03*
X6634D02*
D03*
X6437D02*
D03*
X6241D02*
D03*
X6044D02*
D03*
D21*
X9705Y1696D02*
D03*
Y1500D02*
D03*
Y1303D02*
D03*
Y1106D02*
D03*
Y909D02*
D03*
Y712D02*
D03*
Y515D02*
D03*
Y318D02*
D03*
Y122D02*
D03*
Y-75D02*
D03*
Y-272D02*
D03*
Y-469D02*
D03*
Y-666D02*
D03*
Y-863D02*
D03*
Y-1060D02*
D03*
Y-1256D02*
D03*
X5335D02*
D03*
Y-1060D02*
D03*
Y-863D02*
D03*
Y-666D02*
D03*
Y-469D02*
D03*
Y-272D02*
D03*
Y-75D02*
D03*
Y122D02*
D03*
Y318D02*
D03*
Y515D02*
D03*
Y712D02*
D03*
Y909D02*
D03*
Y1106D02*
D03*
Y1303D02*
D03*
Y1500D02*
D03*
Y1696D02*
D03*
D22*
X19571Y2072D02*
D03*
Y3548D02*
D03*
X17209D02*
D03*
Y2072D02*
D03*
D23*
X566Y1146D02*
D03*
Y-1146D02*
D03*
D24*
Y-330D02*
D03*
Y330D02*
D03*
D25*
X1614Y0D02*
D03*
Y-256D02*
D03*
Y-512D02*
D03*
Y512D02*
D03*
Y256D02*
D03*
D26*
X1472Y-969D02*
D03*
Y969D02*
D03*
D27*
X7695Y3590D02*
D03*
X7025D02*
D03*
X19095Y-2944D02*
D03*
X19765D02*
D03*
X9809Y2340D02*
D03*
X10478D02*
D03*
X13079Y1626D02*
D03*
X13748D02*
D03*
X13577Y-150D02*
D03*
X14246D02*
D03*
X13429Y3600D02*
D03*
X14098D02*
D03*
X3317Y1020D02*
D03*
X3986D02*
D03*
X4155Y2910D02*
D03*
X4825D02*
D03*
X12729Y-1954D02*
D03*
X13398D02*
D03*
X4157Y3550D02*
D03*
X4827D02*
D03*
X779Y2260D02*
D03*
X1448D02*
D03*
X2319Y2780D02*
D03*
X2988D02*
D03*
X9165Y3590D02*
D03*
X8495D02*
D03*
X11780Y2340D02*
D03*
X11111D02*
D03*
X11780Y1620D02*
D03*
X11111D02*
D03*
X10525Y3580D02*
D03*
X9855D02*
D03*
X15828Y2650D02*
D03*
X15159D02*
D03*
X15828Y3280D02*
D03*
X15159D02*
D03*
X15548Y470D02*
D03*
X14879D02*
D03*
X15548Y1136D02*
D03*
X14879D02*
D03*
X15548Y-1240D02*
D03*
X14879D02*
D03*
X15548Y-564D02*
D03*
X14879D02*
D03*
X3988Y1560D02*
D03*
X3319D02*
D03*
X3988Y2100D02*
D03*
X3319D02*
D03*
X6450Y3590D02*
D03*
X5781D02*
D03*
X15828Y2016D02*
D03*
X15159D02*
D03*
X15548Y-3074D02*
D03*
X14879D02*
D03*
X12045Y20D02*
D03*
X11375D02*
D03*
X12045Y700D02*
D03*
X11375D02*
D03*
X19765Y-2344D02*
D03*
X19095D02*
D03*
X15548Y-2400D02*
D03*
X14879D02*
D03*
D28*
X3028Y3580D02*
D03*
X2280D02*
D03*
D29*
X8724Y-3425D02*
D03*
Y-2755D02*
D03*
X4354Y-985D02*
D03*
Y-315D02*
D03*
X18357Y-2978D02*
D03*
Y-2309D02*
D03*
X16557Y-2978D02*
D03*
Y-2309D02*
D03*
X4310Y-3527D02*
D03*
Y-2857D02*
D03*
X2704Y-985D02*
D03*
Y-315D02*
D03*
X1970Y-3115D02*
D03*
Y-2445D02*
D03*
X3254Y-315D02*
D03*
Y-985D02*
D03*
X3804Y-315D02*
D03*
Y-985D02*
D03*
X17757Y-2309D02*
D03*
Y-2978D02*
D03*
X17157Y-2309D02*
D03*
Y-2978D02*
D03*
D30*
X12656Y3094D02*
D03*
Y2838D02*
D03*
Y2582D02*
D03*
Y2326D02*
D03*
X14211Y3094D02*
D03*
Y2838D02*
D03*
Y2582D02*
D03*
Y2326D02*
D03*
X12586Y-2520D02*
D03*
Y-2776D02*
D03*
Y-3032D02*
D03*
Y-3288D02*
D03*
X14141Y-2520D02*
D03*
Y-2776D02*
D03*
Y-3032D02*
D03*
Y-3288D02*
D03*
D31*
X19157Y-544D02*
D03*
Y-800D02*
D03*
Y-1056D02*
D03*
X20043D02*
D03*
Y-800D02*
D03*
Y-544D02*
D03*
X12969Y-684D02*
D03*
Y-940D02*
D03*
Y-1196D02*
D03*
X13855D02*
D03*
Y-940D02*
D03*
Y-684D02*
D03*
X12971Y1029D02*
D03*
Y773D02*
D03*
Y518D02*
D03*
X13857D02*
D03*
Y773D02*
D03*
Y1029D02*
D03*
D56*
X646Y-2349D02*
X650Y-2344D01*
Y-1950D01*
X2736Y-2547D02*
Y-1680D01*
X14314Y1029D02*
Y1030D01*
Y986D02*
Y1029D01*
X17787Y-2280D02*
X17847Y-2340D01*
X18357D01*
X14107Y3090D02*
X14698D01*
X14107D02*
Y3415D01*
X5749Y2069D02*
Y2411D01*
Y2069D02*
X6134Y1684D01*
X5560Y2600D02*
X5749Y2411D01*
X4975Y2842D02*
X5217Y2600D01*
X4907Y2910D02*
X4975Y2842D01*
Y3698D01*
X5217Y2600D02*
X5560D01*
X4825Y2910D02*
X4907D01*
X2100Y621D02*
Y2600D01*
X2169Y2669D01*
X1984Y506D02*
X2100Y621D01*
X1617Y506D02*
X1984D01*
X2864Y2304D02*
Y2616D01*
X2380Y1820D02*
X2864Y2304D01*
X12324Y3470D02*
X12516D01*
X1394Y-2369D02*
X1807D01*
X14644Y3076D02*
X14684D01*
X14134Y-2512D02*
Y-2184D01*
X643Y-3320D02*
X646Y-3323D01*
X19765Y-2864D02*
Y-2304D01*
X14246Y-220D02*
X14312Y-285D01*
X3033Y2686D02*
Y3570D01*
X12981Y1090D02*
Y1466D01*
X12514Y1628D02*
X13015D01*
X12586Y-2520D02*
Y-2069D01*
X12284Y-2054D02*
X12679D01*
X14312Y-686D02*
Y-684D01*
Y-285D01*
X14684Y3076D02*
X14698Y3090D01*
X350Y-3450D02*
X646D01*
X1394Y-2369D02*
Y-1950D01*
X1403Y-3440D02*
X1543Y-3580D01*
X4827Y3550D02*
X4975Y3698D01*
X5217Y3940D01*
X12514Y-414D02*
X12784Y-684D01*
X12969D01*
X2736Y-1680D02*
Y-1017D01*
X2704Y-985D02*
X2736Y-1017D01*
X12656Y3094D02*
Y3330D01*
X12516Y3470D02*
X12656Y3330D01*
Y3090D02*
X12694D01*
X5217Y3940D02*
X11854D01*
X12324Y3470D01*
X1543Y-3580D02*
X1553Y-3570D01*
X1670D01*
D57*
X3100Y-3563D02*
X3650D01*
X4202D01*
D58*
X18357Y-2309D02*
Y-1497D01*
X15828Y2650D02*
X15852Y2626D01*
X15828Y2650D02*
Y3280D01*
D59*
X14312Y-684D02*
X14863D01*
X14314Y1029D02*
X14782D01*
X13857D02*
X14314D01*
X13855Y-684D02*
X14312D01*
X14863D02*
X14877Y-670D01*
D60*
X1020Y-2723D02*
D03*
D61*
X1020Y-2880D02*
D03*
D62*
X20770Y2250D02*
D03*
X21270D02*
D03*
X20770Y1750D02*
D03*
X21270D02*
D03*
X20770Y1250D02*
D03*
X21270D02*
D03*
X20770Y-250D02*
D03*
X21270D02*
D03*
X20770Y-750D02*
D03*
Y-1250D02*
D03*
X21270D02*
D03*
X20770Y-1750D02*
D03*
X21270D02*
D03*
X20770Y-2250D02*
D03*
X7570Y-3480D02*
D03*
X7070Y-2980D02*
D03*
Y-3480D02*
D03*
X6570Y-2980D02*
D03*
Y-3480D02*
D03*
X6070D02*
D03*
X5570Y-2980D02*
D03*
Y-3480D02*
D03*
D63*
X21270Y-2250D02*
D03*
D64*
X3524Y-1710D02*
D03*
X2736D02*
D03*
D65*
X4311D02*
D03*
D66*
X10394Y-3250D02*
D03*
X10394Y-1760D02*
D03*
D67*
X7570Y-2980D02*
D03*
D68*
X18300Y561D02*
D03*
Y-1439D02*
D03*
X17300D02*
D03*
D69*
X18300Y-439D02*
D03*
X17300D02*
D03*
D70*
Y561D02*
D03*
D71*
X902Y-2880D02*
D03*
X1138D02*
D03*
D72*
X3100Y-2550D02*
D03*
X19150Y-1350D02*
D03*
X3841Y-2944D02*
D03*
X3650Y-3563D02*
D03*
X3100Y-2957D02*
D03*
X3850Y-2560D02*
D03*
X2380Y-2566D02*
D03*
X2400Y-2957D02*
D03*
X20770Y753D02*
D03*
X19843D02*
D03*
X19150Y750D02*
D03*
Y250D02*
D03*
X19850D02*
D03*
X18700Y-3527D02*
D03*
X17157Y-3453D02*
D03*
X16600Y-1000D02*
D03*
X18307Y1486D02*
D03*
X9470Y-1590D02*
D03*
X9030Y-340D02*
D03*
X6710Y2990D02*
D03*
X9250Y2760D02*
D03*
X8100Y3570D02*
D03*
X5110Y2040D02*
D03*
X5460D02*
D03*
X2380Y250D02*
D03*
Y1230D02*
D03*
Y1820D02*
D03*
X4770Y1210D02*
D03*
X10280Y290D02*
D03*
X10620Y300D02*
D03*
X12950Y3610D02*
D03*
X11440Y1140D02*
D03*
X4950Y2410D02*
D03*
X6820Y1830D02*
D03*
X6100Y1070D02*
D03*
X13154Y2330D02*
D03*
X12324Y3470D02*
D03*
X9524Y-2920D02*
D03*
X10691Y1200D02*
D03*
X12220Y1160D02*
D03*
X8414Y1410D02*
D03*
X350Y-3450D02*
D03*
X2114Y-520D02*
D03*
X1140Y-470D02*
D03*
X14644Y3076D02*
D03*
X14134Y-2184D02*
D03*
X15564Y-50D02*
D03*
X1020Y-1950D02*
D03*
X12170Y-380D02*
D03*
X11914Y-884D02*
D03*
X8980Y-1200D02*
D03*
X5544Y-1610D02*
D03*
X14874Y-60D02*
D03*
X13114Y-3040D02*
D03*
X16040Y-2660D02*
D03*
X20700Y-3600D02*
D03*
X11080Y-2490D02*
D03*
X13800Y2050D02*
D03*
X3600Y2880D02*
D03*
X11934Y-1770D02*
D03*
X650Y-1950D02*
D03*
X1710Y1680D02*
D03*
X16376Y-1410D02*
D03*
X13414Y3120D02*
D03*
X12514Y-414D02*
D03*
X11914Y-1264D02*
D03*
X13012Y-220D02*
D03*
X13854Y-1474D02*
D03*
X14312Y-686D02*
D03*
X14314Y1580D02*
D03*
X16254Y-70D02*
D03*
X16164Y1440D02*
D03*
X4750Y-3200D02*
D03*
X13394Y996D02*
D03*
X14980Y1580D02*
D03*
X11710Y-2720D02*
D03*
X9890Y-2130D02*
D03*
X11510Y-380D02*
D03*
X12284Y-2054D02*
D03*
X20770Y256D02*
D03*
X19821Y1500D02*
D03*
X1394Y-1950D02*
D03*
X12514Y1626D02*
D03*
X8320Y-830D02*
D03*
Y70D02*
D03*
X6650Y-880D02*
D03*
X8274Y-2600D02*
D03*
X11904Y-3760D02*
D03*
X16030Y-3770D02*
D03*
X3620Y3720D02*
D03*
X5330Y2940D02*
D03*
X7224Y-1226D02*
D03*
X4714Y430D02*
D03*
X4084Y480D02*
D03*
X3504Y460D02*
D03*
X4764Y-1110D02*
D03*
X7424Y2990D02*
D03*
X5344Y3650D02*
D03*
X1204D02*
D03*
X1224Y2860D02*
D03*
X8204Y-3490D02*
D03*
X1144Y430D02*
D03*
X5554Y-2220D02*
D03*
X13394Y-2450D02*
D03*
X15394Y-1680D02*
D03*
X13392Y-790D02*
D03*
X14724Y3710D02*
D03*
X17300Y1466D02*
D03*
X14314Y1030D02*
D03*
X9260Y-3760D02*
D03*
X11420Y3490D02*
D03*
X11690Y3250D02*
D03*
X11140Y3240D02*
D03*
X8130Y3190D02*
D03*
X10450Y1440D02*
D03*
X11070Y-2830D02*
D03*
X13190Y-3760D02*
D03*
X14490Y-3760D02*
D03*
X2380Y-3870D02*
D03*
X3100D02*
D03*
X4750D02*
D03*
X1670Y-3570D02*
D03*
M02*
