G04*
G04 #@! TF.GenerationSoftware,Altium Limited,Altium Designer,18.1.6 (161)*
G04*
G04 Layer_Physical_Order=2*
G04 Layer_Color=16711680*
%FSLAX24Y24*%
%MOIN*%
G70*
G01*
G75*
%ADD11C,0.0098*%
%ADD56C,0.0157*%
%ADD62C,0.0551*%
%ADD63C,0.0472*%
%ADD64R,0.0472X0.0472*%
%ADD65R,0.0394X0.0394*%
%ADD66C,0.0394*%
%ADD67R,0.0394X0.0394*%
%ADD68O,0.0620X0.0550*%
%ADD69R,0.0620X0.0550*%
%ADD70C,0.0270*%
%ADD71C,0.0315*%
G36*
X21989Y-4019D02*
X81D01*
Y4019D01*
X21989D01*
Y-4019D01*
D02*
G37*
%LPC*%
G36*
X6728Y3504D02*
X1036D01*
X993Y3495D01*
X957Y3471D01*
X271Y2785D01*
X247Y2749D01*
X239Y2706D01*
Y-3290D01*
X209Y-3309D01*
X166Y-3374D01*
X151Y-3450D01*
X166Y-3526D01*
X209Y-3591D01*
X274Y-3634D01*
X350Y-3649D01*
X426Y-3634D01*
X491Y-3591D01*
X534Y-3526D01*
X549Y-3450D01*
X534Y-3374D01*
X491Y-3309D01*
X461Y-3290D01*
Y-2109D01*
X500Y-2094D01*
X511Y-2092D01*
X574Y-2134D01*
X650Y-2149D01*
X726Y-2134D01*
X791Y-2091D01*
X834Y-2026D01*
X849Y-1950D01*
X834Y-1874D01*
X791Y-1809D01*
X761Y-1790D01*
Y-1656D01*
X753Y-1614D01*
X729Y-1578D01*
X729Y-1578D01*
X640Y-1488D01*
Y2558D01*
X1184Y3103D01*
X6460D01*
X6521Y3041D01*
X6511Y2990D01*
X6526Y2914D01*
X6569Y2849D01*
X6634Y2806D01*
X6710Y2791D01*
X6761Y2801D01*
X6925Y2637D01*
X6925Y2637D01*
X6962Y2613D01*
X7004Y2604D01*
X7656D01*
X7698Y2613D01*
X7735Y2637D01*
X8096Y2998D01*
X8130Y2991D01*
X8206Y3006D01*
X8271Y3049D01*
X8314Y3114D01*
X8329Y3190D01*
X8314Y3266D01*
X8271Y3331D01*
X8206Y3374D01*
X8130Y3389D01*
X8054Y3374D01*
X7989Y3331D01*
X7946Y3266D01*
X7931Y3190D01*
X7938Y3156D01*
X7647Y2864D01*
X7635Y2866D01*
X7610Y2909D01*
X7609Y2920D01*
X7623Y2990D01*
X7607Y3066D01*
X7564Y3131D01*
X7500Y3174D01*
X7424Y3189D01*
X7348Y3174D01*
X7283Y3131D01*
X7264Y3101D01*
X7176D01*
X6807Y3471D01*
X6770Y3495D01*
X6728Y3504D01*
D02*
G37*
G36*
X9250Y2959D02*
X9174Y2944D01*
X9109Y2901D01*
X9066Y2836D01*
X9051Y2760D01*
X9058Y2726D01*
X8684Y2351D01*
X6750D01*
X6750Y2351D01*
X6707Y2343D01*
X6671Y2319D01*
X6504Y2151D01*
X5620D01*
X5601Y2181D01*
X5536Y2224D01*
X5460Y2239D01*
X5384Y2224D01*
X5319Y2181D01*
X5310Y2166D01*
X5260D01*
X5251Y2181D01*
X5186Y2224D01*
X5110Y2239D01*
X5034Y2224D01*
X4969Y2181D01*
X4926Y2116D01*
X4911Y2040D01*
X4926Y1964D01*
X4969Y1899D01*
X5034Y1856D01*
X5110Y1841D01*
X5148Y1849D01*
X5280Y1717D01*
X5316Y1693D01*
X5359Y1684D01*
X6408D01*
X6591Y1501D01*
X6627Y1477D01*
X6670Y1469D01*
X7000D01*
X7043Y1477D01*
X7079Y1501D01*
X7366Y1789D01*
X8624D01*
X10088Y324D01*
X10081Y290D01*
X10096Y214D01*
X10139Y149D01*
X10204Y106D01*
X10280Y91D01*
X10356Y106D01*
X10421Y149D01*
X10428Y161D01*
X10478D01*
X10479Y159D01*
X10544Y116D01*
X10620Y101D01*
X10696Y116D01*
X10761Y159D01*
X10804Y224D01*
X10819Y300D01*
X10804Y376D01*
X10761Y441D01*
X10696Y484D01*
X10620Y499D01*
X10586Y492D01*
X8929Y2149D01*
X8893Y2173D01*
X8891Y2173D01*
X8875Y2227D01*
X9216Y2568D01*
X9250Y2561D01*
X9326Y2576D01*
X9391Y2619D01*
X9434Y2684D01*
X9449Y2760D01*
X9434Y2836D01*
X9391Y2901D01*
X9326Y2944D01*
X9250Y2959D01*
D02*
G37*
G36*
X21320Y2502D02*
Y2300D01*
X21522D01*
X21520Y2317D01*
X21494Y2380D01*
X21453Y2433D01*
X21400Y2474D01*
X21337Y2500D01*
X21320Y2502D01*
D02*
G37*
G36*
X21522Y1200D02*
X21320D01*
Y998D01*
X21337Y1000D01*
X21400Y1026D01*
X21453Y1067D01*
X21494Y1120D01*
X21520Y1183D01*
X21522Y1200D01*
D02*
G37*
G36*
X20770Y2509D02*
X20703Y2500D01*
X20640Y2474D01*
X20587Y2433D01*
X20546Y2380D01*
X20520Y2317D01*
X20511Y2250D01*
X20520Y2183D01*
X20546Y2120D01*
X20587Y2067D01*
X20638Y2027D01*
X20642Y2001D01*
Y1999D01*
X20638Y1973D01*
X20587Y1933D01*
X20546Y1880D01*
X20520Y1817D01*
X20511Y1750D01*
X20520Y1683D01*
X20546Y1620D01*
X20587Y1567D01*
X20638Y1527D01*
X20642Y1501D01*
Y1499D01*
X20638Y1473D01*
X20587Y1433D01*
X20546Y1380D01*
X20520Y1317D01*
X20511Y1250D01*
X20520Y1183D01*
X20546Y1120D01*
X20587Y1067D01*
X20640Y1026D01*
X20703Y1000D01*
X20770Y991D01*
X20837Y1000D01*
X20900Y1026D01*
X20953Y1067D01*
X20993Y1118D01*
X21019Y1122D01*
X21021D01*
X21047Y1118D01*
X21087Y1067D01*
X21140Y1026D01*
X21203Y1000D01*
X21220Y998D01*
Y1250D01*
X21270D01*
Y1300D01*
X21522D01*
X21520Y1317D01*
X21494Y1380D01*
X21453Y1433D01*
X21402Y1473D01*
X21398Y1499D01*
Y1501D01*
X21402Y1527D01*
X21453Y1567D01*
X21494Y1620D01*
X21520Y1683D01*
X21522Y1700D01*
X21270D01*
Y1800D01*
X21522D01*
X21520Y1817D01*
X21494Y1880D01*
X21453Y1933D01*
X21402Y1973D01*
X21398Y1999D01*
Y2001D01*
X21402Y2027D01*
X21453Y2067D01*
X21494Y2120D01*
X21520Y2183D01*
X21522Y2200D01*
X21270D01*
Y2250D01*
X21220D01*
Y2502D01*
X21203Y2500D01*
X21140Y2474D01*
X21087Y2433D01*
X21047Y2382D01*
X21021Y2378D01*
X21019D01*
X20993Y2382D01*
X20953Y2433D01*
X20900Y2474D01*
X20837Y2500D01*
X20770Y2509D01*
D02*
G37*
G36*
X18350Y896D02*
Y611D01*
X18666D01*
X18661Y648D01*
X18628Y730D01*
X18574Y800D01*
X18504Y853D01*
X18422Y887D01*
X18350Y896D01*
D02*
G37*
G36*
X18250D02*
X18178Y887D01*
X18096Y853D01*
X18026Y800D01*
X17972Y730D01*
X17939Y648D01*
X17934Y611D01*
X18250D01*
Y896D01*
D02*
G37*
G36*
X11420Y3689D02*
X11344Y3674D01*
X11279Y3631D01*
X11236Y3566D01*
X11221Y3490D01*
X11236Y3414D01*
X11279Y3349D01*
X11309Y3330D01*
Y1740D01*
X11317Y1697D01*
X11341Y1661D01*
X11809Y1194D01*
Y318D01*
X11763Y299D01*
X10885Y1176D01*
X10890Y1200D01*
X10875Y1276D01*
X10832Y1341D01*
X10767Y1384D01*
X10691Y1399D01*
X10615Y1384D01*
X10550Y1341D01*
X10507Y1276D01*
X10492Y1200D01*
X10507Y1124D01*
X10550Y1059D01*
X10615Y1016D01*
X10691Y1001D01*
X10736Y1010D01*
X11650Y96D01*
Y-622D01*
X11581Y-691D01*
X11557Y-727D01*
X11548Y-770D01*
Y-1010D01*
X11557Y-1052D01*
X11581Y-1088D01*
X11722Y-1229D01*
X11715Y-1264D01*
X11730Y-1340D01*
X11773Y-1404D01*
X11838Y-1447D01*
X11914Y-1463D01*
X11990Y-1447D01*
X12054Y-1404D01*
X12097Y-1340D01*
X12113Y-1264D01*
X12097Y-1188D01*
X12054Y-1123D01*
X12025Y-1104D01*
Y-1044D01*
X12054Y-1024D01*
X12097Y-960D01*
X12113Y-884D01*
X12097Y-808D01*
X12054Y-743D01*
X12031Y-728D01*
Y1240D01*
X12031Y1240D01*
X12023Y1283D01*
X11999Y1319D01*
X11999Y1319D01*
X11531Y1786D01*
Y3330D01*
X11561Y3349D01*
X11604Y3414D01*
X11619Y3490D01*
X11604Y3566D01*
X11561Y3631D01*
X11496Y3674D01*
X11420Y3689D01*
D02*
G37*
G36*
X2380Y2019D02*
X2304Y2004D01*
X2239Y1961D01*
X2196Y1896D01*
X2181Y1820D01*
X2183Y1813D01*
X1618Y1248D01*
X1587Y1202D01*
X1576Y1148D01*
Y-1568D01*
X1393Y-1751D01*
X1318Y-1766D01*
X1254Y-1809D01*
X1210Y-1874D01*
X1195Y-1950D01*
X1210Y-2026D01*
X1254Y-2091D01*
X1318Y-2134D01*
X1394Y-2149D01*
X1470Y-2134D01*
X1535Y-2091D01*
X1578Y-2026D01*
X1593Y-1952D01*
X1818Y-1726D01*
X1849Y-1680D01*
X1859Y-1626D01*
Y1089D01*
X2394Y1624D01*
X2456Y1636D01*
X2521Y1679D01*
X2527Y1689D01*
X3255D01*
X4515Y428D01*
X4530Y354D01*
X4573Y289D01*
X4638Y246D01*
X4714Y231D01*
X4790Y246D01*
X4854Y289D01*
X4897Y354D01*
X4913Y430D01*
X4897Y506D01*
X4854Y571D01*
X4790Y614D01*
X4715Y629D01*
X3414Y1930D01*
X3368Y1961D01*
X3314Y1971D01*
X2504D01*
X2456Y2004D01*
X2380Y2019D01*
D02*
G37*
G36*
X18250Y511D02*
X17934D01*
X17939Y473D01*
X17972Y392D01*
X18026Y322D01*
X18096Y268D01*
X18178Y234D01*
X18250Y225D01*
Y511D01*
D02*
G37*
G36*
X18666D02*
X18350D01*
Y225D01*
X18422Y234D01*
X18504Y268D01*
X18574Y322D01*
X18628Y392D01*
X18661Y473D01*
X18666Y511D01*
D02*
G37*
G36*
X2380Y1429D02*
X2304Y1414D01*
X2239Y1371D01*
X2196Y1306D01*
X2181Y1230D01*
X2196Y1154D01*
X2239Y1089D01*
X2269Y1070D01*
Y410D01*
X2239Y391D01*
X2196Y326D01*
X2181Y250D01*
X2196Y174D01*
X2239Y109D01*
X2304Y66D01*
X2380Y51D01*
X2456Y66D01*
X2521Y109D01*
X2564Y174D01*
X2579Y250D01*
X2564Y326D01*
X2564Y326D01*
X2565Y334D01*
X2557Y377D01*
X2532Y413D01*
X2491Y454D01*
Y1070D01*
X2521Y1089D01*
X2564Y1154D01*
X2579Y1230D01*
X2564Y1306D01*
X2521Y1371D01*
X2456Y1414D01*
X2380Y1429D01*
D02*
G37*
G36*
X8414Y1609D02*
X8338Y1594D01*
X8273Y1551D01*
X8230Y1486D01*
X8215Y1410D01*
X8230Y1334D01*
X8273Y1269D01*
X8338Y1226D01*
X8414Y1211D01*
X8448Y1218D01*
X8919Y748D01*
Y-180D01*
X8889Y-199D01*
X8846Y-264D01*
X8831Y-340D01*
X8846Y-416D01*
X8889Y-481D01*
X8954Y-524D01*
X9030Y-539D01*
X9106Y-524D01*
X9171Y-481D01*
X9214Y-416D01*
X9229Y-340D01*
X9214Y-264D01*
X9171Y-199D01*
X9141Y-180D01*
Y794D01*
X9133Y836D01*
X9109Y872D01*
X9109Y872D01*
X8606Y1376D01*
X8613Y1410D01*
X8597Y1486D01*
X8554Y1551D01*
X8490Y1594D01*
X8414Y1609D01*
D02*
G37*
G36*
X17670Y896D02*
X16930D01*
Y348D01*
X16521Y-61D01*
X16497Y-97D01*
X16489Y-139D01*
Y-840D01*
X16459Y-859D01*
X16416Y-924D01*
X16401Y-1000D01*
X16416Y-1076D01*
X16459Y-1141D01*
X16524Y-1184D01*
X16600Y-1199D01*
X16676Y-1184D01*
X16741Y-1141D01*
X16784Y-1076D01*
X16799Y-1000D01*
X16784Y-924D01*
X16741Y-859D01*
X16711Y-840D01*
Y-186D01*
X17122Y226D01*
X17670D01*
Y896D01*
D02*
G37*
G36*
X21320Y-998D02*
Y-1200D01*
X21522D01*
X21520Y-1183D01*
X21494Y-1120D01*
X21453Y-1067D01*
X21400Y-1026D01*
X21337Y-1000D01*
X21320Y-998D01*
D02*
G37*
G36*
X2736Y-1411D02*
X2659Y-1421D01*
X2587Y-1451D01*
X2525Y-1499D01*
X2478Y-1561D01*
X2448Y-1633D01*
X2438Y-1710D01*
X2448Y-1787D01*
X2478Y-1859D01*
X2525Y-1921D01*
X2587Y-1969D01*
X2659Y-1999D01*
X2736Y-2009D01*
X2814Y-1999D01*
X2886Y-1969D01*
X2948Y-1921D01*
X2995Y-1859D01*
X3025Y-1787D01*
X3035Y-1710D01*
X3025Y-1633D01*
X2995Y-1561D01*
X2948Y-1499D01*
X2886Y-1451D01*
X2814Y-1421D01*
X2736Y-1411D01*
D02*
G37*
G36*
X10394Y-1422D02*
X10306Y-1433D01*
X10224Y-1467D01*
X10154Y-1521D01*
X10101Y-1591D01*
X10067Y-1672D01*
X10055Y-1760D01*
X10067Y-1848D01*
X10101Y-1929D01*
X10154Y-1999D01*
X10224Y-2053D01*
X10306Y-2087D01*
X10394Y-2098D01*
X10481Y-2087D01*
X10563Y-2053D01*
X10633Y-1999D01*
X10687Y-1929D01*
X10721Y-1848D01*
X10732Y-1760D01*
X10721Y-1672D01*
X10687Y-1591D01*
X10633Y-1521D01*
X10563Y-1467D01*
X10481Y-1433D01*
X10394Y-1422D01*
D02*
G37*
G36*
X12324Y3669D02*
X12248Y3654D01*
X12183Y3611D01*
X12140Y3546D01*
X12125Y3470D01*
X12140Y3394D01*
X12183Y3329D01*
X12248Y3286D01*
X12322Y3271D01*
X12379Y3215D01*
Y1771D01*
X12373Y1767D01*
X12330Y1702D01*
X12315Y1626D01*
X12330Y1550D01*
X12373Y1486D01*
X12379Y1482D01*
Y-269D01*
X12373Y-273D01*
X12330Y-338D01*
X12315Y-414D01*
X12330Y-490D01*
X12372Y-553D01*
Y-1765D01*
X12282Y-1855D01*
X12208Y-1870D01*
X12143Y-1913D01*
X12100Y-1978D01*
X12085Y-2054D01*
X12100Y-2130D01*
X12143Y-2194D01*
X12208Y-2237D01*
X12284Y-2253D01*
X12360Y-2237D01*
X12424Y-2194D01*
X12467Y-2130D01*
X12482Y-2055D01*
X12614Y-1924D01*
X12644Y-1878D01*
X12655Y-1824D01*
Y-553D01*
X12697Y-490D01*
X12713Y-414D01*
X12697Y-338D01*
X12662Y-284D01*
Y1497D01*
X12697Y1550D01*
X12713Y1626D01*
X12697Y1702D01*
X12662Y1756D01*
Y3274D01*
X12651Y3328D01*
X12620Y3374D01*
X12522Y3472D01*
X12507Y3546D01*
X12464Y3611D01*
X12400Y3654D01*
X12324Y3669D01*
D02*
G37*
G36*
X14644Y3275D02*
X14568Y3260D01*
X14503Y3217D01*
X14460Y3152D01*
X14445Y3076D01*
X14460Y3000D01*
X14503Y2936D01*
X14509Y2932D01*
Y1429D01*
X14307Y1228D01*
X14238Y1214D01*
X14173Y1171D01*
X14130Y1106D01*
X14115Y1030D01*
X14130Y954D01*
X14173Y889D01*
X14179Y886D01*
Y-541D01*
X14171Y-546D01*
X14128Y-610D01*
X14113Y-686D01*
X14128Y-762D01*
X14170Y-825D01*
Y-1370D01*
X14034Y-1506D01*
X14003Y-1552D01*
X13992Y-1606D01*
Y-2044D01*
X13950Y-2108D01*
X13935Y-2184D01*
X13950Y-2260D01*
X13993Y-2324D01*
X13982Y-2372D01*
X13745Y-2609D01*
X12282D01*
X10474Y-800D01*
X10428Y-769D01*
X10374Y-759D01*
X8952D01*
X8394Y-200D01*
X8348Y-169D01*
X8294Y-159D01*
X4270D01*
X4216Y-169D01*
X4170Y-200D01*
X3420Y-950D01*
X3389Y-996D01*
X3379Y-1050D01*
Y-1449D01*
X3374Y-1451D01*
X3312Y-1499D01*
X3265Y-1561D01*
X3235Y-1633D01*
X3225Y-1710D01*
X3235Y-1787D01*
X3265Y-1859D01*
X3312Y-1921D01*
X3374Y-1969D01*
X3446Y-1999D01*
X3524Y-2009D01*
X3601Y-1999D01*
X3673Y-1969D01*
X3735Y-1921D01*
X3782Y-1859D01*
X3812Y-1787D01*
X3822Y-1710D01*
X3812Y-1633D01*
X3782Y-1561D01*
X3735Y-1499D01*
X3673Y-1451D01*
X3662Y-1446D01*
Y-1109D01*
X4329Y-441D01*
X8235D01*
X8794Y-1000D01*
X8840Y-1031D01*
X8894Y-1041D01*
X10315D01*
X12124Y-2850D01*
X12170Y-2881D01*
X12224Y-2891D01*
X13804D01*
X13858Y-2881D01*
X13904Y-2850D01*
X14240Y-2514D01*
X14271Y-2468D01*
X14282Y-2414D01*
Y-2325D01*
X17516D01*
X17570Y-2314D01*
X17616Y-2284D01*
X17879Y-2021D01*
X19465D01*
X20264Y-2820D01*
X20310Y-2851D01*
X20364Y-2861D01*
X21114D01*
X21168Y-2851D01*
X21214Y-2820D01*
X21370Y-2664D01*
X21401Y-2618D01*
X21411Y-2564D01*
Y-2507D01*
X21527D01*
Y-1993D01*
X21457D01*
X21440Y-1943D01*
X21453Y-1933D01*
X21494Y-1880D01*
X21520Y-1817D01*
X21522Y-1800D01*
X21270D01*
Y-1700D01*
X21522D01*
X21520Y-1683D01*
X21494Y-1620D01*
X21453Y-1567D01*
X21402Y-1527D01*
X21398Y-1501D01*
Y-1499D01*
X21402Y-1473D01*
X21453Y-1433D01*
X21494Y-1380D01*
X21520Y-1317D01*
X21522Y-1300D01*
X21270D01*
Y-1250D01*
X21220D01*
Y-998D01*
X21203Y-1000D01*
X21140Y-1026D01*
X21087Y-1067D01*
X21047Y-1118D01*
X21021Y-1122D01*
X21019D01*
X20993Y-1118D01*
X20953Y-1067D01*
X20902Y-1027D01*
X20898Y-1001D01*
Y-999D01*
X20902Y-973D01*
X20953Y-933D01*
X20994Y-880D01*
X21020Y-817D01*
X21029Y-750D01*
X21020Y-683D01*
X20994Y-620D01*
X20953Y-567D01*
X20902Y-527D01*
X20898Y-501D01*
Y-499D01*
X20902Y-473D01*
X20953Y-433D01*
X20993Y-382D01*
X21019Y-378D01*
X21021D01*
X21047Y-382D01*
X21087Y-433D01*
X21140Y-474D01*
X21203Y-500D01*
X21270Y-509D01*
X21337Y-500D01*
X21400Y-474D01*
X21453Y-433D01*
X21494Y-380D01*
X21520Y-317D01*
X21529Y-250D01*
X21520Y-183D01*
X21494Y-120D01*
X21453Y-67D01*
X21400Y-26D01*
X21337Y0D01*
X21270Y9D01*
X21203Y0D01*
X21140Y-26D01*
X21087Y-67D01*
X21047Y-118D01*
X21021Y-122D01*
X21019D01*
X20993Y-118D01*
X20953Y-67D01*
X20900Y-26D01*
X20837Y0D01*
X20770Y9D01*
X20703Y0D01*
X20640Y-26D01*
X20587Y-67D01*
X20546Y-120D01*
X20520Y-183D01*
X20511Y-250D01*
X20515Y-278D01*
X20473Y-328D01*
X18651D01*
X18628Y-270D01*
X18574Y-200D01*
X18504Y-147D01*
X18422Y-113D01*
X18335Y-102D01*
X18265D01*
X18178Y-113D01*
X18096Y-147D01*
X18026Y-200D01*
X17972Y-270D01*
X17939Y-352D01*
X17927Y-439D01*
X17939Y-527D01*
X17972Y-608D01*
X18007Y-654D01*
X17986Y-709D01*
X17969Y-712D01*
X17669Y-412D01*
X17661Y-352D01*
X17628Y-270D01*
X17574Y-200D01*
X17504Y-147D01*
X17422Y-113D01*
X17335Y-102D01*
X17265D01*
X17178Y-113D01*
X17096Y-147D01*
X17026Y-200D01*
X16972Y-270D01*
X16939Y-352D01*
X16927Y-439D01*
X16939Y-527D01*
X16972Y-608D01*
X17026Y-678D01*
X17096Y-732D01*
X17178Y-766D01*
X17265Y-777D01*
X17335D01*
X17422Y-766D01*
X17504Y-732D01*
X17574Y-678D01*
X17618Y-675D01*
X17785Y-842D01*
X17766Y-889D01*
X17739D01*
X17697Y-897D01*
X17661Y-921D01*
X17455Y-1127D01*
X17422Y-1113D01*
X17335Y-1102D01*
X17265D01*
X17178Y-1113D01*
X17096Y-1147D01*
X17026Y-1200D01*
X16972Y-1270D01*
X16939Y-1352D01*
X16927Y-1439D01*
X16939Y-1527D01*
X16972Y-1608D01*
X17026Y-1678D01*
X17096Y-1732D01*
X17178Y-1766D01*
X17265Y-1777D01*
X17335D01*
X17422Y-1766D01*
X17504Y-1732D01*
X17574Y-1678D01*
X17628Y-1608D01*
X17661Y-1527D01*
X17673Y-1439D01*
X17661Y-1352D01*
X17628Y-1270D01*
X17627Y-1270D01*
X17786Y-1111D01*
X18060D01*
X18077Y-1161D01*
X18026Y-1200D01*
X17972Y-1270D01*
X17939Y-1352D01*
X17927Y-1439D01*
X17939Y-1527D01*
X17972Y-1608D01*
X18026Y-1678D01*
X18039Y-1689D01*
X18022Y-1739D01*
X17820D01*
X17766Y-1749D01*
X17720Y-1780D01*
X17458Y-2042D01*
X14275D01*
Y-1665D01*
X14412Y-1528D01*
X14442Y-1482D01*
X14453Y-1428D01*
Y-825D01*
X14496Y-762D01*
X14511Y-686D01*
X14496Y-610D01*
X14462Y-559D01*
Y900D01*
X14497Y954D01*
X14513Y1030D01*
X14512Y1032D01*
X14750Y1270D01*
X14781Y1316D01*
X14792Y1370D01*
Y2947D01*
X14827Y3000D01*
X14843Y3076D01*
X14827Y3152D01*
X14784Y3217D01*
X14720Y3260D01*
X14644Y3275D01*
D02*
G37*
G36*
X6650Y-681D02*
X6574Y-696D01*
X6509Y-739D01*
X6466Y-804D01*
X6451Y-880D01*
X6466Y-956D01*
X6509Y-1019D01*
Y-1406D01*
X6519Y-1461D01*
X6550Y-1506D01*
X7429Y-2385D01*
Y-2723D01*
X7313D01*
Y-2793D01*
X7263Y-2810D01*
X7253Y-2797D01*
X7200Y-2756D01*
X7137Y-2730D01*
X7120Y-2728D01*
Y-2980D01*
X7020D01*
Y-2728D01*
X7003Y-2730D01*
X6941Y-2756D01*
X6887Y-2797D01*
X6848Y-2848D01*
X6821Y-2852D01*
X6820D01*
X6793Y-2848D01*
X6753Y-2797D01*
X6700Y-2756D01*
X6637Y-2730D01*
X6620Y-2728D01*
Y-2980D01*
X6570D01*
Y-3030D01*
X6318D01*
X6320Y-3047D01*
X6346Y-3110D01*
X6387Y-3163D01*
X6438Y-3203D01*
X6442Y-3229D01*
Y-3231D01*
X6438Y-3257D01*
X6387Y-3297D01*
X6348Y-3348D01*
X6321Y-3352D01*
X6320D01*
X6293Y-3348D01*
X6253Y-3297D01*
X6200Y-3256D01*
X6137Y-3230D01*
X6070Y-3221D01*
X6003Y-3230D01*
X5941Y-3256D01*
X5887Y-3297D01*
X5848Y-3348D01*
X5821Y-3352D01*
X5820D01*
X5793Y-3348D01*
X5753Y-3297D01*
X5702Y-3257D01*
X5698Y-3231D01*
Y-3229D01*
X5702Y-3203D01*
X5753Y-3163D01*
X5794Y-3110D01*
X5820Y-3047D01*
X5823Y-3030D01*
X5570D01*
X5318D01*
X5320Y-3047D01*
X5346Y-3110D01*
X5387Y-3163D01*
X5438Y-3203D01*
X5442Y-3229D01*
Y-3231D01*
X5438Y-3257D01*
X5387Y-3297D01*
X5346Y-3350D01*
X5320Y-3413D01*
X5311Y-3480D01*
X5320Y-3547D01*
X5346Y-3610D01*
X5387Y-3663D01*
X5441Y-3704D01*
X5466Y-3715D01*
X5467Y-3723D01*
X5491Y-3759D01*
X5611Y-3879D01*
X5647Y-3903D01*
X5690Y-3911D01*
X8644D01*
X8686Y-3903D01*
X8722Y-3879D01*
X9489Y-3112D01*
X9524Y-3119D01*
X9600Y-3104D01*
X9664Y-3061D01*
X9707Y-2996D01*
X9723Y-2920D01*
X9707Y-2844D01*
X9664Y-2779D01*
X9600Y-2736D01*
X9524Y-2721D01*
X9448Y-2736D01*
X9383Y-2779D01*
X9340Y-2844D01*
X9325Y-2920D01*
X9332Y-2954D01*
X8598Y-3689D01*
X8347D01*
X8332Y-3639D01*
X8344Y-3631D01*
X8387Y-3566D01*
X8403Y-3490D01*
X8387Y-3414D01*
X8344Y-3349D01*
X8280Y-3306D01*
X8204Y-3291D01*
X8169Y-3298D01*
X8065Y-3194D01*
Y-2420D01*
X8057Y-2377D01*
X8032Y-2341D01*
X7335Y-1644D01*
Y-1387D01*
X7364Y-1367D01*
X7407Y-1302D01*
X7423Y-1226D01*
X7407Y-1150D01*
X7364Y-1086D01*
X7300Y-1043D01*
X7224Y-1028D01*
X7148Y-1043D01*
X7083Y-1086D01*
X7040Y-1150D01*
X7025Y-1226D01*
X7040Y-1302D01*
X7083Y-1367D01*
X7112Y-1387D01*
Y-1603D01*
X7066Y-1622D01*
X6792Y-1348D01*
Y-1019D01*
X6834Y-956D01*
X6849Y-880D01*
X6834Y-804D01*
X6791Y-739D01*
X6726Y-696D01*
X6650Y-681D01*
D02*
G37*
G36*
X5620Y-2728D02*
Y-2930D01*
X5823D01*
X5820Y-2913D01*
X5794Y-2850D01*
X5753Y-2797D01*
X5700Y-2756D01*
X5637Y-2730D01*
X5620Y-2728D01*
D02*
G37*
G36*
X5520D02*
X5503Y-2730D01*
X5441Y-2756D01*
X5387Y-2797D01*
X5346Y-2850D01*
X5320Y-2913D01*
X5318Y-2930D01*
X5520D01*
Y-2728D01*
D02*
G37*
G36*
X6520D02*
X6503Y-2730D01*
X6441Y-2756D01*
X6387Y-2797D01*
X6346Y-2850D01*
X6320Y-2913D01*
X6318Y-2930D01*
X6520D01*
Y-2728D01*
D02*
G37*
G36*
X10444Y-2918D02*
Y-3200D01*
X10726D01*
X10721Y-3162D01*
X10687Y-3081D01*
X10633Y-3011D01*
X10563Y-2957D01*
X10481Y-2923D01*
X10444Y-2918D01*
D02*
G37*
G36*
X10344D02*
X10306Y-2923D01*
X10224Y-2957D01*
X10154Y-3011D01*
X10101Y-3081D01*
X10067Y-3162D01*
X10062Y-3200D01*
X10344D01*
Y-2918D01*
D02*
G37*
G36*
X4607Y-1414D02*
X4015D01*
Y-2006D01*
X4166D01*
Y-3143D01*
X3888Y-3421D01*
X3699D01*
X3636Y-3379D01*
X3560Y-3364D01*
X3484Y-3379D01*
X3419Y-3422D01*
X3413Y-3432D01*
X1813D01*
X1811Y-3429D01*
X1746Y-3386D01*
X1670Y-3371D01*
X1594Y-3386D01*
X1529Y-3429D01*
X1486Y-3494D01*
X1471Y-3570D01*
X1486Y-3646D01*
X1529Y-3711D01*
X1594Y-3754D01*
X1670Y-3769D01*
X1746Y-3754D01*
X1804Y-3715D01*
X3437D01*
X3484Y-3746D01*
X3560Y-3762D01*
X3636Y-3746D01*
X3699Y-3704D01*
X3946D01*
X4001Y-3693D01*
X4046Y-3663D01*
X4408Y-3302D01*
X4438Y-3256D01*
X4449Y-3202D01*
Y-2006D01*
X4607D01*
Y-1414D01*
D02*
G37*
G36*
X10726Y-3300D02*
X10444D01*
Y-3582D01*
X10481Y-3577D01*
X10563Y-3543D01*
X10633Y-3489D01*
X10687Y-3419D01*
X10721Y-3338D01*
X10726Y-3300D01*
D02*
G37*
G36*
X10344D02*
X10062D01*
X10067Y-3338D01*
X10101Y-3419D01*
X10154Y-3489D01*
X10224Y-3543D01*
X10306Y-3577D01*
X10344Y-3582D01*
Y-3300D01*
D02*
G37*
G36*
X11080Y-2291D02*
X11004Y-2306D01*
X10939Y-2349D01*
X10896Y-2414D01*
X10881Y-2490D01*
X10896Y-2566D01*
X10939Y-2631D01*
X10941Y-2632D01*
Y-2682D01*
X10929Y-2689D01*
X10886Y-2754D01*
X10871Y-2830D01*
X10886Y-2906D01*
X10929Y-2971D01*
X10994Y-3014D01*
X11070Y-3029D01*
X11104Y-3022D01*
X11651Y-3569D01*
X11687Y-3593D01*
X11730Y-3601D01*
X17029D01*
X17081Y-3636D01*
X17157Y-3651D01*
X17233Y-3636D01*
X17298Y-3593D01*
X17341Y-3529D01*
X17356Y-3453D01*
X17341Y-3377D01*
X17331Y-3361D01*
X17358Y-3311D01*
X17754D01*
X18048Y-3605D01*
X18084Y-3629D01*
X18127Y-3638D01*
X18540D01*
X18559Y-3667D01*
X18624Y-3710D01*
X18700Y-3725D01*
X18776Y-3710D01*
X18841Y-3667D01*
X18884Y-3603D01*
X18899Y-3527D01*
X18884Y-3450D01*
X18841Y-3386D01*
X18776Y-3343D01*
X18700Y-3328D01*
X18624Y-3343D01*
X18559Y-3386D01*
X18540Y-3415D01*
X18173D01*
X17879Y-3121D01*
X17843Y-3097D01*
X17800Y-3089D01*
X16674D01*
X16631Y-3097D01*
X16595Y-3121D01*
X16595Y-3121D01*
X16518Y-3199D01*
X11946D01*
X11272Y-2524D01*
X11279Y-2490D01*
X11264Y-2414D01*
X11221Y-2349D01*
X11156Y-2306D01*
X11080Y-2291D01*
D02*
G37*
%LPD*%
D11*
X20266Y-2250D02*
X20770D01*
X19498Y-1482D02*
X20266Y-2250D01*
X19157Y-1482D02*
X19498D01*
X20047Y-750D02*
X20770D01*
X19956Y-842D02*
X20047Y-750D01*
X17942Y-842D02*
X19956D01*
X20750Y-1250D02*
X20770Y-1230D01*
X20150Y-1250D02*
X20750D01*
X19900Y-1000D02*
X20150Y-1250D01*
X17739Y-1000D02*
X19900D01*
X16674Y-3200D02*
X17800D01*
X18127Y-3527D02*
X18700D01*
X17800Y-3200D02*
X18127Y-3527D01*
X20581Y-439D02*
X20770Y-250D01*
X18300Y-439D02*
X20581D01*
X16564Y-3310D02*
X16674Y-3200D01*
X11730Y-3490D02*
X17120D01*
X17157Y-3453D01*
X16600Y-1000D02*
Y-139D01*
X17300Y561D01*
X17539Y-439D02*
X17942Y-842D01*
X17300Y-439D02*
X17539D01*
X17300Y-1439D02*
X17739Y-1000D01*
X9030Y-340D02*
Y794D01*
X8414Y1410D02*
X9030Y794D01*
X8730Y2240D02*
X9250Y2760D01*
X5359Y1796D02*
X6454D01*
X5115Y2040D02*
X5359Y1796D01*
X5110Y2040D02*
X5115D01*
X5460D02*
X6550D01*
X2380Y408D02*
Y1230D01*
Y408D02*
X2454Y334D01*
X7060Y2070D02*
X8850D01*
X10620Y300D01*
X8670Y1900D02*
X10280Y290D01*
X7320Y1900D02*
X8670D01*
X6454Y1796D02*
X6670Y1580D01*
X7000D01*
X6550Y2040D02*
X6750Y2240D01*
X7000Y1580D02*
X7320Y1900D01*
X6820Y1830D02*
X7060Y2070D01*
X5690Y-3800D02*
X8644D01*
X9524Y-2920D01*
X7954Y-3240D02*
Y-2420D01*
X7224Y-1690D02*
X7954Y-2420D01*
X7224Y-1690D02*
Y-1226D01*
X11920Y-770D02*
Y1240D01*
X5570Y-3680D02*
Y-3480D01*
X20750Y-1250D02*
X20770D01*
X5570Y-3680D02*
X5690Y-3800D01*
X7954Y-3240D02*
X8204Y-3490D01*
X650Y-1950D02*
Y-1656D01*
X11900Y-3310D02*
X16564D01*
X11660Y-1010D02*
X11914Y-1264D01*
X350Y-3450D02*
Y2706D01*
X1036Y3392D01*
X528Y-1534D02*
X650Y-1656D01*
X528Y-1534D02*
Y2604D01*
X1138Y3214D01*
X6750Y2240D02*
X8730D01*
X7656Y2716D02*
X8130Y3190D01*
X1138Y3214D02*
X6506D01*
X7004Y2716D01*
X7656D01*
X1036Y3392D02*
X6728D01*
X7130Y2990D01*
X7424D01*
X11420Y1740D02*
X11920Y1240D01*
X11420Y1740D02*
Y3490D01*
X11762Y-668D02*
Y142D01*
X11660Y-770D02*
X11762Y-668D01*
X10697Y1206D02*
X11762Y142D01*
X11660Y-1010D02*
Y-770D01*
X11080Y-2490D02*
X11900Y-3310D01*
X11070Y-2830D02*
X11730Y-3490D01*
D56*
X18300Y-1880D02*
X19524D01*
X17820D02*
X18300D01*
Y-1439D01*
X14650Y1370D02*
Y3120D01*
X14320Y-686D02*
Y1040D01*
X21270Y-2250D02*
Y-2230D01*
Y-2564D02*
Y-2250D01*
X14140Y-2414D02*
Y-2184D01*
X3520Y-1730D02*
Y-1050D01*
X17516Y-2184D02*
X17820Y-1880D01*
X14140Y-2184D02*
X17516D01*
X10374Y-900D02*
X12224Y-2750D01*
X8894Y-900D02*
X10374D01*
X8294Y-300D02*
X8894Y-900D01*
X2400Y1830D02*
X3314D01*
X1718Y1148D02*
X2400Y1830D01*
X1718Y-1626D02*
Y1148D01*
X7570Y-2980D02*
Y-2326D01*
X6650Y-1406D02*
X7570Y-2326D01*
X6650Y-1406D02*
Y-880D01*
X4270Y-300D02*
X8294D01*
X20364Y-2720D02*
X21114D01*
X21270Y-2564D01*
X19524Y-1880D02*
X20364Y-2720D01*
X3520Y-1050D02*
X4270Y-300D01*
X3314Y1830D02*
X4714Y430D01*
X12224Y-2750D02*
X13804D01*
X14140Y-2414D01*
X12284Y-2054D02*
X12514Y-1824D01*
Y-414D01*
Y-344D01*
X14134Y-2184D02*
X14140D01*
X14312Y-1428D02*
Y-686D01*
X14134Y-2184D02*
Y-1606D01*
X14312Y-1428D01*
X14320Y1040D02*
X14650Y1370D01*
X12324Y3470D02*
X12520Y3274D01*
Y-344D02*
Y3274D01*
X1394Y-1950D02*
X1718Y-1626D01*
X3946Y-3563D02*
X4307Y-3202D01*
X3560Y-3563D02*
X3946D01*
X4307Y-3202D02*
Y-1730D01*
X3549Y-3574D02*
X3560Y-3563D01*
X1674Y-3574D02*
X3549D01*
X1670Y-3574D02*
X1670Y-3583D01*
X1670Y-3570D02*
X1670Y-3574D01*
X1670Y-3560D02*
X1670Y-3570D01*
D62*
X10394Y-1760D02*
D03*
X10394Y-3250D02*
D03*
D63*
X2736Y-1710D02*
D03*
X3524D02*
D03*
D64*
X4311D02*
D03*
D65*
X7570Y-2980D02*
D03*
D66*
Y-3480D02*
D03*
X7070Y-2980D02*
D03*
Y-3480D02*
D03*
X6570Y-2980D02*
D03*
Y-3480D02*
D03*
X6070D02*
D03*
X5570Y-2980D02*
D03*
Y-3480D02*
D03*
X20770Y2250D02*
D03*
X21270D02*
D03*
X20770Y1750D02*
D03*
X21270D02*
D03*
X20770Y1250D02*
D03*
X21270D02*
D03*
X20770Y-250D02*
D03*
X21270D02*
D03*
X20770Y-750D02*
D03*
Y-1250D02*
D03*
X21270D02*
D03*
X20770Y-1750D02*
D03*
X21270D02*
D03*
X20770Y-2250D02*
D03*
D67*
X21270D02*
D03*
D68*
X18300Y561D02*
D03*
Y-439D02*
D03*
Y-1439D02*
D03*
X17300Y-439D02*
D03*
Y-1439D02*
D03*
D69*
Y561D02*
D03*
D70*
X2754Y-3090D02*
D03*
X3574Y-3080D02*
D03*
X2394Y-2660D02*
D03*
X2390Y-3300D02*
D03*
X20770Y767D02*
D03*
X19843Y753D02*
D03*
X19081D02*
D03*
Y290D02*
D03*
X19843D02*
D03*
X19157Y-1482D02*
D03*
X18700Y-3527D02*
D03*
X17157Y-3453D02*
D03*
X16600Y-1000D02*
D03*
X18307Y1486D02*
D03*
X9470Y-1590D02*
D03*
X9030Y-340D02*
D03*
X6710Y2990D02*
D03*
X9250Y2760D02*
D03*
X8100Y3570D02*
D03*
X5110Y2040D02*
D03*
X5460D02*
D03*
X2380Y250D02*
D03*
Y1230D02*
D03*
Y1820D02*
D03*
X4770Y1210D02*
D03*
X10280Y290D02*
D03*
X10620Y300D02*
D03*
X12950Y3610D02*
D03*
X11440Y1140D02*
D03*
X4950Y2410D02*
D03*
X6820Y1830D02*
D03*
X6100Y1070D02*
D03*
X13154Y2330D02*
D03*
X12324Y3470D02*
D03*
X9524Y-2920D02*
D03*
X10691Y1200D02*
D03*
X12220Y1160D02*
D03*
X8414Y1410D02*
D03*
X350Y-3450D02*
D03*
X3164Y-2680D02*
D03*
X2114Y-520D02*
D03*
X3560Y-3563D02*
D03*
X1140Y-470D02*
D03*
X14644Y3076D02*
D03*
X14134Y-2184D02*
D03*
X15564Y-50D02*
D03*
X1020Y-1950D02*
D03*
X12170Y-380D02*
D03*
X11914Y-884D02*
D03*
X8980Y-1200D02*
D03*
X5544Y-1610D02*
D03*
X14874Y-60D02*
D03*
X13114Y-3040D02*
D03*
X16040Y-2660D02*
D03*
X20700Y-3600D02*
D03*
X11080Y-2490D02*
D03*
X13834Y1976D02*
D03*
X3600Y2880D02*
D03*
X11934Y-1770D02*
D03*
X650Y-1950D02*
D03*
X1710Y1680D02*
D03*
X16654Y-1454D02*
D03*
X13414Y3120D02*
D03*
X12514Y-414D02*
D03*
X11914Y-1264D02*
D03*
X13012Y-220D02*
D03*
X13854Y-1474D02*
D03*
X14312Y-686D02*
D03*
X14354Y1630D02*
D03*
X16254Y-70D02*
D03*
X16164Y1440D02*
D03*
X4744Y-3200D02*
D03*
X13394Y996D02*
D03*
X14980Y1580D02*
D03*
X11710Y-2720D02*
D03*
X9890Y-2130D02*
D03*
X11510Y-380D02*
D03*
X12284Y-2054D02*
D03*
X3904Y-2680D02*
D03*
X20770Y304D02*
D03*
X19821Y1500D02*
D03*
X1394Y-1950D02*
D03*
X12514Y1626D02*
D03*
X8320Y-830D02*
D03*
Y70D02*
D03*
X6650Y-880D02*
D03*
X8274Y-2600D02*
D03*
X11904Y-3760D02*
D03*
X16030Y-3770D02*
D03*
X3620Y3720D02*
D03*
X5330Y2940D02*
D03*
X7224Y-1226D02*
D03*
X4714Y430D02*
D03*
X4084Y480D02*
D03*
X3504Y460D02*
D03*
X4764Y-1110D02*
D03*
X7424Y2990D02*
D03*
X5344Y3650D02*
D03*
X1204D02*
D03*
X1224Y2860D02*
D03*
X8204Y-3490D02*
D03*
X1144Y430D02*
D03*
X5554Y-2220D02*
D03*
X13394Y-2450D02*
D03*
X15394Y-1680D02*
D03*
X13392Y-790D02*
D03*
X14724Y3710D02*
D03*
X17300Y1466D02*
D03*
X14314Y1030D02*
D03*
X9260Y-3760D02*
D03*
X11420Y3490D02*
D03*
X11690Y3250D02*
D03*
X11140Y3240D02*
D03*
X8130Y3190D02*
D03*
X10450Y1440D02*
D03*
X11070Y-2830D02*
D03*
X13190Y-3760D02*
D03*
X14490Y-3760D02*
D03*
X2380Y-3870D02*
D03*
X3860D02*
D03*
X4720D02*
D03*
X1670Y-3570D02*
D03*
D71*
X1138Y-2880D02*
D03*
X902D02*
D03*
M02*
