G04*
G04 #@! TF.GenerationSoftware,Altium Limited,Altium Designer,18.1.6 (161)*
G04*
G04 Layer_Color=32896*
%FSLAX24Y24*%
%MOIN*%
G70*
G01*
G75*
%ADD16C,0.0050*%
%ADD17C,0.0070*%
%ADD73C,0.0060*%
G36*
X11543Y2340D02*
X11546Y2337D01*
X11548Y2331D01*
X11585Y2134D01*
Y2131D01*
X11587Y2129D01*
X11589Y2125D01*
X11594Y2123D01*
X11727Y2068D01*
X11741D01*
X11905Y2184D01*
X11912D01*
X11916Y2182D01*
X11920Y2180D01*
X12061Y2044D01*
Y2041D01*
Y2035D01*
Y2033D01*
Y2028D01*
X11949Y1864D01*
Y1862D01*
Y1857D01*
Y1855D01*
Y1849D01*
X12010Y1713D01*
Y1710D01*
X12012Y1708D01*
X12015Y1706D01*
X12019Y1704D01*
X12208Y1671D01*
X12210D01*
X12212Y1669D01*
X12214Y1667D01*
X12216Y1660D01*
Y1463D01*
Y1461D01*
Y1458D01*
X12212Y1454D01*
X12208Y1452D01*
X12023Y1415D01*
X12019D01*
X12017Y1410D01*
X12015Y1406D01*
X11953Y1259D01*
Y1257D01*
Y1252D01*
Y1250D01*
Y1246D01*
X12061Y1088D01*
Y1084D01*
Y1081D01*
Y1079D01*
X11920Y939D01*
X11918Y937D01*
X11916D01*
X11909Y935D01*
X11905Y939D01*
X11754Y1042D01*
X11741D01*
X11675Y1005D01*
X11671D01*
X11666Y1007D01*
X11664Y1009D01*
X11524Y1344D01*
Y1347D01*
Y1349D01*
X11528Y1358D01*
X11548Y1369D01*
X11550Y1371D01*
X11552Y1373D01*
X11557Y1377D01*
X11559D01*
X11561Y1380D01*
X11572Y1388D01*
X11587Y1401D01*
X11607Y1421D01*
X11624Y1447D01*
X11640Y1478D01*
X11651Y1515D01*
X11655Y1535D01*
Y1557D01*
Y1561D01*
Y1572D01*
X11653Y1590D01*
X11646Y1612D01*
X11640Y1636D01*
X11629Y1662D01*
X11614Y1689D01*
X11592Y1713D01*
X11589Y1715D01*
X11581Y1724D01*
X11567Y1735D01*
X11550Y1746D01*
X11528Y1759D01*
X11502Y1767D01*
X11471Y1776D01*
X11438Y1778D01*
X11423D01*
X11407Y1774D01*
X11386Y1770D01*
X11361Y1763D01*
X11335Y1750D01*
X11309Y1735D01*
X11285Y1713D01*
X11283Y1710D01*
X11276Y1702D01*
X11265Y1689D01*
X11254Y1669D01*
X11241Y1647D01*
X11232Y1621D01*
X11223Y1590D01*
X11221Y1557D01*
Y1555D01*
Y1553D01*
Y1546D01*
X11223Y1537D01*
X11226Y1515D01*
X11234Y1489D01*
X11245Y1461D01*
X11263Y1430D01*
X11287Y1401D01*
X11302Y1388D01*
X11320Y1377D01*
X11322Y1375D01*
X11326Y1371D01*
X11329D01*
X11331Y1369D01*
X11348Y1358D01*
X11350Y1355D01*
X11353Y1344D01*
X11217Y1009D01*
X11212Y1007D01*
X11208Y1005D01*
X11201D01*
X11136Y1042D01*
X11123D01*
X10971Y939D01*
Y937D01*
X10967D01*
X10963Y935D01*
X10958Y939D01*
X10816Y1079D01*
Y1084D01*
Y1086D01*
Y1088D01*
X10923Y1246D01*
Y1248D01*
Y1252D01*
Y1255D01*
Y1259D01*
X10862Y1406D01*
Y1408D01*
Y1410D01*
X10857Y1412D01*
X10853Y1415D01*
X10669Y1452D01*
X10667D01*
X10664Y1454D01*
X10662Y1456D01*
X10660Y1463D01*
Y1660D01*
Y1662D01*
X10662Y1667D01*
X10664Y1669D01*
X10669Y1671D01*
X10857Y1704D01*
X10859D01*
X10862Y1706D01*
X10866Y1708D01*
X10873Y1713D01*
X10927Y1849D01*
Y1851D01*
Y1857D01*
Y1860D01*
Y1862D01*
Y1864D01*
X10816Y2028D01*
Y2031D01*
Y2035D01*
Y2037D01*
Y2044D01*
X10958Y2180D01*
X10963Y2182D01*
X10971Y2184D01*
X11136Y2068D01*
X11151D01*
X11283Y2123D01*
X11285D01*
X11287Y2125D01*
X11289Y2127D01*
X11291Y2134D01*
X11331Y2331D01*
Y2333D01*
X11333Y2337D01*
X11335Y2340D01*
X11340Y2342D01*
X11539D01*
X11543Y2340D01*
D02*
G37*
D16*
X10590Y-2560D02*
X10640Y-2510D01*
X10740D01*
X10790Y-2560D01*
Y-2760D01*
X10740Y-2810D01*
X10640D01*
X10590Y-2760D01*
Y-2660D01*
X10690D01*
X10490Y-2810D02*
Y-2610D01*
X10340D01*
X10290Y-2660D01*
Y-2810D01*
X9990Y-2510D02*
Y-2810D01*
X10140D01*
X10190Y-2760D01*
Y-2660D01*
X10140Y-2610D01*
X9990D01*
X10850Y-1050D02*
X10650D01*
X10750D01*
Y-1350D01*
X10550D02*
Y-1050D01*
X10400D01*
X10350Y-1100D01*
Y-1200D01*
X10400Y-1250D01*
X10550D01*
X10200Y-1150D02*
X10100D01*
X10050Y-1200D01*
Y-1350D01*
X10200D01*
X10250Y-1300D01*
X10200Y-1250D01*
X10050D01*
X7304Y-2330D02*
X7354Y-2280D01*
X7454D01*
X7504Y-2330D01*
Y-2380D01*
X7454Y-2430D01*
X7354D01*
X7304Y-2480D01*
Y-2530D01*
X7354Y-2580D01*
X7454D01*
X7504Y-2530D01*
X7204Y-2280D02*
Y-2580D01*
X7104Y-2480D01*
X7004Y-2580D01*
Y-2280D01*
X6904D02*
Y-2580D01*
X6754D01*
X6704Y-2530D01*
Y-2330D01*
X6754Y-2280D01*
X6904D01*
X6604Y-2430D02*
X6404D01*
X6304Y-2580D02*
Y-2280D01*
X6204Y-2380D01*
X6104Y-2280D01*
Y-2580D01*
X6004Y-2280D02*
Y-2580D01*
Y-2480D01*
X5804Y-2280D01*
X5954Y-2430D01*
X5804Y-2580D01*
X3374Y-164D02*
Y-364D01*
Y-264D01*
X3674D01*
X3374Y-464D02*
X3574D01*
X3674Y-563D01*
X3574Y-663D01*
X3374D01*
Y-963D02*
X3674D01*
Y-813D01*
X3624Y-763D01*
X3524D01*
X3474Y-813D01*
Y-963D01*
X3374Y-1263D02*
X3674D01*
Y-1113D01*
X3624Y-1063D01*
X3524D01*
X3474Y-1113D01*
Y-1263D01*
X2594Y116D02*
Y-84D01*
Y16D01*
X2894D01*
X2944Y-184D02*
Y-383D01*
X2644Y-483D02*
X2594Y-533D01*
Y-633D01*
X2644Y-683D01*
X2694D01*
X2744Y-633D01*
Y-583D01*
Y-633D01*
X2794Y-683D01*
X2844D01*
X2894Y-633D01*
Y-533D01*
X2844Y-483D01*
X2594Y-783D02*
X2794D01*
X2894Y-883D01*
X2794Y-983D01*
X2594D01*
X2644Y-1083D02*
X2594Y-1133D01*
Y-1233D01*
X2644Y-1283D01*
X2694D01*
X2744Y-1233D01*
Y-1183D01*
Y-1233D01*
X2794Y-1283D01*
X2844D01*
X2894Y-1233D01*
Y-1133D01*
X2844Y-1083D01*
X4204Y-174D02*
Y-374D01*
Y-274D01*
X4504D01*
X4554Y-474D02*
Y-673D01*
X4204Y-973D02*
Y-773D01*
X4354D01*
X4304Y-873D01*
Y-923D01*
X4354Y-973D01*
X4454D01*
X4504Y-923D01*
Y-823D01*
X4454Y-773D01*
X4204Y-1073D02*
X4404D01*
X4504Y-1173D01*
X4404Y-1273D01*
X4204D01*
X21644Y-1330D02*
X21594Y-1280D01*
Y-1180D01*
X21644Y-1130D01*
X21844D01*
X21894Y-1180D01*
Y-1280D01*
X21844Y-1330D01*
X21744D01*
Y-1230D01*
X21894Y-1430D02*
X21694D01*
Y-1580D01*
X21744Y-1630D01*
X21894D01*
X21594Y-1930D02*
X21894D01*
Y-1780D01*
X21844Y-1730D01*
X21744D01*
X21694Y-1780D01*
Y-1930D01*
X21614Y1920D02*
X21564Y1970D01*
Y2070D01*
X21614Y2120D01*
X21814D01*
X21864Y2070D01*
Y1970D01*
X21814Y1920D01*
X21714D01*
Y2020D01*
X21864Y1820D02*
X21664D01*
Y1670D01*
X21714Y1620D01*
X21864D01*
X21564Y1320D02*
X21864D01*
Y1470D01*
X21814Y1520D01*
X21714D01*
X21664Y1470D01*
Y1320D01*
X20414Y-450D02*
Y-150D01*
X20264D01*
X20214Y-200D01*
Y-300D01*
X20264Y-350D01*
X20414D01*
X20314D02*
X20214Y-450D01*
X20114D02*
X19964D01*
X19914Y-400D01*
X19964Y-350D01*
X20064D01*
X20114Y-300D01*
X20064Y-250D01*
X19914D01*
X19764Y-200D02*
Y-250D01*
X19814D01*
X19714D01*
X19764D01*
Y-400D01*
X19714Y-450D01*
X20414Y-910D02*
Y-610D01*
X20264D01*
X20214Y-660D01*
Y-760D01*
X20264Y-810D01*
X20414D01*
X20314D02*
X20214Y-910D01*
X20114Y-710D02*
X19914Y-910D01*
X20014Y-810D01*
X19914Y-710D01*
X20114Y-910D01*
X20414Y-1130D02*
X20214D01*
X20314D01*
Y-1430D01*
X20114Y-1230D02*
X19914Y-1430D01*
X20014Y-1330D01*
X19914Y-1230D01*
X20114Y-1430D01*
X20214Y-1680D02*
X20264Y-1630D01*
X20364D01*
X20414Y-1680D01*
Y-1730D01*
X20364Y-1780D01*
X20264D01*
X20214Y-1830D01*
Y-1880D01*
X20264Y-1930D01*
X20364D01*
X20414Y-1880D01*
X20114Y-1630D02*
Y-1930D01*
X20014Y-1830D01*
X19914Y-1930D01*
Y-1630D01*
X19614Y-1680D02*
X19664Y-1630D01*
X19764D01*
X19814Y-1680D01*
Y-1880D01*
X19764Y-1930D01*
X19664D01*
X19614Y-1880D01*
X19514Y-1630D02*
Y-1930D01*
X19314D01*
X19214Y-1630D02*
Y-1930D01*
Y-1830D01*
X19014Y-1630D01*
X19164Y-1780D01*
X19014Y-1930D01*
X20214Y-2160D02*
X20264Y-2110D01*
X20364D01*
X20414Y-2160D01*
Y-2210D01*
X20364Y-2260D01*
X20264D01*
X20214Y-2310D01*
Y-2360D01*
X20264Y-2410D01*
X20364D01*
X20414Y-2360D01*
X20114Y-2110D02*
Y-2410D01*
X20014Y-2310D01*
X19914Y-2410D01*
Y-2110D01*
X19814D02*
Y-2410D01*
X19664D01*
X19614Y-2360D01*
Y-2160D01*
X19664Y-2110D01*
X19814D01*
X21774Y-2580D02*
Y-2780D01*
X21674Y-2880D01*
X21574Y-2780D01*
Y-2580D01*
X21274D02*
Y-2880D01*
X21424D01*
X21474Y-2830D01*
Y-2730D01*
X21424Y-2680D01*
X21274D01*
X20974Y-2580D02*
Y-2880D01*
X21124D01*
X21174Y-2830D01*
Y-2730D01*
X21124Y-2680D01*
X20974D01*
X18750Y-1920D02*
Y-2120D01*
X18650Y-2220D01*
X18550Y-2120D01*
Y-1920D01*
X18250D02*
Y-2220D01*
X18400D01*
X18450Y-2170D01*
Y-2070D01*
X18400Y-2020D01*
X18250D01*
X17950Y-1920D02*
Y-2220D01*
X18100D01*
X18150Y-2170D01*
Y-2070D01*
X18100Y-2020D01*
X17950D01*
X19500Y-550D02*
Y-250D01*
X19350D01*
X19300Y-300D01*
Y-400D01*
X19350Y-450D01*
X19500D01*
X19400D02*
X19300Y-550D01*
X19200D02*
X19050D01*
X19000Y-500D01*
X19050Y-450D01*
X19150D01*
X19200Y-400D01*
X19150Y-350D01*
X19000D01*
X18850Y-300D02*
Y-350D01*
X18900D01*
X18800D01*
X18850D01*
Y-500D01*
X18800Y-550D01*
X18550Y1320D02*
X18600Y1370D01*
X18700D01*
X18750Y1320D01*
Y1120D01*
X18700Y1070D01*
X18600D01*
X18550Y1120D01*
Y1220D01*
X18650D01*
X18450Y1070D02*
Y1270D01*
X18300D01*
X18250Y1220D01*
Y1070D01*
X17950Y1370D02*
Y1070D01*
X18100D01*
X18150Y1120D01*
Y1220D01*
X18100Y1270D01*
X17950D01*
X17550Y-1920D02*
X17350D01*
X17450D01*
Y-2220D01*
X17250Y-2020D02*
X17050Y-2220D01*
X17150Y-2120D01*
X17050Y-2020D01*
X17250Y-2220D01*
X16800Y-600D02*
Y-300D01*
X16650D01*
X16600Y-350D01*
Y-450D01*
X16650Y-500D01*
X16800D01*
X16700D02*
X16600Y-600D01*
X16500Y-400D02*
X16300Y-600D01*
X16400Y-500D01*
X16300Y-400D01*
X16500Y-600D01*
X17700Y1370D02*
Y1070D01*
X17550D01*
X17500Y1120D01*
Y1170D01*
X17550Y1220D01*
X17700D01*
X17550D01*
X17500Y1270D01*
Y1320D01*
X17550Y1370D01*
X17700D01*
X17400D02*
Y1070D01*
Y1170D01*
X17200Y1370D01*
X17350Y1220D01*
X17200Y1070D01*
X16900Y1320D02*
X16950Y1370D01*
X17050D01*
X17100Y1320D01*
Y1120D01*
X17050Y1070D01*
X16950D01*
X16900Y1120D01*
Y1220D01*
X17000D01*
X16800Y1370D02*
Y1070D01*
X16650D01*
X16600Y1120D01*
Y1320D01*
X16650Y1370D01*
X16800D01*
X21620Y3830D02*
Y3538D01*
X21562Y3480D01*
X21445D01*
X21387Y3538D01*
Y3830D01*
X21037Y3772D02*
X21095Y3830D01*
X21212D01*
X21270Y3772D01*
Y3713D01*
X21212Y3655D01*
X21095D01*
X21037Y3597D01*
Y3538D01*
X21095Y3480D01*
X21212D01*
X21270Y3538D01*
X20920Y3830D02*
Y3480D01*
X20745D01*
X20687Y3538D01*
Y3597D01*
X20745Y3655D01*
X20920D01*
X20745D01*
X20687Y3713D01*
Y3772D01*
X20745Y3830D01*
X20920D01*
X20570D02*
Y3480D01*
X20395D01*
X20337Y3538D01*
Y3772D01*
X20395Y3830D01*
X20570D01*
X20220Y3480D02*
Y3830D01*
X20104Y3713D01*
X19987Y3830D01*
Y3480D01*
X19871Y3422D02*
X19637D01*
X19521Y3830D02*
Y3480D01*
Y3597D01*
X19287Y3830D01*
X19462Y3655D01*
X19287Y3480D01*
X19171D02*
X19054D01*
X19112D01*
Y3713D01*
X19171D01*
X18879Y3480D02*
Y3713D01*
X18704D01*
X18646Y3655D01*
Y3480D01*
X18354D02*
X18471D01*
X18529Y3538D01*
Y3655D01*
X18471Y3713D01*
X18354D01*
X18296Y3655D01*
Y3597D01*
X18529D01*
X18121Y3772D02*
Y3713D01*
X18179D01*
X18063D01*
X18121D01*
Y3538D01*
X18063Y3480D01*
X17888D02*
X17771D01*
X17830D01*
Y3713D01*
X17888D01*
X17596Y3480D02*
X17421D01*
X17363Y3538D01*
X17421Y3597D01*
X17538D01*
X17596Y3655D01*
X17538Y3713D01*
X17363D01*
X17246Y3422D02*
X17013D01*
X16897Y3480D02*
Y3830D01*
X16780Y3713D01*
X16663Y3830D01*
Y3480D01*
X16547Y3830D02*
Y3480D01*
Y3597D01*
X16313Y3830D01*
X16488Y3655D01*
X16313Y3480D01*
X15963D02*
X16197D01*
X15963Y3713D01*
Y3772D01*
X16022Y3830D01*
X16138D01*
X16197Y3772D01*
X15614Y3480D02*
X15847D01*
X15614Y3713D01*
Y3772D01*
X15672Y3830D01*
X15789D01*
X15847Y3772D01*
X15264Y3830D02*
X15497D01*
Y3655D01*
X15380D01*
X15497D01*
Y3480D01*
X8750Y-2890D02*
X8700Y-2840D01*
X8600D01*
X8550Y-2890D01*
Y-2940D01*
X8600Y-2990D01*
X8650D01*
X8600D01*
X8550Y-3040D01*
Y-3090D01*
X8600Y-3140D01*
X8700D01*
X8750Y-3090D01*
X8450Y-2840D02*
Y-3040D01*
X8350Y-3140D01*
X8250Y-3040D01*
Y-2840D01*
X8150Y-2890D02*
X8100Y-2840D01*
X8000D01*
X7950Y-2890D01*
Y-2940D01*
X8000Y-2990D01*
X8050D01*
X8000D01*
X7950Y-3040D01*
Y-3090D01*
X8000Y-3140D01*
X8100D01*
X8150Y-3090D01*
D17*
X11870Y820D02*
X11970D01*
X12020Y770D01*
Y570D01*
X11970Y520D01*
X11870D01*
X11820Y570D01*
Y770D01*
X11870Y820D01*
X11520Y770D02*
X11570Y820D01*
X11670D01*
X11720Y770D01*
Y720D01*
X11670Y670D01*
X11570D01*
X11520Y620D01*
Y570D01*
X11570Y520D01*
X11670D01*
X11720Y570D01*
X11420Y820D02*
Y520D01*
Y670D01*
X11220D01*
Y820D01*
Y520D01*
X11120Y820D02*
Y520D01*
X11020Y620D01*
X10920Y520D01*
Y820D01*
D73*
X16640Y3230D02*
Y2997D01*
X16523Y2880D01*
X16407Y2997D01*
Y3230D01*
X16290Y3172D02*
X16232Y3230D01*
X16115D01*
X16057Y3172D01*
Y3113D01*
X16115Y3055D01*
X16173D01*
X16115D01*
X16057Y2997D01*
Y2938D01*
X16115Y2880D01*
X16232D01*
X16290Y2938D01*
X15940Y2880D02*
Y2938D01*
X15882D01*
Y2880D01*
X15940D01*
X15649Y3172D02*
X15590Y3230D01*
X15474D01*
X15415Y3172D01*
Y3113D01*
X15474Y3055D01*
X15532D01*
X15474D01*
X15415Y2997D01*
Y2938D01*
X15474Y2880D01*
X15590D01*
X15649Y2938D01*
M02*
