M48
;Layer_Color=9474304
;FILE_FORMAT=2:4
INCH
;TYPE=PLATED
T1F00S00C0.0130
T2F00S00C0.0236
T3F00S00C0.0315
T4F00S00C0.0354
;TYPE=NON_PLATED
T5F00S00C0.0276
%
T01
X000350Y-003450
X000902Y-002880
X001138
X001020Y-001950
X000650
X001394Y-001950
X002394Y-002660
X003164Y-002680
X003904
X003574Y-003080
X003560Y-003583
X002754Y-003090
X001670Y-003580
X004744Y-003200
X005554Y-002220
X005544Y-001610
X004764Y-001110
X004714Y000430
X004084Y000480
X003504Y000460
X002380Y000250
Y001230
Y001820
X001710Y001680
X001224Y002860
X001204Y003650
X003624Y003810
X003614Y002530
X004950Y002410
X005110Y002040
X005460
X005330Y002940
X005344Y003650
X006754Y002990
X007424
X008334Y003580
X009114Y003000
X009330Y002310
X010320Y001700
X010691Y001200
X011440Y001140
X012220Y001160
X012514Y001626
X013154Y002330
X013834Y001976
X013394Y000996
X013012Y-000220
X012514Y-000414
X012214Y-000590
X011914Y-000884
Y-001264
X011934Y-001770
X012284Y-002054
X011514Y-002530
X011080Y-002490
X011070Y-002920
X010264Y-003220
X009524Y-002920
X009214Y-003650
X008204Y-003490
X008274Y-002600
X008320Y-000830
Y000070
X009084Y-000480
X009354Y-001630
X009890Y-002130
X010280Y000290
X010620Y000300
X011360Y-000410
X013392Y-000790
X013854Y-001474
X013394Y-002450
X013114Y-003040
X011904Y-003770
X007224Y-001226
X006650Y-000880
X006100Y001070
X004770Y001210
X006820Y001830
X008414Y001410
X010184Y003540
X012324Y003470
X012950Y003610
X013414Y003120
X002114Y-000520
X001140Y-000470
X001144Y000430
X014314Y001030
X014354Y001630
X014984Y001640
X016164Y001440
X016804Y001966
X018544Y001986
X019264Y001796
X019594Y001260
Y000270
X020164
X018954
X019224Y-000844
X019594Y-000842
X019964Y-000750
X018824Y-001420
X017864Y-001440
X016654Y-001454
X016714Y-000580
X016254Y-000070
X015564Y-000050
X014874Y-000060
X014312Y-000686
X014134Y-002184
X015394Y-001680
X016154Y-002660
X016144Y-003770
X017144Y-003124
X017794Y-003484
X018680Y-003210
X019164Y-003494
X020694Y-003094
X021384Y000456
X020874Y003406
X019934Y002696
X017724Y003750
X014724Y003710
X014644Y003076
T02
X005570Y-003480
X006070
X006570
X007070
X007570
Y-002980
X007070
X006570
X005570
X020770Y-002250
Y-001750
Y-001250
Y-000750
Y-000250
X021270
Y-001250
Y-001750
Y-002250
Y001250
Y001750
Y002250
X020770
Y001750
Y001250
T03
X002736Y-001710
X003524
X004311
T04
X010394Y-001760
X017364Y-001000
X018364
Y000000
Y001000
X017364
Y000000
X016954Y003086
T05
X018424Y003066
M30
