G04 Layer_Color=32896*
%FSLAX23Y23*%
%MOIN*%
G70*
G01*
G75*
%ADD46C,0.005*%
%ADD48C,0.007*%
G36*
X1000Y163D02*
Y162D01*
X1003Y142D01*
Y142D01*
Y142D01*
X1004Y142D01*
X1004Y141D01*
X1018Y136D01*
X1019D01*
X1035Y147D01*
X1037D01*
X1037Y147D01*
X1051Y133D01*
Y133D01*
Y132D01*
Y132D01*
Y132D01*
X1040Y115D01*
Y115D01*
Y115D01*
Y114D01*
Y114D01*
X1046Y100D01*
Y100D01*
X1046Y100D01*
X1047Y99D01*
X1066Y96D01*
X1066D01*
X1067Y96D01*
Y95D01*
Y75D01*
Y75D01*
X1066Y75D01*
X1066Y74D01*
X1047Y70D01*
X1047D01*
X1047Y70D01*
X1046Y70D01*
X1040Y55D01*
Y55D01*
Y54D01*
Y54D01*
Y54D01*
X1051Y38D01*
Y37D01*
Y37D01*
Y37D01*
X1037Y23D01*
X1037Y23D01*
X1036D01*
X1035Y23D01*
X1020Y33D01*
X1019D01*
X1012Y29D01*
X1012D01*
X1012Y30D01*
X1011Y30D01*
X997Y64D01*
Y64D01*
Y64D01*
X998Y65D01*
X1000Y66D01*
X1000Y66D01*
X1000Y66D01*
X1000Y67D01*
X1001Y67D01*
X1002Y68D01*
X1003Y69D01*
X1005Y71D01*
X1007Y74D01*
X1009Y77D01*
X1010Y80D01*
X1010Y85D01*
Y85D01*
Y86D01*
X1010Y88D01*
X1010Y90D01*
X1009Y92D01*
X1008Y95D01*
X1006Y98D01*
X1004Y100D01*
X1004Y100D01*
X1003Y101D01*
X1002Y102D01*
X1000Y103D01*
X998Y105D01*
X995Y106D01*
X992Y107D01*
X989Y107D01*
X987D01*
X986Y107D01*
X983Y106D01*
X981Y105D01*
X978Y104D01*
X976Y102D01*
X973Y100D01*
X973Y100D01*
X972Y99D01*
X972Y98D01*
X970Y96D01*
X969Y93D01*
X968Y91D01*
X967Y88D01*
X967Y85D01*
Y84D01*
X967Y83D01*
X968Y80D01*
X968Y78D01*
X970Y75D01*
X971Y72D01*
X973Y69D01*
X977Y67D01*
X977Y67D01*
X977Y66D01*
X978D01*
X978Y66D01*
X980Y65D01*
X980Y65D01*
X980Y64D01*
X967Y30D01*
X966Y30D01*
X965Y29D01*
X958Y33D01*
X957D01*
X942Y23D01*
X942Y23D01*
X941D01*
X941Y23D01*
X926Y37D01*
Y37D01*
Y38D01*
Y38D01*
X937Y54D01*
Y54D01*
Y54D01*
Y54D01*
Y55D01*
X931Y70D01*
Y70D01*
Y70D01*
X931Y70D01*
X930D01*
X912Y74D01*
X912D01*
X911Y75D01*
X911Y75D01*
Y95D01*
Y95D01*
Y96D01*
X911Y96D01*
X912D01*
X931Y99D01*
X931D01*
X932Y100D01*
X932Y100D01*
X938Y114D01*
Y114D01*
Y115D01*
Y115D01*
Y115D01*
Y115D01*
X926Y132D01*
Y132D01*
Y132D01*
Y133D01*
Y133D01*
X941Y147D01*
X941Y147D01*
X942D01*
X958Y136D01*
X960D01*
X973Y141D01*
X973D01*
X974Y142D01*
X974Y142D01*
Y142D01*
X978Y162D01*
Y162D01*
Y163D01*
X978Y163D01*
X979Y163D01*
X999D01*
X1000Y163D01*
D02*
G37*
D46*
X1550Y378D02*
X1555Y383D01*
X1565D01*
X1570Y378D01*
Y358D01*
X1565Y353D01*
X1555D01*
X1550Y358D01*
Y368D01*
X1560D01*
X1540Y353D02*
Y373D01*
X1525D01*
X1520Y368D01*
Y353D01*
X1490Y383D02*
Y353D01*
X1505D01*
X1510Y358D01*
Y368D01*
X1505Y373D01*
X1490D01*
X917Y-106D02*
X897D01*
X907D01*
Y-136D01*
X887D02*
Y-106D01*
X872D01*
X867Y-111D01*
Y-121D01*
X872Y-126D01*
X887D01*
X852Y-116D02*
X842D01*
X837Y-121D01*
Y-136D01*
X852D01*
X857Y-131D01*
X852Y-126D01*
X837D01*
X569Y-233D02*
X574Y-228D01*
X584D01*
X589Y-233D01*
Y-238D01*
X584Y-243D01*
X574D01*
X569Y-248D01*
Y-253D01*
X574Y-258D01*
X584D01*
X589Y-253D01*
X559Y-228D02*
Y-258D01*
X549Y-248D01*
X539Y-258D01*
Y-228D01*
X529D02*
Y-258D01*
X514D01*
X509Y-253D01*
Y-233D01*
X514Y-228D01*
X529D01*
X499Y-243D02*
X479D01*
X469Y-258D02*
Y-228D01*
X459Y-238D01*
X449Y-228D01*
Y-258D01*
X439Y-228D02*
Y-258D01*
Y-248D01*
X419Y-228D01*
X434Y-243D01*
X419Y-258D01*
X176Y-16D02*
Y-36D01*
Y-26D01*
X206D01*
X176Y-46D02*
X196D01*
X206Y-56D01*
X196Y-66D01*
X176D01*
Y-96D02*
X206D01*
Y-81D01*
X201Y-76D01*
X191D01*
X186Y-81D01*
Y-96D01*
X176Y-126D02*
X206D01*
Y-111D01*
X201Y-106D01*
X191D01*
X186Y-111D01*
Y-126D01*
X98Y12D02*
Y-8D01*
Y2D01*
X128D01*
X133Y-18D02*
Y-38D01*
X103Y-48D02*
X98Y-53D01*
Y-63D01*
X103Y-68D01*
X108D01*
X113Y-63D01*
Y-58D01*
Y-63D01*
X118Y-68D01*
X123D01*
X128Y-63D01*
Y-53D01*
X123Y-48D01*
X98Y-78D02*
X118D01*
X128Y-88D01*
X118Y-98D01*
X98D01*
X103Y-108D02*
X98Y-113D01*
Y-123D01*
X103Y-128D01*
X108D01*
X113Y-123D01*
Y-118D01*
Y-123D01*
X118Y-128D01*
X123D01*
X128Y-123D01*
Y-113D01*
X123Y-108D01*
X259Y-17D02*
Y-37D01*
Y-27D01*
X289D01*
X294Y-47D02*
Y-67D01*
X259Y-97D02*
Y-77D01*
X274D01*
X269Y-87D01*
Y-92D01*
X274Y-97D01*
X284D01*
X289Y-92D01*
Y-82D01*
X284Y-77D01*
X259Y-107D02*
X279D01*
X289Y-117D01*
X279Y-127D01*
X259D01*
X2003Y-133D02*
X1998Y-128D01*
Y-118D01*
X2003Y-113D01*
X2023D01*
X2028Y-118D01*
Y-128D01*
X2023Y-133D01*
X2013D01*
Y-123D01*
X2028Y-143D02*
X2008D01*
Y-158D01*
X2013Y-163D01*
X2028D01*
X1998Y-193D02*
X2028D01*
Y-178D01*
X2023Y-173D01*
X2013D01*
X2008Y-178D01*
Y-193D01*
X2000Y192D02*
X1995Y197D01*
Y207D01*
X2000Y212D01*
X2020D01*
X2025Y207D01*
Y197D01*
X2020Y192D01*
X2010D01*
Y202D01*
X2025Y182D02*
X2005D01*
Y167D01*
X2010Y162D01*
X2025D01*
X1995Y132D02*
X2025D01*
Y147D01*
X2020Y152D01*
X2010D01*
X2005Y147D01*
Y132D01*
X1880Y-45D02*
Y-15D01*
X1865D01*
X1860Y-20D01*
Y-30D01*
X1865Y-35D01*
X1880D01*
X1870D02*
X1860Y-45D01*
X1850D02*
X1835D01*
X1830Y-40D01*
X1835Y-35D01*
X1845D01*
X1850Y-30D01*
X1845Y-25D01*
X1830D01*
X1815Y-20D02*
Y-25D01*
X1820D01*
X1810D01*
X1815D01*
Y-40D01*
X1810Y-45D01*
X1880Y-91D02*
Y-61D01*
X1865D01*
X1860Y-66D01*
Y-76D01*
X1865Y-81D01*
X1880D01*
X1870D02*
X1860Y-91D01*
X1850Y-71D02*
X1830Y-91D01*
X1840Y-81D01*
X1830Y-71D01*
X1850Y-91D01*
X1880Y-113D02*
X1860D01*
X1870D01*
Y-143D01*
X1850Y-123D02*
X1830Y-143D01*
X1840Y-133D01*
X1830Y-123D01*
X1850Y-143D01*
X1860Y-168D02*
X1865Y-163D01*
X1875D01*
X1880Y-168D01*
Y-173D01*
X1875Y-178D01*
X1865D01*
X1860Y-183D01*
Y-188D01*
X1865Y-193D01*
X1875D01*
X1880Y-188D01*
X1850Y-163D02*
Y-193D01*
X1840Y-183D01*
X1830Y-193D01*
Y-163D01*
X1800Y-168D02*
X1805Y-163D01*
X1815D01*
X1820Y-168D01*
Y-188D01*
X1815Y-193D01*
X1805D01*
X1800Y-188D01*
X1790Y-163D02*
Y-193D01*
X1770D01*
X1760Y-163D02*
Y-193D01*
Y-183D01*
X1740Y-163D01*
X1755Y-178D01*
X1740Y-193D01*
X1860Y-216D02*
X1865Y-211D01*
X1875D01*
X1880Y-216D01*
Y-221D01*
X1875Y-226D01*
X1865D01*
X1860Y-231D01*
Y-236D01*
X1865Y-241D01*
X1875D01*
X1880Y-236D01*
X1850Y-211D02*
Y-241D01*
X1840Y-231D01*
X1830Y-241D01*
Y-211D01*
X1820D02*
Y-241D01*
X1805D01*
X1800Y-236D01*
Y-216D01*
X1805Y-211D01*
X1820D01*
X2016Y-258D02*
Y-278D01*
X2006Y-288D01*
X1996Y-278D01*
Y-258D01*
X1966D02*
Y-288D01*
X1981D01*
X1986Y-283D01*
Y-273D01*
X1981Y-268D01*
X1966D01*
X1936Y-258D02*
Y-288D01*
X1951D01*
X1956Y-283D01*
Y-273D01*
X1951Y-268D01*
X1936D01*
X1802Y-86D02*
Y-106D01*
X1792Y-116D01*
X1782Y-106D01*
Y-86D01*
X1752D02*
Y-116D01*
X1767D01*
X1772Y-111D01*
Y-101D01*
X1767Y-96D01*
X1752D01*
X1722Y-86D02*
Y-116D01*
X1737D01*
X1742Y-111D01*
Y-101D01*
X1737Y-96D01*
X1722D01*
X1796Y-13D02*
Y17D01*
X1781D01*
X1776Y12D01*
Y2D01*
X1781Y-3D01*
X1796D01*
X1786D02*
X1776Y-13D01*
X1766D02*
X1751D01*
X1746Y-8D01*
X1751Y-3D01*
X1761D01*
X1766Y2D01*
X1761Y7D01*
X1746D01*
X1731Y12D02*
Y7D01*
X1736D01*
X1726D01*
X1731D01*
Y-8D01*
X1726Y-13D01*
X1786Y112D02*
X1791Y117D01*
X1801D01*
X1806Y112D01*
Y92D01*
X1801Y87D01*
X1791D01*
X1786Y92D01*
Y102D01*
X1796D01*
X1776Y87D02*
Y107D01*
X1761D01*
X1756Y102D01*
Y87D01*
X1726Y117D02*
Y87D01*
X1741D01*
X1746Y92D01*
Y102D01*
X1741Y107D01*
X1726D01*
X1527Y-84D02*
X1507D01*
X1517D01*
Y-114D01*
X1497Y-94D02*
X1477Y-114D01*
X1487Y-104D01*
X1477Y-94D01*
X1497Y-114D01*
X1527Y-16D02*
Y14D01*
X1512D01*
X1507Y9D01*
Y-1D01*
X1512Y-6D01*
X1527D01*
X1517D02*
X1507Y-16D01*
X1497Y4D02*
X1477Y-16D01*
X1487Y-6D01*
X1477Y4D01*
X1497Y-16D01*
X1527Y115D02*
Y85D01*
X1512D01*
X1507Y90D01*
Y95D01*
X1512Y100D01*
X1527D01*
X1512D01*
X1507Y105D01*
Y110D01*
X1512Y115D01*
X1527D01*
X1497D02*
Y85D01*
Y95D01*
X1477Y115D01*
X1492Y100D01*
X1477Y85D01*
X1447Y110D02*
X1452Y115D01*
X1462D01*
X1467Y110D01*
Y90D01*
X1462Y85D01*
X1452D01*
X1447Y90D01*
Y100D01*
X1457D01*
X1437Y115D02*
Y85D01*
X1422D01*
X1417Y90D01*
Y110D01*
X1422Y115D01*
X1437D01*
X1233Y292D02*
Y263D01*
X1227Y257D01*
X1216D01*
X1210Y263D01*
Y292D01*
X1175Y286D02*
X1181Y292D01*
X1192D01*
X1198Y286D01*
Y280D01*
X1192Y274D01*
X1181D01*
X1175Y269D01*
Y263D01*
X1181Y257D01*
X1192D01*
X1198Y263D01*
X1163Y292D02*
Y257D01*
X1146D01*
X1140Y263D01*
Y269D01*
X1146Y274D01*
X1163D01*
X1146D01*
X1140Y280D01*
Y286D01*
X1146Y292D01*
X1163D01*
X1128D02*
Y257D01*
X1111D01*
X1105Y263D01*
Y286D01*
X1111Y292D01*
X1128D01*
X1093Y257D02*
Y292D01*
X1081Y280D01*
X1070Y292D01*
Y257D01*
X1058Y274D02*
X1035D01*
X1023Y292D02*
Y257D01*
Y269D01*
X1000Y292D01*
X1017Y274D01*
X1000Y257D01*
X988D02*
X976D01*
X982D01*
Y280D01*
X988D01*
X959Y257D02*
Y280D01*
X941D01*
X936Y274D01*
Y257D01*
X906D02*
X918D01*
X924Y263D01*
Y274D01*
X918Y280D01*
X906D01*
X901Y274D01*
Y269D01*
X924D01*
X883Y286D02*
Y280D01*
X889D01*
X877D01*
X883D01*
Y263D01*
X877Y257D01*
X860D02*
X848D01*
X854D01*
Y280D01*
X860D01*
X831Y257D02*
X813D01*
X807Y263D01*
X813Y269D01*
X825D01*
X831Y274D01*
X825Y280D01*
X807D01*
X796Y274D02*
X772D01*
X761Y292D02*
Y269D01*
X749Y257D01*
X737Y269D01*
Y292D01*
X726Y286D02*
X720Y292D01*
X708D01*
X702Y286D01*
Y280D01*
X708Y274D01*
X714D01*
X708D01*
X702Y269D01*
Y263D01*
X708Y257D01*
X720D01*
X726Y263D01*
X714Y-289D02*
X709Y-284D01*
X699D01*
X694Y-289D01*
Y-294D01*
X699Y-299D01*
X704D01*
X699D01*
X694Y-304D01*
Y-309D01*
X699Y-314D01*
X709D01*
X714Y-309D01*
X684Y-284D02*
Y-304D01*
X674Y-314D01*
X664Y-304D01*
Y-284D01*
X654Y-289D02*
X649Y-284D01*
X639D01*
X634Y-289D01*
Y-294D01*
X639Y-299D01*
X644D01*
X639D01*
X634Y-304D01*
Y-309D01*
X639Y-314D01*
X649D01*
X654Y-309D01*
D48*
X1032Y11D02*
X1042D01*
X1047Y6D01*
Y-14D01*
X1042Y-19D01*
X1032D01*
X1027Y-14D01*
Y6D01*
X1032Y11D01*
X997Y6D02*
X1002Y11D01*
X1012D01*
X1017Y6D01*
Y1D01*
X1012Y-4D01*
X1002D01*
X997Y-9D01*
Y-14D01*
X1002Y-19D01*
X1012D01*
X1017Y-14D01*
X987Y11D02*
Y-19D01*
Y-4D01*
X967D01*
Y11D01*
Y-19D01*
X957Y11D02*
Y-19D01*
X947Y-9D01*
X937Y-19D01*
Y11D01*
M02*
