G04*
G04 #@! TF.GenerationSoftware,Altium Limited,Altium Designer,18.1.6 (161)*
G04*
G04 Layer_Color=8421504*
%FSLAX24Y24*%
%MOIN*%
G70*
G01*
G75*
%ADD19R,0.0709X0.0433*%
G04:AMPARAMS|DCode=20|XSize=15.7mil|YSize=33.5mil|CornerRadius=3.9mil|HoleSize=0mil|Usage=FLASHONLY|Rotation=90.000|XOffset=0mil|YOffset=0mil|HoleType=Round|Shape=RoundedRectangle|*
%AMROUNDEDRECTD20*
21,1,0.0157,0.0256,0,0,90.0*
21,1,0.0079,0.0335,0,0,90.0*
1,1,0.0079,0.0128,0.0039*
1,1,0.0079,0.0128,-0.0039*
1,1,0.0079,-0.0128,-0.0039*
1,1,0.0079,-0.0128,0.0039*
%
%ADD20ROUNDEDRECTD20*%
%ADD21R,0.0433X0.0394*%
%ADD22R,0.0394X0.0433*%
G04:AMPARAMS|DCode=23|XSize=39.4mil|YSize=21.7mil|CornerRadius=5.4mil|HoleSize=0mil|Usage=FLASHONLY|Rotation=270.000|XOffset=0mil|YOffset=0mil|HoleType=Round|Shape=RoundedRectangle|*
%AMROUNDEDRECTD23*
21,1,0.0394,0.0108,0,0,270.0*
21,1,0.0285,0.0217,0,0,270.0*
1,1,0.0108,-0.0054,-0.0143*
1,1,0.0108,-0.0054,0.0143*
1,1,0.0108,0.0054,0.0143*
1,1,0.0108,0.0054,-0.0143*
%
%ADD23ROUNDEDRECTD23*%
%ADD24O,0.0098X0.0709*%
%ADD25O,0.0709X0.0098*%
%ADD26R,0.0512X0.0591*%
%ADD27R,0.0748X0.0937*%
%ADD28R,0.0748X0.0465*%
%ADD29R,0.0543X0.0177*%
%ADD30R,0.0827X0.0583*%
G04:AMPARAMS|DCode=31|XSize=15.7mil|YSize=41.3mil|CornerRadius=3.9mil|HoleSize=0mil|Usage=FLASHONLY|Rotation=90.000|XOffset=0mil|YOffset=0mil|HoleType=Round|Shape=RoundedRectangle|*
%AMROUNDEDRECTD31*
21,1,0.0157,0.0335,0,0,90.0*
21,1,0.0079,0.0413,0,0,90.0*
1,1,0.0079,0.0167,0.0039*
1,1,0.0079,0.0167,-0.0039*
1,1,0.0079,-0.0167,-0.0039*
1,1,0.0079,-0.0167,0.0039*
%
%ADD31ROUNDEDRECTD31*%
%ADD32R,0.0315X0.0472*%
D19*
X19571Y2072D02*
D03*
Y3548D02*
D03*
X17209D02*
D03*
Y2072D02*
D03*
D20*
X19157Y-544D02*
D03*
Y-800D02*
D03*
Y-1056D02*
D03*
X20043D02*
D03*
Y-800D02*
D03*
Y-544D02*
D03*
X12969Y-684D02*
D03*
Y-940D02*
D03*
Y-1196D02*
D03*
X13855D02*
D03*
Y-940D02*
D03*
Y-684D02*
D03*
X13857Y1029D02*
D03*
Y773D02*
D03*
Y518D02*
D03*
X12971D02*
D03*
Y773D02*
D03*
Y1029D02*
D03*
D21*
X779Y2260D02*
D03*
X1448D02*
D03*
X2319Y2780D02*
D03*
X2988D02*
D03*
X9165Y3590D02*
D03*
X8495D02*
D03*
X9809Y2340D02*
D03*
X10478D02*
D03*
X13079Y1626D02*
D03*
X13748D02*
D03*
X14246Y-150D02*
D03*
X13577D02*
D03*
X13429Y3600D02*
D03*
X14098D02*
D03*
X3986Y1020D02*
D03*
X3317D02*
D03*
X11111Y2340D02*
D03*
X11780D02*
D03*
Y1620D02*
D03*
X11111D02*
D03*
X9855Y3580D02*
D03*
X10525D02*
D03*
X15828Y2650D02*
D03*
X15159D02*
D03*
Y3280D02*
D03*
X15828D02*
D03*
X15548Y470D02*
D03*
X14879D02*
D03*
Y1136D02*
D03*
X15548D02*
D03*
Y-1240D02*
D03*
X14879D02*
D03*
Y-564D02*
D03*
X15548D02*
D03*
X3988Y1560D02*
D03*
X3319D02*
D03*
Y2100D02*
D03*
X3988D02*
D03*
X4155Y2910D02*
D03*
X4825D02*
D03*
X13398Y-1954D02*
D03*
X12729D02*
D03*
X4157Y3550D02*
D03*
X4827D02*
D03*
X6450Y3590D02*
D03*
X5781D02*
D03*
X15159Y2016D02*
D03*
X15828D02*
D03*
X15548Y-3074D02*
D03*
X14879D02*
D03*
X11375Y20D02*
D03*
X12045D02*
D03*
Y700D02*
D03*
X11375D02*
D03*
X7695Y3590D02*
D03*
X7025D02*
D03*
X19765Y-2944D02*
D03*
X19095D02*
D03*
X19765Y-2344D02*
D03*
X19095D02*
D03*
X15548Y-2400D02*
D03*
X14879D02*
D03*
D22*
X1970Y-3115D02*
D03*
Y-2445D02*
D03*
X3254Y-985D02*
D03*
Y-315D02*
D03*
X3804Y-985D02*
D03*
Y-315D02*
D03*
X8724Y-3425D02*
D03*
Y-2755D02*
D03*
X4354Y-315D02*
D03*
Y-985D02*
D03*
X18357Y-2978D02*
D03*
Y-2309D02*
D03*
X17757Y-2978D02*
D03*
Y-2309D02*
D03*
X17157D02*
D03*
Y-2978D02*
D03*
X16557Y-2978D02*
D03*
Y-2309D02*
D03*
X4310Y-2857D02*
D03*
Y-3527D02*
D03*
X2704Y-315D02*
D03*
Y-985D02*
D03*
D23*
X1020Y-3411D02*
D03*
X646D02*
D03*
X1394Y-3411D02*
D03*
X646Y-2349D02*
D03*
X1020D02*
D03*
X1394Y-2349D02*
D03*
D24*
X6044Y2395D02*
D03*
X6241D02*
D03*
X6437D02*
D03*
X6634D02*
D03*
X6831D02*
D03*
X7028D02*
D03*
X7225D02*
D03*
X7422D02*
D03*
X7618D02*
D03*
X7815D02*
D03*
X8012D02*
D03*
X8209D02*
D03*
X8406D02*
D03*
X8603D02*
D03*
X8800D02*
D03*
X8996D02*
D03*
Y-1955D02*
D03*
X8800D02*
D03*
X8603D02*
D03*
X8406D02*
D03*
X8209D02*
D03*
X8012D02*
D03*
X7815D02*
D03*
X7618D02*
D03*
X7422D02*
D03*
X7225D02*
D03*
X7028D02*
D03*
X6831D02*
D03*
X6634D02*
D03*
X6437D02*
D03*
X6241D02*
D03*
X6044D02*
D03*
D25*
X9695Y1696D02*
D03*
Y1500D02*
D03*
Y1303D02*
D03*
Y1106D02*
D03*
Y909D02*
D03*
Y712D02*
D03*
Y515D02*
D03*
Y318D02*
D03*
Y122D02*
D03*
Y-75D02*
D03*
Y-272D02*
D03*
Y-469D02*
D03*
Y-666D02*
D03*
Y-863D02*
D03*
Y-1060D02*
D03*
Y-1256D02*
D03*
X5345D02*
D03*
Y-1060D02*
D03*
Y-863D02*
D03*
Y-666D02*
D03*
Y-469D02*
D03*
Y-272D02*
D03*
Y-75D02*
D03*
Y122D02*
D03*
Y318D02*
D03*
Y515D02*
D03*
Y712D02*
D03*
Y909D02*
D03*
Y1106D02*
D03*
Y1303D02*
D03*
Y1500D02*
D03*
Y1696D02*
D03*
D26*
X2280Y3580D02*
D03*
X3028D02*
D03*
D27*
X566Y1146D02*
D03*
Y-1146D02*
D03*
D28*
Y-330D02*
D03*
Y330D02*
D03*
D29*
X1614Y0D02*
D03*
Y-256D02*
D03*
Y-512D02*
D03*
Y512D02*
D03*
Y256D02*
D03*
D30*
X1472Y-969D02*
D03*
Y969D02*
D03*
D31*
X12656Y3094D02*
D03*
Y2838D02*
D03*
Y2582D02*
D03*
Y2326D02*
D03*
X14211Y3094D02*
D03*
Y2838D02*
D03*
Y2582D02*
D03*
Y2326D02*
D03*
X14141Y-3288D02*
D03*
Y-3032D02*
D03*
Y-2776D02*
D03*
Y-2520D02*
D03*
X12586Y-3288D02*
D03*
Y-3032D02*
D03*
Y-2776D02*
D03*
Y-2520D02*
D03*
D32*
X3164Y-3453D02*
D03*
X2790Y-2547D02*
D03*
X3538D02*
D03*
M02*
