G04*
G04 #@! TF.GenerationSoftware,Altium Limited,Altium Designer,18.1.6 (161)*
G04*
G04 Layer_Color=16711935*
%FSLAX24Y24*%
%MOIN*%
G70*
G01*
G75*
%ADD48C,0.0631*%
%ADD49C,0.0552*%
%ADD50R,0.0552X0.0552*%
%ADD51R,0.0474X0.0474*%
%ADD52C,0.0474*%
%ADD53R,0.0474X0.0474*%
%ADD54O,0.0700X0.0630*%
%ADD55R,0.0700X0.0630*%
D48*
X10394Y-1760D02*
D03*
X10394Y-3250D02*
D03*
D49*
X2736Y-1710D02*
D03*
X3524D02*
D03*
D50*
X4311D02*
D03*
D51*
X7570Y-2980D02*
D03*
D52*
Y-3480D02*
D03*
X7070Y-2980D02*
D03*
Y-3480D02*
D03*
X6570Y-2980D02*
D03*
Y-3480D02*
D03*
X6070D02*
D03*
X5570Y-2980D02*
D03*
Y-3480D02*
D03*
X20770Y2250D02*
D03*
X21270D02*
D03*
X20770Y1750D02*
D03*
X21270D02*
D03*
X20770Y1250D02*
D03*
X21270D02*
D03*
X20770Y-250D02*
D03*
X21270D02*
D03*
X20770Y-750D02*
D03*
Y-1250D02*
D03*
X21270D02*
D03*
X20770Y-1750D02*
D03*
X21270D02*
D03*
X20770Y-2250D02*
D03*
D53*
X21270D02*
D03*
D54*
X18300Y561D02*
D03*
Y-439D02*
D03*
Y-1439D02*
D03*
X17300Y-439D02*
D03*
Y-1439D02*
D03*
D55*
Y561D02*
D03*
M02*
