G04*
G04 #@! TF.GenerationSoftware,Altium Limited,Altium Designer,18.1.6 (161)*
G04*
G04 Layer_Color=8388736*
%FSLAX24Y24*%
%MOIN*%
G70*
G01*
G75*
%ADD32R,0.0866X0.0394*%
G04:AMPARAMS|DCode=33|XSize=47.4mil|YSize=29.7mil|CornerRadius=9.4mil|HoleSize=0mil|Usage=FLASHONLY|Rotation=270.000|XOffset=0mil|YOffset=0mil|HoleType=Round|Shape=RoundedRectangle|*
%AMROUNDEDRECTD33*
21,1,0.0474,0.0108,0,0,270.0*
21,1,0.0285,0.0297,0,0,270.0*
1,1,0.0188,-0.0054,-0.0143*
1,1,0.0188,-0.0054,0.0143*
1,1,0.0188,0.0054,0.0143*
1,1,0.0188,0.0054,-0.0143*
%
%ADD33ROUNDEDRECTD33*%
%ADD34R,0.0316X0.0533*%
%ADD35O,0.0198X0.0789*%
%ADD36O,0.0789X0.0198*%
%ADD37R,0.0789X0.0513*%
%ADD38R,0.0828X0.1017*%
%ADD39R,0.0828X0.0545*%
%ADD40R,0.0623X0.0257*%
%ADD41R,0.0907X0.0663*%
%ADD42R,0.0513X0.0474*%
%ADD43R,0.0592X0.0671*%
%ADD44R,0.0474X0.0513*%
G04:AMPARAMS|DCode=45|XSize=23.7mil|YSize=49.3mil|CornerRadius=7.9mil|HoleSize=0mil|Usage=FLASHONLY|Rotation=90.000|XOffset=0mil|YOffset=0mil|HoleType=Round|Shape=RoundedRectangle|*
%AMROUNDEDRECTD45*
21,1,0.0237,0.0335,0,0,90.0*
21,1,0.0079,0.0493,0,0,90.0*
1,1,0.0159,0.0167,0.0039*
1,1,0.0159,0.0167,-0.0039*
1,1,0.0159,-0.0167,-0.0039*
1,1,0.0159,-0.0167,0.0039*
%
%ADD45ROUNDEDRECTD45*%
G04:AMPARAMS|DCode=46|XSize=23.7mil|YSize=41.5mil|CornerRadius=7.9mil|HoleSize=0mil|Usage=FLASHONLY|Rotation=90.000|XOffset=0mil|YOffset=0mil|HoleType=Round|Shape=RoundedRectangle|*
%AMROUNDEDRECTD46*
21,1,0.0237,0.0256,0,0,90.0*
21,1,0.0079,0.0415,0,0,90.0*
1,1,0.0159,0.0128,0.0039*
1,1,0.0159,0.0128,-0.0039*
1,1,0.0159,-0.0128,-0.0039*
1,1,0.0159,-0.0128,0.0039*
%
%ADD46ROUNDEDRECTD46*%
%ADD47C,0.0458*%
%ADD48R,0.0458X0.0458*%
%ADD49C,0.0552*%
%ADD50R,0.0552X0.0552*%
%ADD51C,0.0631*%
%ADD52R,0.0458X0.0458*%
%ADD53C,0.0700*%
%ADD54O,0.0700X0.0630*%
%ADD55R,0.0700X0.0700*%
D32*
X1020Y-2880D02*
D03*
D33*
X1394Y-2349D02*
D03*
X1020D02*
D03*
X646D02*
D03*
X1394Y-3411D02*
D03*
X646D02*
D03*
X1020D02*
D03*
D34*
X3100Y-3443D02*
D03*
X2726Y-2557D02*
D03*
X3474D02*
D03*
D35*
X6044Y2405D02*
D03*
X6241D02*
D03*
X6437D02*
D03*
X6634D02*
D03*
X6831D02*
D03*
X7028D02*
D03*
X7225D02*
D03*
X7422D02*
D03*
X7619D02*
D03*
X7815D02*
D03*
X8012D02*
D03*
X8209D02*
D03*
X8406D02*
D03*
X8603D02*
D03*
X8800D02*
D03*
X8996D02*
D03*
Y-1965D02*
D03*
X8800D02*
D03*
X8603D02*
D03*
X8406D02*
D03*
X8209D02*
D03*
X8012D02*
D03*
X7815D02*
D03*
X7619D02*
D03*
X7422D02*
D03*
X7225D02*
D03*
X7028D02*
D03*
X6831D02*
D03*
X6634D02*
D03*
X6437D02*
D03*
X6241D02*
D03*
X6044D02*
D03*
D36*
X9705Y1696D02*
D03*
Y1500D02*
D03*
Y1303D02*
D03*
Y1106D02*
D03*
Y909D02*
D03*
Y712D02*
D03*
Y515D02*
D03*
Y318D02*
D03*
Y122D02*
D03*
Y-75D02*
D03*
Y-272D02*
D03*
Y-469D02*
D03*
Y-666D02*
D03*
Y-863D02*
D03*
Y-1060D02*
D03*
Y-1256D02*
D03*
X5335D02*
D03*
Y-1060D02*
D03*
Y-863D02*
D03*
Y-666D02*
D03*
Y-469D02*
D03*
Y-272D02*
D03*
Y-75D02*
D03*
Y122D02*
D03*
Y318D02*
D03*
Y515D02*
D03*
Y712D02*
D03*
Y909D02*
D03*
Y1106D02*
D03*
Y1303D02*
D03*
Y1500D02*
D03*
Y1696D02*
D03*
D37*
X19571Y2072D02*
D03*
Y3548D02*
D03*
X17209D02*
D03*
Y2072D02*
D03*
D38*
X566Y1146D02*
D03*
Y-1146D02*
D03*
D39*
Y-330D02*
D03*
Y330D02*
D03*
D40*
X1614Y0D02*
D03*
Y-256D02*
D03*
Y-512D02*
D03*
Y512D02*
D03*
Y256D02*
D03*
D41*
X1472Y-969D02*
D03*
Y969D02*
D03*
D42*
X7695Y3590D02*
D03*
X7025D02*
D03*
X19095Y-2944D02*
D03*
X19765D02*
D03*
X9809Y2340D02*
D03*
X10478D02*
D03*
X13079Y1626D02*
D03*
X13748D02*
D03*
X13577Y-150D02*
D03*
X14246D02*
D03*
X13429Y3600D02*
D03*
X14098D02*
D03*
X3317Y1020D02*
D03*
X3986D02*
D03*
X4155Y2910D02*
D03*
X4825D02*
D03*
X12729Y-1954D02*
D03*
X13398D02*
D03*
X4157Y3550D02*
D03*
X4827D02*
D03*
X779Y2260D02*
D03*
X1448D02*
D03*
X2319Y2780D02*
D03*
X2988D02*
D03*
X9165Y3590D02*
D03*
X8495D02*
D03*
X11780Y2340D02*
D03*
X11111D02*
D03*
X11780Y1620D02*
D03*
X11111D02*
D03*
X10525Y3580D02*
D03*
X9855D02*
D03*
X15828Y2650D02*
D03*
X15159D02*
D03*
X15828Y3280D02*
D03*
X15159D02*
D03*
X15548Y470D02*
D03*
X14879D02*
D03*
X15548Y1136D02*
D03*
X14879D02*
D03*
X15548Y-1240D02*
D03*
X14879D02*
D03*
X15548Y-564D02*
D03*
X14879D02*
D03*
X3988Y1560D02*
D03*
X3319D02*
D03*
X3988Y2100D02*
D03*
X3319D02*
D03*
X6450Y3590D02*
D03*
X5781D02*
D03*
X15828Y2016D02*
D03*
X15159D02*
D03*
X15548Y-3074D02*
D03*
X14879D02*
D03*
X12045Y20D02*
D03*
X11375D02*
D03*
X12045Y700D02*
D03*
X11375D02*
D03*
X19765Y-2344D02*
D03*
X19095D02*
D03*
X15548Y-2400D02*
D03*
X14879D02*
D03*
D43*
X3028Y3580D02*
D03*
X2280D02*
D03*
D44*
X8724Y-3425D02*
D03*
Y-2755D02*
D03*
X4354Y-985D02*
D03*
Y-315D02*
D03*
X18357Y-2978D02*
D03*
Y-2309D02*
D03*
X16557Y-2978D02*
D03*
Y-2309D02*
D03*
X4310Y-3527D02*
D03*
Y-2857D02*
D03*
X2704Y-985D02*
D03*
Y-315D02*
D03*
X1970Y-3115D02*
D03*
Y-2445D02*
D03*
X3254Y-315D02*
D03*
Y-985D02*
D03*
X3804Y-315D02*
D03*
Y-985D02*
D03*
X17757Y-2309D02*
D03*
Y-2978D02*
D03*
X17157Y-2309D02*
D03*
Y-2978D02*
D03*
D45*
X12656Y3094D02*
D03*
Y2838D02*
D03*
Y2582D02*
D03*
Y2326D02*
D03*
X14211Y3094D02*
D03*
Y2838D02*
D03*
Y2582D02*
D03*
Y2326D02*
D03*
X12586Y-2520D02*
D03*
Y-2776D02*
D03*
Y-3032D02*
D03*
Y-3288D02*
D03*
X14141Y-2520D02*
D03*
Y-2776D02*
D03*
Y-3032D02*
D03*
Y-3288D02*
D03*
D46*
X19157Y-544D02*
D03*
Y-800D02*
D03*
Y-1056D02*
D03*
X20043D02*
D03*
Y-800D02*
D03*
Y-544D02*
D03*
X12969Y-684D02*
D03*
Y-940D02*
D03*
Y-1196D02*
D03*
X13855D02*
D03*
Y-940D02*
D03*
Y-684D02*
D03*
X12971Y1029D02*
D03*
Y773D02*
D03*
Y518D02*
D03*
X13857D02*
D03*
Y773D02*
D03*
Y1029D02*
D03*
D47*
X20770Y2250D02*
D03*
X21270D02*
D03*
X20770Y1750D02*
D03*
X21270D02*
D03*
X20770Y1250D02*
D03*
X21270D02*
D03*
X20770Y-250D02*
D03*
X21270D02*
D03*
X20770Y-750D02*
D03*
Y-1250D02*
D03*
X21270D02*
D03*
X20770Y-1750D02*
D03*
X21270D02*
D03*
X20770Y-2250D02*
D03*
X7570Y-3480D02*
D03*
X7070Y-2980D02*
D03*
Y-3480D02*
D03*
X6570Y-2980D02*
D03*
Y-3480D02*
D03*
X6070D02*
D03*
X5570Y-2980D02*
D03*
Y-3480D02*
D03*
D48*
X21270Y-2250D02*
D03*
D49*
X3524Y-1710D02*
D03*
X2736D02*
D03*
D50*
X4311D02*
D03*
D51*
X10394Y-3250D02*
D03*
X10394Y-1760D02*
D03*
D52*
X7570Y-2980D02*
D03*
D53*
X18300Y561D02*
D03*
Y-1439D02*
D03*
X17300D02*
D03*
D54*
X18300Y-439D02*
D03*
X17300D02*
D03*
D55*
Y561D02*
D03*
M02*
