M48
;Layer_Color=9474304
;FILE_FORMAT=2:4
INCH
;TYPE=PLATED
T1F00S00C0.0130
T2F00S00C0.0236
T3F00S00C0.0315
T4F00S00C0.0354
;TYPE=NON_PLATED
T5F00S00C0.0276
%
T01
X000350Y-003450
X000902Y-002880
X001138
X001020Y-001950
X000650
X001394Y-001950
X002394Y-002660
X002390Y-003300
X002754Y-003090
X003164Y-002680
X003904
X003574Y-003080
X003560Y-003563
X003860Y-003870
X004720
X004744Y-003200
X005554Y-002220
X005544Y-001610
X004764Y-001110
X004714Y000430
X004084Y000480
X003504Y000460
X002380Y000250
Y001230
Y001820
X001710Y001680
X001224Y002860
X001204Y003650
X003620Y003720
X003600Y002880
X005330Y002940
X005344Y003650
X004950Y002410
X005110Y002040
X005460
X004770Y001210
X006100Y001070
X006820Y001830
X006710Y002990
X007424
X008130Y003190
X008100Y003570
X009250Y002760
X008414Y001410
X008320Y000070
Y-000830
X008980Y-001200
X009470Y-001590
X009890Y-002130
X010380Y-002460
X011080Y-002490
X011070Y-002830
X011710Y-002720
X011934Y-001770
X011914Y-001264
Y-000884
X012170Y-000380
X012514Y-000414
X013012Y-000220
X013392Y-000790
X013854Y-001474
X013394Y-002450
X013114Y-003040
X013190Y-003760
X011904
X010560Y-003780
X009260Y-003760
X009524Y-002920
X008274Y-002600
X008204Y-003490
X007224Y-001226
X006650Y-000880
X009030Y-000340
X010280Y000290
X010620Y000300
X010691Y001200
X010450Y001440
X011440Y001140
X012220Y001160
X012514Y001626
X013154Y002330
X013834Y001976
X013394Y000996
X013414Y003120
X012950Y003610
X012324Y003470
X011690Y003250
X011420Y003490
X011140Y003240
X011510Y-000380
X012284Y-002054
X002114Y-000520
X001140Y-000470
X001144Y000430
X001670Y-003570
X002380Y-003870
X014490Y-003760
X016030Y-003770
X016040Y-002660
X017144Y-003124
X017740Y-003590
X018680Y-003210
X019060Y-003580
X020694Y-003094
X019964Y-000750
X019594Y-000842
X019224Y-000844
X018824Y-001420
X017864Y-001440
X016654Y-001454
X016714Y-000580
X016254Y-000070
X015564Y-000050
X014874Y-000060
X014312Y-000686
X014134Y-002184
X015394Y-001680
X014984Y001640
X014354Y001630
X014314Y001030
X016164Y001440
X016804Y001966
X018544Y001986
X019264Y001796
X019594Y001260
Y000270
X020164
X018954
X021384Y000456
X019934Y002696
X020930Y003770
X018250Y003690
X014724Y003710
X014644Y003076
T02
X005570Y-003480
X006070
X006570
X007070
X007570
Y-002980
X007070
X006570
X005570
X020770Y-002250
Y-001750
Y-001250
Y-000750
Y-000250
X021270
Y-001250
Y-001750
Y-002250
Y001250
Y001750
Y002250
X020770
Y001750
Y001250
T03
X002736Y-001710
X003524
X004311
T04
X010394Y-001760
X017364Y-001000
X018364
Y000000
Y001000
X017364
Y000000
X016954Y003086
T05
X018424Y003196
M30
