G04 Layer_Color=32896*
%FSLAX24Y24*%
%MOIN*%
G70*
G01*
G75*
%ADD46C,0.0050*%
%ADD48C,0.0070*%
G36*
X11610Y1626D02*
Y1621D01*
X11648Y1424D01*
Y1421D01*
Y1418D01*
X11651Y1415D01*
X11657Y1413D01*
X11790Y1357D01*
X11804D01*
X11968Y1474D01*
X11979D01*
X11982Y1471D01*
X12123Y1332D01*
Y1329D01*
Y1324D01*
Y1321D01*
Y1318D01*
X12009Y1154D01*
Y1152D01*
Y1146D01*
Y1143D01*
Y1138D01*
X12073Y1002D01*
Y999D01*
X12076Y996D01*
X12082Y993D01*
X12270Y960D01*
X12276D01*
X12279Y957D01*
Y952D01*
Y752D01*
Y749D01*
X12276Y746D01*
X12270Y743D01*
X12087Y704D01*
X12082D01*
X12079Y702D01*
X12076Y696D01*
X12015Y549D01*
Y546D01*
Y541D01*
Y538D01*
Y535D01*
X12123Y380D01*
Y374D01*
Y371D01*
Y368D01*
X11982Y230D01*
X11979Y227D01*
X11973D01*
X11968Y230D01*
X11818Y332D01*
X11804D01*
X11737Y293D01*
X11732D01*
X11729Y296D01*
X11726Y299D01*
X11587Y635D01*
Y638D01*
Y641D01*
X11590Y649D01*
X11610Y657D01*
X11612Y660D01*
X11615Y663D01*
X11618Y668D01*
X11623Y671D01*
X11635Y679D01*
X11648Y693D01*
X11668Y713D01*
X11687Y738D01*
X11701Y768D01*
X11712Y804D01*
X11718Y846D01*
Y849D01*
Y863D01*
X11715Y879D01*
X11710Y899D01*
X11701Y924D01*
X11690Y952D01*
X11676Y977D01*
X11654Y1002D01*
X11651Y1004D01*
X11643Y1013D01*
X11629Y1024D01*
X11612Y1035D01*
X11590Y1046D01*
X11565Y1057D01*
X11535Y1065D01*
X11501Y1068D01*
X11487D01*
X11471Y1065D01*
X11449Y1060D01*
X11426Y1052D01*
X11399Y1040D01*
X11374Y1024D01*
X11349Y1002D01*
X11346Y999D01*
X11337Y990D01*
X11329Y977D01*
X11318Y957D01*
X11304Y935D01*
X11296Y910D01*
X11287Y879D01*
X11285Y846D01*
Y841D01*
X11287Y827D01*
X11290Y804D01*
X11296Y779D01*
X11310Y752D01*
X11326Y721D01*
X11349Y693D01*
X11382Y668D01*
X11385Y666D01*
X11387Y660D01*
X11390D01*
X11393Y657D01*
X11410Y649D01*
X11412Y646D01*
X11415Y635D01*
X11279Y299D01*
X11276Y296D01*
X11265Y293D01*
X11199Y332D01*
X11185D01*
X11035Y230D01*
X11029Y227D01*
X11026D01*
X11021Y230D01*
X10876Y368D01*
Y374D01*
Y377D01*
Y380D01*
X10988Y535D01*
Y538D01*
Y541D01*
Y543D01*
Y549D01*
X10924Y696D01*
Y699D01*
Y702D01*
X10921Y704D01*
X10915D01*
X10732Y743D01*
X10729D01*
X10726Y746D01*
X10724Y752D01*
Y952D01*
Y954D01*
Y957D01*
X10726Y960D01*
X10732D01*
X10921Y993D01*
X10924D01*
X10929Y996D01*
X10935Y1002D01*
X10990Y1138D01*
Y1140D01*
Y1146D01*
Y1149D01*
Y1152D01*
Y1154D01*
X10876Y1318D01*
Y1321D01*
Y1324D01*
Y1327D01*
Y1332D01*
X11021Y1471D01*
X11024Y1474D01*
X11035D01*
X11199Y1357D01*
X11212D01*
X11346Y1413D01*
X11349D01*
X11351Y1415D01*
X11354Y1418D01*
Y1424D01*
X11393Y1621D01*
Y1624D01*
Y1626D01*
X11396Y1629D01*
X11401Y1632D01*
X11607D01*
X11610Y1626D01*
D02*
G37*
D46*
X8750Y-2890D02*
X8700Y-2840D01*
X8600D01*
X8550Y-2890D01*
Y-2940D01*
X8600Y-2990D01*
X8650D01*
X8600D01*
X8550Y-3040D01*
Y-3090D01*
X8600Y-3140D01*
X8700D01*
X8750Y-3090D01*
X8450Y-2840D02*
Y-3040D01*
X8350Y-3140D01*
X8250Y-3040D01*
Y-2840D01*
X8150Y-2890D02*
X8100Y-2840D01*
X8000D01*
X7950Y-2890D01*
Y-2940D01*
X8000Y-2990D01*
X8050D01*
X8000D01*
X7950Y-3040D01*
Y-3090D01*
X8000Y-3140D01*
X8100D01*
X8150Y-3090D01*
X13944Y2840D02*
Y2548D01*
X13885Y2490D01*
X13769D01*
X13710Y2548D01*
Y2840D01*
X13361Y2782D02*
X13419Y2840D01*
X13535D01*
X13594Y2782D01*
Y2723D01*
X13535Y2665D01*
X13419D01*
X13361Y2607D01*
Y2548D01*
X13419Y2490D01*
X13535D01*
X13594Y2548D01*
X13244Y2840D02*
Y2490D01*
X13069D01*
X13011Y2548D01*
Y2607D01*
X13069Y2665D01*
X13244D01*
X13069D01*
X13011Y2723D01*
Y2782D01*
X13069Y2840D01*
X13244D01*
X12894D02*
Y2490D01*
X12719D01*
X12661Y2548D01*
Y2782D01*
X12719Y2840D01*
X12894D01*
X12544Y2490D02*
Y2840D01*
X12428Y2723D01*
X12311Y2840D01*
Y2490D01*
X12194Y2432D02*
X11961D01*
X11844Y2840D02*
Y2490D01*
Y2607D01*
X11611Y2840D01*
X11786Y2665D01*
X11611Y2490D01*
X11494D02*
X11378D01*
X11436D01*
Y2723D01*
X11494D01*
X11203Y2490D02*
Y2723D01*
X11028D01*
X10970Y2665D01*
Y2490D01*
X10678D02*
X10795D01*
X10853Y2548D01*
Y2665D01*
X10795Y2723D01*
X10678D01*
X10620Y2665D01*
Y2607D01*
X10853D01*
X10445Y2782D02*
Y2723D01*
X10503D01*
X10387D01*
X10445D01*
Y2548D01*
X10387Y2490D01*
X10212D02*
X10095D01*
X10153D01*
Y2723D01*
X10212D01*
X9920Y2490D02*
X9745D01*
X9687Y2548D01*
X9745Y2607D01*
X9862D01*
X9920Y2665D01*
X9862Y2723D01*
X9687D01*
X9570Y2432D02*
X9337D01*
X9220Y2490D02*
Y2840D01*
X9104Y2723D01*
X8987Y2840D01*
Y2490D01*
X8870Y2840D02*
Y2490D01*
Y2607D01*
X8637Y2840D01*
X8812Y2665D01*
X8637Y2490D01*
X8287D02*
X8520D01*
X8287Y2723D01*
Y2782D01*
X8346Y2840D01*
X8462D01*
X8520Y2782D01*
X7937Y2490D02*
X8171D01*
X7937Y2723D01*
Y2782D01*
X7996Y2840D01*
X8112D01*
X8171Y2782D01*
X7587Y2840D02*
X7821D01*
Y2665D01*
X7704D01*
X7821D01*
Y2490D01*
X7471Y2432D02*
X7238D01*
X7121Y2840D02*
Y2607D01*
X7004Y2490D01*
X6888Y2607D01*
Y2840D01*
X6771Y2782D02*
X6713Y2840D01*
X6596D01*
X6538Y2782D01*
Y2723D01*
X6596Y2665D01*
X6654D01*
X6596D01*
X6538Y2607D01*
Y2548D01*
X6596Y2490D01*
X6713D01*
X6771Y2548D01*
X6421Y2490D02*
Y2548D01*
X6363D01*
Y2490D01*
X6421D01*
X6130D02*
X6013D01*
X6071D01*
Y2840D01*
X6130Y2782D01*
X16884Y1150D02*
Y850D01*
X16734D01*
X16684Y900D01*
Y950D01*
X16734Y1000D01*
X16884D01*
X16734D01*
X16684Y1050D01*
Y1100D01*
X16734Y1150D01*
X16884D01*
X16584D02*
Y850D01*
Y950D01*
X16384Y1150D01*
X16534Y1000D01*
X16384Y850D01*
X16084Y1100D02*
X16134Y1150D01*
X16234D01*
X16284Y1100D01*
Y900D01*
X16234Y850D01*
X16134D01*
X16084Y900D01*
Y1000D01*
X16184D01*
X15984Y1150D02*
Y850D01*
X15834D01*
X15784Y900D01*
Y1100D01*
X15834Y1150D01*
X15984D01*
X16884Y-160D02*
Y140D01*
X16734D01*
X16684Y90D01*
Y-10D01*
X16734Y-60D01*
X16884D01*
X16784D02*
X16684Y-160D01*
X16584Y40D02*
X16384Y-160D01*
X16484Y-60D01*
X16384Y40D01*
X16584Y-160D01*
X16884Y-840D02*
X16684D01*
X16784D01*
Y-1140D01*
X16584Y-940D02*
X16384Y-1140D01*
X16484Y-1040D01*
X16384Y-940D01*
X16584Y-1140D01*
X19474Y1120D02*
X19524Y1170D01*
X19624D01*
X19674Y1120D01*
Y920D01*
X19624Y870D01*
X19524D01*
X19474Y920D01*
Y1020D01*
X19574D01*
X19374Y870D02*
Y1070D01*
X19224D01*
X19174Y1020D01*
Y870D01*
X18874Y1170D02*
Y870D01*
X19024D01*
X19074Y920D01*
Y1020D01*
X19024Y1070D01*
X18874D01*
X19574Y-130D02*
Y170D01*
X19424D01*
X19374Y120D01*
Y20D01*
X19424Y-30D01*
X19574D01*
X19474D02*
X19374Y-130D01*
X19274D02*
X19124D01*
X19074Y-80D01*
X19124Y-30D01*
X19224D01*
X19274Y20D01*
X19224Y70D01*
X19074D01*
X18924Y120D02*
Y70D01*
X18974D01*
X18874D01*
X18924D01*
Y-80D01*
X18874Y-130D01*
X19634Y-860D02*
Y-1060D01*
X19534Y-1160D01*
X19434Y-1060D01*
Y-860D01*
X19134D02*
Y-1160D01*
X19284D01*
X19334Y-1110D01*
Y-1010D01*
X19284Y-960D01*
X19134D01*
X18834Y-860D02*
Y-1160D01*
X18984D01*
X19034Y-1110D01*
Y-1010D01*
X18984Y-960D01*
X18834D01*
X21774Y-2580D02*
Y-2780D01*
X21674Y-2880D01*
X21574Y-2780D01*
Y-2580D01*
X21274D02*
Y-2880D01*
X21424D01*
X21474Y-2830D01*
Y-2730D01*
X21424Y-2680D01*
X21274D01*
X20974Y-2580D02*
Y-2880D01*
X21124D01*
X21174Y-2830D01*
Y-2730D01*
X21124Y-2680D01*
X20974D01*
X20214Y-2160D02*
X20264Y-2110D01*
X20364D01*
X20414Y-2160D01*
Y-2210D01*
X20364Y-2260D01*
X20264D01*
X20214Y-2310D01*
Y-2360D01*
X20264Y-2410D01*
X20364D01*
X20414Y-2360D01*
X20114Y-2110D02*
Y-2410D01*
X20014Y-2310D01*
X19914Y-2410D01*
Y-2110D01*
X19814D02*
Y-2410D01*
X19664D01*
X19614Y-2360D01*
Y-2160D01*
X19664Y-2110D01*
X19814D01*
X20214Y-1680D02*
X20264Y-1630D01*
X20364D01*
X20414Y-1680D01*
Y-1730D01*
X20364Y-1780D01*
X20264D01*
X20214Y-1830D01*
Y-1880D01*
X20264Y-1930D01*
X20364D01*
X20414Y-1880D01*
X20114Y-1630D02*
Y-1930D01*
X20014Y-1830D01*
X19914Y-1930D01*
Y-1630D01*
X19614Y-1680D02*
X19664Y-1630D01*
X19764D01*
X19814Y-1680D01*
Y-1880D01*
X19764Y-1930D01*
X19664D01*
X19614Y-1880D01*
X19514Y-1630D02*
Y-1930D01*
X19314D01*
X19214Y-1630D02*
Y-1930D01*
Y-1830D01*
X19014Y-1630D01*
X19164Y-1780D01*
X19014Y-1930D01*
X20414Y-1130D02*
X20214D01*
X20314D01*
Y-1430D01*
X20114Y-1230D02*
X19914Y-1430D01*
X20014Y-1330D01*
X19914Y-1230D01*
X20114Y-1430D01*
X20414Y-910D02*
Y-610D01*
X20264D01*
X20214Y-660D01*
Y-760D01*
X20264Y-810D01*
X20414D01*
X20314D02*
X20214Y-910D01*
X20114Y-710D02*
X19914Y-910D01*
X20014Y-810D01*
X19914Y-710D01*
X20114Y-910D01*
X20414Y-450D02*
Y-150D01*
X20264D01*
X20214Y-200D01*
Y-300D01*
X20264Y-350D01*
X20414D01*
X20314D02*
X20214Y-450D01*
X20114D02*
X19964D01*
X19914Y-400D01*
X19964Y-350D01*
X20064D01*
X20114Y-300D01*
X20064Y-250D01*
X19914D01*
X19764Y-200D02*
Y-250D01*
X19814D01*
X19714D01*
X19764D01*
Y-400D01*
X19714Y-450D01*
X21614Y1920D02*
X21564Y1970D01*
Y2070D01*
X21614Y2120D01*
X21814D01*
X21864Y2070D01*
Y1970D01*
X21814Y1920D01*
X21714D01*
Y2020D01*
X21864Y1820D02*
X21664D01*
Y1670D01*
X21714Y1620D01*
X21864D01*
X21564Y1320D02*
X21864D01*
Y1470D01*
X21814Y1520D01*
X21714D01*
X21664Y1470D01*
Y1320D01*
X21644Y-1330D02*
X21594Y-1280D01*
Y-1180D01*
X21644Y-1130D01*
X21844D01*
X21894Y-1180D01*
Y-1280D01*
X21844Y-1330D01*
X21744D01*
Y-1230D01*
X21894Y-1430D02*
X21694D01*
Y-1580D01*
X21744Y-1630D01*
X21894D01*
X21594Y-1930D02*
X21894D01*
Y-1780D01*
X21844Y-1730D01*
X21744D01*
X21694Y-1780D01*
Y-1930D01*
X4204Y-174D02*
Y-374D01*
Y-274D01*
X4504D01*
X4554Y-474D02*
Y-673D01*
X4204Y-973D02*
Y-773D01*
X4354D01*
X4304Y-873D01*
Y-923D01*
X4354Y-973D01*
X4454D01*
X4504Y-923D01*
Y-823D01*
X4454Y-773D01*
X4204Y-1073D02*
X4404D01*
X4504Y-1173D01*
X4404Y-1273D01*
X4204D01*
X2594Y116D02*
Y-84D01*
Y16D01*
X2894D01*
X2944Y-184D02*
Y-383D01*
X2644Y-483D02*
X2594Y-533D01*
Y-633D01*
X2644Y-683D01*
X2694D01*
X2744Y-633D01*
Y-583D01*
Y-633D01*
X2794Y-683D01*
X2844D01*
X2894Y-633D01*
Y-533D01*
X2844Y-483D01*
X2594Y-783D02*
X2794D01*
X2894Y-883D01*
X2794Y-983D01*
X2594D01*
X2644Y-1083D02*
X2594Y-1133D01*
Y-1233D01*
X2644Y-1283D01*
X2694D01*
X2744Y-1233D01*
Y-1183D01*
Y-1233D01*
X2794Y-1283D01*
X2844D01*
X2894Y-1233D01*
Y-1133D01*
X2844Y-1083D01*
X3374Y-164D02*
Y-364D01*
Y-264D01*
X3674D01*
X3374Y-464D02*
X3574D01*
X3674Y-563D01*
X3574Y-663D01*
X3374D01*
Y-963D02*
X3674D01*
Y-813D01*
X3624Y-763D01*
X3524D01*
X3474Y-813D01*
Y-963D01*
X3374Y-1263D02*
X3674D01*
Y-1113D01*
X3624Y-1063D01*
X3524D01*
X3474Y-1113D01*
Y-1263D01*
X7304Y-2330D02*
X7354Y-2280D01*
X7454D01*
X7504Y-2330D01*
Y-2380D01*
X7454Y-2430D01*
X7354D01*
X7304Y-2480D01*
Y-2530D01*
X7354Y-2580D01*
X7454D01*
X7504Y-2530D01*
X7204Y-2280D02*
Y-2580D01*
X7104Y-2480D01*
X7004Y-2580D01*
Y-2280D01*
X6904D02*
Y-2580D01*
X6754D01*
X6704Y-2530D01*
Y-2330D01*
X6754Y-2280D01*
X6904D01*
X6604Y-2430D02*
X6404D01*
X6304Y-2580D02*
Y-2280D01*
X6204Y-2380D01*
X6104Y-2280D01*
Y-2580D01*
X6004Y-2280D02*
Y-2580D01*
Y-2480D01*
X5804Y-2280D01*
X5954Y-2430D01*
X5804Y-2580D01*
X10784Y-1060D02*
X10584D01*
X10684D01*
Y-1360D01*
X10484D02*
Y-1060D01*
X10334D01*
X10284Y-1110D01*
Y-1210D01*
X10334Y-1260D01*
X10484D01*
X10134Y-1160D02*
X10034D01*
X9984Y-1210D01*
Y-1360D01*
X10134D01*
X10184Y-1310D01*
X10134Y-1260D01*
X9984D01*
X17114Y3780D02*
X17164Y3830D01*
X17264D01*
X17314Y3780D01*
Y3580D01*
X17264Y3530D01*
X17164D01*
X17114Y3580D01*
Y3680D01*
X17214D01*
X17014Y3530D02*
Y3730D01*
X16864D01*
X16814Y3680D01*
Y3530D01*
X16514Y3830D02*
Y3530D01*
X16664D01*
X16714Y3580D01*
Y3680D01*
X16664Y3730D01*
X16514D01*
D48*
X11934Y110D02*
X12034D01*
X12084Y60D01*
Y-140D01*
X12034Y-190D01*
X11934D01*
X11884Y-140D01*
Y60D01*
X11934Y110D01*
X11584Y60D02*
X11634Y110D01*
X11734D01*
X11784Y60D01*
Y10D01*
X11734Y-40D01*
X11634D01*
X11584Y-90D01*
Y-140D01*
X11634Y-190D01*
X11734D01*
X11784Y-140D01*
X11484Y110D02*
Y-190D01*
Y-40D01*
X11284D01*
Y110D01*
Y-190D01*
X11184Y110D02*
Y-190D01*
X11084Y-90D01*
X10984Y-190D01*
Y110D01*
M02*
