G04 Layer_Color=32896*
%FSLAX24Y24*%
%MOIN*%
G70*
G01*
G75*
%ADD47C,0.0050*%
%ADD48C,0.0070*%
%ADD72C,0.0060*%
G36*
X11546Y2336D02*
Y2331D01*
X11585Y2134D01*
Y2131D01*
Y2128D01*
X11588Y2125D01*
X11593Y2123D01*
X11726Y2067D01*
X11740D01*
X11904Y2184D01*
X11915D01*
X11918Y2181D01*
X12060Y2042D01*
Y2039D01*
Y2034D01*
Y2031D01*
Y2028D01*
X11946Y1864D01*
Y1862D01*
Y1856D01*
Y1853D01*
Y1848D01*
X12010Y1712D01*
Y1709D01*
X12012Y1706D01*
X12018Y1703D01*
X12207Y1670D01*
X12212D01*
X12215Y1667D01*
Y1662D01*
Y1462D01*
Y1459D01*
X12212Y1456D01*
X12207Y1453D01*
X12024Y1414D01*
X12018D01*
X12015Y1412D01*
X12012Y1406D01*
X11951Y1259D01*
Y1256D01*
Y1251D01*
Y1248D01*
Y1245D01*
X12060Y1090D01*
Y1084D01*
Y1081D01*
Y1078D01*
X11918Y940D01*
X11915Y937D01*
X11910D01*
X11904Y940D01*
X11754Y1042D01*
X11740D01*
X11674Y1003D01*
X11668D01*
X11665Y1006D01*
X11662Y1009D01*
X11524Y1345D01*
Y1348D01*
Y1351D01*
X11526Y1359D01*
X11546Y1367D01*
X11549Y1370D01*
X11551Y1373D01*
X11554Y1378D01*
X11560Y1381D01*
X11571Y1389D01*
X11585Y1403D01*
X11604Y1423D01*
X11624Y1448D01*
X11638Y1478D01*
X11649Y1514D01*
X11654Y1556D01*
Y1559D01*
Y1573D01*
X11651Y1589D01*
X11646Y1609D01*
X11638Y1634D01*
X11626Y1662D01*
X11613Y1687D01*
X11590Y1712D01*
X11588Y1714D01*
X11579Y1723D01*
X11565Y1734D01*
X11549Y1745D01*
X11526Y1756D01*
X11501Y1767D01*
X11471Y1775D01*
X11438Y1778D01*
X11424D01*
X11407Y1775D01*
X11385Y1770D01*
X11363Y1762D01*
X11335Y1750D01*
X11310Y1734D01*
X11285Y1712D01*
X11282Y1709D01*
X11274Y1700D01*
X11265Y1687D01*
X11254Y1667D01*
X11240Y1645D01*
X11232Y1620D01*
X11224Y1589D01*
X11221Y1556D01*
Y1551D01*
X11224Y1537D01*
X11227Y1514D01*
X11232Y1489D01*
X11246Y1462D01*
X11263Y1431D01*
X11285Y1403D01*
X11318Y1378D01*
X11321Y1376D01*
X11324Y1370D01*
X11326D01*
X11329Y1367D01*
X11346Y1359D01*
X11349Y1356D01*
X11351Y1345D01*
X11215Y1009D01*
X11213Y1006D01*
X11202Y1003D01*
X11135Y1042D01*
X11121D01*
X10971Y940D01*
X10965Y937D01*
X10963D01*
X10957Y940D01*
X10813Y1078D01*
Y1084D01*
Y1087D01*
Y1090D01*
X10924Y1245D01*
Y1248D01*
Y1251D01*
Y1253D01*
Y1259D01*
X10860Y1406D01*
Y1409D01*
Y1412D01*
X10857Y1414D01*
X10852D01*
X10668Y1453D01*
X10666D01*
X10663Y1456D01*
X10660Y1462D01*
Y1662D01*
Y1664D01*
Y1667D01*
X10663Y1670D01*
X10668D01*
X10857Y1703D01*
X10860D01*
X10865Y1706D01*
X10871Y1712D01*
X10927Y1848D01*
Y1850D01*
Y1856D01*
Y1859D01*
Y1862D01*
Y1864D01*
X10813Y2028D01*
Y2031D01*
Y2034D01*
Y2037D01*
Y2042D01*
X10957Y2181D01*
X10960Y2184D01*
X10971D01*
X11135Y2067D01*
X11149D01*
X11282Y2123D01*
X11285D01*
X11288Y2125D01*
X11290Y2128D01*
Y2134D01*
X11329Y2331D01*
Y2334D01*
Y2336D01*
X11332Y2339D01*
X11338Y2342D01*
X11543D01*
X11546Y2336D01*
D02*
G37*
D47*
X8750Y-2890D02*
X8700Y-2840D01*
X8600D01*
X8550Y-2890D01*
Y-2940D01*
X8600Y-2990D01*
X8650D01*
X8600D01*
X8550Y-3040D01*
Y-3090D01*
X8600Y-3140D01*
X8700D01*
X8750Y-3090D01*
X8450Y-2840D02*
Y-3040D01*
X8350Y-3140D01*
X8250Y-3040D01*
Y-2840D01*
X8150Y-2890D02*
X8100Y-2840D01*
X8000D01*
X7950Y-2890D01*
Y-2940D01*
X8000Y-2990D01*
X8050D01*
X8000D01*
X7950Y-3040D01*
Y-3090D01*
X8000Y-3140D01*
X8100D01*
X8150Y-3090D01*
X21620Y3830D02*
Y3538D01*
X21562Y3480D01*
X21445D01*
X21387Y3538D01*
Y3830D01*
X21037Y3772D02*
X21095Y3830D01*
X21212D01*
X21270Y3772D01*
Y3713D01*
X21212Y3655D01*
X21095D01*
X21037Y3597D01*
Y3538D01*
X21095Y3480D01*
X21212D01*
X21270Y3538D01*
X20920Y3830D02*
Y3480D01*
X20745D01*
X20687Y3538D01*
Y3597D01*
X20745Y3655D01*
X20920D01*
X20745D01*
X20687Y3713D01*
Y3772D01*
X20745Y3830D01*
X20920D01*
X20570D02*
Y3480D01*
X20395D01*
X20337Y3538D01*
Y3772D01*
X20395Y3830D01*
X20570D01*
X20220Y3480D02*
Y3830D01*
X20104Y3713D01*
X19987Y3830D01*
Y3480D01*
X19871Y3422D02*
X19637D01*
X19521Y3830D02*
Y3480D01*
Y3597D01*
X19287Y3830D01*
X19462Y3655D01*
X19287Y3480D01*
X19171D02*
X19054D01*
X19112D01*
Y3713D01*
X19171D01*
X18879Y3480D02*
Y3713D01*
X18704D01*
X18646Y3655D01*
Y3480D01*
X18354D02*
X18471D01*
X18529Y3538D01*
Y3655D01*
X18471Y3713D01*
X18354D01*
X18296Y3655D01*
Y3597D01*
X18529D01*
X18121Y3772D02*
Y3713D01*
X18179D01*
X18063D01*
X18121D01*
Y3538D01*
X18063Y3480D01*
X17888D02*
X17771D01*
X17830D01*
Y3713D01*
X17888D01*
X17596Y3480D02*
X17421D01*
X17363Y3538D01*
X17421Y3597D01*
X17538D01*
X17596Y3655D01*
X17538Y3713D01*
X17363D01*
X17246Y3422D02*
X17013D01*
X16897Y3480D02*
Y3830D01*
X16780Y3713D01*
X16663Y3830D01*
Y3480D01*
X16547Y3830D02*
Y3480D01*
Y3597D01*
X16313Y3830D01*
X16488Y3655D01*
X16313Y3480D01*
X15963D02*
X16197D01*
X15963Y3713D01*
Y3772D01*
X16022Y3830D01*
X16138D01*
X16197Y3772D01*
X15614Y3480D02*
X15847D01*
X15614Y3713D01*
Y3772D01*
X15672Y3830D01*
X15789D01*
X15847Y3772D01*
X15264Y3830D02*
X15497D01*
Y3655D01*
X15380D01*
X15497D01*
Y3480D01*
X16884Y1150D02*
Y850D01*
X16734D01*
X16684Y900D01*
Y950D01*
X16734Y1000D01*
X16884D01*
X16734D01*
X16684Y1050D01*
Y1100D01*
X16734Y1150D01*
X16884D01*
X16584D02*
Y850D01*
Y950D01*
X16384Y1150D01*
X16534Y1000D01*
X16384Y850D01*
X16084Y1100D02*
X16134Y1150D01*
X16234D01*
X16284Y1100D01*
Y900D01*
X16234Y850D01*
X16134D01*
X16084Y900D01*
Y1000D01*
X16184D01*
X15984Y1150D02*
Y850D01*
X15834D01*
X15784Y900D01*
Y1100D01*
X15834Y1150D01*
X15984D01*
X16884Y-160D02*
Y140D01*
X16734D01*
X16684Y90D01*
Y-10D01*
X16734Y-60D01*
X16884D01*
X16784D02*
X16684Y-160D01*
X16584Y40D02*
X16384Y-160D01*
X16484Y-60D01*
X16384Y40D01*
X16584Y-160D01*
X16884Y-840D02*
X16684D01*
X16784D01*
Y-1140D01*
X16584Y-940D02*
X16384Y-1140D01*
X16484Y-1040D01*
X16384Y-940D01*
X16584Y-1140D01*
X19474Y1120D02*
X19524Y1170D01*
X19624D01*
X19674Y1120D01*
Y920D01*
X19624Y870D01*
X19524D01*
X19474Y920D01*
Y1020D01*
X19574D01*
X19374Y870D02*
Y1070D01*
X19224D01*
X19174Y1020D01*
Y870D01*
X18874Y1170D02*
Y870D01*
X19024D01*
X19074Y920D01*
Y1020D01*
X19024Y1070D01*
X18874D01*
X19574Y-130D02*
Y170D01*
X19424D01*
X19374Y120D01*
Y20D01*
X19424Y-30D01*
X19574D01*
X19474D02*
X19374Y-130D01*
X19274D02*
X19124D01*
X19074Y-80D01*
X19124Y-30D01*
X19224D01*
X19274Y20D01*
X19224Y70D01*
X19074D01*
X18924Y120D02*
Y70D01*
X18974D01*
X18874D01*
X18924D01*
Y-80D01*
X18874Y-130D01*
X19634Y-860D02*
Y-1060D01*
X19534Y-1160D01*
X19434Y-1060D01*
Y-860D01*
X19134D02*
Y-1160D01*
X19284D01*
X19334Y-1110D01*
Y-1010D01*
X19284Y-960D01*
X19134D01*
X18834Y-860D02*
Y-1160D01*
X18984D01*
X19034Y-1110D01*
Y-1010D01*
X18984Y-960D01*
X18834D01*
X21774Y-2580D02*
Y-2780D01*
X21674Y-2880D01*
X21574Y-2780D01*
Y-2580D01*
X21274D02*
Y-2880D01*
X21424D01*
X21474Y-2830D01*
Y-2730D01*
X21424Y-2680D01*
X21274D01*
X20974Y-2580D02*
Y-2880D01*
X21124D01*
X21174Y-2830D01*
Y-2730D01*
X21124Y-2680D01*
X20974D01*
X20214Y-2160D02*
X20264Y-2110D01*
X20364D01*
X20414Y-2160D01*
Y-2210D01*
X20364Y-2260D01*
X20264D01*
X20214Y-2310D01*
Y-2360D01*
X20264Y-2410D01*
X20364D01*
X20414Y-2360D01*
X20114Y-2110D02*
Y-2410D01*
X20014Y-2310D01*
X19914Y-2410D01*
Y-2110D01*
X19814D02*
Y-2410D01*
X19664D01*
X19614Y-2360D01*
Y-2160D01*
X19664Y-2110D01*
X19814D01*
X20214Y-1680D02*
X20264Y-1630D01*
X20364D01*
X20414Y-1680D01*
Y-1730D01*
X20364Y-1780D01*
X20264D01*
X20214Y-1830D01*
Y-1880D01*
X20264Y-1930D01*
X20364D01*
X20414Y-1880D01*
X20114Y-1630D02*
Y-1930D01*
X20014Y-1830D01*
X19914Y-1930D01*
Y-1630D01*
X19614Y-1680D02*
X19664Y-1630D01*
X19764D01*
X19814Y-1680D01*
Y-1880D01*
X19764Y-1930D01*
X19664D01*
X19614Y-1880D01*
X19514Y-1630D02*
Y-1930D01*
X19314D01*
X19214Y-1630D02*
Y-1930D01*
Y-1830D01*
X19014Y-1630D01*
X19164Y-1780D01*
X19014Y-1930D01*
X20414Y-1130D02*
X20214D01*
X20314D01*
Y-1430D01*
X20114Y-1230D02*
X19914Y-1430D01*
X20014Y-1330D01*
X19914Y-1230D01*
X20114Y-1430D01*
X20414Y-910D02*
Y-610D01*
X20264D01*
X20214Y-660D01*
Y-760D01*
X20264Y-810D01*
X20414D01*
X20314D02*
X20214Y-910D01*
X20114Y-710D02*
X19914Y-910D01*
X20014Y-810D01*
X19914Y-710D01*
X20114Y-910D01*
X20414Y-450D02*
Y-150D01*
X20264D01*
X20214Y-200D01*
Y-300D01*
X20264Y-350D01*
X20414D01*
X20314D02*
X20214Y-450D01*
X20114D02*
X19964D01*
X19914Y-400D01*
X19964Y-350D01*
X20064D01*
X20114Y-300D01*
X20064Y-250D01*
X19914D01*
X19764Y-200D02*
Y-250D01*
X19814D01*
X19714D01*
X19764D01*
Y-400D01*
X19714Y-450D01*
X21614Y1920D02*
X21564Y1970D01*
Y2070D01*
X21614Y2120D01*
X21814D01*
X21864Y2070D01*
Y1970D01*
X21814Y1920D01*
X21714D01*
Y2020D01*
X21864Y1820D02*
X21664D01*
Y1670D01*
X21714Y1620D01*
X21864D01*
X21564Y1320D02*
X21864D01*
Y1470D01*
X21814Y1520D01*
X21714D01*
X21664Y1470D01*
Y1320D01*
X21644Y-1330D02*
X21594Y-1280D01*
Y-1180D01*
X21644Y-1130D01*
X21844D01*
X21894Y-1180D01*
Y-1280D01*
X21844Y-1330D01*
X21744D01*
Y-1230D01*
X21894Y-1430D02*
X21694D01*
Y-1580D01*
X21744Y-1630D01*
X21894D01*
X21594Y-1930D02*
X21894D01*
Y-1780D01*
X21844Y-1730D01*
X21744D01*
X21694Y-1780D01*
Y-1930D01*
X4204Y-174D02*
Y-374D01*
Y-274D01*
X4504D01*
X4554Y-474D02*
Y-673D01*
X4204Y-973D02*
Y-773D01*
X4354D01*
X4304Y-873D01*
Y-923D01*
X4354Y-973D01*
X4454D01*
X4504Y-923D01*
Y-823D01*
X4454Y-773D01*
X4204Y-1073D02*
X4404D01*
X4504Y-1173D01*
X4404Y-1273D01*
X4204D01*
X2594Y116D02*
Y-84D01*
Y16D01*
X2894D01*
X2944Y-184D02*
Y-383D01*
X2644Y-483D02*
X2594Y-533D01*
Y-633D01*
X2644Y-683D01*
X2694D01*
X2744Y-633D01*
Y-583D01*
Y-633D01*
X2794Y-683D01*
X2844D01*
X2894Y-633D01*
Y-533D01*
X2844Y-483D01*
X2594Y-783D02*
X2794D01*
X2894Y-883D01*
X2794Y-983D01*
X2594D01*
X2644Y-1083D02*
X2594Y-1133D01*
Y-1233D01*
X2644Y-1283D01*
X2694D01*
X2744Y-1233D01*
Y-1183D01*
Y-1233D01*
X2794Y-1283D01*
X2844D01*
X2894Y-1233D01*
Y-1133D01*
X2844Y-1083D01*
X3374Y-164D02*
Y-364D01*
Y-264D01*
X3674D01*
X3374Y-464D02*
X3574D01*
X3674Y-563D01*
X3574Y-663D01*
X3374D01*
Y-963D02*
X3674D01*
Y-813D01*
X3624Y-763D01*
X3524D01*
X3474Y-813D01*
Y-963D01*
X3374Y-1263D02*
X3674D01*
Y-1113D01*
X3624Y-1063D01*
X3524D01*
X3474Y-1113D01*
Y-1263D01*
X7304Y-2330D02*
X7354Y-2280D01*
X7454D01*
X7504Y-2330D01*
Y-2380D01*
X7454Y-2430D01*
X7354D01*
X7304Y-2480D01*
Y-2530D01*
X7354Y-2580D01*
X7454D01*
X7504Y-2530D01*
X7204Y-2280D02*
Y-2580D01*
X7104Y-2480D01*
X7004Y-2580D01*
Y-2280D01*
X6904D02*
Y-2580D01*
X6754D01*
X6704Y-2530D01*
Y-2330D01*
X6754Y-2280D01*
X6904D01*
X6604Y-2430D02*
X6404D01*
X6304Y-2580D02*
Y-2280D01*
X6204Y-2380D01*
X6104Y-2280D01*
Y-2580D01*
X6004Y-2280D02*
Y-2580D01*
Y-2480D01*
X5804Y-2280D01*
X5954Y-2430D01*
X5804Y-2580D01*
X10850Y-1050D02*
X10650D01*
X10750D01*
Y-1350D01*
X10550D02*
Y-1050D01*
X10400D01*
X10350Y-1100D01*
Y-1200D01*
X10400Y-1250D01*
X10550D01*
X10200Y-1150D02*
X10100D01*
X10050Y-1200D01*
Y-1350D01*
X10200D01*
X10250Y-1300D01*
X10200Y-1250D01*
X10050D01*
X10590Y-2560D02*
X10640Y-2510D01*
X10740D01*
X10790Y-2560D01*
Y-2760D01*
X10740Y-2810D01*
X10640D01*
X10590Y-2760D01*
Y-2660D01*
X10690D01*
X10490Y-2810D02*
Y-2610D01*
X10340D01*
X10290Y-2660D01*
Y-2810D01*
X9990Y-2510D02*
Y-2810D01*
X10140D01*
X10190Y-2760D01*
Y-2660D01*
X10140Y-2610D01*
X9990D01*
D48*
X11870Y820D02*
X11970D01*
X12020Y770D01*
Y570D01*
X11970Y520D01*
X11870D01*
X11820Y570D01*
Y770D01*
X11870Y820D01*
X11520Y770D02*
X11570Y820D01*
X11670D01*
X11720Y770D01*
Y720D01*
X11670Y670D01*
X11570D01*
X11520Y620D01*
Y570D01*
X11570Y520D01*
X11670D01*
X11720Y570D01*
X11420Y820D02*
Y520D01*
Y670D01*
X11220D01*
Y820D01*
Y520D01*
X11120Y820D02*
Y520D01*
X11020Y620D01*
X10920Y520D01*
Y820D01*
D72*
X16640Y3230D02*
Y2997D01*
X16523Y2880D01*
X16407Y2997D01*
Y3230D01*
X16290Y3172D02*
X16232Y3230D01*
X16115D01*
X16057Y3172D01*
Y3113D01*
X16115Y3055D01*
X16173D01*
X16115D01*
X16057Y2997D01*
Y2938D01*
X16115Y2880D01*
X16232D01*
X16290Y2938D01*
X15940Y2880D02*
Y2938D01*
X15882D01*
Y2880D01*
X15940D01*
X15649Y3172D02*
X15590Y3230D01*
X15474D01*
X15415Y3172D01*
Y3113D01*
X15474Y3055D01*
X15532D01*
X15474D01*
X15415Y2997D01*
Y2938D01*
X15474Y2880D01*
X15590D01*
X15649Y2938D01*
M02*
