G04 Layer_Physical_Order=1*
G04 Layer_Color=255*
%FSLAX23Y23*%
%MOIN*%
G70*
G01*
G75*
%ADD10R,0.043X0.039*%
G04:AMPARAMS|DCode=11|XSize=39mil|YSize=22mil|CornerRadius=5mil|HoleSize=0mil|Usage=FLASHONLY|Rotation=270.000|XOffset=0mil|YOffset=0mil|HoleType=Round|Shape=RoundedRectangle|*
%AMROUNDEDRECTD11*
21,1,0.039,0.011,0,0,270.0*
21,1,0.029,0.022,0,0,270.0*
1,1,0.011,-0.005,-0.014*
1,1,0.011,-0.005,0.014*
1,1,0.011,0.005,0.014*
1,1,0.011,0.005,-0.014*
%
%ADD11ROUNDEDRECTD11*%
%ADD12R,0.039X0.043*%
%ADD13R,0.051X0.059*%
%ADD14R,0.039X0.067*%
G04:AMPARAMS|DCode=15|XSize=16mil|YSize=33mil|CornerRadius=4mil|HoleSize=0mil|Usage=FLASHONLY|Rotation=90.000|XOffset=0mil|YOffset=0mil|HoleType=Round|Shape=RoundedRectangle|*
%AMROUNDEDRECTD15*
21,1,0.016,0.026,0,0,90.0*
21,1,0.008,0.033,0,0,90.0*
1,1,0.008,0.013,0.004*
1,1,0.008,0.013,-0.004*
1,1,0.008,-0.013,-0.004*
1,1,0.008,-0.013,0.004*
%
%ADD15ROUNDEDRECTD15*%
G04:AMPARAMS|DCode=16|XSize=16mil|YSize=41mil|CornerRadius=4mil|HoleSize=0mil|Usage=FLASHONLY|Rotation=90.000|XOffset=0mil|YOffset=0mil|HoleType=Round|Shape=RoundedRectangle|*
%AMROUNDEDRECTD16*
21,1,0.016,0.033,0,0,90.0*
21,1,0.008,0.041,0,0,90.0*
1,1,0.008,0.017,0.004*
1,1,0.008,0.017,-0.004*
1,1,0.008,-0.017,-0.004*
1,1,0.008,-0.017,0.004*
%
%ADD16ROUNDEDRECTD16*%
%ADD17R,0.031X0.047*%
%ADD18R,0.075X0.094*%
%ADD19R,0.075X0.046*%
%ADD20R,0.054X0.018*%
%ADD21R,0.083X0.058*%
%ADD22O,0.010X0.071*%
%ADD23O,0.071X0.010*%
%ADD24C,0.010*%
%ADD25C,0.016*%
%ADD26C,0.020*%
%ADD27C,0.008*%
%ADD28C,0.014*%
%ADD29R,0.055X0.031*%
%ADD30R,0.016X0.039*%
%ADD31C,0.028*%
%ADD32R,0.039X0.039*%
%ADD33C,0.039*%
%ADD34R,0.039X0.039*%
%ADD35C,0.055*%
%ADD36O,0.062X0.055*%
%ADD37R,0.062X0.055*%
%ADD38C,0.047*%
%ADD39R,0.047X0.047*%
%ADD40C,0.027*%
%ADD41C,0.031*%
G36*
X2038Y-402D02*
X-153D01*
Y402D01*
X342D01*
X344Y397D01*
X327Y381D01*
X294D01*
Y329D01*
X322D01*
Y317D01*
X293D01*
Y265D01*
X335D01*
X413Y188D01*
Y183D01*
X408Y180D01*
X408Y180D01*
X404Y181D01*
X343D01*
X338Y180D01*
X335Y178D01*
X332Y174D01*
X331Y170D01*
X332Y165D01*
X334Y163D01*
X334Y160D01*
X334Y156D01*
X332Y154D01*
X331Y150D01*
X332Y146D01*
X334Y144D01*
X334Y140D01*
X334Y137D01*
X332Y135D01*
X331Y130D01*
X332Y126D01*
X334Y124D01*
X334Y120D01*
X334Y117D01*
X333Y116D01*
X373D01*
Y106D01*
X332D01*
X331Y105D01*
X329Y102D01*
X320D01*
X315Y107D01*
Y151D01*
X315Y151D01*
X314Y155D01*
X312Y159D01*
X312Y159D01*
X296Y175D01*
Y184D01*
X296Y184D01*
X295Y188D01*
X293Y192D01*
X293Y192D01*
X277Y208D01*
Y236D01*
X222D01*
Y187D01*
X222Y184D01*
X222D01*
Y182D01*
X222Y182D01*
Y130D01*
X222Y130D01*
X222Y128D01*
X222D01*
X222Y125D01*
Y76D01*
X259D01*
X291Y45D01*
X290Y43D01*
X292Y35D01*
X296Y29D01*
X302Y25D01*
X310Y23D01*
X313Y24D01*
X316Y22D01*
X320Y21D01*
X329D01*
X331Y18D01*
X332Y16D01*
X331Y12D01*
X332Y9D01*
X331Y7D01*
X329Y4D01*
X322D01*
X311Y15D01*
X307Y17D01*
X303Y18D01*
X231D01*
X226Y17D01*
X223Y15D01*
X208Y-0D01*
X205Y-4D01*
X205Y-4D01*
X193D01*
Y-4D01*
X190Y-4D01*
X190Y-4D01*
X140D01*
X138Y-4D01*
X133Y-4D01*
X114D01*
Y-32D01*
Y-59D01*
X133D01*
X135Y-59D01*
X140Y-59D01*
X190D01*
Y-59D01*
X193Y-59D01*
Y-59D01*
X227D01*
X229Y-64D01*
X222Y-71D01*
X195D01*
X193Y-71D01*
X188Y-71D01*
X169D01*
Y-98D01*
Y-126D01*
X188D01*
X190Y-126D01*
X195Y-126D01*
X243D01*
X245Y-126D01*
Y-126D01*
X248D01*
X248Y-126D01*
X269D01*
Y-98D01*
Y-71D01*
X260D01*
X258Y-66D01*
X265Y-59D01*
X300D01*
Y-55D01*
X304Y-53D01*
X326Y-74D01*
X329Y-77D01*
X330Y-77D01*
X332Y-82D01*
X331Y-86D01*
X332Y-91D01*
X334Y-93D01*
X334Y-96D01*
X334Y-100D01*
X333Y-101D01*
X373D01*
Y-111D01*
X333D01*
X334Y-112D01*
X334Y-116D01*
X334Y-119D01*
X333Y-121D01*
X413D01*
X412Y-119D01*
X412Y-116D01*
X412Y-112D01*
X413Y-111D01*
X419Y-110D01*
X421Y-112D01*
X422Y-114D01*
X423Y-117D01*
Y-147D01*
X423Y-149D01*
X424Y-151D01*
X426Y-153D01*
X426Y-153D01*
X426Y-154D01*
X428Y-154D01*
X430Y-155D01*
X430Y-155D01*
X431Y-156D01*
X433Y-160D01*
X433Y-161D01*
X432Y-165D01*
Y-226D01*
X433Y-230D01*
X435Y-234D01*
X439Y-236D01*
X443Y-237D01*
X447Y-236D01*
X452Y-238D01*
X452Y-239D01*
X452Y-239D01*
X428Y-264D01*
X425Y-268D01*
X425Y-272D01*
Y-288D01*
X420Y-288D01*
X418Y-285D01*
X414Y-280D01*
X409Y-276D01*
X402Y-273D01*
X401Y-273D01*
Y-298D01*
X396D01*
Y-303D01*
X370D01*
X371Y-305D01*
X373Y-311D01*
X377Y-316D01*
X382Y-320D01*
X383Y-323D01*
Y-323D01*
X382Y-326D01*
X377Y-330D01*
X373Y-335D01*
X371Y-341D01*
X370Y-348D01*
X371Y-355D01*
X373Y-361D01*
X377Y-366D01*
X383Y-370D01*
X389Y-373D01*
X396Y-374D01*
X402Y-373D01*
X409Y-370D01*
X414Y-366D01*
X418Y-361D01*
X421Y-361D01*
X421D01*
X423Y-361D01*
X427Y-366D01*
X433Y-370D01*
X439Y-373D01*
X446Y-374D01*
X452Y-373D01*
X459Y-370D01*
X464Y-366D01*
X468Y-361D01*
X471Y-361D01*
X471D01*
X473Y-361D01*
X477Y-366D01*
X483Y-370D01*
X489Y-373D01*
X496Y-374D01*
X502Y-373D01*
X509Y-370D01*
X514Y-366D01*
X518Y-361D01*
X521Y-361D01*
X521D01*
X523Y-361D01*
X527Y-366D01*
X533Y-370D01*
X535Y-371D01*
X535Y-372D01*
X538Y-376D01*
X549Y-387D01*
X553Y-390D01*
X557Y-391D01*
X630D01*
X635Y-390D01*
X638Y-387D01*
X657Y-369D01*
X659Y-369D01*
X667Y-367D01*
X673Y-363D01*
X677Y-357D01*
X679Y-349D01*
X677Y-341D01*
X673Y-335D01*
X667Y-331D01*
X659Y-329D01*
X651Y-331D01*
X647Y-333D01*
X642Y-331D01*
Y-269D01*
X641Y-265D01*
X639Y-261D01*
X631Y-253D01*
X627Y-251D01*
X623Y-250D01*
X613D01*
X612Y-249D01*
Y-239D01*
X615Y-237D01*
X617Y-236D01*
X620Y-237D01*
X624Y-236D01*
X627Y-235D01*
X630Y-234D01*
X633Y-235D01*
X636Y-236D01*
X640Y-237D01*
X644Y-236D01*
X646Y-235D01*
X650Y-234D01*
X653Y-235D01*
X655Y-236D01*
X660Y-237D01*
X664Y-236D01*
X666Y-235D01*
X669Y-234D01*
X673Y-235D01*
X675Y-236D01*
X679Y-237D01*
X683Y-236D01*
X685Y-237D01*
X688Y-239D01*
Y-248D01*
X685D01*
Y-303D01*
X737D01*
Y-248D01*
X710D01*
Y-239D01*
X713Y-237D01*
X714Y-237D01*
Y-196D01*
X724D01*
Y-236D01*
X725Y-235D01*
X728Y-234D01*
X732Y-235D01*
X734Y-236D01*
X738Y-237D01*
X743Y-236D01*
X746Y-234D01*
X749Y-230D01*
X749Y-226D01*
Y-165D01*
X749Y-161D01*
X746Y-157D01*
X743Y-155D01*
X738Y-154D01*
X734Y-155D01*
X732Y-156D01*
X728Y-157D01*
X725Y-156D01*
X723Y-155D01*
X723Y-154D01*
X722Y-149D01*
X726Y-145D01*
X728Y-144D01*
X731Y-143D01*
X747D01*
X750Y-144D01*
X751Y-145D01*
X752Y-146D01*
X753Y-147D01*
X754Y-148D01*
X755Y-148D01*
X756Y-148D01*
X757Y-148D01*
X759Y-148D01*
X764Y-147D01*
X765Y-146D01*
X767Y-145D01*
X767Y-144D01*
X768Y-144D01*
X768Y-142D01*
X768Y-141D01*
Y-139D01*
X773Y-136D01*
X773Y-136D01*
X778Y-137D01*
X835D01*
X837Y-142D01*
X783Y-196D01*
X781Y-200D01*
X780Y-204D01*
Y-276D01*
X777Y-278D01*
X773Y-284D01*
X771Y-292D01*
X773Y-300D01*
X777Y-306D01*
X783Y-310D01*
X791Y-312D01*
X799Y-310D01*
X805Y-306D01*
X809Y-300D01*
X811Y-292D01*
X809Y-284D01*
X805Y-278D01*
X802Y-276D01*
Y-209D01*
X840Y-171D01*
X845Y-173D01*
X844Y-176D01*
X845Y-185D01*
X849Y-193D01*
X854Y-200D01*
X861Y-205D01*
X869Y-209D01*
X878Y-210D01*
X887Y-209D01*
X895Y-205D01*
X902Y-200D01*
X906Y-195D01*
X911Y-197D01*
Y-268D01*
X912Y-273D01*
X914Y-276D01*
X926Y-289D01*
X926Y-292D01*
X927Y-300D01*
X932Y-306D01*
X938Y-310D01*
X946Y-312D01*
X953Y-310D01*
X960Y-306D01*
X964Y-300D01*
X966Y-292D01*
X964Y-284D01*
X960Y-278D01*
X953Y-274D01*
X951Y-273D01*
Y-268D01*
X954Y-267D01*
X961Y-263D01*
X965Y-257D01*
X967Y-249D01*
X965Y-241D01*
X961Y-235D01*
X958Y-233D01*
Y-203D01*
X963Y-201D01*
X1027Y-265D01*
Y-279D01*
X1028Y-284D01*
X1031Y-287D01*
X1054Y-311D01*
X1058Y-313D01*
X1062Y-314D01*
X1070D01*
X1070Y-314D01*
X1072Y-319D01*
X1071Y-321D01*
X1071Y-324D01*
X1124D01*
X1123Y-321D01*
X1121Y-318D01*
Y-314D01*
X1123Y-311D01*
X1124Y-307D01*
Y-299D01*
X1123Y-295D01*
X1121Y-292D01*
Y-289D01*
X1123Y-285D01*
X1124Y-282D01*
Y-274D01*
X1123Y-270D01*
X1121Y-266D01*
Y-263D01*
X1123Y-260D01*
X1124Y-256D01*
Y-248D01*
X1123Y-244D01*
X1121Y-241D01*
X1118Y-239D01*
X1114Y-238D01*
X1111D01*
Y-221D01*
X1139D01*
Y-170D01*
X1084D01*
Y-187D01*
X1079Y-190D01*
X1075Y-187D01*
X1067Y-185D01*
X1059Y-187D01*
X1053Y-191D01*
X1049Y-198D01*
X1047Y-205D01*
X1049Y-213D01*
X1053Y-219D01*
X1059Y-224D01*
X1067Y-225D01*
X1075Y-224D01*
X1078Y-221D01*
X1083Y-224D01*
Y-238D01*
X1081D01*
X1077Y-239D01*
X1073Y-241D01*
X1072Y-243D01*
X1067Y-243D01*
X1066Y-243D01*
X1066Y-242D01*
X1066Y-242D01*
X998Y-174D01*
Y-96D01*
X998Y-96D01*
X997Y-92D01*
X995Y-88D01*
X935Y-29D01*
X938Y-24D01*
X991D01*
Y24D01*
X1002D01*
Y7D01*
X1058D01*
Y24D01*
X1078D01*
X1081Y21D01*
X1085Y19D01*
X1089Y18D01*
X1163D01*
X1168Y19D01*
X1171Y21D01*
X1193Y43D01*
X1195Y46D01*
X1196Y50D01*
X1196Y50D01*
X1200Y49D01*
X1201Y48D01*
X1202Y44D01*
X1204Y41D01*
X1208Y38D01*
X1211Y38D01*
X1237D01*
X1241Y38D01*
X1244Y41D01*
X1299D01*
Y21D01*
X1354D01*
Y73D01*
X1299D01*
Y63D01*
X1248D01*
X1248Y63D01*
X1245Y68D01*
X1246Y70D01*
X1247Y73D01*
Y81D01*
X1247Y85D01*
X1247Y85D01*
X1249Y90D01*
X1255D01*
X1256Y89D01*
X1262Y85D01*
X1270Y83D01*
X1278Y85D01*
X1284Y89D01*
X1285Y90D01*
X1299D01*
Y88D01*
X1354D01*
Y139D01*
X1299D01*
Y116D01*
X1285D01*
X1284Y117D01*
X1278Y121D01*
X1270Y123D01*
X1262Y121D01*
X1256Y117D01*
X1255Y116D01*
X1241D01*
X1241Y116D01*
X1237Y117D01*
X1211D01*
X1208Y116D01*
X1204Y114D01*
X1202Y111D01*
X1201Y107D01*
Y99D01*
X1202Y95D01*
X1203Y93D01*
X1203Y92D01*
X1202Y89D01*
X1201Y88D01*
X1198Y88D01*
X1195Y85D01*
X1195Y85D01*
X1177Y68D01*
X1175Y64D01*
X1174Y60D01*
Y55D01*
X1163Y45D01*
X1158Y47D01*
X1159Y48D01*
Y56D01*
X1158Y60D01*
X1156Y63D01*
Y66D01*
X1158Y70D01*
X1158Y72D01*
X1113D01*
X1114Y70D01*
X1114Y69D01*
X1111Y64D01*
X1086D01*
X1072Y78D01*
X1068Y80D01*
X1064Y81D01*
X1058D01*
Y96D01*
X1002D01*
Y46D01*
X991D01*
Y96D01*
X936D01*
Y79D01*
X931D01*
X913Y96D01*
X915Y102D01*
X915Y102D01*
X922Y106D01*
X926Y112D01*
X928Y120D01*
X927Y123D01*
X940Y136D01*
X977D01*
Y188D01*
X922D01*
Y150D01*
X911Y139D01*
X908Y140D01*
X900Y138D01*
X894Y134D01*
X889Y128D01*
X889Y125D01*
X883Y123D01*
X869Y138D01*
X865Y141D01*
X861Y141D01*
X852D01*
X850Y144D01*
X850Y145D01*
X808D01*
Y155D01*
X848D01*
X848Y156D01*
X847Y160D01*
X848Y163D01*
X849Y165D01*
X850Y170D01*
X849Y174D01*
X847Y178D01*
X843Y180D01*
X839Y181D01*
X820D01*
Y208D01*
X847D01*
Y260D01*
X792D01*
Y208D01*
X798D01*
Y181D01*
X768D01*
Y192D01*
X767Y197D01*
X762Y198D01*
X750D01*
X748Y203D01*
X749Y205D01*
X749Y209D01*
Y260D01*
X753Y263D01*
X771D01*
X775Y264D01*
X779Y266D01*
X783Y271D01*
X945D01*
Y260D01*
X922D01*
Y208D01*
X977D01*
Y260D01*
X967D01*
Y271D01*
X1026D01*
X1033Y264D01*
X1031Y260D01*
X1022D01*
Y239D01*
X1044D01*
Y246D01*
X1049Y248D01*
X1053Y244D01*
Y221D01*
X1054Y217D01*
X1057Y214D01*
X1070Y200D01*
X1070Y200D01*
X1074Y197D01*
X1078Y196D01*
X1177D01*
X1181Y197D01*
X1185Y200D01*
X1206Y221D01*
X1236D01*
X1239Y219D01*
X1243Y219D01*
X1276D01*
X1280Y219D01*
X1284Y222D01*
X1286Y225D01*
X1287Y229D01*
Y237D01*
X1286Y238D01*
X1291Y240D01*
X1328Y203D01*
X1332Y200D01*
X1336Y199D01*
X1354D01*
Y176D01*
X1409D01*
Y227D01*
X1354D01*
Y222D01*
X1341D01*
X1313Y249D01*
X1315Y254D01*
X1354D01*
Y239D01*
X1409D01*
Y291D01*
X1354D01*
Y277D01*
X1314D01*
X1307Y283D01*
X1309Y289D01*
X1311Y289D01*
X1317Y294D01*
X1321Y300D01*
X1323Y308D01*
X1321Y315D01*
X1317Y322D01*
X1311Y326D01*
X1303Y328D01*
X1295Y326D01*
X1291Y323D01*
X1278D01*
X1276Y323D01*
X1263D01*
Y334D01*
X1276D01*
Y386D01*
X1221D01*
Y334D01*
X1235D01*
Y319D01*
X1234Y317D01*
X1233Y313D01*
Y305D01*
X1234Y302D01*
X1236Y298D01*
Y295D01*
X1234Y292D01*
X1233Y288D01*
Y280D01*
X1234Y276D01*
X1236Y273D01*
Y269D01*
X1234Y266D01*
X1233Y262D01*
Y254D01*
X1234Y250D01*
X1235Y248D01*
X1233Y244D01*
X1233Y243D01*
X1202D01*
X1197Y243D01*
X1194Y240D01*
X1172Y219D01*
X1132D01*
X1130Y224D01*
X1130Y225D01*
X1131Y228D01*
X1104D01*
Y238D01*
X1131D01*
X1130Y240D01*
X1128Y244D01*
Y247D01*
X1130Y250D01*
X1131Y254D01*
Y262D01*
X1130Y266D01*
X1128Y269D01*
Y273D01*
X1130Y276D01*
X1131Y280D01*
Y288D01*
X1130Y292D01*
X1128Y295D01*
Y298D01*
X1130Y302D01*
X1131Y305D01*
Y313D01*
X1130Y317D01*
X1128Y320D01*
X1125Y323D01*
X1121Y323D01*
X1118D01*
Y333D01*
X1117Y338D01*
X1114Y343D01*
X1100Y357D01*
X1096Y360D01*
X1090Y361D01*
X1085D01*
X1079Y365D01*
X1071Y367D01*
X1063Y365D01*
X1057Y361D01*
X941D01*
X905Y397D01*
X907Y402D01*
X2038D01*
Y-402D01*
D02*
G37*
G36*
X762Y191D02*
Y181D01*
Y-29D01*
X757Y-31D01*
X755Y-30D01*
X747Y-28D01*
X739Y-30D01*
X733Y-34D01*
X729Y-40D01*
X727Y-48D01*
X729Y-56D01*
X733Y-62D01*
X739Y-66D01*
X747Y-68D01*
X755Y-66D01*
X757Y-65D01*
X762Y-67D01*
Y-137D01*
X758Y-140D01*
X756Y-140D01*
X752Y-138D01*
X748Y-137D01*
X730D01*
X726Y-138D01*
X722Y-140D01*
X722Y-141D01*
X722Y-141D01*
X713Y-149D01*
X561D01*
X559Y-144D01*
X560Y-142D01*
X561Y-143D01*
X569Y-141D01*
X575Y-137D01*
X579Y-130D01*
X581Y-123D01*
X579Y-115D01*
X575Y-109D01*
X569Y-104D01*
X561Y-103D01*
X553Y-104D01*
X547Y-109D01*
X543Y-115D01*
X541Y-123D01*
X542Y-126D01*
X534Y-134D01*
X531Y-138D01*
X530Y-142D01*
Y-149D01*
X432D01*
X431Y-149D01*
X431Y-149D01*
X431Y-148D01*
X430Y-148D01*
X430Y-148D01*
X430Y-147D01*
X429Y-147D01*
Y-147D01*
X429Y-146D01*
Y-116D01*
X429Y-116D01*
X428Y-112D01*
X426Y-109D01*
X426Y-109D01*
X426Y-108D01*
X426Y-108D01*
X419Y-101D01*
Y192D01*
X491D01*
Y184D01*
X492Y180D01*
X494Y176D01*
X501Y169D01*
X501Y167D01*
X502Y159D01*
X507Y153D01*
X513Y149D01*
X521Y147D01*
X528Y149D01*
X535Y153D01*
X539Y159D01*
X541Y167D01*
X539Y175D01*
X535Y181D01*
X533Y182D01*
Y192D01*
X668D01*
Y156D01*
X666Y155D01*
X662Y149D01*
X660Y141D01*
X662Y133D01*
X666Y127D01*
X672Y123D01*
X680Y121D01*
X688Y123D01*
X694Y127D01*
X698Y133D01*
X700Y141D01*
X698Y149D01*
X694Y155D01*
X690Y158D01*
Y192D01*
X758D01*
X762Y191D01*
D02*
G37*
G36*
X389Y333D02*
X406D01*
Y323D01*
X407Y319D01*
X409Y315D01*
X432Y292D01*
Y270D01*
Y241D01*
Y216D01*
X427Y213D01*
X350Y290D01*
Y364D01*
X366Y380D01*
X389D01*
Y333D01*
D02*
G37*
G36*
X706Y345D02*
X691Y330D01*
X689Y326D01*
X688Y322D01*
Y310D01*
X636D01*
X617Y328D01*
X620Y333D01*
X641D01*
Y354D01*
X614D01*
Y364D01*
X641D01*
Y380D01*
X706D01*
Y345D01*
D02*
G37*
%LPC*%
G36*
X1490Y-174D02*
X1469D01*
Y-197D01*
X1490D01*
Y-174D01*
D02*
G37*
G36*
X299Y-141D02*
X240D01*
Y-201D01*
X299D01*
Y-141D01*
D02*
G37*
G36*
X191Y-141D02*
X183Y-142D01*
X176Y-145D01*
X170Y-150D01*
X165Y-156D01*
X162Y-163D01*
X161Y-171D01*
X162Y-179D01*
X165Y-186D01*
X170Y-192D01*
X176Y-197D01*
X183Y-200D01*
X191Y-201D01*
X199Y-200D01*
X206Y-197D01*
X212Y-192D01*
X217Y-186D01*
X220Y-179D01*
X221Y-171D01*
X220Y-163D01*
X217Y-156D01*
X212Y-150D01*
X206Y-145D01*
X199Y-142D01*
X191Y-141D01*
D02*
G37*
G36*
X1550Y-174D02*
X1529D01*
Y-197D01*
X1550D01*
Y-174D01*
D02*
G37*
G36*
X1581D02*
X1560D01*
Y-197D01*
X1581D01*
Y-174D01*
D02*
G37*
G36*
X1521Y-174D02*
X1500D01*
Y-197D01*
X1521D01*
Y-174D01*
D02*
G37*
G36*
Y-207D02*
X1500D01*
Y-230D01*
X1521D01*
Y-207D01*
D02*
G37*
G36*
X1550Y-207D02*
X1529D01*
Y-230D01*
X1550D01*
Y-207D01*
D02*
G37*
G36*
X1354Y-214D02*
X1332D01*
Y-235D01*
X1354D01*
Y-214D01*
D02*
G37*
G36*
X1490Y-207D02*
X1469D01*
Y-230D01*
X1490D01*
Y-207D01*
D02*
G37*
G36*
X1206Y-200D02*
X1183D01*
Y-221D01*
X1206D01*
Y-200D01*
D02*
G37*
G36*
X-22Y-175D02*
X-30Y-177D01*
X-36Y-181D01*
X-40Y-187D01*
X-42Y-195D01*
X-40Y-203D01*
X-36Y-209D01*
Y-212D01*
X-39Y-215D01*
X-44Y-215D01*
X-46Y-212D01*
X-49Y-210D01*
X-54Y-209D01*
X-54D01*
Y-235D01*
Y-261D01*
X-54D01*
X-49Y-260D01*
X-46Y-257D01*
X-43Y-254D01*
X-43Y-254D01*
X-38Y-254D01*
X-38Y-254D01*
X-36Y-257D01*
X-32Y-260D01*
X-27Y-261D01*
X-17D01*
X-12Y-260D01*
X-8Y-257D01*
X-6Y-254D01*
X-5Y-251D01*
X10D01*
Y-272D01*
X61D01*
Y-217D01*
X10D01*
Y-223D01*
X-5D01*
Y-221D01*
X-6Y-216D01*
X-8Y-213D01*
Y-209D01*
X-4Y-203D01*
X-2Y-195D01*
X-4Y-187D01*
X-8Y-181D01*
X-14Y-177D01*
X-22Y-175D01*
D02*
G37*
G36*
X1581Y-207D02*
X1560D01*
Y-230D01*
X1581D01*
Y-207D01*
D02*
G37*
G36*
X1173Y-200D02*
X1151D01*
Y-221D01*
X1173D01*
Y-200D01*
D02*
G37*
G36*
X104Y-37D02*
X83D01*
Y-59D01*
X104D01*
Y-37D01*
D02*
G37*
G36*
X1291Y11D02*
X1236D01*
Y-41D01*
X1256D01*
Y-55D01*
X1255Y-55D01*
X1241D01*
X1241Y-55D01*
X1237Y-54D01*
X1211D01*
X1207Y-55D01*
X1204Y-57D01*
X1202Y-61D01*
X1201Y-64D01*
Y-72D01*
X1202Y-76D01*
X1203Y-78D01*
X1201Y-83D01*
X1201Y-83D01*
X1199D01*
X1199Y-83D01*
X1195Y-84D01*
X1191Y-86D01*
X1191Y-86D01*
X1175Y-103D01*
X1172Y-106D01*
X1171Y-111D01*
Y-117D01*
X1163Y-125D01*
X1161Y-124D01*
X1158Y-123D01*
Y-116D01*
X1158Y-112D01*
X1155Y-108D01*
Y-105D01*
X1158Y-102D01*
X1158Y-99D01*
X1113D01*
X1113Y-102D01*
X1114Y-103D01*
X1112Y-108D01*
X1112Y-108D01*
X1085D01*
X1057Y-80D01*
X1054Y-78D01*
X1049Y-77D01*
X1046D01*
X1044Y-74D01*
X1038Y-70D01*
X1030Y-68D01*
X1022Y-70D01*
X1016Y-74D01*
X1012Y-81D01*
X1010Y-88D01*
X1012Y-96D01*
X1016Y-102D01*
X1019Y-104D01*
Y-110D01*
X1016Y-112D01*
X1012Y-119D01*
X1010Y-126D01*
X1012Y-134D01*
X1016Y-140D01*
X1022Y-145D01*
X1030Y-146D01*
X1038Y-145D01*
X1044Y-140D01*
X1045Y-140D01*
X1050Y-139D01*
X1060Y-149D01*
X1060Y-149D01*
X1064Y-151D01*
X1068Y-152D01*
X1163D01*
X1167Y-151D01*
X1171Y-149D01*
X1190Y-129D01*
X1193Y-126D01*
X1194Y-121D01*
Y-115D01*
X1197Y-112D01*
X1201Y-114D01*
X1201Y-116D01*
Y-124D01*
X1202Y-127D01*
X1204Y-131D01*
X1207Y-133D01*
X1211Y-134D01*
X1237D01*
X1241Y-133D01*
X1244Y-131D01*
X1290D01*
X1292Y-136D01*
X1283Y-144D01*
X1281Y-148D01*
X1280Y-152D01*
Y-237D01*
X1275Y-240D01*
X1273Y-239D01*
X1269Y-238D01*
X1266D01*
Y-232D01*
X1270Y-226D01*
X1272Y-218D01*
X1270Y-211D01*
X1266Y-204D01*
X1260Y-200D01*
X1252Y-198D01*
X1244Y-200D01*
X1238Y-204D01*
X1234Y-211D01*
X1232Y-218D01*
X1234Y-226D01*
X1238Y-232D01*
Y-238D01*
X1236D01*
X1232Y-239D01*
X1229Y-241D01*
X1227Y-244D01*
X1226Y-248D01*
Y-256D01*
X1227Y-260D01*
X1229Y-263D01*
Y-266D01*
X1227Y-270D01*
X1226Y-274D01*
Y-282D01*
X1227Y-285D01*
X1229Y-289D01*
Y-292D01*
X1227Y-295D01*
X1226Y-299D01*
Y-307D01*
X1227Y-311D01*
X1229Y-314D01*
Y-318D01*
X1227Y-321D01*
X1226Y-324D01*
X1279D01*
X1279Y-321D01*
X1278Y-319D01*
X1280Y-314D01*
X1280Y-314D01*
X1299D01*
Y-333D01*
X1354D01*
Y-282D01*
X1303D01*
X1301Y-277D01*
X1301Y-276D01*
X1302Y-272D01*
Y-266D01*
X1322D01*
Y-240D01*
Y-214D01*
X1302D01*
Y-157D01*
X1309Y-150D01*
X1354D01*
Y-98D01*
X1299D01*
Y-109D01*
X1247D01*
X1247Y-108D01*
X1245Y-104D01*
X1246Y-102D01*
X1247Y-98D01*
Y-90D01*
X1246Y-87D01*
X1246Y-86D01*
X1249Y-82D01*
X1255D01*
X1256Y-83D01*
X1262Y-87D01*
X1270Y-88D01*
X1277Y-87D01*
X1284Y-83D01*
X1285Y-82D01*
X1299D01*
Y-82D01*
X1354D01*
Y-31D01*
X1299D01*
Y-55D01*
X1284D01*
X1284Y-55D01*
Y-41D01*
X1291D01*
Y11D01*
D02*
G37*
G36*
X300Y-71D02*
X279D01*
Y-93D01*
X300D01*
Y-71D01*
D02*
G37*
G36*
X1090Y-21D02*
X1082Y-23D01*
X1076Y-27D01*
X1072Y-34D01*
X1070Y-41D01*
X1072Y-49D01*
X1076Y-55D01*
X1082Y-60D01*
X1090Y-61D01*
X1107Y-78D01*
X1111Y-81D01*
X1112Y-83D01*
X1113Y-86D01*
X1113Y-89D01*
X1158D01*
X1158Y-86D01*
X1155Y-83D01*
Y-80D01*
X1158Y-76D01*
X1158Y-72D01*
Y-64D01*
X1158Y-61D01*
X1155Y-57D01*
X1152Y-55D01*
X1148Y-54D01*
X1136D01*
X1136Y-54D01*
X1123D01*
X1110Y-41D01*
X1108Y-34D01*
X1104Y-27D01*
X1098Y-23D01*
X1090Y-21D01*
D02*
G37*
G36*
X104Y-4D02*
X83D01*
Y-27D01*
X104D01*
Y-4D01*
D02*
G37*
G36*
X1025Y-3D02*
X1002D01*
Y-24D01*
X1025D01*
Y-3D01*
D02*
G37*
G36*
X1191Y-20D02*
X1169D01*
Y-41D01*
X1191D01*
Y-20D01*
D02*
G37*
G36*
X1224D02*
X1201D01*
Y-41D01*
X1224D01*
Y-20D01*
D02*
G37*
G36*
X671Y27D02*
X663Y25D01*
X657Y21D01*
X652Y15D01*
X651Y7D01*
X652Y-1D01*
X657Y-7D01*
X661Y-10D01*
Y-66D01*
X657Y-69D01*
X652Y-75D01*
X651Y-83D01*
X652Y-91D01*
X657Y-97D01*
X663Y-101D01*
X671Y-103D01*
X678Y-101D01*
X685Y-97D01*
X689Y-91D01*
X691Y-83D01*
X689Y-75D01*
X685Y-69D01*
X681Y-66D01*
Y-10D01*
X685Y-7D01*
X689Y-1D01*
X691Y7D01*
X689Y15D01*
X685Y21D01*
X678Y25D01*
X671Y27D01*
D02*
G37*
G36*
X1831Y-174D02*
X1779D01*
Y-188D01*
X1771D01*
Y-174D01*
X1719D01*
Y-230D01*
X1771D01*
Y-216D01*
X1779D01*
Y-230D01*
X1831D01*
Y-174D01*
D02*
G37*
G36*
X368Y-131D02*
X333D01*
X335Y-134D01*
X338Y-136D01*
X343Y-137D01*
X368D01*
Y-131D01*
D02*
G37*
G36*
X1173Y-170D02*
X1151D01*
Y-190D01*
X1173D01*
Y-170D01*
D02*
G37*
G36*
X1206D02*
X1183D01*
Y-190D01*
X1206D01*
Y-170D01*
D02*
G37*
G36*
X300Y-103D02*
X279D01*
Y-126D01*
X300D01*
Y-103D01*
D02*
G37*
G36*
X1971Y-100D02*
Y-120D01*
X1991D01*
X1991Y-118D01*
X1988Y-112D01*
X1984Y-107D01*
X1979Y-103D01*
X1972Y-100D01*
X1971Y-100D01*
D02*
G37*
G36*
X413Y-131D02*
X378D01*
Y-137D01*
X404D01*
X408Y-136D01*
X412Y-134D01*
X413Y-131D01*
D02*
G37*
G36*
X138Y-71D02*
X135D01*
X133Y-71D01*
X83D01*
Y-126D01*
X98D01*
Y-145D01*
X97Y-145D01*
X91Y-150D01*
X86Y-156D01*
X83Y-163D01*
X82Y-171D01*
X83Y-179D01*
X86Y-186D01*
X91Y-192D01*
X97Y-197D01*
X98Y-197D01*
Y-225D01*
X96D01*
Y-284D01*
X139D01*
Y-225D01*
X126D01*
Y-197D01*
X127Y-197D01*
X133Y-192D01*
X138Y-186D01*
X141Y-179D01*
X142Y-171D01*
X141Y-163D01*
X138Y-156D01*
X133Y-150D01*
X127Y-145D01*
X126Y-145D01*
Y-130D01*
X130Y-126D01*
X138Y-126D01*
X140Y-126D01*
X159D01*
Y-98D01*
Y-71D01*
X140D01*
X138Y-71D01*
D02*
G37*
G36*
X214Y-225D02*
X197D01*
Y-250D01*
X214D01*
Y-225D01*
D02*
G37*
G36*
X1831Y-241D02*
X1779D01*
Y-296D01*
X1792D01*
X1794Y-301D01*
X1793Y-303D01*
X1791Y-310D01*
X1793Y-318D01*
X1797Y-324D01*
X1803Y-329D01*
X1811Y-330D01*
X1819Y-329D01*
X1825Y-324D01*
X1829Y-318D01*
X1831Y-310D01*
X1829Y-303D01*
X1828Y-301D01*
X1830Y-296D01*
X1831D01*
Y-241D01*
D02*
G37*
G36*
X-17Y-315D02*
X-27D01*
X-32Y-316D01*
X-36Y-319D01*
X-38Y-322D01*
X-38Y-322D01*
X-43Y-322D01*
X-43Y-322D01*
X-46Y-319D01*
X-49Y-316D01*
X-54Y-315D01*
X-65D01*
X-69Y-316D01*
X-73Y-319D01*
X-76Y-322D01*
X-76Y-322D01*
X-80D01*
X-81Y-322D01*
X-83Y-319D01*
X-87Y-316D01*
X-91Y-315D01*
X-102D01*
X-107Y-316D01*
X-110Y-319D01*
X-113Y-322D01*
X-113Y-324D01*
X-119Y-327D01*
X-119Y-327D01*
X-126Y-325D01*
X-134Y-327D01*
X-140Y-331D01*
X-145Y-337D01*
X-146Y-345D01*
X-145Y-353D01*
X-140Y-359D01*
X-134Y-363D01*
X-126Y-365D01*
X-119Y-363D01*
X-113Y-360D01*
X-113Y-360D01*
X-110Y-364D01*
X-107Y-366D01*
X-102Y-367D01*
X-91D01*
X-87Y-366D01*
X-83Y-364D01*
X-81Y-360D01*
X-80Y-360D01*
X-76D01*
X-76Y-360D01*
X-73Y-364D01*
X-69Y-366D01*
X-65Y-367D01*
X-54D01*
X-49Y-366D01*
X-46Y-364D01*
X-43Y-360D01*
X-43Y-360D01*
X-38Y-360D01*
X-38Y-360D01*
X-36Y-364D01*
X-32Y-366D01*
X-27Y-367D01*
X-18D01*
X-17Y-368D01*
X-13Y-371D01*
X-9Y-372D01*
X-8Y-372D01*
X-2Y-376D01*
X6Y-378D01*
X13Y-376D01*
X20Y-372D01*
X24Y-366D01*
X26Y-358D01*
X24Y-350D01*
X20Y-344D01*
X20Y-343D01*
X21Y-339D01*
X31D01*
Y-316D01*
X10D01*
Y-335D01*
X6Y-338D01*
X6Y-338D01*
X0Y-339D01*
X-4Y-336D01*
X-5Y-336D01*
Y-327D01*
X-6Y-322D01*
X-8Y-319D01*
X-12Y-316D01*
X-17Y-315D01*
D02*
G37*
G36*
X706Y-315D02*
X685D01*
Y-337D01*
X706D01*
Y-315D01*
D02*
G37*
G36*
X737D02*
X716D01*
Y-337D01*
X737D01*
Y-315D01*
D02*
G37*
G36*
X31Y-284D02*
X10D01*
Y-306D01*
X31D01*
Y-284D01*
D02*
G37*
G36*
X61D02*
X41D01*
Y-306D01*
X61D01*
Y-284D01*
D02*
G37*
G36*
X265Y-291D02*
X244D01*
Y-313D01*
X265D01*
Y-291D01*
D02*
G37*
G36*
X295D02*
X275D01*
Y-313D01*
X295D01*
Y-291D01*
D02*
G37*
G36*
X737Y-347D02*
X716D01*
Y-370D01*
X737D01*
Y-347D01*
D02*
G37*
G36*
X1092Y-334D02*
X1071D01*
X1071Y-337D01*
X1073Y-340D01*
X1077Y-342D01*
X1081Y-343D01*
X1092D01*
Y-334D01*
D02*
G37*
G36*
X177Y-316D02*
X133D01*
Y-375D01*
X177D01*
Y-374D01*
X184D01*
X187Y-377D01*
X195Y-378D01*
X202Y-377D01*
X206Y-374D01*
X244D01*
Y-380D01*
X295D01*
Y-325D01*
X244D01*
Y-342D01*
X206D01*
X202Y-340D01*
X195Y-338D01*
X187Y-340D01*
X184Y-342D01*
X177D01*
Y-316D01*
D02*
G37*
G36*
X706Y-347D02*
X685D01*
Y-370D01*
X706D01*
Y-347D01*
D02*
G37*
G36*
X1279Y-334D02*
X1258D01*
Y-343D01*
X1269D01*
X1273Y-342D01*
X1277Y-340D01*
X1279Y-337D01*
X1279Y-334D01*
D02*
G37*
G36*
X61Y-316D02*
X41D01*
Y-339D01*
X61D01*
Y-316D01*
D02*
G37*
G36*
X1124Y-334D02*
X1102D01*
Y-343D01*
X1114D01*
X1118Y-342D01*
X1121Y-340D01*
X1123Y-337D01*
X1124Y-334D01*
D02*
G37*
G36*
X1248D02*
X1226D01*
X1227Y-337D01*
X1229Y-340D01*
X1232Y-342D01*
X1236Y-343D01*
X1248D01*
Y-334D01*
D02*
G37*
G36*
X1740Y-274D02*
X1719D01*
Y-296D01*
X1740D01*
Y-274D01*
D02*
G37*
G36*
X1771Y-241D02*
X1750D01*
Y-264D01*
X1771D01*
Y-241D01*
D02*
G37*
G36*
X1670Y-241D02*
X1649D01*
Y-264D01*
X1670D01*
Y-241D01*
D02*
G37*
G36*
X1354Y-245D02*
X1332D01*
Y-266D01*
X1354D01*
Y-245D01*
D02*
G37*
G36*
X1740Y-241D02*
X1719D01*
Y-264D01*
X1740D01*
Y-241D01*
D02*
G37*
G36*
X1641D02*
X1589D01*
Y-258D01*
X1581D01*
Y-241D01*
X1529D01*
Y-258D01*
X1521D01*
Y-241D01*
X1469D01*
Y-296D01*
X1521D01*
Y-280D01*
X1529D01*
Y-296D01*
X1534D01*
X1537Y-301D01*
X1535Y-305D01*
X1533Y-312D01*
X1535Y-320D01*
X1539Y-326D01*
X1545Y-331D01*
X1553Y-332D01*
X1561Y-331D01*
X1567Y-326D01*
X1571Y-320D01*
X1573Y-312D01*
X1571Y-305D01*
X1569Y-301D01*
X1572Y-296D01*
X1581D01*
Y-280D01*
X1589D01*
Y-296D01*
X1641D01*
Y-241D01*
D02*
G37*
G36*
X187Y-225D02*
X171D01*
Y-250D01*
X187D01*
Y-225D01*
D02*
G37*
G36*
X1701Y-241D02*
X1680D01*
Y-264D01*
X1701D01*
Y-241D01*
D02*
G37*
G36*
X-96Y-175D02*
X-104Y-177D01*
X-110Y-181D01*
X-115Y-187D01*
X-116Y-195D01*
X-115Y-203D01*
X-111Y-209D01*
Y-213D01*
X-113Y-216D01*
X-114Y-221D01*
Y-249D01*
X-113Y-254D01*
X-110Y-257D01*
X-107Y-260D01*
X-102Y-261D01*
X-102D01*
X-97Y-262D01*
X-91Y-261D01*
X-91D01*
X-87Y-260D01*
X-83Y-257D01*
X-81Y-254D01*
X-80Y-254D01*
X-76D01*
X-76Y-254D01*
X-73Y-257D01*
X-69Y-260D01*
X-65Y-261D01*
X-64D01*
Y-235D01*
Y-209D01*
X-65D01*
X-69Y-210D01*
X-73Y-212D01*
X-74Y-214D01*
X-80Y-214D01*
X-82Y-212D01*
Y-209D01*
X-78Y-203D01*
X-76Y-195D01*
X-78Y-187D01*
X-82Y-181D01*
X-89Y-177D01*
X-96Y-175D01*
D02*
G37*
G36*
X1701Y-274D02*
X1680D01*
Y-296D01*
X1701D01*
Y-274D01*
D02*
G37*
G36*
X391Y-273D02*
X389Y-273D01*
X383Y-276D01*
X377Y-280D01*
X373Y-285D01*
X371Y-291D01*
X370Y-293D01*
X391D01*
Y-273D01*
D02*
G37*
G36*
X1771Y-274D02*
X1750D01*
Y-296D01*
X1771D01*
Y-274D01*
D02*
G37*
G36*
X1670Y-274D02*
X1649D01*
Y-296D01*
X1670D01*
Y-274D01*
D02*
G37*
G36*
X265Y-258D02*
X244D01*
Y-281D01*
X265D01*
Y-258D01*
D02*
G37*
G36*
X295D02*
X275D01*
Y-281D01*
X295D01*
Y-258D01*
D02*
G37*
G36*
X187Y-260D02*
X171D01*
Y-284D01*
X187D01*
Y-260D01*
D02*
G37*
G36*
X214D02*
X197D01*
Y-284D01*
X214D01*
Y-260D01*
D02*
G37*
G36*
X249Y317D02*
X227D01*
Y296D01*
X249D01*
Y317D01*
D02*
G37*
G36*
X282D02*
X259D01*
Y296D01*
X282D01*
Y317D01*
D02*
G37*
G36*
X1567Y304D02*
X1539D01*
Y275D01*
X1543Y276D01*
X1551Y279D01*
X1558Y285D01*
X1563Y292D01*
X1567Y300D01*
X1567Y304D01*
D02*
G37*
G36*
X1681Y327D02*
X1673Y325D01*
X1667Y321D01*
X1662Y314D01*
X1661Y307D01*
X1662Y299D01*
X1667Y292D01*
X1673Y288D01*
X1681Y286D01*
X1689Y288D01*
X1695Y292D01*
X1700Y299D01*
X1701Y307D01*
X1700Y314D01*
X1695Y321D01*
X1689Y325D01*
X1681Y327D01*
D02*
G37*
G36*
X1609Y346D02*
X1588D01*
Y312D01*
X1609D01*
Y346D01*
D02*
G37*
G36*
X1640D02*
X1619D01*
Y312D01*
X1640D01*
Y346D01*
D02*
G37*
G36*
X1377Y323D02*
X1354D01*
Y302D01*
X1377D01*
Y323D01*
D02*
G37*
G36*
X1409D02*
X1387D01*
Y302D01*
X1409D01*
Y323D01*
D02*
G37*
G36*
X1012Y260D02*
X989D01*
Y239D01*
X1012D01*
Y260D01*
D02*
G37*
G36*
X249Y286D02*
X227D01*
Y265D01*
X249D01*
Y286D01*
D02*
G37*
G36*
X881Y260D02*
X859D01*
Y239D01*
X881D01*
Y260D01*
D02*
G37*
G36*
X914D02*
X891D01*
Y239D01*
X914D01*
Y260D01*
D02*
G37*
G36*
X1640Y302D02*
X1619D01*
Y267D01*
X1640D01*
Y302D01*
D02*
G37*
G36*
X1529Y304D02*
X1501D01*
X1501Y300D01*
X1505Y292D01*
X1510Y285D01*
X1517Y279D01*
X1525Y276D01*
X1529Y275D01*
Y304D01*
D02*
G37*
G36*
X282Y286D02*
X259D01*
Y265D01*
X282D01*
Y286D01*
D02*
G37*
G36*
X1609Y302D02*
X1588D01*
Y267D01*
X1609D01*
Y302D01*
D02*
G37*
G36*
X249Y381D02*
X227D01*
Y360D01*
X249D01*
Y381D01*
D02*
G37*
G36*
X282D02*
X259D01*
Y360D01*
X282D01*
Y381D01*
D02*
G37*
G36*
X1177Y355D02*
X1154D01*
Y334D01*
X1177D01*
Y355D01*
D02*
G37*
G36*
X1209D02*
X1187D01*
Y334D01*
X1209D01*
Y355D01*
D02*
G37*
G36*
X1177Y386D02*
X1154D01*
Y365D01*
X1177D01*
Y386D01*
D02*
G37*
G36*
X1209D02*
X1187D01*
Y365D01*
X1209D01*
Y386D01*
D02*
G37*
G36*
X62Y394D02*
X35D01*
Y363D01*
X62D01*
Y394D01*
D02*
G37*
G36*
X98D02*
X72D01*
Y363D01*
X98D01*
Y394D01*
D02*
G37*
G36*
X62Y353D02*
X35D01*
Y322D01*
X62D01*
Y353D01*
D02*
G37*
G36*
X98D02*
X72D01*
Y322D01*
X98D01*
Y353D01*
D02*
G37*
G36*
X1529Y342D02*
X1525Y341D01*
X1517Y338D01*
X1510Y333D01*
X1505Y326D01*
X1501Y317D01*
X1501Y314D01*
X1529D01*
Y342D01*
D02*
G37*
G36*
X1539D02*
Y314D01*
X1567D01*
X1567Y317D01*
X1563Y326D01*
X1558Y333D01*
X1551Y338D01*
X1543Y341D01*
X1539Y342D01*
D02*
G37*
G36*
X1377Y354D02*
X1354D01*
Y333D01*
X1377D01*
Y354D01*
D02*
G37*
G36*
X1409D02*
X1387D01*
Y333D01*
X1409D01*
Y354D01*
D02*
G37*
G36*
X249Y350D02*
X227D01*
Y329D01*
X249D01*
Y350D01*
D02*
G37*
G36*
X282D02*
X259D01*
Y329D01*
X282D01*
Y350D01*
D02*
G37*
G36*
X19Y262D02*
X-8D01*
Y231D01*
X19D01*
Y262D01*
D02*
G37*
G36*
X1916Y251D02*
X1909Y250D01*
X1903Y247D01*
X1897Y243D01*
X1893Y238D01*
X1891Y232D01*
X1890Y225D01*
X1891Y218D01*
X1893Y212D01*
X1897Y207D01*
X1902Y203D01*
X1903Y200D01*
Y200D01*
X1902Y197D01*
X1897Y193D01*
X1893Y188D01*
X1891Y182D01*
X1890Y175D01*
X1891Y168D01*
X1893Y162D01*
X1897Y157D01*
X1902Y153D01*
X1903Y150D01*
Y150D01*
X1902Y147D01*
X1897Y143D01*
X1893Y138D01*
X1891Y132D01*
X1890Y125D01*
X1891Y118D01*
X1893Y112D01*
X1897Y107D01*
X1903Y103D01*
X1909Y100D01*
X1916Y99D01*
X1922Y100D01*
X1929Y103D01*
X1934Y107D01*
X1938Y112D01*
X1941Y112D01*
X1941D01*
X1943Y112D01*
X1947Y107D01*
X1953Y103D01*
X1959Y100D01*
X1961Y100D01*
Y125D01*
X1966D01*
Y130D01*
X1991D01*
X1991Y132D01*
X1988Y138D01*
X1984Y143D01*
X1979Y147D01*
X1978Y150D01*
Y150D01*
X1979Y153D01*
X1984Y157D01*
X1988Y162D01*
X1991Y168D01*
X1991Y170D01*
X1966D01*
Y180D01*
X1991D01*
X1991Y182D01*
X1988Y188D01*
X1984Y193D01*
X1979Y197D01*
X1978Y200D01*
Y200D01*
X1979Y203D01*
X1984Y207D01*
X1988Y212D01*
X1991Y218D01*
X1991Y220D01*
X1966D01*
Y225D01*
X1961D01*
Y250D01*
X1959Y250D01*
X1953Y247D01*
X1947Y243D01*
X1943Y238D01*
X1941Y238D01*
X1941D01*
X1938Y238D01*
X1934Y243D01*
X1929Y247D01*
X1922Y250D01*
X1916Y251D01*
D02*
G37*
G36*
X1991Y120D02*
X1971D01*
Y100D01*
X1972Y100D01*
X1979Y103D01*
X1984Y107D01*
X1988Y112D01*
X1991Y118D01*
X1991Y120D01*
D02*
G37*
G36*
X1476Y227D02*
X1421D01*
Y176D01*
X1444D01*
X1481Y139D01*
Y85D01*
X1481Y82D01*
X1477Y80D01*
X1436Y121D01*
X1432Y123D01*
X1428Y124D01*
X1421D01*
Y139D01*
X1366D01*
Y88D01*
X1382D01*
Y73D01*
X1366D01*
Y21D01*
X1421D01*
Y73D01*
X1404D01*
Y88D01*
X1421D01*
Y97D01*
X1426Y99D01*
X1512Y13D01*
Y-17D01*
X1513Y-21D01*
X1515Y-25D01*
X1532Y-42D01*
X1531Y-47D01*
X1526Y-47D01*
X1524Y-44D01*
X1518Y-40D01*
X1510Y-38D01*
X1502Y-40D01*
X1496Y-44D01*
X1494Y-47D01*
X1421D01*
Y-31D01*
X1366D01*
Y-82D01*
X1392D01*
Y-98D01*
X1366D01*
Y-150D01*
X1421D01*
Y-98D01*
X1415D01*
Y-82D01*
X1421D01*
Y-69D01*
X1494D01*
X1496Y-72D01*
X1502Y-76D01*
X1510Y-78D01*
X1518Y-76D01*
X1524Y-72D01*
X1526Y-69D01*
X1548D01*
X1550Y-74D01*
X1548Y-76D01*
X1542Y-83D01*
X1541Y-87D01*
X1506D01*
X1502Y-88D01*
X1498Y-90D01*
X1396Y-193D01*
X1393Y-196D01*
X1392Y-201D01*
Y-214D01*
X1366D01*
Y-266D01*
X1392D01*
Y-282D01*
X1366D01*
Y-333D01*
X1421D01*
Y-282D01*
X1415D01*
Y-266D01*
X1421D01*
Y-214D01*
X1415D01*
Y-205D01*
X1511Y-109D01*
X1539D01*
X1542Y-117D01*
X1548Y-124D01*
X1555Y-129D01*
X1563Y-133D01*
X1571Y-134D01*
X1579D01*
X1587Y-133D01*
X1595Y-129D01*
X1602Y-124D01*
X1608Y-117D01*
X1611Y-109D01*
X1612Y-100D01*
X1611Y-91D01*
X1608Y-83D01*
X1602Y-76D01*
X1600Y-74D01*
X1602Y-69D01*
X1648D01*
X1650Y-74D01*
X1648Y-76D01*
X1642Y-83D01*
X1639Y-91D01*
X1638Y-100D01*
X1639Y-109D01*
X1642Y-117D01*
X1648Y-124D01*
X1655Y-129D01*
X1661Y-132D01*
Y-174D01*
X1649D01*
Y-191D01*
X1641D01*
Y-174D01*
X1589D01*
Y-230D01*
X1641D01*
Y-219D01*
X1649D01*
Y-230D01*
X1701D01*
Y-174D01*
X1689D01*
Y-132D01*
X1695Y-129D01*
X1702Y-124D01*
X1708Y-117D01*
X1711Y-109D01*
X1712Y-100D01*
X1711Y-91D01*
X1710Y-87D01*
X1714Y-84D01*
X1721Y-92D01*
X1725Y-95D01*
X1729Y-96D01*
X1745D01*
X1747Y-98D01*
X1753Y-103D01*
X1761Y-104D01*
X1769Y-103D01*
X1775Y-98D01*
X1777Y-96D01*
X1783D01*
X1784Y-98D01*
X1790Y-103D01*
X1798Y-104D01*
X1806Y-103D01*
X1812Y-98D01*
X1816Y-92D01*
X1817Y-91D01*
X1822Y-90D01*
X1827Y-93D01*
X1835Y-95D01*
X1843Y-93D01*
X1849Y-89D01*
X1853Y-83D01*
X1855Y-75D01*
X1853Y-67D01*
X1849Y-61D01*
X1847Y-59D01*
Y-53D01*
X1849Y-52D01*
X1852Y-48D01*
X1852Y-44D01*
Y-15D01*
X1852Y-11D01*
X1849Y-7D01*
X1845Y-4D01*
X1841Y-3D01*
X1830D01*
X1826Y-4D01*
X1822Y-7D01*
X1819Y-11D01*
X1819Y-11D01*
X1814D01*
X1814Y-11D01*
X1812Y-7D01*
X1808Y-4D01*
X1803Y-3D01*
X1793D01*
X1788Y-4D01*
X1784Y-7D01*
X1782Y-11D01*
X1782Y-11D01*
X1777D01*
X1777Y-11D01*
X1774Y-7D01*
X1770Y-4D01*
X1766Y-3D01*
X1755D01*
X1751Y-4D01*
X1747Y-7D01*
X1744Y-11D01*
X1744Y-15D01*
Y-44D01*
X1744Y-48D01*
X1747Y-52D01*
X1749Y-53D01*
Y-69D01*
X1747Y-70D01*
X1745Y-73D01*
X1734D01*
X1711Y-50D01*
X1707Y-48D01*
X1703Y-47D01*
X1648D01*
X1647Y-42D01*
X1658Y-31D01*
X1663Y-33D01*
X1671Y-34D01*
X1679D01*
X1687Y-33D01*
X1695Y-29D01*
X1702Y-24D01*
X1708Y-17D01*
X1711Y-9D01*
X1712Y0D01*
X1711Y9D01*
X1708Y17D01*
X1702Y24D01*
X1702Y24D01*
X1702Y29D01*
X1728Y55D01*
X1747D01*
X1747Y54D01*
X1751Y52D01*
X1755Y51D01*
X1766D01*
X1770Y52D01*
X1774Y54D01*
X1777Y58D01*
X1777Y58D01*
X1782D01*
X1782Y58D01*
X1784Y54D01*
X1788Y52D01*
X1793Y51D01*
X1793D01*
Y77D01*
Y103D01*
X1793D01*
X1788Y102D01*
X1784Y100D01*
X1782Y96D01*
X1782Y96D01*
X1777D01*
X1777Y96D01*
X1774Y100D01*
X1770Y102D01*
X1766Y103D01*
X1755D01*
X1751Y102D01*
X1747Y100D01*
X1744Y96D01*
X1744Y91D01*
Y77D01*
X1724D01*
X1719Y76D01*
X1716Y74D01*
X1675Y34D01*
X1671D01*
X1663Y33D01*
X1655Y29D01*
X1648Y24D01*
X1642Y17D01*
X1639Y9D01*
X1638Y0D01*
X1639Y-9D01*
X1642Y-16D01*
X1629Y-28D01*
X1604D01*
X1603Y-23D01*
X1608Y-17D01*
X1611Y-9D01*
X1612Y0D01*
X1611Y9D01*
X1608Y17D01*
X1602Y24D01*
X1595Y29D01*
X1587Y33D01*
X1579Y34D01*
X1571D01*
X1563Y33D01*
X1561Y32D01*
X1503Y90D01*
Y144D01*
X1503Y144D01*
X1502Y148D01*
X1500Y152D01*
X1500Y152D01*
X1479Y173D01*
X1476Y176D01*
X1476D01*
X1476Y176D01*
Y227D01*
D02*
G37*
G36*
Y354D02*
X1421D01*
Y302D01*
X1437D01*
Y291D01*
X1421D01*
Y239D01*
X1476D01*
Y251D01*
X1492D01*
X1508Y235D01*
X1512Y232D01*
X1516Y231D01*
X1516Y231D01*
X1775D01*
X1824Y183D01*
Y101D01*
X1822Y100D01*
X1819Y96D01*
X1819Y96D01*
X1814D01*
X1814Y96D01*
X1812Y100D01*
X1808Y102D01*
X1803Y103D01*
X1803D01*
Y77D01*
Y51D01*
X1803D01*
X1808Y52D01*
X1812Y54D01*
X1814Y58D01*
X1814Y58D01*
X1819D01*
X1819Y58D01*
X1822Y54D01*
X1826Y52D01*
X1830Y51D01*
X1841D01*
X1845Y52D01*
X1849Y54D01*
X1849Y55D01*
X1863D01*
X1885Y33D01*
Y13D01*
X1875Y4D01*
X1873Y-0D01*
X1872Y-4D01*
Y-164D01*
X1873Y-169D01*
X1875Y-172D01*
X1886Y-183D01*
X1889Y-185D01*
X1892Y-186D01*
X1893Y-188D01*
X1897Y-193D01*
X1902Y-197D01*
X1903Y-200D01*
Y-200D01*
X1902Y-203D01*
X1897Y-207D01*
X1893Y-212D01*
X1891Y-218D01*
X1890Y-225D01*
X1891Y-232D01*
X1893Y-238D01*
X1897Y-243D01*
X1903Y-247D01*
X1909Y-250D01*
X1916Y-251D01*
X1922Y-250D01*
X1929Y-247D01*
X1934Y-243D01*
X1935Y-242D01*
X1940Y-244D01*
Y-251D01*
X1991D01*
Y-199D01*
X1984D01*
X1983Y-194D01*
X1984Y-193D01*
X1988Y-188D01*
X1991Y-182D01*
X1991Y-180D01*
X1966D01*
Y-170D01*
X1991D01*
X1991Y-168D01*
X1988Y-162D01*
X1984Y-157D01*
X1979Y-153D01*
X1978Y-150D01*
Y-150D01*
X1979Y-147D01*
X1984Y-143D01*
X1988Y-138D01*
X1991Y-132D01*
X1991Y-130D01*
X1966D01*
Y-125D01*
X1961D01*
Y-100D01*
X1959Y-100D01*
X1953Y-103D01*
X1947Y-107D01*
X1943Y-112D01*
X1941Y-112D01*
X1941D01*
X1938Y-112D01*
X1934Y-107D01*
X1929Y-103D01*
X1928Y-100D01*
Y-100D01*
X1929Y-97D01*
X1934Y-93D01*
X1938Y-88D01*
X1941Y-82D01*
X1942Y-75D01*
X1941Y-68D01*
X1938Y-62D01*
X1934Y-57D01*
X1929Y-53D01*
X1928Y-50D01*
Y-50D01*
X1929Y-47D01*
X1934Y-43D01*
X1938Y-38D01*
X1941Y-38D01*
X1941D01*
X1943Y-38D01*
X1947Y-43D01*
X1953Y-47D01*
X1959Y-50D01*
X1966Y-51D01*
X1972Y-50D01*
X1979Y-47D01*
X1984Y-43D01*
X1988Y-38D01*
X1991Y-32D01*
X1992Y-25D01*
X1991Y-18D01*
X1988Y-12D01*
X1984Y-7D01*
X1979Y-3D01*
X1972Y0D01*
X1966Y1D01*
X1959Y0D01*
X1953Y-3D01*
X1947Y-7D01*
X1943Y-12D01*
X1941Y-12D01*
X1941D01*
X1938Y-12D01*
X1934Y-7D01*
X1929Y-3D01*
X1927Y-2D01*
Y56D01*
X1926Y60D01*
X1924Y64D01*
X1871Y116D01*
Y193D01*
X1870Y197D01*
X1868Y201D01*
X1774Y295D01*
Y346D01*
X1722D01*
Y267D01*
X1770D01*
X1778Y259D01*
X1776Y254D01*
X1521D01*
X1504Y271D01*
X1500Y273D01*
X1496Y274D01*
X1476D01*
Y291D01*
X1460D01*
Y302D01*
X1476D01*
Y354D01*
D02*
G37*
G36*
X1012Y157D02*
X989D01*
Y136D01*
X1012D01*
Y157D01*
D02*
G37*
G36*
X1044D02*
X1022D01*
Y136D01*
X1044D01*
Y157D01*
D02*
G37*
G36*
X1670Y134D02*
X1663Y133D01*
X1655Y129D01*
X1648Y124D01*
X1642Y117D01*
X1639Y109D01*
X1638Y105D01*
X1670D01*
Y134D01*
D02*
G37*
G36*
X1680D02*
Y105D01*
X1712D01*
X1711Y109D01*
X1708Y117D01*
X1702Y124D01*
X1695Y129D01*
X1687Y133D01*
X1680Y134D01*
D02*
G37*
G36*
X1224Y11D02*
X1201D01*
Y-10D01*
X1224D01*
Y11D01*
D02*
G37*
G36*
X1670Y95D02*
X1638D01*
X1639Y91D01*
X1642Y83D01*
X1648Y76D01*
X1655Y71D01*
X1663Y67D01*
X1670Y66D01*
Y95D01*
D02*
G37*
G36*
X1058Y-3D02*
X1035D01*
Y-24D01*
X1058D01*
Y-3D01*
D02*
G37*
G36*
X1191Y11D02*
X1169D01*
Y-10D01*
X1191D01*
Y11D01*
D02*
G37*
G36*
X177Y97D02*
X155D01*
Y76D01*
X177D01*
Y97D01*
D02*
G37*
G36*
X210D02*
X187D01*
Y76D01*
X210D01*
Y97D01*
D02*
G37*
G36*
X1712Y95D02*
X1680D01*
Y66D01*
X1687Y67D01*
X1695Y71D01*
X1702Y76D01*
X1708Y83D01*
X1711Y91D01*
X1712Y95D01*
D02*
G37*
G36*
X1612Y133D02*
X1538D01*
Y67D01*
X1612D01*
Y133D01*
D02*
G37*
G36*
X881Y229D02*
X859D01*
Y208D01*
X881D01*
Y229D01*
D02*
G37*
G36*
X914D02*
X891D01*
Y208D01*
X914D01*
Y229D01*
D02*
G37*
G36*
X19Y221D02*
X-8D01*
Y190D01*
X19D01*
Y221D01*
D02*
G37*
G36*
X173Y394D02*
X110D01*
Y322D01*
X128D01*
Y314D01*
X110D01*
Y242D01*
X111D01*
Y230D01*
X84Y203D01*
X77Y202D01*
X75Y200D01*
X70Y203D01*
Y242D01*
X98D01*
Y314D01*
X35D01*
Y242D01*
X41D01*
Y75D01*
X38Y71D01*
X33Y73D01*
Y132D01*
X-61D01*
Y167D01*
X-76D01*
Y190D01*
X-56D01*
Y262D01*
X-119D01*
Y190D01*
X-98D01*
Y167D01*
X-148D01*
Y62D01*
Y4D01*
X-115D01*
Y-4D01*
X-148D01*
Y-62D01*
Y-167D01*
X-61D01*
Y-132D01*
X33D01*
Y-62D01*
X33D01*
Y-56D01*
X-33D01*
Y-62D01*
X-61D01*
Y-4D01*
X-93D01*
Y4D01*
X-61D01*
Y62D01*
Y62D01*
X-33D01*
Y36D01*
Y11D01*
Y-15D01*
Y-40D01*
Y-46D01*
X33D01*
Y-11D01*
X51D01*
X55Y-10D01*
X58Y-8D01*
X79Y13D01*
X83Y12D01*
X91Y14D01*
X97Y18D01*
X101Y24D01*
X103Y32D01*
X101Y40D01*
X97Y46D01*
X91Y50D01*
X88Y51D01*
X87Y56D01*
X125Y94D01*
X127Y98D01*
X128Y102D01*
Y109D01*
X150Y131D01*
X155Y130D01*
X155Y128D01*
X155Y125D01*
Y107D01*
X210D01*
Y125D01*
X210Y130D01*
X210Y133D01*
Y182D01*
X210D01*
Y184D01*
X210D01*
Y236D01*
X155D01*
Y212D01*
X151D01*
X147Y211D01*
X143Y209D01*
X106Y172D01*
X102Y175D01*
X103Y176D01*
X104Y183D01*
X135Y214D01*
X138Y219D01*
X139Y224D01*
Y242D01*
X173D01*
Y314D01*
X156D01*
Y322D01*
X173D01*
Y394D01*
D02*
G37*
G36*
X1971Y250D02*
Y230D01*
X1991D01*
X1991Y232D01*
X1988Y238D01*
X1984Y243D01*
X1979Y247D01*
X1972Y250D01*
X1971Y250D01*
D02*
G37*
G36*
X-18Y262D02*
X-44D01*
Y231D01*
X-18D01*
Y262D01*
D02*
G37*
G36*
X1012Y229D02*
X989D01*
Y208D01*
X1012D01*
Y229D01*
D02*
G37*
G36*
X1044D02*
X1022D01*
Y208D01*
X1044D01*
Y229D01*
D02*
G37*
G36*
X1012Y188D02*
X989D01*
Y167D01*
X1012D01*
Y188D01*
D02*
G37*
G36*
X1044D02*
X1022D01*
Y167D01*
X1044D01*
Y188D01*
D02*
G37*
G36*
X1208Y158D02*
X1186D01*
Y137D01*
X1208D01*
Y158D01*
D02*
G37*
G36*
X1241D02*
X1218D01*
Y137D01*
X1241D01*
Y158D01*
D02*
G37*
G36*
X1174Y188D02*
X1119D01*
Y177D01*
X1104D01*
X1098Y181D01*
X1090Y183D01*
X1082Y181D01*
X1076Y177D01*
X1072Y170D01*
X1070Y163D01*
X1072Y155D01*
X1076Y149D01*
X1082Y144D01*
X1090Y143D01*
X1098Y144D01*
X1104Y149D01*
X1104Y149D01*
X1119D01*
Y137D01*
X1123D01*
Y117D01*
X1119Y116D01*
X1116Y114D01*
X1114Y111D01*
X1113Y107D01*
Y99D01*
X1114Y95D01*
X1116Y92D01*
Y88D01*
X1114Y85D01*
X1113Y82D01*
X1158D01*
X1158Y85D01*
X1156Y88D01*
Y92D01*
X1158Y95D01*
X1159Y99D01*
Y107D01*
X1158Y111D01*
X1156Y114D01*
X1152Y116D01*
X1151Y117D01*
Y137D01*
X1174D01*
Y188D01*
D02*
G37*
G36*
X-18Y221D02*
X-44D01*
Y190D01*
X-18D01*
Y221D01*
D02*
G37*
G36*
X1208Y188D02*
X1186D01*
Y168D01*
X1208D01*
Y188D01*
D02*
G37*
G36*
X1241D02*
X1218D01*
Y168D01*
X1241D01*
Y188D01*
D02*
G37*
%LPD*%
D10*
X886Y234D02*
D03*
X820D02*
D03*
X1213Y163D02*
D03*
X1147D02*
D03*
X1263Y-15D02*
D03*
X1196D02*
D03*
X1182Y360D02*
D03*
X1248D02*
D03*
X249Y102D02*
D03*
X182D02*
D03*
X950Y234D02*
D03*
X1017D02*
D03*
Y162D02*
D03*
X950D02*
D03*
X734Y357D02*
D03*
X801D02*
D03*
X1448Y265D02*
D03*
X1382D02*
D03*
Y328D02*
D03*
X1448D02*
D03*
X1393Y47D02*
D03*
X1327D02*
D03*
Y114D02*
D03*
X1393D02*
D03*
Y-124D02*
D03*
X1327D02*
D03*
Y-56D02*
D03*
X1393D02*
D03*
X249Y156D02*
D03*
X183D02*
D03*
Y210D02*
D03*
X249D02*
D03*
X254Y291D02*
D03*
X321D02*
D03*
X1112Y-195D02*
D03*
X1178D02*
D03*
X254Y355D02*
D03*
X321D02*
D03*
X417Y359D02*
D03*
X484D02*
D03*
X1382Y202D02*
D03*
X1448D02*
D03*
X1393Y-307D02*
D03*
X1327D02*
D03*
X963Y2D02*
D03*
X1030D02*
D03*
Y70D02*
D03*
X963D02*
D03*
X614Y359D02*
D03*
X547D02*
D03*
X1393Y-240D02*
D03*
X1327D02*
D03*
D11*
X1798Y-29D02*
D03*
X1761D02*
D03*
X1835D02*
D03*
X1761Y77D02*
D03*
X1798D02*
D03*
X1835D02*
D03*
X-59Y-341D02*
D03*
X-97D02*
D03*
X-22Y-341D02*
D03*
X-97Y-235D02*
D03*
X-59D02*
D03*
X-22Y-235D02*
D03*
D12*
X164Y-98D02*
D03*
Y-32D02*
D03*
X219Y-32D02*
D03*
Y-98D02*
D03*
X711Y-342D02*
D03*
Y-276D02*
D03*
X274Y-32D02*
D03*
Y-98D02*
D03*
X1675Y-269D02*
D03*
Y-202D02*
D03*
X1615Y-269D02*
D03*
Y-202D02*
D03*
X1555D02*
D03*
Y-269D02*
D03*
X1495Y-202D02*
D03*
Y-269D02*
D03*
X270Y-353D02*
D03*
Y-286D02*
D03*
X109Y-98D02*
D03*
Y-32D02*
D03*
X1805Y-202D02*
D03*
Y-269D02*
D03*
X1745Y-202D02*
D03*
Y-269D02*
D03*
X36Y-245D02*
D03*
Y-311D02*
D03*
D13*
X-87Y226D02*
D03*
X-13D02*
D03*
X141Y278D02*
D03*
X67D02*
D03*
X67Y358D02*
D03*
X141D02*
D03*
D14*
X1614Y307D02*
D03*
X1748D02*
D03*
D15*
X1136Y-68D02*
D03*
Y-94D02*
D03*
Y-120D02*
D03*
X1224D02*
D03*
Y-94D02*
D03*
Y-68D02*
D03*
X1224Y103D02*
D03*
Y77D02*
D03*
Y52D02*
D03*
X1136D02*
D03*
Y77D02*
D03*
Y103D02*
D03*
D16*
X1104Y309D02*
D03*
Y284D02*
D03*
Y258D02*
D03*
Y233D02*
D03*
X1260Y309D02*
D03*
Y284D02*
D03*
Y258D02*
D03*
Y233D02*
D03*
X1253Y-329D02*
D03*
Y-303D02*
D03*
Y-278D02*
D03*
Y-252D02*
D03*
X1097Y-329D02*
D03*
Y-303D02*
D03*
Y-278D02*
D03*
Y-252D02*
D03*
D17*
X155Y-345D02*
D03*
X118Y-255D02*
D03*
X192D02*
D03*
D18*
X-105Y115D02*
D03*
Y-115D02*
D03*
D19*
Y-33D02*
D03*
Y33D02*
D03*
D20*
X0Y0D02*
D03*
Y-26D02*
D03*
Y-51D02*
D03*
Y51D02*
D03*
Y26D02*
D03*
D21*
X-14Y-97D02*
D03*
Y97D02*
D03*
D22*
X443Y240D02*
D03*
X463D02*
D03*
X482D02*
D03*
X502D02*
D03*
X522D02*
D03*
X541D02*
D03*
X561D02*
D03*
X581D02*
D03*
X600D02*
D03*
X620D02*
D03*
X640D02*
D03*
X660D02*
D03*
X679D02*
D03*
X699D02*
D03*
X719D02*
D03*
X738D02*
D03*
Y-196D02*
D03*
X719D02*
D03*
X699D02*
D03*
X679D02*
D03*
X660D02*
D03*
X640D02*
D03*
X620D02*
D03*
X600D02*
D03*
X581D02*
D03*
X561D02*
D03*
X541D02*
D03*
X522D02*
D03*
X502D02*
D03*
X482D02*
D03*
X463D02*
D03*
X443D02*
D03*
D23*
X808Y170D02*
D03*
Y150D02*
D03*
Y130D02*
D03*
Y111D02*
D03*
Y91D02*
D03*
Y71D02*
D03*
Y52D02*
D03*
Y32D02*
D03*
Y12D02*
D03*
Y-8D02*
D03*
Y-27D02*
D03*
Y-47D02*
D03*
Y-67D02*
D03*
Y-86D02*
D03*
Y-106D02*
D03*
Y-126D02*
D03*
X373D02*
D03*
Y-106D02*
D03*
Y-86D02*
D03*
Y-67D02*
D03*
Y-47D02*
D03*
Y-27D02*
D03*
Y-8D02*
D03*
Y12D02*
D03*
Y32D02*
D03*
Y52D02*
D03*
Y71D02*
D03*
Y91D02*
D03*
Y111D02*
D03*
Y130D02*
D03*
Y150D02*
D03*
Y170D02*
D03*
D24*
X1516Y243D02*
X1780D01*
X1496Y263D02*
X1516Y243D01*
X1448Y263D02*
X1496D01*
X987Y-179D02*
X1058Y-250D01*
Y-273D02*
Y-250D01*
X1038Y-279D02*
Y-260D01*
X967Y-189D02*
X1038Y-260D01*
X418Y-147D02*
Y-116D01*
X408Y-106D02*
X418Y-116D01*
X372Y-106D02*
X408D01*
X719Y-232D02*
X724Y-237D01*
X719Y-232D02*
Y-197D01*
X730Y-148D02*
X748D01*
X719Y-159D02*
X730Y-148D01*
X719Y-197D02*
Y-159D01*
X495Y325D02*
X605D01*
X463Y293D02*
X495Y325D01*
X605D02*
X631Y299D01*
X443Y241D02*
Y297D01*
X417Y323D02*
X443Y297D01*
X417Y323D02*
Y367D01*
X961Y68D02*
X963Y70D01*
X809Y91D02*
X903D01*
X794D02*
X809D01*
X926Y68D02*
X961D01*
X903Y91D02*
X926Y68D01*
X925Y35D02*
X1083D01*
X889Y71D02*
X925Y35D01*
X794Y71D02*
X889D01*
X809Y111D02*
X880D01*
X898D02*
X908Y120D01*
X880Y111D02*
X898D01*
X861Y130D02*
X880Y111D01*
X809Y130D02*
X861D01*
X908Y120D02*
X950Y162D01*
X1080Y283D02*
X1097D01*
X1080Y258D02*
X1108D01*
X1064Y221D02*
Y249D01*
Y221D02*
X1078Y208D01*
X866Y-86D02*
X877Y-97D01*
Y-160D02*
Y-97D01*
X871Y-166D02*
X877Y-160D01*
X630Y-380D02*
X659Y-351D01*
X557Y-380D02*
X630D01*
X631Y-335D02*
Y-269D01*
X618Y-348D02*
X631Y-335D01*
X596Y-348D02*
X618D01*
X623Y-261D02*
X631Y-269D01*
X608Y-261D02*
X623D01*
X600Y-253D02*
X608Y-261D01*
X600Y-253D02*
Y-197D01*
X1811Y-310D02*
Y-275D01*
X679Y150D02*
Y241D01*
X809Y170D02*
Y232D01*
X-104Y-97D02*
Y114D01*
X-97Y-97D02*
X-14D01*
X-87Y97D02*
X-14D01*
X-43Y-51D02*
X0D01*
X1242Y-278D02*
X1285D01*
X1291Y-272D01*
X1218Y-120D02*
X1326D01*
X1724Y66D02*
X1761D01*
X1675Y18D02*
X1724Y66D01*
X1675Y2D02*
Y18D01*
X1748Y305D02*
X1860Y193D01*
Y112D02*
Y193D01*
Y112D02*
X1916Y56D01*
X1780Y243D02*
X1835Y187D01*
Y66D02*
Y187D01*
X1867Y66D02*
X1896Y38D01*
X1835Y66D02*
X1867D01*
X1896Y9D02*
Y38D01*
X1883Y-4D02*
X1896Y9D01*
X1916Y-23D02*
Y56D01*
X1553Y-312D02*
Y-270D01*
X1498Y-269D02*
X1610D01*
X436Y-318D02*
Y-272D01*
Y-318D02*
X446Y-328D01*
Y-348D02*
Y-328D01*
X436Y-272D02*
X461Y-247D01*
X546Y-368D02*
Y-348D01*
X461Y-280D02*
X476Y-265D01*
X461Y-313D02*
Y-280D01*
Y-313D02*
X496Y-348D01*
X-87Y133D02*
Y220D01*
X965Y5D02*
Y33D01*
X1393Y66D02*
Y113D01*
X1242Y-303D02*
X1324D01*
X1090Y77D02*
X1168D01*
X1132Y-94D02*
X1163D01*
X1186Y-71D01*
Y-61D01*
X1186Y-61D01*
Y-33D01*
X1202Y232D02*
X1260D01*
X1097Y283D02*
X1108D01*
X1185Y51D02*
Y60D01*
X1203Y77D01*
X1224D01*
X1448Y188D02*
X1492Y144D01*
Y85D02*
Y144D01*
Y85D02*
X1575Y2D01*
X1177Y208D02*
X1202Y232D01*
X163Y-41D02*
Y-32D01*
X214D02*
Y-22D01*
X218Y-91D02*
X269Y-40D01*
X561Y-237D02*
Y-197D01*
X551Y-247D02*
X561Y-237D01*
X461Y-247D02*
X551D01*
X556Y-265D02*
X556Y-265D01*
X476Y-265D02*
X556D01*
X581Y-242D02*
Y-197D01*
X556Y-265D02*
X558D01*
X581Y-242D01*
X372Y130D02*
X436D01*
X372Y52D02*
X436D01*
X372Y-86D02*
X436D01*
X699Y-197D02*
Y-128D01*
X522Y-197D02*
Y-128D01*
X541Y-197D02*
Y-142D01*
X719Y241D02*
Y310D01*
X484Y367D02*
X547D01*
X561Y241D02*
Y282D01*
X372Y-67D02*
X436D01*
X216Y-32D02*
Y-8D01*
X231Y7D01*
X163Y-32D02*
X164D01*
X214D01*
X1393Y-61D02*
Y-56D01*
X1398Y-65D02*
X1403D01*
Y-116D02*
Y-65D01*
X1404Y-65D01*
Y-58D02*
X1510D01*
X1835Y-63D02*
Y-29D01*
X1798Y-84D02*
Y-29D01*
Y-18D01*
X1634Y-39D02*
X1675Y2D01*
X1703Y-58D02*
X1729Y-84D01*
X1510Y-58D02*
X1703D01*
X1729Y-84D02*
X1761D01*
X1761D01*
X1393Y113D02*
X1428D01*
X1030Y70D02*
X1064D01*
X1081Y53D01*
X1132D01*
X1448Y263D02*
Y324D01*
X303Y7D02*
X318Y-8D01*
X231Y7D02*
X303D01*
X318Y-8D02*
X372D01*
X322Y123D02*
Y210D01*
X794Y-8D02*
X873D01*
X794Y-27D02*
X865D01*
X947Y-109D01*
Y-249D02*
Y-109D01*
X809Y-86D02*
X866D01*
X915Y-24D02*
Y-5D01*
X870Y12D02*
X879Y21D01*
X809Y12D02*
X870D01*
X879Y21D02*
Y41D01*
X794Y12D02*
X809D01*
X1078Y208D02*
X1177D01*
X1883Y-164D02*
Y-4D01*
X1894Y-175D02*
X1916D01*
X1883Y-164D02*
X1894Y-175D01*
X1761Y-84D02*
Y-29D01*
X151Y201D02*
X182D01*
X152Y149D02*
X182D01*
X117Y114D02*
X152Y149D01*
X541Y-142D02*
X561Y-123D01*
X249Y149D02*
X276D01*
X286Y139D01*
X320Y32D02*
X372D01*
X249Y102D02*
X254Y97D01*
X249D02*
X254D01*
X0Y0D02*
X51D01*
X84Y134D02*
X151Y201D01*
X51Y0D02*
X83Y32D01*
X83D01*
X117Y102D02*
Y114D01*
X0Y26D02*
X40D01*
X117Y102D01*
X84Y106D02*
Y134D01*
X267Y-32D02*
X299D01*
X334Y-67D01*
X372D01*
X322Y123D02*
X334Y111D01*
X372D01*
X310Y42D02*
X320Y32D01*
X309Y42D02*
X310D01*
X254Y97D02*
X309Y42D01*
X309Y71D02*
X372D01*
X286Y94D02*
Y139D01*
Y94D02*
X309Y71D01*
X304Y102D02*
X315Y91D01*
X372D01*
X699Y-271D02*
Y-197D01*
X249Y210D02*
X259D01*
X285Y170D02*
Y184D01*
Y170D02*
X304Y151D01*
X259Y210D02*
X285Y184D01*
X304Y102D02*
Y151D01*
X873Y-8D02*
X967Y-102D01*
X915Y-24D02*
X987Y-96D01*
X463Y241D02*
Y293D01*
X544Y299D02*
X561Y282D01*
X514Y299D02*
X544D01*
X581Y241D02*
Y299D01*
X699Y241D02*
Y299D01*
X631D02*
X699D01*
X546Y-368D02*
X557Y-380D01*
X659Y-351D02*
Y-349D01*
X1097Y-303D02*
X1108D01*
X1063Y-278D02*
X1097D01*
Y-278D02*
X1108D01*
X1062Y-303D02*
X1097D01*
X1058Y-273D02*
X1063Y-278D01*
X1038Y-279D02*
X1062Y-303D01*
X987Y-179D02*
Y-96D01*
X967Y-189D02*
Y-102D01*
X1291Y-272D02*
Y-152D01*
X1327Y-116D01*
X1163Y-141D02*
X1182Y-121D01*
Y-111D01*
X1199Y-94D01*
X1218D01*
X1030Y-126D02*
X1053D01*
X1068Y-141D01*
X1163D01*
X1030Y-88D02*
X1049D01*
X1081Y-120D01*
X1136D01*
X713Y170D02*
X809D01*
Y150D02*
X861D01*
X956Y237D02*
Y277D01*
X804Y354D02*
X812D01*
X857D01*
X801Y365D02*
X812Y354D01*
X1260Y283D02*
X1291D01*
X1309Y266D01*
X1382D01*
X1260Y258D02*
X1289D01*
X1336Y211D01*
X1382D01*
X1428Y113D02*
X1523Y18D01*
Y-17D02*
Y18D01*
Y-17D02*
X1545Y-39D01*
X1634D01*
X1403Y-315D02*
Y-201D01*
X1506Y-98D01*
X1575D01*
X1104Y233D02*
X1142D01*
X1224Y52D02*
X1319D01*
X699Y299D02*
Y322D01*
X734Y357D01*
Y365D02*
X734D01*
X1038Y325D02*
X1080Y283D01*
X719Y310D02*
X734Y325D01*
X1038D01*
X750Y300D02*
X1038D01*
X1080Y258D01*
X1031Y282D02*
X1064Y249D01*
X779Y282D02*
X1031D01*
X1083Y35D02*
X1089Y29D01*
X1163D01*
X1185Y51D01*
X738Y264D02*
X748Y274D01*
X771D01*
X779Y282D01*
X738Y240D02*
Y264D01*
X922Y-268D02*
X946Y-292D01*
X808Y-106D02*
X850D01*
X791Y-292D02*
Y-204D01*
X861Y-134D01*
Y-117D01*
X850Y-106D02*
X861Y-117D01*
X809Y-67D02*
X858D01*
X866Y-75D01*
Y-86D02*
Y-75D01*
X860Y-47D02*
X922Y-109D01*
X747Y-47D02*
X860D01*
X922Y-268D02*
Y-109D01*
X502Y184D02*
Y241D01*
Y184D02*
X522Y164D01*
Y241D01*
D25*
X935Y347D02*
X1071D01*
X888Y394D02*
X935Y347D01*
X1071D02*
X1090D01*
X125Y224D02*
Y262D01*
X84Y183D02*
X125Y224D01*
X55Y69D02*
Y267D01*
X360Y394D02*
X888D01*
X-22Y-237D02*
X19D01*
X1303Y308D02*
X1307D01*
X1252Y-251D02*
Y-218D01*
X-97Y-332D02*
X-97Y-332D01*
X1741Y-202D02*
X1797D01*
X1263Y-22D02*
X1270Y-29D01*
X142Y269D02*
Y357D01*
X-97Y-248D02*
X-96Y-247D01*
X1137Y109D02*
Y147D01*
X1090Y163D02*
X1140D01*
X1097Y-252D02*
Y-207D01*
X1067Y-205D02*
X1107D01*
X1270Y-69D02*
Y-68D01*
Y-29D01*
X1307Y308D02*
X1308Y309D01*
X1249D02*
Y341D01*
Y309D02*
X1308D01*
X-126Y-345D02*
X-97D01*
X-96Y-247D02*
Y-195D01*
X-22Y-237D02*
Y-195D01*
X336Y284D02*
X452Y168D01*
X148Y-344D02*
X155Y-350D01*
X-21Y-344D02*
X-7Y-358D01*
X6D01*
X1675Y-100D02*
Y-98D01*
X0Y51D02*
X37D01*
X55Y69D01*
X321Y355D02*
X336Y370D01*
Y284D02*
Y370D01*
X360Y394D01*
X1090Y-41D02*
X1117Y-68D01*
X1136D01*
X112Y-168D02*
Y-102D01*
X109Y-98D02*
X112Y-102D01*
Y-255D02*
X117Y-260D01*
X112Y-255D02*
Y-168D01*
X1104Y309D02*
Y333D01*
X1090Y347D02*
X1104Y333D01*
X1270Y99D02*
Y103D01*
X1618Y-199D02*
X1624Y-205D01*
X1675D01*
Y-100D01*
X1104Y309D02*
X1108D01*
D26*
X195Y-358D02*
X259D01*
X156D02*
X195D01*
D27*
X1498Y-202D02*
X1554D01*
X671Y-83D02*
Y7D01*
D28*
X1325Y-68D02*
X1326Y-67D01*
X1224Y103D02*
X1317D01*
X1224Y-68D02*
X1270D01*
X1325D01*
D29*
X-59Y-288D02*
D03*
D30*
X-59Y-272D02*
D03*
D31*
X1681Y307D02*
D03*
D32*
X596Y-298D02*
D03*
D33*
Y-348D02*
D03*
X546Y-298D02*
D03*
Y-348D02*
D03*
X496Y-298D02*
D03*
Y-348D02*
D03*
X446D02*
D03*
X396Y-298D02*
D03*
Y-348D02*
D03*
X1916Y225D02*
D03*
X1966D02*
D03*
X1916Y175D02*
D03*
X1966D02*
D03*
X1916Y125D02*
D03*
X1966D02*
D03*
X1916Y-25D02*
D03*
X1966D02*
D03*
X1916Y-75D02*
D03*
Y-125D02*
D03*
X1966D02*
D03*
X1916Y-175D02*
D03*
X1966D02*
D03*
X1916Y-225D02*
D03*
D34*
X1966D02*
D03*
D35*
X1534Y309D02*
D03*
X878Y-176D02*
D03*
D36*
X1675Y100D02*
D03*
Y0D02*
D03*
Y-100D02*
D03*
X1575Y0D02*
D03*
Y-100D02*
D03*
D37*
Y100D02*
D03*
D38*
X112Y-171D02*
D03*
X191D02*
D03*
D39*
X270D02*
D03*
D40*
X1071Y347D02*
D03*
X865Y-322D02*
D03*
X791Y-292D02*
D03*
X747Y-48D02*
D03*
X908Y120D02*
D03*
X1061Y111D02*
D03*
X680Y141D02*
D03*
X-126Y-345D02*
D03*
X155Y-268D02*
D03*
X50Y-52D02*
D03*
X195Y-358D02*
D03*
X-47Y-47D02*
D03*
X1303Y308D02*
D03*
X1252Y-218D02*
D03*
X1395Y-5D02*
D03*
X1855Y27D02*
D03*
X1734D02*
D03*
X-59Y-195D02*
D03*
X1060Y-59D02*
D03*
X1030Y-88D02*
D03*
X774Y-163D02*
D03*
X393Y-161D02*
D03*
X1811Y-310D02*
D03*
X1326Y-6D02*
D03*
X1150Y-304D02*
D03*
X1454Y-266D02*
D03*
X1908Y-309D02*
D03*
X1553Y-312D02*
D03*
X947Y-249D02*
D03*
X946Y-292D02*
D03*
X1222Y198D02*
D03*
X196Y-308D02*
D03*
X200Y253D02*
D03*
X1032Y-177D02*
D03*
X-96Y-195D02*
D03*
X17Y168D02*
D03*
X1504Y-145D02*
D03*
X1180Y312D02*
D03*
X1090Y-41D02*
D03*
X1030Y-126D02*
D03*
X1140Y-22D02*
D03*
X1224Y-147D02*
D03*
X1270Y-69D02*
D03*
X1274Y163D02*
D03*
X1464Y-7D02*
D03*
X1455Y144D02*
D03*
X313Y-320D02*
D03*
X114Y-309D02*
D03*
X1755Y-349D02*
D03*
X1618Y-348D02*
D03*
X1178Y100D02*
D03*
X1337Y164D02*
D03*
X990Y-253D02*
D03*
X822Y-210D02*
D03*
X975Y-41D02*
D03*
X1067Y-205D02*
D03*
X229Y-268D02*
D03*
X1798Y126D02*
D03*
X1977Y46D02*
D03*
X1625Y-144D02*
D03*
X1798Y-84D02*
D03*
X1693Y199D02*
D03*
X1765Y180D02*
D03*
X1519Y197D02*
D03*
X1832Y270D02*
D03*
X1926Y341D02*
D03*
X-22Y-195D02*
D03*
X1090Y163D02*
D03*
X521Y167D02*
D03*
X671Y-83D02*
D03*
Y7D02*
D03*
X504Y-88D02*
D03*
X6Y-358D02*
D03*
X1761Y-84D02*
D03*
X1510Y-58D02*
D03*
X1721Y-142D02*
D03*
X915Y-5D02*
D03*
X879Y41D02*
D03*
X666Y-260D02*
D03*
X1029Y-377D02*
D03*
X1453D02*
D03*
X201Y381D02*
D03*
X84Y183D02*
D03*
X396Y278D02*
D03*
X561Y-123D02*
D03*
X83Y32D02*
D03*
X84Y106D02*
D03*
X310Y43D02*
D03*
X247Y48D02*
D03*
X189Y46D02*
D03*
X318Y190D02*
D03*
X353Y210D02*
D03*
X315Y-111D02*
D03*
X1798Y27D02*
D03*
X1835Y-75D02*
D03*
X581Y299D02*
D03*
X514D02*
D03*
X373Y365D02*
D03*
X-41D02*
D03*
X-39Y286D02*
D03*
X672Y358D02*
D03*
X659Y-349D02*
D03*
X-47Y43D02*
D03*
X394Y-222D02*
D03*
X1178Y-245D02*
D03*
X1378Y-168D02*
D03*
X1178Y-79D02*
D03*
X1311Y371D02*
D03*
X1611Y375D02*
D03*
X78Y-266D02*
D03*
X867Y169D02*
D03*
X857Y354D02*
D03*
X1154Y238D02*
D03*
X1270Y103D02*
D03*
X750Y300D02*
D03*
X760Y-365D02*
D03*
D41*
X-48Y-288D02*
D03*
X-71D02*
D03*
M02*
