G04 Layer_Color=65535*
%FSLAX23Y23*%
%MOIN*%
G70*
G01*
G75*
%ADD24C,0.010*%
%ADD27C,0.008*%
%ADD42C,0.008*%
%ADD43C,0.024*%
%ADD44C,0.004*%
%ADD45C,0.012*%
%ADD46C,0.005*%
%ADD47C,0.010*%
%ADD48C,0.007*%
G36*
X680Y-335D02*
X625Y-300D01*
X680Y-270D01*
Y-335D01*
D02*
G37*
G36*
X1990Y-327D02*
X1925D01*
X1960Y-273D01*
X1990Y-327D01*
D02*
G37*
G36*
X1576Y169D02*
X1546Y225D01*
X1610D01*
X1576Y169D01*
D02*
G37*
D24*
X1869Y76D02*
G03*
X1869Y76I-5J0D01*
G01*
X1Y-187D02*
G03*
X1Y-187I-5J0D01*
G01*
X1141Y-44D02*
G03*
X1141Y-44I-5J0D01*
G01*
X1141Y127D02*
G03*
X1141Y127I-5J0D01*
G01*
X1109Y334D02*
G03*
X1109Y334I-5J0D01*
G01*
X1102Y-227D02*
G03*
X1102Y-227I-5J0D01*
G01*
X229Y-239D02*
G03*
X229Y-239I-5J0D01*
G01*
X378Y196D02*
G03*
X378Y196I-5J0D01*
G01*
D27*
X309Y-210D02*
Y-132D01*
X73Y-210D02*
X309D01*
X73Y-132D02*
X309Y-132D01*
X73Y-210D02*
Y-132D01*
X419Y-149D02*
X762D01*
X419Y193D02*
X762D01*
Y-149D02*
Y193D01*
X419Y-149D02*
Y193D01*
D42*
X1575Y309D02*
G03*
X1575Y309I-41J0D01*
G01*
X919Y-176D02*
G03*
X919Y-176I-41J0D01*
G01*
X25Y-208D02*
X18Y-201D01*
Y-188D01*
X25Y-181D01*
X31D01*
X38Y-188D01*
Y-195D01*
Y-188D01*
X45Y-181D01*
X51D01*
X58Y-188D01*
Y-201D01*
X51Y-208D01*
X18Y-168D02*
X45D01*
X58Y-155D01*
X45Y-141D01*
X18D01*
X326Y-186D02*
Y-213D01*
X346D01*
X339Y-200D01*
Y-193D01*
X346Y-186D01*
X359D01*
X366Y-193D01*
Y-206D01*
X359Y-213D01*
X326Y-173D02*
X352D01*
X366Y-160D01*
X352Y-146D01*
X326D01*
X1739Y113D02*
X1789D01*
Y138D01*
X1781Y146D01*
X1772D01*
X1764Y138D01*
Y113D01*
Y138D01*
X1756Y146D01*
X1747D01*
X1739Y138D01*
Y113D01*
Y163D02*
X1789D01*
Y188D01*
X1781Y196D01*
X1747D01*
X1739Y188D01*
Y163D01*
X1789Y213D02*
X1739D01*
X1756Y229D01*
X1739Y246D01*
X1789D01*
X1818Y145D02*
X1810Y137D01*
Y120D01*
X1818Y112D01*
X1827D01*
X1835Y120D01*
Y137D01*
X1843Y145D01*
X1852D01*
X1860Y137D01*
Y120D01*
X1852Y112D01*
X1810Y162D02*
X1860D01*
X1843Y178D01*
X1860Y195D01*
X1810D01*
Y212D02*
X1860D01*
Y237D01*
X1852Y245D01*
X1818D01*
X1810Y237D01*
Y212D01*
D43*
X471Y154D02*
G03*
X471Y154I-12J0D01*
G01*
D44*
X853Y214D02*
Y254D01*
X1857Y-8D02*
Y55D01*
X1739Y-8D02*
Y55D01*
X-0Y-319D02*
Y-257D01*
X-118Y-319D02*
Y-257D01*
X143Y-65D02*
X185D01*
X198D02*
X240D01*
X-50Y196D02*
Y256D01*
X104Y248D02*
Y308D01*
X1740Y257D02*
Y266D01*
X1622Y257D02*
Y266D01*
Y257D02*
X1740D01*
X1622Y356D02*
X1740D01*
X1622Y348D02*
Y356D01*
X1740Y348D02*
Y356D01*
X623Y-390D02*
Y-256D01*
X368Y-390D02*
X623D01*
X368D02*
Y-256D01*
X623D01*
X1874Y-253D02*
X2008D01*
X1874Y252D02*
X2008D01*
X1180Y143D02*
Y182D01*
X1230Y-35D02*
Y5D01*
X1215Y340D02*
Y380D01*
X216Y82D02*
Y122D01*
X983Y213D02*
Y255D01*
Y141D02*
Y183D01*
X767Y336D02*
Y378D01*
X1168Y-54D02*
X1192D01*
X1168Y-133D02*
X1192D01*
X1168D02*
Y-54D01*
X1192Y-133D02*
Y-54D01*
X1192Y38D02*
Y117D01*
X1168Y38D02*
Y117D01*
Y38D02*
X1192D01*
X1168Y117D02*
X1192D01*
X1415Y244D02*
Y286D01*
Y307D02*
Y349D01*
X1360Y26D02*
Y68D01*
Y93D02*
Y134D01*
Y-145D02*
Y-103D01*
Y-77D02*
Y-36D01*
X216Y135D02*
Y177D01*
Y189D02*
Y231D01*
X104Y328D02*
Y388D01*
X288Y271D02*
Y311D01*
X691Y-309D02*
X731D01*
X1145Y-215D02*
Y-176D01*
X288Y335D02*
Y375D01*
X254Y-65D02*
X294D01*
X450Y338D02*
Y380D01*
X1655Y-235D02*
X1695D01*
X1415Y181D02*
Y222D01*
X1141Y213D02*
Y330D01*
X1223Y213D02*
Y330D01*
X1141D02*
X1223D01*
X1141Y213D02*
X1223D01*
X1134Y-348D02*
X1216D01*
X1134Y-231D02*
X1216D01*
Y-348D02*
Y-231D01*
X1134Y-348D02*
Y-231D01*
X1360Y-328D02*
Y-287D01*
X1594Y-235D02*
X1636D01*
X1534D02*
X1576D01*
X1475D02*
X1515D01*
X997Y-19D02*
Y23D01*
Y49D02*
Y91D01*
X580Y339D02*
Y379D01*
X644Y339D02*
Y379D01*
X96Y-330D02*
Y-292D01*
Y-330D02*
X123D01*
X187D02*
X214D01*
Y-292D01*
X250Y-319D02*
X289D01*
X89Y-65D02*
X129D01*
X1785Y-235D02*
X1825D01*
X1785Y-171D02*
X1825D01*
X1724Y-235D02*
X1766D01*
X1360Y-261D02*
Y-219D01*
X16Y-278D02*
X55D01*
X-53Y-149D02*
X11D01*
X-181D02*
X-150D01*
X-189Y-157D02*
X-181Y-149D01*
X-189Y155D02*
X-181Y147D01*
X-150D01*
X-189Y-157D02*
Y155D01*
X-53Y147D02*
X11D01*
X-162Y-149D02*
Y147D01*
D45*
X1525Y150D02*
X1725D01*
X1525Y-150D02*
X1725D01*
D46*
X-207Y0D02*
X-161D01*
X40Y-349D02*
X35Y-344D01*
X25D01*
X20Y-349D01*
Y-369D01*
X25Y-374D01*
X35D01*
X40Y-369D01*
X65Y-374D02*
Y-344D01*
X50Y-359D01*
X70D01*
X1311Y-203D02*
Y-173D01*
X1326D01*
X1331Y-178D01*
Y-188D01*
X1326Y-193D01*
X1311D01*
X1321D02*
X1331Y-203D01*
X1341Y-198D02*
X1346Y-203D01*
X1356D01*
X1361Y-198D01*
Y-178D01*
X1356Y-173D01*
X1346D01*
X1341Y-178D01*
Y-183D01*
X1346Y-188D01*
X1361D01*
X836Y-234D02*
X856D01*
X846D01*
Y-264D01*
X866D02*
Y-234D01*
X881D01*
X886Y-239D01*
Y-249D01*
X881Y-254D01*
X866D01*
X901Y-244D02*
X911D01*
X916Y-249D01*
Y-264D01*
X901D01*
X896Y-259D01*
X901Y-254D01*
X916D01*
X1712Y-330D02*
Y-300D01*
X1727D01*
X1732Y-305D01*
Y-315D01*
X1727Y-320D01*
X1712D01*
X1722D02*
X1732Y-330D01*
X1762D02*
X1742D01*
X1762Y-310D01*
Y-305D01*
X1757Y-300D01*
X1747D01*
X1742Y-305D01*
X1772Y-330D02*
X1782D01*
X1777D01*
Y-300D01*
X1772Y-305D01*
X1785Y-343D02*
Y-373D01*
X1800D01*
X1805Y-368D01*
Y-348D01*
X1800Y-343D01*
X1785D01*
X1835Y-373D02*
X1815D01*
X1835Y-353D01*
Y-348D01*
X1830Y-343D01*
X1820D01*
X1815Y-348D01*
X101Y19D02*
X96Y14D01*
Y4D01*
X101Y-1D01*
X121D01*
X126Y4D01*
Y14D01*
X121Y19D01*
X101Y29D02*
X96Y34D01*
Y44D01*
X101Y49D01*
X106D01*
X111Y44D01*
Y39D01*
Y44D01*
X116Y49D01*
X121D01*
X126Y44D01*
Y34D01*
X121Y29D01*
X321Y-366D02*
X316Y-361D01*
X306D01*
X301Y-366D01*
Y-386D01*
X306Y-391D01*
X316D01*
X321Y-386D01*
X351Y-361D02*
X331D01*
Y-376D01*
X341Y-371D01*
X346D01*
X351Y-376D01*
Y-386D01*
X346Y-391D01*
X336D01*
X331Y-386D01*
X79Y-365D02*
Y-390D01*
X84Y-395D01*
X94D01*
X99Y-390D01*
Y-365D01*
X109Y-370D02*
X114Y-365D01*
X124D01*
X129Y-370D01*
Y-375D01*
X124Y-380D01*
X119D01*
X124D01*
X129Y-385D01*
Y-390D01*
X124Y-395D01*
X114D01*
X109Y-390D01*
X662Y374D02*
Y344D01*
X677D01*
X682Y349D01*
Y369D01*
X677Y374D01*
X662D01*
X692Y344D02*
X702D01*
X697D01*
Y374D01*
X692Y369D01*
X854Y56D02*
Y86D01*
X869D01*
X874Y81D01*
Y71D01*
X869Y66D01*
X854D01*
X864D02*
X874Y56D01*
X904D02*
X884D01*
X904Y76D01*
Y81D01*
X899Y86D01*
X889D01*
X884Y81D01*
X914D02*
X919Y86D01*
X929D01*
X934Y81D01*
Y61D01*
X929Y56D01*
X919D01*
X914Y61D01*
Y81D01*
X854Y-17D02*
Y13D01*
X869D01*
X874Y8D01*
Y-2D01*
X869Y-7D01*
X854D01*
X864D02*
X874Y-17D01*
X904D02*
X884D01*
X904Y3D01*
Y8D01*
X899Y13D01*
X889D01*
X884Y8D01*
X934Y-17D02*
X914D01*
X934Y3D01*
Y8D01*
X929Y13D01*
X919D01*
X914Y8D01*
X1470Y-305D02*
X1465Y-300D01*
X1455D01*
X1450Y-305D01*
Y-325D01*
X1455Y-330D01*
X1465D01*
X1470Y-325D01*
X1480Y-330D02*
X1490D01*
X1485D01*
Y-300D01*
X1480Y-305D01*
X1525Y-330D02*
X1505D01*
X1525Y-310D01*
Y-305D01*
X1520Y-300D01*
X1510D01*
X1505Y-305D01*
X1514Y-372D02*
Y-342D01*
X1529D01*
X1534Y-347D01*
Y-357D01*
X1529Y-362D01*
X1514D01*
X1524D02*
X1534Y-372D01*
X1544D02*
X1554D01*
X1549D01*
Y-342D01*
X1544Y-347D01*
X1589Y-372D02*
X1569D01*
X1589Y-352D01*
Y-347D01*
X1584Y-342D01*
X1574D01*
X1569Y-347D01*
X1584Y-330D02*
Y-300D01*
X1599D01*
X1604Y-305D01*
Y-315D01*
X1599Y-320D01*
X1584D01*
X1594D02*
X1604Y-330D01*
X1614D02*
X1624D01*
X1619D01*
Y-300D01*
X1614Y-305D01*
X1639Y-330D02*
X1649D01*
X1644D01*
Y-300D01*
X1639Y-305D01*
X1314Y-374D02*
Y-344D01*
X1329D01*
X1334Y-349D01*
Y-359D01*
X1329Y-364D01*
X1314D01*
X1324D02*
X1334Y-374D01*
X1344Y-349D02*
X1349Y-344D01*
X1359D01*
X1364Y-349D01*
Y-354D01*
X1359Y-359D01*
X1364Y-364D01*
Y-369D01*
X1359Y-374D01*
X1349D01*
X1344Y-369D01*
Y-364D01*
X1349Y-359D01*
X1344Y-354D01*
Y-349D01*
X1349Y-359D02*
X1359D01*
X1014Y-275D02*
Y-300D01*
X1019Y-305D01*
X1029D01*
X1034Y-300D01*
Y-275D01*
X1059Y-305D02*
Y-275D01*
X1044Y-290D01*
X1064D01*
X1023Y311D02*
Y286D01*
X1028Y281D01*
X1038D01*
X1043Y286D01*
Y311D01*
X1073D02*
X1063Y306D01*
X1053Y296D01*
Y286D01*
X1058Y281D01*
X1068D01*
X1073Y286D01*
Y291D01*
X1068Y296D01*
X1053D01*
X1365Y142D02*
Y172D01*
X1380D01*
X1385Y167D01*
Y157D01*
X1380Y152D01*
X1365D01*
X1375D02*
X1385Y142D01*
X1395D02*
X1405D01*
X1400D01*
Y172D01*
X1395Y167D01*
X1440Y172D02*
X1430Y167D01*
X1420Y157D01*
Y147D01*
X1425Y142D01*
X1435D01*
X1440Y147D01*
Y152D01*
X1435Y157D01*
X1420D01*
X1662Y-349D02*
X1657Y-344D01*
X1647D01*
X1642Y-349D01*
Y-369D01*
X1647Y-374D01*
X1657D01*
X1662Y-369D01*
X1672Y-374D02*
X1682D01*
X1677D01*
Y-344D01*
X1672Y-349D01*
X1697D02*
X1702Y-344D01*
X1712D01*
X1717Y-349D01*
Y-354D01*
X1712Y-359D01*
X1707D01*
X1712D01*
X1717Y-364D01*
Y-369D01*
X1712Y-374D01*
X1702D01*
X1697Y-369D01*
X425Y297D02*
Y327D01*
X440D01*
X445Y322D01*
Y312D01*
X440Y307D01*
X425D01*
X435D02*
X445Y297D01*
X475Y327D02*
X455D01*
Y312D01*
X465Y317D01*
X470D01*
X475Y312D01*
Y302D01*
X470Y297D01*
X460D01*
X455Y302D01*
X-33Y185D02*
X-43D01*
X-38D01*
Y160D01*
X-43Y155D01*
X-48D01*
X-53Y160D01*
X-23Y155D02*
X-13D01*
X-18D01*
Y185D01*
X-23Y180D01*
X265Y19D02*
X260Y14D01*
Y4D01*
X265Y-1D01*
X285D01*
X290Y4D01*
Y14D01*
X285Y19D01*
X290Y29D02*
Y39D01*
Y34D01*
X260D01*
X265Y29D01*
Y54D02*
X260Y59D01*
Y69D01*
X265Y74D01*
X285D01*
X290Y69D01*
Y59D01*
X285Y54D01*
X265D01*
X195Y361D02*
X190Y366D01*
X180D01*
X175Y361D01*
Y341D01*
X180Y336D01*
X190D01*
X195Y341D01*
X205Y361D02*
X210Y366D01*
X220D01*
X225Y361D01*
Y356D01*
X220Y351D01*
X225Y346D01*
Y341D01*
X220Y336D01*
X210D01*
X205Y341D01*
Y346D01*
X210Y351D01*
X205Y356D01*
Y361D01*
X210Y351D02*
X220D01*
X1233Y-179D02*
X1228Y-174D01*
X1218D01*
X1213Y-179D01*
Y-199D01*
X1218Y-204D01*
X1228D01*
X1233Y-199D01*
X1263Y-174D02*
X1253Y-179D01*
X1243Y-189D01*
Y-199D01*
X1248Y-204D01*
X1258D01*
X1263Y-199D01*
Y-194D01*
X1258Y-189D01*
X1243D01*
X765Y-318D02*
X760Y-313D01*
X750D01*
X745Y-318D01*
Y-338D01*
X750Y-343D01*
X760D01*
X765Y-338D01*
X775Y-343D02*
X785D01*
X780D01*
Y-313D01*
X775Y-318D01*
X815Y-343D02*
Y-313D01*
X800Y-328D01*
X820D01*
X195Y294D02*
X190Y299D01*
X180D01*
X175Y294D01*
Y274D01*
X180Y269D01*
X190D01*
X195Y274D01*
X205Y299D02*
X225D01*
Y294D01*
X205Y274D01*
Y269D01*
X1Y360D02*
X-4Y365D01*
X-14D01*
X-19Y360D01*
Y340D01*
X-14Y335D01*
X-4D01*
X1Y340D01*
X31Y335D02*
X11D01*
X31Y355D01*
Y360D01*
X26Y365D01*
X16D01*
X11Y360D01*
X99Y195D02*
Y225D01*
X114D01*
X119Y220D01*
Y210D01*
X114Y205D01*
X99D01*
X109D02*
X119Y195D01*
X129Y220D02*
X134Y225D01*
X144D01*
X149Y220D01*
Y215D01*
X144Y210D01*
X139D01*
X144D01*
X149Y205D01*
Y200D01*
X144Y195D01*
X134D01*
X129Y200D01*
X97Y143D02*
Y173D01*
X112D01*
X117Y168D01*
Y158D01*
X112Y153D01*
X97D01*
X107D02*
X117Y143D01*
X147D02*
X127D01*
X147Y163D01*
Y168D01*
X142Y173D01*
X132D01*
X127Y168D01*
X1646Y33D02*
X1616D01*
Y48D01*
X1621Y53D01*
X1631D01*
X1636Y48D01*
Y33D01*
X1646Y63D02*
Y73D01*
Y68D01*
X1616D01*
X1621Y63D01*
X1428Y-70D02*
Y-40D01*
X1443D01*
X1448Y-45D01*
Y-55D01*
X1443Y-60D01*
X1428D01*
X1438D02*
X1448Y-70D01*
X1478Y-40D02*
X1468Y-45D01*
X1458Y-55D01*
Y-65D01*
X1463Y-70D01*
X1473D01*
X1478Y-65D01*
Y-60D01*
X1473Y-55D01*
X1458D01*
X1430Y-137D02*
Y-107D01*
X1445D01*
X1450Y-112D01*
Y-122D01*
X1445Y-127D01*
X1430D01*
X1440D02*
X1450Y-137D01*
X1460Y-107D02*
X1480D01*
Y-112D01*
X1460Y-132D01*
Y-137D01*
X1429Y100D02*
Y130D01*
X1444D01*
X1449Y125D01*
Y115D01*
X1444Y110D01*
X1429D01*
X1439D02*
X1449Y100D01*
X1459D02*
X1469D01*
X1464D01*
Y130D01*
X1459Y125D01*
X1484D02*
X1489Y130D01*
X1499D01*
X1504Y125D01*
Y120D01*
X1499Y115D01*
X1504Y110D01*
Y105D01*
X1499Y100D01*
X1489D01*
X1484Y105D01*
Y110D01*
X1489Y115D01*
X1484Y120D01*
Y125D01*
X1489Y115D02*
X1499D01*
X1429Y29D02*
Y59D01*
X1444D01*
X1449Y54D01*
Y44D01*
X1444Y39D01*
X1429D01*
X1439D02*
X1449Y29D01*
X1459D02*
X1469D01*
X1464D01*
Y59D01*
X1459Y54D01*
X1484Y34D02*
X1489Y29D01*
X1499D01*
X1504Y34D01*
Y54D01*
X1499Y59D01*
X1489D01*
X1484Y54D01*
Y49D01*
X1489Y44D01*
X1504D01*
X1380Y360D02*
Y390D01*
X1395D01*
X1400Y385D01*
Y375D01*
X1395Y370D01*
X1380D01*
X1390D02*
X1400Y360D01*
X1410D02*
X1420D01*
X1415D01*
Y390D01*
X1410Y385D01*
X1455Y390D02*
X1435D01*
Y375D01*
X1445Y380D01*
X1450D01*
X1455Y375D01*
Y365D01*
X1450Y360D01*
X1440D01*
X1435Y365D01*
X1350Y227D02*
X1320D01*
Y242D01*
X1325Y247D01*
X1335D01*
X1340Y242D01*
Y227D01*
Y237D02*
X1350Y247D01*
Y257D02*
Y267D01*
Y262D01*
X1320D01*
X1325Y257D01*
X1350Y297D02*
X1320D01*
X1335Y282D01*
Y302D01*
X1060Y90D02*
Y65D01*
X1065Y60D01*
X1075D01*
X1080Y65D01*
Y90D01*
X1090D02*
X1110D01*
Y85D01*
X1090Y65D01*
Y60D01*
X1054Y-84D02*
Y-109D01*
X1059Y-114D01*
X1069D01*
X1074Y-109D01*
Y-84D01*
X1104Y-114D02*
X1084D01*
X1104Y-94D01*
Y-89D01*
X1099Y-84D01*
X1089D01*
X1084Y-89D01*
X721Y297D02*
Y327D01*
X736D01*
X741Y322D01*
Y312D01*
X736Y307D01*
X721D01*
X731D02*
X741Y297D01*
X751D02*
X761D01*
X756D01*
Y327D01*
X751Y322D01*
X861Y150D02*
Y180D01*
X876D01*
X881Y175D01*
Y165D01*
X876Y160D01*
X861D01*
X871D02*
X881Y150D01*
X906D02*
Y180D01*
X891Y165D01*
X911D01*
X930Y268D02*
Y298D01*
X945D01*
X950Y293D01*
Y283D01*
X945Y278D01*
X930D01*
X940D02*
X950Y268D01*
X960D02*
X970D01*
X965D01*
Y298D01*
X960Y293D01*
X985Y298D02*
X1005D01*
Y293D01*
X985Y273D01*
Y268D01*
X601Y142D02*
Y117D01*
X606Y112D01*
X616D01*
X621Y117D01*
Y142D01*
X651D02*
X631D01*
Y127D01*
X641Y132D01*
X646D01*
X651Y127D01*
Y117D01*
X646Y112D01*
X636D01*
X631Y117D01*
X118Y111D02*
X113Y116D01*
X103D01*
X98Y111D01*
Y91D01*
X103Y86D01*
X113D01*
X118Y91D01*
X128D02*
X133Y86D01*
X143D01*
X148Y91D01*
Y111D01*
X143Y116D01*
X133D01*
X128Y111D01*
Y106D01*
X133Y101D01*
X148D01*
X1107Y372D02*
X1102Y377D01*
X1092D01*
X1087Y372D01*
Y352D01*
X1092Y347D01*
X1102D01*
X1107Y352D01*
X1117Y347D02*
X1127D01*
X1122D01*
Y377D01*
X1117Y372D01*
X1142Y347D02*
X1152D01*
X1147D01*
Y377D01*
X1142Y372D01*
X1272Y45D02*
X1267Y50D01*
X1257D01*
X1252Y45D01*
Y25D01*
X1257Y20D01*
X1267D01*
X1272Y25D01*
X1282Y20D02*
X1292D01*
X1287D01*
Y50D01*
X1282Y45D01*
X1270Y205D02*
X1265Y210D01*
X1255D01*
X1250Y205D01*
Y185D01*
X1255Y180D01*
X1265D01*
X1270Y185D01*
X1280Y180D02*
X1290D01*
X1285D01*
Y210D01*
X1280Y205D01*
X1325Y210D02*
X1305D01*
Y195D01*
X1315Y200D01*
X1320D01*
X1325Y195D01*
Y185D01*
X1320Y180D01*
X1310D01*
X1305Y185D01*
X1955Y20D02*
X1925D01*
Y35D01*
X1930Y40D01*
X1940D01*
X1945Y35D01*
Y20D01*
X1955Y70D02*
Y50D01*
X1935Y70D01*
X1930D01*
X1925Y65D01*
Y55D01*
X1930Y50D01*
X361Y-324D02*
X331D01*
Y-309D01*
X336Y-304D01*
X346D01*
X351Y-309D01*
Y-324D01*
X336Y-294D02*
X331Y-289D01*
Y-279D01*
X336Y-274D01*
X341D01*
X346Y-279D01*
Y-284D01*
Y-279D01*
X351Y-274D01*
X356D01*
X361Y-279D01*
Y-289D01*
X356Y-294D01*
X-17Y304D02*
Y274D01*
X3D01*
X13D02*
X23D01*
X18D01*
Y304D01*
X13Y299D01*
X-115Y303D02*
Y273D01*
X-95D01*
X-65D02*
X-85D01*
X-65Y293D01*
Y298D01*
X-70Y303D01*
X-80D01*
X-85Y298D01*
X232Y-1D02*
X202D01*
Y14D01*
X207Y19D01*
X217D01*
X222Y14D01*
Y-1D01*
Y9D02*
X232Y19D01*
Y29D02*
Y39D01*
Y34D01*
X202D01*
X207Y29D01*
Y54D02*
X202Y59D01*
Y69D01*
X207Y74D01*
X227D01*
X232Y69D01*
Y59D01*
X227Y54D01*
X207D01*
X179Y0D02*
X149D01*
Y15D01*
X154Y20D01*
X164D01*
X169Y15D01*
Y0D01*
Y10D02*
X179Y20D01*
Y30D02*
Y40D01*
Y35D01*
X149D01*
X154Y30D01*
Y55D02*
X149Y60D01*
Y70D01*
X154Y75D01*
X159D01*
X164Y70D01*
Y65D01*
Y70D01*
X169Y75D01*
X174D01*
X179Y70D01*
Y60D01*
X174Y55D01*
X-71Y-369D02*
Y-394D01*
X-66Y-399D01*
X-56D01*
X-51Y-394D01*
Y-369D01*
X-41Y-399D02*
X-31D01*
X-36D01*
Y-369D01*
X-41Y-374D01*
X1772Y44D02*
X1792D01*
Y39D01*
X1772Y19D01*
Y14D01*
X1792D01*
X1802D02*
X1812D01*
X1807D01*
Y44D01*
X1802Y39D01*
X264Y-226D02*
X254D01*
X259D01*
Y-251D01*
X254Y-256D01*
X249D01*
X244Y-251D01*
X274Y-256D02*
Y-226D01*
X289D01*
X294Y-231D01*
Y-241D01*
X289Y-246D01*
X274D01*
X304Y-256D02*
X314D01*
X309D01*
Y-226D01*
X304Y-231D01*
X825Y294D02*
X820Y299D01*
X810D01*
X805Y294D01*
Y274D01*
X810Y269D01*
X820D01*
X825Y274D01*
X835Y269D02*
X845D01*
X840D01*
Y299D01*
X835Y294D01*
X880Y299D02*
X870Y294D01*
X860Y284D01*
Y274D01*
X865Y269D01*
X875D01*
X880Y274D01*
Y279D01*
X875Y284D01*
X860D01*
X536Y326D02*
Y297D01*
X542Y291D01*
X553D01*
X559Y297D01*
Y326D01*
X594Y320D02*
X588Y326D01*
X577D01*
X571Y320D01*
Y314D01*
X577Y308D01*
X588D01*
X594Y303D01*
Y297D01*
X588Y291D01*
X577D01*
X571Y297D01*
X606Y326D02*
Y291D01*
X623D01*
X629Y297D01*
Y303D01*
X623Y308D01*
X606D01*
X623D01*
X629Y314D01*
Y320D01*
X623Y326D01*
X606D01*
X1736Y-127D02*
X1759D01*
X1748D01*
Y-162D01*
X1771Y-127D02*
Y-151D01*
X1783Y-162D01*
X1794Y-151D01*
Y-127D01*
X1829D02*
Y-162D01*
X1812D01*
X1806Y-157D01*
Y-145D01*
X1812Y-139D01*
X1829D01*
X1864Y-127D02*
Y-162D01*
X1847D01*
X1841Y-157D01*
Y-145D01*
X1847Y-139D01*
X1864D01*
D47*
X1523Y398D02*
X1545D01*
X1510Y383D02*
X1559D01*
X1533Y352D02*
Y369D01*
X1499D02*
X1569D01*
D48*
X1786Y285D02*
Y335D01*
X1811D01*
X1819Y326D01*
Y310D01*
X1811Y301D01*
X1786D01*
X1803D02*
X1819Y285D01*
X1861D02*
X1844D01*
X1836Y293D01*
Y310D01*
X1844Y318D01*
X1861D01*
X1869Y310D01*
Y301D01*
X1836D01*
X1886Y285D02*
X1911D01*
X1919Y293D01*
X1911Y301D01*
X1894D01*
X1886Y310D01*
X1894Y318D01*
X1919D01*
X1961Y285D02*
X1944D01*
X1936Y293D01*
Y310D01*
X1944Y318D01*
X1961D01*
X1969Y310D01*
Y301D01*
X1936D01*
X1994Y326D02*
Y318D01*
X1986D01*
X2003D01*
X1994D01*
Y293D01*
X2003Y285D01*
M02*
