M48
;Layer_Color=9474304
;FILE_FORMAT=2:4
INCH
;TYPE=PLATED
T1F00S00C0.0130
T2F00S00C0.0236
T3F00S00C0.0315
T4F00S00C0.0354
;TYPE=NON_PLATED
T5F00S00C0.0276
%
T01
X002520Y009182
Y009418
X003470Y009300
Y009670
Y008926
X004830Y009370
X005650Y009380
X005950Y009920
X005250
X005760Y008640
X007200Y010720
X008030Y011300
X008605
X009380Y011630
Y012320
X009330Y014700
X009000Y014690
X008410Y014400
X008230Y015430
X009430Y015340
X009940Y014730
X011070Y014410
X011430Y015140
X012010Y015240
X012880Y015550
X013500Y015130
X013480Y014220
X013500Y013480
X014050Y013550
X014660Y014320
X015080Y014980
X015370Y013900
X014930Y012920
X014550Y011830
X014050Y011580
X013740Y011370
X013450Y011110
Y010730
X013370Y010290
X013820Y010180
X013000Y009420
X012610Y009390
X012600Y008960
X012090Y008950
X011700Y009150
X010920
X009620Y009120
X010210Y010080
X012890Y011470
X012140Y012480
X011670Y012710
X011780Y013530
X007500Y013790
X006370Y013730
X006680Y013410
X006520Y012360
X006210Y011880
X005030Y012280
X004470
X003960Y012460
X003650Y011740
X004490Y012980
X004170Y013490
X003440Y014260
X005230Y014530
X005590Y015580
X001850Y014950
X001970Y009970
X015100Y009710
X014670Y009080
X015390Y010520
X014910Y011320
X015850Y011364
X016270Y011880
X015850Y012700
X015900Y013380
X016600Y013580
X017740Y013510
X017510Y012770
X017790Y011870
X018310Y011570
X018190Y010700
X017700Y010330
X017690Y009740
X016840Y010320
X015670Y010050
X018680Y009030
X019330Y008670
X020700Y008660
X021260Y009050
X022230Y009060
X021500Y011480
X021130Y011312
X020760Y011310
X020180Y010690
X019580
X020430Y012410
X021820Y012390
X022920Y012610
X021140Y013670
X020800Y013950
X020080Y014140
X018340Y014120
X016180Y015000
X021470Y014850
X022410Y015560
T02
X006950Y009050
Y009550
X007450Y009050
X007950
Y009550
X008450
Y009050
X008950
Y009550
X022306Y009924
X022806
Y010424
X022306
Y010924
X022806
X022306Y011424
Y011924
X022806
Y013424
X022306
Y013924
X022806
Y014424
X022306
T03
X004130Y009443
Y010230
Y011017
T04
X011360Y011490
X018900Y011174
Y012174
Y013174
X019900
Y012174
Y011174
X018490Y015240
T05
X019960Y015220
M30
