G04 Layer_Color=8388736*
%FSLAX23Y23*%
%MOIN*%
G70*
G01*
G75*
%ADD48R,0.051X0.047*%
%ADD49R,0.030X0.065*%
%ADD50R,0.065X0.030*%
%ADD51R,0.047X0.051*%
%ADD52R,0.059X0.067*%
%ADD53R,0.047X0.075*%
%ADD54O,0.020X0.079*%
%ADD55O,0.079X0.020*%
%ADD56R,0.041X0.024*%
%ADD57R,0.055X0.063*%
%ADD58R,0.083X0.102*%
%ADD59R,0.083X0.054*%
%ADD60R,0.062X0.026*%
%ADD61R,0.091X0.066*%
%ADD62R,0.067X0.059*%
%ADD63O,0.049X0.024*%
%ADD64R,0.039X0.055*%
%ADD65C,0.063*%
%ADD66C,0.047*%
%ADD67R,0.047X0.047*%
%ADD68R,0.047X0.047*%
%ADD69O,0.070X0.063*%
%ADD70R,0.070X0.063*%
%ADD71C,0.055*%
%ADD72R,0.055X0.055*%
D48*
X1642Y979D02*
D03*
X1708D02*
D03*
X1462Y1343D02*
D03*
X1528D02*
D03*
X1512Y1183D02*
D03*
X1578D02*
D03*
X1563Y1548D02*
D03*
X1497D02*
D03*
X517Y1269D02*
D03*
X583D02*
D03*
X1288Y1425D02*
D03*
X1222D02*
D03*
Y1353D02*
D03*
X1288D02*
D03*
X1070Y1523D02*
D03*
X1004D02*
D03*
X1697Y1458D02*
D03*
X1763D02*
D03*
Y1513D02*
D03*
X1697D02*
D03*
X1642Y1252D02*
D03*
X1708D02*
D03*
Y1305D02*
D03*
X1642D02*
D03*
Y1083D02*
D03*
X1708D02*
D03*
Y1138D02*
D03*
X1642D02*
D03*
X517Y1319D02*
D03*
X583D02*
D03*
Y1369D02*
D03*
X517D02*
D03*
X635Y1453D02*
D03*
X569D02*
D03*
X1493Y1025D02*
D03*
X1427D02*
D03*
X635Y1510D02*
D03*
X569D02*
D03*
X697Y1453D02*
D03*
X763D02*
D03*
X1763Y1403D02*
D03*
X1697D02*
D03*
X1642Y921D02*
D03*
X1708D02*
D03*
X1344Y1190D02*
D03*
X1278D02*
D03*
Y1258D02*
D03*
X1344D02*
D03*
X763Y1510D02*
D03*
X697D02*
D03*
D49*
X2113Y1197D02*
D03*
X2076D02*
D03*
X2150D02*
D03*
X2076Y1282D02*
D03*
X2113D02*
D03*
X2150D02*
D03*
D50*
X203Y967D02*
D03*
Y893D02*
D03*
X287Y967D02*
D03*
Y930D02*
D03*
Y893D02*
D03*
D51*
X541Y1126D02*
D03*
Y1060D02*
D03*
X591Y1126D02*
D03*
Y1060D02*
D03*
X1013Y962D02*
D03*
Y896D02*
D03*
X641Y1060D02*
D03*
Y1126D02*
D03*
X1925Y1013D02*
D03*
Y947D02*
D03*
X1869D02*
D03*
Y1013D02*
D03*
X1813Y947D02*
D03*
Y1013D02*
D03*
X634Y961D02*
D03*
Y895D02*
D03*
X491Y1126D02*
D03*
Y1060D02*
D03*
X2056Y947D02*
D03*
Y1013D02*
D03*
X2112Y947D02*
D03*
Y1013D02*
D03*
D52*
X317Y1480D02*
D03*
X243D02*
D03*
X398Y1440D02*
D03*
X472D02*
D03*
Y1520D02*
D03*
X398D02*
D03*
D53*
X1929Y1522D02*
D03*
X2063D02*
D03*
D54*
X782Y1377D02*
D03*
X801D02*
D03*
X821D02*
D03*
X841D02*
D03*
X860D02*
D03*
X880D02*
D03*
X900D02*
D03*
X920D02*
D03*
X939D02*
D03*
X959D02*
D03*
X979D02*
D03*
X998D02*
D03*
Y1059D02*
D03*
X979D02*
D03*
X959D02*
D03*
X939D02*
D03*
X920D02*
D03*
X900D02*
D03*
X880D02*
D03*
X860D02*
D03*
X841D02*
D03*
X821D02*
D03*
X801D02*
D03*
X782D02*
D03*
D55*
X1049Y1326D02*
D03*
Y1307D02*
D03*
Y1287D02*
D03*
Y1267D02*
D03*
Y1248D02*
D03*
Y1228D02*
D03*
Y1208D02*
D03*
Y1188D02*
D03*
Y1169D02*
D03*
Y1149D02*
D03*
Y1129D02*
D03*
Y1110D02*
D03*
X731D02*
D03*
Y1129D02*
D03*
Y1149D02*
D03*
Y1169D02*
D03*
Y1188D02*
D03*
Y1208D02*
D03*
Y1228D02*
D03*
Y1248D02*
D03*
Y1267D02*
D03*
Y1287D02*
D03*
Y1307D02*
D03*
Y1326D02*
D03*
D56*
X1539Y1137D02*
D03*
Y1111D02*
D03*
Y1085D02*
D03*
X1451D02*
D03*
Y1111D02*
D03*
Y1137D02*
D03*
Y1295D02*
D03*
Y1270D02*
D03*
Y1244D02*
D03*
X1539D02*
D03*
Y1270D02*
D03*
Y1295D02*
D03*
D57*
X1155Y969D02*
D03*
X1092D02*
D03*
Y1055D02*
D03*
X1155D02*
D03*
D58*
X210Y1328D02*
D03*
Y1098D02*
D03*
D59*
Y1180D02*
D03*
Y1246D02*
D03*
D60*
X314Y1213D02*
D03*
Y1187D02*
D03*
Y1162D02*
D03*
Y1264D02*
D03*
Y1239D02*
D03*
D61*
X300Y1116D02*
D03*
Y1310D02*
D03*
D62*
X1991Y1017D02*
D03*
Y943D02*
D03*
D63*
X1568Y1425D02*
D03*
Y1450D02*
D03*
Y1476D02*
D03*
Y1501D02*
D03*
X1412Y1425D02*
D03*
Y1450D02*
D03*
Y1476D02*
D03*
Y1501D02*
D03*
Y971D02*
D03*
Y946D02*
D03*
Y920D02*
D03*
Y895D02*
D03*
X1568Y971D02*
D03*
Y946D02*
D03*
Y920D02*
D03*
Y895D02*
D03*
D64*
X561Y993D02*
D03*
X487D02*
D03*
X524Y903D02*
D03*
D65*
X1136Y1149D02*
D03*
X1849Y1524D02*
D03*
D66*
X695Y905D02*
D03*
Y955D02*
D03*
X745Y905D02*
D03*
X795D02*
D03*
Y955D02*
D03*
X845Y905D02*
D03*
Y955D02*
D03*
X895Y905D02*
D03*
X2231Y992D02*
D03*
X2281Y1042D02*
D03*
X2231D02*
D03*
X2281Y1092D02*
D03*
X2231D02*
D03*
Y1142D02*
D03*
X2281Y1192D02*
D03*
X2231D02*
D03*
X2281Y1342D02*
D03*
X2231D02*
D03*
X2281Y1392D02*
D03*
X2231D02*
D03*
X2281Y1442D02*
D03*
X2231D02*
D03*
D67*
X895Y955D02*
D03*
D68*
X2281Y992D02*
D03*
D69*
X1890Y1117D02*
D03*
Y1217D02*
D03*
X1990Y1117D02*
D03*
Y1217D02*
D03*
Y1317D02*
D03*
D70*
X1890D02*
D03*
D71*
X413Y1023D02*
D03*
Y1102D02*
D03*
D72*
Y944D02*
D03*
M02*
