G04 Layer_Color=32896*
%FSLAX23Y23*%
%MOIN*%
G70*
G01*
G75*
%ADD46C,0.005*%
%ADD47C,0.007*%
G36*
X1332Y1354D02*
Y1353D01*
X1335Y1333D01*
Y1333D01*
Y1333D01*
X1336Y1333D01*
X1336Y1332D01*
X1350Y1327D01*
X1351D01*
X1367Y1338D01*
X1369D01*
X1369Y1338D01*
X1383Y1324D01*
Y1324D01*
Y1323D01*
Y1323D01*
Y1323D01*
X1372Y1306D01*
Y1306D01*
Y1306D01*
Y1305D01*
Y1305D01*
X1378Y1291D01*
Y1291D01*
X1378Y1291D01*
X1379Y1290D01*
X1398Y1287D01*
X1398D01*
X1399Y1287D01*
Y1286D01*
Y1266D01*
Y1266D01*
X1398Y1266D01*
X1398Y1265D01*
X1379Y1261D01*
X1379D01*
X1379Y1261D01*
X1378Y1261D01*
X1372Y1246D01*
Y1246D01*
Y1245D01*
Y1245D01*
Y1245D01*
X1383Y1229D01*
Y1228D01*
Y1228D01*
Y1228D01*
X1369Y1214D01*
X1369Y1214D01*
X1368D01*
X1367Y1214D01*
X1352Y1224D01*
X1351D01*
X1344Y1220D01*
X1344D01*
X1344Y1221D01*
X1343Y1221D01*
X1329Y1255D01*
Y1255D01*
Y1255D01*
X1330Y1256D01*
X1332Y1257D01*
X1332Y1257D01*
X1332Y1257D01*
X1332Y1258D01*
X1333Y1258D01*
X1334Y1259D01*
X1335Y1260D01*
X1337Y1262D01*
X1339Y1265D01*
X1341Y1268D01*
X1342Y1271D01*
X1342Y1276D01*
Y1276D01*
Y1277D01*
X1342Y1279D01*
X1342Y1281D01*
X1341Y1283D01*
X1340Y1286D01*
X1338Y1289D01*
X1336Y1291D01*
X1336Y1291D01*
X1335Y1292D01*
X1334Y1293D01*
X1332Y1294D01*
X1330Y1296D01*
X1327Y1297D01*
X1324Y1298D01*
X1321Y1298D01*
X1319D01*
X1318Y1298D01*
X1315Y1297D01*
X1313Y1296D01*
X1310Y1295D01*
X1308Y1293D01*
X1305Y1291D01*
X1305Y1291D01*
X1304Y1290D01*
X1304Y1289D01*
X1302Y1287D01*
X1301Y1284D01*
X1300Y1282D01*
X1299Y1279D01*
X1299Y1276D01*
Y1275D01*
X1299Y1274D01*
X1300Y1271D01*
X1300Y1269D01*
X1302Y1266D01*
X1303Y1263D01*
X1305Y1260D01*
X1309Y1258D01*
X1309Y1258D01*
X1309Y1257D01*
X1310D01*
X1310Y1257D01*
X1312Y1256D01*
X1312Y1256D01*
X1312Y1255D01*
X1299Y1221D01*
X1298Y1221D01*
X1297Y1220D01*
X1290Y1224D01*
X1289D01*
X1274Y1214D01*
X1274Y1214D01*
X1273D01*
X1273Y1214D01*
X1258Y1228D01*
Y1228D01*
Y1229D01*
Y1229D01*
X1269Y1245D01*
Y1245D01*
Y1245D01*
Y1245D01*
Y1246D01*
X1263Y1261D01*
Y1261D01*
Y1261D01*
X1263Y1261D01*
X1262D01*
X1244Y1265D01*
X1244D01*
X1243Y1266D01*
X1243Y1266D01*
Y1286D01*
Y1286D01*
Y1287D01*
X1243Y1287D01*
X1244D01*
X1263Y1290D01*
X1263D01*
X1264Y1291D01*
X1264Y1291D01*
X1270Y1305D01*
Y1305D01*
Y1306D01*
Y1306D01*
Y1306D01*
Y1306D01*
X1258Y1323D01*
Y1323D01*
Y1323D01*
Y1324D01*
Y1324D01*
X1273Y1338D01*
X1273Y1338D01*
X1274D01*
X1290Y1327D01*
X1292D01*
X1305Y1332D01*
X1305D01*
X1306Y1333D01*
X1306Y1333D01*
Y1333D01*
X1310Y1353D01*
Y1353D01*
Y1354D01*
X1310Y1354D01*
X1311Y1354D01*
X1331D01*
X1332Y1354D01*
D02*
G37*
D46*
X1013Y964D02*
X1008Y969D01*
X998D01*
X993Y964D01*
Y959D01*
X998Y954D01*
X1003D01*
X998D01*
X993Y949D01*
Y944D01*
X998Y939D01*
X1008D01*
X1013Y944D01*
X983Y969D02*
Y949D01*
X973Y939D01*
X963Y949D01*
Y969D01*
X953Y964D02*
X948Y969D01*
X938D01*
X933Y964D01*
Y959D01*
X938Y954D01*
X943D01*
X938D01*
X933Y949D01*
Y944D01*
X938Y939D01*
X948D01*
X953Y944D01*
X419Y1407D02*
X439D01*
Y1392D01*
X429Y1397D01*
X424D01*
X419Y1392D01*
Y1382D01*
X424Y1377D01*
X434D01*
X439Y1382D01*
X409Y1407D02*
Y1387D01*
X399Y1377D01*
X389Y1387D01*
Y1407D01*
X1780Y1540D02*
X1785Y1545D01*
X1795D01*
X1800Y1540D01*
Y1520D01*
X1795Y1515D01*
X1785D01*
X1780Y1520D01*
Y1530D01*
X1790D01*
X1770Y1515D02*
Y1535D01*
X1755D01*
X1750Y1530D01*
Y1515D01*
X1720Y1545D02*
Y1515D01*
X1735D01*
X1740Y1520D01*
Y1530D01*
X1735Y1535D01*
X1720D01*
X1170Y1222D02*
X1150D01*
X1160D01*
Y1192D01*
X1140D02*
Y1222D01*
X1125D01*
X1120Y1217D01*
Y1207D01*
X1125Y1202D01*
X1140D01*
X1105Y1212D02*
X1095D01*
X1090Y1207D01*
Y1192D01*
X1105D01*
X1110Y1197D01*
X1105Y1202D01*
X1090D01*
X827Y1020D02*
X832Y1025D01*
X842D01*
X847Y1020D01*
Y1015D01*
X842Y1010D01*
X832D01*
X827Y1005D01*
Y1000D01*
X832Y995D01*
X842D01*
X847Y1000D01*
X817Y1025D02*
Y995D01*
X807Y1005D01*
X797Y995D01*
Y1025D01*
X787D02*
Y995D01*
X772D01*
X767Y1000D01*
Y1020D01*
X772Y1025D01*
X787D01*
X757Y1010D02*
X737D01*
X727Y995D02*
Y1025D01*
X717Y1015D01*
X707Y1025D01*
Y995D01*
X697Y1025D02*
Y995D01*
Y1005D01*
X677Y1025D01*
X692Y1010D01*
X677Y995D01*
X561Y1040D02*
X541D01*
X551D01*
Y1010D01*
X531Y1040D02*
Y1020D01*
X521Y1010D01*
X511Y1020D01*
Y1040D01*
X481D02*
Y1010D01*
X496D01*
X501Y1015D01*
Y1025D01*
X496Y1030D01*
X481D01*
X451Y1040D02*
Y1010D01*
X466D01*
X471Y1015D01*
Y1025D01*
X466Y1030D01*
X451D01*
X484Y1169D02*
X464D01*
X474D01*
Y1139D01*
X454Y1134D02*
X434D01*
X424Y1164D02*
X419Y1169D01*
X409D01*
X404Y1164D01*
Y1159D01*
X409Y1154D01*
X414D01*
X409D01*
X404Y1149D01*
Y1144D01*
X409Y1139D01*
X419D01*
X424Y1144D01*
X394Y1169D02*
Y1149D01*
X384Y1139D01*
X374Y1149D01*
Y1169D01*
X364Y1164D02*
X359Y1169D01*
X349D01*
X344Y1164D01*
Y1159D01*
X349Y1154D01*
X354D01*
X349D01*
X344Y1149D01*
Y1144D01*
X349Y1139D01*
X359D01*
X364Y1144D01*
X475Y904D02*
X455D01*
X465D01*
Y874D01*
X445Y869D02*
X425D01*
X395Y904D02*
X415D01*
Y889D01*
X405Y894D01*
X400D01*
X395Y889D01*
Y879D01*
X400Y874D01*
X410D01*
X415Y879D01*
X385Y904D02*
Y884D01*
X375Y874D01*
X365Y884D01*
Y904D01*
X2318Y1089D02*
X2313Y1094D01*
Y1104D01*
X2318Y1109D01*
X2338D01*
X2343Y1104D01*
Y1094D01*
X2338Y1089D01*
X2328D01*
Y1099D01*
X2343Y1079D02*
X2323D01*
Y1064D01*
X2328Y1059D01*
X2343D01*
X2313Y1029D02*
X2343D01*
Y1044D01*
X2338Y1049D01*
X2328D01*
X2323Y1044D01*
Y1029D01*
X2317Y1419D02*
X2312Y1424D01*
Y1434D01*
X2317Y1439D01*
X2337D01*
X2342Y1434D01*
Y1424D01*
X2337Y1419D01*
X2327D01*
Y1429D01*
X2342Y1409D02*
X2322D01*
Y1394D01*
X2327Y1389D01*
X2342D01*
X2312Y1359D02*
X2342D01*
Y1374D01*
X2337Y1379D01*
X2327D01*
X2322Y1374D01*
Y1359D01*
X2191Y1175D02*
Y1205D01*
X2176D01*
X2171Y1200D01*
Y1190D01*
X2176Y1185D01*
X2191D01*
X2181D02*
X2171Y1175D01*
X2161D02*
X2146D01*
X2141Y1180D01*
X2146Y1185D01*
X2156D01*
X2161Y1190D01*
X2156Y1195D01*
X2141D01*
X2126Y1200D02*
Y1195D01*
X2131D01*
X2121D01*
X2126D01*
Y1180D01*
X2121Y1175D01*
X2190Y1126D02*
Y1156D01*
X2175D01*
X2170Y1151D01*
Y1141D01*
X2175Y1136D01*
X2190D01*
X2180D02*
X2170Y1126D01*
X2160Y1146D02*
X2140Y1126D01*
X2150Y1136D01*
X2140Y1146D01*
X2160Y1126D01*
X2192Y1107D02*
X2172D01*
X2182D01*
Y1077D01*
X2162Y1097D02*
X2142Y1077D01*
X2152Y1087D01*
X2142Y1097D01*
X2162Y1077D01*
X2175Y1052D02*
X2180Y1057D01*
X2190D01*
X2195Y1052D01*
Y1047D01*
X2190Y1042D01*
X2180D01*
X2175Y1037D01*
Y1032D01*
X2180Y1027D01*
X2190D01*
X2195Y1032D01*
X2165Y1057D02*
Y1027D01*
X2155Y1037D01*
X2145Y1027D01*
Y1057D01*
X2115Y1052D02*
X2120Y1057D01*
X2130D01*
X2135Y1052D01*
Y1032D01*
X2130Y1027D01*
X2120D01*
X2115Y1032D01*
X2105Y1057D02*
Y1027D01*
X2085D01*
X2075Y1057D02*
Y1027D01*
Y1037D01*
X2055Y1057D01*
X2070Y1042D01*
X2055Y1027D01*
X2175Y1004D02*
X2180Y1009D01*
X2190D01*
X2195Y1004D01*
Y999D01*
X2190Y994D01*
X2180D01*
X2175Y989D01*
Y984D01*
X2180Y979D01*
X2190D01*
X2195Y984D01*
X2165Y1009D02*
Y979D01*
X2155Y989D01*
X2145Y979D01*
Y1009D01*
X2135D02*
Y979D01*
X2120D01*
X2115Y984D01*
Y1004D01*
X2120Y1009D01*
X2135D01*
X2331Y959D02*
Y939D01*
X2321Y929D01*
X2311Y939D01*
Y959D01*
X2281D02*
Y929D01*
X2296D01*
X2301Y934D01*
Y944D01*
X2296Y949D01*
X2281D01*
X2251Y959D02*
Y929D01*
X2266D01*
X2271Y934D01*
Y944D01*
X2266Y949D01*
X2251D01*
X2119Y1130D02*
Y1110D01*
X2109Y1100D01*
X2099Y1110D01*
Y1130D01*
X2069D02*
Y1100D01*
X2084D01*
X2089Y1105D01*
Y1115D01*
X2084Y1120D01*
X2069D01*
X2039Y1130D02*
Y1100D01*
X2054D01*
X2059Y1105D01*
Y1115D01*
X2054Y1120D01*
X2039D01*
X2102Y1203D02*
Y1233D01*
X2087D01*
X2082Y1228D01*
Y1218D01*
X2087Y1213D01*
X2102D01*
X2092D02*
X2082Y1203D01*
X2072D02*
X2057D01*
X2052Y1208D01*
X2057Y1213D01*
X2067D01*
X2072Y1218D01*
X2067Y1223D01*
X2052D01*
X2037Y1228D02*
Y1223D01*
X2042D01*
X2032D01*
X2037D01*
Y1208D01*
X2032Y1203D01*
X2096Y1329D02*
X2101Y1334D01*
X2111D01*
X2116Y1329D01*
Y1309D01*
X2111Y1304D01*
X2101D01*
X2096Y1309D01*
Y1319D01*
X2106D01*
X2086Y1304D02*
Y1324D01*
X2071D01*
X2066Y1319D01*
Y1304D01*
X2036Y1334D02*
Y1304D01*
X2051D01*
X2056Y1309D01*
Y1319D01*
X2051Y1324D01*
X2036D01*
X1842Y1134D02*
X1822D01*
X1832D01*
Y1104D01*
X1812Y1124D02*
X1792Y1104D01*
X1802Y1114D01*
X1792Y1124D01*
X1812Y1104D01*
X1842Y1205D02*
Y1235D01*
X1827D01*
X1822Y1230D01*
Y1220D01*
X1827Y1215D01*
X1842D01*
X1832D02*
X1822Y1205D01*
X1812Y1225D02*
X1792Y1205D01*
X1802Y1215D01*
X1792Y1225D01*
X1812Y1205D01*
X1842Y1332D02*
Y1302D01*
X1827D01*
X1822Y1307D01*
Y1312D01*
X1827Y1317D01*
X1842D01*
X1827D01*
X1822Y1322D01*
Y1327D01*
X1827Y1332D01*
X1842D01*
X1812D02*
Y1302D01*
Y1312D01*
X1792Y1332D01*
X1807Y1317D01*
X1792Y1302D01*
X1762Y1327D02*
X1767Y1332D01*
X1777D01*
X1782Y1327D01*
Y1307D01*
X1777Y1302D01*
X1767D01*
X1762Y1307D01*
Y1317D01*
X1772D01*
X1752Y1332D02*
Y1302D01*
X1737D01*
X1732Y1307D01*
Y1327D01*
X1737Y1332D01*
X1752D01*
X1519Y1495D02*
Y1466D01*
X1513Y1460D01*
X1502D01*
X1496Y1466D01*
Y1495D01*
X1461Y1489D02*
X1467Y1495D01*
X1478D01*
X1484Y1489D01*
Y1483D01*
X1478Y1477D01*
X1467D01*
X1461Y1472D01*
Y1466D01*
X1467Y1460D01*
X1478D01*
X1484Y1466D01*
X1449Y1495D02*
Y1460D01*
X1432D01*
X1426Y1466D01*
Y1472D01*
X1432Y1477D01*
X1449D01*
X1432D01*
X1426Y1483D01*
Y1489D01*
X1432Y1495D01*
X1449D01*
X1414D02*
Y1460D01*
X1397D01*
X1391Y1466D01*
Y1489D01*
X1397Y1495D01*
X1414D01*
X1379Y1460D02*
Y1495D01*
X1367Y1483D01*
X1356Y1495D01*
Y1460D01*
X1344Y1477D02*
X1321D01*
X1309Y1495D02*
Y1460D01*
Y1472D01*
X1286Y1495D01*
X1303Y1477D01*
X1286Y1460D01*
X1274D02*
X1262D01*
X1268D01*
Y1483D01*
X1274D01*
X1245Y1460D02*
Y1483D01*
X1227D01*
X1222Y1477D01*
Y1460D01*
X1192D02*
X1204D01*
X1210Y1466D01*
Y1477D01*
X1204Y1483D01*
X1192D01*
X1187Y1477D01*
Y1472D01*
X1210D01*
X1169Y1489D02*
Y1483D01*
X1175D01*
X1163D01*
X1169D01*
Y1466D01*
X1163Y1460D01*
X1146D02*
X1134D01*
X1140D01*
Y1483D01*
X1146D01*
X1117Y1460D02*
X1099D01*
X1093Y1466D01*
X1099Y1472D01*
X1111D01*
X1117Y1477D01*
X1111Y1483D01*
X1093D01*
X1082Y1477D02*
X1058D01*
X1047Y1495D02*
Y1472D01*
X1035Y1460D01*
X1023Y1472D01*
Y1495D01*
X1012Y1489D02*
X1006Y1495D01*
X994D01*
X988Y1489D01*
Y1483D01*
X994Y1477D01*
X1000D01*
X994D01*
X988Y1472D01*
Y1466D01*
X994Y1460D01*
X1006D01*
X1012Y1466D01*
D47*
X1364Y1202D02*
X1374D01*
X1379Y1197D01*
Y1177D01*
X1374Y1172D01*
X1364D01*
X1359Y1177D01*
Y1197D01*
X1364Y1202D01*
X1329Y1197D02*
X1334Y1202D01*
X1344D01*
X1349Y1197D01*
Y1192D01*
X1344Y1187D01*
X1334D01*
X1329Y1182D01*
Y1177D01*
X1334Y1172D01*
X1344D01*
X1349Y1177D01*
X1319Y1202D02*
Y1172D01*
Y1187D01*
X1299D01*
Y1202D01*
Y1172D01*
X1289Y1202D02*
Y1172D01*
X1279Y1182D01*
X1269Y1172D01*
Y1202D01*
M02*
