G04 Layer_Color=8388736*
%FSLAX23Y23*%
%MOIN*%
G70*
G01*
G75*
%ADD51R,0.039X0.087*%
G04:AMPARAMS|DCode=52|XSize=47mil|YSize=30mil|CornerRadius=9mil|HoleSize=0mil|Usage=FLASHONLY|Rotation=180.000|XOffset=0mil|YOffset=0mil|HoleType=Round|Shape=RoundedRectangle|*
%AMROUNDEDRECTD52*
21,1,0.047,0.011,0,0,180.0*
21,1,0.029,0.030,0,0,180.0*
1,1,0.019,-0.014,0.005*
1,1,0.019,0.014,0.005*
1,1,0.019,0.014,-0.005*
1,1,0.019,-0.014,-0.005*
%
%ADD52ROUNDEDRECTD52*%
G04:AMPARAMS|DCode=53|XSize=47mil|YSize=30mil|CornerRadius=9mil|HoleSize=0mil|Usage=FLASHONLY|Rotation=270.000|XOffset=0mil|YOffset=0mil|HoleType=Round|Shape=RoundedRectangle|*
%AMROUNDEDRECTD53*
21,1,0.047,0.011,0,0,270.0*
21,1,0.029,0.030,0,0,270.0*
1,1,0.019,-0.005,-0.014*
1,1,0.019,-0.005,0.014*
1,1,0.019,0.005,0.014*
1,1,0.019,0.005,-0.014*
%
%ADD53ROUNDEDRECTD53*%
G04:AMPARAMS|DCode=54|XSize=24mil|YSize=49mil|CornerRadius=8mil|HoleSize=0mil|Usage=FLASHONLY|Rotation=90.000|XOffset=0mil|YOffset=0mil|HoleType=Round|Shape=RoundedRectangle|*
%AMROUNDEDRECTD54*
21,1,0.024,0.033,0,0,90.0*
21,1,0.008,0.049,0,0,90.0*
1,1,0.016,0.017,0.004*
1,1,0.016,0.017,-0.004*
1,1,0.016,-0.017,-0.004*
1,1,0.016,-0.017,0.004*
%
%ADD54ROUNDEDRECTD54*%
G04:AMPARAMS|DCode=55|XSize=24mil|YSize=41mil|CornerRadius=8mil|HoleSize=0mil|Usage=FLASHONLY|Rotation=90.000|XOffset=0mil|YOffset=0mil|HoleType=Round|Shape=RoundedRectangle|*
%AMROUNDEDRECTD55*
21,1,0.024,0.026,0,0,90.0*
21,1,0.008,0.041,0,0,90.0*
1,1,0.016,0.013,0.004*
1,1,0.016,0.013,-0.004*
1,1,0.016,-0.013,-0.004*
1,1,0.016,-0.013,0.004*
%
%ADD55ROUNDEDRECTD55*%
%ADD56R,0.047X0.051*%
%ADD57R,0.039X0.055*%
%ADD58R,0.051X0.047*%
%ADD59R,0.091X0.066*%
%ADD60R,0.062X0.026*%
%ADD61R,0.083X0.054*%
%ADD62R,0.083X0.102*%
%ADD63R,0.059X0.067*%
%ADD64R,0.055X0.063*%
G04:AMPARAMS|DCode=65|XSize=20mil|YSize=79mil|CornerRadius=7mil|HoleSize=0mil|Usage=FLASHONLY|Rotation=90.000|XOffset=0mil|YOffset=0mil|HoleType=Round|Shape=RoundedRectangle|*
%AMROUNDEDRECTD65*
21,1,0.020,0.065,0,0,90.0*
21,1,0.006,0.079,0,0,90.0*
1,1,0.014,0.032,0.003*
1,1,0.014,0.032,-0.003*
1,1,0.014,-0.032,-0.003*
1,1,0.014,-0.032,0.003*
%
%ADD65ROUNDEDRECTD65*%
G04:AMPARAMS|DCode=66|XSize=20mil|YSize=79mil|CornerRadius=7mil|HoleSize=0mil|Usage=FLASHONLY|Rotation=0.000|XOffset=0mil|YOffset=0mil|HoleType=Round|Shape=RoundedRectangle|*
%AMROUNDEDRECTD66*
21,1,0.020,0.065,0,0,0.0*
21,1,0.006,0.079,0,0,0.0*
1,1,0.014,0.003,-0.032*
1,1,0.014,-0.003,-0.032*
1,1,0.014,-0.003,0.032*
1,1,0.014,0.003,0.032*
%
%ADD66ROUNDEDRECTD66*%
%ADD67R,0.047X0.075*%
%ADD68C,0.063*%
%ADD69C,0.055*%
%ADD70R,0.055X0.055*%
%ADD71O,0.070X0.063*%
%ADD72R,0.070X0.063*%
%ADD73C,0.047*%
%ADD74R,0.047X0.047*%
%ADD75R,0.047X0.047*%
D51*
X252Y930D02*
D03*
D52*
X305Y893D02*
D03*
Y930D02*
D03*
Y967D02*
D03*
X199Y893D02*
D03*
Y967D02*
D03*
Y930D02*
D03*
D53*
X2150Y1292D02*
D03*
X2113D02*
D03*
X2076D02*
D03*
X2150Y1186D02*
D03*
X2076D02*
D03*
X2113D02*
D03*
D54*
X1412Y971D02*
D03*
Y946D02*
D03*
Y920D02*
D03*
Y895D02*
D03*
X1568Y971D02*
D03*
Y946D02*
D03*
Y920D02*
D03*
Y895D02*
D03*
Y1425D02*
D03*
Y1450D02*
D03*
Y1476D02*
D03*
Y1501D02*
D03*
X1412Y1425D02*
D03*
Y1450D02*
D03*
Y1476D02*
D03*
Y1501D02*
D03*
D55*
X1451Y1295D02*
D03*
Y1270D02*
D03*
Y1244D02*
D03*
X1539D02*
D03*
Y1270D02*
D03*
Y1295D02*
D03*
Y1137D02*
D03*
Y1111D02*
D03*
Y1085D02*
D03*
X1451D02*
D03*
Y1111D02*
D03*
Y1137D02*
D03*
D56*
X2060Y1013D02*
D03*
Y947D02*
D03*
X2116Y1013D02*
D03*
Y947D02*
D03*
X491Y1060D02*
D03*
Y1126D02*
D03*
X634Y895D02*
D03*
Y961D02*
D03*
X1810Y1013D02*
D03*
Y947D02*
D03*
X1870Y1013D02*
D03*
Y947D02*
D03*
X1930D02*
D03*
Y1013D02*
D03*
X641Y1126D02*
D03*
Y1060D02*
D03*
X1013Y896D02*
D03*
Y962D02*
D03*
X591Y1060D02*
D03*
Y1126D02*
D03*
X541Y1060D02*
D03*
Y1126D02*
D03*
X1991Y947D02*
D03*
Y1013D02*
D03*
D57*
X524Y903D02*
D03*
X487Y993D02*
D03*
X561D02*
D03*
D58*
X697Y1510D02*
D03*
X763D02*
D03*
X1344Y1258D02*
D03*
X1278D02*
D03*
Y1190D02*
D03*
X1344D02*
D03*
X1708Y921D02*
D03*
X1642D02*
D03*
X1697Y1403D02*
D03*
X1763D02*
D03*
X763Y1453D02*
D03*
X697D02*
D03*
X569Y1510D02*
D03*
X635D02*
D03*
X1427Y1028D02*
D03*
X1493D02*
D03*
X569Y1453D02*
D03*
X635D02*
D03*
X517Y1369D02*
D03*
X583D02*
D03*
Y1319D02*
D03*
X517D02*
D03*
X1642Y1138D02*
D03*
X1708D02*
D03*
Y1083D02*
D03*
X1642D02*
D03*
Y1305D02*
D03*
X1708D02*
D03*
Y1252D02*
D03*
X1642D02*
D03*
X1697Y1513D02*
D03*
X1763D02*
D03*
Y1458D02*
D03*
X1697D02*
D03*
X1004Y1523D02*
D03*
X1070D02*
D03*
X1288Y1353D02*
D03*
X1222D02*
D03*
Y1425D02*
D03*
X1288D02*
D03*
X583Y1269D02*
D03*
X517D02*
D03*
X1497Y1548D02*
D03*
X1563D02*
D03*
X1578Y1190D02*
D03*
X1512D02*
D03*
X1528Y1355D02*
D03*
X1462D02*
D03*
X1708Y979D02*
D03*
X1642D02*
D03*
D59*
X300Y1310D02*
D03*
Y1116D02*
D03*
D60*
X314Y1239D02*
D03*
Y1264D02*
D03*
Y1162D02*
D03*
Y1187D02*
D03*
Y1213D02*
D03*
D61*
X210Y1246D02*
D03*
Y1180D02*
D03*
D62*
Y1098D02*
D03*
Y1328D02*
D03*
D63*
X398Y1520D02*
D03*
X472D02*
D03*
Y1440D02*
D03*
X398D02*
D03*
X243Y1480D02*
D03*
X317D02*
D03*
D64*
X1155Y1055D02*
D03*
X1092D02*
D03*
Y969D02*
D03*
X1155D02*
D03*
D65*
X731Y1326D02*
D03*
Y1307D02*
D03*
Y1287D02*
D03*
Y1267D02*
D03*
Y1248D02*
D03*
Y1228D02*
D03*
Y1208D02*
D03*
Y1188D02*
D03*
Y1169D02*
D03*
Y1149D02*
D03*
Y1129D02*
D03*
Y1110D02*
D03*
X1049D02*
D03*
Y1129D02*
D03*
Y1149D02*
D03*
Y1169D02*
D03*
Y1188D02*
D03*
Y1208D02*
D03*
Y1228D02*
D03*
Y1248D02*
D03*
Y1267D02*
D03*
Y1287D02*
D03*
Y1307D02*
D03*
Y1326D02*
D03*
D66*
X782Y1059D02*
D03*
X801D02*
D03*
X821D02*
D03*
X841D02*
D03*
X860D02*
D03*
X880D02*
D03*
X900D02*
D03*
X920D02*
D03*
X939D02*
D03*
X959D02*
D03*
X979D02*
D03*
X998D02*
D03*
Y1377D02*
D03*
X979D02*
D03*
X959D02*
D03*
X939D02*
D03*
X920D02*
D03*
X900D02*
D03*
X880D02*
D03*
X860D02*
D03*
X841D02*
D03*
X821D02*
D03*
X801D02*
D03*
X782D02*
D03*
D67*
X1929Y1522D02*
D03*
X2063D02*
D03*
D68*
X1849Y1524D02*
D03*
X1136Y1149D02*
D03*
D69*
X413Y1102D02*
D03*
Y1023D02*
D03*
D70*
Y944D02*
D03*
D71*
X1990Y1317D02*
D03*
Y1217D02*
D03*
Y1117D02*
D03*
X1890Y1217D02*
D03*
Y1117D02*
D03*
D72*
Y1317D02*
D03*
D73*
X2231Y1442D02*
D03*
X2281D02*
D03*
X2231Y1392D02*
D03*
X2281D02*
D03*
X2231Y1342D02*
D03*
X2281D02*
D03*
X2231Y1192D02*
D03*
X2281D02*
D03*
X2231Y1142D02*
D03*
Y1092D02*
D03*
X2281D02*
D03*
X2231Y1042D02*
D03*
X2281D02*
D03*
X2231Y992D02*
D03*
X895Y905D02*
D03*
X845Y955D02*
D03*
Y905D02*
D03*
X795Y955D02*
D03*
Y905D02*
D03*
X745D02*
D03*
X695Y955D02*
D03*
Y905D02*
D03*
D74*
X2281Y992D02*
D03*
D75*
X895Y955D02*
D03*
M02*
