M48
;Layer_Color=9474304
;FILE_FORMAT=2:4
INCH
;TYPE=PLATED
T1F00S00C0.0130
T2F00S00C0.0236
T3F00S00C0.0315
T4F00S00C0.0354
%
T01
X001950Y009290
X002390
X003350Y009300
Y009670
X003440Y008930
X004830Y009370
X005650Y009380
X005950Y009920
X005250
X005760Y008640
X007200Y010720
X008030Y011300
X008605
X009380Y011630
Y012320
X009330Y014700
X009000Y014690
X008280Y014410
X008230Y015430
X009430Y015340
X011430Y015140
X011070Y014410
X011780Y013530
X011670Y012710
X012140Y012480
X012890Y011470
X013450Y011110
Y010730
X013370Y010290
X013820Y010180
X013740Y011370
X014050Y011580
X014550Y011830
X014910Y011320
X015390Y010520
X015100Y009710
X014670Y009080
X013130Y009260
X012610Y009390
X012600Y008960
X012090Y008950
X011700Y009150
X010920
X009620Y009120
X010210Y010080
X006520Y012360
X006690Y013440
X006400Y013800
X007530Y013740
X005230Y014530
X005590Y015580
X004170Y013490
X004410Y013000
X004470Y012280
X005030
X003870Y012460
X003650Y011740
X002030Y009980
X001850Y014950
X012410Y015510
X013500Y015130
X013480Y014220
X013500Y013480
X014048Y013379
X014930Y012920
X015370Y013900
X014660Y014320
X015080Y014980
X016450Y015230
X016600Y013580
X015900Y013380
X015850Y012700
X016270Y011880
X015850Y011364
X015830Y010520
X016170Y009730
X016890Y009580
X017580Y009600
X016940Y010410
X018190Y010700
X017780Y011800
X017860Y013520
X019400Y013700
X019700Y015210
X020860Y012690
X021610Y012680
X020940Y010690
X021260Y009050
X020700Y008660
X019330Y008650
X018680Y009030
X022230Y009060
X002850Y015640
T02
X006950Y009050
Y009550
X007450Y009050
X007950
Y009550
X008450
Y009050
X008950
Y009550
X022306Y009924
X022806
Y010424
X022306
Y010924
X022806
X022306Y011424
Y011924
X022806
Y013424
X022306
Y013924
X022806
Y014424
X022306
T03
X004130Y009443
Y010230
Y011017
T04
X011360Y011490
X018900Y011174
Y012174
Y013174
X019900
Y012174
Y011174
X018490Y015240
M30
