G04 Layer_Color=8388736*
%FSLAX23Y23*%
%MOIN*%
G70*
G01*
G75*
%ADD51R,0.039X0.087*%
%ADD52R,0.083X0.102*%
%ADD53R,0.083X0.054*%
%ADD54R,0.062X0.026*%
%ADD55R,0.091X0.066*%
G04:AMPARAMS|DCode=56|XSize=24mil|YSize=41mil|CornerRadius=8mil|HoleSize=0mil|Usage=FLASHONLY|Rotation=90.000|XOffset=0mil|YOffset=0mil|HoleType=Round|Shape=RoundedRectangle|*
%AMROUNDEDRECTD56*
21,1,0.024,0.026,0,0,90.0*
21,1,0.008,0.041,0,0,90.0*
1,1,0.016,0.013,0.004*
1,1,0.016,0.013,-0.004*
1,1,0.016,-0.013,-0.004*
1,1,0.016,-0.013,0.004*
%
%ADD56ROUNDEDRECTD56*%
G04:AMPARAMS|DCode=57|XSize=24mil|YSize=49mil|CornerRadius=8mil|HoleSize=0mil|Usage=FLASHONLY|Rotation=90.000|XOffset=0mil|YOffset=0mil|HoleType=Round|Shape=RoundedRectangle|*
%AMROUNDEDRECTD57*
21,1,0.024,0.033,0,0,90.0*
21,1,0.008,0.049,0,0,90.0*
1,1,0.016,0.017,0.004*
1,1,0.016,0.017,-0.004*
1,1,0.016,-0.017,-0.004*
1,1,0.016,-0.017,0.004*
%
%ADD57ROUNDEDRECTD57*%
%ADD58R,0.039X0.055*%
G04:AMPARAMS|DCode=59|XSize=47mil|YSize=30mil|CornerRadius=9mil|HoleSize=0mil|Usage=FLASHONLY|Rotation=270.000|XOffset=0mil|YOffset=0mil|HoleType=Round|Shape=RoundedRectangle|*
%AMROUNDEDRECTD59*
21,1,0.047,0.011,0,0,270.0*
21,1,0.029,0.030,0,0,270.0*
1,1,0.019,-0.005,-0.014*
1,1,0.019,-0.005,0.014*
1,1,0.019,0.005,0.014*
1,1,0.019,0.005,-0.014*
%
%ADD59ROUNDEDRECTD59*%
G04:AMPARAMS|DCode=60|XSize=47mil|YSize=30mil|CornerRadius=9mil|HoleSize=0mil|Usage=FLASHONLY|Rotation=180.000|XOffset=0mil|YOffset=0mil|HoleType=Round|Shape=RoundedRectangle|*
%AMROUNDEDRECTD60*
21,1,0.047,0.011,0,0,180.0*
21,1,0.029,0.030,0,0,180.0*
1,1,0.019,-0.014,0.005*
1,1,0.019,0.014,0.005*
1,1,0.019,0.014,-0.005*
1,1,0.019,-0.014,-0.005*
%
%ADD60ROUNDEDRECTD60*%
%ADD61R,0.051X0.047*%
%ADD62R,0.047X0.051*%
%ADD63R,0.047X0.075*%
%ADD64R,0.059X0.067*%
G04:AMPARAMS|DCode=65|XSize=20mil|YSize=79mil|CornerRadius=7mil|HoleSize=0mil|Usage=FLASHONLY|Rotation=0.000|XOffset=0mil|YOffset=0mil|HoleType=Round|Shape=RoundedRectangle|*
%AMROUNDEDRECTD65*
21,1,0.020,0.065,0,0,0.0*
21,1,0.006,0.079,0,0,0.0*
1,1,0.014,0.003,-0.032*
1,1,0.014,-0.003,-0.032*
1,1,0.014,-0.003,0.032*
1,1,0.014,0.003,0.032*
%
%ADD65ROUNDEDRECTD65*%
G04:AMPARAMS|DCode=66|XSize=20mil|YSize=79mil|CornerRadius=7mil|HoleSize=0mil|Usage=FLASHONLY|Rotation=90.000|XOffset=0mil|YOffset=0mil|HoleType=Round|Shape=RoundedRectangle|*
%AMROUNDEDRECTD66*
21,1,0.020,0.065,0,0,90.0*
21,1,0.006,0.079,0,0,90.0*
1,1,0.014,0.032,0.003*
1,1,0.014,0.032,-0.003*
1,1,0.014,-0.032,-0.003*
1,1,0.014,-0.032,0.003*
%
%ADD66ROUNDEDRECTD66*%
%ADD67R,0.055X0.063*%
%ADD68C,0.063*%
%ADD69C,0.047*%
%ADD70R,0.047X0.047*%
%ADD71R,0.047X0.047*%
%ADD72O,0.070X0.063*%
%ADD73R,0.070X0.063*%
%ADD74C,0.055*%
%ADD75R,0.055X0.055*%
D51*
X252Y930D02*
D03*
D52*
X210Y1328D02*
D03*
Y1098D02*
D03*
D53*
Y1180D02*
D03*
Y1246D02*
D03*
D54*
X314Y1213D02*
D03*
Y1187D02*
D03*
Y1162D02*
D03*
Y1264D02*
D03*
Y1239D02*
D03*
D55*
X300Y1116D02*
D03*
Y1310D02*
D03*
D56*
X1539Y1137D02*
D03*
Y1111D02*
D03*
Y1085D02*
D03*
X1451D02*
D03*
Y1111D02*
D03*
Y1137D02*
D03*
Y1295D02*
D03*
Y1270D02*
D03*
Y1244D02*
D03*
X1539D02*
D03*
Y1270D02*
D03*
Y1295D02*
D03*
D57*
X1568Y1425D02*
D03*
Y1450D02*
D03*
Y1476D02*
D03*
Y1501D02*
D03*
X1412Y1425D02*
D03*
Y1450D02*
D03*
Y1476D02*
D03*
Y1501D02*
D03*
Y971D02*
D03*
Y946D02*
D03*
Y920D02*
D03*
Y895D02*
D03*
X1568Y971D02*
D03*
Y946D02*
D03*
Y920D02*
D03*
Y895D02*
D03*
D58*
X561Y993D02*
D03*
X487D02*
D03*
X524Y903D02*
D03*
D59*
X2150Y1292D02*
D03*
X2113D02*
D03*
X2076D02*
D03*
X2150Y1186D02*
D03*
X2076D02*
D03*
X2113D02*
D03*
D60*
X305Y893D02*
D03*
Y930D02*
D03*
Y967D02*
D03*
X199Y893D02*
D03*
Y967D02*
D03*
Y930D02*
D03*
D61*
X1642Y981D02*
D03*
X1708D02*
D03*
X1462Y1355D02*
D03*
X1528D02*
D03*
X1512Y1190D02*
D03*
X1578D02*
D03*
X1563Y1548D02*
D03*
X1497D02*
D03*
X517Y1265D02*
D03*
X583D02*
D03*
X1288Y1425D02*
D03*
X1222D02*
D03*
Y1353D02*
D03*
X1288D02*
D03*
X1070Y1523D02*
D03*
X1004D02*
D03*
X1697Y1455D02*
D03*
X1763D02*
D03*
Y1516D02*
D03*
X1697D02*
D03*
X1642Y1241D02*
D03*
X1708D02*
D03*
Y1306D02*
D03*
X1642D02*
D03*
Y1077D02*
D03*
X1708D02*
D03*
Y1143D02*
D03*
X1642D02*
D03*
X517Y1317D02*
D03*
X583D02*
D03*
Y1369D02*
D03*
X517D02*
D03*
X635Y1449D02*
D03*
X569D02*
D03*
X1493Y1028D02*
D03*
X1427D02*
D03*
X636Y1513D02*
D03*
X569D02*
D03*
X697Y1449D02*
D03*
X763D02*
D03*
X1763Y1394D02*
D03*
X1697D02*
D03*
X1642Y916D02*
D03*
X1708D02*
D03*
X1344Y1190D02*
D03*
X1278D02*
D03*
Y1258D02*
D03*
X1344D02*
D03*
X764Y1513D02*
D03*
X697D02*
D03*
D62*
X1990Y1013D02*
D03*
Y947D02*
D03*
X543Y1126D02*
D03*
Y1060D02*
D03*
X595Y1060D02*
D03*
Y1126D02*
D03*
X1013Y962D02*
D03*
Y896D02*
D03*
X646Y1060D02*
D03*
Y1126D02*
D03*
X1930Y1013D02*
D03*
Y947D02*
D03*
X1870D02*
D03*
Y1013D02*
D03*
X1810Y947D02*
D03*
Y1013D02*
D03*
X634Y961D02*
D03*
Y895D02*
D03*
X491Y1126D02*
D03*
Y1060D02*
D03*
X2120Y947D02*
D03*
Y1013D02*
D03*
X2060Y947D02*
D03*
Y1013D02*
D03*
D63*
X2063Y1522D02*
D03*
X1929D02*
D03*
D64*
X317Y1480D02*
D03*
X243D02*
D03*
X398Y1440D02*
D03*
X472D02*
D03*
Y1520D02*
D03*
X398D02*
D03*
D65*
X782Y1377D02*
D03*
X801D02*
D03*
X821D02*
D03*
X841D02*
D03*
X860D02*
D03*
X880D02*
D03*
X900D02*
D03*
X920D02*
D03*
X939D02*
D03*
X959D02*
D03*
X979D02*
D03*
X998D02*
D03*
Y1059D02*
D03*
X979D02*
D03*
X959D02*
D03*
X939D02*
D03*
X920D02*
D03*
X900D02*
D03*
X880D02*
D03*
X860D02*
D03*
X841D02*
D03*
X821D02*
D03*
X801D02*
D03*
X782D02*
D03*
D66*
X1049Y1326D02*
D03*
Y1307D02*
D03*
Y1287D02*
D03*
Y1267D02*
D03*
Y1248D02*
D03*
Y1228D02*
D03*
Y1208D02*
D03*
Y1188D02*
D03*
Y1169D02*
D03*
Y1149D02*
D03*
Y1129D02*
D03*
Y1110D02*
D03*
X731D02*
D03*
Y1129D02*
D03*
Y1149D02*
D03*
Y1169D02*
D03*
Y1188D02*
D03*
Y1208D02*
D03*
Y1228D02*
D03*
Y1248D02*
D03*
Y1267D02*
D03*
Y1287D02*
D03*
Y1307D02*
D03*
Y1326D02*
D03*
D67*
X1155Y969D02*
D03*
X1092D02*
D03*
Y1055D02*
D03*
X1155D02*
D03*
D68*
X1136Y1149D02*
D03*
X1849Y1524D02*
D03*
D69*
X695Y905D02*
D03*
Y955D02*
D03*
X745Y905D02*
D03*
X795D02*
D03*
Y955D02*
D03*
X845Y905D02*
D03*
Y955D02*
D03*
X895Y905D02*
D03*
X2231Y992D02*
D03*
X2281Y1042D02*
D03*
X2231D02*
D03*
X2281Y1092D02*
D03*
X2231D02*
D03*
Y1142D02*
D03*
X2281Y1192D02*
D03*
X2231D02*
D03*
X2281Y1342D02*
D03*
X2231D02*
D03*
X2281Y1392D02*
D03*
X2231D02*
D03*
X2281Y1442D02*
D03*
X2231D02*
D03*
D70*
X895Y955D02*
D03*
D71*
X2281Y992D02*
D03*
D72*
X1890Y1117D02*
D03*
Y1217D02*
D03*
X1990Y1117D02*
D03*
Y1217D02*
D03*
Y1317D02*
D03*
D73*
X1890D02*
D03*
D74*
X413Y1023D02*
D03*
Y1102D02*
D03*
D75*
Y944D02*
D03*
M02*
