M48
;Layer_Color=9474304
;FILE_FORMAT=2:4
INCH
;TYPE=PLATED
T1F00S00C0.0130
T2F00S00C0.0150
T3F00S00C0.0236
T4F00S00C0.0315
T5F00S00C0.0354
%
T01
X002027Y009323
X003350Y009670
X003440Y008930
X005610Y009380
X005950Y009920
X005250
X004540Y012330
X004420Y012980
X004250Y013910
X005210Y014630
X005580Y015580
X006010Y014060
X006650Y013430
X009000Y014530
X009300Y014700
X001850Y014950
Y015600
X003650Y011690
X013260Y010360
X013020Y009300
X017000Y010400
X003700Y015650
T02
X003870Y012540
X006520Y012360
X008030Y011300
X008605
X009620Y009120
X010920Y009180
X012200Y009330
X012560
X013700Y010180
X013450Y010730
Y011330
X014050Y011580
X014550Y011830
X014050Y013180
X013500Y013480
X013480Y014220
X013500Y015230
X012410Y015510
X011430Y015140
X011070Y014410
X011700Y013530
X011800Y012480
X012050Y011930
X015430Y010310
X015100Y009710
X014700Y008980
X014660Y014320
X015080Y014980
X015370Y013900
X009430Y015340
X008408Y014480
X015900Y013380
Y012630
Y011364
X016300Y009830
X017680Y009410
X019250Y009280
X021050Y009600
X021650Y011390
X021660Y012410
Y013410
X020670Y012680
X019100Y013840
X019090Y015010
X018210Y015150
X016450Y015230
X017880Y013570
X017780Y011800
X018300Y010640
X021510Y015160
T03
X006950Y009050
Y009550
X007450Y009050
X007950
Y009550
X008450
Y009050
X008950
Y009550
X022306Y009924
X022806
Y010424
X022306
Y010924
X022806
X022306Y011424
Y011924
X022806
Y013424
X022306
Y013924
X022806
Y014424
X022306
T04
X004130Y009393
Y010180
Y010967
T05
X018900Y011174
Y012174
Y013174
X019900
Y012174
Y011174
X021490Y009010
M30
