G04 Layer_Physical_Order=2*
G04 Layer_Color=16711680*
%FSLAX23Y23*%
%MOIN*%
G70*
G01*
G75*
%ADD27C,0.012*%
%ADD28C,0.016*%
%ADD32C,0.055*%
%ADD33C,0.039*%
%ADD34R,0.039X0.039*%
%ADD35R,0.039X0.039*%
%ADD36O,0.062X0.055*%
%ADD37R,0.062X0.055*%
%ADD38C,0.047*%
%ADD39R,0.047X0.047*%
%ADD40C,0.027*%
G36*
X2352Y850D02*
X1838D01*
X1837Y854D01*
X1866Y884D01*
X1868Y883D01*
X1876Y885D01*
X1882Y889D01*
X1886Y895D01*
X1888Y903D01*
X1886Y911D01*
X1883Y916D01*
X1885Y921D01*
X2093D01*
X2107Y907D01*
X2106Y905D01*
X2108Y897D01*
X2112Y891D01*
X2118Y887D01*
X2126Y885D01*
X2134Y887D01*
X2140Y891D01*
X2144Y897D01*
X2146Y905D01*
X2144Y913D01*
X2140Y919D01*
X2134Y923D01*
X2126Y925D01*
X2124Y924D01*
X2107Y942D01*
X2103Y944D01*
X2098Y945D01*
X2098Y945D01*
X1857D01*
X1857Y945D01*
X1852Y944D01*
X1848Y942D01*
X1848Y942D01*
X1794Y887D01*
X1330D01*
X1280Y937D01*
X1281Y939D01*
X1279Y947D01*
X1275Y953D01*
X1269Y957D01*
X1261Y959D01*
X1253Y957D01*
X1247Y953D01*
X1243Y947D01*
X1241Y939D01*
X1243Y931D01*
X1247Y925D01*
X1253Y921D01*
X1256Y920D01*
Y915D01*
X1252Y914D01*
X1246Y910D01*
X1242Y904D01*
X1240Y896D01*
X1242Y888D01*
X1246Y882D01*
X1252Y878D01*
X1260Y876D01*
X1282Y854D01*
X1280Y850D01*
X1187D01*
X1186Y854D01*
X1207Y876D01*
X1209Y875D01*
X1217Y877D01*
X1223Y881D01*
X1227Y887D01*
X1229Y895D01*
X1227Y903D01*
X1223Y909D01*
X1217Y913D01*
X1209Y915D01*
X1201Y913D01*
X1195Y909D01*
X1191Y903D01*
X1189Y895D01*
X1190Y893D01*
X1167Y870D01*
X725D01*
X713Y882D01*
X713Y887D01*
X717Y892D01*
X720Y892D01*
X720D01*
X723Y892D01*
X727Y887D01*
X732Y883D01*
X738Y880D01*
X745Y879D01*
X752Y880D01*
X758Y883D01*
X763Y887D01*
X767Y892D01*
X770Y892D01*
X770D01*
X773Y892D01*
X777Y887D01*
X782Y883D01*
X788Y880D01*
X795Y879D01*
X802Y880D01*
X808Y883D01*
X813Y887D01*
X817Y892D01*
X820Y892D01*
X820D01*
X823Y892D01*
X827Y887D01*
X832Y883D01*
X838Y880D01*
X845Y879D01*
X852Y880D01*
X858Y883D01*
X863Y887D01*
X867Y892D01*
X870Y892D01*
X870D01*
X873Y892D01*
X877Y887D01*
X882Y883D01*
X888Y880D01*
X895Y879D01*
X902Y880D01*
X908Y883D01*
X913Y887D01*
X917Y892D01*
X920Y898D01*
X921Y905D01*
X920Y912D01*
X917Y918D01*
X913Y923D01*
X912Y924D01*
X914Y929D01*
X921D01*
Y981D01*
X909D01*
Y1005D01*
X908Y1010D01*
X905Y1015D01*
X817Y1103D01*
Y1116D01*
X821Y1122D01*
X823Y1130D01*
X821Y1138D01*
X817Y1144D01*
X811Y1148D01*
X803Y1150D01*
X795Y1148D01*
X789Y1144D01*
X785Y1138D01*
X783Y1130D01*
X785Y1122D01*
X789Y1116D01*
Y1097D01*
X790Y1092D01*
X793Y1087D01*
X881Y999D01*
Y981D01*
X869D01*
Y974D01*
X864Y972D01*
X863Y973D01*
X858Y977D01*
X852Y980D01*
X850Y980D01*
Y955D01*
X840D01*
Y980D01*
X838Y980D01*
X832Y977D01*
X827Y973D01*
X823Y968D01*
X820Y968D01*
X820D01*
X817Y968D01*
X813Y973D01*
X808Y977D01*
X802Y980D01*
X800Y980D01*
Y955D01*
X795D01*
Y950D01*
X770D01*
X770Y948D01*
X773Y942D01*
X777Y937D01*
X782Y933D01*
X782Y930D01*
Y930D01*
X782Y927D01*
X777Y923D01*
X773Y918D01*
X770Y918D01*
X770D01*
X767Y918D01*
X763Y923D01*
X758Y927D01*
X752Y930D01*
X745Y931D01*
X738Y930D01*
X732Y927D01*
X727Y923D01*
X723Y918D01*
X720Y918D01*
X720D01*
X717Y918D01*
X713Y923D01*
X708Y927D01*
X708Y930D01*
Y930D01*
X708Y933D01*
X713Y937D01*
X717Y942D01*
X720Y948D01*
X720Y950D01*
X670D01*
X670Y948D01*
X673Y942D01*
X677Y937D01*
X682Y933D01*
X682Y930D01*
Y930D01*
X682Y927D01*
X677Y923D01*
X673Y918D01*
X670Y912D01*
X669Y905D01*
X670Y898D01*
X673Y892D01*
X677Y887D01*
X682Y883D01*
X683Y882D01*
X684Y878D01*
X686Y874D01*
X706Y854D01*
X705Y850D01*
X161D01*
Y1582D01*
X2352D01*
Y850D01*
D02*
G37*
%LPC*%
G36*
X1927Y1351D02*
X1853D01*
Y1298D01*
X1822Y1267D01*
X1820Y1263D01*
X1819Y1258D01*
X1819Y1258D01*
Y1172D01*
X1817Y1171D01*
X1813Y1165D01*
X1811Y1157D01*
X1813Y1149D01*
X1817Y1143D01*
X1823Y1139D01*
X1831Y1137D01*
X1839Y1139D01*
X1845Y1143D01*
X1849Y1149D01*
X1851Y1157D01*
X1849Y1165D01*
X1845Y1171D01*
X1843Y1172D01*
Y1253D01*
X1874Y1284D01*
X1927D01*
Y1351D01*
D02*
G37*
G36*
X1136Y1183D02*
X1127Y1182D01*
X1119Y1178D01*
X1112Y1173D01*
X1107Y1166D01*
X1103Y1158D01*
X1102Y1149D01*
X1103Y1140D01*
X1107Y1132D01*
X1112Y1125D01*
X1119Y1120D01*
X1127Y1116D01*
X1136Y1115D01*
X1145Y1116D01*
X1153Y1120D01*
X1160Y1125D01*
X1165Y1132D01*
X1169Y1140D01*
X1170Y1149D01*
X1169Y1158D01*
X1165Y1166D01*
X1160Y1173D01*
X1153Y1178D01*
X1145Y1182D01*
X1136Y1183D01*
D02*
G37*
G36*
X2286Y1118D02*
Y1097D01*
X2306D01*
X2306Y1099D01*
X2303Y1105D01*
X2299Y1111D01*
X2294Y1115D01*
X2287Y1117D01*
X2286Y1118D01*
D02*
G37*
G36*
X441Y1320D02*
X433Y1318D01*
X427Y1314D01*
X423Y1308D01*
X421Y1300D01*
X422Y1298D01*
X389Y1265D01*
X387Y1266D01*
X379Y1264D01*
X373Y1260D01*
X369Y1254D01*
X367Y1246D01*
X369Y1238D01*
X373Y1232D01*
X379Y1228D01*
X387Y1226D01*
X395Y1228D01*
X401Y1232D01*
X405Y1238D01*
X407Y1246D01*
X406Y1248D01*
X439Y1281D01*
X441Y1280D01*
X449Y1282D01*
X455Y1286D01*
X459Y1292D01*
X461Y1300D01*
X459Y1308D01*
X455Y1314D01*
X449Y1318D01*
X441Y1320D01*
D02*
G37*
G36*
X1107Y1461D02*
X1099Y1459D01*
X1093Y1455D01*
X1089Y1449D01*
X1087Y1441D01*
X1089Y1433D01*
X1093Y1427D01*
X1095Y1426D01*
Y1331D01*
X1095Y1331D01*
X1096Y1326D01*
X1098Y1322D01*
X1148Y1273D01*
X1147Y1271D01*
X1149Y1263D01*
X1153Y1257D01*
X1159Y1253D01*
X1167Y1251D01*
X1175Y1253D01*
X1181Y1257D01*
X1185Y1263D01*
X1187Y1271D01*
X1185Y1279D01*
X1181Y1285D01*
X1175Y1289D01*
X1167Y1291D01*
X1165Y1290D01*
X1119Y1336D01*
Y1426D01*
X1121Y1427D01*
X1125Y1433D01*
X1127Y1441D01*
X1125Y1449D01*
X1121Y1455D01*
X1115Y1459D01*
X1107Y1461D01*
D02*
G37*
G36*
X828D02*
X820Y1459D01*
X814Y1455D01*
X810Y1449D01*
X808Y1441D01*
X810Y1433D01*
X814Y1427D01*
X816Y1426D01*
Y1411D01*
X816Y1411D01*
X817Y1406D01*
X819Y1402D01*
X876Y1345D01*
X876Y1345D01*
X880Y1343D01*
X885Y1342D01*
X885Y1342D01*
X1003D01*
X1128Y1216D01*
X1128Y1216D01*
X1132Y1214D01*
X1137Y1213D01*
X1191D01*
X1191Y1213D01*
X1196Y1214D01*
X1200Y1216D01*
X1212Y1229D01*
X1214Y1228D01*
X1222Y1230D01*
X1228Y1234D01*
X1232Y1240D01*
X1234Y1248D01*
X1232Y1256D01*
X1228Y1262D01*
X1222Y1266D01*
X1214Y1268D01*
X1206Y1266D01*
X1200Y1262D01*
X1196Y1256D01*
X1194Y1248D01*
X1195Y1246D01*
X1186Y1237D01*
X1142D01*
X1017Y1363D01*
X1013Y1365D01*
X1008Y1366D01*
X1008Y1366D01*
X890D01*
X840Y1416D01*
Y1426D01*
X842Y1427D01*
X846Y1433D01*
X848Y1441D01*
X846Y1449D01*
X842Y1455D01*
X836Y1459D01*
X828Y1461D01*
D02*
G37*
G36*
X700Y980D02*
Y960D01*
X720D01*
X720Y962D01*
X717Y968D01*
X713Y973D01*
X708Y977D01*
X702Y980D01*
X700Y980D01*
D02*
G37*
G36*
X690D02*
X688Y980D01*
X682Y977D01*
X677Y973D01*
X673Y968D01*
X670Y962D01*
X670Y960D01*
X690D01*
Y980D01*
D02*
G37*
G36*
X860Y1150D02*
X853Y1148D01*
X846Y1144D01*
X842Y1138D01*
X841Y1130D01*
X842Y1122D01*
X846Y1116D01*
X853Y1112D01*
X860Y1110D01*
X866Y1111D01*
X950Y1027D01*
Y927D01*
X948Y926D01*
X944Y920D01*
X942Y912D01*
X944Y904D01*
X948Y898D01*
X954Y894D01*
X962Y892D01*
X970Y894D01*
X976Y898D01*
X980Y904D01*
X982Y912D01*
X980Y920D01*
X976Y926D01*
X974Y927D01*
Y1032D01*
X974Y1032D01*
X973Y1037D01*
X971Y1041D01*
X880Y1131D01*
X879Y1138D01*
X875Y1144D01*
X868Y1148D01*
X860Y1150D01*
D02*
G37*
G36*
X413Y1132D02*
X405Y1131D01*
X398Y1128D01*
X392Y1123D01*
X387Y1117D01*
X384Y1109D01*
X383Y1102D01*
X384Y1094D01*
X387Y1087D01*
X392Y1081D01*
X398Y1076D01*
X405Y1073D01*
X413Y1072D01*
X421Y1073D01*
X428Y1076D01*
X434Y1081D01*
X439Y1087D01*
X442Y1094D01*
X443Y1102D01*
X442Y1109D01*
X439Y1117D01*
X434Y1123D01*
X428Y1128D01*
X421Y1131D01*
X413Y1132D01*
D02*
G37*
G36*
X1350Y1533D02*
X1342Y1531D01*
X1336Y1527D01*
X1332Y1521D01*
X1330Y1513D01*
X1332Y1505D01*
X1336Y1499D01*
X1342Y1495D01*
X1350Y1493D01*
X1391Y1452D01*
Y1352D01*
X1391Y1352D01*
X1386Y1345D01*
X1385Y1338D01*
X1386Y1330D01*
X1391Y1324D01*
X1391Y1324D01*
Y1172D01*
X1387Y1166D01*
X1385Y1158D01*
X1387Y1150D01*
X1391Y1144D01*
Y1047D01*
X1382Y1038D01*
X1374Y1036D01*
X1368Y1032D01*
X1364Y1026D01*
X1362Y1018D01*
X1364Y1010D01*
X1368Y1004D01*
X1374Y1000D01*
X1382Y998D01*
X1390Y1000D01*
X1396Y1004D01*
X1400Y1010D01*
X1402Y1018D01*
X1415Y1031D01*
X1418Y1036D01*
X1419Y1041D01*
Y1144D01*
X1423Y1150D01*
X1425Y1158D01*
X1423Y1166D01*
X1419Y1172D01*
Y1324D01*
X1423Y1330D01*
X1425Y1338D01*
X1423Y1345D01*
X1419Y1352D01*
Y1458D01*
X1418Y1463D01*
X1415Y1468D01*
X1370Y1513D01*
X1368Y1521D01*
X1364Y1527D01*
X1358Y1531D01*
X1350Y1533D01*
D02*
G37*
G36*
X790Y980D02*
X788Y980D01*
X782Y977D01*
X777Y973D01*
X773Y968D01*
X770Y962D01*
X770Y960D01*
X790D01*
Y980D01*
D02*
G37*
G36*
X1844Y1519D02*
X1816D01*
X1816Y1515D01*
X1820Y1507D01*
X1825Y1500D01*
X1832Y1495D01*
X1840Y1491D01*
X1844Y1491D01*
Y1519D01*
D02*
G37*
G36*
X1645Y1543D02*
X1637Y1541D01*
X1631Y1537D01*
X1627Y1531D01*
X1625Y1523D01*
X1614Y1512D01*
X1611Y1507D01*
X1610Y1502D01*
Y1314D01*
X1586Y1290D01*
X1585Y1290D01*
X1577Y1288D01*
X1571Y1284D01*
X1567Y1278D01*
X1565Y1270D01*
X1567Y1262D01*
X1571Y1256D01*
Y1150D01*
X1567Y1144D01*
X1565Y1136D01*
X1567Y1129D01*
X1571Y1122D01*
Y1104D01*
X1572Y1099D01*
X1575Y1094D01*
X1603Y1066D01*
Y987D01*
X1599Y981D01*
X1597Y973D01*
X1577Y953D01*
X1367D01*
X1272Y1048D01*
X1267Y1051D01*
X1262Y1052D01*
X1119D01*
X964Y1207D01*
X959Y1210D01*
X954Y1211D01*
X751D01*
X746Y1210D01*
X741Y1207D01*
X676Y1142D01*
X556D01*
X551Y1141D01*
X546Y1138D01*
X445Y1037D01*
X439D01*
X439Y1038D01*
X434Y1044D01*
X428Y1049D01*
X421Y1052D01*
X413Y1053D01*
X405Y1052D01*
X398Y1049D01*
X392Y1044D01*
X387Y1038D01*
X384Y1031D01*
X383Y1023D01*
X384Y1019D01*
X379Y1016D01*
X338Y1057D01*
Y1247D01*
X421Y1330D01*
X425Y1331D01*
X431Y1335D01*
X533D01*
X632Y1236D01*
X634Y1228D01*
X638Y1222D01*
X644Y1218D01*
X652Y1216D01*
X660Y1218D01*
X666Y1222D01*
X670Y1228D01*
X672Y1236D01*
X670Y1244D01*
X666Y1250D01*
X660Y1254D01*
X652Y1256D01*
X549Y1359D01*
X544Y1362D01*
X539Y1363D01*
X431D01*
X425Y1367D01*
X417Y1369D01*
X409Y1367D01*
X403Y1363D01*
X399Y1357D01*
X397Y1349D01*
X398Y1347D01*
X314Y1263D01*
X311Y1258D01*
X310Y1253D01*
Y1051D01*
X311Y1046D01*
X314Y1041D01*
X359Y997D01*
Y973D01*
X354Y972D01*
X353Y975D01*
X349Y981D01*
X343Y985D01*
X335Y987D01*
X333Y986D01*
X254Y1065D01*
Y1425D01*
X310Y1481D01*
X871D01*
X881Y1471D01*
X880Y1469D01*
X882Y1461D01*
X886Y1455D01*
X892Y1451D01*
X900Y1449D01*
X908Y1451D01*
X914Y1455D01*
X917Y1456D01*
X919D01*
X925Y1452D01*
X933Y1450D01*
X941Y1452D01*
X947Y1456D01*
X951Y1462D01*
X953Y1470D01*
X951Y1478D01*
X947Y1484D01*
X941Y1488D01*
X933Y1490D01*
X932Y1490D01*
X903Y1520D01*
X899Y1522D01*
X894Y1523D01*
X894Y1523D01*
X291D01*
X286Y1522D01*
X282Y1520D01*
X282Y1520D01*
X213Y1451D01*
X211Y1447D01*
X210Y1442D01*
X210Y1442D01*
Y1057D01*
X194Y1041D01*
X191Y1037D01*
X191Y1033D01*
X191Y1031D01*
Y1013D01*
X189Y1012D01*
X185Y1006D01*
X183Y998D01*
X185Y990D01*
X189Y984D01*
X195Y980D01*
X203Y978D01*
X211Y980D01*
X217Y984D01*
X221Y990D01*
X223Y998D01*
X221Y1006D01*
X217Y1012D01*
X215Y1013D01*
Y1028D01*
X231Y1043D01*
X232Y1046D01*
X238Y1047D01*
X316Y969D01*
X315Y967D01*
X317Y959D01*
X321Y953D01*
X327Y949D01*
X335Y947D01*
X343Y949D01*
X349Y953D01*
X353Y959D01*
X354Y962D01*
X359Y961D01*
Y928D01*
X344Y913D01*
X336Y911D01*
X330Y907D01*
X326Y901D01*
X324Y893D01*
X326Y885D01*
X330Y879D01*
X336Y875D01*
X344Y873D01*
X352Y875D01*
X358Y879D01*
X362Y885D01*
X364Y893D01*
X383Y912D01*
X385Y915D01*
X443D01*
Y974D01*
X387D01*
Y1000D01*
X391Y1001D01*
X392Y1002D01*
X398Y997D01*
X405Y994D01*
X413Y993D01*
X421Y994D01*
X428Y997D01*
X434Y1002D01*
X439Y1008D01*
X439Y1009D01*
X451D01*
X456Y1010D01*
X461Y1013D01*
X562Y1114D01*
X682D01*
X687Y1115D01*
X692Y1118D01*
X757Y1183D01*
X948D01*
X1103Y1028D01*
X1108Y1025D01*
X1113Y1024D01*
X1256D01*
X1351Y929D01*
X1356Y926D01*
X1361Y925D01*
X1583D01*
X1588Y926D01*
X1593Y929D01*
X1617Y953D01*
X1625Y955D01*
X1631Y959D01*
X1635Y965D01*
X1637Y973D01*
X1653Y989D01*
X1849D01*
X1854Y990D01*
X1859Y993D01*
X1960Y1094D01*
X1963Y1093D01*
X1970Y1088D01*
X1978Y1085D01*
X1987Y1084D01*
X1993D01*
X2002Y1085D01*
X2010Y1088D01*
X2017Y1093D01*
X2022Y1100D01*
X2025Y1101D01*
X2028Y1101D01*
X2192Y937D01*
X2197Y934D01*
X2202Y933D01*
X2268D01*
X2273Y934D01*
X2278Y937D01*
X2291Y950D01*
X2294Y954D01*
X2295Y960D01*
Y967D01*
X2306D01*
Y1018D01*
X2299D01*
X2298Y1023D01*
X2299Y1024D01*
X2303Y1029D01*
X2306Y1036D01*
X2306Y1037D01*
X2281D01*
Y1047D01*
X2306D01*
X2306Y1049D01*
X2303Y1055D01*
X2299Y1061D01*
X2294Y1065D01*
X2293Y1067D01*
Y1067D01*
X2294Y1070D01*
X2299Y1074D01*
X2303Y1079D01*
X2306Y1086D01*
X2306Y1087D01*
X2281D01*
Y1092D01*
X2276D01*
Y1118D01*
X2274Y1117D01*
X2268Y1115D01*
X2262Y1111D01*
X2258Y1106D01*
X2256Y1105D01*
X2256D01*
X2253Y1106D01*
X2249Y1111D01*
X2244Y1115D01*
X2243Y1117D01*
Y1117D01*
X2244Y1120D01*
X2249Y1124D01*
X2253Y1129D01*
X2256Y1136D01*
X2257Y1142D01*
X2256Y1149D01*
X2253Y1155D01*
X2249Y1161D01*
X2244Y1165D01*
X2243Y1167D01*
Y1167D01*
X2244Y1170D01*
X2249Y1174D01*
X2253Y1179D01*
X2256Y1180D01*
X2256D01*
X2258Y1179D01*
X2262Y1174D01*
X2268Y1170D01*
X2274Y1167D01*
X2281Y1166D01*
X2287Y1167D01*
X2294Y1170D01*
X2299Y1174D01*
X2303Y1179D01*
X2306Y1186D01*
X2307Y1192D01*
X2306Y1199D01*
X2303Y1205D01*
X2299Y1211D01*
X2294Y1215D01*
X2287Y1217D01*
X2281Y1218D01*
X2274Y1217D01*
X2268Y1215D01*
X2262Y1211D01*
X2258Y1206D01*
X2256Y1205D01*
X2256D01*
X2253Y1206D01*
X2249Y1211D01*
X2244Y1215D01*
X2237Y1217D01*
X2231Y1218D01*
X2224Y1217D01*
X2218Y1215D01*
X2212Y1211D01*
X2208Y1205D01*
X2208Y1205D01*
X2139D01*
X2134Y1211D01*
X2130Y1213D01*
X2125Y1214D01*
X2125Y1214D01*
X2030D01*
X2027Y1217D01*
X2026Y1226D01*
X2023Y1234D01*
X2017Y1241D01*
X2010Y1247D01*
X2002Y1250D01*
X1993Y1251D01*
X1987D01*
X1978Y1250D01*
X1970Y1247D01*
X1963Y1241D01*
X1957Y1234D01*
X1954Y1226D01*
X1953Y1217D01*
X1954Y1209D01*
X1957Y1200D01*
X1963Y1193D01*
X1963Y1193D01*
X1962Y1188D01*
X1936D01*
X1923Y1201D01*
X1926Y1209D01*
X1927Y1217D01*
X1926Y1226D01*
X1923Y1234D01*
X1917Y1241D01*
X1910Y1247D01*
X1902Y1250D01*
X1893Y1251D01*
X1887D01*
X1878Y1250D01*
X1870Y1247D01*
X1863Y1241D01*
X1857Y1234D01*
X1854Y1226D01*
X1853Y1217D01*
X1854Y1209D01*
X1857Y1200D01*
X1863Y1193D01*
X1870Y1188D01*
X1878Y1185D01*
X1887Y1184D01*
X1893D01*
X1902Y1185D01*
X1905Y1186D01*
X1919Y1171D01*
X1920Y1170D01*
X1919Y1164D01*
X1905Y1149D01*
X1902Y1150D01*
X1893Y1151D01*
X1887D01*
X1878Y1150D01*
X1870Y1147D01*
X1863Y1141D01*
X1857Y1134D01*
X1854Y1126D01*
X1853Y1117D01*
X1854Y1109D01*
X1857Y1100D01*
X1863Y1093D01*
X1870Y1088D01*
X1878Y1085D01*
X1887Y1084D01*
X1893D01*
X1902Y1085D01*
X1905Y1086D01*
X1907Y1081D01*
X1843Y1017D01*
X1647D01*
X1642Y1016D01*
X1637Y1013D01*
X1636Y1012D01*
X1631Y1014D01*
Y1072D01*
X1630Y1077D01*
X1627Y1082D01*
X1599Y1110D01*
Y1122D01*
X1603Y1129D01*
X1605Y1136D01*
X1603Y1144D01*
X1599Y1150D01*
Y1256D01*
X1603Y1262D01*
X1605Y1269D01*
X1634Y1298D01*
X1637Y1303D01*
X1638Y1308D01*
Y1496D01*
X1645Y1503D01*
X1653Y1505D01*
X1659Y1509D01*
X1663Y1515D01*
X1665Y1523D01*
X1663Y1531D01*
X1659Y1537D01*
X1653Y1541D01*
X1645Y1543D01*
D02*
G37*
G36*
X2286Y1468D02*
Y1447D01*
X2306D01*
X2306Y1449D01*
X2303Y1455D01*
X2299Y1461D01*
X2294Y1465D01*
X2287Y1467D01*
X2286Y1468D01*
D02*
G37*
G36*
X1854Y1557D02*
Y1529D01*
X1882D01*
X1882Y1533D01*
X1878Y1541D01*
X1873Y1548D01*
X1866Y1553D01*
X1858Y1557D01*
X1854Y1557D01*
D02*
G37*
G36*
X1844D02*
X1840Y1557D01*
X1832Y1553D01*
X1825Y1548D01*
X1820Y1541D01*
X1816Y1533D01*
X1816Y1529D01*
X1844D01*
Y1557D01*
D02*
G37*
G36*
X1882Y1519D02*
X1854D01*
Y1491D01*
X1858Y1491D01*
X1866Y1495D01*
X1873Y1500D01*
X1878Y1507D01*
X1882Y1515D01*
X1882Y1519D01*
D02*
G37*
G36*
X1143Y1534D02*
X1135Y1532D01*
X1129Y1528D01*
X1125Y1522D01*
X1123Y1514D01*
X1125Y1506D01*
X1129Y1500D01*
X1135Y1496D01*
X1143Y1494D01*
X1145Y1495D01*
X1270Y1370D01*
X1268Y1365D01*
X1193D01*
X1192Y1367D01*
X1186Y1371D01*
X1178Y1373D01*
X1170Y1371D01*
X1164Y1367D01*
X1160Y1361D01*
X1158Y1353D01*
X1160Y1345D01*
X1164Y1339D01*
X1170Y1335D01*
X1178Y1333D01*
X1186Y1335D01*
X1192Y1339D01*
X1193Y1341D01*
X1269D01*
X1307Y1303D01*
Y1099D01*
X1307Y1099D01*
X1308Y1094D01*
X1310Y1090D01*
X1326Y1075D01*
X1325Y1073D01*
X1327Y1065D01*
X1331Y1059D01*
X1337Y1055D01*
X1345Y1053D01*
X1353Y1055D01*
X1359Y1059D01*
X1363Y1065D01*
X1365Y1073D01*
X1363Y1081D01*
X1359Y1087D01*
X1356Y1089D01*
Y1095D01*
X1359Y1097D01*
X1363Y1103D01*
X1365Y1111D01*
X1363Y1119D01*
X1359Y1125D01*
X1357Y1126D01*
Y1312D01*
X1356Y1317D01*
X1354Y1321D01*
X1354Y1321D01*
X1162Y1512D01*
X1163Y1514D01*
X1161Y1522D01*
X1157Y1528D01*
X1151Y1532D01*
X1143Y1534D01*
D02*
G37*
G36*
X2231Y1468D02*
X2224Y1467D01*
X2218Y1465D01*
X2212Y1461D01*
X2208Y1455D01*
X2206Y1449D01*
X2205Y1442D01*
X2206Y1436D01*
X2208Y1429D01*
X2212Y1424D01*
X2217Y1420D01*
X2218Y1417D01*
Y1417D01*
X2217Y1415D01*
X2212Y1411D01*
X2208Y1405D01*
X2206Y1399D01*
X2205Y1392D01*
X2206Y1386D01*
X2208Y1379D01*
X2212Y1374D01*
X2217Y1370D01*
X2218Y1367D01*
Y1367D01*
X2217Y1365D01*
X2212Y1361D01*
X2208Y1355D01*
X2206Y1349D01*
X2205Y1342D01*
X2206Y1336D01*
X2208Y1329D01*
X2212Y1324D01*
X2218Y1320D01*
X2224Y1317D01*
X2231Y1316D01*
X2237Y1317D01*
X2244Y1320D01*
X2249Y1324D01*
X2253Y1329D01*
X2256Y1330D01*
X2256D01*
X2258Y1329D01*
X2262Y1324D01*
X2268Y1320D01*
X2274Y1317D01*
X2276Y1317D01*
Y1342D01*
X2281D01*
Y1347D01*
X2306D01*
X2306Y1349D01*
X2303Y1355D01*
X2299Y1361D01*
X2294Y1365D01*
X2293Y1367D01*
Y1367D01*
X2294Y1370D01*
X2299Y1374D01*
X2303Y1379D01*
X2306Y1386D01*
X2306Y1387D01*
X2281D01*
Y1397D01*
X2306D01*
X2306Y1399D01*
X2303Y1405D01*
X2299Y1411D01*
X2294Y1415D01*
X2293Y1417D01*
Y1417D01*
X2294Y1420D01*
X2299Y1424D01*
X2303Y1429D01*
X2306Y1436D01*
X2306Y1437D01*
X2281D01*
Y1442D01*
X2276D01*
Y1468D01*
X2274Y1467D01*
X2268Y1465D01*
X2262Y1461D01*
X2258Y1456D01*
X2256Y1455D01*
X2256D01*
X2253Y1456D01*
X2249Y1461D01*
X2244Y1465D01*
X2237Y1467D01*
X2231Y1468D01*
D02*
G37*
G36*
X2027Y1312D02*
X1995D01*
Y1284D01*
X2002Y1285D01*
X2010Y1288D01*
X2017Y1293D01*
X2023Y1300D01*
X2026Y1309D01*
X2027Y1312D01*
D02*
G37*
G36*
X1985D02*
X1953D01*
X1954Y1309D01*
X1957Y1300D01*
X1963Y1293D01*
X1970Y1288D01*
X1978Y1285D01*
X1985Y1284D01*
Y1312D01*
D02*
G37*
G36*
X1995Y1351D02*
Y1322D01*
X2027D01*
X2026Y1326D01*
X2023Y1334D01*
X2017Y1341D01*
X2010Y1347D01*
X2002Y1350D01*
X1995Y1351D01*
D02*
G37*
G36*
X1985D02*
X1978Y1350D01*
X1970Y1347D01*
X1963Y1341D01*
X1957Y1334D01*
X1954Y1326D01*
X1953Y1322D01*
X1985D01*
Y1351D01*
D02*
G37*
G36*
X2306Y1337D02*
X2286D01*
Y1317D01*
X2287Y1317D01*
X2294Y1320D01*
X2299Y1324D01*
X2303Y1329D01*
X2306Y1336D01*
X2306Y1337D01*
D02*
G37*
%LPD*%
D27*
X1831Y1258D02*
X1890Y1317D01*
X1831Y1157D02*
Y1258D01*
X2125Y1202D02*
X2134Y1193D01*
X2005Y1202D02*
X2125D01*
X1990Y1217D02*
X2005Y1202D01*
X2116Y1176D02*
X2144Y1148D01*
X1931Y1176D02*
X2116D01*
X2086Y1158D02*
X2113Y1131D01*
X1931Y1158D02*
X2086D01*
X1890Y1217D02*
X1931Y1176D01*
X1890Y1117D02*
X1931Y1158D01*
X2144Y1148D02*
X2150D01*
X2134Y1193D02*
X2230D01*
X2155Y1147D02*
X2160Y1142D01*
X2076Y1114D02*
X2198Y992D01*
X2076Y1114D02*
Y1131D01*
X2113Y1131D02*
X2152Y1092D01*
X2160Y1142D02*
X2231D01*
X203Y998D02*
Y1032D01*
X203Y1033D02*
X203Y1032D01*
X203Y1033D02*
X222Y1052D01*
Y1442D01*
X242Y1060D02*
X335Y967D01*
X242Y1060D02*
Y1430D01*
X1345Y1111D02*
Y1312D01*
X291Y1511D02*
X894D01*
X925Y1478D02*
X933Y1470D01*
X925Y1478D02*
Y1480D01*
X894Y1511D02*
X925Y1480D01*
X222Y1442D02*
X291Y1511D01*
X2098Y933D02*
X2126Y905D01*
X1857Y933D02*
X2098D01*
X1799Y875D02*
X1857Y933D01*
X876Y1493D02*
X900Y1469D01*
X305Y1493D02*
X876D01*
X242Y1430D02*
X305Y1493D01*
X1107Y1331D02*
X1167Y1271D01*
X1107Y1331D02*
Y1441D01*
X1191Y1225D02*
X1214Y1248D01*
X1137Y1225D02*
X1191D01*
X1008Y1354D02*
X1137Y1225D01*
X1822Y857D02*
X1868Y903D01*
X1296Y857D02*
X1822D01*
X1261Y939D02*
X1325Y875D01*
X1172Y858D02*
X1209Y895D01*
X1260Y893D02*
Y896D01*
Y893D02*
X1296Y857D01*
X720Y858D02*
X1172D01*
X859Y1135D02*
X962Y1032D01*
Y912D02*
Y1032D01*
X695Y883D02*
X720Y858D01*
X695Y883D02*
Y905D01*
X2230Y1193D02*
X2231Y1192D01*
X1325Y875D02*
X1799D01*
X828Y1411D02*
Y1441D01*
Y1411D02*
X885Y1354D01*
X1008D01*
X387Y1246D02*
X441Y1300D01*
X1319Y1099D02*
X1345Y1073D01*
X1143Y1514D02*
X1345Y1312D01*
X1178Y1353D02*
X1274D01*
X1319Y1308D01*
Y1099D02*
Y1308D01*
X2198Y992D02*
X2231D01*
X2152Y1092D02*
X2231D01*
D28*
X2202Y947D02*
X2268D01*
X2032Y1117D02*
X2202Y947D01*
X1990Y1117D02*
X2032D01*
X1963D02*
X1990D01*
X1849Y1003D02*
X1963Y1117D01*
X1647Y1003D02*
X1849D01*
X324Y1051D02*
X373Y1002D01*
Y922D02*
Y1002D01*
X344Y893D02*
X373Y922D01*
X324Y1253D02*
X419Y1347D01*
X324Y1051D02*
Y1253D01*
X539Y1349D02*
X652Y1236D01*
X417Y1349D02*
X539D01*
X1113Y1038D02*
X1262D01*
X954Y1197D02*
X1113Y1038D01*
X751Y1197D02*
X954D01*
X1262Y1038D02*
X1361Y939D01*
X2281Y960D02*
Y992D01*
X2268Y947D02*
X2281Y960D01*
X895Y955D02*
Y1005D01*
X803Y1097D02*
X895Y1005D01*
X1405Y1158D02*
Y1458D01*
X803Y1097D02*
Y1130D01*
X1350Y1513D02*
X1405Y1458D01*
X1624Y1308D02*
Y1502D01*
X1645Y1523D01*
X1583Y939D02*
X1617Y973D01*
Y1072D01*
X1585Y1104D02*
X1617Y1072D01*
X1361Y939D02*
X1583D01*
X1585Y1104D02*
Y1136D01*
Y1269D01*
X1617Y973D02*
X1647Y1003D01*
X413Y1009D02*
X413D01*
Y1023D02*
X451D01*
X556Y1128D01*
X682D01*
X751Y1197D01*
X1382Y1018D02*
X1405Y1041D01*
Y1158D01*
X1586Y1270D02*
X1624Y1308D01*
D32*
X1136Y1149D02*
D03*
X1849Y1524D02*
D03*
D33*
X695Y905D02*
D03*
Y955D02*
D03*
X745Y905D02*
D03*
X795D02*
D03*
Y955D02*
D03*
X845Y905D02*
D03*
Y955D02*
D03*
X895Y905D02*
D03*
X2231Y992D02*
D03*
X2281Y1042D02*
D03*
X2231D02*
D03*
X2281Y1092D02*
D03*
X2231D02*
D03*
Y1142D02*
D03*
X2281Y1192D02*
D03*
X2231D02*
D03*
X2281Y1342D02*
D03*
X2231D02*
D03*
X2281Y1392D02*
D03*
X2231D02*
D03*
X2281Y1442D02*
D03*
X2231D02*
D03*
D34*
X895Y955D02*
D03*
D35*
X2281Y992D02*
D03*
D36*
X1890Y1117D02*
D03*
Y1217D02*
D03*
X1990Y1117D02*
D03*
Y1217D02*
D03*
Y1317D02*
D03*
D37*
X1890D02*
D03*
D38*
X413Y1023D02*
D03*
Y1102D02*
D03*
D39*
Y944D02*
D03*
D40*
X1751Y1277D02*
D03*
X1831Y1157D02*
D03*
X2150Y1148D02*
D03*
X2076Y1131D02*
D03*
X2182Y1239D02*
D03*
X2043Y1241D02*
D03*
X1958Y1069D02*
D03*
X365Y1174D02*
D03*
X195Y929D02*
D03*
X203Y998D02*
D03*
X239Y929D02*
D03*
X335Y930D02*
D03*
X1491Y1132D02*
D03*
X1374Y1137D02*
D03*
X1345Y1111D02*
D03*
X1021Y1008D02*
D03*
X720Y1072D02*
D03*
X2126Y905D02*
D03*
X417Y1349D02*
D03*
X669Y1344D02*
D03*
X750Y1379D02*
D03*
X823Y1543D02*
D03*
X1214Y1248D02*
D03*
X1167Y1271D02*
D03*
X1627Y1188D02*
D03*
X1694Y1041D02*
D03*
X1467Y908D02*
D03*
X1758Y960D02*
D03*
X2223Y906D02*
D03*
X1868Y903D02*
D03*
X1261Y939D02*
D03*
X1209Y895D02*
D03*
X1585Y1270D02*
D03*
X1260Y896D02*
D03*
X1537Y1390D02*
D03*
X1510Y971D02*
D03*
X447Y1228D02*
D03*
X652Y1236D02*
D03*
X565Y938D02*
D03*
X640Y1380D02*
D03*
X559Y1558D02*
D03*
X523Y1453D02*
D03*
X1337Y1029D02*
D03*
X1107Y1441D02*
D03*
X525Y992D02*
D03*
X344Y893D02*
D03*
X962Y912D02*
D03*
X335Y967D02*
D03*
X185Y1495D02*
D03*
X285Y1564D02*
D03*
X1092Y915D02*
D03*
X860Y1130D02*
D03*
X803D02*
D03*
X1819Y1070D02*
D03*
X1143Y1514D02*
D03*
X1508Y1498D02*
D03*
X1405Y1158D02*
D03*
X1345Y1073D02*
D03*
X1455Y1183D02*
D03*
X1539Y1052D02*
D03*
X1585Y1136D02*
D03*
X1645Y1523D02*
D03*
X1466Y1432D02*
D03*
X1590Y1338D02*
D03*
X943Y1534D02*
D03*
X1779Y1187D02*
D03*
X1350Y1348D02*
D03*
X1774Y1351D02*
D03*
X1348Y1422D02*
D03*
X1241Y1551D02*
D03*
X1350Y1513D02*
D03*
X1178Y1353D02*
D03*
X576Y864D02*
D03*
X483Y937D02*
D03*
X503Y1228D02*
D03*
X1689Y958D02*
D03*
X2070Y866D02*
D03*
X1933Y865D02*
D03*
X1493Y1292D02*
D03*
X1660Y1358D02*
D03*
X1617Y973D02*
D03*
X938Y1232D02*
D03*
Y1163D02*
D03*
X933Y1470D02*
D03*
X900Y1469D02*
D03*
X828Y1441D02*
D03*
X387Y1246D02*
D03*
X441Y1300D02*
D03*
X1583Y1052D02*
D03*
X1313Y926D02*
D03*
X1170Y915D02*
D03*
X1289Y1147D02*
D03*
X1405Y1338D02*
D03*
X1382Y1018D02*
D03*
X595Y992D02*
D03*
X2114Y1367D02*
D03*
X2292Y1261D02*
D03*
X2018Y1069D02*
D03*
X2113Y1131D02*
D03*
X2013Y1521D02*
D03*
X2008Y1414D02*
D03*
X2080Y1395D02*
D03*
X1834Y1412D02*
D03*
X2147Y1485D02*
D03*
X2241Y1556D02*
D03*
M02*
