G04 Layer_Color=65535*
%FSLAX23Y23*%
%MOIN*%
G70*
G01*
G75*
%ADD27C,0.010*%
%ADD39C,0.024*%
%ADD40C,0.008*%
%ADD41C,0.004*%
%ADD42C,0.012*%
%ADD43C,0.005*%
%ADD44C,0.007*%
%ADD45C,0.008*%
G36*
X2305Y890D02*
X2240D01*
X2275Y945D01*
X2305Y890D01*
D02*
G37*
G36*
X980Y918D02*
X925Y953D01*
X980Y983D01*
Y918D01*
D02*
G37*
G36*
X1890Y1387D02*
X1860Y1442D01*
X1926D01*
X1890Y1387D01*
D02*
G37*
D27*
X1467Y976D02*
G03*
X1467Y976I-5J0D01*
G01*
X1466Y1509D02*
G03*
X1466Y1509I-5J0D01*
G01*
X1490Y1308D02*
G03*
X1490Y1308I-5J0D01*
G01*
X1488Y1151D02*
G03*
X1488Y1151I-5J0D01*
G01*
X735Y1354D02*
G03*
X735Y1354I-5J0D01*
G01*
X293Y860D02*
G03*
X293Y860I-5J0D01*
G01*
D39*
X833Y1287D02*
G03*
X833Y1287I-12J0D01*
G01*
D40*
X2196Y901D02*
G03*
X2196Y901I-47J0D01*
G01*
X782Y1110D02*
X998D01*
X782Y1326D02*
X998D01*
Y1110D02*
Y1326D01*
X782Y1110D02*
Y1326D01*
X374Y1136D02*
X452D01*
Y900D02*
Y1136D01*
X374Y900D02*
Y1136D01*
Y900D02*
X452D01*
D41*
X1311Y1237D02*
Y1279D01*
X1311Y1162D02*
Y1204D01*
X1795Y968D02*
X1835D01*
X1849D02*
X1891D01*
X2015Y913D02*
Y955D01*
X1685Y887D02*
Y929D01*
X1449Y875D02*
Y992D01*
X1531Y875D02*
Y992D01*
X1449D02*
X1531D01*
X1449Y875D02*
X1531D01*
X1449Y1405D02*
X1531D01*
X1449Y1522D02*
X1531D01*
Y1405D02*
Y1522D01*
X1449Y1405D02*
Y1522D01*
X1730Y1382D02*
Y1424D01*
X2006Y977D02*
Y1036D01*
X730Y1432D02*
Y1474D01*
X325Y1358D02*
Y1370D01*
Y1056D02*
Y1068D01*
X262Y1370D02*
X325D01*
X262Y1056D02*
X325D01*
X153Y1059D02*
Y1367D01*
X621Y1093D02*
X661D01*
X602Y1490D02*
Y1530D01*
X1455Y1005D02*
Y1045D01*
X1001Y935D02*
X1040D01*
X602Y1433D02*
Y1473D01*
X435Y1491D02*
Y1550D01*
X520Y1348D02*
Y1390D01*
Y1298D02*
Y1340D01*
X1685Y1117D02*
Y1159D01*
Y1062D02*
Y1104D01*
X1675Y1284D02*
Y1326D01*
X1675Y1197D02*
Y1239D01*
X1730Y1492D02*
Y1534D01*
Y1437D02*
Y1479D01*
X1075Y1006D02*
Y1018D01*
X1173Y1005D02*
Y1017D01*
X1483Y1310D02*
X1507D01*
X1483Y1231D02*
X1507D01*
X1483D02*
Y1310D01*
X1507Y1231D02*
Y1310D01*
Y1072D02*
Y1151D01*
X1483Y1072D02*
Y1151D01*
Y1072D02*
X1507D01*
X1483Y1151D02*
X1507D01*
X1037Y1502D02*
Y1544D01*
X1255Y1332D02*
Y1374D01*
Y1404D02*
Y1446D01*
X560Y1243D02*
Y1283D01*
X1530Y1528D02*
Y1568D01*
X1545Y1163D02*
Y1203D01*
X1495Y1323D02*
Y1363D01*
X2189Y964D02*
Y1469D01*
X2323D01*
Y964D02*
Y1469D01*
X2189Y964D02*
X2323D01*
X668Y997D02*
X922D01*
X668Y863D02*
Y997D01*
Y863D02*
X922D01*
Y997D01*
X1967Y1558D02*
Y1566D01*
X2085Y1558D02*
Y1566D01*
X1967D02*
X2085D01*
X1967Y1468D02*
X2085D01*
Y1476D01*
X1967Y1468D02*
Y1476D01*
X471Y1093D02*
X511D01*
X614Y928D02*
X654D01*
X583Y918D02*
Y956D01*
X556Y918D02*
X583D01*
X465D02*
X492D01*
X465D02*
Y956D01*
X794Y1490D02*
Y1530D01*
X730Y1490D02*
Y1530D01*
X435Y1411D02*
Y1470D01*
X280Y1450D02*
Y1510D01*
X570Y1093D02*
X612D01*
X520D02*
X562D01*
X234Y871D02*
X272D01*
X234Y989D02*
X272D01*
D42*
X1840Y1067D02*
X2040D01*
X1840D02*
Y1367D01*
X2040D01*
Y1067D02*
Y1367D01*
D43*
X336Y1000D02*
Y990D01*
Y995D01*
X361D01*
X366Y990D01*
Y985D01*
X361Y980D01*
X366Y1010D02*
X336D01*
Y1025D01*
X341Y1030D01*
X351D01*
X356Y1025D01*
Y1010D01*
X366Y1040D02*
Y1050D01*
Y1045D01*
X336D01*
X341Y1040D01*
X480Y1182D02*
X475Y1177D01*
Y1167D01*
X480Y1162D01*
X500D01*
X505Y1167D01*
Y1177D01*
X500Y1182D01*
X505Y1207D02*
X475D01*
X490Y1192D01*
Y1212D01*
X624Y1019D02*
X619Y1024D01*
X609D01*
X604Y1019D01*
Y999D01*
X609Y994D01*
X619D01*
X624Y999D01*
X634Y1019D02*
X639Y1024D01*
X649D01*
X654Y1019D01*
Y1014D01*
X649Y1009D01*
X644D01*
X649D01*
X654Y1004D01*
Y999D01*
X649Y994D01*
X639D01*
X634Y999D01*
X553Y890D02*
Y865D01*
X558Y860D01*
X568D01*
X573Y865D01*
Y890D01*
X583Y885D02*
X588Y890D01*
X598D01*
X603Y885D01*
Y880D01*
X598Y875D01*
X593D01*
X598D01*
X603Y870D01*
Y865D01*
X598Y860D01*
X588D01*
X583Y865D01*
X808Y1524D02*
Y1494D01*
X823D01*
X828Y1499D01*
Y1519D01*
X823Y1524D01*
X808D01*
X838Y1494D02*
X848D01*
X843D01*
Y1524D01*
X838Y1519D01*
X1274Y1290D02*
Y1320D01*
X1289D01*
X1294Y1315D01*
Y1305D01*
X1289Y1300D01*
X1274D01*
X1284D02*
X1294Y1290D01*
X1304D02*
X1314D01*
X1309D01*
Y1320D01*
X1304Y1315D01*
X1329Y1295D02*
X1334Y1290D01*
X1344D01*
X1349Y1295D01*
Y1315D01*
X1344Y1320D01*
X1334D01*
X1329Y1315D01*
Y1310D01*
X1334Y1305D01*
X1349D01*
X1269Y1120D02*
Y1150D01*
X1284D01*
X1289Y1145D01*
Y1135D01*
X1284Y1130D01*
X1269D01*
X1279D02*
X1289Y1120D01*
X1319D02*
X1299D01*
X1319Y1140D01*
Y1145D01*
X1314Y1150D01*
X1304D01*
X1299Y1145D01*
X1329D02*
X1334Y1150D01*
X1344D01*
X1349Y1145D01*
Y1125D01*
X1344Y1120D01*
X1334D01*
X1329Y1125D01*
Y1145D01*
X1791Y891D02*
X1786Y896D01*
X1776D01*
X1771Y891D01*
Y871D01*
X1776Y866D01*
X1786D01*
X1791Y871D01*
X1801Y866D02*
X1811D01*
X1806D01*
Y896D01*
X1801Y891D01*
X1826Y866D02*
X1836D01*
X1831D01*
Y896D01*
X1826Y891D01*
X1855Y867D02*
Y897D01*
X1870D01*
X1875Y892D01*
Y882D01*
X1870Y877D01*
X1855D01*
X1865D02*
X1875Y867D01*
X1885D02*
X1895D01*
X1890D01*
Y897D01*
X1885Y892D01*
X1910D02*
X1915Y897D01*
X1925D01*
X1930Y892D01*
Y872D01*
X1925Y867D01*
X1915D01*
X1910Y872D01*
Y892D01*
X1985Y867D02*
Y897D01*
X2000D01*
X2005Y892D01*
Y882D01*
X2000Y877D01*
X1985D01*
X1995D02*
X2005Y867D01*
X2015Y872D02*
X2020Y867D01*
X2030D01*
X2035Y872D01*
Y892D01*
X2030Y897D01*
X2020D01*
X2015Y892D01*
Y887D01*
X2020Y882D01*
X2035D01*
X1668Y946D02*
Y976D01*
X1683D01*
X1688Y971D01*
Y961D01*
X1683Y956D01*
X1668D01*
X1678D02*
X1688Y946D01*
X1698Y971D02*
X1703Y976D01*
X1713D01*
X1718Y971D01*
Y966D01*
X1713Y961D01*
X1718Y956D01*
Y951D01*
X1713Y946D01*
X1703D01*
X1698Y951D01*
Y956D01*
X1703Y961D01*
X1698Y966D01*
Y971D01*
X1703Y961D02*
X1713D01*
X1325Y978D02*
Y953D01*
X1330Y948D01*
X1340D01*
X1345Y953D01*
Y978D01*
X1370Y948D02*
Y978D01*
X1355Y963D01*
X1375D01*
X1320Y1490D02*
Y1465D01*
X1325Y1460D01*
X1335D01*
X1340Y1465D01*
Y1490D01*
X1370D02*
X1360Y1485D01*
X1350Y1475D01*
Y1465D01*
X1355Y1460D01*
X1365D01*
X1370Y1465D01*
Y1470D01*
X1365Y1475D01*
X1350D01*
X1690Y1340D02*
Y1370D01*
X1705D01*
X1710Y1365D01*
Y1355D01*
X1705Y1350D01*
X1690D01*
X1700D02*
X1710Y1340D01*
X1720D02*
X1730D01*
X1725D01*
Y1370D01*
X1720Y1365D01*
X1765Y1370D02*
X1745D01*
Y1355D01*
X1755Y1360D01*
X1760D01*
X1765Y1355D01*
Y1345D01*
X1760Y1340D01*
X1750D01*
X1745Y1345D01*
X2106Y1016D02*
X2101Y1021D01*
X2091D01*
X2086Y1016D01*
Y996D01*
X2091Y991D01*
X2101D01*
X2106Y996D01*
X2116Y991D02*
X2126D01*
X2121D01*
Y1021D01*
X2116Y1016D01*
X2161Y991D02*
X2141D01*
X2161Y1011D01*
Y1016D01*
X2156Y1021D01*
X2146D01*
X2141Y1016D01*
X806Y1436D02*
Y1466D01*
X821D01*
X826Y1461D01*
Y1451D01*
X821Y1446D01*
X806D01*
X816D02*
X826Y1436D01*
X836Y1466D02*
X856D01*
Y1461D01*
X836Y1441D01*
Y1436D01*
X190Y1435D02*
X180D01*
X185D01*
Y1410D01*
X180Y1405D01*
X175D01*
X170Y1410D01*
X200Y1405D02*
X210D01*
X205D01*
Y1435D01*
X200Y1430D01*
X632Y1180D02*
X627Y1175D01*
Y1165D01*
X632Y1160D01*
X652D01*
X657Y1165D01*
Y1175D01*
X652Y1180D01*
Y1190D02*
X657Y1195D01*
Y1205D01*
X652Y1210D01*
X632D01*
X627Y1205D01*
Y1195D01*
X632Y1190D01*
X637D01*
X642Y1195D01*
Y1210D01*
X622Y1569D02*
X617Y1574D01*
X607D01*
X602Y1569D01*
Y1549D01*
X607Y1544D01*
X617D01*
X622Y1549D01*
X632Y1574D02*
X652D01*
Y1569D01*
X632Y1549D01*
Y1544D01*
X1550Y1039D02*
X1545Y1044D01*
X1535D01*
X1530Y1039D01*
Y1019D01*
X1535Y1014D01*
X1545D01*
X1550Y1019D01*
X1580Y1044D02*
X1560D01*
Y1029D01*
X1570Y1034D01*
X1575D01*
X1580Y1029D01*
Y1019D01*
X1575Y1014D01*
X1565D01*
X1560Y1019D01*
X1076Y891D02*
X1071Y896D01*
X1061D01*
X1056Y891D01*
Y871D01*
X1061Y866D01*
X1071D01*
X1076Y871D01*
X1086Y866D02*
X1096D01*
X1091D01*
Y896D01*
X1086Y891D01*
X1111D02*
X1116Y896D01*
X1126D01*
X1131Y891D01*
Y886D01*
X1126Y881D01*
X1121D01*
X1126D01*
X1131Y876D01*
Y871D01*
X1126Y866D01*
X1116D01*
X1111Y871D01*
X610Y1417D02*
X605Y1422D01*
X595D01*
X590Y1417D01*
Y1397D01*
X595Y1392D01*
X605D01*
X610Y1397D01*
X640Y1422D02*
X630Y1417D01*
X620Y1407D01*
Y1397D01*
X625Y1392D01*
X635D01*
X640Y1397D01*
Y1402D01*
X635Y1407D01*
X620D01*
X328Y1556D02*
X323Y1561D01*
X313D01*
X308Y1556D01*
Y1536D01*
X313Y1531D01*
X323D01*
X328Y1536D01*
X358Y1531D02*
X338D01*
X358Y1551D01*
Y1556D01*
X353Y1561D01*
X343D01*
X338Y1556D01*
X589Y1345D02*
Y1375D01*
X604D01*
X609Y1370D01*
Y1360D01*
X604Y1355D01*
X589D01*
X599D02*
X609Y1345D01*
X634D02*
Y1375D01*
X619Y1360D01*
X639D01*
X588Y1299D02*
Y1329D01*
X603D01*
X608Y1324D01*
Y1314D01*
X603Y1309D01*
X588D01*
X598D02*
X608Y1299D01*
X638D02*
X618D01*
X638Y1319D01*
Y1324D01*
X633Y1329D01*
X623D01*
X618Y1324D01*
X1958Y1148D02*
X1928D01*
Y1163D01*
X1933Y1168D01*
X1943D01*
X1948Y1163D01*
Y1148D01*
X1958Y1178D02*
Y1188D01*
Y1183D01*
X1928D01*
X1933Y1178D01*
X1755Y1118D02*
Y1148D01*
X1770D01*
X1775Y1143D01*
Y1133D01*
X1770Y1128D01*
X1755D01*
X1765D02*
X1775Y1118D01*
X1805Y1148D02*
X1785D01*
Y1133D01*
X1795Y1138D01*
X1800D01*
X1805Y1133D01*
Y1123D01*
X1800Y1118D01*
X1790D01*
X1785Y1123D01*
X1755Y1063D02*
Y1093D01*
X1770D01*
X1775Y1088D01*
Y1078D01*
X1770Y1073D01*
X1755D01*
X1765D02*
X1775Y1063D01*
X1805Y1093D02*
X1795Y1088D01*
X1785Y1078D01*
Y1068D01*
X1790Y1063D01*
X1800D01*
X1805Y1068D01*
Y1073D01*
X1800Y1078D01*
X1785D01*
X1744Y1291D02*
Y1321D01*
X1759D01*
X1764Y1316D01*
Y1306D01*
X1759Y1301D01*
X1744D01*
X1754D02*
X1764Y1291D01*
X1774D02*
X1784D01*
X1779D01*
Y1321D01*
X1774Y1316D01*
X1799Y1321D02*
X1819D01*
Y1316D01*
X1799Y1296D01*
Y1291D01*
X1743Y1203D02*
Y1233D01*
X1758D01*
X1763Y1228D01*
Y1218D01*
X1758Y1213D01*
X1743D01*
X1753D02*
X1763Y1203D01*
X1773D02*
X1783D01*
X1778D01*
Y1233D01*
X1773Y1228D01*
X1798D02*
X1803Y1233D01*
X1813D01*
X1818Y1228D01*
Y1223D01*
X1813Y1218D01*
X1818Y1213D01*
Y1208D01*
X1813Y1203D01*
X1803D01*
X1798Y1208D01*
Y1213D01*
X1803Y1218D01*
X1798Y1223D01*
Y1228D01*
X1803Y1218D02*
X1813D01*
X1699Y1543D02*
Y1573D01*
X1714D01*
X1719Y1568D01*
Y1558D01*
X1714Y1553D01*
X1699D01*
X1709D02*
X1719Y1543D01*
X1729D02*
X1739D01*
X1734D01*
Y1573D01*
X1729Y1568D01*
X1769Y1543D02*
Y1573D01*
X1754Y1558D01*
X1774D01*
X1660Y1420D02*
X1630D01*
Y1435D01*
X1635Y1440D01*
X1645D01*
X1650Y1435D01*
Y1420D01*
Y1430D02*
X1660Y1440D01*
Y1450D02*
Y1460D01*
Y1455D01*
X1630D01*
X1635Y1450D01*
X1660Y1495D02*
Y1475D01*
X1640Y1495D01*
X1635D01*
X1630Y1490D01*
Y1480D01*
X1635Y1475D01*
X1192Y1027D02*
Y1022D01*
X1202Y1012D01*
X1212Y1022D01*
Y1027D01*
X1202Y1012D02*
Y997D01*
X1222D02*
X1232D01*
X1227D01*
Y1027D01*
X1222Y1022D01*
X1400Y1219D02*
Y1194D01*
X1405Y1189D01*
X1415D01*
X1420Y1194D01*
Y1219D01*
X1430D02*
X1450D01*
Y1214D01*
X1430Y1194D01*
Y1189D01*
X1375Y1126D02*
Y1101D01*
X1380Y1096D01*
X1390D01*
X1395Y1101D01*
Y1126D01*
X1405Y1096D02*
X1415D01*
X1410D01*
Y1126D01*
X1405Y1121D01*
X1016Y1453D02*
Y1483D01*
X1031D01*
X1036Y1478D01*
Y1468D01*
X1031Y1463D01*
X1016D01*
X1026D02*
X1036Y1453D01*
X1046D02*
X1056D01*
X1051D01*
Y1483D01*
X1046Y1478D01*
X1133Y1341D02*
Y1371D01*
X1148D01*
X1153Y1366D01*
Y1356D01*
X1148Y1351D01*
X1133D01*
X1143D02*
X1153Y1341D01*
X1163Y1366D02*
X1168Y1371D01*
X1178D01*
X1183Y1366D01*
Y1361D01*
X1178Y1356D01*
X1173D01*
X1178D01*
X1183Y1351D01*
Y1346D01*
X1178Y1341D01*
X1168D01*
X1163Y1346D01*
X1108Y1409D02*
Y1439D01*
X1123D01*
X1128Y1434D01*
Y1424D01*
X1123Y1419D01*
X1108D01*
X1118D02*
X1128Y1409D01*
X1138D02*
X1148D01*
X1143D01*
Y1439D01*
X1138Y1434D01*
X1183Y1439D02*
X1173Y1434D01*
X1163Y1424D01*
Y1414D01*
X1168Y1409D01*
X1178D01*
X1183Y1414D01*
Y1419D01*
X1178Y1424D01*
X1163D01*
X1025Y1383D02*
Y1358D01*
X1030Y1353D01*
X1040D01*
X1045Y1358D01*
Y1383D01*
X1075D02*
X1055D01*
Y1368D01*
X1065Y1373D01*
X1070D01*
X1075Y1368D01*
Y1358D01*
X1070Y1353D01*
X1060D01*
X1055Y1358D01*
X450Y1272D02*
X445Y1277D01*
X435D01*
X430Y1272D01*
Y1252D01*
X435Y1247D01*
X445D01*
X450Y1252D01*
X460Y1272D02*
X465Y1277D01*
X475D01*
X480Y1272D01*
Y1267D01*
X475Y1262D01*
X480Y1257D01*
Y1252D01*
X475Y1247D01*
X465D01*
X460Y1252D01*
Y1257D01*
X465Y1262D01*
X460Y1267D01*
Y1272D01*
X465Y1262D02*
X475D01*
X1401Y1560D02*
X1396Y1565D01*
X1386D01*
X1381Y1560D01*
Y1540D01*
X1386Y1535D01*
X1396D01*
X1401Y1540D01*
X1411Y1535D02*
X1421D01*
X1416D01*
Y1565D01*
X1411Y1560D01*
X1436D02*
X1441Y1565D01*
X1451D01*
X1456Y1560D01*
Y1540D01*
X1451Y1535D01*
X1441D01*
X1436Y1540D01*
Y1560D01*
X1585Y1238D02*
X1580Y1243D01*
X1570D01*
X1565Y1238D01*
Y1218D01*
X1570Y1213D01*
X1580D01*
X1585Y1218D01*
X1595Y1213D02*
X1605D01*
X1600D01*
Y1243D01*
X1595Y1238D01*
X1585Y1385D02*
X1580Y1390D01*
X1570D01*
X1565Y1385D01*
Y1365D01*
X1570Y1360D01*
X1580D01*
X1585Y1365D01*
X1595Y1360D02*
X1605D01*
X1600D01*
Y1390D01*
X1595Y1385D01*
X1635Y1360D02*
Y1390D01*
X1620Y1375D01*
X1640D01*
X2270Y1237D02*
X2240D01*
Y1252D01*
X2245Y1257D01*
X2255D01*
X2260Y1252D01*
Y1237D01*
X2270Y1287D02*
Y1267D01*
X2250Y1287D01*
X2245D01*
X2240Y1282D01*
Y1272D01*
X2245Y1267D01*
X930Y865D02*
Y895D01*
X945D01*
X950Y890D01*
Y880D01*
X945Y875D01*
X930D01*
X960Y890D02*
X965Y895D01*
X975D01*
X980Y890D01*
Y885D01*
X975Y880D01*
X970D01*
X975D01*
X980Y875D01*
Y870D01*
X975Y865D01*
X965D01*
X960Y870D01*
X2021Y1527D02*
X2016Y1532D01*
X2006D01*
X2001Y1527D01*
Y1522D01*
X2006Y1517D01*
X2016D01*
X2021Y1512D01*
Y1507D01*
X2016Y1502D01*
X2006D01*
X2001Y1507D01*
X2031Y1502D02*
X2041D01*
X2036D01*
Y1532D01*
X2031Y1527D01*
X359Y1401D02*
Y1371D01*
X379D01*
X389D02*
X399D01*
X394D01*
Y1401D01*
X389Y1396D01*
X268Y1433D02*
Y1403D01*
X288D01*
X318D02*
X298D01*
X318Y1423D01*
Y1428D01*
X313Y1433D01*
X303D01*
X298Y1428D01*
X607Y1160D02*
X577D01*
Y1175D01*
X582Y1180D01*
X592D01*
X597Y1175D01*
Y1160D01*
Y1170D02*
X607Y1180D01*
Y1190D02*
Y1200D01*
Y1195D01*
X577D01*
X582Y1190D01*
X607Y1215D02*
Y1225D01*
Y1220D01*
X577D01*
X582Y1215D01*
X556Y1159D02*
X526D01*
Y1174D01*
X531Y1179D01*
X541D01*
X546Y1174D01*
Y1159D01*
Y1169D02*
X556Y1179D01*
Y1189D02*
Y1199D01*
Y1194D01*
X526D01*
X531Y1189D01*
Y1214D02*
X526Y1219D01*
Y1229D01*
X531Y1234D01*
X536D01*
X541Y1229D01*
Y1224D01*
Y1229D01*
X546Y1234D01*
X551D01*
X556Y1229D01*
Y1219D01*
X551Y1214D01*
X226Y1029D02*
Y1004D01*
X231Y999D01*
X241D01*
X246Y1004D01*
Y1029D01*
X276Y999D02*
X256D01*
X276Y1019D01*
Y1024D01*
X271Y1029D01*
X261D01*
X256Y1024D01*
D44*
X1951Y1400D02*
Y1450D01*
X1976D01*
X1984Y1442D01*
Y1425D01*
X1976Y1417D01*
X1951D01*
X1968D02*
X1984Y1400D01*
X2026D02*
X2009D01*
X2001Y1408D01*
Y1425D01*
X2009Y1433D01*
X2026D01*
X2034Y1425D01*
Y1417D01*
X2001D01*
X2051Y1400D02*
X2076D01*
X2084Y1408D01*
X2076Y1417D01*
X2059D01*
X2051Y1425D01*
X2059Y1433D01*
X2084D01*
X2126Y1400D02*
X2109D01*
X2101Y1408D01*
Y1425D01*
X2109Y1433D01*
X2126D01*
X2134Y1425D01*
Y1417D01*
X2101D01*
X2159Y1442D02*
Y1433D01*
X2151D01*
X2168D01*
X2159D01*
Y1408D01*
X2168Y1400D01*
D45*
X380Y1180D02*
X387Y1187D01*
X400D01*
X407Y1180D01*
Y1174D01*
X400Y1167D01*
X393D01*
X400D01*
X407Y1160D01*
Y1154D01*
X400Y1147D01*
X387D01*
X380Y1154D01*
X420Y1187D02*
Y1160D01*
X433Y1147D01*
X447Y1160D01*
Y1187D01*
X408Y891D02*
X381D01*
Y871D01*
X394Y878D01*
X401D01*
X408Y871D01*
Y858D01*
X401Y851D01*
X388D01*
X381Y858D01*
X421Y891D02*
Y864D01*
X434Y851D01*
X448Y864D01*
Y891D01*
X2056Y1070D02*
X2106D01*
Y1095D01*
X2098Y1103D01*
X2089D01*
X2081Y1095D01*
Y1070D01*
Y1095D01*
X2073Y1103D01*
X2064D01*
X2056Y1095D01*
Y1070D01*
Y1120D02*
X2106D01*
Y1145D01*
X2098Y1153D01*
X2064D01*
X2056Y1145D01*
Y1120D01*
X2106Y1170D02*
X2056D01*
X2073Y1187D01*
X2056Y1203D01*
X2106D01*
X2138Y1258D02*
X2130Y1250D01*
Y1233D01*
X2138Y1225D01*
X2147D01*
X2155Y1233D01*
Y1250D01*
X2163Y1258D01*
X2172D01*
X2180Y1250D01*
Y1233D01*
X2172Y1225D01*
X2130Y1275D02*
X2180D01*
X2163Y1292D01*
X2180Y1308D01*
X2130D01*
Y1325D02*
X2180D01*
Y1350D01*
X2172Y1358D01*
X2138D01*
X2130Y1350D01*
Y1325D01*
M02*
