G04 Layer_Color=8388736*
%FSLAX23Y23*%
%MOIN*%
G70*
G01*
G75*
%ADD46R,0.087X0.039*%
G04:AMPARAMS|DCode=47|XSize=24mil|YSize=41mil|CornerRadius=8mil|HoleSize=0mil|Usage=FLASHONLY|Rotation=90.000|XOffset=0mil|YOffset=0mil|HoleType=Round|Shape=RoundedRectangle|*
%AMROUNDEDRECTD47*
21,1,0.024,0.026,0,0,90.0*
21,1,0.008,0.041,0,0,90.0*
1,1,0.016,0.013,0.004*
1,1,0.016,0.013,-0.004*
1,1,0.016,-0.013,-0.004*
1,1,0.016,-0.013,0.004*
%
%ADD47ROUNDEDRECTD47*%
G04:AMPARAMS|DCode=48|XSize=24mil|YSize=49mil|CornerRadius=8mil|HoleSize=0mil|Usage=FLASHONLY|Rotation=90.000|XOffset=0mil|YOffset=0mil|HoleType=Round|Shape=RoundedRectangle|*
%AMROUNDEDRECTD48*
21,1,0.024,0.033,0,0,90.0*
21,1,0.008,0.049,0,0,90.0*
1,1,0.016,0.017,0.004*
1,1,0.016,0.017,-0.004*
1,1,0.016,-0.017,-0.004*
1,1,0.016,-0.017,0.004*
%
%ADD48ROUNDEDRECTD48*%
%ADD49R,0.039X0.055*%
G04:AMPARAMS|DCode=50|XSize=47mil|YSize=30mil|CornerRadius=9mil|HoleSize=0mil|Usage=FLASHONLY|Rotation=270.000|XOffset=0mil|YOffset=0mil|HoleType=Round|Shape=RoundedRectangle|*
%AMROUNDEDRECTD50*
21,1,0.047,0.011,0,0,270.0*
21,1,0.029,0.030,0,0,270.0*
1,1,0.019,-0.005,-0.014*
1,1,0.019,-0.005,0.014*
1,1,0.019,0.005,0.014*
1,1,0.019,0.005,-0.014*
%
%ADD50ROUNDEDRECTD50*%
%ADD51R,0.051X0.047*%
%ADD52R,0.047X0.051*%
%ADD53R,0.047X0.075*%
%ADD54R,0.059X0.067*%
%ADD55R,0.055X0.063*%
%ADD56R,0.091X0.066*%
%ADD57R,0.062X0.026*%
%ADD58R,0.083X0.054*%
%ADD59R,0.083X0.102*%
%ADD60O,0.079X0.018*%
%ADD61O,0.018X0.079*%
%ADD62C,0.063*%
%ADD63C,0.047*%
%ADD64R,0.047X0.047*%
%ADD65R,0.047X0.047*%
%ADD66O,0.070X0.063*%
%ADD67R,0.070X0.063*%
%ADD68C,0.055*%
%ADD69R,0.055X0.055*%
D46*
X-493Y-280D02*
D03*
D47*
X789Y-81D02*
D03*
Y-107D02*
D03*
Y-133D02*
D03*
X700D02*
D03*
Y-107D02*
D03*
Y-81D02*
D03*
Y77D02*
D03*
Y52D02*
D03*
Y26D02*
D03*
X789D02*
D03*
Y52D02*
D03*
Y77D02*
D03*
D48*
X817Y207D02*
D03*
Y232D02*
D03*
Y258D02*
D03*
Y283D02*
D03*
X662Y207D02*
D03*
Y232D02*
D03*
Y258D02*
D03*
Y283D02*
D03*
Y-247D02*
D03*
Y-272D02*
D03*
Y-298D02*
D03*
Y-323D02*
D03*
X817Y-247D02*
D03*
Y-272D02*
D03*
Y-298D02*
D03*
Y-323D02*
D03*
D49*
X-189Y-225D02*
D03*
X-264D02*
D03*
X-226Y-315D02*
D03*
D50*
X1400Y74D02*
D03*
X1363D02*
D03*
X1325D02*
D03*
X1400Y-32D02*
D03*
X1325D02*
D03*
X1363D02*
D03*
X-456Y-227D02*
D03*
X-493Y-227D02*
D03*
X-530D02*
D03*
X-456Y-333D02*
D03*
X-530Y-333D02*
D03*
X-493D02*
D03*
D51*
X891Y-237D02*
D03*
X958D02*
D03*
X711Y137D02*
D03*
X778D02*
D03*
X761Y-28D02*
D03*
X828D02*
D03*
X813Y330D02*
D03*
X746D02*
D03*
X-234Y47D02*
D03*
X-167D02*
D03*
X538Y207D02*
D03*
X471D02*
D03*
Y135D02*
D03*
X538D02*
D03*
X320Y305D02*
D03*
X253D02*
D03*
X946Y237D02*
D03*
X1013D02*
D03*
Y298D02*
D03*
X946D02*
D03*
X891Y23D02*
D03*
X958D02*
D03*
Y88D02*
D03*
X891D02*
D03*
Y-141D02*
D03*
X958D02*
D03*
Y-75D02*
D03*
X891D02*
D03*
X-234Y99D02*
D03*
X-167D02*
D03*
Y151D02*
D03*
X-234D02*
D03*
X-115Y231D02*
D03*
X-182D02*
D03*
X743Y-190D02*
D03*
X676D02*
D03*
X-115Y295D02*
D03*
X-182D02*
D03*
X-54Y231D02*
D03*
X13D02*
D03*
X1013Y176D02*
D03*
X946D02*
D03*
X891Y-302D02*
D03*
X958D02*
D03*
X594Y-28D02*
D03*
X527D02*
D03*
Y40D02*
D03*
X594D02*
D03*
X-54Y295D02*
D03*
X13D02*
D03*
D52*
X1240Y-205D02*
D03*
Y-271D02*
D03*
X-207Y-92D02*
D03*
Y-158D02*
D03*
X-155Y-158D02*
D03*
Y-92D02*
D03*
X263Y-256D02*
D03*
Y-322D02*
D03*
X-104Y-158D02*
D03*
Y-92D02*
D03*
X1180Y-205D02*
D03*
Y-271D02*
D03*
X1120D02*
D03*
Y-205D02*
D03*
X1060Y-271D02*
D03*
Y-205D02*
D03*
X-116Y-257D02*
D03*
Y-323D02*
D03*
X-259Y-92D02*
D03*
Y-158D02*
D03*
X1310Y-271D02*
D03*
Y-205D02*
D03*
X-407Y-287D02*
D03*
Y-220D02*
D03*
X1370Y-271D02*
D03*
Y-205D02*
D03*
D53*
X1313Y304D02*
D03*
X1179D02*
D03*
D54*
X-429Y222D02*
D03*
X-504D02*
D03*
X-353D02*
D03*
X-278D02*
D03*
Y302D02*
D03*
X-353D02*
D03*
D55*
X405Y-249D02*
D03*
X342D02*
D03*
Y-163D02*
D03*
X405D02*
D03*
D56*
X-450Y97D02*
D03*
Y-97D02*
D03*
D57*
X-436Y26D02*
D03*
Y51D02*
D03*
Y-51D02*
D03*
Y-26D02*
D03*
Y0D02*
D03*
D58*
X-541Y33D02*
D03*
Y-33D02*
D03*
D59*
Y-115D02*
D03*
Y115D02*
D03*
D60*
X-19Y108D02*
D03*
Y89D02*
D03*
Y69D02*
D03*
Y49D02*
D03*
Y30D02*
D03*
Y10D02*
D03*
Y-10D02*
D03*
Y-30D02*
D03*
Y-49D02*
D03*
Y-69D02*
D03*
Y-89D02*
D03*
Y-108D02*
D03*
X298D02*
D03*
Y-89D02*
D03*
Y-69D02*
D03*
Y-49D02*
D03*
Y-30D02*
D03*
Y-10D02*
D03*
Y10D02*
D03*
Y30D02*
D03*
Y49D02*
D03*
Y69D02*
D03*
Y89D02*
D03*
Y108D02*
D03*
D61*
X31Y-158D02*
D03*
X51D02*
D03*
X71D02*
D03*
X90D02*
D03*
X110D02*
D03*
X130D02*
D03*
X149D02*
D03*
X169D02*
D03*
X189D02*
D03*
X209D02*
D03*
X228D02*
D03*
X248D02*
D03*
Y158D02*
D03*
X228D02*
D03*
X209D02*
D03*
X189D02*
D03*
X169D02*
D03*
X149D02*
D03*
X130D02*
D03*
X110D02*
D03*
X90D02*
D03*
X71D02*
D03*
X51D02*
D03*
X31D02*
D03*
D62*
X386Y-69D02*
D03*
X1099Y306D02*
D03*
D63*
X-55Y-313D02*
D03*
Y-263D02*
D03*
X-5Y-313D02*
D03*
X45D02*
D03*
Y-263D02*
D03*
X95Y-313D02*
D03*
Y-263D02*
D03*
X145Y-313D02*
D03*
X1480Y-225D02*
D03*
X1530Y-175D02*
D03*
X1480D02*
D03*
X1530Y-125D02*
D03*
X1480D02*
D03*
Y-75D02*
D03*
X1530Y-25D02*
D03*
X1480D02*
D03*
X1530Y125D02*
D03*
X1480D02*
D03*
X1530Y175D02*
D03*
X1480D02*
D03*
X1530Y225D02*
D03*
X1480D02*
D03*
D64*
X145Y-263D02*
D03*
D65*
X1530Y-225D02*
D03*
D66*
X1140Y-100D02*
D03*
Y0D02*
D03*
X1240Y-100D02*
D03*
Y0D02*
D03*
Y100D02*
D03*
D67*
X1140D02*
D03*
D68*
X-337Y-129D02*
D03*
Y-50D02*
D03*
D69*
Y-208D02*
D03*
M02*
