G04 Layer_Physical_Order=2*
G04 Layer_Color=16711680*
%FSLAX23Y23*%
%MOIN*%
G70*
G01*
G75*
%ADD26C,0.012*%
%ADD27C,0.016*%
%ADD31C,0.055*%
%ADD32C,0.047*%
%ADD33R,0.047X0.047*%
%ADD34C,0.062*%
%ADD35R,0.062X0.062*%
%ADD36C,0.039*%
%ADD37R,0.039X0.039*%
%ADD38R,0.039X0.039*%
%ADD39C,0.027*%
G36*
X2352Y850D02*
X1838D01*
X1837Y854D01*
X1866Y884D01*
X1868Y883D01*
X1876Y885D01*
X1882Y889D01*
X1886Y895D01*
X1888Y903D01*
X1886Y911D01*
X1882Y917D01*
X1876Y921D01*
X1871Y922D01*
X1869Y928D01*
X1876Y934D01*
X2143D01*
X2144Y932D01*
X2151Y928D01*
X2158Y927D01*
X2166Y928D01*
X2173Y932D01*
X2177Y939D01*
X2178Y947D01*
X2177Y954D01*
X2173Y961D01*
X2166Y965D01*
X2158Y966D01*
X2151Y965D01*
X2144Y961D01*
X2143Y959D01*
X1871D01*
X1871Y959D01*
X1866Y958D01*
X1862Y955D01*
X1862Y955D01*
X1794Y887D01*
X1330D01*
X1280Y937D01*
X1281Y939D01*
X1279Y947D01*
X1275Y953D01*
X1269Y957D01*
X1261Y959D01*
X1253Y957D01*
X1247Y953D01*
X1243Y947D01*
X1241Y939D01*
X1243Y931D01*
X1247Y925D01*
X1253Y921D01*
X1256Y920D01*
Y915D01*
X1252Y914D01*
X1246Y910D01*
X1242Y904D01*
X1240Y896D01*
X1242Y888D01*
X1246Y882D01*
X1252Y878D01*
X1260Y876D01*
X1282Y854D01*
X1280Y850D01*
X1187D01*
X1186Y854D01*
X1207Y876D01*
X1209Y875D01*
X1217Y877D01*
X1223Y881D01*
X1227Y887D01*
X1229Y895D01*
X1227Y903D01*
X1223Y909D01*
X1217Y913D01*
X1209Y915D01*
X1201Y913D01*
X1195Y909D01*
X1191Y903D01*
X1189Y895D01*
X1190Y893D01*
X1167Y870D01*
X725D01*
X713Y882D01*
X713Y887D01*
X717Y892D01*
X720Y892D01*
X720D01*
X723Y892D01*
X727Y887D01*
X732Y883D01*
X738Y880D01*
X745Y879D01*
X752Y880D01*
X758Y883D01*
X763Y887D01*
X767Y892D01*
X770Y892D01*
X770D01*
X773Y892D01*
X777Y887D01*
X782Y883D01*
X788Y880D01*
X795Y879D01*
X802Y880D01*
X808Y883D01*
X813Y887D01*
X817Y892D01*
X820Y892D01*
X820D01*
X823Y892D01*
X827Y887D01*
X832Y883D01*
X838Y880D01*
X845Y879D01*
X852Y880D01*
X858Y883D01*
X863Y887D01*
X867Y892D01*
X870Y892D01*
X870D01*
X873Y892D01*
X877Y887D01*
X882Y883D01*
X888Y880D01*
X895Y879D01*
X902Y880D01*
X908Y883D01*
X913Y887D01*
X917Y892D01*
X920Y898D01*
X921Y905D01*
X920Y912D01*
X917Y918D01*
X913Y923D01*
X912Y924D01*
X914Y929D01*
X921D01*
Y981D01*
X909D01*
Y1005D01*
X908Y1010D01*
X905Y1015D01*
X817Y1103D01*
Y1116D01*
X821Y1122D01*
X823Y1130D01*
X821Y1138D01*
X817Y1144D01*
X811Y1148D01*
X803Y1150D01*
X795Y1148D01*
X789Y1144D01*
X785Y1138D01*
X783Y1130D01*
X785Y1122D01*
X789Y1116D01*
Y1097D01*
X790Y1092D01*
X793Y1087D01*
X881Y999D01*
Y981D01*
X869D01*
Y974D01*
X864Y972D01*
X863Y973D01*
X858Y977D01*
X852Y980D01*
X850Y980D01*
Y955D01*
X840D01*
Y980D01*
X838Y980D01*
X832Y977D01*
X827Y973D01*
X823Y968D01*
X820Y968D01*
X820D01*
X817Y968D01*
X813Y973D01*
X808Y977D01*
X802Y980D01*
X800Y980D01*
Y955D01*
X795D01*
Y950D01*
X770D01*
X770Y948D01*
X773Y942D01*
X777Y937D01*
X782Y933D01*
X782Y930D01*
Y930D01*
X782Y927D01*
X777Y923D01*
X773Y918D01*
X770Y918D01*
X770D01*
X767Y918D01*
X763Y923D01*
X758Y927D01*
X752Y930D01*
X745Y931D01*
X738Y930D01*
X732Y927D01*
X727Y923D01*
X723Y918D01*
X720Y918D01*
X720D01*
X717Y918D01*
X713Y923D01*
X708Y927D01*
X708Y930D01*
Y930D01*
X708Y933D01*
X713Y937D01*
X717Y942D01*
X720Y948D01*
X720Y950D01*
X670D01*
X670Y948D01*
X673Y942D01*
X677Y937D01*
X682Y933D01*
X682Y930D01*
Y930D01*
X682Y927D01*
X677Y923D01*
X673Y918D01*
X670Y912D01*
X669Y905D01*
X670Y898D01*
X673Y892D01*
X677Y887D01*
X682Y883D01*
X683Y882D01*
X684Y878D01*
X686Y874D01*
X706Y854D01*
X705Y850D01*
X161D01*
Y1582D01*
X2352D01*
Y850D01*
D02*
G37*
%LPC*%
G36*
X1136Y1183D02*
X1127Y1182D01*
X1119Y1178D01*
X1112Y1173D01*
X1107Y1166D01*
X1103Y1158D01*
X1102Y1149D01*
X1103Y1140D01*
X1107Y1132D01*
X1112Y1125D01*
X1119Y1120D01*
X1127Y1116D01*
X1136Y1115D01*
X1145Y1116D01*
X1153Y1120D01*
X1160Y1125D01*
X1165Y1132D01*
X1169Y1140D01*
X1170Y1149D01*
X1169Y1158D01*
X1165Y1166D01*
X1160Y1173D01*
X1153Y1178D01*
X1145Y1182D01*
X1136Y1183D01*
D02*
G37*
G36*
X413Y1132D02*
X405Y1131D01*
X398Y1128D01*
X392Y1123D01*
X387Y1117D01*
X384Y1109D01*
X383Y1102D01*
X384Y1094D01*
X387Y1087D01*
X392Y1081D01*
X398Y1076D01*
X405Y1073D01*
X413Y1072D01*
X421Y1073D01*
X428Y1076D01*
X434Y1081D01*
X439Y1087D01*
X442Y1094D01*
X443Y1102D01*
X442Y1109D01*
X439Y1117D01*
X434Y1123D01*
X428Y1128D01*
X421Y1131D01*
X413Y1132D01*
D02*
G37*
G36*
X2286Y1118D02*
Y1097D01*
X2306D01*
X2306Y1099D01*
X2303Y1105D01*
X2299Y1111D01*
X2294Y1115D01*
X2287Y1117D01*
X2286Y1118D01*
D02*
G37*
G36*
X441Y1320D02*
X433Y1318D01*
X427Y1314D01*
X423Y1308D01*
X421Y1300D01*
X422Y1298D01*
X389Y1265D01*
X387Y1266D01*
X379Y1264D01*
X373Y1260D01*
X369Y1254D01*
X367Y1246D01*
X369Y1238D01*
X373Y1232D01*
X379Y1228D01*
X387Y1226D01*
X395Y1228D01*
X401Y1232D01*
X405Y1238D01*
X407Y1246D01*
X406Y1248D01*
X439Y1281D01*
X441Y1280D01*
X449Y1282D01*
X455Y1286D01*
X459Y1292D01*
X461Y1300D01*
X459Y1308D01*
X455Y1314D01*
X449Y1318D01*
X441Y1320D01*
D02*
G37*
G36*
X1107Y1461D02*
X1099Y1459D01*
X1093Y1455D01*
X1089Y1449D01*
X1087Y1441D01*
X1089Y1433D01*
X1093Y1427D01*
X1095Y1426D01*
Y1331D01*
X1095Y1331D01*
X1096Y1326D01*
X1098Y1322D01*
X1148Y1273D01*
X1147Y1271D01*
X1149Y1263D01*
X1153Y1257D01*
X1159Y1253D01*
X1167Y1251D01*
X1175Y1253D01*
X1181Y1257D01*
X1185Y1263D01*
X1187Y1271D01*
X1185Y1279D01*
X1181Y1285D01*
X1175Y1289D01*
X1167Y1291D01*
X1165Y1290D01*
X1119Y1336D01*
Y1426D01*
X1121Y1427D01*
X1125Y1433D01*
X1127Y1441D01*
X1125Y1449D01*
X1121Y1455D01*
X1115Y1459D01*
X1107Y1461D01*
D02*
G37*
G36*
X828D02*
X820Y1459D01*
X814Y1455D01*
X810Y1449D01*
X808Y1441D01*
X810Y1433D01*
X814Y1427D01*
X816Y1426D01*
Y1411D01*
X816Y1411D01*
X817Y1406D01*
X819Y1402D01*
X876Y1345D01*
X876Y1345D01*
X880Y1343D01*
X885Y1342D01*
X885Y1342D01*
X1003D01*
X1128Y1216D01*
X1128Y1216D01*
X1132Y1214D01*
X1137Y1213D01*
X1191D01*
X1191Y1213D01*
X1196Y1214D01*
X1200Y1216D01*
X1212Y1229D01*
X1214Y1228D01*
X1222Y1230D01*
X1228Y1234D01*
X1232Y1240D01*
X1234Y1248D01*
X1232Y1256D01*
X1228Y1262D01*
X1222Y1266D01*
X1214Y1268D01*
X1206Y1266D01*
X1200Y1262D01*
X1196Y1256D01*
X1194Y1248D01*
X1195Y1246D01*
X1186Y1237D01*
X1142D01*
X1017Y1363D01*
X1013Y1365D01*
X1008Y1366D01*
X1008Y1366D01*
X890D01*
X840Y1416D01*
Y1426D01*
X842Y1427D01*
X846Y1433D01*
X848Y1441D01*
X846Y1449D01*
X842Y1455D01*
X836Y1459D01*
X828Y1461D01*
D02*
G37*
G36*
X690Y980D02*
X688Y980D01*
X682Y977D01*
X677Y973D01*
X673Y968D01*
X670Y962D01*
X670Y960D01*
X690D01*
Y980D01*
D02*
G37*
G36*
X443Y974D02*
X383D01*
Y915D01*
X443D01*
Y974D01*
D02*
G37*
G36*
X860Y1150D02*
X853Y1148D01*
X846Y1144D01*
X842Y1138D01*
X841Y1130D01*
X842Y1122D01*
X846Y1116D01*
X853Y1112D01*
X860Y1110D01*
X866Y1111D01*
X950Y1027D01*
Y927D01*
X948Y926D01*
X944Y920D01*
X942Y912D01*
X944Y904D01*
X948Y898D01*
X954Y894D01*
X962Y892D01*
X970Y894D01*
X976Y898D01*
X980Y904D01*
X982Y912D01*
X980Y920D01*
X976Y926D01*
X974Y927D01*
Y1032D01*
X974Y1032D01*
X973Y1037D01*
X971Y1041D01*
X880Y1131D01*
X879Y1138D01*
X875Y1144D01*
X868Y1148D01*
X860Y1150D01*
D02*
G37*
G36*
X1350Y1533D02*
X1342Y1531D01*
X1336Y1527D01*
X1332Y1521D01*
X1330Y1513D01*
X1332Y1505D01*
X1336Y1499D01*
X1342Y1495D01*
X1350Y1493D01*
X1391Y1452D01*
Y1352D01*
X1391Y1352D01*
X1386Y1345D01*
X1385Y1338D01*
X1386Y1330D01*
X1391Y1324D01*
X1391Y1324D01*
Y1172D01*
X1387Y1166D01*
X1385Y1158D01*
X1387Y1150D01*
X1391Y1144D01*
Y1047D01*
X1382Y1038D01*
X1374Y1036D01*
X1368Y1032D01*
X1364Y1026D01*
X1362Y1018D01*
X1364Y1010D01*
X1368Y1004D01*
X1374Y1000D01*
X1382Y998D01*
X1390Y1000D01*
X1396Y1004D01*
X1400Y1010D01*
X1402Y1018D01*
X1415Y1031D01*
X1418Y1036D01*
X1419Y1041D01*
Y1144D01*
X1423Y1150D01*
X1425Y1158D01*
X1423Y1166D01*
X1419Y1172D01*
Y1324D01*
X1423Y1330D01*
X1425Y1338D01*
X1423Y1345D01*
X1419Y1352D01*
Y1458D01*
X1418Y1463D01*
X1415Y1468D01*
X1370Y1513D01*
X1368Y1521D01*
X1364Y1527D01*
X1358Y1531D01*
X1350Y1533D01*
D02*
G37*
G36*
X790Y980D02*
X788Y980D01*
X782Y977D01*
X777Y973D01*
X773Y968D01*
X770Y962D01*
X770Y960D01*
X790D01*
Y980D01*
D02*
G37*
G36*
X700D02*
Y960D01*
X720D01*
X720Y962D01*
X717Y968D01*
X713Y973D01*
X708Y977D01*
X702Y980D01*
X700Y980D01*
D02*
G37*
G36*
X1844Y1519D02*
X1814D01*
X1814Y1515D01*
X1818Y1506D01*
X1824Y1499D01*
X1831Y1493D01*
X1840Y1489D01*
X1844Y1489D01*
Y1519D01*
D02*
G37*
G36*
X892Y1542D02*
X892Y1542D01*
X310D01*
X305Y1541D01*
X301Y1538D01*
X301Y1538D01*
X213Y1451D01*
X211Y1447D01*
X210Y1442D01*
X210Y1442D01*
Y957D01*
X205Y952D01*
X203Y952D01*
X195Y951D01*
X189Y946D01*
X184Y940D01*
X183Y932D01*
X184Y925D01*
X189Y918D01*
X195Y914D01*
X203Y912D01*
X210Y914D01*
X217Y918D01*
X221Y925D01*
X223Y932D01*
X222Y935D01*
X231Y943D01*
X233Y947D01*
X234Y952D01*
X234Y952D01*
Y990D01*
X239Y992D01*
X272Y958D01*
X272Y958D01*
X276Y956D01*
X281Y955D01*
X320D01*
X321Y953D01*
X327Y949D01*
X335Y947D01*
X343Y949D01*
X344Y949D01*
X348Y947D01*
Y917D01*
X344Y913D01*
X336Y911D01*
X330Y907D01*
X326Y901D01*
X324Y893D01*
X326Y885D01*
X330Y879D01*
X336Y875D01*
X344Y873D01*
X352Y875D01*
X358Y879D01*
X362Y885D01*
X364Y893D01*
X372Y901D01*
X375Y906D01*
X377Y911D01*
Y1013D01*
X375Y1018D01*
X372Y1023D01*
X338Y1057D01*
Y1272D01*
X421Y1355D01*
X429Y1357D01*
X435Y1361D01*
X507D01*
X632Y1236D01*
X634Y1228D01*
X638Y1222D01*
X644Y1218D01*
X652Y1216D01*
X660Y1218D01*
X666Y1222D01*
X670Y1228D01*
X672Y1236D01*
X670Y1244D01*
X666Y1250D01*
X660Y1254D01*
X652Y1256D01*
X523Y1385D01*
X518Y1388D01*
X513Y1389D01*
X435D01*
X429Y1393D01*
X421Y1395D01*
X413Y1393D01*
X407Y1389D01*
X403Y1383D01*
X401Y1375D01*
X314Y1288D01*
X311Y1283D01*
X310Y1278D01*
Y1051D01*
X311Y1046D01*
X314Y1041D01*
X348Y1007D01*
Y987D01*
X344Y985D01*
X343Y985D01*
X335Y987D01*
X327Y985D01*
X321Y981D01*
X320Y979D01*
X286D01*
X254Y1011D01*
Y1425D01*
X329Y1500D01*
X852D01*
X881Y1471D01*
X880Y1469D01*
X882Y1461D01*
X886Y1455D01*
X892Y1451D01*
X900Y1449D01*
X908Y1451D01*
X914Y1455D01*
X917Y1456D01*
X919D01*
X925Y1452D01*
X933Y1450D01*
X941Y1452D01*
X947Y1456D01*
X951Y1462D01*
X953Y1470D01*
X951Y1478D01*
X947Y1484D01*
X945Y1485D01*
Y1489D01*
X945Y1489D01*
X944Y1494D01*
X942Y1498D01*
X901Y1538D01*
X897Y1541D01*
X892Y1542D01*
D02*
G37*
G36*
X2286Y1468D02*
Y1447D01*
X2306D01*
X2306Y1449D01*
X2303Y1455D01*
X2299Y1461D01*
X2294Y1465D01*
X2287Y1467D01*
X2286Y1468D01*
D02*
G37*
G36*
X1854Y1559D02*
Y1529D01*
X1884D01*
X1884Y1533D01*
X1880Y1542D01*
X1874Y1549D01*
X1867Y1555D01*
X1858Y1559D01*
X1854Y1559D01*
D02*
G37*
G36*
X1844D02*
X1840Y1559D01*
X1831Y1555D01*
X1824Y1549D01*
X1818Y1542D01*
X1814Y1533D01*
X1814Y1529D01*
X1844D01*
Y1559D01*
D02*
G37*
G36*
X1884Y1519D02*
X1854D01*
Y1489D01*
X1858Y1489D01*
X1867Y1493D01*
X1874Y1499D01*
X1880Y1506D01*
X1884Y1515D01*
X1884Y1519D01*
D02*
G37*
G36*
X1143Y1534D02*
X1135Y1532D01*
X1129Y1528D01*
X1125Y1522D01*
X1123Y1514D01*
X1125Y1506D01*
X1129Y1500D01*
X1135Y1496D01*
X1143Y1494D01*
X1145Y1495D01*
X1270Y1370D01*
X1268Y1365D01*
X1193D01*
X1192Y1367D01*
X1186Y1371D01*
X1178Y1373D01*
X1170Y1371D01*
X1164Y1367D01*
X1160Y1361D01*
X1158Y1353D01*
X1160Y1345D01*
X1164Y1339D01*
X1170Y1335D01*
X1178Y1333D01*
X1186Y1335D01*
X1192Y1339D01*
X1193Y1341D01*
X1269D01*
X1307Y1303D01*
Y1099D01*
X1307Y1099D01*
X1308Y1094D01*
X1310Y1090D01*
X1326Y1075D01*
X1325Y1073D01*
X1327Y1065D01*
X1331Y1059D01*
X1337Y1055D01*
X1345Y1053D01*
X1353Y1055D01*
X1359Y1059D01*
X1363Y1065D01*
X1365Y1073D01*
X1363Y1081D01*
X1359Y1087D01*
X1353Y1091D01*
X1345Y1093D01*
X1343Y1092D01*
X1331Y1104D01*
Y1114D01*
X1336Y1116D01*
X1337Y1115D01*
X1345Y1113D01*
X1353Y1115D01*
X1359Y1119D01*
X1363Y1125D01*
X1365Y1133D01*
X1363Y1141D01*
X1359Y1147D01*
X1357Y1148D01*
Y1312D01*
X1356Y1317D01*
X1354Y1321D01*
X1354Y1321D01*
X1162Y1512D01*
X1163Y1514D01*
X1161Y1522D01*
X1157Y1528D01*
X1151Y1532D01*
X1143Y1534D01*
D02*
G37*
G36*
X2306Y1337D02*
X2286D01*
Y1317D01*
X2287Y1317D01*
X2294Y1320D01*
X2299Y1324D01*
X2303Y1329D01*
X2306Y1336D01*
X2306Y1337D01*
D02*
G37*
G36*
X2231Y1468D02*
X2224Y1467D01*
X2218Y1465D01*
X2212Y1461D01*
X2208Y1455D01*
X2206Y1449D01*
X2205Y1442D01*
X2206Y1436D01*
X2208Y1429D01*
X2212Y1424D01*
X2217Y1420D01*
X2218Y1417D01*
Y1417D01*
X2217Y1415D01*
X2212Y1411D01*
X2208Y1405D01*
X2206Y1399D01*
X2205Y1392D01*
X2206Y1386D01*
X2208Y1379D01*
X2212Y1374D01*
X2217Y1370D01*
X2218Y1367D01*
Y1367D01*
X2217Y1365D01*
X2212Y1361D01*
X2208Y1355D01*
X2206Y1349D01*
X2205Y1342D01*
X2206Y1336D01*
X2208Y1329D01*
X2212Y1324D01*
X2218Y1320D01*
X2224Y1317D01*
X2231Y1316D01*
X2237Y1317D01*
X2244Y1320D01*
X2249Y1324D01*
X2253Y1329D01*
X2256Y1330D01*
X2256D01*
X2258Y1329D01*
X2262Y1324D01*
X2268Y1320D01*
X2274Y1317D01*
X2276Y1317D01*
Y1342D01*
X2281D01*
Y1347D01*
X2306D01*
X2306Y1349D01*
X2303Y1355D01*
X2299Y1361D01*
X2294Y1365D01*
X2293Y1367D01*
Y1367D01*
X2294Y1370D01*
X2299Y1374D01*
X2303Y1379D01*
X2306Y1386D01*
X2306Y1387D01*
X2281D01*
Y1397D01*
X2306D01*
X2306Y1399D01*
X2303Y1405D01*
X2299Y1411D01*
X2294Y1415D01*
X2293Y1417D01*
Y1417D01*
X2294Y1420D01*
X2299Y1424D01*
X2303Y1429D01*
X2306Y1436D01*
X2306Y1437D01*
X2281D01*
Y1442D01*
X2276D01*
Y1468D01*
X2274Y1467D01*
X2268Y1465D01*
X2262Y1461D01*
X2258Y1456D01*
X2256Y1455D01*
X2256D01*
X2253Y1456D01*
X2249Y1461D01*
X2244Y1465D01*
X2237Y1467D01*
X2231Y1468D01*
D02*
G37*
G36*
X1645Y1543D02*
X1637Y1541D01*
X1631Y1537D01*
X1627Y1531D01*
X1625Y1523D01*
X1614Y1512D01*
X1611Y1507D01*
X1610Y1502D01*
Y1314D01*
X1586Y1290D01*
X1585Y1290D01*
X1577Y1288D01*
X1571Y1284D01*
X1567Y1278D01*
X1565Y1270D01*
X1567Y1262D01*
X1571Y1256D01*
Y1150D01*
X1567Y1144D01*
X1565Y1136D01*
X1567Y1129D01*
X1571Y1122D01*
Y1104D01*
X1572Y1099D01*
X1575Y1094D01*
X1603Y1066D01*
Y987D01*
X1599Y981D01*
X1597Y973D01*
X1577Y953D01*
X1367D01*
X1272Y1048D01*
X1267Y1051D01*
X1262Y1052D01*
X1119D01*
X964Y1207D01*
X959Y1210D01*
X954Y1211D01*
X751D01*
X746Y1210D01*
X741Y1207D01*
X676Y1142D01*
X556D01*
X551Y1141D01*
X546Y1138D01*
X445Y1037D01*
X439D01*
X439Y1038D01*
X434Y1044D01*
X428Y1049D01*
X421Y1052D01*
X413Y1053D01*
X405Y1052D01*
X398Y1049D01*
X392Y1044D01*
X387Y1038D01*
X384Y1031D01*
X383Y1023D01*
X384Y1015D01*
X387Y1008D01*
X392Y1002D01*
X398Y997D01*
X405Y994D01*
X413Y993D01*
X421Y994D01*
X428Y997D01*
X434Y1002D01*
X439Y1008D01*
X439Y1009D01*
X451D01*
X456Y1010D01*
X461Y1013D01*
X562Y1114D01*
X682D01*
X687Y1115D01*
X692Y1118D01*
X757Y1183D01*
X948D01*
X1103Y1028D01*
X1108Y1025D01*
X1113Y1024D01*
X1256D01*
X1351Y929D01*
X1356Y926D01*
X1361Y925D01*
X1583D01*
X1588Y926D01*
X1593Y929D01*
X1617Y953D01*
X1625Y955D01*
X1631Y959D01*
X1635Y965D01*
X1637Y973D01*
X1653Y989D01*
X1876D01*
X1881Y990D01*
X1886Y993D01*
X1976Y1083D01*
X1980Y1081D01*
X1990Y1080D01*
X2000Y1081D01*
X2009Y1085D01*
X2016Y1091D01*
X2022Y1099D01*
X2024Y1103D01*
X2120D01*
X2177Y1046D01*
Y972D01*
X2178Y967D01*
X2181Y962D01*
X2206Y937D01*
X2211Y934D01*
X2216Y933D01*
X2268D01*
X2273Y934D01*
X2278Y937D01*
X2291Y950D01*
X2294Y954D01*
X2295Y960D01*
Y967D01*
X2306D01*
Y1018D01*
X2299D01*
X2298Y1023D01*
X2299Y1024D01*
X2303Y1029D01*
X2306Y1036D01*
X2306Y1037D01*
X2281D01*
Y1047D01*
X2306D01*
X2306Y1049D01*
X2303Y1055D01*
X2299Y1061D01*
X2294Y1065D01*
X2293Y1067D01*
Y1067D01*
X2294Y1070D01*
X2299Y1074D01*
X2303Y1079D01*
X2306Y1086D01*
X2306Y1087D01*
X2281D01*
Y1092D01*
X2276D01*
Y1118D01*
X2274Y1117D01*
X2268Y1115D01*
X2262Y1111D01*
X2258Y1106D01*
X2256Y1105D01*
X2256D01*
X2253Y1106D01*
X2249Y1111D01*
X2244Y1115D01*
X2243Y1117D01*
Y1117D01*
X2244Y1120D01*
X2249Y1124D01*
X2253Y1129D01*
X2253Y1130D01*
X2287D01*
X2287Y1130D01*
X2292Y1131D01*
X2296Y1134D01*
X2328Y1165D01*
X2328Y1165D01*
X2330Y1169D01*
X2331Y1174D01*
X2331Y1174D01*
Y1208D01*
X2330Y1213D01*
X2328Y1217D01*
X2328Y1217D01*
X2303Y1242D01*
X2299Y1244D01*
X2294Y1245D01*
X2294Y1245D01*
X2147D01*
X2111Y1281D01*
X2112Y1283D01*
X2110Y1291D01*
X2106Y1297D01*
X2100Y1301D01*
X2092Y1303D01*
X2084Y1301D01*
X2078Y1297D01*
X2077Y1295D01*
X2055D01*
X2055Y1295D01*
X2051Y1294D01*
X2047Y1292D01*
X2035Y1280D01*
X2010D01*
X2009Y1285D01*
X2009Y1285D01*
X2016Y1291D01*
X2022Y1299D01*
X2026Y1308D01*
X2027Y1312D01*
X1953D01*
X1954Y1308D01*
X1958Y1299D01*
X1964Y1291D01*
X1971Y1285D01*
X1971Y1285D01*
X1970Y1280D01*
X1941D01*
X1936Y1279D01*
X1932Y1277D01*
X1932Y1277D01*
X1906Y1251D01*
X1900Y1253D01*
X1890Y1255D01*
X1880Y1253D01*
X1871Y1250D01*
X1864Y1244D01*
X1858Y1236D01*
X1854Y1227D01*
X1853Y1217D01*
X1854Y1208D01*
X1858Y1199D01*
X1864Y1191D01*
X1871Y1185D01*
X1880Y1181D01*
X1890Y1180D01*
X1900Y1181D01*
X1909Y1185D01*
X1916Y1191D01*
X1922Y1199D01*
X1926Y1208D01*
X1927Y1217D01*
X1926Y1227D01*
X1923Y1234D01*
X1946Y1256D01*
X1973D01*
X1974Y1251D01*
X1971Y1250D01*
X1964Y1244D01*
X1958Y1236D01*
X1954Y1227D01*
X1953Y1217D01*
X1954Y1208D01*
X1958Y1199D01*
X1964Y1191D01*
X1971Y1185D01*
X1971Y1185D01*
X1970Y1180D01*
X1941D01*
X1941Y1180D01*
X1936Y1179D01*
X1932Y1177D01*
X1932Y1177D01*
X1906Y1151D01*
X1900Y1153D01*
X1890Y1155D01*
X1880Y1153D01*
X1871Y1150D01*
X1864Y1144D01*
X1858Y1136D01*
X1854Y1127D01*
X1853Y1117D01*
X1854Y1108D01*
X1858Y1099D01*
X1864Y1091D01*
X1871Y1085D01*
X1880Y1081D01*
X1890Y1080D01*
X1900Y1081D01*
X1909Y1085D01*
X1916Y1091D01*
X1922Y1099D01*
X1926Y1108D01*
X1927Y1117D01*
X1926Y1127D01*
X1923Y1134D01*
X1946Y1156D01*
X1973D01*
X1974Y1151D01*
X1971Y1150D01*
X1964Y1144D01*
X1958Y1136D01*
X1954Y1127D01*
X1953Y1117D01*
X1954Y1108D01*
X1956Y1103D01*
X1870Y1017D01*
X1647D01*
X1642Y1016D01*
X1637Y1013D01*
X1636Y1012D01*
X1631Y1014D01*
Y1072D01*
X1630Y1077D01*
X1627Y1082D01*
X1599Y1110D01*
Y1122D01*
X1603Y1129D01*
X1605Y1136D01*
X1603Y1144D01*
X1599Y1150D01*
Y1256D01*
X1603Y1262D01*
X1605Y1269D01*
X1634Y1298D01*
X1637Y1303D01*
X1638Y1308D01*
Y1496D01*
X1645Y1503D01*
X1653Y1505D01*
X1659Y1509D01*
X1663Y1515D01*
X1665Y1523D01*
X1663Y1531D01*
X1659Y1537D01*
X1653Y1541D01*
X1645Y1543D01*
D02*
G37*
G36*
X1970Y1541D02*
X1962Y1539D01*
X1956Y1535D01*
X1952Y1529D01*
X1950Y1521D01*
X1952Y1513D01*
X1956Y1507D01*
X1958Y1506D01*
Y1464D01*
X1931Y1438D01*
X1929Y1434D01*
X1928Y1429D01*
X1928Y1429D01*
Y1385D01*
X1926Y1384D01*
X1922Y1378D01*
X1920Y1370D01*
X1922Y1362D01*
X1924Y1359D01*
X1921Y1354D01*
X1853D01*
Y1280D01*
X1927D01*
Y1349D01*
X1932Y1352D01*
X1932Y1352D01*
X1940Y1350D01*
X1948Y1352D01*
X1954Y1356D01*
X1958Y1362D01*
X1960Y1370D01*
X1958Y1378D01*
X1954Y1384D01*
X1952Y1385D01*
Y1424D01*
X1979Y1450D01*
X1981Y1454D01*
X1982Y1459D01*
X1982Y1459D01*
Y1506D01*
X1984Y1507D01*
X1988Y1513D01*
X1990Y1521D01*
X1988Y1529D01*
X1984Y1535D01*
X1978Y1539D01*
X1970Y1541D01*
D02*
G37*
G36*
X1995Y1354D02*
Y1322D01*
X2027D01*
X2026Y1327D01*
X2022Y1336D01*
X2016Y1344D01*
X2009Y1350D01*
X2000Y1353D01*
X1995Y1354D01*
D02*
G37*
G36*
X1985D02*
X1980Y1353D01*
X1971Y1350D01*
X1964Y1344D01*
X1958Y1336D01*
X1954Y1327D01*
X1953Y1322D01*
X1985D01*
Y1354D01*
D02*
G37*
%LPD*%
D26*
X1319Y1099D02*
Y1308D01*
X1274Y1353D02*
X1319Y1308D01*
X1178Y1353D02*
X1274D01*
X1345Y1133D02*
Y1312D01*
X1143Y1514D02*
X1345Y1312D01*
X1319Y1099D02*
X1345Y1073D01*
X387Y1246D02*
X441Y1300D01*
X885Y1354D02*
X1008D01*
X828Y1411D02*
X885Y1354D01*
X828Y1411D02*
Y1441D01*
X857Y1512D02*
X900Y1469D01*
X324Y1512D02*
X857D01*
X933Y1470D02*
Y1489D01*
X892Y1530D02*
X933Y1489D01*
X310Y1530D02*
X892D01*
X2319Y1174D02*
Y1208D01*
X2294Y1233D02*
X2319Y1208D01*
X2142Y1233D02*
X2294D01*
X2287Y1142D02*
X2319Y1174D01*
X2231Y1142D02*
X2287D01*
X2144Y1193D02*
X2230D01*
X2120Y1217D02*
X2144Y1193D01*
X1990Y1217D02*
X2120D01*
X2092Y1283D02*
X2142Y1233D01*
X2055Y1283D02*
X2092D01*
X2040Y1268D02*
X2055Y1283D01*
X1941Y1268D02*
X2040D01*
X1970Y1459D02*
Y1521D01*
X1940Y1429D02*
X1970Y1459D01*
X1940Y1370D02*
Y1429D01*
X1871Y947D02*
X2158D01*
X1799Y875D02*
X1871Y947D01*
X1325Y875D02*
X1799D01*
X1890Y1117D02*
X1941Y1168D01*
X2230Y1193D02*
X2231Y1192D01*
X222Y952D02*
Y1442D01*
X695Y883D02*
Y905D01*
Y883D02*
X720Y858D01*
X203Y932D02*
X222Y952D01*
X281Y967D02*
X335D01*
X242Y1006D02*
X281Y967D01*
X242Y1006D02*
Y1430D01*
X962Y912D02*
Y1032D01*
X859Y1135D02*
X962Y1032D01*
X242Y1430D02*
X324Y1512D01*
X222Y1442D02*
X310Y1530D01*
X720Y858D02*
X1172D01*
X1260Y893D02*
X1296Y857D01*
X1260Y893D02*
Y896D01*
X1890Y1217D02*
X1941Y1268D01*
X1941Y1168D02*
X2121D01*
X2197Y1092D01*
X2231D01*
X1172Y858D02*
X1209Y895D01*
X1261Y939D02*
X1325Y875D01*
X1296Y857D02*
X1822D01*
X1868Y903D01*
X1008Y1354D02*
X1137Y1225D01*
X1191D01*
X1214Y1248D01*
X1107Y1331D02*
Y1441D01*
Y1331D02*
X1167Y1271D01*
D27*
X1405Y1041D02*
Y1158D01*
X1382Y1018D02*
X1405Y1041D01*
X324Y1278D02*
X421Y1375D01*
X324Y1051D02*
Y1278D01*
X513Y1375D02*
X652Y1236D01*
X421Y1375D02*
X513D01*
X682Y1128D02*
X751Y1197D01*
X556Y1128D02*
X682D01*
X451Y1023D02*
X556Y1128D01*
X413Y1023D02*
X451D01*
X413Y1009D02*
X413D01*
X1647Y1003D02*
X1876D01*
X1617Y973D02*
X1647Y1003D01*
X1585Y1136D02*
Y1269D01*
Y1104D02*
Y1136D01*
X1361Y939D02*
X1583D01*
X1585Y1104D02*
X1617Y1072D01*
Y973D02*
Y1072D01*
X1583Y939D02*
X1617Y973D01*
X1624Y1502D02*
X1645Y1523D01*
X1624Y1308D02*
Y1502D01*
X1585Y1269D02*
X1624Y1308D01*
X1350Y1513D02*
X1405Y1458D01*
X803Y1097D02*
Y1130D01*
X1405Y1158D02*
Y1458D01*
X803Y1097D02*
X895Y1005D01*
Y955D02*
Y1005D01*
X344Y893D02*
X362Y911D01*
X324Y1051D02*
X362Y1013D01*
Y911D02*
Y1013D01*
X2216Y947D02*
X2268D01*
X2281Y960D01*
Y992D01*
X2191Y972D02*
X2216Y947D01*
X1990Y1117D02*
X2126D01*
X2191Y1052D01*
Y972D02*
Y1052D01*
X1876Y1003D02*
X1990Y1117D01*
X1262Y1038D02*
X1361Y939D01*
X751Y1197D02*
X954D01*
X1113Y1038D01*
X1262D01*
D31*
X1849Y1524D02*
D03*
X1136Y1149D02*
D03*
D32*
X413Y1102D02*
D03*
Y1023D02*
D03*
D33*
Y944D02*
D03*
D34*
X1990Y1317D02*
D03*
Y1217D02*
D03*
Y1117D02*
D03*
X1890Y1217D02*
D03*
Y1117D02*
D03*
D35*
Y1317D02*
D03*
D36*
X2231Y1442D02*
D03*
X2281D02*
D03*
X2231Y1392D02*
D03*
X2281D02*
D03*
X2231Y1342D02*
D03*
X2281D02*
D03*
X2231Y1192D02*
D03*
X2281D02*
D03*
X2231Y1142D02*
D03*
Y1092D02*
D03*
X2281D02*
D03*
X2231Y1042D02*
D03*
X2281D02*
D03*
X2231Y992D02*
D03*
X895Y905D02*
D03*
X845Y955D02*
D03*
Y905D02*
D03*
X795Y955D02*
D03*
Y905D02*
D03*
X745D02*
D03*
X695Y955D02*
D03*
Y905D02*
D03*
D37*
X2281Y992D02*
D03*
D38*
X895Y955D02*
D03*
D39*
X595Y992D02*
D03*
X1382Y1018D02*
D03*
X1405Y1338D02*
D03*
X1287Y1149D02*
D03*
X1170Y915D02*
D03*
X1313Y926D02*
D03*
X1583Y1052D02*
D03*
X365Y1174D02*
D03*
X441Y1300D02*
D03*
X387Y1246D02*
D03*
X421Y1375D02*
D03*
X828Y1441D02*
D03*
X900Y1469D02*
D03*
X933Y1470D02*
D03*
X938Y1163D02*
D03*
Y1232D02*
D03*
X1617Y973D02*
D03*
X2092Y1283D02*
D03*
X1660Y1358D02*
D03*
X1493Y1294D02*
D03*
X1933Y865D02*
D03*
X2070Y866D02*
D03*
X1689Y958D02*
D03*
X1491Y1135D02*
D03*
X512Y1193D02*
D03*
X483Y937D02*
D03*
X576Y864D02*
D03*
X618Y1206D02*
D03*
X1178Y1353D02*
D03*
X1350Y1513D02*
D03*
X1241Y1551D02*
D03*
X1348Y1422D02*
D03*
X1786Y1352D02*
D03*
X1350Y1348D02*
D03*
X1778Y1180D02*
D03*
X2158Y1298D02*
D03*
X943Y1534D02*
D03*
X1590Y1338D02*
D03*
X1466Y1432D02*
D03*
X1645Y1523D02*
D03*
X1585Y1136D02*
D03*
X1539Y1052D02*
D03*
X1455Y1183D02*
D03*
X1345Y1073D02*
D03*
Y1133D02*
D03*
X1405Y1158D02*
D03*
X1508Y1498D02*
D03*
X1143Y1514D02*
D03*
X1819Y1070D02*
D03*
X803Y1130D02*
D03*
X860D02*
D03*
X1092Y915D02*
D03*
X285Y1564D02*
D03*
X185Y1495D02*
D03*
Y1560D02*
D03*
X203Y932D02*
D03*
X335Y967D02*
D03*
X962Y912D02*
D03*
X344Y893D02*
D03*
X525Y992D02*
D03*
X1107Y1441D02*
D03*
X1337Y1029D02*
D03*
X521Y1463D02*
D03*
X558Y1558D02*
D03*
X594Y1406D02*
D03*
X565Y938D02*
D03*
X652Y1236D02*
D03*
X665Y1343D02*
D03*
X454Y1233D02*
D03*
X1510Y971D02*
D03*
X1537Y1390D02*
D03*
X1940Y1370D02*
D03*
X1260Y896D02*
D03*
X1970Y1521D02*
D03*
X1585Y1270D02*
D03*
X2158Y947D02*
D03*
X2156Y1020D02*
D03*
X1209Y895D02*
D03*
X1261Y939D02*
D03*
X1868Y903D02*
D03*
X2189Y910D02*
D03*
X1758Y960D02*
D03*
X1467Y908D02*
D03*
X1694Y1041D02*
D03*
X1627Y1188D02*
D03*
X1167Y1271D02*
D03*
X1214Y1248D02*
D03*
M02*
