M48
;Layer_Color=9474304
;FILE_FORMAT=2:4
INCH
;TYPE=PLATED
T1F00S00C0.0130
T2F00S00C0.0236
T3F00S00C0.0315
T4F00S00C0.0354
%
T01
X002027Y009323
X003350Y009670
X003440Y008930
X004830Y009370
X005650Y009380
X005950Y009920
X005250
X005760Y008640
X006180Y012060
X006520Y012360
X006650Y013430
X005940Y014060
X005210Y014630
X005580Y015580
X004210Y013750
X004410Y013000
X004540Y012330
X003870Y012460
X003650Y011740
X005120Y011930
X008030Y011300
X008605
X009380Y011630
Y012320
X009330Y014700
X009000Y014690
X008280Y014410
X009430Y015340
X011430Y015140
X011070Y014410
X011780Y013530
X011670Y012710
X012140Y012480
X012870Y011490
X013450Y011330
Y010730
X013370Y010290
X013820Y010180
X013130Y009260
X012610Y009390
X012600Y008960
X012090Y008950
X011700Y009150
X010920
X009620Y009120
X014670Y009080
X015100Y009710
X015390Y010520
X014910Y011350
X014550Y011830
X014050Y011580
X014048Y013379
X013500Y013480
X013480Y014220
X013500Y015130
X012410Y015510
X015080Y014980
X014660Y014320
X015370Y013900
X014930Y012940
X001850Y014950
Y015600
X016450Y015230
X016600Y013580
X015900Y013380
X015850Y012700
X016270Y011880
X015850Y011364
X015830Y010520
X016170Y009730
X016890Y009580
X017580Y009600
X016940Y010410
X018190Y010700
X017780Y011800
X017860Y013520
X019400Y013700
X019700Y015210
X020920Y012830
X021580Y012980
X021560Y010200
X021585Y009465
X021890Y009100
X020700Y008660
X019330Y008650
X018680Y009030
X002850Y015640
T02
X006950Y009050
X007450
X007950
X008450
X008950
Y009550
X008450
X007950
X006950
X022306Y009924
Y010424
Y010924
Y011424
Y011924
X022806
Y010924
Y010424
Y009924
Y013424
Y013924
Y014424
X022306
Y013924
Y013424
T03
X004130Y009443
Y010230
Y011017
T04
X011360Y011490
X018900Y011174
X019900
Y012174
Y013174
X018900
Y012174
X018490Y015240
M30
