G04 Layer_Physical_Order=2*
G04 Layer_Color=16711680*
%FSLAX23Y23*%
%MOIN*%
G70*
G01*
G75*
%ADD25C,0.010*%
%ADD28C,0.055*%
%ADD29C,0.047*%
%ADD30R,0.047X0.047*%
%ADD31O,0.062X0.055*%
%ADD32R,0.062X0.055*%
%ADD33C,0.039*%
%ADD34R,0.039X0.039*%
%ADD35R,0.039X0.039*%
%ADD36C,0.028*%
%ADD37C,0.027*%
%ADD38C,0.031*%
G36*
X2349Y853D02*
X1841D01*
X1839Y858D01*
X1865Y884D01*
X1868Y883D01*
X1876Y885D01*
X1882Y889D01*
X1886Y895D01*
X1888Y903D01*
X1886Y911D01*
X1882Y917D01*
X1882Y918D01*
X1884Y922D01*
X2093D01*
X2107Y908D01*
X2106Y905D01*
X2108Y897D01*
X2112Y891D01*
X2118Y887D01*
X2126Y885D01*
X2134Y887D01*
X2140Y891D01*
X2144Y897D01*
X2146Y905D01*
X2144Y913D01*
X2140Y919D01*
X2134Y923D01*
X2126Y925D01*
X2123Y924D01*
X2106Y941D01*
X2102Y943D01*
X2098Y944D01*
X1857D01*
X1857Y944D01*
X1853Y943D01*
X1849Y941D01*
X1849Y941D01*
X1796Y888D01*
X1328D01*
X1280Y936D01*
X1281Y939D01*
X1279Y947D01*
X1275Y953D01*
X1269Y957D01*
X1261Y959D01*
X1253Y957D01*
X1247Y953D01*
X1243Y947D01*
X1241Y939D01*
X1243Y931D01*
X1247Y925D01*
X1253Y921D01*
X1256Y920D01*
Y915D01*
X1252Y914D01*
X1246Y910D01*
X1242Y904D01*
X1240Y896D01*
X1242Y888D01*
X1246Y882D01*
X1252Y878D01*
X1260Y876D01*
X1261Y876D01*
X1280Y858D01*
X1277Y853D01*
X164D01*
Y1579D01*
X2349D01*
Y853D01*
D02*
G37*
%LPC*%
G36*
X1927Y1351D02*
X1853D01*
Y1296D01*
X1823Y1266D01*
X1821Y1263D01*
X1820Y1258D01*
Y1173D01*
X1817Y1171D01*
X1813Y1165D01*
X1811Y1157D01*
X1813Y1149D01*
X1817Y1143D01*
X1823Y1139D01*
X1831Y1137D01*
X1839Y1139D01*
X1845Y1143D01*
X1849Y1149D01*
X1851Y1157D01*
X1849Y1165D01*
X1845Y1171D01*
X1842Y1173D01*
Y1254D01*
X1872Y1284D01*
X1927D01*
Y1351D01*
D02*
G37*
G36*
X1136Y1183D02*
X1127Y1182D01*
X1119Y1178D01*
X1112Y1173D01*
X1107Y1166D01*
X1103Y1158D01*
X1102Y1149D01*
X1103Y1140D01*
X1107Y1132D01*
X1112Y1125D01*
X1119Y1120D01*
X1127Y1116D01*
X1136Y1115D01*
X1145Y1116D01*
X1153Y1120D01*
X1160Y1125D01*
X1165Y1132D01*
X1169Y1140D01*
X1170Y1149D01*
X1169Y1158D01*
X1165Y1166D01*
X1160Y1173D01*
X1153Y1178D01*
X1145Y1182D01*
X1136Y1183D01*
D02*
G37*
G36*
X2286Y1118D02*
Y1097D01*
X2306D01*
X2306Y1099D01*
X2303Y1105D01*
X2299Y1111D01*
X2294Y1115D01*
X2287Y1117D01*
X2286Y1118D01*
D02*
G37*
G36*
X413Y1198D02*
X405Y1197D01*
X398Y1194D01*
X392Y1189D01*
X387Y1183D01*
X384Y1175D01*
X383Y1168D01*
X384Y1160D01*
X387Y1153D01*
X392Y1147D01*
X398Y1142D01*
X405Y1139D01*
X413Y1138D01*
X421Y1139D01*
X428Y1142D01*
X434Y1147D01*
X439Y1153D01*
X442Y1160D01*
X443Y1168D01*
X442Y1175D01*
X439Y1183D01*
X434Y1189D01*
X428Y1194D01*
X421Y1197D01*
X413Y1198D01*
D02*
G37*
G36*
X1985Y1312D02*
X1953D01*
X1954Y1309D01*
X1957Y1300D01*
X1963Y1293D01*
X1970Y1288D01*
X1978Y1285D01*
X1985Y1284D01*
Y1312D01*
D02*
G37*
G36*
X1107Y1461D02*
X1099Y1459D01*
X1093Y1455D01*
X1089Y1449D01*
X1087Y1441D01*
X1089Y1433D01*
X1093Y1427D01*
X1096Y1425D01*
Y1331D01*
X1097Y1327D01*
X1099Y1323D01*
X1148Y1274D01*
X1147Y1271D01*
X1149Y1263D01*
X1153Y1257D01*
X1159Y1253D01*
X1167Y1251D01*
X1175Y1253D01*
X1181Y1257D01*
X1185Y1263D01*
X1187Y1271D01*
X1185Y1279D01*
X1181Y1285D01*
X1175Y1289D01*
X1167Y1291D01*
X1164Y1290D01*
X1118Y1336D01*
Y1425D01*
X1121Y1427D01*
X1125Y1433D01*
X1127Y1441D01*
X1125Y1449D01*
X1121Y1455D01*
X1115Y1459D01*
X1107Y1461D01*
D02*
G37*
G36*
X841Y1460D02*
X833Y1458D01*
X827Y1454D01*
X823Y1448D01*
X821Y1440D01*
X823Y1432D01*
X827Y1426D01*
X833Y1422D01*
X841Y1420D01*
X844Y1421D01*
X919Y1346D01*
X923Y1344D01*
X927Y1343D01*
X927Y1343D01*
X1003D01*
X1129Y1217D01*
X1129Y1217D01*
X1133Y1215D01*
X1137Y1214D01*
X1191D01*
X1195Y1215D01*
X1199Y1217D01*
X1211Y1229D01*
X1214Y1228D01*
X1222Y1230D01*
X1228Y1234D01*
X1232Y1240D01*
X1234Y1248D01*
X1232Y1256D01*
X1228Y1262D01*
X1222Y1266D01*
X1214Y1268D01*
X1206Y1266D01*
X1200Y1262D01*
X1196Y1256D01*
X1194Y1248D01*
X1195Y1245D01*
X1186Y1236D01*
X1142D01*
X1016Y1362D01*
X1012Y1364D01*
X1008Y1365D01*
X932D01*
X860Y1437D01*
X861Y1440D01*
X859Y1448D01*
X855Y1454D01*
X849Y1458D01*
X841Y1460D01*
D02*
G37*
G36*
X700Y980D02*
Y960D01*
X720D01*
X720Y962D01*
X717Y968D01*
X713Y973D01*
X708Y977D01*
X702Y980D01*
X700Y980D01*
D02*
G37*
G36*
X690D02*
X688Y980D01*
X682Y977D01*
X677Y973D01*
X673Y968D01*
X670Y962D01*
X670Y960D01*
X690D01*
Y980D01*
D02*
G37*
G36*
X860Y1150D02*
X853Y1148D01*
X846Y1144D01*
X842Y1138D01*
X841Y1130D01*
X842Y1122D01*
X846Y1116D01*
X853Y1112D01*
X860Y1110D01*
X867Y1111D01*
X951Y1027D01*
Y928D01*
X948Y926D01*
X944Y920D01*
X942Y912D01*
X944Y904D01*
X948Y898D01*
X954Y894D01*
X962Y892D01*
X970Y894D01*
X976Y898D01*
X980Y904D01*
X982Y912D01*
X980Y920D01*
X976Y926D01*
X973Y928D01*
Y1032D01*
X972Y1036D01*
X970Y1040D01*
X880Y1129D01*
X880Y1130D01*
X879Y1138D01*
X875Y1144D01*
X868Y1148D01*
X860Y1150D01*
D02*
G37*
G36*
X790Y980D02*
X788Y980D01*
X782Y977D01*
X777Y973D01*
X773Y968D01*
X770Y962D01*
X770Y960D01*
X790D01*
Y980D01*
D02*
G37*
G36*
X1350Y1533D02*
X1342Y1531D01*
X1336Y1527D01*
X1332Y1521D01*
X1330Y1513D01*
X1332Y1505D01*
X1336Y1499D01*
X1342Y1495D01*
X1350Y1493D01*
X1353Y1494D01*
X1394Y1453D01*
Y1371D01*
X1391Y1369D01*
X1387Y1363D01*
X1385Y1355D01*
X1387Y1347D01*
X1391Y1341D01*
X1394Y1339D01*
Y1174D01*
X1391Y1172D01*
X1387Y1166D01*
X1385Y1158D01*
X1387Y1150D01*
X1391Y1144D01*
X1394Y1142D01*
Y1046D01*
X1385Y1037D01*
X1382Y1038D01*
X1374Y1036D01*
X1368Y1032D01*
X1364Y1026D01*
X1362Y1018D01*
X1364Y1010D01*
X1368Y1004D01*
X1374Y1000D01*
X1382Y998D01*
X1390Y1000D01*
X1396Y1004D01*
X1400Y1010D01*
X1402Y1018D01*
X1401Y1021D01*
X1413Y1033D01*
X1415Y1037D01*
X1416Y1041D01*
Y1142D01*
X1419Y1144D01*
X1423Y1150D01*
X1425Y1158D01*
X1423Y1166D01*
X1419Y1172D01*
X1416Y1174D01*
Y1339D01*
X1419Y1341D01*
X1423Y1347D01*
X1425Y1355D01*
X1423Y1363D01*
X1419Y1369D01*
X1416Y1371D01*
Y1458D01*
X1415Y1462D01*
X1413Y1466D01*
X1413Y1466D01*
X1369Y1510D01*
X1370Y1513D01*
X1368Y1521D01*
X1364Y1527D01*
X1358Y1531D01*
X1350Y1533D01*
D02*
G37*
G36*
X443Y1040D02*
X383D01*
Y981D01*
X443D01*
Y1040D01*
D02*
G37*
G36*
X803Y1150D02*
X795Y1148D01*
X789Y1144D01*
X785Y1138D01*
X783Y1130D01*
X785Y1122D01*
X789Y1116D01*
X792Y1114D01*
Y1097D01*
X793Y1093D01*
X795Y1089D01*
X884Y1000D01*
Y981D01*
X869D01*
Y974D01*
X864Y972D01*
X863Y973D01*
X858Y977D01*
X852Y980D01*
X850Y980D01*
Y955D01*
X840D01*
Y980D01*
X838Y980D01*
X832Y977D01*
X827Y973D01*
X823Y968D01*
X820Y968D01*
X820D01*
X817Y968D01*
X813Y973D01*
X808Y977D01*
X802Y980D01*
X800Y980D01*
Y955D01*
X795D01*
Y950D01*
X770D01*
X770Y948D01*
X773Y942D01*
X777Y937D01*
X782Y933D01*
X782Y930D01*
Y930D01*
X782Y927D01*
X777Y923D01*
X773Y918D01*
X770Y918D01*
X770D01*
X767Y918D01*
X763Y923D01*
X758Y927D01*
X752Y930D01*
X745Y931D01*
X738Y930D01*
X732Y927D01*
X727Y923D01*
X723Y918D01*
X720Y918D01*
X720D01*
X717Y918D01*
X713Y923D01*
X708Y927D01*
X708Y930D01*
Y930D01*
X708Y933D01*
X713Y937D01*
X717Y942D01*
X720Y948D01*
X720Y950D01*
X670D01*
X670Y948D01*
X673Y942D01*
X677Y937D01*
X682Y933D01*
X682Y930D01*
Y930D01*
X682Y927D01*
X677Y923D01*
X673Y918D01*
X670Y912D01*
X669Y905D01*
X670Y898D01*
X673Y892D01*
X677Y887D01*
X682Y883D01*
X684Y882D01*
Y876D01*
X685Y872D01*
X687Y868D01*
X694Y861D01*
X698Y859D01*
X702Y858D01*
X1183D01*
X1187Y859D01*
X1191Y861D01*
X1206Y876D01*
X1209Y875D01*
X1217Y877D01*
X1223Y881D01*
X1227Y887D01*
X1229Y895D01*
X1227Y903D01*
X1223Y909D01*
X1217Y913D01*
X1209Y915D01*
X1201Y913D01*
X1195Y909D01*
X1191Y903D01*
X1189Y895D01*
X1190Y892D01*
X1178Y880D01*
X913D01*
X911Y885D01*
X913Y887D01*
X917Y892D01*
X920Y898D01*
X921Y905D01*
X920Y912D01*
X917Y918D01*
X913Y923D01*
X912Y924D01*
X914Y929D01*
X921D01*
Y981D01*
X906D01*
Y1005D01*
X905Y1009D01*
X903Y1013D01*
X903Y1013D01*
X814Y1102D01*
Y1114D01*
X817Y1116D01*
X821Y1122D01*
X823Y1130D01*
X821Y1138D01*
X817Y1144D01*
X811Y1148D01*
X803Y1150D01*
D02*
G37*
G36*
X1844Y1519D02*
X1816D01*
X1816Y1515D01*
X1820Y1507D01*
X1825Y1500D01*
X1832Y1495D01*
X1840Y1491D01*
X1844Y1491D01*
Y1519D01*
D02*
G37*
G36*
X875Y1566D02*
X265D01*
X261Y1565D01*
X257Y1563D01*
X257Y1563D01*
X180Y1486D01*
X178Y1482D01*
X177Y1478D01*
Y895D01*
X176Y895D01*
X172Y888D01*
X171Y881D01*
X172Y873D01*
X176Y867D01*
X183Y862D01*
X190Y861D01*
X198Y862D01*
X204Y867D01*
X209Y873D01*
X210Y881D01*
X209Y888D01*
X204Y895D01*
X199Y898D01*
Y1016D01*
X204Y1017D01*
X206Y1014D01*
X213Y1009D01*
X220Y1008D01*
X228Y1009D01*
X234Y1014D01*
X239Y1020D01*
X240Y1028D01*
X239Y1035D01*
X234Y1042D01*
X229Y1045D01*
Y1070D01*
X228Y1074D01*
X226Y1078D01*
X215Y1089D01*
Y1111D01*
X220Y1113D01*
X221Y1111D01*
X281Y1051D01*
Y1042D01*
X281Y1042D01*
X276Y1035D01*
X275Y1028D01*
X276Y1020D01*
X281Y1014D01*
X287Y1009D01*
X295Y1008D01*
X302Y1009D01*
X309Y1014D01*
X313Y1020D01*
X315Y1028D01*
X313Y1035D01*
X309Y1042D01*
X304Y1045D01*
Y1056D01*
X303Y1060D01*
X300Y1063D01*
X240Y1124D01*
Y1277D01*
X300Y1337D01*
X402D01*
X403Y1335D01*
X409Y1331D01*
X417Y1329D01*
X425Y1331D01*
X431Y1335D01*
X432Y1337D01*
X535D01*
X633Y1239D01*
X632Y1236D01*
X634Y1228D01*
X638Y1222D01*
X644Y1218D01*
X652Y1216D01*
X660Y1218D01*
X666Y1222D01*
X670Y1228D01*
X672Y1236D01*
X670Y1244D01*
X666Y1250D01*
X660Y1254D01*
X652Y1256D01*
X649Y1255D01*
X548Y1356D01*
X544Y1358D01*
X540Y1359D01*
X434D01*
X431Y1363D01*
X425Y1367D01*
X417Y1369D01*
X409Y1367D01*
X403Y1363D01*
X400Y1359D01*
X295D01*
X291Y1358D01*
X287Y1356D01*
X221Y1290D01*
X220Y1288D01*
X215Y1290D01*
Y1462D01*
X281Y1528D01*
X859D01*
X889Y1498D01*
Y1485D01*
X886Y1483D01*
X882Y1477D01*
X880Y1469D01*
X882Y1461D01*
X886Y1455D01*
X892Y1451D01*
X900Y1449D01*
X908Y1451D01*
X914Y1455D01*
X917Y1456D01*
X919D01*
X925Y1452D01*
X933Y1450D01*
X941Y1452D01*
X947Y1456D01*
X951Y1462D01*
X953Y1470D01*
X951Y1478D01*
X947Y1484D01*
X944Y1486D01*
Y1497D01*
X943Y1501D01*
X941Y1505D01*
X883Y1563D01*
X879Y1565D01*
X875Y1566D01*
D02*
G37*
G36*
X2286Y1468D02*
Y1447D01*
X2306D01*
X2306Y1449D01*
X2303Y1455D01*
X2299Y1461D01*
X2294Y1465D01*
X2287Y1467D01*
X2286Y1468D01*
D02*
G37*
G36*
X1882Y1519D02*
X1854D01*
Y1491D01*
X1858Y1491D01*
X1866Y1495D01*
X1873Y1500D01*
X1878Y1507D01*
X1882Y1515D01*
X1882Y1519D01*
D02*
G37*
G36*
X1854Y1557D02*
Y1529D01*
X1882D01*
X1882Y1533D01*
X1878Y1541D01*
X1873Y1548D01*
X1866Y1553D01*
X1858Y1557D01*
X1854Y1557D01*
D02*
G37*
G36*
X1844D02*
X1840Y1557D01*
X1832Y1553D01*
X1825Y1548D01*
X1820Y1541D01*
X1816Y1533D01*
X1816Y1529D01*
X1844D01*
Y1557D01*
D02*
G37*
G36*
X1996Y1542D02*
X1988Y1541D01*
X1982Y1536D01*
X1977Y1530D01*
X1976Y1522D01*
X1977Y1514D01*
X1982Y1508D01*
X1988Y1503D01*
X1996Y1502D01*
X2004Y1503D01*
X2010Y1508D01*
X2015Y1514D01*
X2016Y1522D01*
X2015Y1530D01*
X2010Y1536D01*
X2004Y1541D01*
X1996Y1542D01*
D02*
G37*
G36*
X1143Y1534D02*
X1135Y1532D01*
X1129Y1528D01*
X1125Y1522D01*
X1123Y1514D01*
X1125Y1506D01*
X1129Y1500D01*
X1135Y1496D01*
X1143Y1494D01*
X1146Y1495D01*
X1272Y1369D01*
X1270Y1364D01*
X1194D01*
X1192Y1367D01*
X1186Y1371D01*
X1178Y1373D01*
X1170Y1371D01*
X1164Y1367D01*
X1160Y1361D01*
X1158Y1353D01*
X1160Y1345D01*
X1164Y1339D01*
X1170Y1335D01*
X1178Y1333D01*
X1186Y1335D01*
X1192Y1339D01*
X1194Y1342D01*
X1269D01*
X1308Y1303D01*
Y1099D01*
X1309Y1095D01*
X1311Y1091D01*
X1326Y1076D01*
X1325Y1073D01*
X1327Y1065D01*
X1331Y1059D01*
X1337Y1055D01*
X1345Y1053D01*
X1353Y1055D01*
X1359Y1059D01*
X1363Y1065D01*
X1365Y1073D01*
X1363Y1081D01*
X1359Y1087D01*
X1356Y1089D01*
Y1095D01*
X1359Y1097D01*
X1363Y1103D01*
X1365Y1111D01*
X1363Y1119D01*
X1359Y1125D01*
X1356Y1127D01*
Y1312D01*
X1355Y1316D01*
X1353Y1320D01*
X1353Y1320D01*
X1162Y1511D01*
X1163Y1514D01*
X1161Y1522D01*
X1157Y1528D01*
X1151Y1532D01*
X1143Y1534D01*
D02*
G37*
G36*
X449Y1318D02*
X441Y1316D01*
X435Y1312D01*
X433Y1309D01*
X411D01*
X407Y1308D01*
X403Y1306D01*
X403Y1306D01*
X396Y1299D01*
X393Y1300D01*
X385Y1298D01*
X379Y1294D01*
X375Y1288D01*
X373Y1280D01*
X375Y1272D01*
X379Y1266D01*
X385Y1262D01*
X393Y1260D01*
X401Y1262D01*
X407Y1266D01*
X411Y1272D01*
X413Y1280D01*
X412Y1283D01*
X416Y1287D01*
X433D01*
X435Y1284D01*
X441Y1280D01*
X449Y1278D01*
X457Y1280D01*
X463Y1284D01*
X467Y1290D01*
X469Y1298D01*
X467Y1306D01*
X463Y1312D01*
X457Y1316D01*
X449Y1318D01*
D02*
G37*
G36*
X1618Y1520D02*
X1610Y1518D01*
X1604Y1514D01*
X1600Y1508D01*
X1598Y1500D01*
X1600Y1492D01*
X1604Y1486D01*
X1607Y1484D01*
Y1308D01*
X1588Y1289D01*
X1585Y1290D01*
X1577Y1288D01*
X1571Y1284D01*
X1567Y1278D01*
X1565Y1270D01*
X1567Y1262D01*
X1571Y1256D01*
X1574Y1254D01*
Y1152D01*
X1571Y1150D01*
X1567Y1144D01*
X1565Y1136D01*
X1567Y1129D01*
X1571Y1122D01*
X1574Y1120D01*
Y1051D01*
X1559Y1036D01*
X1557Y1032D01*
X1556Y1028D01*
Y1021D01*
X1553Y1019D01*
X1549Y1013D01*
X1547Y1005D01*
X1549Y997D01*
X1553Y991D01*
X1553Y991D01*
X1554Y985D01*
X1519Y950D01*
X1366D01*
X1270Y1046D01*
X1266Y1048D01*
X1262Y1049D01*
X1118D01*
X962Y1205D01*
X958Y1207D01*
X954Y1208D01*
X751D01*
X747Y1207D01*
X743Y1205D01*
X677Y1139D01*
X516D01*
X512Y1138D01*
X508Y1136D01*
X472Y1100D01*
X440D01*
X439Y1104D01*
X434Y1110D01*
X428Y1115D01*
X421Y1118D01*
X413Y1119D01*
X405Y1118D01*
X398Y1115D01*
X392Y1110D01*
X387Y1104D01*
X384Y1097D01*
X383Y1089D01*
X384Y1081D01*
X387Y1074D01*
X392Y1068D01*
X398Y1063D01*
X405Y1060D01*
X413Y1059D01*
X421Y1060D01*
X428Y1063D01*
X434Y1068D01*
X439Y1074D01*
X440Y1078D01*
X477D01*
X481Y1079D01*
X485Y1081D01*
X521Y1117D01*
X682D01*
X686Y1118D01*
X690Y1120D01*
X756Y1186D01*
X949D01*
X1105Y1030D01*
X1105Y1030D01*
X1109Y1028D01*
X1113Y1027D01*
X1257D01*
X1353Y931D01*
X1353Y931D01*
X1357Y929D01*
X1361Y928D01*
X1524D01*
X1528Y929D01*
X1532Y931D01*
X1575Y974D01*
X1577Y978D01*
X1578Y982D01*
Y989D01*
X1581Y991D01*
X1582Y992D01*
X1849D01*
X1853Y993D01*
X1857Y995D01*
X1957Y1095D01*
X1962Y1095D01*
X1963Y1093D01*
X1970Y1088D01*
X1978Y1085D01*
X1987Y1084D01*
X1993D01*
X2002Y1085D01*
X2010Y1088D01*
X2017Y1093D01*
X2023Y1100D01*
X2024Y1103D01*
X2030Y1104D01*
X2194Y939D01*
X2198Y937D01*
X2202Y936D01*
X2202Y936D01*
X2268D01*
X2272Y937D01*
X2276Y939D01*
X2289Y952D01*
X2291Y955D01*
X2292Y960D01*
Y967D01*
X2306D01*
Y1018D01*
X2299D01*
X2298Y1023D01*
X2299Y1024D01*
X2303Y1029D01*
X2306Y1036D01*
X2306Y1037D01*
X2281D01*
Y1047D01*
X2306D01*
X2306Y1049D01*
X2303Y1055D01*
X2299Y1061D01*
X2294Y1065D01*
X2293Y1067D01*
Y1067D01*
X2294Y1070D01*
X2299Y1074D01*
X2303Y1079D01*
X2306Y1086D01*
X2306Y1087D01*
X2281D01*
Y1092D01*
X2276D01*
Y1118D01*
X2274Y1117D01*
X2268Y1115D01*
X2262Y1111D01*
X2258Y1106D01*
X2256Y1105D01*
X2256D01*
X2253Y1106D01*
X2249Y1111D01*
X2244Y1115D01*
X2243Y1117D01*
Y1117D01*
X2244Y1120D01*
X2249Y1124D01*
X2253Y1129D01*
X2256Y1136D01*
X2257Y1142D01*
X2256Y1149D01*
X2253Y1155D01*
X2249Y1161D01*
X2244Y1165D01*
X2243Y1167D01*
Y1167D01*
X2244Y1170D01*
X2249Y1174D01*
X2253Y1179D01*
X2256Y1180D01*
X2256D01*
X2258Y1179D01*
X2262Y1174D01*
X2268Y1170D01*
X2274Y1167D01*
X2281Y1166D01*
X2287Y1167D01*
X2294Y1170D01*
X2299Y1174D01*
X2303Y1179D01*
X2306Y1186D01*
X2307Y1192D01*
X2306Y1199D01*
X2303Y1205D01*
X2299Y1211D01*
X2294Y1215D01*
X2287Y1217D01*
X2281Y1218D01*
X2274Y1217D01*
X2268Y1215D01*
X2262Y1211D01*
X2258Y1206D01*
X2256Y1205D01*
X2256D01*
X2253Y1206D01*
X2249Y1211D01*
X2244Y1215D01*
X2237Y1217D01*
X2231Y1218D01*
X2224Y1217D01*
X2218Y1215D01*
X2212Y1211D01*
X2208Y1205D01*
X2208Y1204D01*
X2139D01*
X2133Y1210D01*
X2129Y1212D01*
X2125Y1213D01*
X2031D01*
X2027Y1217D01*
X2027Y1217D01*
X2026Y1226D01*
X2023Y1234D01*
X2017Y1241D01*
X2010Y1247D01*
X2002Y1250D01*
X1993Y1251D01*
X1987D01*
X1978Y1250D01*
X1970Y1247D01*
X1963Y1241D01*
X1957Y1234D01*
X1954Y1226D01*
X1953Y1217D01*
X1954Y1209D01*
X1957Y1200D01*
X1963Y1193D01*
X1964Y1192D01*
X1963Y1187D01*
X1936D01*
X1923Y1200D01*
X1923Y1200D01*
X1926Y1209D01*
X1927Y1217D01*
X1926Y1226D01*
X1923Y1234D01*
X1917Y1241D01*
X1910Y1247D01*
X1902Y1250D01*
X1893Y1251D01*
X1887D01*
X1878Y1250D01*
X1870Y1247D01*
X1863Y1241D01*
X1857Y1234D01*
X1854Y1226D01*
X1853Y1217D01*
X1854Y1209D01*
X1857Y1200D01*
X1863Y1193D01*
X1870Y1188D01*
X1878Y1185D01*
X1887Y1184D01*
X1893D01*
X1902Y1185D01*
X1906Y1186D01*
X1921Y1171D01*
X1921Y1170D01*
X1921Y1164D01*
X1921Y1164D01*
X1906Y1149D01*
X1902Y1150D01*
X1893Y1151D01*
X1887D01*
X1878Y1150D01*
X1870Y1147D01*
X1863Y1141D01*
X1857Y1134D01*
X1854Y1126D01*
X1853Y1117D01*
X1854Y1109D01*
X1857Y1100D01*
X1863Y1093D01*
X1870Y1088D01*
X1878Y1085D01*
X1887Y1084D01*
X1893D01*
X1902Y1085D01*
X1910Y1088D01*
X1914Y1091D01*
X1918Y1087D01*
X1844Y1014D01*
X1584D01*
X1581Y1019D01*
X1581Y1019D01*
X1580Y1025D01*
X1593Y1038D01*
X1593Y1038D01*
X1595Y1042D01*
X1596Y1046D01*
Y1120D01*
X1599Y1122D01*
X1603Y1129D01*
X1605Y1136D01*
X1603Y1144D01*
X1599Y1150D01*
X1596Y1152D01*
Y1254D01*
X1599Y1256D01*
X1603Y1262D01*
X1605Y1270D01*
X1604Y1273D01*
X1626Y1295D01*
X1626Y1295D01*
X1628Y1299D01*
X1629Y1303D01*
Y1484D01*
X1632Y1486D01*
X1636Y1492D01*
X1638Y1500D01*
X1636Y1508D01*
X1632Y1514D01*
X1626Y1518D01*
X1618Y1520D01*
D02*
G37*
G36*
X2027Y1312D02*
X1995D01*
Y1284D01*
X2002Y1285D01*
X2010Y1288D01*
X2017Y1293D01*
X2023Y1300D01*
X2026Y1309D01*
X2027Y1312D01*
D02*
G37*
G36*
X2231Y1468D02*
X2224Y1467D01*
X2218Y1465D01*
X2212Y1461D01*
X2208Y1455D01*
X2206Y1449D01*
X2205Y1442D01*
X2206Y1436D01*
X2208Y1429D01*
X2212Y1424D01*
X2217Y1420D01*
X2218Y1417D01*
Y1417D01*
X2217Y1415D01*
X2212Y1411D01*
X2208Y1405D01*
X2206Y1399D01*
X2205Y1392D01*
X2206Y1386D01*
X2208Y1379D01*
X2212Y1374D01*
X2217Y1370D01*
X2218Y1367D01*
Y1367D01*
X2217Y1365D01*
X2212Y1361D01*
X2208Y1355D01*
X2206Y1349D01*
X2205Y1342D01*
X2206Y1336D01*
X2208Y1329D01*
X2212Y1324D01*
X2218Y1320D01*
X2224Y1317D01*
X2231Y1316D01*
X2237Y1317D01*
X2244Y1320D01*
X2249Y1324D01*
X2253Y1329D01*
X2256Y1330D01*
X2256D01*
X2258Y1329D01*
X2262Y1324D01*
X2268Y1320D01*
X2274Y1317D01*
X2276Y1317D01*
Y1342D01*
X2281D01*
Y1347D01*
X2306D01*
X2306Y1349D01*
X2303Y1355D01*
X2299Y1361D01*
X2294Y1365D01*
X2293Y1367D01*
Y1367D01*
X2294Y1370D01*
X2299Y1374D01*
X2303Y1379D01*
X2306Y1386D01*
X2306Y1387D01*
X2281D01*
Y1397D01*
X2306D01*
X2306Y1399D01*
X2303Y1405D01*
X2299Y1411D01*
X2294Y1415D01*
X2293Y1417D01*
Y1417D01*
X2294Y1420D01*
X2299Y1424D01*
X2303Y1429D01*
X2306Y1436D01*
X2306Y1437D01*
X2281D01*
Y1442D01*
X2276D01*
Y1468D01*
X2274Y1467D01*
X2268Y1465D01*
X2262Y1461D01*
X2258Y1456D01*
X2256Y1455D01*
X2256D01*
X2253Y1456D01*
X2249Y1461D01*
X2244Y1465D01*
X2237Y1467D01*
X2231Y1468D01*
D02*
G37*
G36*
X1995Y1351D02*
Y1322D01*
X2027D01*
X2026Y1326D01*
X2023Y1334D01*
X2017Y1341D01*
X2010Y1347D01*
X2002Y1350D01*
X1995Y1351D01*
D02*
G37*
G36*
X1985D02*
X1978Y1350D01*
X1970Y1347D01*
X1963Y1341D01*
X1957Y1334D01*
X1954Y1326D01*
X1953Y1322D01*
X1985D01*
Y1351D01*
D02*
G37*
G36*
X2306Y1337D02*
X2286D01*
Y1317D01*
X2287Y1317D01*
X2294Y1320D01*
X2299Y1324D01*
X2303Y1329D01*
X2306Y1336D01*
X2306Y1337D01*
D02*
G37*
%LPD*%
D25*
X1826Y861D02*
X1868Y903D01*
X1260Y893D02*
X1292Y861D01*
X1826D01*
X1801Y877D02*
X1857Y933D01*
X1323Y877D02*
X1801D01*
X1261Y939D02*
X1323Y877D01*
X1183Y869D02*
X1209Y895D01*
X702Y869D02*
X1183D01*
X695Y876D02*
X702Y869D01*
X204Y1467D02*
X276Y1539D01*
X204Y1084D02*
Y1467D01*
Y1084D02*
X218Y1070D01*
X188Y1478D02*
X265Y1555D01*
X188Y878D02*
Y1478D01*
X875Y1555D02*
X933Y1497D01*
X265Y1555D02*
X875D01*
X864Y1539D02*
X900Y1503D01*
X276Y1539D02*
X864D01*
X295Y1348D02*
X540D01*
X229Y1282D02*
X295Y1348D01*
X229Y1119D02*
Y1282D01*
X292Y1028D02*
Y1056D01*
X229Y1119D02*
X292Y1056D01*
X218Y1028D02*
Y1070D01*
X927Y1354D02*
X1008D01*
X841Y1440D02*
X927Y1354D01*
X2152Y1092D02*
X2231D01*
X2198Y992D02*
X2231D01*
X1405Y1041D02*
Y1158D01*
X1382Y1018D02*
X1405Y1041D01*
X1319Y1099D02*
Y1308D01*
X1274Y1353D02*
X1319Y1308D01*
X1178Y1353D02*
X1274D01*
X1143Y1514D02*
X1345Y1312D01*
X1319Y1099D02*
X1345Y1073D01*
X682Y1128D02*
X751Y1197D01*
X1585Y1136D02*
Y1269D01*
X1350Y1513D02*
X1405Y1458D01*
X803Y1097D02*
Y1130D01*
X2230Y1193D02*
X2231Y1192D01*
X1405Y1158D02*
Y1458D01*
X803Y1097D02*
X895Y1005D01*
Y955D02*
Y1005D01*
X962Y912D02*
Y1032D01*
X859Y1135D02*
X962Y1032D01*
X1260Y893D02*
Y896D01*
X2268Y947D02*
X2281Y960D01*
Y992D01*
X1008Y1354D02*
X1137Y1225D01*
X1191D01*
X1214Y1248D01*
X1107Y1331D02*
Y1441D01*
Y1331D02*
X1167Y1271D01*
X1262Y1038D02*
X1361Y939D01*
X751Y1197D02*
X954D01*
X1113Y1038D01*
X1262D01*
X1857Y933D02*
X2098D01*
X2126Y905D01*
X1345Y1111D02*
Y1312D01*
X1569Y1003D02*
X1849D01*
X1963Y1117D01*
X1990D01*
X2160Y1142D02*
X2231D01*
X2113Y1131D02*
X2152Y1092D01*
X2076Y1114D02*
Y1131D01*
Y1114D02*
X2198Y992D01*
X1990Y1117D02*
X2032D01*
X2202Y947D01*
X2268D01*
X2155Y1147D02*
X2160Y1142D01*
X2134Y1193D02*
X2230D01*
X2144Y1148D02*
X2150D01*
X1890Y1117D02*
X1931Y1158D01*
X1890Y1217D02*
X1931Y1176D01*
X1931Y1158D02*
X2086D01*
X2113Y1131D01*
X1931Y1176D02*
X2116D01*
X2144Y1148D01*
X1990Y1217D02*
X2005Y1202D01*
X2125D01*
X2134Y1193D01*
X1831Y1157D02*
Y1258D01*
X1890Y1317D01*
X1567Y982D02*
Y1005D01*
X1524Y939D02*
X1567Y982D01*
X1361Y939D02*
X1524D01*
X1567Y1005D02*
X1569Y1003D01*
X1567Y1005D02*
Y1028D01*
X1585Y1046D01*
Y1136D01*
X1618Y1303D02*
Y1500D01*
X1585Y1270D02*
X1618Y1303D01*
X540Y1348D02*
X652Y1236D01*
X477Y1089D02*
X516Y1128D01*
X413Y1089D02*
X477D01*
X516Y1128D02*
X682D01*
X933Y1470D02*
Y1497D01*
X900Y1469D02*
Y1503D01*
X393Y1280D02*
X411Y1298D01*
X449D01*
X695Y876D02*
Y905D01*
D28*
X1849Y1524D02*
D03*
X1136Y1149D02*
D03*
D29*
X413Y1168D02*
D03*
Y1089D02*
D03*
D30*
Y1010D02*
D03*
D31*
X1990Y1317D02*
D03*
Y1217D02*
D03*
Y1117D02*
D03*
X1890Y1217D02*
D03*
Y1117D02*
D03*
D32*
Y1317D02*
D03*
D33*
X2231Y1442D02*
D03*
X2281D02*
D03*
X2231Y1392D02*
D03*
X2281D02*
D03*
X2231Y1342D02*
D03*
X2281D02*
D03*
X2231Y1192D02*
D03*
X2281D02*
D03*
X2231Y1142D02*
D03*
Y1092D02*
D03*
X2281D02*
D03*
X2231Y1042D02*
D03*
X2281D02*
D03*
X2231Y992D02*
D03*
X895Y905D02*
D03*
X845Y955D02*
D03*
Y905D02*
D03*
X795Y955D02*
D03*
Y905D02*
D03*
X745D02*
D03*
X695Y955D02*
D03*
Y905D02*
D03*
D34*
X2281Y992D02*
D03*
D35*
X895Y955D02*
D03*
D36*
X1996Y1522D02*
D03*
D37*
X267Y1256D02*
D03*
Y1166D02*
D03*
X220Y1028D02*
D03*
X994Y1473D02*
D03*
X841Y1440D02*
D03*
X1405Y1355D02*
D03*
X295Y1028D02*
D03*
X2241Y1556D02*
D03*
X2147Y1485D02*
D03*
X1834Y1412D02*
D03*
X2080Y1395D02*
D03*
X2008Y1414D02*
D03*
X2113Y1131D02*
D03*
X2018Y1069D02*
D03*
X2292Y1261D02*
D03*
X2114Y1367D02*
D03*
X595Y992D02*
D03*
X1382Y1018D02*
D03*
X1289Y1147D02*
D03*
X1170Y915D02*
D03*
X1300Y942D02*
D03*
X900Y1469D02*
D03*
X933Y1470D02*
D03*
X938Y1163D02*
D03*
Y1232D02*
D03*
X1660Y1358D02*
D03*
X1493Y1292D02*
D03*
X1933Y868D02*
D03*
X2070D02*
D03*
X510Y1223D02*
D03*
X483Y937D02*
D03*
X579Y869D02*
D03*
X1178Y1353D02*
D03*
X1350Y1513D02*
D03*
X1288Y1555D02*
D03*
X1348Y1422D02*
D03*
X1774Y1351D02*
D03*
X1350Y1348D02*
D03*
X1779Y1187D02*
D03*
X943Y1534D02*
D03*
X1590Y1338D02*
D03*
X1466Y1432D02*
D03*
X1585Y1136D02*
D03*
X1539Y1052D02*
D03*
X1455Y1183D02*
D03*
X1345Y1073D02*
D03*
X1405Y1158D02*
D03*
X1508Y1498D02*
D03*
X1143Y1514D02*
D03*
X1819Y1070D02*
D03*
X803Y1130D02*
D03*
X860D02*
D03*
X1092Y915D02*
D03*
X318Y1501D02*
D03*
X962Y912D02*
D03*
X1107Y1441D02*
D03*
X1337Y1029D02*
D03*
X523Y1453D02*
D03*
X637Y1373D02*
D03*
X565Y938D02*
D03*
X652Y1236D02*
D03*
X1510Y971D02*
D03*
X1537Y1390D02*
D03*
X1260Y896D02*
D03*
X1585Y1270D02*
D03*
X1209Y895D02*
D03*
X1261Y939D02*
D03*
X1868Y903D02*
D03*
X2223Y906D02*
D03*
X1769Y974D02*
D03*
X1467Y907D02*
D03*
X1684Y1032D02*
D03*
X1627Y1188D02*
D03*
X1167Y1271D02*
D03*
X1214Y1248D02*
D03*
X750Y1379D02*
D03*
X668Y1341D02*
D03*
X2126Y905D02*
D03*
X720Y1072D02*
D03*
X1021Y1008D02*
D03*
X1345Y1111D02*
D03*
X1374Y1137D02*
D03*
X1491Y1132D02*
D03*
X257Y1028D02*
D03*
X1958Y1069D02*
D03*
X2043Y1241D02*
D03*
X2182Y1239D02*
D03*
X2076Y1131D02*
D03*
X2150Y1148D02*
D03*
X1831Y1157D02*
D03*
X1751Y1277D02*
D03*
X1567Y1005D02*
D03*
X1770Y1033D02*
D03*
X1618Y1500D02*
D03*
X621Y1188D02*
D03*
X417Y1349D02*
D03*
X449Y1298D02*
D03*
X1201Y1524D02*
D03*
X365Y1131D02*
D03*
X523Y1012D02*
D03*
X294Y1383D02*
D03*
X190Y881D02*
D03*
X818Y1512D02*
D03*
X393Y1280D02*
D03*
D38*
X269Y938D02*
D03*
X246D02*
D03*
M02*
