G04 Layer_Physical_Order=1*
G04 Layer_Color=255*
%FSLAX23Y23*%
%MOIN*%
G70*
G01*
G75*
%ADD10R,0.043X0.039*%
%ADD11R,0.057X0.022*%
%ADD12R,0.039X0.043*%
%ADD13R,0.051X0.059*%
%ADD14R,0.039X0.067*%
%ADD15R,0.031X0.047*%
%ADD16R,0.047X0.055*%
%ADD17O,0.012X0.071*%
%ADD18O,0.071X0.012*%
%ADD19R,0.075X0.094*%
%ADD20R,0.075X0.046*%
%ADD21R,0.054X0.018*%
%ADD22R,0.083X0.058*%
%ADD23R,0.033X0.016*%
%ADD24O,0.041X0.016*%
%ADD25C,0.020*%
%ADD26C,0.016*%
%ADD27C,0.012*%
%ADD28C,0.047*%
%ADD29R,0.047X0.047*%
%ADD30R,0.039X0.039*%
%ADD31C,0.039*%
%ADD32R,0.039X0.039*%
%ADD33C,0.062*%
%ADD34R,0.062X0.062*%
%ADD35C,0.059*%
%ADD36C,0.027*%
%ADD37C,0.030*%
G36*
X364Y1400D02*
Y1295D01*
X352Y1283D01*
X348Y1285D01*
Y1305D01*
X300D01*
Y1310D01*
X295D01*
Y1345D01*
X253D01*
Y1380D01*
X215D01*
Y1328D01*
X210D01*
Y1323D01*
X166D01*
Y1275D01*
Y1251D01*
X253D01*
Y1275D01*
X281D01*
Y1249D01*
Y1224D01*
Y1198D01*
Y1151D01*
X253D01*
Y1175D01*
X166D01*
Y1151D01*
Y1103D01*
X210D01*
Y1098D01*
X215D01*
Y1046D01*
X253D01*
Y1081D01*
X295D01*
Y1116D01*
X300D01*
Y1121D01*
X348D01*
Y1149D01*
X361D01*
X362Y1149D01*
X363D01*
X363Y1148D01*
X364Y1148D01*
X364Y1148D01*
X365Y1148D01*
X365Y1147D01*
X366Y1147D01*
X366Y1146D01*
X366Y1146D01*
X367Y1145D01*
X367Y1145D01*
Y1144D01*
X367Y1143D01*
Y1026D01*
X367Y1025D01*
Y1025D01*
X367Y1024D01*
X366Y1023D01*
X366Y1023D01*
X364Y1021D01*
X364D01*
X364Y1021D01*
X363Y1021D01*
X363Y1020D01*
X362D01*
X361Y1020D01*
X161D01*
Y1396D01*
X165Y1400D01*
X364Y1400D01*
D02*
G37*
G36*
X1259Y1216D02*
Y1209D01*
X1250D01*
Y1157D01*
X1305D01*
Y1209D01*
X1309Y1211D01*
X1313D01*
X1317Y1209D01*
X1317Y1206D01*
Y1188D01*
X1372D01*
Y1206D01*
X1372Y1209D01*
X1376Y1211D01*
X1480D01*
X1480Y1211D01*
X1484Y1207D01*
Y1188D01*
X1507D01*
Y1209D01*
X1489D01*
X1487Y1214D01*
X1488Y1214D01*
X1509Y1235D01*
X1509Y1235D01*
X1511Y1238D01*
X1512Y1240D01*
X1517Y1240D01*
Y1230D01*
X1549D01*
X1565Y1214D01*
X1563Y1209D01*
X1551D01*
Y1157D01*
X1576D01*
Y1152D01*
X1575Y1152D01*
X1574Y1151D01*
X1533D01*
X1533Y1150D01*
X1517D01*
Y1123D01*
X1509D01*
X1509Y1123D01*
X1504Y1122D01*
X1500Y1119D01*
X1489Y1108D01*
X1486Y1104D01*
X1486Y1100D01*
X1486Y1100D01*
Y1095D01*
X1478Y1087D01*
X1473Y1089D01*
Y1106D01*
X1428D01*
Y1097D01*
X1403D01*
X1366Y1134D01*
X1365Y1141D01*
X1360Y1148D01*
X1354Y1152D01*
X1354Y1155D01*
X1355Y1157D01*
X1372D01*
Y1178D01*
X1317D01*
Y1157D01*
X1335D01*
X1336Y1155D01*
X1336Y1152D01*
X1330Y1148D01*
X1325Y1141D01*
X1324Y1133D01*
X1325Y1125D01*
X1330Y1118D01*
X1337Y1113D01*
X1345Y1112D01*
X1353Y1113D01*
X1389Y1077D01*
X1388Y1075D01*
X1387Y1072D01*
X1367D01*
X1366Y1073D01*
X1365Y1081D01*
X1360Y1088D01*
X1353Y1093D01*
X1345Y1094D01*
X1337Y1093D01*
X1330Y1088D01*
X1325Y1081D01*
X1324Y1073D01*
X1325Y1065D01*
X1330Y1058D01*
X1337Y1053D01*
X1345Y1052D01*
X1349Y1052D01*
X1349Y1051D01*
X1349Y1051D01*
X1353Y1049D01*
X1358Y1048D01*
X1394D01*
Y1032D01*
X1386D01*
X1385Y1033D01*
X1378Y1038D01*
X1370Y1039D01*
X1362Y1038D01*
X1355Y1033D01*
X1350Y1026D01*
X1349Y1018D01*
X1350Y1010D01*
X1355Y1003D01*
X1362Y998D01*
X1370Y997D01*
X1378Y998D01*
X1385Y1003D01*
X1386Y1004D01*
X1394D01*
Y999D01*
X1409D01*
Y986D01*
X1399D01*
X1394Y984D01*
X1389Y981D01*
X1386Y977D01*
X1385Y971D01*
X1386Y966D01*
X1388Y963D01*
X1386Y958D01*
X1386Y958D01*
X1365D01*
X1306Y1017D01*
Y1081D01*
X1306Y1081D01*
X1305Y1086D01*
X1303Y1090D01*
X1220Y1172D01*
X1220Y1178D01*
X1225Y1185D01*
X1226Y1193D01*
X1225Y1201D01*
X1220Y1208D01*
X1213Y1213D01*
X1205Y1214D01*
X1197Y1213D01*
X1190Y1208D01*
X1185Y1201D01*
X1184Y1193D01*
X1185Y1185D01*
X1190Y1178D01*
X1193Y1176D01*
Y1172D01*
X1191Y1169D01*
X1188Y1167D01*
X1151D01*
X1144Y1174D01*
Y1204D01*
X1144Y1204D01*
X1143Y1209D01*
X1141Y1213D01*
X1141Y1213D01*
X1122Y1231D01*
X1124Y1235D01*
X1163D01*
X1165Y1233D01*
X1172Y1228D01*
X1180Y1227D01*
X1188Y1228D01*
X1195Y1233D01*
X1200Y1240D01*
X1201Y1248D01*
X1200Y1256D01*
X1195Y1263D01*
X1188Y1268D01*
X1180Y1269D01*
X1172Y1268D01*
X1165Y1263D01*
X1163Y1260D01*
X1150D01*
X1148Y1264D01*
X1161Y1277D01*
X1199D01*
X1259Y1216D01*
D02*
G37*
G36*
X1005Y1333D02*
X1005Y1107D01*
X1001Y1103D01*
X873Y1103D01*
Y1113D01*
X876Y1115D01*
X880Y1122D01*
X882Y1130D01*
X880Y1138D01*
X876Y1145D01*
X869Y1150D01*
X860Y1151D01*
X852Y1150D01*
X845Y1145D01*
X841Y1138D01*
X839Y1130D01*
X841Y1122D01*
X845Y1115D01*
X848Y1113D01*
Y1107D01*
X845Y1103D01*
X775Y1103D01*
X775Y1333D01*
X1005Y1333D01*
D02*
G37*
G36*
X2352Y850D02*
X472D01*
X470Y854D01*
X498Y882D01*
X503Y880D01*
Y871D01*
X547D01*
Y879D01*
X608D01*
Y867D01*
X660D01*
Y922D01*
X608D01*
Y911D01*
X547D01*
Y930D01*
X503D01*
Y917D01*
X494D01*
X488Y916D01*
X482Y912D01*
X444Y874D01*
X427D01*
Y910D01*
X443D01*
Y969D01*
X383D01*
Y910D01*
X399D01*
Y874D01*
X360D01*
X358Y878D01*
X358Y879D01*
X362Y885D01*
X364Y893D01*
X362Y901D01*
X358Y907D01*
X352Y911D01*
X344Y913D01*
X336Y911D01*
X330Y907D01*
X330Y907D01*
X325D01*
X322Y909D01*
Y913D01*
X322Y914D01*
Y925D01*
X253D01*
Y914D01*
X253Y913D01*
Y909D01*
X253Y908D01*
Y876D01*
X248Y874D01*
X242D01*
X237Y876D01*
Y909D01*
X212D01*
X211Y912D01*
X211Y914D01*
X217Y918D01*
X221Y925D01*
X223Y932D01*
X221Y940D01*
X217Y946D01*
X219Y951D01*
X237D01*
Y984D01*
X168D01*
Y951D01*
X187D01*
X188Y946D01*
X184Y940D01*
X183Y932D01*
X184Y925D01*
X189Y918D01*
X194Y914D01*
X194Y912D01*
X194Y909D01*
X168D01*
Y876D01*
X189D01*
Y867D01*
X190Y862D01*
X193Y857D01*
X195Y855D01*
X193Y850D01*
X161D01*
Y1014D01*
X361D01*
X362Y1014D01*
X363D01*
X363Y1014D01*
X364D01*
X364Y1014D01*
X364Y1014D01*
X364Y1014D01*
X365Y1014D01*
X365Y1014D01*
X366Y1015D01*
X367Y1015D01*
X367Y1015D01*
X367Y1015D01*
X368Y1016D01*
X369Y1016D01*
X369Y1016D01*
X369Y1016D01*
X371Y1019D01*
X371Y1019D01*
X372Y1020D01*
X372Y1020D01*
X372Y1020D01*
X373Y1021D01*
X373Y1022D01*
X373Y1022D01*
X373Y1023D01*
X373Y1023D01*
Y1024D01*
X373Y1025D01*
Y1025D01*
X374Y1026D01*
Y1143D01*
X373Y1144D01*
Y1145D01*
X373Y1145D01*
X373Y1146D01*
X373Y1146D01*
X373Y1147D01*
X373Y1147D01*
X373Y1148D01*
X372Y1149D01*
X372Y1149D01*
X372Y1149D01*
X372Y1150D01*
X371Y1150D01*
X371Y1151D01*
X370Y1151D01*
X370Y1151D01*
X370Y1152D01*
X370Y1152D01*
X370Y1152D01*
X369Y1152D01*
X369Y1153D01*
X368Y1153D01*
X368Y1154D01*
X367Y1154D01*
X367Y1154D01*
X366Y1155D01*
X365Y1155D01*
X365Y1155D01*
X364Y1155D01*
X364Y1155D01*
X363D01*
X363Y1155D01*
X362D01*
X361Y1156D01*
X348D01*
X348Y1156D01*
Y1157D01*
X314D01*
Y1167D01*
X348D01*
Y1200D01*
X390D01*
X390Y1200D01*
X395Y1201D01*
X399Y1204D01*
X427Y1231D01*
X427Y1231D01*
X429Y1235D01*
X429Y1236D01*
X435Y1238D01*
X438Y1236D01*
X446Y1234D01*
X454Y1236D01*
X459Y1239D01*
X463Y1238D01*
X464Y1237D01*
Y1231D01*
X519D01*
Y1283D01*
X464D01*
Y1271D01*
X463Y1270D01*
X459Y1269D01*
X454Y1272D01*
X446Y1274D01*
X438Y1272D01*
X435Y1270D01*
X430Y1273D01*
Y1293D01*
X444Y1307D01*
X464D01*
Y1302D01*
X519D01*
Y1354D01*
X464D01*
Y1331D01*
X439D01*
X439Y1331D01*
X434Y1330D01*
X430Y1328D01*
X430Y1328D01*
X409Y1307D01*
X407Y1303D01*
X406Y1298D01*
X406Y1298D01*
Y1272D01*
X401Y1270D01*
X395Y1274D01*
X391Y1275D01*
X390Y1276D01*
X389Y1280D01*
X396Y1287D01*
X399Y1291D01*
X400Y1297D01*
Y1405D01*
X429D01*
Y1476D01*
X366D01*
Y1411D01*
X361Y1406D01*
X255Y1406D01*
Y1444D01*
X274D01*
Y1516D01*
X211D01*
Y1444D01*
X230D01*
Y1410D01*
X227Y1406D01*
X165D01*
X161Y1409D01*
Y1582D01*
X655D01*
X657Y1577D01*
X625Y1545D01*
X622Y1541D01*
X621Y1536D01*
X608D01*
Y1484D01*
X621D01*
Y1479D01*
X608D01*
Y1427D01*
X621D01*
Y1409D01*
X622Y1403D01*
X625Y1399D01*
X671Y1353D01*
Y1333D01*
X672Y1328D01*
X675Y1323D01*
X680Y1320D01*
X681Y1320D01*
X683Y1318D01*
X683Y1318D01*
X684Y1317D01*
Y1299D01*
X626D01*
X598Y1328D01*
X594Y1330D01*
X589Y1331D01*
X586Y1335D01*
Y1354D01*
X531D01*
Y1302D01*
X586D01*
X586Y1302D01*
Y1302D01*
X590Y1300D01*
X607Y1284D01*
X605Y1279D01*
X586D01*
Y1283D01*
X531D01*
Y1231D01*
X586D01*
Y1255D01*
X610D01*
X612Y1251D01*
X610Y1248D01*
X609Y1240D01*
X610Y1232D01*
X614Y1227D01*
X611Y1222D01*
X589D01*
Y1170D01*
X641D01*
X642Y1167D01*
X646Y1161D01*
X649Y1159D01*
X647Y1154D01*
X638D01*
X638Y1154D01*
X610D01*
Y1099D01*
X662D01*
Y1130D01*
X670D01*
X670Y1130D01*
X675Y1131D01*
X679Y1133D01*
X679Y1134D01*
X684Y1132D01*
X684Y1016D01*
X684Y1013D01*
X685Y1012D01*
X688Y1012D01*
X742D01*
X744Y1007D01*
X726Y990D01*
X724Y986D01*
X723Y981D01*
X723Y981D01*
Y968D01*
X718Y967D01*
X717Y968D01*
X713Y973D01*
X708Y977D01*
X702Y980D01*
X700Y980D01*
Y955D01*
X695D01*
Y950D01*
X670D01*
X670Y948D01*
X673Y942D01*
X677Y937D01*
X682Y933D01*
X682Y930D01*
Y930D01*
X682Y927D01*
X677Y923D01*
X673Y918D01*
X670Y912D01*
X669Y905D01*
X670Y898D01*
X673Y892D01*
X677Y887D01*
X682Y883D01*
X688Y880D01*
X695Y879D01*
X702Y880D01*
X708Y883D01*
X713Y887D01*
X717Y892D01*
X720Y892D01*
X720D01*
X723Y892D01*
X727Y887D01*
X732Y883D01*
X738Y880D01*
X745Y879D01*
X752Y880D01*
X758Y883D01*
X763Y887D01*
X767Y892D01*
X770Y892D01*
X770D01*
X773Y892D01*
X777Y887D01*
X782Y883D01*
X788Y880D01*
X795Y879D01*
X802Y880D01*
X808Y883D01*
X813Y887D01*
X817Y892D01*
X820Y892D01*
X820D01*
X823Y892D01*
X827Y887D01*
X832Y883D01*
X833Y882D01*
X834Y880D01*
X836Y876D01*
X851Y861D01*
X855Y859D01*
X860Y858D01*
X860Y858D01*
X940D01*
X940Y858D01*
X945Y859D01*
X949Y861D01*
X971Y883D01*
X973Y887D01*
X974Y892D01*
X974Y892D01*
Y895D01*
X977Y897D01*
X982Y904D01*
X983Y912D01*
X982Y920D01*
X977Y927D01*
X970Y932D01*
X962Y933D01*
X954Y932D01*
X952Y930D01*
X947Y933D01*
Y967D01*
X952Y969D01*
X962Y960D01*
X966Y957D01*
X970Y956D01*
X970Y956D01*
X995D01*
Y941D01*
X1046D01*
Y996D01*
X995D01*
Y981D01*
X975D01*
X971Y985D01*
Y1008D01*
X975Y1012D01*
X1039Y1012D01*
X1039Y1012D01*
X1042Y1008D01*
X1046Y1003D01*
X1050Y1001D01*
X1055Y1000D01*
X1055Y1000D01*
X1063D01*
Y974D01*
X1092D01*
Y969D01*
X1097D01*
Y935D01*
X1122D01*
Y935D01*
X1126D01*
Y935D01*
X1185D01*
Y1002D01*
X1165D01*
X1164Y1003D01*
X1164Y1003D01*
X1151Y1017D01*
X1153Y1022D01*
X1185D01*
Y1050D01*
X1155D01*
Y1060D01*
X1185D01*
Y1078D01*
X1189Y1080D01*
X1208Y1062D01*
Y950D01*
X1205Y948D01*
X1200Y941D01*
X1199Y933D01*
X1200Y925D01*
X1205Y918D01*
X1212Y913D01*
X1220Y912D01*
X1228Y913D01*
X1235Y918D01*
X1236Y918D01*
X1240D01*
X1241Y918D01*
X1248Y913D01*
X1256Y912D01*
X1264Y913D01*
X1271Y918D01*
X1276Y925D01*
X1277Y933D01*
X1276Y941D01*
X1271Y948D01*
X1268Y950D01*
Y967D01*
X1268Y967D01*
X1267Y972D01*
X1265Y976D01*
X1265Y976D01*
X1255Y985D01*
Y997D01*
X1256Y998D01*
X1262Y997D01*
X1348Y912D01*
X1348Y912D01*
X1352Y909D01*
X1357Y908D01*
X1357Y908D01*
X1386D01*
X1386Y908D01*
X1388Y903D01*
X1386Y900D01*
X1386Y900D01*
X1438D01*
X1438Y900D01*
X1435Y904D01*
X1435Y906D01*
Y909D01*
X1435Y910D01*
X1438Y915D01*
X1439Y920D01*
X1438Y926D01*
X1435Y930D01*
X1435Y930D01*
Y936D01*
X1435Y936D01*
X1438Y940D01*
X1439Y946D01*
X1438Y951D01*
X1435Y956D01*
X1435Y957D01*
Y960D01*
X1435Y962D01*
X1438Y966D01*
X1439Y971D01*
X1438Y977D01*
X1437Y978D01*
Y999D01*
X1449D01*
Y1048D01*
X1461D01*
Y1030D01*
X1483D01*
Y1051D01*
X1483D01*
X1481Y1056D01*
X1506Y1081D01*
X1506Y1081D01*
X1509Y1085D01*
X1510Y1090D01*
X1510Y1090D01*
Y1092D01*
X1512Y1093D01*
X1517Y1090D01*
Y1072D01*
X1562D01*
Y1073D01*
X1624D01*
Y1057D01*
X1639D01*
Y1046D01*
X1639Y1046D01*
X1640Y1042D01*
X1643Y1038D01*
X1648Y1033D01*
Y1002D01*
X1643Y1000D01*
X1638Y1003D01*
X1630Y1004D01*
X1622Y1003D01*
X1615Y998D01*
X1614Y997D01*
X1600D01*
X1594Y996D01*
X1590Y993D01*
X1582Y986D01*
X1557D01*
X1557Y986D01*
X1555D01*
X1550Y984D01*
X1545Y981D01*
X1542Y977D01*
X1541Y971D01*
X1542Y966D01*
X1545Y962D01*
X1545Y960D01*
Y957D01*
X1545Y956D01*
X1542Y951D01*
X1541Y946D01*
X1542Y940D01*
X1545Y936D01*
X1545Y936D01*
Y930D01*
X1545Y930D01*
X1542Y926D01*
X1541Y920D01*
X1542Y915D01*
X1545Y910D01*
X1545Y909D01*
Y906D01*
X1545Y904D01*
X1542Y900D01*
X1542Y900D01*
X1594D01*
X1594Y900D01*
X1592Y903D01*
X1594Y908D01*
X1594Y908D01*
X1624D01*
Y882D01*
X1679D01*
Y934D01*
X1658D01*
X1656Y939D01*
X1669Y951D01*
X1669Y951D01*
X1671Y955D01*
X1672Y960D01*
X1672Y960D01*
Y1038D01*
X1672Y1038D01*
X1671Y1043D01*
X1669Y1047D01*
X1669Y1047D01*
X1664Y1051D01*
Y1057D01*
X1679D01*
Y1109D01*
X1679D01*
Y1112D01*
X1679D01*
Y1164D01*
X1624D01*
Y1151D01*
X1606D01*
X1605Y1152D01*
X1604Y1152D01*
Y1157D01*
X1606D01*
Y1206D01*
X1614D01*
Y1192D01*
X1669D01*
Y1244D01*
X1614D01*
Y1230D01*
X1583D01*
X1562Y1251D01*
Y1282D01*
X1572D01*
X1573Y1281D01*
X1574Y1277D01*
X1570Y1271D01*
X1569Y1263D01*
X1570Y1255D01*
X1575Y1248D01*
X1582Y1243D01*
X1590Y1242D01*
X1598Y1243D01*
X1605Y1248D01*
X1610Y1255D01*
X1611Y1263D01*
X1610Y1271D01*
X1606Y1277D01*
X1607Y1281D01*
X1608Y1282D01*
X1614D01*
Y1279D01*
X1669D01*
Y1331D01*
X1614D01*
Y1311D01*
X1548D01*
X1543Y1309D01*
X1542Y1309D01*
X1517D01*
Y1286D01*
X1513Y1283D01*
X1508Y1282D01*
X1504Y1279D01*
X1504Y1279D01*
X1491Y1267D01*
X1489Y1263D01*
X1488Y1258D01*
X1488Y1258D01*
Y1248D01*
X1478Y1239D01*
X1473Y1241D01*
Y1265D01*
X1428D01*
Y1257D01*
X1391D01*
Y1284D01*
X1336D01*
Y1235D01*
X1324D01*
Y1284D01*
X1269D01*
Y1281D01*
X1264Y1279D01*
X1226Y1318D01*
X1222Y1320D01*
X1217Y1321D01*
X1217Y1321D01*
X1141D01*
X1141Y1321D01*
X1139Y1321D01*
X1136Y1325D01*
X1149Y1338D01*
X1155Y1338D01*
X1162Y1333D01*
X1170Y1332D01*
X1178Y1333D01*
X1185Y1338D01*
X1187Y1341D01*
X1194D01*
Y1327D01*
X1249D01*
Y1377D01*
X1261D01*
Y1358D01*
X1316D01*
Y1377D01*
X1482D01*
X1482Y1377D01*
X1486Y1378D01*
X1490Y1381D01*
X1522Y1412D01*
X1548D01*
X1550Y1412D01*
X1555Y1410D01*
X1581D01*
X1586Y1412D01*
X1591Y1415D01*
X1594Y1419D01*
X1595Y1425D01*
X1594Y1430D01*
X1592Y1433D01*
X1594Y1438D01*
X1594Y1438D01*
X1613D01*
X1656Y1394D01*
X1656Y1394D01*
X1660Y1392D01*
X1665Y1391D01*
X1669D01*
Y1377D01*
X1724D01*
Y1429D01*
X1724D01*
Y1432D01*
X1724Y1432D01*
Y1482D01*
X1724Y1484D01*
Y1487D01*
X1724Y1489D01*
Y1508D01*
X1697D01*
Y1513D01*
X1692D01*
Y1539D01*
X1669D01*
Y1534D01*
X1664Y1533D01*
X1660Y1538D01*
X1653Y1543D01*
X1645Y1544D01*
X1637Y1543D01*
X1630Y1538D01*
X1625Y1531D01*
X1624Y1523D01*
X1624Y1522D01*
X1618Y1516D01*
X1593D01*
Y1548D01*
X1592Y1553D01*
X1591Y1554D01*
Y1574D01*
X1536D01*
Y1522D01*
X1564D01*
Y1516D01*
X1555D01*
X1550Y1514D01*
X1545Y1511D01*
X1542Y1507D01*
X1541Y1501D01*
X1542Y1496D01*
X1545Y1492D01*
X1545Y1490D01*
Y1487D01*
X1545Y1486D01*
X1542Y1481D01*
X1541Y1476D01*
X1542Y1470D01*
X1545Y1466D01*
X1545Y1465D01*
Y1461D01*
X1545Y1460D01*
X1542Y1456D01*
X1541Y1450D01*
X1542Y1445D01*
X1544Y1442D01*
X1542Y1437D01*
X1542Y1437D01*
X1517D01*
X1517Y1437D01*
X1512Y1436D01*
X1508Y1433D01*
X1476Y1402D01*
X1296D01*
Y1418D01*
X1241D01*
Y1402D01*
X1229D01*
Y1449D01*
X1185D01*
X1182Y1454D01*
X1184Y1456D01*
X1340D01*
X1354Y1442D01*
X1358Y1439D01*
X1363Y1438D01*
X1363Y1438D01*
X1386D01*
X1386Y1438D01*
X1388Y1433D01*
X1386Y1430D01*
X1386Y1430D01*
X1438D01*
X1438Y1430D01*
X1435Y1434D01*
X1435Y1436D01*
Y1439D01*
X1435Y1440D01*
X1438Y1445D01*
X1439Y1450D01*
X1438Y1456D01*
X1435Y1460D01*
X1435Y1461D01*
Y1465D01*
X1435Y1466D01*
X1438Y1470D01*
X1439Y1476D01*
X1438Y1481D01*
X1435Y1486D01*
X1435Y1487D01*
Y1490D01*
X1435Y1492D01*
X1438Y1496D01*
X1439Y1501D01*
X1438Y1507D01*
X1435Y1511D01*
X1430Y1514D01*
X1425Y1516D01*
X1423D01*
X1423Y1516D01*
X1377D01*
X1371Y1522D01*
X1371Y1523D01*
X1370Y1531D01*
X1365Y1538D01*
X1358Y1543D01*
X1350Y1544D01*
X1342Y1543D01*
X1335Y1538D01*
X1334Y1537D01*
X1310D01*
X1305Y1536D01*
X1300Y1533D01*
X1294Y1527D01*
X1221D01*
X1171Y1577D01*
X1173Y1582D01*
X2352D01*
Y850D01*
D02*
G37*
G36*
X1204Y1504D02*
X1204Y1501D01*
X1203Y1499D01*
X1166D01*
X1166Y1499D01*
X1164Y1498D01*
X1161Y1502D01*
X1161Y1503D01*
X1163Y1506D01*
X1164Y1514D01*
X1163Y1522D01*
X1158Y1529D01*
X1151Y1534D01*
X1143Y1535D01*
X1135Y1534D01*
X1128Y1529D01*
X1126Y1526D01*
X1098D01*
Y1549D01*
X1043D01*
Y1497D01*
X1098D01*
Y1502D01*
X1126D01*
X1128Y1499D01*
X1135Y1494D01*
X1143Y1493D01*
X1149Y1494D01*
X1151Y1489D01*
X1147Y1485D01*
X1020D01*
X1020Y1485D01*
X1015Y1484D01*
X1011Y1482D01*
X976Y1446D01*
X971Y1448D01*
Y1480D01*
X988Y1497D01*
X1031D01*
Y1549D01*
X976D01*
Y1519D01*
X959Y1502D01*
X957Y1504D01*
X953Y1507D01*
X948Y1508D01*
X948Y1508D01*
X843D01*
X843Y1508D01*
X839Y1507D01*
X835Y1504D01*
X835Y1504D01*
X796Y1465D01*
X791Y1467D01*
Y1479D01*
X736D01*
Y1429D01*
X733Y1425D01*
X728Y1425D01*
X724Y1428D01*
X724Y1429D01*
Y1479D01*
X709D01*
Y1484D01*
X724D01*
Y1536D01*
X669D01*
Y1484D01*
X684D01*
Y1479D01*
X669D01*
Y1427D01*
X681D01*
X683Y1426D01*
X684Y1422D01*
X684Y1420D01*
Y1387D01*
X679Y1385D01*
X650Y1414D01*
Y1427D01*
X663D01*
Y1479D01*
X650D01*
Y1484D01*
X663D01*
Y1536D01*
X662D01*
X660Y1540D01*
X679Y1559D01*
X1149D01*
X1204Y1504D01*
D02*
G37*
%LPC*%
G36*
X2000Y1042D02*
X1973D01*
Y1011D01*
X2000D01*
Y1042D01*
D02*
G37*
G36*
X1963D02*
X1937D01*
Y1011D01*
X1963D01*
Y1042D01*
D02*
G37*
G36*
X205Y1209D02*
X166D01*
Y1185D01*
X205D01*
Y1209D01*
D02*
G37*
G36*
X662Y1055D02*
X641D01*
Y1032D01*
X662D01*
Y1055D01*
D02*
G37*
G36*
X631D02*
X610D01*
Y1032D01*
X631D01*
Y1055D01*
D02*
G37*
G36*
X1516Y1051D02*
X1493D01*
Y1030D01*
X1516D01*
Y1051D01*
D02*
G37*
G36*
X1483Y1020D02*
X1461D01*
Y999D01*
X1483D01*
Y1020D01*
D02*
G37*
G36*
X584Y1021D02*
X567D01*
Y996D01*
X584D01*
Y1021D01*
D02*
G37*
G36*
X557D02*
X541D01*
Y996D01*
X557D01*
Y1021D01*
D02*
G37*
G36*
X1875Y1029D02*
Y1006D01*
X1896D01*
Y1029D01*
X1875D01*
D02*
G37*
G36*
X1810Y1029D02*
X1789D01*
Y1006D01*
X1810D01*
Y1029D01*
D02*
G37*
G36*
X1516Y1020D02*
X1493D01*
Y999D01*
X1516D01*
Y1020D01*
D02*
G37*
G36*
X205Y1093D02*
X166D01*
Y1046D01*
X205D01*
Y1093D01*
D02*
G37*
G36*
X490Y1181D02*
X469D01*
Y1158D01*
X490D01*
Y1181D01*
D02*
G37*
G36*
Y1148D02*
X469D01*
Y1126D01*
X490D01*
Y1148D01*
D02*
G37*
G36*
X1405Y1179D02*
X1397Y1178D01*
X1390Y1173D01*
X1385Y1166D01*
X1384Y1158D01*
X1385Y1150D01*
X1390Y1143D01*
X1397Y1138D01*
X1400Y1138D01*
X1401Y1137D01*
X1407Y1136D01*
X1407Y1136D01*
X1417Y1126D01*
X1421Y1123D01*
X1427Y1122D01*
X1428D01*
Y1116D01*
X1473D01*
Y1123D01*
Y1150D01*
X1447D01*
X1447Y1151D01*
X1432D01*
X1426Y1157D01*
X1426Y1158D01*
X1425Y1166D01*
X1420Y1173D01*
X1413Y1178D01*
X1405Y1179D01*
D02*
G37*
G36*
X1507Y1178D02*
X1484D01*
Y1157D01*
X1507D01*
Y1178D01*
D02*
G37*
G36*
X1539D02*
X1517D01*
Y1157D01*
X1539D01*
Y1178D01*
D02*
G37*
G36*
X521Y1148D02*
X500D01*
Y1126D01*
X521D01*
Y1148D01*
D02*
G37*
G36*
X577Y1191D02*
X555D01*
Y1170D01*
X577D01*
Y1191D01*
D02*
G37*
G36*
X662Y1087D02*
X641D01*
Y1065D01*
X662D01*
Y1087D01*
D02*
G37*
G36*
X631D02*
X610D01*
Y1065D01*
X631D01*
Y1087D01*
D02*
G37*
G36*
X545Y1191D02*
X522D01*
Y1186D01*
X521Y1181D01*
X517Y1181D01*
X500D01*
Y1158D01*
X521D01*
Y1166D01*
X522Y1170D01*
X526Y1170D01*
X545D01*
Y1191D01*
D02*
G37*
G36*
X2286Y1118D02*
Y1097D01*
X2306D01*
X2306Y1099D01*
X2303Y1105D01*
X2299Y1111D01*
X2294Y1115D01*
X2287Y1117D01*
X2286Y1118D01*
D02*
G37*
G36*
X348Y1111D02*
X305D01*
Y1081D01*
X348D01*
Y1111D01*
D02*
G37*
G36*
X2154Y933D02*
Y903D01*
X2184D01*
X2184Y907D01*
X2180Y916D01*
X2174Y923D01*
X2167Y929D01*
X2158Y933D01*
X2154Y933D01*
D02*
G37*
G36*
X2144D02*
X2140Y933D01*
X2131Y929D01*
X2124Y923D01*
X2118Y916D01*
X2114Y907D01*
X2114Y903D01*
X2144D01*
Y933D01*
D02*
G37*
G36*
X1594Y890D02*
X1573D01*
Y880D01*
X1581D01*
X1586Y882D01*
X1591Y885D01*
X1594Y889D01*
X1594Y890D01*
D02*
G37*
G36*
X1016Y929D02*
X995D01*
Y907D01*
X1016D01*
Y929D01*
D02*
G37*
G36*
X629Y956D02*
X608D01*
Y934D01*
X629D01*
Y956D01*
D02*
G37*
G36*
X1841Y962D02*
Y962D01*
X1839Y962D01*
X1789D01*
Y907D01*
X1841D01*
Y907D01*
X1844D01*
Y907D01*
X1896D01*
Y916D01*
X1908D01*
X1910Y913D01*
X1917Y908D01*
X1925Y907D01*
X1933Y908D01*
X1940Y913D01*
X1942Y916D01*
X1954D01*
Y908D01*
X2009D01*
Y960D01*
X1954D01*
Y940D01*
X1942D01*
X1940Y943D01*
X1933Y948D01*
X1925Y949D01*
X1917Y948D01*
X1910Y943D01*
X1908Y940D01*
X1896D01*
Y962D01*
X1846D01*
X1844Y962D01*
Y962D01*
X1841D01*
D02*
G37*
G36*
X1046Y929D02*
X1026D01*
Y907D01*
X1046D01*
Y929D01*
D02*
G37*
G36*
X1016Y897D02*
X995D01*
Y874D01*
X1016D01*
Y897D01*
D02*
G37*
G36*
X2184Y893D02*
X2154D01*
Y863D01*
X2158Y863D01*
X2167Y867D01*
X2174Y873D01*
X2180Y880D01*
X2184Y889D01*
X2184Y893D01*
D02*
G37*
G36*
X2144D02*
X2114D01*
X2114Y889D01*
X2118Y880D01*
X2124Y873D01*
X2131Y867D01*
X2140Y863D01*
X2144Y863D01*
Y893D01*
D02*
G37*
G36*
X1046Y897D02*
X1026D01*
Y874D01*
X1046D01*
Y897D01*
D02*
G37*
G36*
X1563Y890D02*
X1542D01*
X1542Y889D01*
X1545Y885D01*
X1550Y882D01*
X1555Y880D01*
X1563D01*
Y890D01*
D02*
G37*
G36*
X1438D02*
X1417D01*
Y880D01*
X1425D01*
X1430Y882D01*
X1435Y885D01*
X1438Y889D01*
X1438Y890D01*
D02*
G37*
G36*
X1407D02*
X1386D01*
X1386Y889D01*
X1389Y885D01*
X1394Y882D01*
X1399Y880D01*
X1407D01*
Y890D01*
D02*
G37*
G36*
X660Y956D02*
X639D01*
Y934D01*
X660D01*
Y956D01*
D02*
G37*
G36*
X2000Y1001D02*
X1973D01*
Y971D01*
X2000D01*
Y1001D01*
D02*
G37*
G36*
X1963D02*
X1937D01*
Y971D01*
X1963D01*
Y1001D01*
D02*
G37*
G36*
X660Y989D02*
X639D01*
Y966D01*
X660D01*
Y989D01*
D02*
G37*
G36*
X1844Y1029D02*
X1839Y1029D01*
X1820D01*
Y1001D01*
Y974D01*
X1839D01*
X1841Y974D01*
X1846Y974D01*
X1865D01*
Y1001D01*
Y1029D01*
X1846D01*
X1844Y1029D01*
D02*
G37*
G36*
X413Y1048D02*
X405Y1047D01*
X398Y1044D01*
X392Y1039D01*
X387Y1033D01*
X384Y1026D01*
X383Y1018D01*
X384Y1010D01*
X387Y1003D01*
X392Y997D01*
X398Y992D01*
X405Y989D01*
X413Y988D01*
X421Y989D01*
X428Y992D01*
X434Y997D01*
X439Y1003D01*
X442Y1010D01*
X443Y1018D01*
X442Y1026D01*
X439Y1033D01*
X434Y1039D01*
X428Y1044D01*
X421Y1047D01*
X413Y1048D01*
D02*
G37*
G36*
X1896Y996D02*
X1875D01*
Y974D01*
X1896D01*
Y996D01*
D02*
G37*
G36*
X1810Y996D02*
X1789D01*
Y974D01*
X1810D01*
Y996D01*
D02*
G37*
G36*
X690Y980D02*
X688Y980D01*
X682Y977D01*
X677Y973D01*
X673Y968D01*
X670Y962D01*
X670Y960D01*
X690D01*
Y980D01*
D02*
G37*
G36*
X335Y987D02*
X327Y985D01*
X327Y985D01*
X322Y984D01*
Y984D01*
X322Y984D01*
X253D01*
Y952D01*
X253Y951D01*
Y947D01*
X253Y946D01*
Y935D01*
X322D01*
X322Y946D01*
X326Y950D01*
X327Y949D01*
X335Y947D01*
X343Y949D01*
X349Y953D01*
X353Y959D01*
X355Y967D01*
X353Y975D01*
X349Y981D01*
X343Y985D01*
X335Y987D01*
D02*
G37*
G36*
X1087Y964D02*
X1063D01*
Y935D01*
X1087D01*
Y964D01*
D02*
G37*
G36*
X413Y1127D02*
X405Y1126D01*
X398Y1123D01*
X392Y1118D01*
X387Y1112D01*
X384Y1104D01*
X383Y1097D01*
X384Y1089D01*
X387Y1082D01*
X392Y1076D01*
X398Y1071D01*
X405Y1068D01*
X413Y1067D01*
X421Y1068D01*
X428Y1071D01*
X434Y1076D01*
X438Y1081D01*
X469D01*
Y1059D01*
X472D01*
Y1021D01*
X466D01*
Y962D01*
X509D01*
Y1021D01*
X504D01*
Y1059D01*
X521D01*
Y1114D01*
X469D01*
Y1109D01*
X440D01*
X439Y1112D01*
X434Y1118D01*
X428Y1123D01*
X421Y1126D01*
X413Y1127D01*
D02*
G37*
G36*
X629Y989D02*
X608D01*
Y966D01*
X629D01*
Y989D01*
D02*
G37*
G36*
X584Y986D02*
X567D01*
Y962D01*
X584D01*
Y986D01*
D02*
G37*
G36*
X557D02*
X541D01*
Y962D01*
X557D01*
Y986D01*
D02*
G37*
G36*
X393Y1515D02*
X366D01*
Y1485D01*
X393D01*
Y1515D01*
D02*
G37*
G36*
X791Y1505D02*
X768D01*
Y1484D01*
X791D01*
Y1505D01*
D02*
G37*
G36*
X758D02*
X736D01*
Y1484D01*
X758D01*
Y1505D01*
D02*
G37*
G36*
X349Y1516D02*
X322D01*
Y1485D01*
X349D01*
Y1516D01*
D02*
G37*
G36*
X312D02*
X286D01*
Y1485D01*
X312D01*
Y1516D01*
D02*
G37*
G36*
X429Y1515D02*
X403D01*
Y1485D01*
X429D01*
Y1515D01*
D02*
G37*
G36*
X596Y1505D02*
X574D01*
Y1484D01*
X596D01*
Y1505D01*
D02*
G37*
G36*
Y1479D02*
X574D01*
Y1458D01*
X596D01*
Y1479D01*
D02*
G37*
G36*
X564D02*
X541D01*
Y1458D01*
X564D01*
Y1479D01*
D02*
G37*
G36*
X2286Y1468D02*
Y1447D01*
X2306D01*
X2306Y1449D01*
X2303Y1455D01*
X2299Y1461D01*
X2294Y1465D01*
X2287Y1467D01*
X2286Y1468D01*
D02*
G37*
G36*
X564Y1505D02*
X541D01*
Y1484D01*
X564D01*
Y1505D01*
D02*
G37*
G36*
X2119Y1512D02*
X2098D01*
Y1478D01*
X2119D01*
Y1512D01*
D02*
G37*
G36*
X2088D02*
X2067D01*
Y1478D01*
X2088D01*
Y1512D01*
D02*
G37*
G36*
X1985Y1556D02*
X1933D01*
Y1506D01*
X1878D01*
X1876Y1509D01*
X1869Y1514D01*
X1861Y1515D01*
X1853Y1514D01*
X1846Y1509D01*
X1841Y1502D01*
X1840Y1494D01*
X1841Y1486D01*
X1846Y1479D01*
X1851Y1475D01*
X1850Y1470D01*
X1791D01*
Y1484D01*
X1791D01*
Y1487D01*
X1791D01*
Y1539D01*
X1736D01*
Y1487D01*
X1736D01*
Y1484D01*
X1736D01*
Y1432D01*
X1736D01*
Y1429D01*
X1736D01*
Y1377D01*
X1791D01*
Y1391D01*
X1795Y1392D01*
X1799Y1394D01*
X1827Y1423D01*
X1982D01*
X2056Y1349D01*
Y1338D01*
X2053Y1336D01*
X2048Y1329D01*
X2047Y1321D01*
X2048Y1313D01*
X2053Y1306D01*
X2060Y1301D01*
X2068Y1300D01*
X2076Y1301D01*
X2083Y1306D01*
X2088Y1313D01*
X2089Y1321D01*
X2088Y1329D01*
X2083Y1336D01*
X2080Y1338D01*
Y1354D01*
X2080Y1354D01*
X2079Y1359D01*
X2077Y1363D01*
X2000Y1439D01*
X2002Y1444D01*
X2005Y1445D01*
X2108Y1342D01*
Y1102D01*
X2108Y1102D01*
X2109Y1098D01*
X2111Y1094D01*
X2171Y1034D01*
X2171Y1034D01*
X2175Y1031D01*
X2180Y1030D01*
X2208D01*
X2208Y1029D01*
X2212Y1024D01*
X2217Y1020D01*
X2218Y1017D01*
Y1017D01*
X2217Y1015D01*
X2212Y1011D01*
X2208Y1005D01*
X2208Y1005D01*
X2173D01*
X2089Y1088D01*
Y1121D01*
X2088Y1126D01*
X2086Y1130D01*
X2086Y1130D01*
X2039Y1177D01*
X2035Y1179D01*
X2030Y1180D01*
X2030Y1180D01*
X2010D01*
X2009Y1185D01*
X2009Y1185D01*
X2016Y1191D01*
X2022Y1199D01*
X2026Y1208D01*
X2027Y1217D01*
X2026Y1227D01*
X2022Y1236D01*
X2016Y1244D01*
X2009Y1250D01*
X2000Y1253D01*
X1990Y1255D01*
X1980Y1253D01*
X1974Y1251D01*
X1952Y1272D01*
Y1299D01*
X1957Y1300D01*
X1958Y1299D01*
X1964Y1291D01*
X1971Y1285D01*
X1980Y1281D01*
X1985Y1281D01*
Y1317D01*
Y1354D01*
X1980Y1353D01*
X1971Y1350D01*
X1964Y1344D01*
X1958Y1336D01*
X1957Y1335D01*
X1952Y1336D01*
Y1361D01*
X1952Y1361D01*
X1951Y1366D01*
X1949Y1370D01*
X1949Y1370D01*
X1926Y1393D01*
X1922Y1395D01*
X1917Y1396D01*
X1917Y1396D01*
X1878D01*
X1877Y1398D01*
X1870Y1403D01*
X1861Y1404D01*
X1853Y1403D01*
X1846Y1398D01*
X1842Y1391D01*
X1840Y1383D01*
X1841Y1379D01*
X1778Y1317D01*
X1736D01*
Y1331D01*
X1681D01*
Y1279D01*
X1696D01*
Y1244D01*
X1681D01*
Y1192D01*
X1736D01*
Y1244D01*
X1720D01*
Y1279D01*
X1736D01*
Y1293D01*
X1783D01*
X1783Y1293D01*
X1788Y1294D01*
X1792Y1296D01*
X1848Y1352D01*
X1853Y1350D01*
Y1298D01*
X1826Y1271D01*
X1824Y1267D01*
X1823Y1262D01*
X1823Y1262D01*
Y1173D01*
X1800Y1150D01*
X1746D01*
Y1164D01*
X1691D01*
Y1112D01*
X1691D01*
Y1109D01*
X1691D01*
Y1057D01*
X1746D01*
X1748Y1053D01*
Y1045D01*
X1710Y1007D01*
X1707Y1003D01*
X1706Y998D01*
X1706Y998D01*
Y934D01*
X1691D01*
Y882D01*
X1746D01*
Y934D01*
X1731D01*
Y993D01*
X1769Y1031D01*
X1769Y1031D01*
X1771Y1035D01*
X1772Y1040D01*
Y1085D01*
X1792Y1105D01*
X1855D01*
X1858Y1099D01*
X1864Y1091D01*
X1871Y1085D01*
X1880Y1081D01*
X1890Y1080D01*
X1900Y1081D01*
X1909Y1085D01*
X1916Y1091D01*
X1922Y1099D01*
X1926Y1108D01*
X1927Y1117D01*
X1926Y1127D01*
X1922Y1136D01*
X1916Y1144D01*
X1909Y1150D01*
X1906Y1151D01*
X1907Y1156D01*
X1973D01*
X1974Y1151D01*
X1971Y1150D01*
X1964Y1144D01*
X1958Y1136D01*
X1954Y1127D01*
X1953Y1117D01*
X1954Y1108D01*
X1958Y1099D01*
X1964Y1091D01*
X1971Y1085D01*
X1980Y1081D01*
X1990Y1080D01*
X2000Y1081D01*
X2009Y1085D01*
X2016Y1091D01*
X2022Y1099D01*
X2023Y1100D01*
X2029Y1101D01*
X2040Y1090D01*
Y1042D01*
X2012D01*
Y971D01*
X2040D01*
Y960D01*
X2021D01*
Y908D01*
X2076D01*
Y960D01*
X2068D01*
Y971D01*
X2075D01*
Y989D01*
X2111D01*
X2155Y945D01*
X2160Y942D01*
X2165Y941D01*
X2267D01*
X2272Y942D01*
X2277Y945D01*
X2291Y959D01*
X2294Y963D01*
X2294Y967D01*
X2306D01*
Y1018D01*
X2299D01*
X2298Y1023D01*
X2299Y1024D01*
X2303Y1029D01*
X2306Y1036D01*
X2306Y1037D01*
X2281D01*
Y1047D01*
X2306D01*
X2306Y1049D01*
X2303Y1055D01*
X2299Y1061D01*
X2294Y1065D01*
X2293Y1067D01*
Y1067D01*
X2294Y1070D01*
X2299Y1074D01*
X2303Y1079D01*
X2306Y1086D01*
X2306Y1087D01*
X2281D01*
Y1092D01*
X2276D01*
Y1118D01*
X2274Y1117D01*
X2268Y1115D01*
X2262Y1111D01*
X2258Y1106D01*
X2256Y1105D01*
X2256D01*
X2253Y1106D01*
X2249Y1111D01*
X2244Y1115D01*
X2243Y1117D01*
Y1117D01*
X2244Y1120D01*
X2249Y1124D01*
X2253Y1129D01*
X2256Y1136D01*
X2257Y1142D01*
X2256Y1149D01*
X2253Y1155D01*
X2249Y1161D01*
X2244Y1165D01*
X2243Y1167D01*
Y1167D01*
X2244Y1170D01*
X2249Y1174D01*
X2253Y1179D01*
X2256Y1180D01*
X2256D01*
X2258Y1179D01*
X2262Y1174D01*
X2268Y1170D01*
X2274Y1167D01*
X2281Y1166D01*
X2287Y1167D01*
X2294Y1170D01*
X2299Y1174D01*
X2303Y1179D01*
X2306Y1186D01*
X2307Y1192D01*
X2306Y1199D01*
X2303Y1205D01*
X2299Y1211D01*
X2294Y1215D01*
X2287Y1217D01*
X2281Y1218D01*
X2274Y1217D01*
X2268Y1215D01*
X2262Y1211D01*
X2258Y1206D01*
X2256Y1205D01*
X2256D01*
X2253Y1206D01*
X2249Y1211D01*
X2244Y1215D01*
X2237Y1217D01*
X2231Y1218D01*
X2224Y1217D01*
X2218Y1215D01*
X2212Y1211D01*
X2208Y1205D01*
X2206Y1199D01*
X2205Y1192D01*
X2206Y1186D01*
X2208Y1179D01*
X2212Y1174D01*
X2217Y1170D01*
X2218Y1167D01*
Y1167D01*
X2217Y1165D01*
X2212Y1161D01*
X2208Y1155D01*
X2206Y1149D01*
X2205Y1142D01*
X2206Y1136D01*
X2208Y1129D01*
X2212Y1124D01*
X2217Y1120D01*
X2218Y1117D01*
Y1117D01*
X2217Y1115D01*
X2212Y1111D01*
X2208Y1105D01*
X2206Y1099D01*
X2205Y1092D01*
X2206Y1086D01*
X2208Y1079D01*
X2212Y1074D01*
X2217Y1070D01*
X2218Y1067D01*
Y1067D01*
X2217Y1065D01*
X2212Y1061D01*
X2208Y1055D01*
X2208Y1055D01*
X2185D01*
X2132Y1107D01*
Y1347D01*
X2132Y1347D01*
X2131Y1352D01*
X2129Y1356D01*
X2018Y1467D01*
X2014Y1469D01*
X2009Y1470D01*
X2009Y1470D01*
X1872D01*
X1871Y1475D01*
X1876Y1479D01*
X1878Y1482D01*
X1933D01*
Y1478D01*
X1985D01*
Y1556D01*
D02*
G37*
G36*
X393Y1556D02*
X366D01*
Y1525D01*
X393D01*
Y1556D01*
D02*
G37*
G36*
X1524Y1543D02*
X1502D01*
Y1522D01*
X1524D01*
Y1543D01*
D02*
G37*
G36*
X1492D02*
X1469D01*
Y1522D01*
X1492D01*
Y1543D01*
D02*
G37*
G36*
X1524Y1574D02*
X1502D01*
Y1553D01*
X1524D01*
Y1574D01*
D02*
G37*
G36*
X1492D02*
X1469D01*
Y1553D01*
X1492D01*
Y1574D01*
D02*
G37*
G36*
X429Y1556D02*
X403D01*
Y1525D01*
X429D01*
Y1556D01*
D02*
G37*
G36*
X2119Y1556D02*
X2098D01*
Y1522D01*
X2119D01*
Y1556D01*
D02*
G37*
G36*
X758Y1536D02*
X736D01*
Y1515D01*
X758D01*
Y1536D01*
D02*
G37*
G36*
X596D02*
X574D01*
Y1515D01*
X596D01*
Y1536D01*
D02*
G37*
G36*
X564D02*
X541D01*
Y1515D01*
X564D01*
Y1536D01*
D02*
G37*
G36*
X2088Y1556D02*
X2067D01*
Y1522D01*
X2088D01*
Y1556D01*
D02*
G37*
G36*
X1724Y1539D02*
X1702D01*
Y1518D01*
X1724D01*
Y1539D01*
D02*
G37*
G36*
X791Y1536D02*
X768D01*
Y1515D01*
X791D01*
Y1536D01*
D02*
G37*
G36*
X349Y1475D02*
X322D01*
Y1444D01*
X349D01*
Y1475D01*
D02*
G37*
G36*
X2306Y1337D02*
X2286D01*
Y1317D01*
X2287Y1317D01*
X2294Y1320D01*
X2299Y1324D01*
X2303Y1329D01*
X2306Y1336D01*
X2306Y1337D01*
D02*
G37*
G36*
X2231Y1468D02*
X2224Y1467D01*
X2218Y1465D01*
X2212Y1461D01*
X2208Y1455D01*
X2206Y1449D01*
X2205Y1442D01*
X2206Y1436D01*
X2208Y1429D01*
X2212Y1424D01*
X2217Y1420D01*
X2218Y1417D01*
Y1417D01*
X2217Y1415D01*
X2212Y1411D01*
X2208Y1405D01*
X2206Y1399D01*
X2205Y1392D01*
X2206Y1386D01*
X2208Y1379D01*
X2212Y1374D01*
X2217Y1370D01*
X2218Y1367D01*
Y1367D01*
X2217Y1365D01*
X2212Y1361D01*
X2208Y1355D01*
X2206Y1349D01*
X2205Y1342D01*
X2206Y1336D01*
X2208Y1329D01*
X2212Y1324D01*
X2218Y1320D01*
X2224Y1317D01*
X2231Y1316D01*
X2237Y1317D01*
X2244Y1320D01*
X2249Y1324D01*
X2253Y1329D01*
X2256Y1330D01*
X2256D01*
X2258Y1329D01*
X2262Y1324D01*
X2268Y1320D01*
X2274Y1317D01*
X2276Y1317D01*
Y1342D01*
X2281D01*
Y1347D01*
X2306D01*
X2306Y1349D01*
X2303Y1355D01*
X2299Y1361D01*
X2294Y1365D01*
X2293Y1367D01*
Y1367D01*
X2294Y1370D01*
X2299Y1374D01*
X2303Y1379D01*
X2306Y1386D01*
X2306Y1387D01*
X2281D01*
Y1397D01*
X2306D01*
X2306Y1399D01*
X2303Y1405D01*
X2299Y1411D01*
X2294Y1415D01*
X2293Y1417D01*
Y1417D01*
X2294Y1420D01*
X2299Y1424D01*
X2303Y1429D01*
X2306Y1436D01*
X2306Y1437D01*
X2281D01*
Y1442D01*
X2276D01*
Y1468D01*
X2274Y1467D01*
X2268Y1465D01*
X2262Y1461D01*
X2258Y1456D01*
X2256Y1455D01*
X2256D01*
X2253Y1456D01*
X2249Y1461D01*
X2244Y1465D01*
X2237Y1467D01*
X2231Y1468D01*
D02*
G37*
G36*
X348Y1345D02*
X305D01*
Y1315D01*
X348D01*
Y1345D01*
D02*
G37*
G36*
X1995Y1354D02*
Y1322D01*
X2027D01*
X2026Y1327D01*
X2022Y1336D01*
X2016Y1344D01*
X2009Y1350D01*
X2000Y1353D01*
X1995Y1354D01*
D02*
G37*
G36*
X1556Y1338D02*
X1533D01*
Y1317D01*
X1556D01*
Y1338D01*
D02*
G37*
G36*
X1523D02*
X1501D01*
Y1317D01*
X1523D01*
Y1338D01*
D02*
G37*
G36*
X2027Y1312D02*
X1995D01*
Y1281D01*
X2000Y1281D01*
X2009Y1285D01*
X2016Y1291D01*
X2022Y1299D01*
X2026Y1308D01*
X2027Y1312D01*
D02*
G37*
G36*
X545Y1222D02*
X522D01*
Y1201D01*
X545D01*
Y1222D01*
D02*
G37*
G36*
X1539Y1209D02*
X1517D01*
Y1188D01*
X1539D01*
Y1209D01*
D02*
G37*
G36*
X253Y1209D02*
X215D01*
Y1185D01*
X253D01*
Y1209D01*
D02*
G37*
G36*
Y1241D02*
X215D01*
Y1217D01*
X253D01*
Y1241D01*
D02*
G37*
G36*
X205D02*
X166D01*
Y1217D01*
X205D01*
Y1241D01*
D02*
G37*
G36*
X577Y1222D02*
X555D01*
Y1201D01*
X577D01*
Y1222D01*
D02*
G37*
G36*
X1283Y1348D02*
X1261D01*
Y1327D01*
X1283D01*
Y1348D01*
D02*
G37*
G36*
X596Y1448D02*
X574D01*
Y1427D01*
X596D01*
Y1448D01*
D02*
G37*
G36*
X564D02*
X541D01*
Y1427D01*
X564D01*
Y1448D01*
D02*
G37*
G36*
X1438Y1420D02*
X1417D01*
Y1410D01*
X1425D01*
X1430Y1412D01*
X1435Y1415D01*
X1438Y1419D01*
X1438Y1420D01*
D02*
G37*
G36*
X312Y1475D02*
X286D01*
Y1444D01*
X312D01*
Y1475D01*
D02*
G37*
G36*
X1296Y1449D02*
X1273D01*
Y1428D01*
X1296D01*
Y1449D01*
D02*
G37*
G36*
X1263D02*
X1241D01*
Y1428D01*
X1263D01*
Y1449D01*
D02*
G37*
G36*
X1407Y1420D02*
X1386D01*
X1386Y1419D01*
X1389Y1415D01*
X1394Y1412D01*
X1399Y1410D01*
X1407D01*
Y1420D01*
D02*
G37*
G36*
X1489Y1369D02*
X1434D01*
Y1352D01*
X1425D01*
X1420Y1351D01*
X1415Y1348D01*
X1406Y1339D01*
X1405Y1339D01*
X1397Y1338D01*
X1390Y1333D01*
X1385Y1326D01*
X1384Y1318D01*
X1385Y1310D01*
X1390Y1303D01*
X1397Y1298D01*
X1405Y1297D01*
X1413Y1298D01*
X1420Y1303D01*
X1423Y1307D01*
X1428Y1306D01*
Y1275D01*
X1473D01*
Y1281D01*
Y1309D01*
X1461D01*
Y1317D01*
X1489D01*
Y1369D01*
D02*
G37*
G36*
X205Y1380D02*
X166D01*
Y1333D01*
X205D01*
Y1380D01*
D02*
G37*
G36*
X1316Y1348D02*
X1293D01*
Y1327D01*
X1316D01*
Y1348D01*
D02*
G37*
G36*
X504Y1556D02*
X441D01*
Y1485D01*
X458D01*
Y1476D01*
X441D01*
Y1405D01*
X468D01*
X469Y1400D01*
X466Y1395D01*
X464Y1387D01*
X466Y1379D01*
X470Y1373D01*
X476Y1369D01*
X484Y1367D01*
X492Y1369D01*
X498Y1373D01*
X502Y1379D01*
X504Y1387D01*
X502Y1395D01*
X499Y1400D01*
X500Y1405D01*
X504D01*
Y1476D01*
X487D01*
Y1485D01*
X504D01*
Y1556D01*
D02*
G37*
G36*
X1556Y1369D02*
X1533D01*
Y1348D01*
X1556D01*
Y1369D01*
D02*
G37*
G36*
X1523D02*
X1501D01*
Y1348D01*
X1523D01*
Y1369D01*
D02*
G37*
%LPD*%
D10*
X635Y1453D02*
D03*
X569D02*
D03*
X1462Y1343D02*
D03*
X1528D02*
D03*
X1512Y1183D02*
D03*
X1578D02*
D03*
X1563Y1548D02*
D03*
X1497D02*
D03*
X550Y1196D02*
D03*
X616D02*
D03*
X1488Y1025D02*
D03*
X1422D02*
D03*
X635Y1510D02*
D03*
X569D02*
D03*
X763D02*
D03*
X697D02*
D03*
X1268Y1423D02*
D03*
X1202D02*
D03*
X1222Y1353D02*
D03*
X1288D02*
D03*
X1070Y1523D02*
D03*
X1004D02*
D03*
X1697Y1458D02*
D03*
X1763D02*
D03*
Y1513D02*
D03*
X1697D02*
D03*
X1642Y1218D02*
D03*
X1708D02*
D03*
X1708Y1305D02*
D03*
X1641D02*
D03*
X1652Y1083D02*
D03*
X1718D02*
D03*
Y1138D02*
D03*
X1652D02*
D03*
X492Y1257D02*
D03*
X558D02*
D03*
Y1328D02*
D03*
X492D02*
D03*
X697Y1453D02*
D03*
X763D02*
D03*
X1763Y1403D02*
D03*
X1697D02*
D03*
X1652Y908D02*
D03*
X1718D02*
D03*
X2048Y934D02*
D03*
X1982D02*
D03*
X1344Y1183D02*
D03*
X1277D02*
D03*
X1297Y1258D02*
D03*
X1363D02*
D03*
D11*
X203Y967D02*
D03*
Y893D02*
D03*
X287Y967D02*
D03*
Y930D02*
D03*
Y893D02*
D03*
D12*
X634Y961D02*
D03*
Y895D02*
D03*
X495Y1153D02*
D03*
Y1087D02*
D03*
X1021Y968D02*
D03*
Y902D02*
D03*
X636Y1060D02*
D03*
Y1126D02*
D03*
X1815Y935D02*
D03*
Y1001D02*
D03*
X1870Y935D02*
D03*
Y1001D02*
D03*
D13*
X317Y1480D02*
D03*
X243D02*
D03*
X398Y1440D02*
D03*
X472D02*
D03*
Y1520D02*
D03*
X398D02*
D03*
X2043Y1006D02*
D03*
X1968D02*
D03*
D14*
X2093Y1517D02*
D03*
X1959D02*
D03*
D15*
X562Y991D02*
D03*
X488D02*
D03*
X525Y901D02*
D03*
D16*
X1155Y969D02*
D03*
X1092D02*
D03*
Y1055D02*
D03*
X1155D02*
D03*
D17*
X782Y1377D02*
D03*
X801D02*
D03*
X821D02*
D03*
X841D02*
D03*
X860D02*
D03*
X880D02*
D03*
X900D02*
D03*
X920D02*
D03*
X939D02*
D03*
X959D02*
D03*
X979D02*
D03*
X998D02*
D03*
Y1059D02*
D03*
X979D02*
D03*
X959D02*
D03*
X939D02*
D03*
X920D02*
D03*
X900D02*
D03*
X880D02*
D03*
X860D02*
D03*
X841D02*
D03*
X821D02*
D03*
X801D02*
D03*
X782D02*
D03*
D18*
X1049Y1326D02*
D03*
Y1307D02*
D03*
Y1287D02*
D03*
Y1267D02*
D03*
Y1248D02*
D03*
Y1228D02*
D03*
Y1208D02*
D03*
Y1188D02*
D03*
Y1169D02*
D03*
Y1149D02*
D03*
Y1129D02*
D03*
Y1110D02*
D03*
X731D02*
D03*
Y1129D02*
D03*
Y1149D02*
D03*
Y1169D02*
D03*
Y1188D02*
D03*
Y1208D02*
D03*
Y1228D02*
D03*
Y1248D02*
D03*
Y1267D02*
D03*
Y1287D02*
D03*
Y1307D02*
D03*
Y1326D02*
D03*
D19*
X210Y1328D02*
D03*
Y1098D02*
D03*
D20*
Y1180D02*
D03*
Y1246D02*
D03*
D21*
X314Y1213D02*
D03*
Y1187D02*
D03*
Y1162D02*
D03*
Y1264D02*
D03*
Y1239D02*
D03*
D22*
X300Y1116D02*
D03*
Y1310D02*
D03*
D23*
X1539Y1137D02*
D03*
Y1111D02*
D03*
Y1085D02*
D03*
X1451D02*
D03*
Y1111D02*
D03*
Y1137D02*
D03*
Y1295D02*
D03*
Y1270D02*
D03*
Y1244D02*
D03*
X1539D02*
D03*
Y1270D02*
D03*
Y1295D02*
D03*
D24*
X1568Y1425D02*
D03*
Y1450D02*
D03*
Y1476D02*
D03*
Y1501D02*
D03*
X1412Y1425D02*
D03*
Y1450D02*
D03*
Y1476D02*
D03*
Y1501D02*
D03*
Y971D02*
D03*
Y946D02*
D03*
Y920D02*
D03*
Y895D02*
D03*
X1568Y971D02*
D03*
Y946D02*
D03*
Y920D02*
D03*
Y895D02*
D03*
D25*
X494Y901D02*
X525D01*
X453Y860D02*
X494Y901D01*
X525Y895D02*
X628D01*
X488Y993D02*
Y1095D01*
X525Y992D02*
X592D01*
D26*
X210Y860D02*
X453D01*
X629Y1239D02*
X630Y1240D01*
X629Y1209D02*
Y1239D01*
X635Y1409D02*
Y1453D01*
X685Y1333D02*
Y1359D01*
X635Y1409D02*
X685Y1359D01*
X635Y1510D02*
Y1535D01*
Y1453D02*
Y1510D01*
Y1535D02*
X673Y1573D01*
X1155D01*
X484Y1421D02*
X488Y1425D01*
X484Y1387D02*
Y1421D01*
X472Y1440D02*
X488Y1425D01*
X386Y1297D02*
Y1429D01*
X378Y1289D02*
X386Y1297D01*
X353Y1264D02*
X378Y1289D01*
X472Y1440D02*
Y1520D01*
X420Y1095D02*
X488D01*
X413Y1088D02*
X420Y1095D01*
X488Y991D02*
Y999D01*
X287Y893D02*
X344D01*
X413Y862D02*
Y930D01*
X288Y967D02*
X335D01*
X287Y967D02*
X288Y967D01*
X203Y932D02*
Y967D01*
Y867D02*
X210Y860D01*
X203Y867D02*
Y893D01*
X630Y1240D02*
X663D01*
X2117Y1003D02*
X2165Y955D01*
X2055Y1003D02*
X2117D01*
X2165Y955D02*
X2267D01*
X2281Y969D01*
X1600Y983D02*
X1630D01*
X1588Y971D02*
X1600Y983D01*
X2033Y1117D02*
X2054Y1096D01*
Y952D02*
Y1096D01*
X2047Y945D02*
X2054Y952D01*
X1990Y1117D02*
X2033D01*
X1372Y1501D02*
X1423D01*
X1350Y1523D02*
X1372Y1501D01*
X1405Y1158D02*
X1427Y1136D01*
X1215Y1513D02*
X1300D01*
X1155Y1573D02*
X1215Y1513D01*
X1370Y1018D02*
X1422D01*
X1423Y971D02*
Y1016D01*
X1405Y1151D02*
X1407Y1150D01*
X1600Y1136D02*
X1650D01*
X315Y1264D02*
X353D01*
X2281Y969D02*
Y992D01*
X1623Y1501D02*
X1645Y1523D01*
X1405Y1313D02*
Y1318D01*
X1578Y1501D02*
X1623D01*
X1578D02*
Y1548D01*
X1427Y1136D02*
X1447D01*
Y1296D02*
Y1323D01*
X1405Y1318D02*
X1425Y1338D01*
X1462D01*
X1630Y983D02*
X1632D01*
X1590Y1263D02*
Y1296D01*
X1548D02*
X1590D01*
X1638D01*
X1578Y1183D02*
X1590Y1171D01*
Y1136D02*
Y1171D01*
X1533Y1136D02*
X1590D01*
X1310Y1523D02*
X1350D01*
X1300Y1513D02*
X1310Y1523D01*
X1557Y971D02*
X1588D01*
D27*
X674Y1110D02*
X731D01*
X677Y1124D02*
X677D01*
X683Y1129D01*
X731D01*
X673Y1120D02*
X677Y1124D01*
X689Y1149D02*
X731D01*
X677D02*
X689D01*
X638Y1142D02*
X670D01*
X677Y1149D01*
X446Y1254D02*
X491D01*
X494Y1257D01*
X621Y1287D02*
X731D01*
X589Y1319D02*
X621Y1287D01*
X558Y1319D02*
X589D01*
X439D02*
X492D01*
X418Y1298D02*
X439Y1319D01*
X418Y1240D02*
Y1298D01*
X390Y1212D02*
X418Y1240D01*
X315Y1212D02*
X390D01*
X571Y1267D02*
X731D01*
X315Y1238D02*
X371D01*
X387Y1254D01*
X1498Y1100D02*
X1509Y1111D01*
X1498Y1090D02*
Y1100D01*
X1468Y1060D02*
X1498Y1090D01*
X1360Y946D02*
X1423D01*
X1294Y1012D02*
X1360Y946D01*
X1294Y1012D02*
Y1081D01*
X1357Y920D02*
X1423D01*
X1271Y1006D02*
X1357Y920D01*
X1271Y1006D02*
Y1074D01*
X1049Y1248D02*
X1180D01*
X1107Y1441D02*
X1150D01*
X1177Y1468D01*
X1205Y1170D02*
X1294Y1081D01*
X1190Y1155D02*
X1271Y1074D01*
X1185Y1131D02*
X1243Y1073D01*
Y980D02*
Y1073D01*
Y980D02*
X1256Y967D01*
X1182Y1105D02*
X1220Y1067D01*
Y933D02*
Y1067D01*
X1049Y1228D02*
X1108D01*
X1146Y1155D02*
X1190D01*
X1132Y1169D02*
X1146Y1155D01*
X1132Y1169D02*
Y1204D01*
X1108Y1228D02*
X1132Y1204D01*
X1049Y1188D02*
X1096D01*
X1133Y1131D02*
X1185D01*
X1109Y1155D02*
X1133Y1131D01*
X1109Y1155D02*
Y1175D01*
X1096Y1188D02*
X1109Y1175D01*
X1049Y1129D02*
X1102D01*
X1126Y1105D02*
X1182D01*
X1102Y1129D02*
X1126Y1105D01*
X1256Y933D02*
Y967D01*
X940Y870D02*
X962Y892D01*
Y912D01*
X935Y919D02*
Y1000D01*
X921Y905D02*
X935Y919D01*
X920Y1015D02*
X935Y1000D01*
X895Y905D02*
X921D01*
X735Y935D02*
Y981D01*
Y935D02*
X745Y925D01*
Y905D02*
Y925D01*
X735Y981D02*
X760Y1006D01*
X860Y870D02*
X940D01*
X845Y885D02*
X860Y870D01*
X845Y885D02*
Y905D01*
X760Y1006D02*
X863D01*
X775Y988D02*
X878D01*
X760Y973D02*
X775Y988D01*
X760Y940D02*
Y973D01*
Y940D02*
X795Y905D01*
X920Y1015D02*
Y1059D01*
X970Y968D02*
X1021D01*
X959Y980D02*
X970Y968D01*
X959Y980D02*
Y1059D01*
X1055Y1012D02*
X1138D01*
X1051Y1016D02*
X1055Y1012D01*
X1051Y1016D02*
Y1039D01*
X1031Y1059D02*
X1051Y1039D01*
X998Y1059D02*
X1031D01*
X1138Y1012D02*
X1155Y995D01*
Y969D02*
Y995D01*
X1092Y1061D02*
Y1095D01*
X1077Y1110D02*
X1092Y1095D01*
X1049Y1110D02*
X1077D01*
X1358Y1060D02*
X1468D01*
X1345Y1073D02*
X1358Y1060D01*
X1760Y1040D02*
Y1090D01*
X1718Y998D02*
X1760Y1040D01*
X1718Y908D02*
Y998D01*
X1652Y1046D02*
X1660Y1038D01*
Y960D02*
Y1038D01*
X1646Y946D02*
X1660Y960D01*
X1557Y946D02*
X1646D01*
X243Y1390D02*
Y1480D01*
X1205Y1170D02*
Y1193D01*
X900Y1378D02*
Y1453D01*
X900Y1377D02*
X900Y1378D01*
X860Y1377D02*
Y1428D01*
X841Y1448D02*
X860Y1428D01*
X930Y1432D02*
Y1470D01*
X920Y1422D02*
X930Y1432D01*
X920Y1377D02*
Y1422D01*
X997Y1523D02*
X1004D01*
X959Y1485D02*
X997Y1523D01*
X959Y1377D02*
Y1485D01*
X843Y1495D02*
X948D01*
X959Y1485D01*
X801Y1453D02*
X843Y1495D01*
X675Y1228D02*
X731D01*
X663Y1240D02*
X675Y1228D01*
X2168Y992D02*
X2231D01*
X2077Y1083D02*
X2168Y992D01*
X2077Y1083D02*
Y1121D01*
X660Y1175D02*
X673Y1188D01*
X689Y1159D02*
X699Y1169D01*
X689Y1149D02*
Y1159D01*
X673Y1188D02*
X731D01*
X699Y1169D02*
X731D01*
X641Y1307D02*
X731D01*
X979Y1000D02*
Y1059D01*
X863Y1006D02*
X880Y1024D01*
X878Y988D02*
X900Y1010D01*
Y1059D01*
X860Y1130D02*
X860Y1130D01*
Y1059D02*
Y1130D01*
X880Y1024D02*
Y1059D01*
X2030Y1168D02*
X2077Y1121D01*
X1835Y1168D02*
X2030D01*
X1079Y1514D02*
X1143D01*
X1020Y1473D02*
X1152D01*
X1166Y1486D01*
X1353D01*
X1177Y1468D02*
X1345D01*
X979Y1432D02*
X1020Y1473D01*
X1480Y1223D02*
X1500Y1243D01*
X1270Y1223D02*
X1480D01*
X1204Y1289D02*
X1270Y1223D01*
X1345Y1133D02*
X1350D01*
X1398Y1085D01*
X1376Y1245D02*
X1447D01*
X1156Y1289D02*
X1204D01*
X1272Y1193D02*
Y1221D01*
X1805Y1138D02*
X1835Y1168D01*
X1718Y1138D02*
X1805D01*
X1835Y1168D02*
Y1262D01*
X1890Y1317D01*
X1578Y1218D02*
X1642D01*
X1551Y1245D02*
X1578Y1218D01*
X1134Y1267D02*
X1156Y1289D01*
X1049Y1267D02*
X1134D01*
X1141Y1309D02*
X1217D01*
X1119Y1287D02*
X1141Y1309D01*
X1049Y1287D02*
X1119D01*
X1533Y1245D02*
X1551D01*
X1708Y1223D02*
Y1305D01*
X1783D01*
X1398Y1085D02*
X1447D01*
X1000Y1393D02*
X1003Y1390D01*
X1049Y1326D02*
X1120D01*
X697Y1458D02*
Y1512D01*
X757Y1466D02*
X764Y1459D01*
Y1429D02*
Y1459D01*
Y1429D02*
X782Y1411D01*
Y1377D02*
Y1421D01*
X1049Y1307D02*
X1100D01*
X841Y1377D02*
Y1448D01*
X1533Y1085D02*
X1649D01*
X1557Y920D02*
X1639D01*
X979Y1377D02*
Y1432D01*
X315Y1161D02*
X375D01*
X210Y1098D02*
Y1327D01*
X731Y1248D02*
X810D01*
X959Y1059D02*
Y1132D01*
X731Y1326D02*
X797D01*
X692D02*
X731D01*
X685Y1333D02*
X692Y1326D01*
X1660Y1458D02*
X1697D01*
X1557Y1450D02*
X1618D01*
X1665Y1403D01*
X1697D01*
X1557Y1476D02*
X1642D01*
X1660Y1458D01*
X1405Y1271D02*
X1483D01*
X1509Y1111D02*
X1533D01*
X1500Y1243D02*
Y1258D01*
X1513Y1271D01*
X1533D01*
X1763Y1458D02*
Y1513D01*
X1940Y1267D02*
X1990Y1217D01*
X731Y1149D02*
X796D01*
X1925Y928D02*
X1977D01*
X1815Y1001D02*
X1870D01*
X1943D01*
X1822Y928D02*
X1925D01*
X1447Y1111D02*
X1478D01*
X1501Y1134D01*
Y1144D01*
X1501Y1144D01*
Y1172D01*
X1202Y1391D02*
Y1423D01*
X1200Y1390D02*
X1202Y1391D01*
X1003Y1390D02*
X1200D01*
X1217Y1309D02*
X1281Y1245D01*
X1170Y1353D02*
X1222D01*
X1363Y1450D02*
X1423D01*
X1364Y1476D02*
X1423D01*
X1353Y1486D02*
X1364Y1476D01*
X1345Y1468D02*
X1363Y1450D01*
X1367Y1425D02*
X1482D01*
X1495Y1305D02*
X1528Y1338D01*
X1490Y978D02*
Y1053D01*
X1718Y1083D02*
Y1138D01*
X1652Y1046D02*
Y1083D01*
X1200Y1390D02*
X1482D01*
X1517Y1425D01*
X1557D01*
X1783Y1305D02*
X1862Y1384D01*
X2120Y1102D02*
X2180Y1042D01*
X2231D01*
X1917Y1384D02*
X1940Y1361D01*
Y1267D02*
Y1361D01*
X1862Y1384D02*
X1917D01*
X1763Y1403D02*
X1790D01*
X1759Y1399D02*
X1760Y1398D01*
X1861Y1494D02*
X1959D01*
X1790Y1403D02*
X1822Y1435D01*
X1987D01*
X1763Y1458D02*
X2009D01*
X2068Y1321D02*
Y1354D01*
X2120Y1102D02*
Y1347D01*
X2009Y1458D02*
X2120Y1347D01*
X1987Y1435D02*
X2068Y1354D01*
X1787Y1117D02*
X1890D01*
X1760Y1090D02*
X1787Y1117D01*
X1147Y1353D02*
X1170D01*
X1100Y1307D02*
X1120Y1326D01*
X1147Y1353D01*
X801Y1377D02*
Y1453D01*
D28*
X413Y1018D02*
D03*
Y1097D02*
D03*
D29*
Y939D02*
D03*
D30*
X2281Y992D02*
D03*
D31*
X2231D02*
D03*
X2281Y1042D02*
D03*
X2231D02*
D03*
X2281Y1092D02*
D03*
X2231D02*
D03*
Y1142D02*
D03*
X2281Y1192D02*
D03*
X2231D02*
D03*
X2281Y1342D02*
D03*
X2231D02*
D03*
X2281Y1392D02*
D03*
X2231D02*
D03*
X2281Y1442D02*
D03*
X2231D02*
D03*
X695Y905D02*
D03*
Y955D02*
D03*
X745Y905D02*
D03*
X795D02*
D03*
Y955D02*
D03*
X845Y905D02*
D03*
Y955D02*
D03*
X895Y905D02*
D03*
D32*
Y955D02*
D03*
D33*
X1890Y1117D02*
D03*
Y1217D02*
D03*
X1990Y1117D02*
D03*
Y1217D02*
D03*
Y1317D02*
D03*
D34*
X1890D02*
D03*
D35*
X2149Y898D02*
D03*
D36*
X561Y938D02*
D03*
X627Y1359D02*
D03*
X660Y1315D02*
D03*
X431Y1381D02*
D03*
X484Y1387D02*
D03*
X446Y1254D02*
D03*
X569Y1555D02*
D03*
X525Y1463D02*
D03*
X1326Y1036D02*
D03*
X561Y1039D02*
D03*
X596Y992D02*
D03*
X525D02*
D03*
X344Y893D02*
D03*
X335Y967D02*
D03*
X203Y932D02*
D03*
X1700Y1040D02*
D03*
X1302Y930D02*
D03*
X364Y1176D02*
D03*
X900Y1453D02*
D03*
X930Y1470D02*
D03*
X185Y1560D02*
D03*
Y1495D02*
D03*
X370Y1565D02*
D03*
X660Y1175D02*
D03*
D37*
X387Y1254D02*
D03*
X1107Y1441D02*
D03*
X1256Y933D02*
D03*
X1220D02*
D03*
X962Y912D02*
D03*
X630Y1240D02*
D03*
X1069Y888D02*
D03*
X860Y1130D02*
D03*
X803D02*
D03*
X1765Y950D02*
D03*
X1805Y1070D02*
D03*
X1143Y1514D02*
D03*
X1413Y1553D02*
D03*
X1350Y1523D02*
D03*
X1405Y1158D02*
D03*
X1345Y1133D02*
D03*
Y1073D02*
D03*
X1180Y1248D02*
D03*
X1205Y1193D02*
D03*
X1455Y1183D02*
D03*
X1590Y1263D02*
D03*
X1370Y1018D02*
D03*
X1563Y1048D02*
D03*
X1590Y1136D02*
D03*
X1645Y1523D02*
D03*
X2151Y1516D02*
D03*
X1833Y1553D02*
D03*
X1490Y1463D02*
D03*
Y923D02*
D03*
X1590Y1338D02*
D03*
X943Y1534D02*
D03*
X1405Y1318D02*
D03*
X2160Y1143D02*
D03*
Y1233D02*
D03*
Y1318D02*
D03*
X1925Y928D02*
D03*
X1780Y1205D02*
D03*
X1170Y1353D02*
D03*
X1350Y1348D02*
D03*
X1630Y983D02*
D03*
X1761Y1343D02*
D03*
X1325Y1428D02*
D03*
X1241Y1551D02*
D03*
X1861Y1383D02*
D03*
X1861Y1494D02*
D03*
X2068Y1321D02*
D03*
X2105Y960D02*
D03*
X841Y1448D02*
D03*
M02*
