G04 Layer_Physical_Order=2*
G04 Layer_Color=16711680*
%FSLAX23Y23*%
%MOIN*%
G70*
G01*
G75*
%ADD25C,0.010*%
%ADD29C,0.028*%
%ADD30C,0.055*%
%ADD31C,0.039*%
%ADD32R,0.039X0.039*%
%ADD33R,0.039X0.039*%
%ADD34O,0.062X0.055*%
%ADD35R,0.062X0.055*%
%ADD36C,0.047*%
%ADD37R,0.047X0.047*%
%ADD38C,0.027*%
%ADD39C,0.031*%
G36*
X1599Y-367D02*
X1089D01*
X1087Y-362D01*
X1114Y-334D01*
X1118Y-335D01*
X1125Y-333D01*
X1132Y-329D01*
X1136Y-323D01*
X1138Y-315D01*
X1136Y-307D01*
X1134Y-305D01*
X1137Y-300D01*
X1347D01*
X1356Y-310D01*
X1356Y-313D01*
X1357Y-321D01*
X1362Y-327D01*
X1368Y-331D01*
X1376Y-333D01*
X1383Y-331D01*
X1390Y-327D01*
X1394Y-321D01*
X1396Y-313D01*
X1394Y-305D01*
X1390Y-299D01*
X1383Y-295D01*
X1376Y-293D01*
X1372Y-294D01*
X1360Y-281D01*
X1356Y-279D01*
X1352Y-278D01*
X1103D01*
X1098Y-279D01*
X1095Y-281D01*
X1046Y-330D01*
X577D01*
X530Y-282D01*
X531Y-279D01*
X529Y-271D01*
X525Y-265D01*
X518Y-261D01*
X511Y-259D01*
X503Y-261D01*
X497Y-265D01*
X492Y-271D01*
X491Y-279D01*
X492Y-287D01*
X497Y-293D01*
X503Y-297D01*
X505Y-298D01*
Y-303D01*
X502Y-304D01*
X496Y-308D01*
X491Y-314D01*
X490Y-322D01*
X491Y-330D01*
X496Y-336D01*
X502Y-340D01*
X510Y-342D01*
X511Y-342D01*
X531Y-362D01*
X529Y-367D01*
X-586D01*
Y367D01*
X1599D01*
Y-367D01*
D02*
G37*
%LPC*%
G36*
X1177Y133D02*
X1103D01*
Y78D01*
X1073Y48D01*
X1070Y45D01*
X1070Y40D01*
Y-45D01*
X1067Y-47D01*
X1062Y-53D01*
X1061Y-61D01*
X1062Y-69D01*
X1067Y-75D01*
X1073Y-79D01*
X1081Y-81D01*
X1088Y-79D01*
X1095Y-75D01*
X1099Y-69D01*
X1101Y-61D01*
X1099Y-53D01*
X1095Y-47D01*
X1092Y-45D01*
Y36D01*
X1123Y67D01*
X1177D01*
Y133D01*
D02*
G37*
G36*
X386Y-35D02*
X377Y-36D01*
X369Y-40D01*
X362Y-45D01*
X356Y-52D01*
X353Y-60D01*
X352Y-69D01*
X353Y-78D01*
X356Y-86D01*
X362Y-93D01*
X369Y-98D01*
X377Y-102D01*
X386Y-103D01*
X394Y-102D01*
X403Y-98D01*
X410Y-93D01*
X415Y-86D01*
X418Y-78D01*
X419Y-69D01*
X418Y-60D01*
X415Y-52D01*
X410Y-45D01*
X403Y-40D01*
X394Y-36D01*
X386Y-35D01*
D02*
G37*
G36*
X1535Y-100D02*
Y-120D01*
X1556D01*
X1555Y-118D01*
X1553Y-112D01*
X1549Y-107D01*
X1543Y-103D01*
X1537Y-100D01*
X1535Y-100D01*
D02*
G37*
G36*
X-337Y-20D02*
X-345Y-21D01*
X-352Y-24D01*
X-358Y-29D01*
X-363Y-35D01*
X-366Y-43D01*
X-367Y-50D01*
X-366Y-58D01*
X-363Y-65D01*
X-358Y-71D01*
X-352Y-76D01*
X-345Y-79D01*
X-337Y-80D01*
X-330Y-79D01*
X-322Y-76D01*
X-316Y-71D01*
X-311Y-65D01*
X-309Y-58D01*
X-307Y-50D01*
X-309Y-43D01*
X-311Y-35D01*
X-316Y-29D01*
X-322Y-24D01*
X-330Y-21D01*
X-337Y-20D01*
D02*
G37*
G36*
X1235Y95D02*
X1203D01*
X1204Y91D01*
X1207Y83D01*
X1212Y76D01*
X1219Y71D01*
X1227Y67D01*
X1235Y66D01*
Y95D01*
D02*
G37*
G36*
X357Y243D02*
X349Y241D01*
X343Y237D01*
X338Y231D01*
X337Y223D01*
X338Y215D01*
X343Y209D01*
X346Y207D01*
Y113D01*
X346Y109D01*
X349Y105D01*
X397Y56D01*
X397Y53D01*
X398Y45D01*
X403Y39D01*
X409Y35D01*
X417Y33D01*
X424Y35D01*
X431Y39D01*
X435Y45D01*
X437Y53D01*
X435Y61D01*
X431Y67D01*
X424Y71D01*
X417Y73D01*
X413Y72D01*
X368Y118D01*
Y207D01*
X371Y209D01*
X375Y215D01*
X377Y223D01*
X375Y231D01*
X371Y237D01*
X364Y241D01*
X357Y243D01*
D02*
G37*
G36*
X91Y242D02*
X83Y240D01*
X77Y236D01*
X72Y230D01*
X71Y222D01*
X72Y214D01*
X77Y208D01*
X83Y204D01*
X91Y202D01*
X94Y203D01*
X169Y128D01*
X172Y126D01*
X177Y125D01*
X177Y125D01*
X253D01*
X379Y-1D01*
X379Y-1D01*
X382Y-3D01*
X387Y-4D01*
X441D01*
X445Y-3D01*
X449Y-1D01*
X460Y11D01*
X464Y10D01*
X471Y12D01*
X478Y16D01*
X482Y22D01*
X484Y30D01*
X482Y38D01*
X478Y44D01*
X471Y48D01*
X464Y50D01*
X456Y48D01*
X450Y44D01*
X445Y38D01*
X444Y30D01*
X444Y27D01*
X436Y18D01*
X391D01*
X266Y144D01*
X262Y146D01*
X258Y147D01*
X181D01*
X110Y219D01*
X111Y222D01*
X109Y230D01*
X105Y236D01*
X98Y240D01*
X91Y242D01*
D02*
G37*
G36*
X-50Y-238D02*
Y-258D01*
X-30D01*
X-30Y-256D01*
X-33Y-250D01*
X-37Y-245D01*
X-42Y-241D01*
X-49Y-238D01*
X-50Y-238D01*
D02*
G37*
G36*
X-60D02*
X-62Y-238D01*
X-68Y-241D01*
X-74Y-245D01*
X-78Y-250D01*
X-80Y-256D01*
X-81Y-258D01*
X-60D01*
Y-238D01*
D02*
G37*
G36*
X110Y-68D02*
X103Y-70D01*
X96Y-74D01*
X92Y-80D01*
X90Y-88D01*
X92Y-96D01*
X96Y-102D01*
X103Y-106D01*
X110Y-108D01*
X117Y-107D01*
X201Y-191D01*
Y-290D01*
X198Y-292D01*
X193Y-298D01*
X192Y-306D01*
X193Y-314D01*
X198Y-320D01*
X204Y-324D01*
X212Y-326D01*
X219Y-324D01*
X226Y-320D01*
X230Y-314D01*
X232Y-306D01*
X230Y-298D01*
X226Y-292D01*
X223Y-290D01*
Y-186D01*
X222Y-182D01*
X220Y-178D01*
X130Y-89D01*
X130Y-88D01*
X128Y-80D01*
X124Y-74D01*
X118Y-70D01*
X110Y-68D01*
D02*
G37*
G36*
X40Y-238D02*
X38Y-238D01*
X32Y-241D01*
X26Y-245D01*
X22Y-250D01*
X20Y-256D01*
X19Y-258D01*
X40D01*
Y-238D01*
D02*
G37*
G36*
X600Y315D02*
X592Y313D01*
X586Y309D01*
X581Y303D01*
X580Y295D01*
X581Y287D01*
X586Y281D01*
X592Y277D01*
X600Y275D01*
X603Y276D01*
X644Y235D01*
Y153D01*
X641Y151D01*
X636Y145D01*
X635Y137D01*
X636Y129D01*
X641Y123D01*
X644Y121D01*
Y-44D01*
X641Y-46D01*
X636Y-52D01*
X635Y-60D01*
X636Y-68D01*
X641Y-74D01*
X644Y-76D01*
Y-172D01*
X635Y-181D01*
X632Y-180D01*
X624Y-182D01*
X618Y-186D01*
X613Y-192D01*
X612Y-200D01*
X613Y-208D01*
X618Y-214D01*
X624Y-218D01*
X632Y-220D01*
X639Y-218D01*
X646Y-214D01*
X650Y-208D01*
X652Y-200D01*
X651Y-197D01*
X663Y-185D01*
X665Y-181D01*
X666Y-177D01*
Y-76D01*
X669Y-74D01*
X673Y-68D01*
X675Y-60D01*
X673Y-52D01*
X669Y-46D01*
X666Y-44D01*
Y121D01*
X669Y123D01*
X673Y129D01*
X675Y137D01*
X673Y145D01*
X669Y151D01*
X666Y153D01*
Y240D01*
X665Y244D01*
X663Y248D01*
X663Y248D01*
X619Y292D01*
X620Y295D01*
X618Y303D01*
X614Y309D01*
X607Y313D01*
X600Y315D01*
D02*
G37*
G36*
X-308Y-178D02*
X-367D01*
Y-237D01*
X-308D01*
Y-178D01*
D02*
G37*
G36*
X53Y-68D02*
X45Y-70D01*
X39Y-74D01*
X34Y-80D01*
X33Y-88D01*
X34Y-96D01*
X39Y-102D01*
X42Y-104D01*
Y-121D01*
X42Y-125D01*
X45Y-129D01*
X134Y-218D01*
Y-237D01*
X119D01*
Y-244D01*
X114Y-246D01*
X113Y-245D01*
X108Y-241D01*
X101Y-238D01*
X100Y-238D01*
Y-263D01*
X90D01*
Y-238D01*
X88Y-238D01*
X82Y-241D01*
X76Y-245D01*
X72Y-250D01*
X70Y-250D01*
X70D01*
X67Y-250D01*
X63Y-245D01*
X58Y-241D01*
X51Y-238D01*
X50Y-238D01*
Y-263D01*
X45D01*
Y-268D01*
X19D01*
X20Y-270D01*
X22Y-276D01*
X26Y-281D01*
X31Y-285D01*
X32Y-288D01*
Y-288D01*
X31Y-291D01*
X26Y-295D01*
X22Y-300D01*
X20Y-300D01*
X20D01*
X17Y-300D01*
X13Y-295D01*
X8Y-291D01*
X1Y-288D01*
X-5Y-287D01*
X-12Y-288D01*
X-18Y-291D01*
X-24Y-295D01*
X-28Y-300D01*
X-30Y-300D01*
X-30D01*
X-33Y-300D01*
X-37Y-295D01*
X-42Y-291D01*
X-43Y-288D01*
Y-288D01*
X-42Y-285D01*
X-37Y-281D01*
X-33Y-276D01*
X-30Y-270D01*
X-30Y-268D01*
X-81D01*
X-80Y-270D01*
X-78Y-276D01*
X-74Y-281D01*
X-69Y-285D01*
X-68Y-288D01*
Y-288D01*
X-69Y-291D01*
X-74Y-295D01*
X-78Y-300D01*
X-80Y-306D01*
X-81Y-313D01*
X-80Y-320D01*
X-78Y-326D01*
X-74Y-331D01*
X-68Y-335D01*
X-66Y-336D01*
Y-342D01*
X-66Y-346D01*
X-63Y-350D01*
X-56Y-357D01*
X-53Y-359D01*
X-48Y-360D01*
X433D01*
X437Y-359D01*
X441Y-357D01*
X455Y-342D01*
X459Y-343D01*
X466Y-341D01*
X473Y-337D01*
X477Y-331D01*
X479Y-323D01*
X477Y-315D01*
X473Y-309D01*
X466Y-305D01*
X459Y-303D01*
X451Y-305D01*
X445Y-309D01*
X440Y-315D01*
X439Y-323D01*
X439Y-326D01*
X428Y-338D01*
X163D01*
X161Y-333D01*
X163Y-331D01*
X167Y-326D01*
X170Y-320D01*
X171Y-313D01*
X170Y-306D01*
X167Y-300D01*
X163Y-295D01*
X162Y-294D01*
X163Y-289D01*
X170D01*
Y-237D01*
X156D01*
Y-213D01*
X155Y-209D01*
X153Y-205D01*
X153Y-205D01*
X64Y-116D01*
Y-104D01*
X67Y-102D01*
X71Y-96D01*
X73Y-88D01*
X71Y-80D01*
X67Y-74D01*
X60Y-70D01*
X53Y-68D01*
D02*
G37*
G36*
X1094Y301D02*
X1065D01*
X1066Y297D01*
X1069Y289D01*
X1075Y282D01*
X1082Y277D01*
X1090Y273D01*
X1094Y273D01*
Y301D01*
D02*
G37*
G36*
X125Y348D02*
X-485D01*
X-490Y347D01*
X-493Y345D01*
X-568Y270D01*
X-570Y267D01*
X-571Y262D01*
Y-321D01*
X-574Y-323D01*
X-578Y-330D01*
X-580Y-337D01*
X-578Y-345D01*
X-574Y-351D01*
X-568Y-356D01*
X-560Y-357D01*
X-552Y-356D01*
X-546Y-351D01*
X-542Y-345D01*
X-540Y-337D01*
X-542Y-330D01*
X-546Y-323D01*
X-549Y-321D01*
Y-206D01*
X-545Y-205D01*
X-544Y-204D01*
X-538Y-209D01*
X-530Y-210D01*
X-522Y-209D01*
X-516Y-204D01*
X-512Y-198D01*
X-510Y-190D01*
X-512Y-183D01*
X-516Y-176D01*
X-521Y-173D01*
Y-148D01*
X-522Y-144D01*
X-524Y-140D01*
X-530Y-135D01*
Y-113D01*
X-525Y-111D01*
X-469Y-167D01*
Y-176D01*
X-470Y-176D01*
X-474Y-183D01*
X-475Y-190D01*
X-474Y-198D01*
X-470Y-204D01*
X-463Y-209D01*
X-456Y-210D01*
X-448Y-209D01*
X-441Y-204D01*
X-437Y-198D01*
X-436Y-190D01*
X-437Y-183D01*
X-441Y-176D01*
X-447Y-173D01*
Y-162D01*
X-448Y-158D01*
X-450Y-155D01*
X-510Y-94D01*
Y59D01*
X-451Y119D01*
X-349D01*
X-347Y117D01*
X-341Y113D01*
X-333Y111D01*
X-326Y113D01*
X-319Y117D01*
X-318Y119D01*
X-215D01*
X-118Y21D01*
X-118Y18D01*
X-117Y10D01*
X-112Y4D01*
X-106Y-0D01*
X-98Y-2D01*
X-91Y-0D01*
X-84Y4D01*
X-80Y10D01*
X-78Y18D01*
X-80Y26D01*
X-84Y32D01*
X-91Y36D01*
X-98Y38D01*
X-102Y37D01*
X-202Y138D01*
X-206Y140D01*
X-210Y141D01*
X-317D01*
X-319Y145D01*
X-326Y149D01*
X-333Y151D01*
X-341Y149D01*
X-347Y145D01*
X-350Y141D01*
X-455D01*
X-460Y140D01*
X-463Y138D01*
X-525Y76D01*
X-530Y78D01*
Y250D01*
X-470Y310D01*
X109D01*
X139Y280D01*
Y267D01*
X136Y265D01*
X131Y259D01*
X130Y251D01*
X131Y243D01*
X136Y237D01*
X142Y233D01*
X150Y231D01*
X157Y233D01*
X163Y237D01*
X166Y238D01*
X169D01*
X175Y234D01*
X183Y232D01*
X190Y234D01*
X197Y238D01*
X201Y244D01*
X203Y252D01*
X201Y260D01*
X197Y266D01*
X194Y268D01*
Y279D01*
X193Y283D01*
X191Y287D01*
X133Y345D01*
X129Y347D01*
X125Y348D01*
D02*
G37*
G36*
X1535Y250D02*
Y230D01*
X1556D01*
X1555Y232D01*
X1553Y238D01*
X1549Y243D01*
X1543Y247D01*
X1537Y250D01*
X1535Y250D01*
D02*
G37*
G36*
X1132Y301D02*
X1104D01*
Y273D01*
X1107Y273D01*
X1116Y277D01*
X1123Y282D01*
X1128Y289D01*
X1131Y297D01*
X1132Y301D01*
D02*
G37*
G36*
X1104Y339D02*
Y311D01*
X1132D01*
X1131Y315D01*
X1128Y323D01*
X1123Y330D01*
X1116Y335D01*
X1107Y339D01*
X1104Y339D01*
D02*
G37*
G36*
X1094D02*
X1090Y339D01*
X1082Y335D01*
X1075Y330D01*
X1069Y323D01*
X1066Y315D01*
X1065Y311D01*
X1094D01*
Y339D01*
D02*
G37*
G36*
X1246Y324D02*
X1238Y323D01*
X1231Y318D01*
X1227Y312D01*
X1225Y304D01*
X1227Y296D01*
X1231Y290D01*
X1238Y285D01*
X1246Y284D01*
X1253Y285D01*
X1260Y290D01*
X1264Y296D01*
X1266Y304D01*
X1264Y312D01*
X1260Y318D01*
X1253Y323D01*
X1246Y324D01*
D02*
G37*
G36*
X393Y316D02*
X385Y314D01*
X379Y310D01*
X374Y304D01*
X373Y296D01*
X374Y288D01*
X379Y282D01*
X385Y278D01*
X393Y276D01*
X396Y277D01*
X522Y151D01*
X520Y146D01*
X444D01*
X442Y149D01*
X435Y153D01*
X428Y155D01*
X420Y153D01*
X414Y149D01*
X409Y143D01*
X408Y135D01*
X409Y127D01*
X414Y121D01*
X420Y117D01*
X428Y115D01*
X435Y117D01*
X442Y121D01*
X444Y124D01*
X519D01*
X558Y85D01*
Y-119D01*
X558Y-123D01*
X561Y-127D01*
X575Y-142D01*
X575Y-145D01*
X576Y-153D01*
X581Y-159D01*
X587Y-163D01*
X595Y-165D01*
X602Y-163D01*
X609Y-159D01*
X613Y-153D01*
X615Y-145D01*
X613Y-137D01*
X609Y-131D01*
X606Y-129D01*
Y-123D01*
X609Y-121D01*
X613Y-115D01*
X615Y-107D01*
X613Y-99D01*
X609Y-93D01*
X606Y-91D01*
Y94D01*
X605Y98D01*
X603Y102D01*
X603Y102D01*
X412Y293D01*
X413Y296D01*
X411Y304D01*
X407Y310D01*
X400Y314D01*
X393Y316D01*
D02*
G37*
G36*
X-301Y100D02*
X-309Y98D01*
X-315Y94D01*
X-317Y91D01*
X-339D01*
X-344Y90D01*
X-347Y88D01*
X-347Y88D01*
X-354Y81D01*
X-357Y82D01*
X-365Y80D01*
X-371Y76D01*
X-376Y70D01*
X-377Y62D01*
X-376Y54D01*
X-371Y48D01*
X-365Y44D01*
X-357Y42D01*
X-350Y44D01*
X-343Y48D01*
X-339Y54D01*
X-337Y62D01*
X-338Y65D01*
X-335Y69D01*
X-317D01*
X-315Y66D01*
X-309Y62D01*
X-301Y60D01*
X-294Y62D01*
X-287Y66D01*
X-283Y72D01*
X-281Y80D01*
X-283Y88D01*
X-287Y94D01*
X-294Y98D01*
X-301Y100D01*
D02*
G37*
G36*
X868Y302D02*
X860Y300D01*
X854Y296D01*
X849Y290D01*
X848Y282D01*
X849Y274D01*
X854Y268D01*
X857Y266D01*
Y90D01*
X838Y71D01*
X835Y72D01*
X827Y70D01*
X821Y66D01*
X816Y60D01*
X815Y52D01*
X816Y44D01*
X821Y38D01*
X824Y36D01*
Y-66D01*
X821Y-68D01*
X816Y-74D01*
X815Y-82D01*
X816Y-89D01*
X821Y-96D01*
X824Y-98D01*
Y-167D01*
X809Y-182D01*
X806Y-186D01*
X806Y-190D01*
Y-197D01*
X803Y-199D01*
X798Y-205D01*
X797Y-213D01*
X798Y-221D01*
X803Y-227D01*
X803Y-227D01*
X804Y-233D01*
X769Y-268D01*
X615D01*
X520Y-172D01*
X516Y-170D01*
X512Y-169D01*
X367D01*
X211Y-13D01*
X208Y-11D01*
X204Y-10D01*
X1D01*
X-3Y-11D01*
X-7Y-13D01*
X-73Y-79D01*
X-234D01*
X-239Y-80D01*
X-242Y-82D01*
X-278Y-118D01*
X-310D01*
X-311Y-114D01*
X-316Y-108D01*
X-322Y-103D01*
X-330Y-100D01*
X-337Y-99D01*
X-345Y-100D01*
X-352Y-103D01*
X-358Y-108D01*
X-363Y-114D01*
X-366Y-121D01*
X-367Y-129D01*
X-366Y-137D01*
X-363Y-144D01*
X-358Y-150D01*
X-352Y-155D01*
X-345Y-158D01*
X-337Y-159D01*
X-330Y-158D01*
X-322Y-155D01*
X-316Y-150D01*
X-311Y-144D01*
X-310Y-140D01*
X-273D01*
X-269Y-139D01*
X-265Y-137D01*
X-230Y-101D01*
X-68D01*
X-64Y-100D01*
X-60Y-98D01*
X5Y-32D01*
X199D01*
X355Y-188D01*
X355Y-188D01*
X358Y-190D01*
X363Y-191D01*
X507D01*
X603Y-287D01*
X603Y-287D01*
X606Y-289D01*
X611Y-290D01*
X774D01*
X778Y-289D01*
X782Y-287D01*
X825Y-244D01*
X827Y-240D01*
X828Y-236D01*
Y-229D01*
X831Y-227D01*
X831Y-226D01*
X1089D01*
X1093Y-225D01*
X1097Y-223D01*
X1202Y-117D01*
X1208Y-119D01*
X1212Y-124D01*
X1219Y-129D01*
X1227Y-133D01*
X1236Y-134D01*
X1243D01*
X1252Y-133D01*
X1260Y-129D01*
X1267Y-124D01*
X1272Y-117D01*
X1273Y-115D01*
X1279Y-114D01*
X1444Y-279D01*
X1447Y-281D01*
X1452Y-282D01*
X1452Y-282D01*
X1518D01*
X1522Y-281D01*
X1526Y-279D01*
X1538Y-266D01*
X1541Y-263D01*
X1541Y-258D01*
Y-251D01*
X1556D01*
Y-199D01*
X1549D01*
X1547Y-194D01*
X1549Y-193D01*
X1553Y-188D01*
X1555Y-182D01*
X1556Y-180D01*
X1530D01*
Y-170D01*
X1556D01*
X1555Y-168D01*
X1553Y-162D01*
X1549Y-157D01*
X1543Y-153D01*
X1543Y-150D01*
Y-150D01*
X1543Y-147D01*
X1549Y-143D01*
X1553Y-138D01*
X1555Y-132D01*
X1556Y-130D01*
X1530D01*
Y-125D01*
X1525D01*
Y-100D01*
X1524Y-100D01*
X1517Y-103D01*
X1512Y-107D01*
X1508Y-112D01*
X1505Y-112D01*
X1505D01*
X1503Y-112D01*
X1499Y-107D01*
X1493Y-103D01*
X1493Y-100D01*
Y-100D01*
X1493Y-97D01*
X1499Y-93D01*
X1503Y-88D01*
X1505Y-82D01*
X1506Y-75D01*
X1505Y-68D01*
X1503Y-62D01*
X1499Y-57D01*
X1493Y-53D01*
X1493Y-50D01*
Y-50D01*
X1493Y-47D01*
X1499Y-43D01*
X1503Y-38D01*
X1505Y-38D01*
X1505D01*
X1508Y-38D01*
X1512Y-43D01*
X1517Y-47D01*
X1524Y-50D01*
X1530Y-51D01*
X1537Y-50D01*
X1543Y-47D01*
X1549Y-43D01*
X1553Y-38D01*
X1555Y-32D01*
X1556Y-25D01*
X1555Y-18D01*
X1553Y-12D01*
X1549Y-7D01*
X1543Y-3D01*
X1537Y0D01*
X1530Y1D01*
X1524Y0D01*
X1517Y-3D01*
X1512Y-7D01*
X1508Y-12D01*
X1505Y-12D01*
X1505D01*
X1503Y-12D01*
X1499Y-7D01*
X1493Y-3D01*
X1487Y0D01*
X1480Y1D01*
X1474Y0D01*
X1467Y-3D01*
X1462Y-7D01*
X1458Y-12D01*
X1457Y-14D01*
X1388D01*
X1383Y-8D01*
X1379Y-6D01*
X1375Y-5D01*
X1280D01*
X1277Y-1D01*
X1277Y0D01*
X1276Y9D01*
X1272Y17D01*
X1267Y24D01*
X1260Y29D01*
X1252Y33D01*
X1243Y34D01*
X1236D01*
X1227Y33D01*
X1219Y29D01*
X1212Y24D01*
X1207Y17D01*
X1204Y9D01*
X1202Y0D01*
X1204Y-9D01*
X1207Y-17D01*
X1212Y-24D01*
X1215Y-26D01*
X1213Y-31D01*
X1186D01*
X1172Y-17D01*
X1172Y-17D01*
X1176Y-9D01*
X1177Y0D01*
X1176Y9D01*
X1172Y17D01*
X1167Y24D01*
X1160Y29D01*
X1152Y33D01*
X1143Y34D01*
X1136D01*
X1127Y33D01*
X1119Y29D01*
X1112Y24D01*
X1107Y17D01*
X1104Y9D01*
X1102Y0D01*
X1104Y-9D01*
X1107Y-17D01*
X1112Y-24D01*
X1119Y-29D01*
X1127Y-33D01*
X1136Y-34D01*
X1143D01*
X1152Y-33D01*
X1155Y-31D01*
X1171Y-47D01*
X1171Y-48D01*
X1171Y-54D01*
X1170Y-54D01*
X1156Y-69D01*
X1152Y-67D01*
X1143Y-66D01*
X1136D01*
X1127Y-67D01*
X1119Y-71D01*
X1112Y-76D01*
X1107Y-83D01*
X1104Y-91D01*
X1102Y-100D01*
X1104Y-109D01*
X1107Y-117D01*
X1112Y-124D01*
X1119Y-129D01*
X1127Y-133D01*
X1136Y-134D01*
X1143D01*
X1148Y-133D01*
X1150Y-138D01*
X1084Y-204D01*
X834D01*
X831Y-199D01*
X830Y-199D01*
X830Y-193D01*
X843Y-180D01*
X843Y-180D01*
X845Y-176D01*
X846Y-172D01*
Y-98D01*
X849Y-96D01*
X853Y-89D01*
X855Y-82D01*
X853Y-74D01*
X849Y-68D01*
X846Y-66D01*
Y36D01*
X849Y38D01*
X853Y44D01*
X855Y52D01*
X854Y55D01*
X876Y77D01*
X876Y77D01*
X878Y81D01*
X879Y85D01*
Y266D01*
X882Y268D01*
X886Y274D01*
X888Y282D01*
X886Y290D01*
X882Y296D01*
X875Y300D01*
X868Y302D01*
D02*
G37*
G36*
X1276Y95D02*
X1245D01*
Y66D01*
X1252Y67D01*
X1260Y71D01*
X1267Y76D01*
X1272Y83D01*
X1276Y91D01*
X1276Y95D01*
D02*
G37*
G36*
X1480Y251D02*
X1474Y250D01*
X1467Y247D01*
X1462Y243D01*
X1458Y238D01*
X1455Y232D01*
X1454Y225D01*
X1455Y218D01*
X1458Y212D01*
X1462Y207D01*
X1467Y203D01*
X1467Y200D01*
Y200D01*
X1467Y197D01*
X1462Y193D01*
X1458Y188D01*
X1455Y182D01*
X1454Y175D01*
X1455Y168D01*
X1458Y162D01*
X1462Y157D01*
X1467Y153D01*
X1467Y150D01*
Y150D01*
X1467Y147D01*
X1462Y143D01*
X1458Y138D01*
X1455Y132D01*
X1454Y125D01*
X1455Y118D01*
X1458Y112D01*
X1462Y107D01*
X1467Y103D01*
X1474Y100D01*
X1480Y99D01*
X1487Y100D01*
X1493Y103D01*
X1499Y107D01*
X1503Y112D01*
X1505Y112D01*
X1505D01*
X1508Y112D01*
X1512Y107D01*
X1517Y103D01*
X1524Y100D01*
X1525Y100D01*
Y125D01*
X1530D01*
Y130D01*
X1556D01*
X1555Y132D01*
X1553Y138D01*
X1549Y143D01*
X1543Y147D01*
X1543Y150D01*
Y150D01*
X1543Y153D01*
X1549Y157D01*
X1553Y162D01*
X1555Y168D01*
X1556Y170D01*
X1530D01*
Y180D01*
X1556D01*
X1555Y182D01*
X1553Y188D01*
X1549Y193D01*
X1543Y197D01*
X1543Y200D01*
Y200D01*
X1543Y203D01*
X1549Y207D01*
X1553Y212D01*
X1555Y218D01*
X1556Y220D01*
X1530D01*
Y225D01*
X1525D01*
Y250D01*
X1524Y250D01*
X1517Y247D01*
X1512Y243D01*
X1508Y238D01*
X1505Y238D01*
X1505D01*
X1503Y238D01*
X1499Y243D01*
X1493Y247D01*
X1487Y250D01*
X1480Y251D01*
D02*
G37*
G36*
X1245Y134D02*
Y105D01*
X1276D01*
X1276Y109D01*
X1272Y117D01*
X1267Y124D01*
X1260Y129D01*
X1252Y133D01*
X1245Y134D01*
D02*
G37*
G36*
X1235D02*
X1227Y133D01*
X1219Y129D01*
X1212Y124D01*
X1207Y117D01*
X1204Y109D01*
X1203Y105D01*
X1235D01*
Y134D01*
D02*
G37*
G36*
X1556Y120D02*
X1535D01*
Y100D01*
X1537Y100D01*
X1543Y103D01*
X1549Y107D01*
X1553Y112D01*
X1555Y118D01*
X1556Y120D01*
D02*
G37*
%LPD*%
D25*
X-55Y-342D02*
Y-313D01*
X-339Y80D02*
X-301D01*
X-357Y62D02*
X-339Y80D01*
X150Y251D02*
Y285D01*
X183Y252D02*
Y279D01*
X-234Y-90D02*
X-68D01*
X-337Y-129D02*
X-273D01*
X-234Y-90D01*
X-210Y130D02*
X-98Y18D01*
X835Y52D02*
X868Y85D01*
Y282D01*
X835Y-172D02*
Y-82D01*
X817Y-190D02*
X835Y-172D01*
X817Y-213D02*
Y-190D01*
Y-213D02*
X819Y-215D01*
X611Y-279D02*
X774D01*
X817Y-236D01*
Y-213D01*
X1081Y40D02*
X1140Y99D01*
X1081Y-61D02*
Y40D01*
X1255Y-16D02*
X1375D01*
X1240Y-1D02*
X1255Y-16D01*
X1366Y-42D02*
X1394Y-70D01*
X1181Y-42D02*
X1366D01*
X1336Y-60D02*
X1363Y-87D01*
X1180Y-60D02*
X1336D01*
X1140Y-1D02*
X1181Y-42D01*
X1140Y-101D02*
X1180Y-60D01*
X1394Y-70D02*
X1400D01*
X1405Y-71D02*
X1409Y-76D01*
X1452Y-271D02*
X1518D01*
X1281Y-101D02*
X1452Y-271D01*
X1203Y-101D02*
X1281D01*
X1326Y-104D02*
X1447Y-226D01*
X1326Y-104D02*
Y-87D01*
X1363Y-87D02*
X1401Y-126D01*
X595Y-107D02*
Y94D01*
X363Y-180D02*
X512D01*
X204Y-21D02*
X363Y-180D01*
X1Y-21D02*
X204D01*
X512Y-180D02*
X611Y-279D01*
X357Y113D02*
X417Y53D01*
X357Y113D02*
Y223D01*
X441Y7D02*
X464Y30D01*
X387Y7D02*
X441D01*
X258Y136D02*
X387Y7D01*
X1530Y-258D02*
Y-226D01*
X1518Y-271D02*
X1530Y-258D01*
X510Y-325D02*
Y-322D01*
X109Y-83D02*
X212Y-186D01*
Y-306D02*
Y-186D01*
X145Y-263D02*
Y-213D01*
X53Y-121D02*
X145Y-213D01*
X655Y-60D02*
Y240D01*
X53Y-121D02*
Y-88D01*
X600Y295D02*
X655Y240D01*
X835Y-82D02*
Y51D01*
X-68Y-90D02*
X1Y-21D01*
X569Y-119D02*
X595Y-145D01*
X393Y296D02*
X595Y94D01*
X428Y135D02*
X524D01*
X569Y90D01*
Y-119D02*
Y90D01*
X632Y-200D02*
X655Y-177D01*
Y-60D01*
X1447Y-226D02*
X1480D01*
X1401Y-126D02*
X1480D01*
X91Y222D02*
X177Y136D01*
X258D01*
X-532Y-190D02*
Y-148D01*
X-458Y-190D02*
Y-162D01*
X-455Y130D02*
X-210D01*
X-474Y321D02*
X114D01*
X150Y285D01*
X-485Y337D02*
X125D01*
X183Y279D01*
X-55Y-342D02*
X-48Y-349D01*
X433D01*
X459Y-323D01*
X511Y-279D02*
X573Y-341D01*
X1051D01*
X542Y-357D02*
X1076D01*
X510Y-325D02*
X542Y-357D01*
X1076D02*
X1118Y-315D01*
X1375Y-16D02*
X1384Y-25D01*
X1480D01*
X1480D01*
X1480D02*
X1480Y-26D01*
X1480Y-76D02*
X1480Y-75D01*
X1409Y-76D02*
X1480D01*
X-521Y-99D02*
X-458Y-162D01*
X-521Y-99D02*
Y64D01*
X-455Y130D01*
X-541Y-139D02*
X-532Y-148D01*
X-541Y-139D02*
Y254D01*
X-474Y321D01*
X-560Y-337D02*
Y262D01*
X-485Y337D01*
X-562Y-340D02*
Y-337D01*
X819Y-215D02*
X1089D01*
X1203Y-101D01*
X1051Y-341D02*
X1103Y-289D01*
X1352D01*
X1376Y-313D01*
D29*
X1246Y304D02*
D03*
D30*
X386Y-69D02*
D03*
X1099Y306D02*
D03*
D31*
X-55Y-313D02*
D03*
Y-263D02*
D03*
X-5Y-313D02*
D03*
X45D02*
D03*
Y-263D02*
D03*
X95Y-313D02*
D03*
Y-263D02*
D03*
X145Y-313D02*
D03*
X1480Y-225D02*
D03*
X1530Y-175D02*
D03*
X1480D02*
D03*
X1530Y-125D02*
D03*
X1480D02*
D03*
Y-75D02*
D03*
X1530Y-25D02*
D03*
X1480D02*
D03*
X1530Y125D02*
D03*
X1480D02*
D03*
X1530Y175D02*
D03*
X1480D02*
D03*
X1530Y225D02*
D03*
X1480D02*
D03*
D32*
X145Y-263D02*
D03*
D33*
X1530Y-225D02*
D03*
D34*
X1140Y-100D02*
D03*
Y0D02*
D03*
X1240Y-100D02*
D03*
Y0D02*
D03*
Y100D02*
D03*
D35*
X1140D02*
D03*
D36*
X-337Y-129D02*
D03*
Y-50D02*
D03*
D37*
Y-208D02*
D03*
D38*
X-357Y62D02*
D03*
X68Y294D02*
D03*
X-560Y-337D02*
D03*
X-456Y165D02*
D03*
X-227Y-206D02*
D03*
X-385Y-87D02*
D03*
X451Y306D02*
D03*
X-301Y80D02*
D03*
X-333Y131D02*
D03*
X-129Y-30D02*
D03*
X868Y282D02*
D03*
X1020Y-185D02*
D03*
X817Y-213D02*
D03*
X1001Y59D02*
D03*
X1081Y-61D02*
D03*
X1400Y-70D02*
D03*
X1326Y-87D02*
D03*
X1432Y21D02*
D03*
X1293Y23D02*
D03*
X1208Y-149D02*
D03*
X-493Y-190D02*
D03*
X741Y-86D02*
D03*
X624Y-81D02*
D03*
X595Y-107D02*
D03*
X271Y-210D02*
D03*
X-30Y-146D02*
D03*
X1376Y-313D02*
D03*
X-82Y123D02*
D03*
X-0Y161D02*
D03*
X464Y30D02*
D03*
X417Y53D02*
D03*
X877Y-30D02*
D03*
X934Y-186D02*
D03*
X717Y-311D02*
D03*
X1019Y-244D02*
D03*
X1473Y-312D02*
D03*
X1118Y-315D02*
D03*
X511Y-279D02*
D03*
X459Y-323D02*
D03*
X835Y52D02*
D03*
X510Y-322D02*
D03*
X787Y172D02*
D03*
X760Y-247D02*
D03*
X-98Y18D02*
D03*
X-185Y-280D02*
D03*
X-113Y155D02*
D03*
X-227Y235D02*
D03*
X587Y-189D02*
D03*
X357Y223D02*
D03*
X212Y-306D02*
D03*
X-432Y283D02*
D03*
X342Y-303D02*
D03*
X110Y-88D02*
D03*
X53D02*
D03*
X1069Y-148D02*
D03*
X393Y296D02*
D03*
X758Y280D02*
D03*
X655Y-60D02*
D03*
X595Y-145D02*
D03*
X705Y-35D02*
D03*
X789Y-166D02*
D03*
X835Y-82D02*
D03*
X716Y214D02*
D03*
X840Y120D02*
D03*
X193Y316D02*
D03*
X1029Y-31D02*
D03*
X600Y130D02*
D03*
X1024Y133D02*
D03*
X598Y204D02*
D03*
X538Y337D02*
D03*
X600Y295D02*
D03*
X428Y135D02*
D03*
X-171Y-349D02*
D03*
X-267Y-281D02*
D03*
X-240Y5D02*
D03*
X1320Y-350D02*
D03*
X1183D02*
D03*
X743Y74D02*
D03*
X910Y140D02*
D03*
X188Y14D02*
D03*
Y-55D02*
D03*
X183Y252D02*
D03*
X150Y251D02*
D03*
X550Y-276D02*
D03*
X420Y-303D02*
D03*
X539Y-71D02*
D03*
X632Y-200D02*
D03*
X-155Y-226D02*
D03*
X1364Y149D02*
D03*
X1542Y43D02*
D03*
X1268Y-149D02*
D03*
X1363Y-87D02*
D03*
X1258Y196D02*
D03*
X1330Y177D02*
D03*
X1084Y194D02*
D03*
X1397Y267D02*
D03*
X1491Y338D02*
D03*
X-456Y-190D02*
D03*
X655Y137D02*
D03*
X91Y222D02*
D03*
X244Y255D02*
D03*
X-530Y-190D02*
D03*
X-483Y43D02*
D03*
Y-43D02*
D03*
D39*
X-505Y-280D02*
D03*
X-481D02*
D03*
M02*
