G04 Layer_Color=8421504*
%FSLAX23Y23*%
%MOIN*%
G70*
G01*
G75*
%ADD10O,0.010X0.071*%
%ADD11O,0.071X0.010*%
%ADD12R,0.075X0.094*%
%ADD13R,0.075X0.046*%
%ADD14R,0.054X0.018*%
%ADD15R,0.083X0.058*%
%ADD16R,0.039X0.043*%
%ADD17R,0.043X0.039*%
%ADD18R,0.051X0.059*%
%ADD19R,0.047X0.055*%
%ADD20R,0.039X0.067*%
G04:AMPARAMS|DCode=21|XSize=39mil|YSize=22mil|CornerRadius=5mil|HoleSize=0mil|Usage=FLASHONLY|Rotation=270.000|XOffset=0mil|YOffset=0mil|HoleType=Round|Shape=RoundedRectangle|*
%AMROUNDEDRECTD21*
21,1,0.039,0.011,0,0,270.0*
21,1,0.029,0.022,0,0,270.0*
1,1,0.011,-0.005,-0.014*
1,1,0.011,-0.005,0.014*
1,1,0.011,0.005,0.014*
1,1,0.011,0.005,-0.014*
%
%ADD21ROUNDEDRECTD21*%
%ADD22R,0.031X0.047*%
G04:AMPARAMS|DCode=23|XSize=16mil|YSize=41mil|CornerRadius=4mil|HoleSize=0mil|Usage=FLASHONLY|Rotation=90.000|XOffset=0mil|YOffset=0mil|HoleType=Round|Shape=RoundedRectangle|*
%AMROUNDEDRECTD23*
21,1,0.016,0.033,0,0,90.0*
21,1,0.008,0.041,0,0,90.0*
1,1,0.008,0.017,0.004*
1,1,0.008,0.017,-0.004*
1,1,0.008,-0.017,-0.004*
1,1,0.008,-0.017,0.004*
%
%ADD23ROUNDEDRECTD23*%
G04:AMPARAMS|DCode=24|XSize=16mil|YSize=33mil|CornerRadius=4mil|HoleSize=0mil|Usage=FLASHONLY|Rotation=90.000|XOffset=0mil|YOffset=0mil|HoleType=Round|Shape=RoundedRectangle|*
%AMROUNDEDRECTD24*
21,1,0.016,0.026,0,0,90.0*
21,1,0.008,0.033,0,0,90.0*
1,1,0.008,0.013,0.004*
1,1,0.008,0.013,-0.004*
1,1,0.008,-0.013,-0.004*
1,1,0.008,-0.013,0.004*
%
%ADD24ROUNDEDRECTD24*%
D10*
X782Y1376D02*
D03*
X801D02*
D03*
X821D02*
D03*
X841D02*
D03*
X860D02*
D03*
X880D02*
D03*
X900D02*
D03*
X920D02*
D03*
X939D02*
D03*
X959D02*
D03*
X979D02*
D03*
X998D02*
D03*
Y1060D02*
D03*
X979D02*
D03*
X959D02*
D03*
X939D02*
D03*
X920D02*
D03*
X900D02*
D03*
X880D02*
D03*
X860D02*
D03*
X841D02*
D03*
X821D02*
D03*
X801D02*
D03*
X782D02*
D03*
D11*
X1048Y1326D02*
D03*
Y1307D02*
D03*
Y1287D02*
D03*
Y1267D02*
D03*
Y1248D02*
D03*
Y1228D02*
D03*
Y1208D02*
D03*
Y1188D02*
D03*
Y1169D02*
D03*
Y1149D02*
D03*
Y1129D02*
D03*
Y1110D02*
D03*
X732D02*
D03*
Y1129D02*
D03*
Y1149D02*
D03*
Y1169D02*
D03*
Y1188D02*
D03*
Y1208D02*
D03*
Y1228D02*
D03*
Y1248D02*
D03*
Y1267D02*
D03*
Y1287D02*
D03*
Y1307D02*
D03*
Y1326D02*
D03*
D12*
X210Y1328D02*
D03*
Y1098D02*
D03*
D13*
Y1180D02*
D03*
Y1246D02*
D03*
D14*
X314Y1213D02*
D03*
Y1187D02*
D03*
Y1162D02*
D03*
Y1264D02*
D03*
Y1239D02*
D03*
D15*
X300Y1116D02*
D03*
Y1310D02*
D03*
D16*
X2120Y1013D02*
D03*
Y947D02*
D03*
X343Y998D02*
D03*
Y931D02*
D03*
X2060Y1013D02*
D03*
Y947D02*
D03*
X491Y1060D02*
D03*
Y1126D02*
D03*
X634Y895D02*
D03*
Y961D02*
D03*
X1810Y1013D02*
D03*
Y947D02*
D03*
X1870Y1013D02*
D03*
Y947D02*
D03*
X1930D02*
D03*
Y1013D02*
D03*
X646Y1126D02*
D03*
Y1060D02*
D03*
X1013Y896D02*
D03*
Y962D02*
D03*
X595Y1126D02*
D03*
Y1060D02*
D03*
X543Y1060D02*
D03*
Y1126D02*
D03*
X1990Y947D02*
D03*
Y1013D02*
D03*
D17*
X764Y1513D02*
D03*
X697D02*
D03*
X1344Y1258D02*
D03*
X1278D02*
D03*
Y1190D02*
D03*
X1344D02*
D03*
X1708Y916D02*
D03*
X1642D02*
D03*
X1697Y1394D02*
D03*
X1763D02*
D03*
X763Y1449D02*
D03*
X697D02*
D03*
X569Y1513D02*
D03*
X636D02*
D03*
X1427Y1028D02*
D03*
X1493D02*
D03*
X569Y1449D02*
D03*
X635D02*
D03*
X517Y1369D02*
D03*
X583D02*
D03*
Y1317D02*
D03*
X517D02*
D03*
X1642Y1143D02*
D03*
X1708D02*
D03*
Y1077D02*
D03*
X1642D02*
D03*
Y1306D02*
D03*
X1708D02*
D03*
Y1241D02*
D03*
X1642D02*
D03*
X1697Y1516D02*
D03*
X1763D02*
D03*
Y1455D02*
D03*
X1697D02*
D03*
X1004Y1523D02*
D03*
X1070D02*
D03*
X1288Y1353D02*
D03*
X1222D02*
D03*
Y1425D02*
D03*
X1288D02*
D03*
X583Y1265D02*
D03*
X517D02*
D03*
X1497Y1548D02*
D03*
X1563D02*
D03*
X1578Y1190D02*
D03*
X1512D02*
D03*
X1528Y1355D02*
D03*
X1462D02*
D03*
X1708Y981D02*
D03*
X1642D02*
D03*
D18*
X398Y1520D02*
D03*
X472D02*
D03*
Y1440D02*
D03*
X398D02*
D03*
X247D02*
D03*
X321D02*
D03*
D19*
X1155Y1055D02*
D03*
X1092D02*
D03*
Y969D02*
D03*
X1155D02*
D03*
D20*
X1929Y1522D02*
D03*
X2063D02*
D03*
D21*
X257Y885D02*
D03*
X220D02*
D03*
X295Y885D02*
D03*
X220Y991D02*
D03*
X257D02*
D03*
X295Y991D02*
D03*
X2113Y1186D02*
D03*
X2076D02*
D03*
X2150D02*
D03*
X2076Y1292D02*
D03*
X2113D02*
D03*
X2150D02*
D03*
D22*
X524Y903D02*
D03*
X487Y993D02*
D03*
X561D02*
D03*
D23*
X1568Y895D02*
D03*
Y920D02*
D03*
Y946D02*
D03*
Y971D02*
D03*
X1412Y895D02*
D03*
Y920D02*
D03*
Y946D02*
D03*
Y971D02*
D03*
Y1501D02*
D03*
Y1476D02*
D03*
Y1450D02*
D03*
Y1425D02*
D03*
X1568Y1501D02*
D03*
Y1476D02*
D03*
Y1450D02*
D03*
Y1425D02*
D03*
D24*
X1539Y1295D02*
D03*
Y1270D02*
D03*
Y1244D02*
D03*
X1451D02*
D03*
Y1270D02*
D03*
Y1295D02*
D03*
Y1137D02*
D03*
Y1111D02*
D03*
Y1085D02*
D03*
X1539D02*
D03*
Y1111D02*
D03*
Y1137D02*
D03*
M02*
