G04 Layer_Color=32896*
%FSLAX23Y23*%
%MOIN*%
G70*
G01*
G75*
%ADD49C,0.005*%
%ADD50C,0.007*%
G36*
X1332Y1354D02*
Y1353D01*
X1335Y1333D01*
Y1333D01*
Y1333D01*
X1336Y1333D01*
X1336Y1332D01*
X1350Y1327D01*
X1351D01*
X1367Y1338D01*
X1369D01*
X1369Y1338D01*
X1383Y1324D01*
Y1324D01*
Y1323D01*
Y1323D01*
Y1323D01*
X1372Y1306D01*
Y1306D01*
Y1306D01*
Y1305D01*
Y1305D01*
X1378Y1291D01*
Y1291D01*
X1378Y1291D01*
X1379Y1290D01*
X1398Y1287D01*
X1398D01*
X1399Y1287D01*
Y1286D01*
Y1266D01*
Y1266D01*
X1398Y1266D01*
X1398Y1265D01*
X1379Y1261D01*
X1379D01*
X1379Y1261D01*
X1378Y1261D01*
X1372Y1246D01*
Y1246D01*
Y1245D01*
Y1245D01*
Y1245D01*
X1383Y1229D01*
Y1228D01*
Y1228D01*
Y1228D01*
X1369Y1214D01*
X1369Y1214D01*
X1368D01*
X1367Y1214D01*
X1352Y1224D01*
X1351D01*
X1344Y1220D01*
X1344D01*
X1344Y1221D01*
X1343Y1221D01*
X1329Y1255D01*
Y1255D01*
Y1255D01*
X1330Y1256D01*
X1332Y1257D01*
X1332Y1257D01*
X1332Y1257D01*
X1332Y1258D01*
X1333Y1258D01*
X1334Y1259D01*
X1335Y1260D01*
X1337Y1262D01*
X1339Y1265D01*
X1341Y1268D01*
X1342Y1271D01*
X1342Y1276D01*
Y1276D01*
Y1277D01*
X1342Y1279D01*
X1342Y1281D01*
X1341Y1283D01*
X1340Y1286D01*
X1338Y1289D01*
X1336Y1291D01*
X1336Y1291D01*
X1335Y1292D01*
X1334Y1293D01*
X1332Y1294D01*
X1330Y1296D01*
X1327Y1297D01*
X1324Y1298D01*
X1321Y1298D01*
X1319D01*
X1318Y1298D01*
X1315Y1297D01*
X1313Y1296D01*
X1310Y1295D01*
X1308Y1293D01*
X1305Y1291D01*
X1305Y1291D01*
X1304Y1290D01*
X1304Y1289D01*
X1302Y1287D01*
X1301Y1284D01*
X1300Y1282D01*
X1299Y1279D01*
X1299Y1276D01*
Y1275D01*
X1299Y1274D01*
X1300Y1271D01*
X1300Y1269D01*
X1302Y1266D01*
X1303Y1263D01*
X1305Y1260D01*
X1309Y1258D01*
X1309Y1258D01*
X1309Y1257D01*
X1310D01*
X1310Y1257D01*
X1312Y1256D01*
X1312Y1256D01*
X1312Y1255D01*
X1299Y1221D01*
X1298Y1221D01*
X1297Y1220D01*
X1290Y1224D01*
X1289D01*
X1274Y1214D01*
X1274Y1214D01*
X1273D01*
X1273Y1214D01*
X1258Y1228D01*
Y1228D01*
Y1229D01*
Y1229D01*
X1269Y1245D01*
Y1245D01*
Y1245D01*
Y1245D01*
Y1246D01*
X1263Y1261D01*
Y1261D01*
Y1261D01*
X1263Y1261D01*
X1262D01*
X1244Y1265D01*
X1244D01*
X1243Y1266D01*
X1243Y1266D01*
Y1286D01*
Y1286D01*
Y1287D01*
X1243Y1287D01*
X1244D01*
X1263Y1290D01*
X1263D01*
X1264Y1291D01*
X1264Y1291D01*
X1270Y1305D01*
Y1305D01*
Y1306D01*
Y1306D01*
Y1306D01*
Y1306D01*
X1258Y1323D01*
Y1323D01*
Y1323D01*
Y1324D01*
Y1324D01*
X1273Y1338D01*
X1273Y1338D01*
X1274D01*
X1290Y1327D01*
X1292D01*
X1305Y1332D01*
X1305D01*
X1306Y1333D01*
X1306Y1333D01*
Y1333D01*
X1310Y1353D01*
Y1353D01*
Y1354D01*
X1310Y1354D01*
X1311Y1354D01*
X1331D01*
X1332Y1354D01*
D02*
G37*
D49*
X1013Y964D02*
X1008Y969D01*
X998D01*
X993Y964D01*
Y959D01*
X998Y954D01*
X1003D01*
X998D01*
X993Y949D01*
Y944D01*
X998Y939D01*
X1008D01*
X1013Y944D01*
X983Y969D02*
Y949D01*
X973Y939D01*
X963Y949D01*
Y969D01*
X953Y964D02*
X948Y969D01*
X938D01*
X933Y964D01*
Y959D01*
X938Y954D01*
X943D01*
X938D01*
X933Y949D01*
Y944D01*
X938Y939D01*
X948D01*
X953Y944D01*
X419Y1407D02*
X439D01*
Y1392D01*
X429Y1397D01*
X424D01*
X419Y1392D01*
Y1382D01*
X424Y1377D01*
X434D01*
X439Y1382D01*
X409Y1407D02*
Y1387D01*
X399Y1377D01*
X389Y1387D01*
Y1407D01*
X1780Y1540D02*
X1785Y1545D01*
X1795D01*
X1800Y1540D01*
Y1520D01*
X1795Y1515D01*
X1785D01*
X1780Y1520D01*
Y1530D01*
X1790D01*
X1770Y1515D02*
Y1535D01*
X1755D01*
X1750Y1530D01*
Y1515D01*
X1720Y1545D02*
Y1515D01*
X1735D01*
X1740Y1520D01*
Y1530D01*
X1735Y1535D01*
X1720D01*
X1170Y1222D02*
X1150D01*
X1160D01*
Y1192D01*
X1140D02*
Y1222D01*
X1125D01*
X1120Y1217D01*
Y1207D01*
X1125Y1202D01*
X1140D01*
X1105Y1212D02*
X1095D01*
X1090Y1207D01*
Y1192D01*
X1105D01*
X1110Y1197D01*
X1105Y1202D01*
X1090D01*
X827Y1020D02*
X832Y1025D01*
X842D01*
X847Y1020D01*
Y1015D01*
X842Y1010D01*
X832D01*
X827Y1005D01*
Y1000D01*
X832Y995D01*
X842D01*
X847Y1000D01*
X817Y1025D02*
Y995D01*
X807Y1005D01*
X797Y995D01*
Y1025D01*
X787D02*
Y995D01*
X772D01*
X767Y1000D01*
Y1020D01*
X772Y1025D01*
X787D01*
X757Y1010D02*
X737D01*
X727Y995D02*
Y1025D01*
X717Y1015D01*
X707Y1025D01*
Y995D01*
X697Y1025D02*
Y995D01*
Y1005D01*
X677Y1025D01*
X692Y1010D01*
X677Y995D01*
X561Y1040D02*
X541D01*
X551D01*
Y1010D01*
X531Y1040D02*
Y1020D01*
X521Y1010D01*
X511Y1020D01*
Y1040D01*
X481D02*
Y1010D01*
X496D01*
X501Y1015D01*
Y1025D01*
X496Y1030D01*
X481D01*
X451Y1040D02*
Y1010D01*
X466D01*
X471Y1015D01*
Y1025D01*
X466Y1030D01*
X451D01*
X530Y1170D02*
X510D01*
X520D01*
Y1140D01*
X500Y1135D02*
X480D01*
X470Y1165D02*
X465Y1170D01*
X455D01*
X450Y1165D01*
Y1160D01*
X455Y1155D01*
X460D01*
X455D01*
X450Y1150D01*
Y1145D01*
X455Y1140D01*
X465D01*
X470Y1145D01*
X440Y1170D02*
Y1150D01*
X430Y1140D01*
X420Y1150D01*
Y1170D01*
X410Y1165D02*
X405Y1170D01*
X395D01*
X390Y1165D01*
Y1160D01*
X395Y1155D01*
X400D01*
X395D01*
X390Y1150D01*
Y1145D01*
X395Y1140D01*
X405D01*
X410Y1145D01*
X507Y903D02*
X487D01*
X497D01*
Y873D01*
X477Y868D02*
X457D01*
X427Y903D02*
X447D01*
Y888D01*
X437Y893D01*
X432D01*
X427Y888D01*
Y878D01*
X432Y873D01*
X442D01*
X447Y878D01*
X417Y903D02*
Y883D01*
X407Y873D01*
X397Y883D01*
Y903D01*
X2318Y1089D02*
X2313Y1094D01*
Y1104D01*
X2318Y1109D01*
X2338D01*
X2343Y1104D01*
Y1094D01*
X2338Y1089D01*
X2328D01*
Y1099D01*
X2343Y1079D02*
X2323D01*
Y1064D01*
X2328Y1059D01*
X2343D01*
X2313Y1029D02*
X2343D01*
Y1044D01*
X2338Y1049D01*
X2328D01*
X2323Y1044D01*
Y1029D01*
X2317Y1419D02*
X2312Y1424D01*
Y1434D01*
X2317Y1439D01*
X2337D01*
X2342Y1434D01*
Y1424D01*
X2337Y1419D01*
X2327D01*
Y1429D01*
X2342Y1409D02*
X2322D01*
Y1394D01*
X2327Y1389D01*
X2342D01*
X2312Y1359D02*
X2342D01*
Y1374D01*
X2337Y1379D01*
X2327D01*
X2322Y1374D01*
Y1359D01*
X2200Y1175D02*
Y1205D01*
X2185D01*
X2180Y1200D01*
Y1190D01*
X2185Y1185D01*
X2200D01*
X2190D02*
X2180Y1175D01*
X2170D02*
X2155D01*
X2150Y1180D01*
X2155Y1185D01*
X2165D01*
X2170Y1190D01*
X2165Y1195D01*
X2150D01*
X2135Y1200D02*
Y1195D01*
X2140D01*
X2130D01*
X2135D01*
Y1180D01*
X2130Y1175D01*
X2311Y1131D02*
Y1161D01*
X2296D01*
X2291Y1156D01*
Y1146D01*
X2296Y1141D01*
X2311D01*
X2301D02*
X2291Y1131D01*
X2281Y1151D02*
X2261Y1131D01*
X2271Y1141D01*
X2261Y1151D01*
X2281Y1131D01*
X2200Y1107D02*
X2180D01*
X2190D01*
Y1077D01*
X2170Y1097D02*
X2150Y1077D01*
X2160Y1087D01*
X2150Y1097D01*
X2170Y1077D01*
X2180Y1052D02*
X2185Y1057D01*
X2195D01*
X2200Y1052D01*
Y1047D01*
X2195Y1042D01*
X2185D01*
X2180Y1037D01*
Y1032D01*
X2185Y1027D01*
X2195D01*
X2200Y1032D01*
X2170Y1057D02*
Y1027D01*
X2160Y1037D01*
X2150Y1027D01*
Y1057D01*
X2120Y1052D02*
X2125Y1057D01*
X2135D01*
X2140Y1052D01*
Y1032D01*
X2135Y1027D01*
X2125D01*
X2120Y1032D01*
X2110Y1057D02*
Y1027D01*
X2090D01*
X2080Y1057D02*
Y1027D01*
Y1037D01*
X2060Y1057D01*
X2075Y1042D01*
X2060Y1027D01*
X2180Y1004D02*
X2185Y1009D01*
X2195D01*
X2200Y1004D01*
Y999D01*
X2195Y994D01*
X2185D01*
X2180Y989D01*
Y984D01*
X2185Y979D01*
X2195D01*
X2200Y984D01*
X2170Y1009D02*
Y979D01*
X2160Y989D01*
X2150Y979D01*
Y1009D01*
X2140D02*
Y979D01*
X2125D01*
X2120Y984D01*
Y1004D01*
X2125Y1009D01*
X2140D01*
X2331Y959D02*
Y939D01*
X2321Y929D01*
X2311Y939D01*
Y959D01*
X2281D02*
Y929D01*
X2296D01*
X2301Y934D01*
Y944D01*
X2296Y949D01*
X2281D01*
X2251Y959D02*
Y929D01*
X2266D01*
X2271Y934D01*
Y944D01*
X2266Y949D01*
X2251D01*
X2117Y1115D02*
Y1095D01*
X2107Y1085D01*
X2097Y1095D01*
Y1115D01*
X2067D02*
Y1085D01*
X2082D01*
X2087Y1090D01*
Y1100D01*
X2082Y1105D01*
X2067D01*
X2037Y1115D02*
Y1085D01*
X2052D01*
X2057Y1090D01*
Y1100D01*
X2052Y1105D01*
X2037D01*
X2104Y1192D02*
Y1222D01*
X2089D01*
X2084Y1217D01*
Y1207D01*
X2089Y1202D01*
X2104D01*
X2094D02*
X2084Y1192D01*
X2074D02*
X2059D01*
X2054Y1197D01*
X2059Y1202D01*
X2069D01*
X2074Y1207D01*
X2069Y1212D01*
X2054D01*
X2039Y1217D02*
Y1212D01*
X2044D01*
X2034D01*
X2039D01*
Y1197D01*
X2034Y1192D01*
X2096Y1329D02*
X2101Y1334D01*
X2111D01*
X2116Y1329D01*
Y1309D01*
X2111Y1304D01*
X2101D01*
X2096Y1309D01*
Y1319D01*
X2106D01*
X2086Y1304D02*
Y1324D01*
X2071D01*
X2066Y1319D01*
Y1304D01*
X2036Y1334D02*
Y1304D01*
X2051D01*
X2056Y1309D01*
Y1319D01*
X2051Y1324D01*
X2036D01*
X1842Y1134D02*
X1822D01*
X1832D01*
Y1104D01*
X1812Y1124D02*
X1792Y1104D01*
X1802Y1114D01*
X1792Y1124D01*
X1812Y1104D01*
X1842Y1205D02*
Y1235D01*
X1827D01*
X1822Y1230D01*
Y1220D01*
X1827Y1215D01*
X1842D01*
X1832D02*
X1822Y1205D01*
X1812Y1225D02*
X1792Y1205D01*
X1802Y1215D01*
X1792Y1225D01*
X1812Y1205D01*
X1842Y1332D02*
Y1302D01*
X1827D01*
X1822Y1307D01*
Y1312D01*
X1827Y1317D01*
X1842D01*
X1827D01*
X1822Y1322D01*
Y1327D01*
X1827Y1332D01*
X1842D01*
X1812D02*
Y1302D01*
Y1312D01*
X1792Y1332D01*
X1807Y1317D01*
X1792Y1302D01*
X1762Y1327D02*
X1767Y1332D01*
X1777D01*
X1782Y1327D01*
Y1307D01*
X1777Y1302D01*
X1767D01*
X1762Y1307D01*
Y1317D01*
X1772D01*
X1752Y1332D02*
Y1302D01*
X1737D01*
X1732Y1307D01*
Y1327D01*
X1737Y1332D01*
X1752D01*
X1562Y1481D02*
Y1452D01*
X1556Y1446D01*
X1545D01*
X1539Y1452D01*
Y1481D01*
X1504Y1475D02*
X1510Y1481D01*
X1521D01*
X1527Y1475D01*
Y1469D01*
X1521Y1463D01*
X1510D01*
X1504Y1458D01*
Y1452D01*
X1510Y1446D01*
X1521D01*
X1527Y1452D01*
X1492Y1481D02*
Y1446D01*
X1475D01*
X1469Y1452D01*
Y1458D01*
X1475Y1463D01*
X1492D01*
X1475D01*
X1469Y1469D01*
Y1475D01*
X1475Y1481D01*
X1492D01*
X1457D02*
Y1446D01*
X1440D01*
X1434Y1452D01*
Y1475D01*
X1440Y1481D01*
X1457D01*
X1422Y1446D02*
Y1481D01*
X1410Y1469D01*
X1399Y1481D01*
Y1446D01*
X1387Y1463D02*
X1364D01*
X1352Y1481D02*
Y1446D01*
Y1458D01*
X1329Y1481D01*
X1346Y1463D01*
X1329Y1446D01*
X1317D02*
X1305D01*
X1311D01*
Y1469D01*
X1317D01*
X1288Y1446D02*
Y1469D01*
X1270D01*
X1265Y1463D01*
Y1446D01*
X1235D02*
X1247D01*
X1253Y1452D01*
Y1463D01*
X1247Y1469D01*
X1235D01*
X1230Y1463D01*
Y1458D01*
X1253D01*
X1212Y1475D02*
Y1469D01*
X1218D01*
X1206D01*
X1212D01*
Y1452D01*
X1206Y1446D01*
X1189D02*
X1177D01*
X1183D01*
Y1469D01*
X1189D01*
X1160Y1446D02*
X1142D01*
X1136Y1452D01*
X1142Y1458D01*
X1154D01*
X1160Y1463D01*
X1154Y1469D01*
X1136D01*
X1125Y1463D02*
X1101D01*
X1090Y1481D02*
Y1458D01*
X1078Y1446D01*
X1066Y1458D01*
Y1481D01*
X1055Y1475D02*
X1049Y1481D01*
X1037D01*
X1031Y1475D01*
Y1469D01*
X1037Y1463D01*
X1043D01*
X1037D01*
X1031Y1458D01*
Y1452D01*
X1037Y1446D01*
X1049D01*
X1055Y1452D01*
D50*
X1364Y1202D02*
X1374D01*
X1379Y1197D01*
Y1177D01*
X1374Y1172D01*
X1364D01*
X1359Y1177D01*
Y1197D01*
X1364Y1202D01*
X1329Y1197D02*
X1334Y1202D01*
X1344D01*
X1349Y1197D01*
Y1192D01*
X1344Y1187D01*
X1334D01*
X1329Y1182D01*
Y1177D01*
X1334Y1172D01*
X1344D01*
X1349Y1177D01*
X1319Y1202D02*
Y1172D01*
Y1187D01*
X1299D01*
Y1202D01*
Y1172D01*
X1289Y1202D02*
Y1172D01*
X1279Y1182D01*
X1269Y1172D01*
Y1202D01*
M02*
