G04 Layer_Physical_Order=2*
G04 Layer_Color=16711680*
%FSLAX23Y23*%
%MOIN*%
G70*
G01*
G75*
%ADD10R,0.043X0.039*%
%ADD26C,0.016*%
%ADD27C,0.012*%
%ADD28C,0.047*%
%ADD29R,0.047X0.047*%
%ADD30R,0.039X0.039*%
%ADD31C,0.039*%
%ADD32R,0.039X0.039*%
%ADD33C,0.062*%
%ADD34R,0.062X0.062*%
%ADD35C,0.059*%
%ADD36C,0.027*%
%ADD37C,0.030*%
G36*
X2352Y850D02*
X1912D01*
X1911Y854D01*
X1934Y877D01*
X1936Y881D01*
X1937Y886D01*
X1937Y886D01*
Y911D01*
X1940Y913D01*
X1945Y920D01*
X1946Y928D01*
X1945Y936D01*
X1940Y943D01*
X1933Y948D01*
X1925Y949D01*
X1917Y948D01*
X1910Y943D01*
X1905Y936D01*
X1904Y928D01*
X1905Y920D01*
X1910Y913D01*
X1913Y911D01*
Y891D01*
X1891Y869D01*
X1289D01*
X1268Y890D01*
Y916D01*
X1271Y918D01*
X1276Y925D01*
X1277Y933D01*
X1276Y941D01*
X1271Y948D01*
X1264Y953D01*
X1256Y954D01*
X1248Y953D01*
X1241Y948D01*
X1240Y948D01*
X1236D01*
X1235Y948D01*
X1228Y953D01*
X1220Y954D01*
X1212Y953D01*
X1205Y948D01*
X1200Y941D01*
X1199Y933D01*
X1200Y925D01*
X1205Y918D01*
X1208Y916D01*
Y891D01*
X1187Y870D01*
X725D01*
X713Y882D01*
X713Y887D01*
X717Y892D01*
X720Y892D01*
X720D01*
X723Y892D01*
X727Y887D01*
X732Y883D01*
X738Y880D01*
X745Y879D01*
X752Y880D01*
X758Y883D01*
X763Y887D01*
X767Y892D01*
X770Y892D01*
X770D01*
X773Y892D01*
X777Y887D01*
X782Y883D01*
X788Y880D01*
X795Y879D01*
X802Y880D01*
X808Y883D01*
X813Y887D01*
X817Y892D01*
X820Y892D01*
X820D01*
X823Y892D01*
X827Y887D01*
X832Y883D01*
X838Y880D01*
X845Y879D01*
X852Y880D01*
X858Y883D01*
X863Y887D01*
X867Y892D01*
X870Y892D01*
X870D01*
X873Y892D01*
X877Y887D01*
X882Y883D01*
X888Y880D01*
X895Y879D01*
X902Y880D01*
X908Y883D01*
X913Y887D01*
X917Y892D01*
X920Y898D01*
X921Y905D01*
X920Y912D01*
X917Y918D01*
X913Y923D01*
X912Y924D01*
X914Y929D01*
X921D01*
Y981D01*
X909D01*
Y1005D01*
X908Y1010D01*
X905Y1015D01*
X817Y1103D01*
Y1114D01*
X818Y1115D01*
X823Y1122D01*
X824Y1130D01*
X823Y1138D01*
X818Y1145D01*
X811Y1150D01*
X803Y1151D01*
X795Y1150D01*
X788Y1145D01*
X787Y1146D01*
X783Y1147D01*
Y1156D01*
X728D01*
Y1104D01*
X783D01*
Y1108D01*
X788Y1111D01*
X789Y1110D01*
X789Y1110D01*
Y1097D01*
X790Y1092D01*
X793Y1087D01*
X881Y999D01*
Y981D01*
X869D01*
Y974D01*
X864Y972D01*
X863Y973D01*
X858Y977D01*
X852Y980D01*
X850Y980D01*
Y955D01*
X840D01*
Y980D01*
X838Y980D01*
X832Y977D01*
X827Y973D01*
X823Y968D01*
X820Y968D01*
X820D01*
X817Y968D01*
X813Y973D01*
X808Y977D01*
X802Y980D01*
X800Y980D01*
Y955D01*
X795D01*
Y950D01*
X770D01*
X770Y948D01*
X773Y942D01*
X777Y937D01*
X782Y933D01*
X782Y930D01*
Y930D01*
X782Y927D01*
X777Y923D01*
X773Y918D01*
X770Y918D01*
X770D01*
X767Y918D01*
X763Y923D01*
X758Y927D01*
X752Y930D01*
X745Y931D01*
X738Y930D01*
X732Y927D01*
X727Y923D01*
X723Y918D01*
X720Y918D01*
X720D01*
X717Y918D01*
X713Y923D01*
X708Y927D01*
X708Y930D01*
Y930D01*
X708Y933D01*
X713Y937D01*
X717Y942D01*
X720Y948D01*
X720Y950D01*
X670D01*
X670Y948D01*
X673Y942D01*
X677Y937D01*
X682Y933D01*
X682Y930D01*
Y930D01*
X682Y927D01*
X677Y923D01*
X673Y918D01*
X670Y912D01*
X669Y905D01*
X670Y898D01*
X673Y892D01*
X677Y887D01*
X682Y883D01*
X683Y882D01*
X684Y878D01*
X686Y874D01*
X706Y854D01*
X705Y850D01*
X161D01*
Y1582D01*
X2352D01*
Y850D01*
D02*
G37*
%LPC*%
G36*
X784Y1059D02*
X761D01*
Y1038D01*
X784D01*
Y1059D01*
D02*
G37*
G36*
X751D02*
X729D01*
Y1038D01*
X751D01*
Y1059D01*
D02*
G37*
G36*
X790Y980D02*
X788Y980D01*
X782Y977D01*
X777Y973D01*
X773Y968D01*
X770Y962D01*
X770Y960D01*
X790D01*
Y980D01*
D02*
G37*
G36*
X1350Y1544D02*
X1342Y1543D01*
X1335Y1538D01*
X1330Y1531D01*
X1329Y1523D01*
X1330Y1515D01*
X1335Y1508D01*
X1342Y1503D01*
X1350Y1502D01*
X1351Y1502D01*
X1391Y1462D01*
Y1334D01*
X1390Y1333D01*
X1385Y1326D01*
X1384Y1318D01*
X1385Y1310D01*
X1390Y1303D01*
X1391Y1302D01*
Y1174D01*
X1390Y1173D01*
X1385Y1166D01*
X1384Y1158D01*
X1385Y1150D01*
X1390Y1143D01*
X1391Y1142D01*
Y1054D01*
X1375Y1038D01*
X1370Y1039D01*
X1362Y1038D01*
X1355Y1033D01*
X1350Y1026D01*
X1349Y1018D01*
X1350Y1010D01*
X1355Y1003D01*
X1362Y998D01*
X1370Y997D01*
X1378Y998D01*
X1385Y1003D01*
X1390Y1010D01*
X1391Y1014D01*
X1415Y1038D01*
X1418Y1043D01*
X1419Y1048D01*
Y1142D01*
X1420Y1143D01*
X1425Y1150D01*
X1426Y1158D01*
X1425Y1166D01*
X1420Y1173D01*
X1419Y1174D01*
Y1302D01*
X1420Y1303D01*
X1425Y1310D01*
X1426Y1318D01*
X1425Y1326D01*
X1420Y1333D01*
X1419Y1334D01*
Y1468D01*
X1418Y1473D01*
X1415Y1478D01*
X1371Y1522D01*
X1371Y1523D01*
X1370Y1531D01*
X1365Y1538D01*
X1358Y1543D01*
X1350Y1544D01*
D02*
G37*
G36*
X751Y1090D02*
X729D01*
Y1069D01*
X751D01*
Y1090D01*
D02*
G37*
G36*
X413Y1127D02*
X405Y1126D01*
X398Y1123D01*
X392Y1118D01*
X387Y1112D01*
X384Y1104D01*
X383Y1097D01*
X384Y1089D01*
X387Y1082D01*
X392Y1076D01*
X398Y1071D01*
X405Y1068D01*
X413Y1067D01*
X421Y1068D01*
X428Y1071D01*
X434Y1076D01*
X439Y1082D01*
X442Y1089D01*
X443Y1097D01*
X442Y1104D01*
X439Y1112D01*
X434Y1118D01*
X428Y1123D01*
X421Y1126D01*
X413Y1127D01*
D02*
G37*
G36*
X1170Y1374D02*
X1162Y1373D01*
X1155Y1368D01*
X1150Y1361D01*
X1149Y1353D01*
X1150Y1345D01*
X1155Y1338D01*
X1162Y1333D01*
X1170Y1332D01*
X1174Y1332D01*
X1278Y1228D01*
Y1128D01*
X1278Y1128D01*
X1279Y1123D01*
X1281Y1119D01*
X1324Y1077D01*
X1324Y1073D01*
X1325Y1065D01*
X1330Y1058D01*
X1337Y1053D01*
X1345Y1052D01*
X1353Y1053D01*
X1360Y1058D01*
X1365Y1065D01*
X1366Y1073D01*
X1365Y1081D01*
X1360Y1088D01*
X1353Y1093D01*
X1345Y1094D01*
X1341Y1094D01*
X1302Y1133D01*
Y1233D01*
X1301Y1238D01*
X1299Y1242D01*
X1299Y1242D01*
X1191Y1349D01*
X1191Y1353D01*
X1190Y1361D01*
X1185Y1368D01*
X1178Y1373D01*
X1170Y1374D01*
D02*
G37*
G36*
X700Y980D02*
Y960D01*
X720D01*
X720Y962D01*
X717Y968D01*
X713Y973D01*
X708Y977D01*
X702Y980D01*
X700Y980D01*
D02*
G37*
G36*
X860Y1151D02*
X852Y1150D01*
X845Y1145D01*
X841Y1138D01*
X839Y1130D01*
X841Y1122D01*
X845Y1115D01*
X852Y1110D01*
X860Y1109D01*
X867Y1110D01*
X950Y1027D01*
Y929D01*
X947Y927D01*
X942Y920D01*
X941Y912D01*
X942Y904D01*
X947Y897D01*
X954Y892D01*
X962Y891D01*
X970Y892D01*
X977Y897D01*
X982Y904D01*
X983Y912D01*
X982Y920D01*
X977Y927D01*
X974Y929D01*
Y1032D01*
X974Y1032D01*
X973Y1037D01*
X971Y1041D01*
X882Y1129D01*
X882Y1130D01*
X880Y1138D01*
X876Y1145D01*
X869Y1150D01*
X860Y1151D01*
D02*
G37*
G36*
X2184Y893D02*
X2154D01*
Y863D01*
X2158Y863D01*
X2167Y867D01*
X2174Y873D01*
X2180Y880D01*
X2184Y889D01*
X2184Y893D01*
D02*
G37*
G36*
X2144D02*
X2114D01*
X2114Y889D01*
X2118Y880D01*
X2124Y873D01*
X2131Y867D01*
X2140Y863D01*
X2144Y863D01*
Y893D01*
D02*
G37*
G36*
Y933D02*
X2140Y933D01*
X2131Y929D01*
X2124Y923D01*
X2118Y916D01*
X2114Y907D01*
X2114Y903D01*
X2144D01*
Y933D01*
D02*
G37*
G36*
X690Y980D02*
X688Y980D01*
X682Y977D01*
X677Y973D01*
X673Y968D01*
X670Y962D01*
X670Y960D01*
X690D01*
Y980D01*
D02*
G37*
G36*
X443Y969D02*
X383D01*
Y910D01*
X443D01*
Y969D01*
D02*
G37*
G36*
X2154Y933D02*
Y903D01*
X2184D01*
X2184Y907D01*
X2180Y916D01*
X2174Y923D01*
X2167Y929D01*
X2158Y933D01*
X2154Y933D01*
D02*
G37*
G36*
X2231Y1468D02*
X2224Y1467D01*
X2218Y1465D01*
X2212Y1461D01*
X2208Y1455D01*
X2206Y1449D01*
X2205Y1442D01*
X2206Y1436D01*
X2208Y1429D01*
X2212Y1424D01*
X2217Y1420D01*
X2218Y1417D01*
Y1417D01*
X2217Y1415D01*
X2212Y1411D01*
X2208Y1405D01*
X2206Y1399D01*
X2205Y1392D01*
X2206Y1386D01*
X2208Y1379D01*
X2212Y1374D01*
X2217Y1370D01*
X2218Y1367D01*
Y1367D01*
X2217Y1365D01*
X2212Y1361D01*
X2208Y1355D01*
X2206Y1349D01*
X2205Y1342D01*
X2206Y1336D01*
X2208Y1329D01*
X2212Y1324D01*
X2218Y1320D01*
X2224Y1317D01*
X2231Y1316D01*
X2237Y1317D01*
X2244Y1320D01*
X2249Y1324D01*
X2253Y1329D01*
X2256Y1330D01*
X2256D01*
X2258Y1329D01*
X2262Y1324D01*
X2268Y1320D01*
X2274Y1317D01*
X2276Y1317D01*
Y1342D01*
X2281D01*
Y1347D01*
X2306D01*
X2306Y1349D01*
X2303Y1355D01*
X2299Y1361D01*
X2294Y1365D01*
X2293Y1367D01*
Y1367D01*
X2294Y1370D01*
X2299Y1374D01*
X2303Y1379D01*
X2306Y1386D01*
X2306Y1387D01*
X2281D01*
Y1397D01*
X2306D01*
X2306Y1399D01*
X2303Y1405D01*
X2299Y1411D01*
X2294Y1415D01*
X2293Y1417D01*
Y1417D01*
X2294Y1420D01*
X2299Y1424D01*
X2303Y1429D01*
X2306Y1436D01*
X2306Y1437D01*
X2281D01*
Y1442D01*
X2276D01*
Y1468D01*
X2274Y1467D01*
X2268Y1465D01*
X2262Y1461D01*
X2258Y1456D01*
X2256Y1455D01*
X2256D01*
X2253Y1456D01*
X2249Y1461D01*
X2244Y1465D01*
X2237Y1467D01*
X2231Y1468D01*
D02*
G37*
G36*
X1927Y1354D02*
X1853D01*
Y1280D01*
X1927D01*
Y1354D01*
D02*
G37*
G36*
X2286Y1468D02*
Y1447D01*
X2306D01*
X2306Y1449D01*
X2303Y1455D01*
X2299Y1461D01*
X2294Y1465D01*
X2287Y1467D01*
X2286Y1468D01*
D02*
G37*
G36*
X2306Y1337D02*
X2286D01*
Y1317D01*
X2287Y1317D01*
X2294Y1320D01*
X2299Y1324D01*
X2303Y1329D01*
X2306Y1336D01*
X2306Y1337D01*
D02*
G37*
G36*
X1861Y1515D02*
X1853Y1514D01*
X1846Y1509D01*
X1841Y1502D01*
X1840Y1494D01*
X1841Y1486D01*
X1846Y1479D01*
X1849Y1477D01*
Y1400D01*
X1846Y1398D01*
X1842Y1391D01*
X1840Y1383D01*
X1842Y1375D01*
X1846Y1368D01*
X1853Y1363D01*
X1861Y1362D01*
X1870Y1363D01*
X1877Y1368D01*
X1881Y1375D01*
X1883Y1383D01*
X1881Y1391D01*
X1877Y1398D01*
X1874Y1400D01*
Y1477D01*
X1876Y1479D01*
X1881Y1486D01*
X1882Y1494D01*
X1881Y1502D01*
X1876Y1509D01*
X1869Y1514D01*
X1861Y1515D01*
D02*
G37*
G36*
X1995Y1354D02*
Y1322D01*
X2027D01*
X2026Y1327D01*
X2022Y1336D01*
X2016Y1344D01*
X2009Y1350D01*
X2000Y1353D01*
X1995Y1354D01*
D02*
G37*
G36*
X1985D02*
X1980Y1353D01*
X1971Y1350D01*
X1964Y1344D01*
X1958Y1336D01*
X1954Y1327D01*
X1953Y1322D01*
X1985D01*
Y1354D01*
D02*
G37*
G36*
X1645Y1544D02*
X1637Y1543D01*
X1630Y1538D01*
X1625Y1531D01*
X1624Y1523D01*
X1625Y1515D01*
X1630Y1508D01*
X1631Y1507D01*
Y1324D01*
X1591Y1284D01*
X1590Y1284D01*
X1582Y1283D01*
X1575Y1278D01*
X1570Y1271D01*
X1569Y1263D01*
X1570Y1255D01*
X1575Y1248D01*
X1576Y1247D01*
Y1152D01*
X1575Y1152D01*
X1570Y1145D01*
X1569Y1136D01*
X1570Y1128D01*
X1575Y1121D01*
X1576Y1121D01*
Y1099D01*
X1577Y1094D01*
X1580Y1089D01*
X1616Y1053D01*
Y999D01*
X1615Y998D01*
X1610Y991D01*
X1609Y983D01*
X1609Y982D01*
X1605Y978D01*
X1342D01*
X1173Y1147D01*
X1168Y1150D01*
X1163Y1151D01*
X1004D01*
X936Y1219D01*
X931Y1222D01*
X926Y1223D01*
X650D01*
X647Y1228D01*
X650Y1232D01*
X651Y1240D01*
X650Y1248D01*
X645Y1255D01*
X638Y1260D01*
X630Y1261D01*
X629Y1261D01*
X504Y1386D01*
X504Y1387D01*
X502Y1395D01*
X498Y1401D01*
X492Y1405D01*
X484Y1407D01*
X476Y1405D01*
X470Y1401D01*
X466Y1395D01*
X464Y1387D01*
X401Y1324D01*
X352D01*
X346Y1323D01*
X341Y1320D01*
X314Y1292D01*
X311Y1287D01*
X310Y1282D01*
Y1051D01*
X311Y1046D01*
X314Y1041D01*
X348Y1007D01*
Y987D01*
X344Y985D01*
X343Y985D01*
X335Y987D01*
X327Y985D01*
X321Y981D01*
X320Y979D01*
X286D01*
X254Y1011D01*
Y1425D01*
X329Y1500D01*
X887D01*
X888Y1499D01*
Y1468D01*
X886Y1467D01*
X882Y1461D01*
X880Y1453D01*
X882Y1445D01*
X886Y1439D01*
X892Y1435D01*
X900Y1433D01*
X908Y1435D01*
X914Y1439D01*
X918Y1445D01*
X919Y1448D01*
X922Y1452D01*
X924Y1451D01*
X930Y1450D01*
X938Y1452D01*
X944Y1456D01*
X948Y1462D01*
X950Y1470D01*
X948Y1478D01*
X944Y1484D01*
X942Y1485D01*
Y1502D01*
X941Y1507D01*
X939Y1511D01*
X939Y1511D01*
X911Y1538D01*
X907Y1541D01*
X902Y1542D01*
X902Y1542D01*
X310D01*
X305Y1541D01*
X301Y1538D01*
X301Y1538D01*
X213Y1451D01*
X211Y1447D01*
X210Y1442D01*
X210Y1442D01*
Y957D01*
X205Y952D01*
X203Y952D01*
X195Y951D01*
X189Y946D01*
X184Y940D01*
X183Y932D01*
X184Y925D01*
X189Y918D01*
X195Y914D01*
X203Y912D01*
X210Y914D01*
X217Y918D01*
X221Y925D01*
X223Y932D01*
X222Y935D01*
X231Y943D01*
X233Y947D01*
X234Y952D01*
X234Y952D01*
Y990D01*
X239Y992D01*
X272Y958D01*
X272Y958D01*
X276Y956D01*
X281Y955D01*
X320D01*
X321Y953D01*
X327Y949D01*
X335Y947D01*
X343Y949D01*
X344Y949D01*
X348Y947D01*
Y917D01*
X344Y913D01*
X336Y911D01*
X330Y907D01*
X326Y901D01*
X324Y893D01*
X326Y885D01*
X330Y879D01*
X336Y875D01*
X344Y873D01*
X352Y875D01*
X358Y879D01*
X362Y885D01*
X364Y893D01*
X372Y901D01*
X375Y906D01*
X377Y911D01*
Y1013D01*
X375Y1018D01*
X372Y1023D01*
X338Y1057D01*
Y1276D01*
X357Y1295D01*
X407D01*
X412Y1296D01*
X417Y1299D01*
X484Y1366D01*
X609Y1241D01*
X609Y1240D01*
X610Y1232D01*
X615Y1225D01*
X620Y1222D01*
X621Y1216D01*
X621Y1216D01*
X441Y1036D01*
X436Y1036D01*
X434Y1039D01*
X428Y1044D01*
X421Y1047D01*
X413Y1048D01*
X405Y1047D01*
X398Y1044D01*
X392Y1039D01*
X387Y1033D01*
X384Y1026D01*
X383Y1018D01*
X384Y1010D01*
X387Y1003D01*
X392Y997D01*
X398Y992D01*
X405Y989D01*
X413Y988D01*
X421Y989D01*
X428Y992D01*
X434Y997D01*
X439Y1003D01*
X439Y1004D01*
X443D01*
X448Y1005D01*
X453Y1008D01*
X640Y1195D01*
X646D01*
X647Y1190D01*
X646Y1189D01*
X642Y1183D01*
X640Y1175D01*
X642Y1167D01*
X646Y1161D01*
X652Y1157D01*
X660Y1155D01*
X661Y1154D01*
Y1104D01*
X677D01*
Y1090D01*
X662D01*
Y1038D01*
X717D01*
Y1090D01*
X702D01*
Y1104D01*
X716D01*
Y1156D01*
X701D01*
Y1166D01*
X701Y1166D01*
X700Y1171D01*
X697Y1175D01*
X697Y1175D01*
X689Y1184D01*
X685Y1186D01*
X680Y1187D01*
X680Y1187D01*
X676D01*
X674Y1190D01*
X676Y1195D01*
X920D01*
X988Y1127D01*
X993Y1124D01*
X998Y1123D01*
X1157D01*
X1326Y954D01*
X1331Y951D01*
X1336Y950D01*
X1611D01*
X1616Y951D01*
X1621Y954D01*
X1629Y962D01*
X1630Y962D01*
X1638Y963D01*
X1645Y968D01*
X1646Y969D01*
X1691D01*
X1696Y970D01*
X1701Y973D01*
X1715Y987D01*
X1874D01*
X1879Y988D01*
X1884Y991D01*
X1976Y1083D01*
X1980Y1081D01*
X1990Y1080D01*
X2000Y1081D01*
X2009Y1085D01*
X2016Y1091D01*
X2022Y1099D01*
X2026Y1108D01*
X2027Y1117D01*
X2026Y1127D01*
X2022Y1136D01*
X2016Y1144D01*
X2009Y1150D01*
X2006Y1151D01*
X2007Y1156D01*
X2060D01*
X2132Y1084D01*
X2132Y1084D01*
X2136Y1081D01*
X2141Y1080D01*
X2141Y1080D01*
X2208D01*
X2208Y1079D01*
X2212Y1074D01*
X2217Y1070D01*
X2218Y1067D01*
Y1067D01*
X2217Y1065D01*
X2212Y1061D01*
X2208Y1055D01*
X2206Y1049D01*
X2205Y1042D01*
X2206Y1036D01*
X2208Y1029D01*
X2212Y1024D01*
X2217Y1020D01*
X2218Y1017D01*
Y1017D01*
X2217Y1015D01*
X2212Y1011D01*
X2208Y1005D01*
X2206Y999D01*
X2205Y992D01*
X2206Y986D01*
X2208Y979D01*
X2212Y974D01*
X2218Y970D01*
X2224Y967D01*
X2231Y966D01*
X2237Y967D01*
X2244Y970D01*
X2249Y974D01*
X2250Y975D01*
X2255Y974D01*
Y967D01*
X2306D01*
Y1018D01*
X2299D01*
X2298Y1023D01*
X2299Y1024D01*
X2303Y1029D01*
X2306Y1036D01*
X2306Y1037D01*
X2281D01*
Y1047D01*
X2306D01*
X2306Y1049D01*
X2303Y1055D01*
X2299Y1061D01*
X2294Y1065D01*
X2293Y1067D01*
Y1067D01*
X2294Y1070D01*
X2299Y1074D01*
X2303Y1079D01*
X2306Y1086D01*
X2306Y1087D01*
X2281D01*
Y1092D01*
X2276D01*
Y1118D01*
X2274Y1117D01*
X2268Y1115D01*
X2262Y1111D01*
X2258Y1106D01*
X2256Y1105D01*
X2256D01*
X2253Y1106D01*
X2249Y1111D01*
X2244Y1115D01*
X2243Y1117D01*
Y1117D01*
X2244Y1120D01*
X2249Y1124D01*
X2253Y1129D01*
X2253Y1130D01*
X2309D01*
X2309Y1130D01*
X2314Y1131D01*
X2318Y1134D01*
X2334Y1149D01*
X2334Y1149D01*
X2336Y1153D01*
X2337Y1158D01*
X2337Y1158D01*
Y1233D01*
X2336Y1238D01*
X2334Y1242D01*
X2334Y1242D01*
X2294Y1282D01*
X2290Y1284D01*
X2285Y1285D01*
X2285Y1285D01*
X2110D01*
X2110Y1285D01*
X2105Y1284D01*
X2101Y1282D01*
X2101Y1282D01*
X2100Y1280D01*
X2080D01*
Y1304D01*
X2083Y1306D01*
X2088Y1313D01*
X2089Y1321D01*
X2088Y1329D01*
X2083Y1336D01*
X2076Y1341D01*
X2068Y1342D01*
X2060Y1341D01*
X2053Y1336D01*
X2048Y1329D01*
X2047Y1321D01*
X2048Y1313D01*
X2053Y1306D01*
X2056Y1304D01*
Y1280D01*
X2010D01*
X2009Y1285D01*
X2009Y1285D01*
X2016Y1291D01*
X2022Y1299D01*
X2026Y1308D01*
X2027Y1312D01*
X1953D01*
X1954Y1308D01*
X1958Y1299D01*
X1964Y1291D01*
X1971Y1285D01*
X1971Y1285D01*
X1970Y1280D01*
X1941D01*
X1936Y1279D01*
X1932Y1277D01*
X1932Y1277D01*
X1906Y1251D01*
X1900Y1253D01*
X1890Y1255D01*
X1880Y1253D01*
X1871Y1250D01*
X1864Y1244D01*
X1858Y1236D01*
X1854Y1227D01*
X1853Y1217D01*
X1854Y1208D01*
X1858Y1199D01*
X1864Y1191D01*
X1871Y1185D01*
X1880Y1181D01*
X1890Y1180D01*
X1900Y1181D01*
X1909Y1185D01*
X1916Y1191D01*
X1922Y1199D01*
X1926Y1208D01*
X1927Y1217D01*
X1926Y1227D01*
X1923Y1234D01*
X1946Y1256D01*
X1973D01*
X1974Y1251D01*
X1971Y1250D01*
X1964Y1244D01*
X1958Y1236D01*
X1954Y1227D01*
X1953Y1217D01*
X1954Y1208D01*
X1958Y1199D01*
X1964Y1191D01*
X1971Y1185D01*
X1971Y1185D01*
X1970Y1180D01*
X1941D01*
X1941Y1180D01*
X1936Y1179D01*
X1932Y1177D01*
X1932Y1177D01*
X1906Y1151D01*
X1900Y1153D01*
X1890Y1155D01*
X1880Y1153D01*
X1871Y1150D01*
X1864Y1144D01*
X1858Y1136D01*
X1854Y1127D01*
X1853Y1117D01*
X1854Y1108D01*
X1858Y1099D01*
X1864Y1091D01*
X1871Y1085D01*
X1880Y1081D01*
X1890Y1080D01*
X1900Y1081D01*
X1909Y1085D01*
X1916Y1091D01*
X1922Y1099D01*
X1926Y1108D01*
X1927Y1117D01*
X1926Y1127D01*
X1923Y1134D01*
X1946Y1156D01*
X1973D01*
X1974Y1151D01*
X1971Y1150D01*
X1964Y1144D01*
X1958Y1136D01*
X1954Y1127D01*
X1953Y1117D01*
X1954Y1108D01*
X1956Y1103D01*
X1868Y1015D01*
X1709D01*
X1704Y1014D01*
X1699Y1011D01*
X1685Y997D01*
X1646D01*
X1645Y998D01*
X1644Y999D01*
Y1059D01*
X1643Y1064D01*
X1640Y1069D01*
X1604Y1105D01*
Y1121D01*
X1605Y1121D01*
X1610Y1128D01*
X1611Y1136D01*
X1610Y1145D01*
X1605Y1152D01*
X1604Y1152D01*
Y1247D01*
X1605Y1248D01*
X1610Y1255D01*
X1611Y1263D01*
X1611Y1264D01*
X1655Y1308D01*
X1658Y1313D01*
X1659Y1318D01*
Y1507D01*
X1660Y1508D01*
X1665Y1515D01*
X1666Y1523D01*
X1665Y1531D01*
X1660Y1538D01*
X1653Y1543D01*
X1645Y1544D01*
D02*
G37*
G36*
X2286Y1118D02*
Y1097D01*
X2306D01*
X2306Y1099D01*
X2303Y1105D01*
X2299Y1111D01*
X2294Y1115D01*
X2287Y1117D01*
X2286Y1118D01*
D02*
G37*
G36*
X784Y1090D02*
X761D01*
Y1069D01*
X784D01*
Y1090D01*
D02*
G37*
G36*
X1143Y1535D02*
X1135Y1534D01*
X1128Y1529D01*
X1123Y1522D01*
X1122Y1514D01*
X1123Y1506D01*
X1128Y1499D01*
X1135Y1494D01*
X1143Y1493D01*
X1147Y1493D01*
X1206Y1434D01*
Y1420D01*
X1206Y1420D01*
X1207Y1415D01*
X1209Y1411D01*
X1333Y1288D01*
Y1150D01*
X1330Y1148D01*
X1325Y1141D01*
X1324Y1133D01*
X1325Y1125D01*
X1330Y1118D01*
X1337Y1113D01*
X1345Y1112D01*
X1353Y1113D01*
X1360Y1118D01*
X1365Y1125D01*
X1366Y1133D01*
X1365Y1141D01*
X1360Y1148D01*
X1357Y1150D01*
Y1293D01*
X1356Y1298D01*
X1354Y1302D01*
X1354Y1302D01*
X1230Y1425D01*
Y1439D01*
X1229Y1444D01*
X1227Y1448D01*
X1227Y1448D01*
X1164Y1510D01*
X1164Y1514D01*
X1163Y1522D01*
X1158Y1529D01*
X1151Y1534D01*
X1143Y1535D01*
D02*
G37*
G36*
X387Y1275D02*
X379Y1274D01*
X372Y1269D01*
X367Y1262D01*
X366Y1254D01*
X367Y1246D01*
X372Y1239D01*
X379Y1234D01*
X387Y1233D01*
X395Y1234D01*
X402Y1239D01*
X404Y1242D01*
X431D01*
X432Y1240D01*
X438Y1236D01*
X446Y1234D01*
X454Y1236D01*
X460Y1240D01*
X464Y1246D01*
X466Y1254D01*
X464Y1262D01*
X460Y1268D01*
X454Y1272D01*
X446Y1274D01*
X438Y1272D01*
X432Y1268D01*
X431Y1266D01*
X404D01*
X402Y1269D01*
X395Y1274D01*
X387Y1275D01*
D02*
G37*
G36*
X1107Y1462D02*
X1099Y1461D01*
X1092Y1456D01*
X1087Y1449D01*
X1086Y1441D01*
X1087Y1433D01*
X1092Y1426D01*
X1095Y1424D01*
Y1321D01*
X1095Y1321D01*
X1096Y1316D01*
X1098Y1312D01*
X1159Y1252D01*
X1159Y1248D01*
X1160Y1240D01*
X1165Y1233D01*
X1172Y1228D01*
X1180Y1227D01*
X1188Y1228D01*
X1195Y1233D01*
X1200Y1240D01*
X1201Y1248D01*
X1200Y1256D01*
X1195Y1263D01*
X1188Y1268D01*
X1180Y1269D01*
X1176Y1269D01*
X1119Y1326D01*
Y1424D01*
X1122Y1426D01*
X1127Y1433D01*
X1128Y1441D01*
X1127Y1449D01*
X1122Y1456D01*
X1115Y1461D01*
X1107Y1462D01*
D02*
G37*
G36*
X841Y1469D02*
X833Y1468D01*
X826Y1463D01*
X821Y1456D01*
X819Y1448D01*
X821Y1440D01*
X826Y1433D01*
X833Y1428D01*
X841Y1427D01*
X844Y1427D01*
X926Y1345D01*
X926Y1345D01*
X930Y1343D01*
X935Y1342D01*
X935Y1342D01*
X1003D01*
X1160Y1184D01*
X1160Y1184D01*
X1164Y1182D01*
X1169Y1181D01*
X1169Y1181D01*
X1188D01*
X1190Y1178D01*
X1197Y1173D01*
X1205Y1172D01*
X1213Y1173D01*
X1220Y1178D01*
X1225Y1185D01*
X1226Y1193D01*
X1225Y1201D01*
X1220Y1208D01*
X1213Y1213D01*
X1205Y1214D01*
X1197Y1213D01*
X1190Y1208D01*
X1188Y1205D01*
X1174D01*
X1017Y1363D01*
X1013Y1365D01*
X1008Y1366D01*
X1008Y1366D01*
X940D01*
X861Y1444D01*
X862Y1448D01*
X861Y1456D01*
X856Y1463D01*
X849Y1468D01*
X841Y1469D01*
D02*
G37*
%LPD*%
G36*
X2115Y1184D02*
X2115Y1184D01*
X2119Y1182D01*
X2124Y1181D01*
X2124Y1181D01*
X2208D01*
X2208Y1179D01*
X2212Y1174D01*
X2217Y1170D01*
X2218Y1167D01*
Y1167D01*
X2217Y1165D01*
X2212Y1161D01*
X2208Y1155D01*
X2206Y1149D01*
X2205Y1142D01*
X2206Y1136D01*
X2208Y1129D01*
X2212Y1124D01*
X2217Y1120D01*
X2218Y1117D01*
Y1117D01*
X2217Y1115D01*
X2212Y1111D01*
X2208Y1105D01*
X2208Y1105D01*
X2146D01*
X2074Y1177D01*
X2070Y1179D01*
X2065Y1180D01*
X2065Y1180D01*
X2010D01*
X2009Y1185D01*
X2009Y1185D01*
X2016Y1191D01*
X2022Y1199D01*
X2025Y1205D01*
X2094D01*
X2115Y1184D01*
D02*
G37*
G36*
X2313Y1228D02*
Y1163D01*
X2304Y1155D01*
X2253D01*
X2253Y1155D01*
X2249Y1161D01*
X2244Y1165D01*
X2243Y1167D01*
Y1167D01*
X2244Y1170D01*
X2249Y1174D01*
X2253Y1179D01*
X2256Y1180D01*
X2256D01*
X2258Y1179D01*
X2262Y1174D01*
X2268Y1170D01*
X2274Y1167D01*
X2281Y1166D01*
X2287Y1167D01*
X2294Y1170D01*
X2299Y1174D01*
X2303Y1179D01*
X2306Y1186D01*
X2307Y1192D01*
X2306Y1199D01*
X2303Y1205D01*
X2299Y1211D01*
X2294Y1215D01*
X2287Y1217D01*
X2281Y1218D01*
X2274Y1217D01*
X2268Y1215D01*
X2262Y1211D01*
X2258Y1206D01*
X2256Y1205D01*
X2256D01*
X2253Y1206D01*
X2249Y1211D01*
X2244Y1215D01*
X2237Y1217D01*
X2231Y1218D01*
X2224Y1217D01*
X2218Y1215D01*
X2212Y1211D01*
X2208Y1205D01*
X2208Y1205D01*
X2129D01*
X2108Y1226D01*
X2104Y1229D01*
X2099Y1230D01*
X2099Y1230D01*
X2025D01*
X2022Y1236D01*
X2016Y1244D01*
X2009Y1250D01*
X2006Y1251D01*
X2007Y1256D01*
X2105D01*
X2105Y1256D01*
X2110Y1257D01*
X2114Y1259D01*
X2115Y1261D01*
X2280D01*
X2313Y1228D01*
D02*
G37*
D10*
X690Y1064D02*
D03*
X756D02*
D03*
X755Y1130D02*
D03*
X689D02*
D03*
D26*
X484Y1387D02*
X630Y1240D01*
X484Y1387D02*
X484Y1387D01*
X407Y1309D02*
X484Y1387D01*
X324Y1282D02*
X352Y1309D01*
X407D01*
X324Y1051D02*
Y1282D01*
X362Y911D02*
Y1013D01*
X324Y1051D02*
X362Y1013D01*
X443Y1018D02*
X634Y1209D01*
X413Y1009D02*
X413D01*
Y1018D02*
X443D01*
X344Y893D02*
X362Y911D01*
X1611Y964D02*
X1630Y983D01*
X1336Y964D02*
X1611D01*
X1163Y1137D02*
X1336Y964D01*
X998Y1137D02*
X1163D01*
X926Y1209D02*
X998Y1137D01*
X634Y1209D02*
X926D01*
X895Y955D02*
Y1005D01*
X803Y1097D02*
X895Y1005D01*
X1709Y1001D02*
X1874D01*
X1630Y983D02*
X1691D01*
X1709Y1001D01*
X1874D02*
X1990Y1117D01*
X1350Y1523D02*
X1405Y1468D01*
Y1318D02*
Y1468D01*
X1630Y983D02*
Y1059D01*
X1590Y1099D02*
X1630Y1059D01*
X1590Y1099D02*
Y1263D01*
X1405Y1048D02*
Y1158D01*
Y1318D01*
X1370Y1018D02*
X1375D01*
X1405Y1048D01*
X1590Y1263D02*
X1645Y1318D01*
Y1523D01*
X755Y1130D02*
X803D01*
Y1097D02*
Y1130D01*
D27*
X222Y1442D02*
X310Y1530D01*
X242Y1430D02*
X324Y1512D01*
X902Y1530D02*
X930Y1502D01*
X892Y1512D02*
X900Y1504D01*
X324Y1512D02*
X892D01*
X900Y1453D02*
Y1504D01*
X310Y1530D02*
X902D01*
X930Y1470D02*
Y1502D01*
X387Y1254D02*
X436D01*
X1107Y1321D02*
Y1441D01*
Y1321D02*
X1180Y1248D01*
X1925Y886D02*
Y928D01*
X1896Y857D02*
X1925Y886D01*
X1284Y857D02*
X1896D01*
X1256Y885D02*
X1284Y857D01*
X1256Y885D02*
Y933D01*
X1220Y886D02*
Y933D01*
X1192Y858D02*
X1220Y886D01*
X720Y858D02*
X1192D01*
X1008Y1354D02*
X1169Y1193D01*
X935Y1354D02*
X1008D01*
X841Y1448D02*
X935Y1354D01*
X859Y1135D02*
X962Y1032D01*
Y912D02*
Y1032D01*
X242Y1006D02*
Y1430D01*
Y1006D02*
X281Y967D01*
X335D01*
X203Y932D02*
X222Y952D01*
X695Y883D02*
X720Y858D01*
X695Y883D02*
Y905D01*
X222Y952D02*
Y1442D01*
X689Y1130D02*
Y1166D01*
X680Y1175D02*
X689Y1166D01*
X660Y1175D02*
X680D01*
X1169Y1193D02*
X1205D01*
X1218Y1420D02*
X1345Y1293D01*
X1218Y1420D02*
Y1439D01*
X1143Y1514D02*
X1218Y1439D01*
X1290Y1128D02*
Y1233D01*
Y1128D02*
X1345Y1073D01*
Y1133D02*
Y1293D01*
X1170Y1353D02*
X1290Y1233D01*
X2231Y1142D02*
X2309D01*
X2325Y1158D01*
Y1233D01*
X2230Y1193D02*
X2231Y1192D01*
X2124Y1193D02*
X2230D01*
X2099Y1217D02*
X2124Y1193D01*
X1990Y1217D02*
X2099D01*
X2285Y1273D02*
X2325Y1233D01*
X1890Y1217D02*
X1941Y1268D01*
X2105D02*
X2110Y1273D01*
X2285D01*
X1890Y1117D02*
X1941Y1168D01*
X2065D01*
X2141Y1092D01*
X2231D01*
X1861Y1494D02*
X1861Y1494D01*
Y1383D02*
Y1494D01*
X2068Y1270D02*
Y1321D01*
X1941Y1268D02*
X2105D01*
X690Y1064D02*
Y1129D01*
X689Y1130D02*
X690Y1129D01*
D28*
X413Y1018D02*
D03*
Y1097D02*
D03*
D29*
Y939D02*
D03*
D30*
X2281Y992D02*
D03*
D31*
X2231D02*
D03*
X2281Y1042D02*
D03*
X2231D02*
D03*
X2281Y1092D02*
D03*
X2231D02*
D03*
Y1142D02*
D03*
X2281Y1192D02*
D03*
X2231D02*
D03*
X2281Y1342D02*
D03*
X2231D02*
D03*
X2281Y1392D02*
D03*
X2231D02*
D03*
X2281Y1442D02*
D03*
X2231D02*
D03*
X695Y905D02*
D03*
Y955D02*
D03*
X745Y905D02*
D03*
X795D02*
D03*
Y955D02*
D03*
X845Y905D02*
D03*
Y955D02*
D03*
X895Y905D02*
D03*
D32*
Y955D02*
D03*
D33*
X1890Y1117D02*
D03*
Y1217D02*
D03*
X1990Y1117D02*
D03*
Y1217D02*
D03*
Y1317D02*
D03*
D34*
X1890D02*
D03*
D35*
X2149Y898D02*
D03*
D36*
X561Y938D02*
D03*
X627Y1359D02*
D03*
X660Y1315D02*
D03*
X431Y1381D02*
D03*
X484Y1387D02*
D03*
X446Y1254D02*
D03*
X569Y1555D02*
D03*
X525Y1463D02*
D03*
X1326Y1036D02*
D03*
X561Y1039D02*
D03*
X596Y992D02*
D03*
X525D02*
D03*
X344Y893D02*
D03*
X335Y967D02*
D03*
X203Y932D02*
D03*
X1700Y1040D02*
D03*
X1302Y930D02*
D03*
X364Y1176D02*
D03*
X900Y1453D02*
D03*
X930Y1470D02*
D03*
X185Y1560D02*
D03*
Y1495D02*
D03*
X370Y1565D02*
D03*
X660Y1175D02*
D03*
D37*
X387Y1254D02*
D03*
X1107Y1441D02*
D03*
X1256Y933D02*
D03*
X1220D02*
D03*
X962Y912D02*
D03*
X630Y1240D02*
D03*
X1069Y888D02*
D03*
X860Y1130D02*
D03*
X803D02*
D03*
X1765Y950D02*
D03*
X1805Y1070D02*
D03*
X1143Y1514D02*
D03*
X1413Y1553D02*
D03*
X1350Y1523D02*
D03*
X1405Y1158D02*
D03*
X1345Y1133D02*
D03*
Y1073D02*
D03*
X1180Y1248D02*
D03*
X1205Y1193D02*
D03*
X1455Y1183D02*
D03*
X1590Y1263D02*
D03*
X1370Y1018D02*
D03*
X1563Y1048D02*
D03*
X1590Y1136D02*
D03*
X1645Y1523D02*
D03*
X2151Y1516D02*
D03*
X1833Y1553D02*
D03*
X1490Y1463D02*
D03*
Y923D02*
D03*
X1590Y1338D02*
D03*
X943Y1534D02*
D03*
X1405Y1318D02*
D03*
X2160Y1143D02*
D03*
Y1233D02*
D03*
Y1318D02*
D03*
X1925Y928D02*
D03*
X1780Y1205D02*
D03*
X1170Y1353D02*
D03*
X1350Y1348D02*
D03*
X1630Y983D02*
D03*
X1761Y1343D02*
D03*
X1325Y1428D02*
D03*
X1241Y1551D02*
D03*
X1861Y1383D02*
D03*
X1861Y1494D02*
D03*
X2068Y1321D02*
D03*
X2105Y960D02*
D03*
X841Y1448D02*
D03*
M02*
