G04 Layer_Physical_Order=1*
G04 Layer_Color=255*
%FSLAX23Y23*%
%MOIN*%
G70*
G01*
G75*
%ADD10R,0.057X0.022*%
%ADD11R,0.039X0.043*%
%ADD12R,0.051X0.059*%
%ADD13R,0.039X0.067*%
%ADD14R,0.043X0.039*%
%ADD15O,0.012X0.071*%
%ADD16O,0.071X0.012*%
%ADD17R,0.033X0.016*%
%ADD18R,0.047X0.055*%
%ADD19R,0.075X0.094*%
%ADD20R,0.075X0.046*%
%ADD21R,0.054X0.018*%
%ADD22R,0.083X0.058*%
%ADD23R,0.059X0.051*%
%ADD24O,0.041X0.016*%
%ADD25R,0.031X0.047*%
%ADD26C,0.016*%
%ADD27C,0.012*%
%ADD28C,0.008*%
%ADD29C,0.020*%
%ADD30C,0.014*%
%ADD31C,0.055*%
%ADD32C,0.039*%
%ADD33R,0.039X0.039*%
%ADD34R,0.039X0.039*%
%ADD35C,0.062*%
%ADD36R,0.062X0.062*%
%ADD37C,0.047*%
%ADD38R,0.047X0.047*%
%ADD39C,0.027*%
G36*
X1196Y1504D02*
X1201Y1501D01*
X1205Y1500D01*
X1204Y1495D01*
X1180D01*
X1175Y1494D01*
X1171Y1492D01*
X1171Y1492D01*
X1165Y1485D01*
X1090D01*
X1085Y1484D01*
X1081Y1482D01*
X1081Y1482D01*
X1053Y1453D01*
X988D01*
X988Y1453D01*
X983Y1452D01*
X981Y1451D01*
X980Y1451D01*
X977Y1454D01*
X977Y1456D01*
X977Y1456D01*
Y1486D01*
X988Y1497D01*
X1031D01*
Y1549D01*
X976D01*
Y1519D01*
X964Y1508D01*
X886D01*
X882Y1507D01*
X878Y1504D01*
X878Y1504D01*
X854Y1480D01*
X816D01*
X816Y1480D01*
X811Y1479D01*
X807Y1477D01*
X807Y1477D01*
X796Y1465D01*
X791Y1467D01*
Y1479D01*
X736D01*
Y1427D01*
X754D01*
X756Y1425D01*
X770Y1411D01*
Y1377D01*
Y1348D01*
X771Y1343D01*
X770Y1341D01*
X767Y1340D01*
X767Y1338D01*
X722D01*
X718Y1343D01*
X718Y1345D01*
Y1369D01*
X717Y1374D01*
X714Y1379D01*
X671Y1422D01*
X673Y1427D01*
X724D01*
Y1479D01*
X711D01*
Y1484D01*
X724D01*
Y1536D01*
X669D01*
Y1484D01*
X682D01*
Y1479D01*
X669D01*
Y1436D01*
X664Y1434D01*
X663Y1434D01*
Y1479D01*
X650D01*
Y1484D01*
X663D01*
Y1536D01*
X662D01*
X660Y1540D01*
X679Y1559D01*
X1141D01*
X1196Y1504D01*
D02*
G37*
G36*
X1005Y1103D02*
X964D01*
Y1059D01*
X954D01*
Y1103D01*
X873D01*
Y1115D01*
X875Y1116D01*
X879Y1122D01*
X880Y1130D01*
X879Y1138D01*
X875Y1144D01*
X868Y1148D01*
X860Y1150D01*
X853Y1148D01*
X846Y1144D01*
X842Y1138D01*
X841Y1130D01*
X842Y1122D01*
X846Y1116D01*
X848Y1115D01*
Y1103D01*
X846D01*
Y1059D01*
X836D01*
Y1103D01*
X773D01*
X772Y1104D01*
Y1109D01*
X772Y1110D01*
X772Y1111D01*
Y1129D01*
X772Y1129D01*
X772Y1130D01*
Y1144D01*
X731D01*
Y1154D01*
X772D01*
Y1164D01*
X731D01*
Y1174D01*
X772D01*
Y1188D01*
X772Y1188D01*
X772Y1189D01*
Y1207D01*
X772Y1208D01*
X772Y1209D01*
Y1227D01*
X772Y1228D01*
X772Y1229D01*
Y1243D01*
X731D01*
Y1253D01*
X772D01*
Y1266D01*
X772Y1267D01*
X772Y1268D01*
Y1286D01*
X772Y1287D01*
X772Y1288D01*
Y1306D01*
X772Y1307D01*
X772Y1307D01*
Y1321D01*
X731D01*
Y1331D01*
X772D01*
Y1335D01*
X1005D01*
Y1103D01*
D02*
G37*
G36*
X2352Y850D02*
X501D01*
X499Y855D01*
X517Y873D01*
X546D01*
Y879D01*
X608D01*
Y867D01*
X660D01*
Y922D01*
X608D01*
Y911D01*
X546D01*
Y932D01*
X502D01*
Y898D01*
X478Y874D01*
X427D01*
Y915D01*
X443D01*
Y974D01*
X383D01*
Y915D01*
X399D01*
Y874D01*
X360D01*
X358Y878D01*
X358Y879D01*
X362Y885D01*
X364Y893D01*
X362Y901D01*
X358Y907D01*
X352Y911D01*
X344Y913D01*
X336Y911D01*
X330Y907D01*
X330Y907D01*
X325D01*
X322Y909D01*
Y913D01*
X322Y914D01*
Y925D01*
X253D01*
Y914D01*
X253Y913D01*
Y909D01*
X253Y908D01*
Y878D01*
X248Y876D01*
X237Y887D01*
Y909D01*
X168D01*
Y876D01*
X208D01*
X229Y855D01*
X227Y850D01*
X161D01*
Y1014D01*
X184D01*
X187Y1009D01*
X185Y1006D01*
X183Y998D01*
X185Y990D01*
X186Y989D01*
X183Y984D01*
X168D01*
Y951D01*
X237D01*
Y984D01*
X223D01*
X220Y989D01*
X221Y990D01*
X223Y998D01*
X221Y1006D01*
X219Y1009D01*
X222Y1014D01*
X364D01*
X368Y1015D01*
X372Y1019D01*
X374Y1024D01*
Y1149D01*
X372Y1154D01*
X367Y1156D01*
X348D01*
X348Y1156D01*
Y1157D01*
X314D01*
Y1167D01*
X348D01*
Y1200D01*
X390D01*
X390Y1200D01*
X395Y1201D01*
X399Y1204D01*
X422Y1227D01*
X425Y1231D01*
X426Y1236D01*
X426Y1236D01*
Y1281D01*
X431Y1283D01*
X433Y1282D01*
X441Y1280D01*
X449Y1282D01*
X455Y1286D01*
X459Y1292D01*
X461Y1300D01*
X460Y1303D01*
X464Y1307D01*
X489D01*
Y1293D01*
X489D01*
Y1274D01*
X544D01*
Y1295D01*
X544D01*
Y1343D01*
Y1395D01*
X489D01*
Y1382D01*
X475D01*
X475Y1382D01*
X470Y1381D01*
X466Y1379D01*
X466Y1379D01*
X441Y1353D01*
X436Y1355D01*
X435Y1357D01*
X431Y1363D01*
Y1365D01*
X471Y1405D01*
X504D01*
Y1476D01*
X487D01*
Y1485D01*
X504D01*
Y1556D01*
X441D01*
Y1485D01*
X458D01*
Y1476D01*
X441D01*
Y1415D01*
X434Y1408D01*
X429Y1410D01*
Y1476D01*
X366D01*
Y1410D01*
X362Y1406D01*
X255Y1406D01*
Y1444D01*
X274D01*
Y1516D01*
X211D01*
Y1444D01*
X230D01*
Y1410D01*
X227Y1406D01*
X165D01*
X161Y1409D01*
Y1582D01*
X655D01*
X657Y1577D01*
X625Y1545D01*
X622Y1541D01*
X621Y1536D01*
X608D01*
Y1484D01*
X621D01*
Y1479D01*
X608D01*
Y1427D01*
X626D01*
X690Y1363D01*
Y1345D01*
X691Y1340D01*
X692Y1338D01*
Y1334D01*
X690Y1331D01*
X689Y1326D01*
X690Y1322D01*
X692Y1318D01*
Y1315D01*
X690Y1312D01*
X731D01*
Y1302D01*
X687D01*
X686Y1301D01*
X682Y1300D01*
X633Y1349D01*
Y1353D01*
X632Y1358D01*
X630Y1362D01*
X630Y1362D01*
X614Y1378D01*
X611Y1379D01*
Y1395D01*
X556D01*
Y1343D01*
Y1293D01*
Y1243D01*
X611D01*
Y1249D01*
X619D01*
X632Y1236D01*
X634Y1228D01*
X638Y1222D01*
X644Y1218D01*
X652Y1216D01*
X660Y1218D01*
X666Y1222D01*
X667Y1224D01*
X672Y1224D01*
X677Y1219D01*
X677Y1219D01*
X681Y1217D01*
X685Y1216D01*
X686D01*
X689Y1211D01*
X689Y1208D01*
X689Y1206D01*
X686Y1201D01*
X674D01*
X669Y1200D01*
X665Y1197D01*
X665Y1197D01*
X649Y1181D01*
X573D01*
X568Y1180D01*
X564Y1178D01*
X564Y1178D01*
X541Y1154D01*
X515D01*
Y1154D01*
X496D01*
Y1126D01*
Y1099D01*
X517D01*
Y1099D01*
X543D01*
X550Y1092D01*
X548Y1087D01*
X546D01*
Y1060D01*
Y1032D01*
X617D01*
Y1032D01*
X636D01*
Y1060D01*
Y1087D01*
X615D01*
Y1087D01*
X589D01*
X582Y1094D01*
X584Y1099D01*
X667D01*
Y1127D01*
X670Y1130D01*
X675Y1131D01*
X679Y1133D01*
X682Y1136D01*
X687Y1136D01*
X688Y1134D01*
X731D01*
Y1124D01*
X690D01*
X692Y1121D01*
Y1118D01*
X690Y1115D01*
X731D01*
Y1110D01*
X736D01*
Y1098D01*
X760D01*
X765Y1099D01*
X768Y1099D01*
X770Y1098D01*
X771Y1093D01*
X770Y1088D01*
Y1029D01*
X771Y1024D01*
X771Y1023D01*
X769Y1018D01*
X760D01*
X755Y1017D01*
X751Y1015D01*
X751Y1015D01*
X726Y990D01*
X724Y986D01*
X723Y981D01*
X723Y981D01*
Y968D01*
X718Y967D01*
X717Y968D01*
X713Y973D01*
X708Y977D01*
X702Y980D01*
X700Y980D01*
Y955D01*
X695D01*
Y950D01*
X670D01*
X670Y948D01*
X673Y942D01*
X677Y937D01*
X682Y933D01*
X682Y930D01*
Y930D01*
X682Y927D01*
X677Y923D01*
X673Y918D01*
X670Y912D01*
X669Y905D01*
X670Y898D01*
X673Y892D01*
X677Y887D01*
X682Y883D01*
X688Y880D01*
X695Y879D01*
X702Y880D01*
X708Y883D01*
X713Y887D01*
X717Y892D01*
X720Y892D01*
X720D01*
X723Y892D01*
X727Y887D01*
X732Y883D01*
X738Y880D01*
X745Y879D01*
X752Y880D01*
X758Y883D01*
X763Y887D01*
X767Y892D01*
X770Y892D01*
X770D01*
X773Y892D01*
X777Y887D01*
X782Y883D01*
X788Y880D01*
X795Y879D01*
X802Y880D01*
X808Y883D01*
X813Y887D01*
X817Y892D01*
X820Y892D01*
X820D01*
X823Y892D01*
X827Y887D01*
X832Y883D01*
X833Y882D01*
X834Y880D01*
X836Y876D01*
X851Y861D01*
X855Y859D01*
X860Y858D01*
X860Y858D01*
X940D01*
X940Y858D01*
X945Y859D01*
X949Y861D01*
X971Y883D01*
X973Y887D01*
X974Y892D01*
X974Y892D01*
Y897D01*
X976Y898D01*
X980Y904D01*
X982Y912D01*
X980Y920D01*
X976Y926D01*
X970Y930D01*
X962Y932D01*
X954Y930D01*
X952Y929D01*
X947Y932D01*
Y967D01*
X952Y969D01*
X962Y960D01*
X966Y957D01*
X970Y956D01*
X970Y956D01*
X987D01*
Y935D01*
X1039D01*
Y990D01*
X987D01*
Y981D01*
X975D01*
X971Y985D01*
Y1014D01*
X974Y1016D01*
Y1059D01*
X984D01*
Y1018D01*
X987Y1020D01*
X990D01*
X994Y1018D01*
X998Y1017D01*
X1003Y1018D01*
X1007Y1020D01*
X1009Y1024D01*
X1010Y1029D01*
Y1039D01*
X1015Y1041D01*
X1053Y1003D01*
X1057Y1001D01*
X1061Y1000D01*
X1063Y995D01*
Y974D01*
X1092D01*
Y969D01*
X1097D01*
Y935D01*
X1122D01*
Y935D01*
X1126D01*
Y935D01*
X1185D01*
Y1002D01*
X1165D01*
X1164Y1003D01*
X1164Y1003D01*
X1151Y1017D01*
X1153Y1022D01*
X1185D01*
Y1050D01*
X1155D01*
Y1060D01*
X1185D01*
Y1078D01*
X1189Y1080D01*
X1197Y1073D01*
Y910D01*
X1195Y909D01*
X1191Y903D01*
X1189Y895D01*
X1191Y887D01*
X1195Y881D01*
X1201Y877D01*
X1209Y875D01*
X1217Y877D01*
X1223Y881D01*
X1227Y887D01*
X1229Y895D01*
X1227Y903D01*
X1224Y908D01*
X1228Y911D01*
X1241Y898D01*
X1240Y896D01*
X1242Y888D01*
X1246Y882D01*
X1252Y878D01*
X1260Y876D01*
X1268Y878D01*
X1274Y882D01*
X1278Y888D01*
X1280Y896D01*
X1278Y904D01*
X1274Y910D01*
X1268Y914D01*
X1265Y915D01*
Y920D01*
X1269Y921D01*
X1275Y925D01*
X1279Y931D01*
X1281Y939D01*
X1279Y947D01*
X1275Y953D01*
X1273Y954D01*
Y978D01*
X1273Y980D01*
X1277Y982D01*
X1348Y912D01*
X1348Y912D01*
X1352Y909D01*
X1357Y908D01*
X1357Y908D01*
X1386D01*
X1386Y908D01*
X1388Y903D01*
X1386Y900D01*
X1386Y900D01*
X1438D01*
X1438Y900D01*
X1435Y904D01*
X1435Y906D01*
Y909D01*
X1435Y910D01*
X1438Y915D01*
X1439Y920D01*
X1438Y926D01*
X1435Y930D01*
X1435Y930D01*
Y936D01*
X1435Y936D01*
X1438Y940D01*
X1439Y946D01*
X1438Y951D01*
X1435Y956D01*
X1435Y957D01*
Y960D01*
X1435Y962D01*
X1438Y966D01*
X1439Y971D01*
X1438Y977D01*
X1435Y981D01*
X1430Y984D01*
X1426Y985D01*
Y999D01*
X1454D01*
Y1048D01*
X1466D01*
Y1030D01*
X1488D01*
Y1052D01*
X1487Y1056D01*
X1506Y1075D01*
X1506Y1075D01*
X1509Y1079D01*
X1510Y1084D01*
Y1092D01*
X1512Y1093D01*
X1517Y1090D01*
Y1072D01*
X1562D01*
Y1073D01*
X1614D01*
Y1057D01*
X1639D01*
Y984D01*
X1634Y982D01*
X1631Y987D01*
X1625Y991D01*
X1617Y993D01*
X1609Y991D01*
X1603Y987D01*
X1602Y986D01*
X1555D01*
X1550Y984D01*
X1545Y981D01*
X1542Y977D01*
X1541Y971D01*
X1542Y966D01*
X1545Y962D01*
X1545Y960D01*
Y957D01*
X1545Y956D01*
X1542Y951D01*
X1541Y946D01*
X1542Y940D01*
X1545Y936D01*
X1545Y936D01*
Y930D01*
X1545Y930D01*
X1542Y926D01*
X1541Y920D01*
X1542Y915D01*
X1545Y910D01*
X1545Y909D01*
Y906D01*
X1545Y904D01*
X1542Y900D01*
X1542Y900D01*
X1594D01*
X1594Y900D01*
X1592Y903D01*
X1594Y908D01*
X1594Y908D01*
X1624D01*
Y887D01*
X1679D01*
Y939D01*
X1643D01*
X1641Y943D01*
X1660Y962D01*
X1660Y962D01*
X1663Y966D01*
X1664Y971D01*
X1664Y971D01*
Y1057D01*
X1669D01*
Y1109D01*
X1669D01*
Y1112D01*
X1669D01*
Y1164D01*
X1614D01*
Y1151D01*
X1600D01*
X1599Y1151D01*
Y1157D01*
X1606D01*
Y1209D01*
X1551D01*
Y1157D01*
X1571D01*
Y1151D01*
X1533D01*
X1533Y1150D01*
X1517D01*
Y1123D01*
X1509D01*
X1509Y1123D01*
X1504Y1122D01*
X1500Y1119D01*
X1489Y1108D01*
X1486Y1104D01*
X1486Y1100D01*
X1486Y1100D01*
Y1089D01*
X1478Y1081D01*
X1473Y1083D01*
Y1106D01*
X1428D01*
Y1097D01*
X1398D01*
X1376Y1120D01*
X1372Y1122D01*
X1367Y1123D01*
X1367Y1123D01*
X1360D01*
X1359Y1125D01*
X1353Y1129D01*
X1345Y1131D01*
X1337Y1129D01*
X1331Y1125D01*
X1327Y1119D01*
X1325Y1111D01*
X1327Y1103D01*
X1331Y1097D01*
X1334Y1095D01*
Y1089D01*
X1331Y1087D01*
X1327Y1081D01*
X1325Y1073D01*
X1327Y1065D01*
X1331Y1059D01*
X1337Y1055D01*
X1345Y1053D01*
X1347Y1054D01*
X1349Y1051D01*
X1349Y1051D01*
X1353Y1049D01*
X1358Y1048D01*
X1399D01*
Y1036D01*
X1394Y1034D01*
X1390Y1036D01*
X1382Y1038D01*
X1374Y1036D01*
X1368Y1032D01*
X1364Y1026D01*
X1362Y1018D01*
X1364Y1010D01*
X1368Y1004D01*
X1374Y1000D01*
X1382Y998D01*
X1390Y1000D01*
X1393Y1002D01*
X1398Y999D01*
Y985D01*
X1394Y984D01*
X1389Y981D01*
X1386Y977D01*
X1385Y971D01*
X1386Y966D01*
X1388Y963D01*
X1386Y958D01*
X1386Y958D01*
X1365D01*
X1306Y1017D01*
Y1104D01*
X1305Y1109D01*
X1303Y1113D01*
X1303Y1113D01*
X1256Y1159D01*
X1258Y1164D01*
X1305D01*
Y1211D01*
X1317D01*
Y1195D01*
X1372D01*
Y1211D01*
X1480D01*
X1480Y1211D01*
X1484Y1207D01*
Y1188D01*
X1507D01*
Y1209D01*
X1489D01*
X1487Y1214D01*
X1488Y1214D01*
X1509Y1235D01*
X1509Y1235D01*
X1511Y1238D01*
X1512Y1240D01*
X1517Y1240D01*
Y1230D01*
X1562D01*
Y1232D01*
X1614D01*
Y1226D01*
X1669D01*
Y1278D01*
X1669D01*
Y1279D01*
X1669D01*
Y1331D01*
X1614D01*
Y1309D01*
X1539D01*
X1538Y1309D01*
X1517D01*
Y1282D01*
X1513Y1281D01*
X1509Y1278D01*
X1509Y1278D01*
X1491Y1261D01*
X1489Y1257D01*
X1488Y1252D01*
X1488Y1252D01*
Y1248D01*
X1478Y1239D01*
X1473Y1241D01*
Y1265D01*
X1428D01*
Y1257D01*
X1372D01*
Y1284D01*
X1317D01*
Y1235D01*
X1305D01*
Y1284D01*
X1268D01*
X1229Y1323D01*
X1231Y1327D01*
X1249D01*
Y1377D01*
X1261D01*
Y1358D01*
X1316D01*
Y1377D01*
X1482D01*
X1482Y1377D01*
X1486Y1378D01*
X1490Y1381D01*
X1522Y1412D01*
X1548D01*
X1550Y1412D01*
X1555Y1410D01*
X1581D01*
X1586Y1412D01*
X1591Y1415D01*
X1594Y1419D01*
X1595Y1425D01*
X1594Y1430D01*
X1592Y1433D01*
X1594Y1438D01*
X1594Y1438D01*
X1612D01*
X1655Y1394D01*
X1655Y1394D01*
X1659Y1392D01*
X1664Y1391D01*
X1669D01*
Y1377D01*
X1724D01*
Y1429D01*
X1724D01*
Y1432D01*
X1724Y1432D01*
Y1482D01*
X1724Y1484D01*
Y1487D01*
X1724Y1489D01*
Y1508D01*
X1697D01*
Y1513D01*
X1692D01*
Y1539D01*
X1669D01*
Y1529D01*
X1664Y1528D01*
X1663Y1531D01*
X1659Y1537D01*
X1653Y1541D01*
X1645Y1543D01*
X1637Y1541D01*
X1631Y1537D01*
X1627Y1531D01*
X1625Y1523D01*
X1618Y1516D01*
X1578D01*
Y1522D01*
X1591D01*
Y1574D01*
X1536D01*
Y1522D01*
X1550D01*
Y1515D01*
X1550Y1514D01*
X1545Y1511D01*
X1542Y1507D01*
X1541Y1501D01*
X1542Y1496D01*
X1545Y1492D01*
X1545Y1490D01*
Y1487D01*
X1545Y1486D01*
X1542Y1481D01*
X1541Y1476D01*
X1542Y1470D01*
X1545Y1466D01*
X1545Y1465D01*
Y1461D01*
X1545Y1460D01*
X1542Y1456D01*
X1541Y1450D01*
X1542Y1445D01*
X1544Y1442D01*
X1542Y1437D01*
X1542Y1437D01*
X1517D01*
X1517Y1437D01*
X1512Y1436D01*
X1508Y1433D01*
X1476Y1402D01*
X1316D01*
Y1420D01*
X1288D01*
Y1430D01*
X1316D01*
Y1450D01*
X1334D01*
X1342Y1442D01*
X1342Y1442D01*
X1346Y1439D01*
X1351Y1438D01*
X1351Y1438D01*
X1386D01*
X1386Y1438D01*
X1388Y1433D01*
X1386Y1430D01*
X1386Y1430D01*
X1438D01*
X1438Y1430D01*
X1435Y1434D01*
X1435Y1436D01*
Y1439D01*
X1435Y1440D01*
X1438Y1445D01*
X1439Y1450D01*
X1438Y1456D01*
X1435Y1460D01*
X1435Y1461D01*
Y1465D01*
X1435Y1466D01*
X1438Y1470D01*
X1439Y1476D01*
X1438Y1481D01*
X1435Y1486D01*
X1435Y1487D01*
Y1490D01*
X1435Y1492D01*
X1438Y1496D01*
X1439Y1501D01*
X1438Y1507D01*
X1435Y1511D01*
X1430Y1514D01*
X1425Y1516D01*
X1423D01*
X1423Y1516D01*
X1389D01*
X1381Y1524D01*
X1376Y1527D01*
X1371Y1528D01*
X1362D01*
X1358Y1531D01*
X1350Y1533D01*
X1342Y1531D01*
X1338Y1528D01*
X1212D01*
X1163Y1577D01*
X1165Y1582D01*
X2352D01*
Y850D01*
D02*
G37*
G36*
X367Y1400D02*
Y1298D01*
X352Y1283D01*
X348Y1285D01*
Y1305D01*
X300D01*
Y1310D01*
X295D01*
Y1345D01*
X253D01*
Y1380D01*
X215D01*
Y1328D01*
X210D01*
Y1323D01*
X166D01*
Y1275D01*
Y1251D01*
X253D01*
Y1275D01*
X281D01*
Y1249D01*
Y1224D01*
Y1198D01*
Y1151D01*
X253D01*
Y1175D01*
X166D01*
Y1151D01*
Y1103D01*
X210D01*
Y1098D01*
X215D01*
Y1046D01*
X253D01*
Y1081D01*
X295D01*
Y1116D01*
X300D01*
Y1121D01*
X348D01*
Y1149D01*
X367D01*
Y1024D01*
X364Y1020D01*
X161D01*
Y1396D01*
X165Y1400D01*
X367Y1400D01*
D02*
G37*
%LPC*%
G36*
X726Y1105D02*
X690D01*
X692Y1101D01*
X696Y1099D01*
X701Y1098D01*
X726D01*
Y1105D01*
D02*
G37*
G36*
X2286Y1118D02*
Y1097D01*
X2306D01*
X2306Y1099D01*
X2303Y1105D01*
X2299Y1111D01*
X2294Y1115D01*
X2287Y1117D01*
X2286Y1118D01*
D02*
G37*
G36*
X486Y1121D02*
X465D01*
Y1099D01*
X486D01*
Y1121D01*
D02*
G37*
G36*
X1405Y1178D02*
X1397Y1176D01*
X1391Y1172D01*
X1387Y1166D01*
X1385Y1158D01*
X1387Y1150D01*
X1391Y1144D01*
X1397Y1140D01*
X1405Y1138D01*
X1417Y1126D01*
X1421Y1123D01*
X1427Y1122D01*
X1428D01*
Y1116D01*
X1473D01*
Y1123D01*
Y1150D01*
X1447D01*
X1447Y1151D01*
X1432D01*
X1425Y1158D01*
X1423Y1166D01*
X1419Y1172D01*
X1413Y1176D01*
X1405Y1178D01*
D02*
G37*
G36*
X1808Y1041D02*
X1787D01*
Y1018D01*
X1808D01*
Y1041D01*
D02*
G37*
G36*
X205Y1093D02*
X166D01*
Y1046D01*
X205D01*
Y1093D01*
D02*
G37*
G36*
X667Y1055D02*
X646D01*
Y1032D01*
X667D01*
Y1055D01*
D02*
G37*
G36*
X1521Y1051D02*
X1498D01*
Y1030D01*
X1521D01*
Y1051D01*
D02*
G37*
G36*
X348Y1111D02*
X305D01*
Y1081D01*
X348D01*
Y1111D01*
D02*
G37*
G36*
X667Y1087D02*
X646D01*
Y1065D01*
X667D01*
Y1087D01*
D02*
G37*
G36*
X205Y1241D02*
X166D01*
Y1217D01*
X205D01*
Y1241D01*
D02*
G37*
G36*
X1539Y1209D02*
X1517D01*
Y1188D01*
X1539D01*
Y1209D01*
D02*
G37*
G36*
X253Y1209D02*
X215D01*
Y1185D01*
X253D01*
Y1209D01*
D02*
G37*
G36*
X544Y1264D02*
X522D01*
Y1243D01*
X544D01*
Y1264D01*
D02*
G37*
G36*
X512D02*
X489D01*
Y1243D01*
X512D01*
Y1264D01*
D02*
G37*
G36*
X253Y1241D02*
X215D01*
Y1217D01*
X253D01*
Y1241D01*
D02*
G37*
G36*
X205Y1209D02*
X166D01*
Y1185D01*
X205D01*
Y1209D01*
D02*
G37*
G36*
X1507Y1178D02*
X1484D01*
Y1157D01*
X1507D01*
Y1178D01*
D02*
G37*
G36*
X938Y1252D02*
X930Y1250D01*
X924Y1246D01*
X920Y1240D01*
X918Y1232D01*
X920Y1224D01*
X924Y1218D01*
X928Y1215D01*
Y1180D01*
X924Y1177D01*
X920Y1171D01*
X918Y1163D01*
X920Y1155D01*
X924Y1149D01*
X930Y1145D01*
X938Y1143D01*
X946Y1145D01*
X952Y1149D01*
X956Y1155D01*
X958Y1163D01*
X956Y1171D01*
X952Y1177D01*
X948Y1180D01*
Y1215D01*
X952Y1218D01*
X956Y1224D01*
X958Y1232D01*
X956Y1240D01*
X952Y1246D01*
X946Y1250D01*
X938Y1252D01*
D02*
G37*
G36*
X486Y1154D02*
X465D01*
Y1131D01*
X486D01*
Y1154D01*
D02*
G37*
G36*
X1372Y1185D02*
X1349D01*
Y1164D01*
X1372D01*
Y1185D01*
D02*
G37*
G36*
X1339D02*
X1317D01*
Y1164D01*
X1339D01*
Y1185D01*
D02*
G37*
G36*
X1539Y1178D02*
X1517D01*
Y1157D01*
X1539D01*
Y1178D01*
D02*
G37*
G36*
X1521Y1020D02*
X1498D01*
Y999D01*
X1521D01*
Y1020D01*
D02*
G37*
G36*
X660Y956D02*
X639D01*
Y934D01*
X660D01*
Y956D01*
D02*
G37*
G36*
X629D02*
X608D01*
Y934D01*
X629D01*
Y956D01*
D02*
G37*
G36*
X1039Y923D02*
X1018D01*
Y901D01*
X1039D01*
Y923D01*
D02*
G37*
G36*
X690Y980D02*
X688Y980D01*
X682Y977D01*
X677Y973D01*
X673Y968D01*
X670Y962D01*
X670Y960D01*
X690D01*
Y980D01*
D02*
G37*
G36*
X335Y987D02*
X327Y985D01*
X327Y985D01*
X322Y984D01*
Y984D01*
X322Y984D01*
X253D01*
Y952D01*
X253Y951D01*
Y947D01*
X253Y946D01*
Y935D01*
X322D01*
X322Y946D01*
X326Y950D01*
X327Y949D01*
X335Y947D01*
X343Y949D01*
X349Y953D01*
X353Y959D01*
X355Y967D01*
X353Y975D01*
X349Y981D01*
X343Y985D01*
X335Y987D01*
D02*
G37*
G36*
X1087Y964D02*
X1063D01*
Y935D01*
X1087D01*
Y964D01*
D02*
G37*
G36*
X1008Y923D02*
X987D01*
Y901D01*
X1008D01*
Y923D01*
D02*
G37*
G36*
X1407Y890D02*
X1386D01*
X1386Y889D01*
X1389Y885D01*
X1394Y882D01*
X1399Y880D01*
X1407D01*
Y890D01*
D02*
G37*
G36*
X1039Y891D02*
X1018D01*
Y868D01*
X1039D01*
Y891D01*
D02*
G37*
G36*
X1008D02*
X987D01*
Y868D01*
X1008D01*
Y891D01*
D02*
G37*
G36*
X1594Y890D02*
X1573D01*
Y880D01*
X1581D01*
X1586Y882D01*
X1591Y885D01*
X1594Y889D01*
X1594Y890D01*
D02*
G37*
G36*
X1563D02*
X1542D01*
X1542Y889D01*
X1545Y885D01*
X1550Y882D01*
X1555Y880D01*
X1563D01*
Y890D01*
D02*
G37*
G36*
X1438D02*
X1417D01*
Y880D01*
X1425D01*
X1430Y882D01*
X1435Y885D01*
X1438Y889D01*
X1438Y890D01*
D02*
G37*
G36*
X413Y1132D02*
X405Y1131D01*
X398Y1128D01*
X392Y1123D01*
X387Y1117D01*
X384Y1109D01*
X383Y1102D01*
X384Y1094D01*
X387Y1087D01*
X392Y1081D01*
X398Y1076D01*
X405Y1073D01*
X413Y1072D01*
X415Y1072D01*
X424Y1063D01*
X429Y1060D01*
X434Y1059D01*
X465D01*
Y1032D01*
X473D01*
Y1023D01*
X465D01*
Y964D01*
X508D01*
Y1023D01*
X502D01*
Y1032D01*
X536D01*
Y1060D01*
Y1087D01*
X465D01*
Y1087D01*
X444D01*
X441Y1092D01*
X442Y1094D01*
X443Y1102D01*
X442Y1109D01*
X439Y1117D01*
X434Y1123D01*
X428Y1128D01*
X421Y1131D01*
X413Y1132D01*
D02*
G37*
G36*
Y1053D02*
X405Y1052D01*
X398Y1049D01*
X392Y1044D01*
X387Y1038D01*
X384Y1031D01*
X383Y1023D01*
X384Y1015D01*
X387Y1008D01*
X392Y1002D01*
X398Y997D01*
X405Y994D01*
X413Y993D01*
X421Y994D01*
X428Y997D01*
X434Y1002D01*
X439Y1008D01*
X442Y1015D01*
X443Y1023D01*
X442Y1031D01*
X439Y1038D01*
X434Y1044D01*
X428Y1049D01*
X421Y1052D01*
X413Y1053D01*
D02*
G37*
G36*
X1843Y1041D02*
X1839Y1041D01*
X1838Y1041D01*
X1818D01*
Y1013D01*
Y986D01*
X1838D01*
X1839Y986D01*
X1843Y986D01*
X1844Y986D01*
X1864D01*
Y1013D01*
Y1041D01*
X1844D01*
X1843Y1041D01*
D02*
G37*
G36*
X1808Y1008D02*
X1787D01*
Y986D01*
X1808D01*
Y1008D01*
D02*
G37*
G36*
X1488Y1020D02*
X1466D01*
Y999D01*
X1488D01*
Y1020D01*
D02*
G37*
G36*
X583Y1023D02*
X566D01*
Y998D01*
X583D01*
Y1023D01*
D02*
G37*
G36*
X556D02*
X540D01*
Y998D01*
X556D01*
Y1023D01*
D02*
G37*
G36*
X2086Y974D02*
X2082Y974D01*
X2081Y974D01*
X2061D01*
Y947D01*
Y919D01*
X2081D01*
X2082Y919D01*
X2086Y919D01*
X2087Y919D01*
X2107D01*
X2109Y914D01*
X2108Y913D01*
X2106Y905D01*
X2108Y897D01*
X2112Y891D01*
X2118Y887D01*
X2126Y885D01*
X2134Y887D01*
X2140Y891D01*
X2144Y897D01*
X2146Y905D01*
X2144Y913D01*
X2140Y919D01*
X2138Y920D01*
Y926D01*
X2138Y928D01*
Y974D01*
X2087D01*
X2086Y974D01*
D02*
G37*
G36*
X629Y989D02*
X608D01*
Y966D01*
X629D01*
Y989D01*
D02*
G37*
G36*
X583Y988D02*
X566D01*
Y964D01*
X583D01*
Y988D01*
D02*
G37*
G36*
X556D02*
X540D01*
Y964D01*
X556D01*
Y988D01*
D02*
G37*
G36*
X2030Y974D02*
X2027D01*
X2025Y974D01*
X1996D01*
Y943D01*
Y911D01*
X2027D01*
Y916D01*
X2030Y919D01*
X2032Y919D01*
X2051D01*
Y947D01*
Y974D01*
X2032D01*
X2030Y974D01*
D02*
G37*
G36*
X1895Y974D02*
Y974D01*
X1843D01*
Y974D01*
X1839D01*
Y974D01*
X1787D01*
Y919D01*
X1839D01*
Y919D01*
X1843D01*
Y919D01*
X1849D01*
X1852Y914D01*
X1850Y911D01*
X1848Y903D01*
X1850Y895D01*
X1854Y889D01*
X1860Y885D01*
X1868Y883D01*
X1876Y885D01*
X1882Y889D01*
X1886Y895D01*
X1888Y903D01*
X1886Y911D01*
X1884Y914D01*
X1887Y919D01*
X1895D01*
Y919D01*
X1899D01*
X1899Y919D01*
X1950D01*
X1951Y919D01*
X1955Y918D01*
Y911D01*
X1986D01*
Y943D01*
Y974D01*
X1956D01*
X1955Y974D01*
X1951D01*
X1950Y974D01*
X1899D01*
Y974D01*
X1895D01*
D02*
G37*
G36*
X660Y989D02*
X639D01*
Y966D01*
X660D01*
Y989D01*
D02*
G37*
G36*
X1098Y1549D02*
X1043D01*
Y1497D01*
X1098D01*
Y1502D01*
X1128D01*
X1129Y1500D01*
X1135Y1496D01*
X1143Y1494D01*
X1151Y1496D01*
X1157Y1500D01*
X1161Y1506D01*
X1163Y1514D01*
X1161Y1522D01*
X1157Y1528D01*
X1151Y1532D01*
X1143Y1534D01*
X1135Y1532D01*
X1129Y1528D01*
X1128Y1526D01*
X1098D01*
Y1549D01*
D02*
G37*
G36*
X1882Y1519D02*
X1854D01*
Y1491D01*
X1858Y1491D01*
X1866Y1495D01*
X1873Y1500D01*
X1878Y1507D01*
X1882Y1515D01*
X1882Y1519D01*
D02*
G37*
G36*
X1844D02*
X1816D01*
X1816Y1515D01*
X1820Y1507D01*
X1825Y1500D01*
X1832Y1495D01*
X1840Y1491D01*
X1844Y1491D01*
Y1519D01*
D02*
G37*
G36*
X596Y1536D02*
X574D01*
Y1515D01*
X596D01*
Y1536D01*
D02*
G37*
G36*
X564D02*
X541D01*
Y1515D01*
X564D01*
Y1536D01*
D02*
G37*
G36*
X1955Y1561D02*
X1903D01*
Y1483D01*
X1955D01*
Y1502D01*
X1960Y1504D01*
X1962Y1503D01*
X1970Y1501D01*
X1978Y1503D01*
X1984Y1507D01*
X1988Y1513D01*
X1990Y1521D01*
X1988Y1529D01*
X1984Y1535D01*
X1978Y1539D01*
X1970Y1541D01*
X1962Y1539D01*
X1960Y1538D01*
X1955Y1540D01*
Y1561D01*
D02*
G37*
G36*
X349Y1516D02*
X322D01*
Y1485D01*
X349D01*
Y1516D01*
D02*
G37*
G36*
X791Y1505D02*
X768D01*
Y1484D01*
X791D01*
Y1505D01*
D02*
G37*
G36*
X758D02*
X736D01*
Y1484D01*
X758D01*
Y1505D01*
D02*
G37*
G36*
X596D02*
X574D01*
Y1484D01*
X596D01*
Y1505D01*
D02*
G37*
G36*
X312Y1516D02*
X286D01*
Y1485D01*
X312D01*
Y1516D01*
D02*
G37*
G36*
X429Y1515D02*
X403D01*
Y1485D01*
X429D01*
Y1515D01*
D02*
G37*
G36*
X393D02*
X366D01*
Y1485D01*
X393D01*
Y1515D01*
D02*
G37*
G36*
X1844Y1557D02*
X1840Y1557D01*
X1832Y1553D01*
X1825Y1548D01*
X1820Y1541D01*
X1816Y1533D01*
X1816Y1529D01*
X1844D01*
Y1557D01*
D02*
G37*
G36*
X2089Y1561D02*
X2068D01*
Y1527D01*
X2089D01*
Y1561D01*
D02*
G37*
G36*
X2058D02*
X2037D01*
Y1527D01*
X2058D01*
Y1561D01*
D02*
G37*
G36*
X1524Y1574D02*
X1502D01*
Y1553D01*
X1524D01*
Y1574D01*
D02*
G37*
G36*
X1492D02*
X1469D01*
Y1553D01*
X1492D01*
Y1574D01*
D02*
G37*
G36*
X1854Y1557D02*
Y1529D01*
X1882D01*
X1882Y1533D01*
X1878Y1541D01*
X1873Y1548D01*
X1866Y1553D01*
X1858Y1557D01*
X1854Y1557D01*
D02*
G37*
G36*
X429Y1556D02*
X403D01*
Y1525D01*
X429D01*
Y1556D01*
D02*
G37*
G36*
X1724Y1539D02*
X1702D01*
Y1518D01*
X1724D01*
Y1539D01*
D02*
G37*
G36*
X791Y1536D02*
X768D01*
Y1515D01*
X791D01*
Y1536D01*
D02*
G37*
G36*
X758D02*
X736D01*
Y1515D01*
X758D01*
Y1536D01*
D02*
G37*
G36*
X393Y1556D02*
X366D01*
Y1525D01*
X393D01*
Y1556D01*
D02*
G37*
G36*
X1524Y1543D02*
X1502D01*
Y1522D01*
X1524D01*
Y1543D01*
D02*
G37*
G36*
X1492D02*
X1469D01*
Y1522D01*
X1492D01*
Y1543D01*
D02*
G37*
G36*
X1316Y1348D02*
X1293D01*
Y1327D01*
X1316D01*
Y1348D01*
D02*
G37*
G36*
X1283D02*
X1261D01*
Y1327D01*
X1283D01*
Y1348D01*
D02*
G37*
G36*
X1995Y1354D02*
Y1322D01*
X2027D01*
X2026Y1327D01*
X2022Y1336D01*
X2016Y1344D01*
X2009Y1350D01*
X2000Y1353D01*
X1995Y1354D01*
D02*
G37*
G36*
X1556Y1369D02*
X1533D01*
Y1348D01*
X1556D01*
Y1369D01*
D02*
G37*
G36*
X1523D02*
X1501D01*
Y1348D01*
X1523D01*
Y1369D01*
D02*
G37*
G36*
X205Y1380D02*
X166D01*
Y1333D01*
X205D01*
Y1380D01*
D02*
G37*
G36*
X1556Y1338D02*
X1533D01*
Y1317D01*
X1556D01*
Y1338D01*
D02*
G37*
G36*
X348Y1345D02*
X305D01*
Y1315D01*
X348D01*
Y1345D01*
D02*
G37*
G36*
X2027Y1312D02*
X1995D01*
Y1281D01*
X2000Y1281D01*
X2009Y1285D01*
X2016Y1291D01*
X2022Y1299D01*
X2026Y1308D01*
X2027Y1312D01*
D02*
G37*
G36*
X1791Y1539D02*
X1736D01*
Y1487D01*
X1736D01*
Y1484D01*
X1736D01*
Y1432D01*
X1736D01*
Y1429D01*
X1736D01*
Y1377D01*
X1791D01*
Y1391D01*
X1795Y1392D01*
X1799Y1394D01*
X1829Y1425D01*
X1995D01*
X2074Y1346D01*
Y1284D01*
X2072Y1283D01*
X2068Y1277D01*
X2066Y1269D01*
X2068Y1261D01*
X2072Y1255D01*
X2078Y1251D01*
X2086Y1249D01*
X2094Y1251D01*
X2100Y1255D01*
X2103Y1259D01*
X2108Y1258D01*
Y1140D01*
X2103Y1138D01*
X2065Y1177D01*
X2061Y1179D01*
X2056Y1180D01*
X2056Y1180D01*
X2010D01*
X2009Y1185D01*
X2009Y1185D01*
X2016Y1191D01*
X2022Y1199D01*
X2026Y1208D01*
X2027Y1217D01*
X2026Y1227D01*
X2022Y1236D01*
X2016Y1244D01*
X2009Y1250D01*
X2000Y1253D01*
X1990Y1255D01*
X1980Y1253D01*
X1974Y1251D01*
X1952Y1272D01*
Y1299D01*
X1957Y1300D01*
X1958Y1299D01*
X1964Y1291D01*
X1971Y1285D01*
X1980Y1281D01*
X1985Y1281D01*
Y1317D01*
Y1354D01*
X1980Y1353D01*
X1971Y1350D01*
X1964Y1344D01*
X1958Y1336D01*
X1957Y1335D01*
X1952Y1336D01*
Y1355D01*
X1954Y1356D01*
X1958Y1362D01*
X1960Y1370D01*
X1958Y1378D01*
X1954Y1384D01*
X1948Y1388D01*
X1940Y1390D01*
X1932Y1388D01*
X1926Y1384D01*
X1925Y1382D01*
X1848D01*
X1848Y1382D01*
X1844Y1381D01*
X1840Y1379D01*
X1840Y1379D01*
X1778Y1317D01*
X1736D01*
Y1331D01*
X1681D01*
Y1279D01*
X1681D01*
Y1278D01*
X1681D01*
Y1226D01*
X1736D01*
Y1278D01*
X1736D01*
Y1279D01*
X1736D01*
Y1293D01*
X1783D01*
X1783Y1293D01*
X1788Y1294D01*
X1792Y1296D01*
X1848Y1352D01*
X1853Y1350D01*
Y1298D01*
X1826Y1271D01*
X1824Y1267D01*
X1823Y1262D01*
X1823Y1262D01*
Y1173D01*
X1800Y1150D01*
X1736D01*
Y1164D01*
X1681D01*
Y1112D01*
X1681D01*
Y1109D01*
X1681D01*
Y1057D01*
X1736D01*
Y1109D01*
X1736D01*
Y1112D01*
X1736D01*
Y1126D01*
X1772D01*
X1774Y1121D01*
X1751Y1099D01*
X1749Y1095D01*
X1748Y1090D01*
X1748Y1090D01*
Y1045D01*
X1710Y1007D01*
X1707Y1003D01*
X1706Y998D01*
X1706Y998D01*
Y939D01*
X1691D01*
Y887D01*
X1746D01*
Y939D01*
X1731D01*
Y993D01*
X1769Y1031D01*
X1769Y1031D01*
X1771Y1035D01*
X1772Y1040D01*
Y1085D01*
X1792Y1105D01*
X1855D01*
X1858Y1099D01*
X1864Y1091D01*
X1871Y1085D01*
X1880Y1081D01*
X1890Y1080D01*
X1900Y1081D01*
X1909Y1085D01*
X1916Y1091D01*
X1922Y1099D01*
X1926Y1108D01*
X1927Y1117D01*
X1926Y1127D01*
X1922Y1136D01*
X1916Y1144D01*
X1909Y1150D01*
X1906Y1151D01*
X1907Y1156D01*
X1973D01*
X1974Y1151D01*
X1971Y1150D01*
X1964Y1144D01*
X1958Y1136D01*
X1954Y1127D01*
X1953Y1117D01*
X1954Y1108D01*
X1958Y1099D01*
X1964Y1091D01*
X1971Y1085D01*
X1976Y1083D01*
Y1049D01*
X1955D01*
Y1042D01*
X1951Y1041D01*
X1951Y1041D01*
X1951Y1041D01*
X1900D01*
X1899Y1041D01*
X1895D01*
X1894Y1041D01*
X1874D01*
Y1013D01*
Y986D01*
X1894D01*
X1895Y986D01*
X1899D01*
X1900Y986D01*
X1951D01*
Y986D01*
X1955D01*
X1955Y986D01*
X2025D01*
X2027Y986D01*
X2030D01*
X2032Y986D01*
X2082D01*
Y986D01*
X2086D01*
Y986D01*
X2138D01*
Y1041D01*
X2086D01*
Y1041D01*
X2082D01*
X2082Y1041D01*
X2032D01*
X2030Y1041D01*
X2027Y1044D01*
Y1049D01*
X2004D01*
Y1083D01*
X2009Y1085D01*
X2016Y1091D01*
X2022Y1099D01*
X2026Y1108D01*
X2027Y1117D01*
X2026Y1127D01*
X2022Y1136D01*
X2016Y1144D01*
X2009Y1150D01*
X2006Y1151D01*
X2007Y1156D01*
X2051D01*
X2172Y1035D01*
Y1014D01*
X2172Y1014D01*
X2173Y1009D01*
X2175Y1005D01*
X2197Y984D01*
X2197Y984D01*
X2201Y981D01*
X2206Y980D01*
X2208D01*
X2208Y979D01*
X2212Y974D01*
X2218Y970D01*
X2224Y967D01*
X2231Y966D01*
X2237Y967D01*
X2244Y970D01*
X2249Y974D01*
X2250Y975D01*
X2255Y974D01*
Y967D01*
X2306D01*
Y1018D01*
X2299D01*
X2298Y1023D01*
X2299Y1024D01*
X2303Y1029D01*
X2306Y1036D01*
X2306Y1037D01*
X2281D01*
Y1047D01*
X2306D01*
X2306Y1049D01*
X2303Y1055D01*
X2299Y1061D01*
X2294Y1065D01*
X2293Y1067D01*
Y1067D01*
X2294Y1070D01*
X2299Y1074D01*
X2303Y1079D01*
X2306Y1086D01*
X2306Y1087D01*
X2281D01*
Y1092D01*
X2276D01*
Y1118D01*
X2274Y1117D01*
X2268Y1115D01*
X2262Y1111D01*
X2258Y1106D01*
X2256Y1105D01*
X2256D01*
X2253Y1106D01*
X2249Y1111D01*
X2244Y1115D01*
X2243Y1117D01*
Y1117D01*
X2244Y1120D01*
X2249Y1124D01*
X2253Y1129D01*
X2256Y1136D01*
X2257Y1142D01*
X2256Y1149D01*
X2253Y1155D01*
X2249Y1161D01*
X2244Y1165D01*
X2243Y1167D01*
Y1167D01*
X2244Y1170D01*
X2249Y1174D01*
X2253Y1179D01*
X2256Y1180D01*
X2256D01*
X2258Y1179D01*
X2262Y1174D01*
X2268Y1170D01*
X2274Y1167D01*
X2281Y1166D01*
X2287Y1167D01*
X2294Y1170D01*
X2299Y1174D01*
X2303Y1179D01*
X2306Y1186D01*
X2307Y1192D01*
X2306Y1199D01*
X2303Y1205D01*
X2299Y1211D01*
X2294Y1215D01*
X2287Y1217D01*
X2281Y1218D01*
X2274Y1217D01*
X2268Y1215D01*
X2262Y1211D01*
X2258Y1206D01*
X2256Y1205D01*
X2256D01*
X2253Y1206D01*
X2249Y1211D01*
X2244Y1215D01*
X2237Y1217D01*
X2231Y1218D01*
X2224Y1217D01*
X2218Y1215D01*
X2212Y1211D01*
X2208Y1205D01*
X2206Y1199D01*
X2205Y1192D01*
X2206Y1186D01*
X2208Y1179D01*
X2212Y1174D01*
X2217Y1170D01*
X2218Y1167D01*
Y1167D01*
X2217Y1165D01*
X2212Y1161D01*
X2208Y1155D01*
X2206Y1149D01*
X2205Y1142D01*
X2206Y1136D01*
X2208Y1129D01*
X2212Y1124D01*
X2217Y1120D01*
X2218Y1117D01*
Y1117D01*
X2217Y1115D01*
X2212Y1111D01*
X2208Y1105D01*
X2206Y1099D01*
X2205Y1092D01*
X2206Y1086D01*
X2208Y1079D01*
X2212Y1074D01*
X2217Y1070D01*
X2218Y1067D01*
Y1067D01*
X2217Y1065D01*
X2213Y1061D01*
X2132Y1142D01*
Y1347D01*
X2132Y1347D01*
X2131Y1352D01*
X2129Y1356D01*
X2018Y1467D01*
X2014Y1469D01*
X2009Y1470D01*
X2009Y1470D01*
X1791D01*
Y1484D01*
X1791D01*
Y1487D01*
X1791D01*
Y1539D01*
D02*
G37*
G36*
X1523Y1338D02*
X1501D01*
Y1317D01*
X1523D01*
Y1338D01*
D02*
G37*
G36*
X2306Y1337D02*
X2286D01*
Y1317D01*
X2287Y1317D01*
X2294Y1320D01*
X2299Y1324D01*
X2303Y1329D01*
X2306Y1336D01*
X2306Y1337D01*
D02*
G37*
G36*
X2231Y1468D02*
X2224Y1467D01*
X2218Y1465D01*
X2212Y1461D01*
X2208Y1455D01*
X2206Y1449D01*
X2205Y1442D01*
X2206Y1436D01*
X2208Y1429D01*
X2212Y1424D01*
X2217Y1420D01*
X2218Y1417D01*
Y1417D01*
X2217Y1415D01*
X2212Y1411D01*
X2208Y1405D01*
X2206Y1399D01*
X2205Y1392D01*
X2206Y1386D01*
X2208Y1379D01*
X2212Y1374D01*
X2217Y1370D01*
X2218Y1367D01*
Y1367D01*
X2217Y1365D01*
X2212Y1361D01*
X2208Y1355D01*
X2206Y1349D01*
X2205Y1342D01*
X2206Y1336D01*
X2208Y1329D01*
X2212Y1324D01*
X2218Y1320D01*
X2224Y1317D01*
X2231Y1316D01*
X2237Y1317D01*
X2244Y1320D01*
X2249Y1324D01*
X2253Y1329D01*
X2256Y1330D01*
X2256D01*
X2258Y1329D01*
X2262Y1324D01*
X2268Y1320D01*
X2274Y1317D01*
X2276Y1317D01*
Y1342D01*
X2281D01*
Y1347D01*
X2306D01*
X2306Y1349D01*
X2303Y1355D01*
X2299Y1361D01*
X2294Y1365D01*
X2293Y1367D01*
Y1367D01*
X2294Y1370D01*
X2299Y1374D01*
X2303Y1379D01*
X2306Y1386D01*
X2306Y1387D01*
X2281D01*
Y1397D01*
X2306D01*
X2306Y1399D01*
X2303Y1405D01*
X2299Y1411D01*
X2294Y1415D01*
X2293Y1417D01*
Y1417D01*
X2294Y1420D01*
X2299Y1424D01*
X2303Y1429D01*
X2306Y1436D01*
X2306Y1437D01*
X2281D01*
Y1442D01*
X2276D01*
Y1468D01*
X2274Y1467D01*
X2268Y1465D01*
X2262Y1461D01*
X2258Y1456D01*
X2256Y1455D01*
X2256D01*
X2253Y1456D01*
X2249Y1461D01*
X2244Y1465D01*
X2237Y1467D01*
X2231Y1468D01*
D02*
G37*
G36*
X596Y1479D02*
X574D01*
Y1458D01*
X596D01*
Y1479D01*
D02*
G37*
G36*
X564D02*
X541D01*
Y1458D01*
X564D01*
Y1479D01*
D02*
G37*
G36*
X2286Y1468D02*
Y1447D01*
X2306D01*
X2306Y1449D01*
X2303Y1455D01*
X2299Y1461D01*
X2294Y1465D01*
X2287Y1467D01*
X2286Y1468D01*
D02*
G37*
G36*
X564Y1505D02*
X541D01*
Y1484D01*
X564D01*
Y1505D01*
D02*
G37*
G36*
X2089Y1517D02*
X2068D01*
Y1483D01*
X2089D01*
Y1517D01*
D02*
G37*
G36*
X2058D02*
X2037D01*
Y1483D01*
X2058D01*
Y1517D01*
D02*
G37*
G36*
X349Y1475D02*
X322D01*
Y1444D01*
X349D01*
Y1475D01*
D02*
G37*
G36*
X1438Y1420D02*
X1417D01*
Y1410D01*
X1425D01*
X1430Y1412D01*
X1435Y1415D01*
X1438Y1419D01*
X1438Y1420D01*
D02*
G37*
G36*
X1407D02*
X1386D01*
X1386Y1419D01*
X1389Y1415D01*
X1394Y1412D01*
X1399Y1410D01*
X1407D01*
Y1420D01*
D02*
G37*
G36*
X1489Y1369D02*
X1434D01*
Y1352D01*
X1419D01*
X1412Y1356D01*
X1405Y1358D01*
X1397Y1356D01*
X1391Y1352D01*
X1386Y1345D01*
X1385Y1338D01*
X1386Y1330D01*
X1391Y1324D01*
X1397Y1319D01*
X1405Y1318D01*
X1412Y1319D01*
X1419Y1324D01*
X1419Y1324D01*
X1433D01*
Y1309D01*
X1428D01*
Y1281D01*
Y1275D01*
X1473D01*
Y1281D01*
Y1309D01*
X1461D01*
Y1317D01*
X1489D01*
Y1369D01*
D02*
G37*
G36*
X312Y1475D02*
X286D01*
Y1444D01*
X312D01*
Y1475D01*
D02*
G37*
G36*
X596Y1448D02*
X574D01*
Y1427D01*
X596D01*
Y1448D01*
D02*
G37*
G36*
X564D02*
X541D01*
Y1427D01*
X564D01*
Y1448D01*
D02*
G37*
%LPD*%
D10*
X203Y967D02*
D03*
Y893D02*
D03*
X287Y967D02*
D03*
Y930D02*
D03*
Y893D02*
D03*
D11*
X541Y1126D02*
D03*
Y1060D02*
D03*
X591Y1126D02*
D03*
Y1060D02*
D03*
X1013Y962D02*
D03*
Y896D02*
D03*
X641Y1060D02*
D03*
Y1126D02*
D03*
X1925Y1013D02*
D03*
Y947D02*
D03*
X1869D02*
D03*
Y1013D02*
D03*
X1813Y947D02*
D03*
Y1013D02*
D03*
X634Y961D02*
D03*
Y895D02*
D03*
X491Y1126D02*
D03*
Y1060D02*
D03*
X2056Y947D02*
D03*
Y1013D02*
D03*
X2112Y947D02*
D03*
Y1013D02*
D03*
D12*
X317Y1480D02*
D03*
X243D02*
D03*
X398Y1440D02*
D03*
X472D02*
D03*
Y1520D02*
D03*
X398D02*
D03*
D13*
X2063Y1522D02*
D03*
X1929D02*
D03*
D14*
X1462Y1343D02*
D03*
X1528D02*
D03*
X1512Y1183D02*
D03*
X1578D02*
D03*
X1563Y1548D02*
D03*
X1497D02*
D03*
X517Y1269D02*
D03*
X583D02*
D03*
X1288Y1425D02*
D03*
X1222D02*
D03*
Y1353D02*
D03*
X1288D02*
D03*
X1070Y1523D02*
D03*
X1004D02*
D03*
X1697Y1458D02*
D03*
X1763D02*
D03*
Y1513D02*
D03*
X1697D02*
D03*
X1642Y1252D02*
D03*
X1708D02*
D03*
Y1305D02*
D03*
X1642D02*
D03*
Y1083D02*
D03*
X1708D02*
D03*
Y1138D02*
D03*
X1642D02*
D03*
X517Y1319D02*
D03*
X583D02*
D03*
Y1369D02*
D03*
X517D02*
D03*
X635Y1453D02*
D03*
X569D02*
D03*
X1493Y1025D02*
D03*
X1427D02*
D03*
X635Y1510D02*
D03*
X569D02*
D03*
X697Y1453D02*
D03*
X763D02*
D03*
X1763Y1403D02*
D03*
X1697D02*
D03*
X1652Y913D02*
D03*
X1718D02*
D03*
X1344Y1190D02*
D03*
X1278D02*
D03*
Y1258D02*
D03*
X1344D02*
D03*
X763Y1510D02*
D03*
X697D02*
D03*
D15*
X782Y1377D02*
D03*
X801D02*
D03*
X821D02*
D03*
X841D02*
D03*
X860D02*
D03*
X880D02*
D03*
X900D02*
D03*
X920D02*
D03*
X939D02*
D03*
X959D02*
D03*
X979D02*
D03*
X998D02*
D03*
Y1059D02*
D03*
X979D02*
D03*
X959D02*
D03*
X939D02*
D03*
X920D02*
D03*
X900D02*
D03*
X880D02*
D03*
X860D02*
D03*
X841D02*
D03*
X821D02*
D03*
X801D02*
D03*
X782D02*
D03*
D16*
X1049Y1326D02*
D03*
Y1307D02*
D03*
Y1287D02*
D03*
Y1267D02*
D03*
Y1248D02*
D03*
Y1228D02*
D03*
Y1208D02*
D03*
Y1188D02*
D03*
Y1169D02*
D03*
Y1149D02*
D03*
Y1129D02*
D03*
Y1110D02*
D03*
X731D02*
D03*
Y1129D02*
D03*
Y1149D02*
D03*
Y1169D02*
D03*
Y1188D02*
D03*
Y1208D02*
D03*
Y1228D02*
D03*
Y1248D02*
D03*
Y1267D02*
D03*
Y1287D02*
D03*
Y1307D02*
D03*
Y1326D02*
D03*
D17*
X1539Y1137D02*
D03*
Y1111D02*
D03*
Y1085D02*
D03*
X1451D02*
D03*
Y1111D02*
D03*
Y1137D02*
D03*
Y1295D02*
D03*
Y1270D02*
D03*
Y1244D02*
D03*
X1539D02*
D03*
Y1270D02*
D03*
Y1295D02*
D03*
D18*
X1155Y969D02*
D03*
X1092D02*
D03*
Y1055D02*
D03*
X1155D02*
D03*
D19*
X210Y1328D02*
D03*
Y1098D02*
D03*
D20*
Y1180D02*
D03*
Y1246D02*
D03*
D21*
X314Y1213D02*
D03*
Y1187D02*
D03*
Y1162D02*
D03*
Y1264D02*
D03*
Y1239D02*
D03*
D22*
X300Y1116D02*
D03*
Y1310D02*
D03*
D23*
X1991Y1017D02*
D03*
Y943D02*
D03*
D24*
X1568Y1425D02*
D03*
Y1450D02*
D03*
Y1476D02*
D03*
Y1501D02*
D03*
X1412Y1425D02*
D03*
Y1450D02*
D03*
Y1476D02*
D03*
Y1501D02*
D03*
Y971D02*
D03*
Y946D02*
D03*
Y920D02*
D03*
Y895D02*
D03*
X1568Y971D02*
D03*
Y946D02*
D03*
Y920D02*
D03*
Y895D02*
D03*
D25*
X561Y993D02*
D03*
X487D02*
D03*
X524Y903D02*
D03*
D26*
X484Y860D02*
X525Y901D01*
X244Y860D02*
X484D01*
X203Y968D02*
Y998D01*
X203Y967D02*
X203Y968D01*
X417Y1349D02*
Y1371D01*
X472Y1426D01*
X386Y1297D02*
Y1429D01*
X1990Y1016D02*
Y1117D01*
X1933Y1016D02*
X1990D01*
X2056Y1013D02*
X2112D01*
X1578Y1183D02*
X1585Y1176D01*
X697Y1453D02*
Y1510D01*
X1564Y1501D02*
Y1534D01*
Y1501D02*
X1623D01*
X635Y1438D02*
Y1453D01*
X434Y1073D02*
X482D01*
X420Y1087D02*
X434Y1073D01*
X420Y1087D02*
Y1095D01*
X211Y893D02*
X244Y860D01*
X203Y893D02*
X211D01*
X488Y991D02*
Y1052D01*
X413Y1088D02*
X420Y1095D01*
X635Y1510D02*
Y1535D01*
Y1453D02*
Y1510D01*
Y1535D02*
X673Y1573D01*
X378Y1289D02*
X386Y1297D01*
X353Y1264D02*
X378Y1289D01*
X472Y1440D02*
Y1520D01*
X287Y893D02*
X344D01*
X413Y862D02*
Y930D01*
X288Y967D02*
X335D01*
X287Y967D02*
X288Y967D01*
X1405Y1158D02*
X1427Y1136D01*
X315Y1264D02*
X353D01*
X1623Y1501D02*
X1645Y1523D01*
X1427Y1136D02*
X1447D01*
Y1296D02*
Y1334D01*
X1405Y1338D02*
X1462D01*
X593Y1263D02*
X625D01*
X652Y1236D01*
X704Y1345D02*
Y1369D01*
X635Y1438D02*
X704Y1369D01*
X673Y1573D02*
X1147D01*
X1412Y971D02*
Y1016D01*
X1610Y973D02*
X1617D01*
X1568Y971D02*
X1608D01*
X1610Y973D01*
X472Y1426D02*
Y1440D01*
X1371Y1514D02*
X1384Y1501D01*
X1423D01*
X1206Y1514D02*
X1371D01*
X1147Y1573D02*
X1206Y1514D01*
X1382Y1018D02*
X1422D01*
X1585Y1136D02*
Y1137D01*
Y1176D01*
Y1270D02*
Y1291D01*
D27*
X1345Y1111D02*
X1367D01*
X1393Y1085D01*
X965Y1491D02*
X997Y1523D01*
X965Y1456D02*
Y1491D01*
X959Y1450D02*
X965Y1456D01*
X1090Y1473D02*
X1170D01*
X1058Y1441D02*
X1090Y1473D01*
X988Y1441D02*
X1058D01*
X979Y1432D02*
X988Y1441D01*
X1824Y1437D02*
X2000D01*
X2086Y1269D02*
Y1351D01*
X2000Y1437D02*
X2086Y1351D01*
X2120Y1137D02*
Y1347D01*
X2009Y1458D02*
X2120Y1347D01*
X2126Y905D02*
Y926D01*
X2108Y943D02*
X2112Y947D01*
X414Y1309D02*
X475Y1370D01*
X517D01*
X414Y1236D02*
Y1309D01*
X605Y1369D02*
X621Y1353D01*
Y1344D02*
Y1353D01*
Y1344D02*
X678Y1287D01*
X731D01*
X588Y1369D02*
X605D01*
X1014Y1059D02*
X1061Y1012D01*
X998Y1059D02*
X1014D01*
X1061Y1012D02*
X1138D01*
X1155Y995D01*
X1183Y1135D02*
Y1167D01*
X1162Y1188D02*
X1183Y1167D01*
X1049Y1188D02*
X1162D01*
X1183Y1135D02*
X1232Y1086D01*
X1168Y1208D02*
X1204Y1172D01*
Y1139D02*
Y1172D01*
X1049Y1208D02*
X1168D01*
X1204Y1139D02*
X1253Y1090D01*
X1177Y1228D02*
X1222Y1183D01*
Y1149D02*
Y1183D01*
Y1149D02*
X1273Y1098D01*
X1214Y1220D02*
X1241Y1193D01*
Y1157D02*
Y1193D01*
Y1157D02*
X1294Y1104D01*
X1104Y1169D02*
X1124Y1149D01*
X1049Y1169D02*
X1104D01*
X1144Y1248D02*
X1167Y1271D01*
X1049Y1248D02*
X1144D01*
X1214Y1220D02*
Y1248D01*
X1240Y1229D02*
Y1263D01*
Y1229D02*
X1246Y1223D01*
X1143Y1320D02*
X1215D01*
X1110Y1287D02*
X1143Y1320D01*
X1049Y1287D02*
X1110D01*
X1049Y1267D02*
X1126D01*
X1215Y1320D02*
X1281Y1254D01*
X1110Y1106D02*
X1181D01*
X1087Y1129D02*
X1110Y1106D01*
X1049Y1129D02*
X1087D01*
X1092Y1061D02*
Y1095D01*
X1077Y1110D02*
X1092Y1095D01*
X1049Y1110D02*
X1077D01*
X1049Y1149D02*
X1124D01*
X1049Y1228D02*
X1177D01*
X1181Y1106D02*
X1209Y1078D01*
X830Y1116D02*
X841Y1105D01*
Y1059D02*
Y1105D01*
X1232Y924D02*
Y1086D01*
Y924D02*
X1260Y896D01*
X1813Y947D02*
X1869D01*
X1868Y903D02*
Y946D01*
X1209Y895D02*
Y1078D01*
X1869Y947D02*
X1925D01*
X2056Y1168D02*
X2184Y1040D01*
X1835Y1168D02*
X2056D01*
X2206Y992D02*
X2231D01*
X2184Y1014D02*
X2206Y992D01*
X2184Y1014D02*
Y1040D01*
X2214Y1042D02*
X2231D01*
X2120Y1137D02*
X2214Y1042D01*
X1931Y1521D02*
X1970D01*
X1929Y1519D02*
X1931Y1521D01*
X1246Y1223D02*
X1480D01*
X1294Y1012D02*
Y1104D01*
X1940Y1267D02*
Y1370D01*
X704Y1328D02*
Y1345D01*
X999Y1390D02*
X1482D01*
X1222Y1390D02*
Y1425D01*
X656Y1267D02*
X731D01*
X604Y1319D02*
X656Y1267D01*
X583Y1319D02*
X604D01*
X666Y1324D02*
X683Y1307D01*
X652Y1236D02*
X677D01*
X685Y1228D01*
X731D01*
Y1326D02*
X795D01*
X683Y1307D02*
X731D01*
X782Y1377D02*
Y1416D01*
X764Y1434D02*
X782Y1416D01*
X764Y1434D02*
Y1459D01*
X458Y1319D02*
X517D01*
X654Y1169D02*
X674Y1188D01*
X573Y1169D02*
X654D01*
X541Y1137D02*
X573Y1169D01*
X541Y1126D02*
Y1137D01*
X674Y1188D02*
X731D01*
X541Y1118D02*
Y1126D01*
Y1118D02*
X587Y1072D01*
X638Y1142D02*
X670D01*
X591Y1126D02*
X641D01*
X1790Y1403D02*
X1824Y1437D01*
X674Y1110D02*
X731D01*
X677Y1124D02*
X677D01*
X683Y1129D01*
X731D01*
X673Y1120D02*
X677Y1124D01*
X689Y1149D02*
X731D01*
X677D02*
X689D01*
X670Y1142D02*
X677Y1149D01*
X1498Y1100D02*
X1509Y1111D01*
X1360Y946D02*
X1423D01*
X1294Y1012D02*
X1360Y946D01*
X1357Y920D02*
X1423D01*
X940Y870D02*
X962Y892D01*
Y912D01*
X935Y919D02*
Y1000D01*
X921Y905D02*
X935Y919D01*
X920Y1015D02*
X935Y1000D01*
X895Y905D02*
X921D01*
X735Y935D02*
Y981D01*
Y935D02*
X745Y925D01*
Y905D02*
Y925D01*
X735Y981D02*
X760Y1006D01*
X860Y870D02*
X940D01*
X845Y885D02*
X860Y870D01*
X845Y885D02*
Y905D01*
X760Y1006D02*
X863D01*
X775Y988D02*
X878D01*
X760Y973D02*
X775Y988D01*
X760Y940D02*
Y973D01*
Y940D02*
X795Y905D01*
X920Y1015D02*
Y1059D01*
X970Y968D02*
X1021D01*
X959Y980D02*
X970Y968D01*
X959Y980D02*
Y1059D01*
X1155Y969D02*
Y995D01*
X1345Y1073D02*
X1358Y1060D01*
X1760Y1040D02*
Y1090D01*
X1718Y998D02*
X1760Y1040D01*
X1718Y908D02*
Y998D01*
X243Y1390D02*
Y1480D01*
X920Y1377D02*
Y1422D01*
X997Y1523D02*
X1004D01*
X689Y1159D02*
X699Y1169D01*
X689Y1149D02*
Y1159D01*
X699Y1169D02*
X794D01*
X979Y1000D02*
Y1059D01*
X863Y1006D02*
X880Y1024D01*
X878Y988D02*
X900Y1010D01*
Y1059D01*
X860Y1130D02*
X860Y1130D01*
Y1059D02*
Y1130D01*
X880Y1024D02*
Y1059D01*
X1079Y1514D02*
X1143D01*
X1480Y1223D02*
X1500Y1243D01*
X1345Y1245D02*
X1447D01*
X1272Y1193D02*
Y1221D01*
X1805Y1138D02*
X1835Y1168D01*
X1718Y1138D02*
X1805D01*
X1835Y1168D02*
Y1262D01*
X1890Y1317D01*
X1708Y1258D02*
Y1305D01*
X1783D01*
X1049Y1326D02*
X1120D01*
X757Y1466D02*
X764Y1459D01*
X1049Y1307D02*
X1100D01*
X1533Y1085D02*
X1649D01*
X1557Y920D02*
X1639D01*
X979Y1377D02*
Y1432D01*
X315Y1161D02*
X375D01*
X210Y1098D02*
Y1327D01*
X731Y1248D02*
X810D01*
X959Y1059D02*
Y1132D01*
X1405Y1269D02*
X1483D01*
X1509Y1111D02*
X1533D01*
X1763Y1458D02*
Y1513D01*
X1940Y1267D02*
X1990Y1217D01*
X731Y1149D02*
X796D01*
X1447Y1111D02*
X1478D01*
X1501Y1134D01*
Y1144D01*
X1501Y1144D01*
Y1172D01*
X1147Y1353D02*
X1222D01*
X1367Y1425D02*
X1451D01*
X1501Y981D02*
Y1056D01*
X1718Y1083D02*
Y1138D01*
X1482Y1390D02*
X1517Y1425D01*
X1557D01*
X1763Y1403D02*
X1790D01*
X1787Y1117D02*
X1890D01*
X1760Y1090D02*
X1787Y1117D01*
X1100Y1307D02*
X1120Y1326D01*
X1147Y1353D01*
X801Y1377D02*
Y1453D01*
X1281Y1245D02*
Y1254D01*
X1273Y1004D02*
X1357Y920D01*
X1273Y1004D02*
Y1098D01*
X1763Y1458D02*
X2009D01*
X1339Y1462D02*
X1351Y1450D01*
X1412D01*
X1423D01*
X1359Y1476D02*
X1412D01*
Y1476D02*
X1423D01*
X1352Y1483D02*
X1359Y1476D01*
X933Y1435D02*
Y1470D01*
X920Y1422D02*
X933Y1435D01*
X900Y1377D02*
Y1467D01*
X898Y1469D02*
X900D01*
X959Y1377D02*
Y1450D01*
X886Y1495D02*
X969D01*
X801Y1453D02*
X816Y1468D01*
X859D02*
X886Y1495D01*
X816Y1468D02*
X859D01*
X841Y1377D02*
Y1439D01*
X860Y1420D01*
Y1377D02*
Y1420D01*
X439Y1300D02*
X458Y1319D01*
X315Y1212D02*
X390D01*
X414Y1236D01*
X362Y1238D02*
X370Y1246D01*
X315Y1238D02*
X362D01*
X370Y1246D02*
X387D01*
X439Y1300D02*
X441D01*
X1107Y1441D02*
X1168D01*
X1189Y1462D01*
X1339D01*
X1170Y1473D02*
X1180Y1483D01*
X1352D01*
X1393Y1085D02*
X1447D01*
X1557Y946D02*
X1627D01*
X1652Y971D01*
Y1083D01*
X1358Y1060D02*
X1474D01*
X1498Y1084D01*
Y1100D01*
X1783Y1305D02*
X1848Y1370D01*
X1940D01*
X1539Y1244D02*
X1634D01*
X1500Y1243D02*
Y1252D01*
X1518Y1270D01*
X1539D01*
X1557Y1450D02*
X1617D01*
X1664Y1403D01*
X1697D01*
X1557Y1476D02*
X1633D01*
X1651Y1458D01*
X1697D01*
X1126Y1267D02*
X1157Y1298D01*
X1205D01*
X1240Y1263D01*
X1253Y974D02*
Y1090D01*
Y974D02*
X1261Y966D01*
Y939D02*
Y966D01*
D28*
X1813Y1013D02*
X1869D01*
X938Y1163D02*
Y1232D01*
D29*
X525Y895D02*
X628D01*
X525Y992D02*
X592D01*
D30*
X1640Y1137D02*
X1642Y1138D01*
X1539Y1137D02*
X1585D01*
X1640D01*
X1539Y1295D02*
X1632D01*
D31*
X1136Y1149D02*
D03*
X1849Y1524D02*
D03*
D32*
X695Y905D02*
D03*
Y955D02*
D03*
X745Y905D02*
D03*
X795D02*
D03*
Y955D02*
D03*
X845Y905D02*
D03*
Y955D02*
D03*
X895Y905D02*
D03*
X2231Y992D02*
D03*
X2281Y1042D02*
D03*
X2231D02*
D03*
X2281Y1092D02*
D03*
X2231D02*
D03*
Y1142D02*
D03*
X2281Y1192D02*
D03*
X2231D02*
D03*
X2281Y1342D02*
D03*
X2231D02*
D03*
X2281Y1392D02*
D03*
X2231D02*
D03*
X2281Y1442D02*
D03*
X2231D02*
D03*
D33*
X895Y955D02*
D03*
D34*
X2281Y992D02*
D03*
D35*
X1890Y1117D02*
D03*
Y1217D02*
D03*
X1990Y1117D02*
D03*
Y1217D02*
D03*
Y1317D02*
D03*
D36*
X1890D02*
D03*
D37*
X413Y1023D02*
D03*
Y1102D02*
D03*
D38*
Y944D02*
D03*
D39*
X365Y1174D02*
D03*
X195Y929D02*
D03*
X203Y998D02*
D03*
X239Y929D02*
D03*
X335Y930D02*
D03*
X1491Y1132D02*
D03*
X1374Y1137D02*
D03*
X1345Y1111D02*
D03*
X1021Y1008D02*
D03*
X720Y1072D02*
D03*
X2086Y1269D02*
D03*
X2126Y905D02*
D03*
X417Y1349D02*
D03*
X669Y1344D02*
D03*
X753Y1374D02*
D03*
X823Y1543D02*
D03*
X1214Y1248D02*
D03*
X1167Y1271D02*
D03*
X1627Y1188D02*
D03*
X1694Y1041D02*
D03*
X1467Y908D02*
D03*
X1758Y960D02*
D03*
X2223Y906D02*
D03*
X1868Y903D02*
D03*
X1261Y939D02*
D03*
X1209Y895D02*
D03*
X2094Y1069D02*
D03*
X1585Y1270D02*
D03*
X1970Y1521D02*
D03*
X1260Y896D02*
D03*
X1940Y1370D02*
D03*
X1537Y1390D02*
D03*
X1510Y971D02*
D03*
X447Y1228D02*
D03*
X652Y1236D02*
D03*
X565Y938D02*
D03*
X640Y1380D02*
D03*
X559Y1558D02*
D03*
X523Y1453D02*
D03*
X1337Y1029D02*
D03*
X1107Y1441D02*
D03*
X525Y992D02*
D03*
X344Y893D02*
D03*
X962Y912D02*
D03*
X335Y967D02*
D03*
X185Y1495D02*
D03*
X285Y1564D02*
D03*
X1092Y915D02*
D03*
X860Y1130D02*
D03*
X803D02*
D03*
X1819Y1070D02*
D03*
X1143Y1514D02*
D03*
X1508Y1498D02*
D03*
X1405Y1158D02*
D03*
X1345Y1073D02*
D03*
X1455Y1183D02*
D03*
X1539Y1052D02*
D03*
X1585Y1136D02*
D03*
X1645Y1523D02*
D03*
X1466Y1432D02*
D03*
X1590Y1338D02*
D03*
X943Y1534D02*
D03*
X2161Y1268D02*
D03*
X1778Y1180D02*
D03*
X1350Y1348D02*
D03*
X1786Y1352D02*
D03*
X1348Y1422D02*
D03*
X1241Y1551D02*
D03*
X1350Y1513D02*
D03*
X1178Y1353D02*
D03*
X576Y864D02*
D03*
X483Y937D02*
D03*
X503Y1228D02*
D03*
X1689Y958D02*
D03*
X2070Y866D02*
D03*
X1933Y865D02*
D03*
X1493Y1292D02*
D03*
X1660Y1358D02*
D03*
X1617Y973D02*
D03*
X938Y1232D02*
D03*
Y1163D02*
D03*
X933Y1470D02*
D03*
X900Y1469D02*
D03*
X828Y1441D02*
D03*
X387Y1246D02*
D03*
X441Y1300D02*
D03*
X1583Y1052D02*
D03*
X1313Y926D02*
D03*
X1170Y915D02*
D03*
X1289Y1147D02*
D03*
X1405Y1338D02*
D03*
X1382Y1018D02*
D03*
X595Y992D02*
D03*
M02*
