G04 Layer_Color=65535*
%FSLAX23Y23*%
%MOIN*%
G70*
G01*
G75*
%ADD28C,0.008*%
%ADD44C,0.010*%
%ADD45C,0.008*%
%ADD46C,0.024*%
%ADD47C,0.004*%
%ADD48C,0.012*%
%ADD49C,0.005*%
%ADD50C,0.007*%
G36*
X2305Y890D02*
X2240D01*
X2275Y945D01*
X2305Y890D01*
D02*
G37*
G36*
X980Y918D02*
X925Y953D01*
X980Y983D01*
Y918D01*
D02*
G37*
G36*
X1890Y1387D02*
X1860Y1442D01*
X1926D01*
X1890Y1387D01*
D02*
G37*
D28*
X782Y1110D02*
X998D01*
X782Y1326D02*
X998D01*
Y1110D02*
Y1326D01*
X782Y1110D02*
Y1326D01*
X374Y1141D02*
X452D01*
Y905D02*
Y1141D01*
X374Y905D02*
Y1141D01*
Y905D02*
X452D01*
D44*
X1456Y1161D02*
G03*
X1456Y1161I-5J0D01*
G01*
Y1320D02*
G03*
X1456Y1320I-5J0D01*
G01*
X1417Y1526D02*
G03*
X1417Y1526I-5J0D01*
G01*
Y996D02*
G03*
X1417Y996I-5J0D01*
G01*
X598Y1009D02*
G03*
X598Y1009I-5J0D01*
G01*
X2184Y1291D02*
G03*
X2184Y1291I-5J0D01*
G01*
X309Y864D02*
G03*
X309Y864I-5J0D01*
G01*
X735Y1354D02*
G03*
X735Y1354I-5J0D01*
G01*
D45*
X1177Y1149D02*
G03*
X1177Y1149I-41J0D01*
G01*
X1890Y1524D02*
G03*
X1890Y1524I-41J0D01*
G01*
X380Y1187D02*
X387Y1194D01*
X400D01*
X407Y1187D01*
Y1181D01*
X400Y1174D01*
X393D01*
X400D01*
X407Y1167D01*
Y1161D01*
X400Y1154D01*
X387D01*
X380Y1161D01*
X420Y1194D02*
Y1167D01*
X433Y1154D01*
X447Y1167D01*
Y1194D01*
X408Y893D02*
X381D01*
Y873D01*
X394Y880D01*
X401D01*
X408Y873D01*
Y860D01*
X401Y853D01*
X388D01*
X381Y860D01*
X421Y893D02*
Y866D01*
X434Y853D01*
X448Y866D01*
Y893D01*
X2054Y1328D02*
X2104D01*
Y1353D01*
X2096Y1361D01*
X2087D01*
X2079Y1353D01*
Y1328D01*
Y1353D01*
X2071Y1361D01*
X2062D01*
X2054Y1353D01*
Y1328D01*
Y1378D02*
X2104D01*
Y1403D01*
X2096Y1411D01*
X2062D01*
X2054Y1403D01*
Y1378D01*
X2104Y1428D02*
X2054D01*
X2071Y1445D01*
X2054Y1461D01*
X2104D01*
X2133Y1360D02*
X2125Y1352D01*
Y1335D01*
X2133Y1327D01*
X2142D01*
X2150Y1335D01*
Y1352D01*
X2158Y1360D01*
X2167D01*
X2175Y1352D01*
Y1335D01*
X2167Y1327D01*
X2125Y1377D02*
X2175D01*
X2158Y1394D01*
X2175Y1410D01*
X2125D01*
Y1427D02*
X2175D01*
Y1452D01*
X2167Y1460D01*
X2133D01*
X2125Y1452D01*
Y1427D01*
D46*
X833Y1287D02*
G03*
X833Y1287I-12J0D01*
G01*
D47*
X325Y1358D02*
Y1370D01*
Y1056D02*
Y1068D01*
X262Y1370D02*
X325D01*
X262Y1056D02*
X325D01*
X153Y1059D02*
Y1367D01*
X1507Y1072D02*
Y1151D01*
X1483Y1072D02*
Y1151D01*
Y1072D02*
X1507D01*
X1483Y1151D02*
X1507D01*
X1483Y1310D02*
X1507D01*
X1483Y1231D02*
X1507D01*
X1483D02*
Y1310D01*
X1507Y1231D02*
Y1310D01*
X1449Y1405D02*
X1531D01*
X1449Y1522D02*
X1531D01*
Y1405D02*
Y1522D01*
X1449Y1405D02*
Y1522D01*
Y875D02*
Y992D01*
X1531Y875D02*
Y992D01*
X1449D02*
X1531D01*
X1449Y875D02*
X1531D01*
X583Y918D02*
Y956D01*
X556Y918D02*
X583D01*
X465D02*
X492D01*
X465D02*
Y956D01*
X2054Y1208D02*
Y1271D01*
X2172Y1208D02*
Y1271D01*
X221Y989D02*
X283D01*
X221Y871D02*
X283D01*
X1675Y960D02*
Y1002D01*
X1970Y980D02*
X2010D01*
X2055Y1563D02*
Y1571D01*
X1937Y1563D02*
Y1571D01*
X2055D01*
X1937Y1473D02*
X2055D01*
X1937D02*
Y1481D01*
X2055Y1473D02*
Y1481D01*
X522Y1093D02*
X564D01*
X574D02*
X616D01*
X280Y1450D02*
Y1510D01*
X435Y1411D02*
Y1470D01*
X668Y997D02*
X922D01*
X668Y863D02*
Y997D01*
Y863D02*
X922D01*
Y997D01*
X2189Y964D02*
Y1469D01*
X2323D01*
Y964D02*
Y1469D01*
X2189Y964D02*
X2323D01*
X1495Y1335D02*
Y1375D01*
X1545Y1170D02*
Y1210D01*
X1530Y1528D02*
Y1568D01*
X550Y1245D02*
Y1285D01*
X1255Y1404D02*
Y1446D01*
Y1332D02*
Y1374D01*
X1037Y1502D02*
Y1544D01*
X1075Y1006D02*
Y1018D01*
X1173Y1005D02*
Y1017D01*
X1730Y1434D02*
Y1476D01*
Y1495D02*
Y1537D01*
X1675Y1220D02*
Y1262D01*
Y1285D02*
Y1327D01*
Y1056D02*
Y1098D01*
Y1122D02*
Y1164D01*
X550Y1296D02*
Y1338D01*
Y1348D02*
Y1390D01*
X435Y1491D02*
Y1550D01*
X602Y1429D02*
Y1469D01*
X993Y929D02*
X1033D01*
X1460Y1008D02*
Y1048D01*
X602Y1493D02*
Y1533D01*
X626Y1093D02*
X666D01*
X730Y1428D02*
Y1470D01*
X1730Y1373D02*
Y1415D01*
X1675Y895D02*
Y937D01*
X1909Y980D02*
X1951D01*
X1849D02*
X1891D01*
X1790D02*
X1830D01*
X1311Y1169D02*
Y1211D01*
Y1237D02*
Y1279D01*
X730Y1493D02*
Y1533D01*
X794Y1493D02*
Y1533D01*
X614Y928D02*
X654D01*
X471Y1093D02*
X511D01*
X2100Y1044D02*
X2140D01*
X2100Y980D02*
X2140D01*
X2039D02*
X2081D01*
D48*
X1840Y1067D02*
X2040D01*
X1840D02*
Y1367D01*
X2040D01*
Y1067D02*
Y1367D01*
D49*
X1628Y1014D02*
Y1044D01*
X1643D01*
X1648Y1039D01*
Y1029D01*
X1643Y1024D01*
X1628D01*
X1638D02*
X1648Y1014D01*
X1678D02*
X1658D01*
X1678Y1034D01*
Y1039D01*
X1673Y1044D01*
X1663D01*
X1658Y1039D01*
X1708Y1014D02*
X1688D01*
X1708Y1034D01*
Y1039D01*
X1703Y1044D01*
X1693D01*
X1688Y1039D01*
X1094Y1237D02*
X1117D01*
X1106D01*
Y1202D01*
X1129D02*
Y1237D01*
X1146D01*
X1152Y1231D01*
Y1219D01*
X1146Y1214D01*
X1129D01*
X1170Y1225D02*
X1181D01*
X1187Y1219D01*
Y1202D01*
X1170D01*
X1164Y1208D01*
X1170Y1214D01*
X1187D01*
X2040Y885D02*
Y915D01*
X2055D01*
X2060Y910D01*
Y900D01*
X2055Y895D01*
X2040D01*
X2050D02*
X2060Y885D01*
X2090D02*
X2070D01*
X2090Y905D01*
Y910D01*
X2085Y915D01*
X2075D01*
X2070Y910D01*
X2100Y885D02*
X2110D01*
X2105D01*
Y915D01*
X2100Y910D01*
X2125Y885D02*
Y855D01*
X2140D01*
X2145Y860D01*
Y880D01*
X2140Y885D01*
X2125D01*
X2175Y855D02*
X2155D01*
X2175Y875D01*
Y880D01*
X2170Y885D01*
X2160D01*
X2155Y880D01*
X331Y1005D02*
Y995D01*
Y1000D01*
X356D01*
X361Y995D01*
Y990D01*
X356Y985D01*
X361Y1015D02*
X331D01*
Y1030D01*
X336Y1035D01*
X346D01*
X351Y1030D01*
Y1015D01*
X361Y1045D02*
Y1055D01*
Y1050D01*
X331D01*
X336Y1045D01*
X480Y1182D02*
X475Y1177D01*
Y1167D01*
X480Y1162D01*
X500D01*
X505Y1167D01*
Y1177D01*
X500Y1182D01*
X505Y1207D02*
X475D01*
X490Y1192D01*
Y1212D01*
X629Y1021D02*
X624Y1026D01*
X614D01*
X609Y1021D01*
Y1001D01*
X614Y996D01*
X624D01*
X629Y1001D01*
X639Y1021D02*
X644Y1026D01*
X654D01*
X659Y1021D01*
Y1016D01*
X654Y1011D01*
X649D01*
X654D01*
X659Y1006D01*
Y1001D01*
X654Y996D01*
X644D01*
X639Y1001D01*
X553Y911D02*
Y886D01*
X558Y881D01*
X568D01*
X573Y886D01*
Y911D01*
X583Y906D02*
X588Y911D01*
X598D01*
X603Y906D01*
Y901D01*
X598Y896D01*
X593D01*
X598D01*
X603Y891D01*
Y886D01*
X598Y881D01*
X588D01*
X583Y886D01*
X712Y1577D02*
Y1547D01*
X727D01*
X732Y1552D01*
Y1572D01*
X727Y1577D01*
X712D01*
X742Y1547D02*
X752D01*
X747D01*
Y1577D01*
X742Y1572D01*
X1276Y1287D02*
Y1317D01*
X1291D01*
X1296Y1312D01*
Y1302D01*
X1291Y1297D01*
X1276D01*
X1286D02*
X1296Y1287D01*
X1306D02*
X1316D01*
X1311D01*
Y1317D01*
X1306Y1312D01*
X1331Y1292D02*
X1336Y1287D01*
X1346D01*
X1351Y1292D01*
Y1312D01*
X1346Y1317D01*
X1336D01*
X1331Y1312D01*
Y1307D01*
X1336Y1302D01*
X1351D01*
X1275Y1129D02*
Y1159D01*
X1290D01*
X1295Y1154D01*
Y1144D01*
X1290Y1139D01*
X1275D01*
X1285D02*
X1295Y1129D01*
X1325D02*
X1305D01*
X1325Y1149D01*
Y1154D01*
X1320Y1159D01*
X1310D01*
X1305Y1154D01*
X1335D02*
X1340Y1159D01*
X1350D01*
X1355Y1154D01*
Y1134D01*
X1350Y1129D01*
X1340D01*
X1335Y1134D01*
Y1154D01*
X1775Y910D02*
X1770Y915D01*
X1760D01*
X1755Y910D01*
Y890D01*
X1760Y885D01*
X1770D01*
X1775Y890D01*
X1785Y885D02*
X1795D01*
X1790D01*
Y915D01*
X1785Y910D01*
X1810Y885D02*
X1820D01*
X1815D01*
Y915D01*
X1810Y910D01*
X1825Y855D02*
Y885D01*
X1840D01*
X1845Y880D01*
Y870D01*
X1840Y865D01*
X1825D01*
X1835D02*
X1845Y855D01*
X1855D02*
X1865D01*
X1860D01*
Y885D01*
X1855Y880D01*
X1880D02*
X1885Y885D01*
X1895D01*
X1900Y880D01*
Y860D01*
X1895Y855D01*
X1885D01*
X1880Y860D01*
Y880D01*
X1905Y885D02*
Y915D01*
X1920D01*
X1925Y910D01*
Y900D01*
X1920Y895D01*
X1905D01*
X1915D02*
X1925Y885D01*
X1935Y890D02*
X1940Y885D01*
X1950D01*
X1955Y890D01*
Y910D01*
X1950Y915D01*
X1940D01*
X1935Y910D01*
Y905D01*
X1940Y900D01*
X1955D01*
X1652Y856D02*
Y886D01*
X1667D01*
X1672Y881D01*
Y871D01*
X1667Y866D01*
X1652D01*
X1662D02*
X1672Y856D01*
X1682Y881D02*
X1687Y886D01*
X1697D01*
X1702Y881D01*
Y876D01*
X1697Y871D01*
X1702Y866D01*
Y861D01*
X1697Y856D01*
X1687D01*
X1682Y861D01*
Y866D01*
X1687Y871D01*
X1682Y876D01*
Y881D01*
X1687Y871D02*
X1697D01*
X1329Y967D02*
Y942D01*
X1334Y937D01*
X1344D01*
X1349Y942D01*
Y967D01*
X1374Y937D02*
Y967D01*
X1359Y952D01*
X1379D01*
X1328Y1488D02*
Y1463D01*
X1333Y1458D01*
X1343D01*
X1348Y1463D01*
Y1488D01*
X1378D02*
X1368Y1483D01*
X1358Y1473D01*
Y1463D01*
X1363Y1458D01*
X1373D01*
X1378Y1463D01*
Y1468D01*
X1373Y1473D01*
X1358D01*
X1680Y1334D02*
Y1364D01*
X1695D01*
X1700Y1359D01*
Y1349D01*
X1695Y1344D01*
X1680D01*
X1690D02*
X1700Y1334D01*
X1710D02*
X1720D01*
X1715D01*
Y1364D01*
X1710Y1359D01*
X1755Y1364D02*
X1735D01*
Y1349D01*
X1745Y1354D01*
X1750D01*
X1755Y1349D01*
Y1339D01*
X1750Y1334D01*
X1740D01*
X1735Y1339D01*
X1979Y880D02*
X1974Y885D01*
X1964D01*
X1959Y880D01*
Y860D01*
X1964Y855D01*
X1974D01*
X1979Y860D01*
X1989Y855D02*
X1999D01*
X1994D01*
Y885D01*
X1989Y880D01*
X2034Y855D02*
X2014D01*
X2034Y875D01*
Y880D01*
X2029Y885D01*
X2019D01*
X2014Y880D01*
X704Y1388D02*
Y1418D01*
X719D01*
X724Y1413D01*
Y1403D01*
X719Y1398D01*
X704D01*
X714D02*
X724Y1388D01*
X734Y1418D02*
X754D01*
Y1413D01*
X734Y1393D01*
Y1388D01*
X190Y1435D02*
X180D01*
X185D01*
Y1410D01*
X180Y1405D01*
X175D01*
X170Y1410D01*
X200Y1405D02*
X210D01*
X205D01*
Y1435D01*
X200Y1430D01*
X637Y1180D02*
X632Y1175D01*
Y1165D01*
X637Y1160D01*
X657D01*
X662Y1165D01*
Y1175D01*
X657Y1180D01*
Y1190D02*
X662Y1195D01*
Y1205D01*
X657Y1210D01*
X637D01*
X632Y1205D01*
Y1195D01*
X637Y1190D01*
X642D01*
X647Y1195D01*
Y1210D01*
X598Y1571D02*
X593Y1576D01*
X583D01*
X578Y1571D01*
Y1551D01*
X583Y1546D01*
X593D01*
X598Y1551D01*
X608Y1576D02*
X628D01*
Y1571D01*
X608Y1551D01*
Y1546D01*
X1555Y1038D02*
X1550Y1043D01*
X1540D01*
X1535Y1038D01*
Y1018D01*
X1540Y1013D01*
X1550D01*
X1555Y1018D01*
X1585Y1043D02*
X1565D01*
Y1028D01*
X1575Y1033D01*
X1580D01*
X1585Y1028D01*
Y1018D01*
X1580Y1013D01*
X1570D01*
X1565Y1018D01*
X1070Y895D02*
X1065Y900D01*
X1055D01*
X1050Y895D01*
Y875D01*
X1055Y870D01*
X1065D01*
X1070Y875D01*
X1080Y870D02*
X1090D01*
X1085D01*
Y900D01*
X1080Y895D01*
X1105D02*
X1110Y900D01*
X1120D01*
X1125Y895D01*
Y890D01*
X1120Y885D01*
X1115D01*
X1120D01*
X1125Y880D01*
Y875D01*
X1120Y870D01*
X1110D01*
X1105Y875D01*
X594Y1419D02*
X589Y1424D01*
X579D01*
X574Y1419D01*
Y1399D01*
X579Y1394D01*
X589D01*
X594Y1399D01*
X624Y1424D02*
X614Y1419D01*
X604Y1409D01*
Y1399D01*
X609Y1394D01*
X619D01*
X624Y1399D01*
Y1404D01*
X619Y1409D01*
X604D01*
X328Y1556D02*
X323Y1561D01*
X313D01*
X308Y1556D01*
Y1536D01*
X313Y1531D01*
X323D01*
X328Y1536D01*
X358Y1531D02*
X338D01*
X358Y1551D01*
Y1556D01*
X353Y1561D01*
X343D01*
X338Y1556D01*
X434Y1355D02*
Y1385D01*
X449D01*
X454Y1380D01*
Y1370D01*
X449Y1365D01*
X434D01*
X444D02*
X454Y1355D01*
X479D02*
Y1385D01*
X464Y1370D01*
X484D01*
X431Y1304D02*
Y1334D01*
X446D01*
X451Y1329D01*
Y1319D01*
X446Y1314D01*
X431D01*
X441D02*
X451Y1304D01*
X481D02*
X461D01*
X481Y1324D01*
Y1329D01*
X476Y1334D01*
X466D01*
X461Y1329D01*
X1961Y1250D02*
X1931D01*
Y1265D01*
X1936Y1270D01*
X1946D01*
X1951Y1265D01*
Y1250D01*
X1961Y1280D02*
Y1290D01*
Y1285D01*
X1931D01*
X1936Y1280D01*
X1745Y1130D02*
Y1160D01*
X1760D01*
X1765Y1155D01*
Y1145D01*
X1760Y1140D01*
X1745D01*
X1755D02*
X1765Y1130D01*
X1795Y1160D02*
X1775D01*
Y1145D01*
X1785Y1150D01*
X1790D01*
X1795Y1145D01*
Y1135D01*
X1790Y1130D01*
X1780D01*
X1775Y1135D01*
X1745Y1064D02*
Y1094D01*
X1760D01*
X1765Y1089D01*
Y1079D01*
X1760Y1074D01*
X1745D01*
X1755D02*
X1765Y1064D01*
X1795Y1094D02*
X1785Y1089D01*
X1775Y1079D01*
Y1069D01*
X1780Y1064D01*
X1790D01*
X1795Y1069D01*
Y1074D01*
X1790Y1079D01*
X1775D01*
X1744Y1292D02*
Y1322D01*
X1759D01*
X1764Y1317D01*
Y1307D01*
X1759Y1302D01*
X1744D01*
X1754D02*
X1764Y1292D01*
X1774D02*
X1784D01*
X1779D01*
Y1322D01*
X1774Y1317D01*
X1799Y1322D02*
X1819D01*
Y1317D01*
X1799Y1297D01*
Y1292D01*
X1744Y1223D02*
Y1253D01*
X1759D01*
X1764Y1248D01*
Y1238D01*
X1759Y1233D01*
X1744D01*
X1754D02*
X1764Y1223D01*
X1774D02*
X1784D01*
X1779D01*
Y1253D01*
X1774Y1248D01*
X1799D02*
X1804Y1253D01*
X1814D01*
X1819Y1248D01*
Y1243D01*
X1814Y1238D01*
X1819Y1233D01*
Y1228D01*
X1814Y1223D01*
X1804D01*
X1799Y1228D01*
Y1233D01*
X1804Y1238D01*
X1799Y1243D01*
Y1248D01*
X1804Y1238D02*
X1814D01*
X1695Y1548D02*
Y1578D01*
X1710D01*
X1715Y1573D01*
Y1563D01*
X1710Y1558D01*
X1695D01*
X1705D02*
X1715Y1548D01*
X1725D02*
X1735D01*
X1730D01*
Y1578D01*
X1725Y1573D01*
X1765Y1548D02*
Y1578D01*
X1750Y1563D01*
X1770D01*
X1665Y1417D02*
X1635D01*
Y1432D01*
X1640Y1437D01*
X1650D01*
X1655Y1432D01*
Y1417D01*
Y1427D02*
X1665Y1437D01*
Y1447D02*
Y1457D01*
Y1452D01*
X1635D01*
X1640Y1447D01*
X1665Y1492D02*
Y1472D01*
X1645Y1492D01*
X1640D01*
X1635Y1487D01*
Y1477D01*
X1640Y1472D01*
X1192Y1027D02*
Y1022D01*
X1202Y1012D01*
X1212Y1022D01*
Y1027D01*
X1202Y1012D02*
Y997D01*
X1222D02*
X1232D01*
X1227D01*
Y1027D01*
X1222Y1022D01*
X1375Y1282D02*
Y1257D01*
X1380Y1252D01*
X1390D01*
X1395Y1257D01*
Y1282D01*
X1405D02*
X1425D01*
Y1277D01*
X1405Y1257D01*
Y1252D01*
X1375Y1120D02*
Y1095D01*
X1380Y1090D01*
X1390D01*
X1395Y1095D01*
Y1120D01*
X1405Y1090D02*
X1415D01*
X1410D01*
Y1120D01*
X1405Y1115D01*
X1015Y1460D02*
Y1490D01*
X1030D01*
X1035Y1485D01*
Y1475D01*
X1030Y1470D01*
X1015D01*
X1025D02*
X1035Y1460D01*
X1045D02*
X1055D01*
X1050D01*
Y1490D01*
X1045Y1485D01*
X1118Y1341D02*
Y1371D01*
X1133D01*
X1138Y1366D01*
Y1356D01*
X1133Y1351D01*
X1118D01*
X1128D02*
X1138Y1341D01*
X1148Y1366D02*
X1153Y1371D01*
X1163D01*
X1168Y1366D01*
Y1361D01*
X1163Y1356D01*
X1158D01*
X1163D01*
X1168Y1351D01*
Y1346D01*
X1163Y1341D01*
X1153D01*
X1148Y1346D01*
X1113Y1406D02*
Y1436D01*
X1128D01*
X1133Y1431D01*
Y1421D01*
X1128Y1416D01*
X1113D01*
X1123D02*
X1133Y1406D01*
X1143D02*
X1153D01*
X1148D01*
Y1436D01*
X1143Y1431D01*
X1188Y1436D02*
X1178Y1431D01*
X1168Y1421D01*
Y1411D01*
X1173Y1406D01*
X1183D01*
X1188Y1411D01*
Y1416D01*
X1183Y1421D01*
X1168D01*
X1025Y1383D02*
Y1358D01*
X1030Y1353D01*
X1040D01*
X1045Y1358D01*
Y1383D01*
X1075D02*
X1055D01*
Y1368D01*
X1065Y1373D01*
X1070D01*
X1075Y1368D01*
Y1358D01*
X1070Y1353D01*
X1060D01*
X1055Y1358D01*
X452Y1269D02*
X447Y1274D01*
X437D01*
X432Y1269D01*
Y1249D01*
X437Y1244D01*
X447D01*
X452Y1249D01*
X462Y1269D02*
X467Y1274D01*
X477D01*
X482Y1269D01*
Y1264D01*
X477Y1259D01*
X482Y1254D01*
Y1249D01*
X477Y1244D01*
X467D01*
X462Y1249D01*
Y1254D01*
X467Y1259D01*
X462Y1264D01*
Y1269D01*
X467Y1259D02*
X477D01*
X1398Y1567D02*
X1393Y1572D01*
X1383D01*
X1378Y1567D01*
Y1547D01*
X1383Y1542D01*
X1393D01*
X1398Y1547D01*
X1408Y1542D02*
X1418D01*
X1413D01*
Y1572D01*
X1408Y1567D01*
X1433D02*
X1438Y1572D01*
X1448D01*
X1453Y1567D01*
Y1547D01*
X1448Y1542D01*
X1438D01*
X1433Y1547D01*
Y1567D01*
X1587Y1250D02*
X1582Y1255D01*
X1572D01*
X1567Y1250D01*
Y1230D01*
X1572Y1225D01*
X1582D01*
X1587Y1230D01*
X1597Y1225D02*
X1607D01*
X1602D01*
Y1255D01*
X1597Y1250D01*
X1585Y1397D02*
X1580Y1402D01*
X1570D01*
X1565Y1397D01*
Y1377D01*
X1570Y1372D01*
X1580D01*
X1585Y1377D01*
X1595Y1372D02*
X1605D01*
X1600D01*
Y1402D01*
X1595Y1397D01*
X1635Y1372D02*
Y1402D01*
X1620Y1387D01*
X1640D01*
X2270Y1237D02*
X2240D01*
Y1252D01*
X2245Y1257D01*
X2255D01*
X2260Y1252D01*
Y1237D01*
X2270Y1287D02*
Y1267D01*
X2250Y1287D01*
X2245D01*
X2240Y1282D01*
Y1272D01*
X2245Y1267D01*
X688Y1012D02*
Y1042D01*
X703D01*
X708Y1037D01*
Y1027D01*
X703Y1022D01*
X688D01*
X718Y1037D02*
X723Y1042D01*
X733D01*
X738Y1037D01*
Y1032D01*
X733Y1027D01*
X728D01*
X733D01*
X738Y1022D01*
Y1017D01*
X733Y1012D01*
X723D01*
X718Y1017D01*
X370Y1400D02*
Y1370D01*
X390D01*
X400D02*
X410D01*
X405D01*
Y1400D01*
X400Y1395D01*
X268Y1433D02*
Y1403D01*
X288D01*
X318D02*
X298D01*
X318Y1423D01*
Y1428D01*
X313Y1433D01*
X303D01*
X298Y1428D01*
X608Y1158D02*
X578D01*
Y1173D01*
X583Y1178D01*
X593D01*
X598Y1173D01*
Y1158D01*
Y1168D02*
X608Y1178D01*
Y1188D02*
Y1198D01*
Y1193D01*
X578D01*
X583Y1188D01*
X608Y1213D02*
Y1223D01*
Y1218D01*
X578D01*
X583Y1213D01*
X558Y1159D02*
X528D01*
Y1174D01*
X533Y1179D01*
X543D01*
X548Y1174D01*
Y1159D01*
Y1169D02*
X558Y1179D01*
Y1189D02*
Y1199D01*
Y1194D01*
X528D01*
X533Y1189D01*
Y1214D02*
X528Y1219D01*
Y1229D01*
X533Y1234D01*
X538D01*
X543Y1229D01*
Y1224D01*
Y1229D01*
X548Y1234D01*
X553D01*
X558Y1229D01*
Y1219D01*
X553Y1214D01*
X233Y1029D02*
Y1004D01*
X238Y999D01*
X248D01*
X253Y1004D01*
Y1029D01*
X283Y999D02*
X263D01*
X283Y1019D01*
Y1024D01*
X278Y1029D01*
X268D01*
X263Y1024D01*
X2135Y1129D02*
X2155D01*
Y1124D01*
X2135Y1104D01*
Y1099D01*
X2155D01*
X2165D02*
X2175D01*
X2170D01*
Y1129D01*
X2165Y1124D01*
X806Y1526D02*
Y1497D01*
X812Y1491D01*
X823D01*
X829Y1497D01*
Y1526D01*
X864Y1520D02*
X858Y1526D01*
X847D01*
X841Y1520D01*
Y1514D01*
X847Y1508D01*
X858D01*
X864Y1503D01*
Y1497D01*
X858Y1491D01*
X847D01*
X841Y1497D01*
X876Y1526D02*
Y1491D01*
X893D01*
X899Y1497D01*
Y1503D01*
X893Y1508D01*
X876D01*
X893D01*
X899Y1514D01*
Y1520D01*
X893Y1526D01*
X876D01*
X2051Y1088D02*
X2074D01*
X2063D01*
Y1053D01*
X2086Y1088D02*
Y1065D01*
X2098Y1053D01*
X2109Y1065D01*
Y1088D01*
X2144D02*
Y1053D01*
X2127D01*
X2121Y1059D01*
Y1070D01*
X2127Y1076D01*
X2144D01*
X2179Y1088D02*
Y1053D01*
X2162D01*
X2156Y1059D01*
Y1070D01*
X2162Y1076D01*
X2179D01*
D50*
X2101Y1500D02*
Y1550D01*
X2126D01*
X2134Y1542D01*
Y1525D01*
X2126Y1517D01*
X2101D01*
X2118D02*
X2134Y1500D01*
X2176D02*
X2159D01*
X2151Y1508D01*
Y1525D01*
X2159Y1533D01*
X2176D01*
X2184Y1525D01*
Y1517D01*
X2151D01*
X2201Y1500D02*
X2226D01*
X2234Y1508D01*
X2226Y1517D01*
X2209D01*
X2201Y1525D01*
X2209Y1533D01*
X2234D01*
X2276Y1500D02*
X2259D01*
X2251Y1508D01*
Y1525D01*
X2259Y1533D01*
X2276D01*
X2284Y1525D01*
Y1517D01*
X2251D01*
X2309Y1542D02*
Y1533D01*
X2301D01*
X2318D01*
X2309D01*
Y1508D01*
X2318Y1500D01*
M02*
