M48
;Layer_Color=9474304
;FILE_FORMAT=2:4
INCH
;TYPE=PLATED
T1F00S00C0.0130
T2F00S00C0.0236
T3F00S00C0.0315
T4F00S00C0.0354
;TYPE=NON_PLATED
T5F00S00C0.0276
%
T01
X-005599Y-003373
X-005047Y-002803
X-004811
X-004929Y-001903
X-005299
X-004555
X-003854Y-000870
X-004833Y-000433
Y000433
X-003574Y000620
X-003014Y000800
X-003334Y001310
X-004564Y001650
X-004324Y002830
X-002274Y002350
X-001134Y001550
X-000824Y001230
X-000004Y001610
X000906Y002220
X001496Y002510
X001826Y002520
X002436Y002550
X001926Y003160
X000676Y002940
X003926Y002960
X004506Y003060
X005376Y003370
X005996Y002950
X005976Y002040
X005996Y001300
X006546Y001370
X007156Y002140
X007576Y002800
X007866Y001720
X007426Y000740
X007046Y-000350
X006546Y-000600
X006236Y-000810
X005946Y-001070
Y-001450
X005866Y-001890
X006316Y-002000
X005496Y-002760
X005106Y-002790
X005096Y-003220
X004586Y-003230
X004196Y-003030
X003416
X002116Y-003060
X002706Y-002100
X001876Y-000550
Y000140
X001101Y-000880
X000526
X-000304Y-001460
X-001554Y-002260
X-001854Y-002800
X-001714Y-003490
X-002674Y-002810
X-002274Y-002060
X-002404Y000050
X-001294Y-000300
X-000984Y000180
X004166Y000530
X004636Y000300
X004276Y001350
X003566Y002230
X005386Y-000710
X007406Y-000860
X007886Y-001660
X007596Y-002470
X007166Y-003110
X008166Y-002130
X009336Y-001860
X010196Y-001850
X010186Y-002440
X010686Y-001480
X010806Y-000610
X010286Y-000310
X010006Y000590
X010236Y001330
X009096Y001400
X008396Y001200
X008346Y000520
X008766Y-000300
X008346Y-000816
X008676Y002820
X010836Y001940
X012576Y001960
X013296Y001770
X013636Y001490
X013966Y002670
X014906Y003380
X015416Y000430
X014316Y000210
X013996Y-000700
X013626Y-000868
X013256Y-000870
X012676Y-001490
X012076
X011826Y-003500
X011176Y-003150
X013196Y-003500
X013756Y-003130
X014726Y-003120
X012926Y000230
T02
X-000554Y-003130
Y-002630
X-000054Y-003130
X000446
Y-002630
X000946
Y-003130
X001446
Y-002630
X014803Y-002250
X015303
Y-001750
X014803
Y-001250
X015303
X014803Y-000750
Y-000250
X015303
Y001250
X014803
Y001750
X015303
Y002250
X014803
T03
X-003374Y-002077
Y-001290
Y-000503
T04
X003856Y-000690
X011396Y-001000
Y000000
Y001000
X012396
Y000000
Y-001000
X010986Y003060
T05
X012456Y003040
M30
