G04 Layer_Physical_Order=1*
G04 Layer_Color=255*
%FSLAX23Y23*%
%MOIN*%
G70*
G01*
G75*
G04:AMPARAMS|DCode=10|XSize=16mil|YSize=33mil|CornerRadius=4mil|HoleSize=0mil|Usage=FLASHONLY|Rotation=90.000|XOffset=0mil|YOffset=0mil|HoleType=Round|Shape=RoundedRectangle|*
%AMROUNDEDRECTD10*
21,1,0.016,0.026,0,0,90.0*
21,1,0.008,0.033,0,0,90.0*
1,1,0.008,0.013,0.004*
1,1,0.008,0.013,-0.004*
1,1,0.008,-0.013,-0.004*
1,1,0.008,-0.013,0.004*
%
%ADD10ROUNDEDRECTD10*%
G04:AMPARAMS|DCode=11|XSize=16mil|YSize=41mil|CornerRadius=4mil|HoleSize=0mil|Usage=FLASHONLY|Rotation=90.000|XOffset=0mil|YOffset=0mil|HoleType=Round|Shape=RoundedRectangle|*
%AMROUNDEDRECTD11*
21,1,0.016,0.033,0,0,90.0*
21,1,0.008,0.041,0,0,90.0*
1,1,0.008,0.017,0.004*
1,1,0.008,0.017,-0.004*
1,1,0.008,-0.017,-0.004*
1,1,0.008,-0.017,0.004*
%
%ADD11ROUNDEDRECTD11*%
%ADD12R,0.031X0.047*%
G04:AMPARAMS|DCode=13|XSize=39mil|YSize=22mil|CornerRadius=5mil|HoleSize=0mil|Usage=FLASHONLY|Rotation=270.000|XOffset=0mil|YOffset=0mil|HoleType=Round|Shape=RoundedRectangle|*
%AMROUNDEDRECTD13*
21,1,0.039,0.011,0,0,270.0*
21,1,0.029,0.022,0,0,270.0*
1,1,0.011,-0.005,-0.014*
1,1,0.011,-0.005,0.014*
1,1,0.011,0.005,0.014*
1,1,0.011,0.005,-0.014*
%
%ADD13ROUNDEDRECTD13*%
%ADD14R,0.043X0.039*%
%ADD15R,0.039X0.043*%
%ADD16R,0.039X0.067*%
%ADD17R,0.051X0.059*%
%ADD18R,0.047X0.055*%
%ADD19R,0.083X0.058*%
%ADD20R,0.054X0.018*%
%ADD21R,0.075X0.046*%
%ADD22R,0.075X0.094*%
%ADD23O,0.071X0.010*%
%ADD24O,0.010X0.071*%
%ADD25C,0.010*%
%ADD26C,0.012*%
%ADD27R,0.016X0.039*%
%ADD28R,0.055X0.031*%
%ADD29C,0.028*%
%ADD30C,0.055*%
%ADD31C,0.039*%
%ADD32R,0.039X0.039*%
%ADD33R,0.039X0.039*%
%ADD34O,0.062X0.055*%
%ADD35R,0.062X0.055*%
%ADD36C,0.047*%
%ADD37R,0.047X0.047*%
%ADD38C,0.027*%
%ADD39C,0.031*%
G36*
X513Y288D02*
X516Y286D01*
X521Y285D01*
X582D01*
X585Y281D01*
X585Y280D01*
X584Y276D01*
X430D01*
X425Y275D01*
X422Y273D01*
X410Y261D01*
X346D01*
X346Y261D01*
X341Y260D01*
X338Y258D01*
X314Y234D01*
X238D01*
X238Y234D01*
X233Y233D01*
X230Y231D01*
X228Y229D01*
X224Y232D01*
X225Y234D01*
X226Y238D01*
X226Y238D01*
Y268D01*
X237Y279D01*
X281D01*
Y331D01*
X226D01*
Y300D01*
X214Y289D01*
X136D01*
X132Y288D01*
X128Y285D01*
X104Y261D01*
X82D01*
X82Y261D01*
X77Y260D01*
X74Y258D01*
X46Y230D01*
X41Y232D01*
Y257D01*
X-15D01*
Y205D01*
X9D01*
X20Y194D01*
Y159D01*
X20Y159D01*
Y128D01*
X21Y124D01*
X19Y122D01*
X19Y121D01*
X18Y120D01*
X-19D01*
X-20Y119D01*
X-35D01*
Y137D01*
X-36Y141D01*
X-38Y145D01*
X-94Y201D01*
X-92Y205D01*
X-87D01*
Y257D01*
X-104D01*
Y269D01*
X-87D01*
Y321D01*
X-100D01*
X-102Y326D01*
X-84Y344D01*
X457D01*
X513Y288D01*
D02*
G37*
G36*
X1599Y-367D02*
X-586D01*
Y-172D01*
X-584Y-167D01*
X-581Y-167D01*
X-539D01*
X-539Y-169D01*
X-538Y-172D01*
X-544Y-176D01*
X-548Y-183D01*
X-550Y-190D01*
X-548Y-198D01*
X-544Y-204D01*
X-546Y-208D01*
X-547Y-213D01*
Y-241D01*
X-546Y-246D01*
X-544Y-250D01*
X-540Y-252D01*
X-536Y-253D01*
X-525D01*
X-520Y-252D01*
X-517Y-250D01*
X-514Y-246D01*
X-514Y-246D01*
X-509D01*
X-509Y-246D01*
X-507Y-250D01*
X-503Y-252D01*
X-498Y-253D01*
X-498D01*
Y-227D01*
Y-201D01*
X-498D01*
X-503Y-202D01*
X-507Y-205D01*
X-508Y-207D01*
X-514Y-207D01*
X-515Y-205D01*
X-516Y-204D01*
X-512Y-198D01*
X-510Y-190D01*
X-512Y-183D01*
X-516Y-176D01*
X-522Y-172D01*
X-521Y-169D01*
X-521Y-167D01*
X-497D01*
Y-132D01*
X-403D01*
Y-62D01*
X-403D01*
Y-56D01*
X-469D01*
Y-62D01*
X-497D01*
Y-62D01*
Y-4D01*
X-529D01*
Y4D01*
X-497D01*
Y62D01*
Y62D01*
X-469D01*
Y36D01*
Y11D01*
Y-15D01*
Y-40D01*
Y-46D01*
X-403D01*
Y-12D01*
X-346D01*
X-346Y-12D01*
X-342Y-11D01*
X-338Y-9D01*
X-320Y9D01*
X-318Y13D01*
X-317Y18D01*
X-318Y22D01*
X-318Y22D01*
Y61D01*
X-313Y64D01*
X-309Y62D01*
X-301Y60D01*
X-294Y62D01*
X-287Y66D01*
X-283Y72D01*
X-282Y80D01*
X-265D01*
X-261Y76D01*
Y73D01*
X-261Y68D01*
Y52D01*
X-206D01*
Y68D01*
X-206Y73D01*
X-206Y78D01*
Y125D01*
X-206D01*
Y125D01*
X-206D01*
Y177D01*
X-261D01*
Y149D01*
X-286D01*
X-290Y148D01*
X-294Y145D01*
X-294Y145D01*
X-306Y133D01*
X-311Y135D01*
X-312Y137D01*
X-270Y179D01*
X-268Y182D01*
X-267Y186D01*
Y186D01*
X-246D01*
Y258D01*
X-267D01*
Y267D01*
X-246D01*
Y338D01*
X-310D01*
Y267D01*
X-289D01*
Y258D01*
X-310D01*
Y186D01*
X-300D01*
X-298Y182D01*
X-330Y150D01*
X-333Y151D01*
X-341Y149D01*
X-347Y145D01*
X-350Y141D01*
X-355Y142D01*
Y186D01*
X-321D01*
Y258D01*
X-384D01*
Y186D01*
X-377D01*
Y101D01*
X-393Y86D01*
X-395Y82D01*
X-396Y78D01*
Y63D01*
X-397Y62D01*
X-403D01*
Y132D01*
X-497D01*
Y167D01*
X-512D01*
Y186D01*
X-472D01*
Y258D01*
X-535D01*
Y186D01*
X-534D01*
Y171D01*
X-537Y167D01*
X-581D01*
X-584Y167D01*
X-586Y172D01*
Y363D01*
X-583Y367D01*
X-99D01*
X-99Y366D01*
X-97Y362D01*
X-123Y336D01*
X-125Y333D01*
X-126Y328D01*
Y321D01*
X-142D01*
Y269D01*
X-126D01*
Y257D01*
X-143D01*
Y205D01*
X-126D01*
X-125Y201D01*
X-123Y198D01*
X-57Y132D01*
Y116D01*
X-60Y113D01*
X-60Y108D01*
X-60Y104D01*
X-58Y102D01*
X-58Y98D01*
X-58Y95D01*
X-59Y94D01*
X-19D01*
Y84D01*
X-60D01*
X-61Y83D01*
X-63Y80D01*
X-68D01*
X-133Y145D01*
X-136Y147D01*
X-139Y148D01*
Y177D01*
X-195D01*
Y130D01*
X-195Y125D01*
X-195D01*
Y125D01*
X-195Y125D01*
Y73D01*
X-195D01*
Y73D01*
X-195D01*
Y21D01*
X-139D01*
Y34D01*
X-130D01*
X-118Y21D01*
X-118Y18D01*
X-117Y10D01*
X-112Y4D01*
X-106Y-0D01*
X-98Y-2D01*
X-91Y-0D01*
X-84Y4D01*
X-83Y6D01*
X-78Y7D01*
X-73Y2D01*
X-73Y2D01*
X-69Y-0D01*
X-65Y-1D01*
X-63D01*
X-61Y-4D01*
X-60Y-6D01*
X-60Y-10D01*
X-60Y-13D01*
X-61Y-15D01*
X-63Y-18D01*
X-75D01*
X-79Y-19D01*
X-83Y-22D01*
X-83Y-22D01*
X-107Y-46D01*
X-132D01*
X-137Y-47D01*
X-140Y-49D01*
X-155Y-64D01*
X-181D01*
Y-64D01*
X-182Y-64D01*
X-182Y-64D01*
X-229D01*
X-233Y-64D01*
X-238Y-64D01*
X-254D01*
Y-92D01*
X-264D01*
Y-64D01*
X-285D01*
Y-80D01*
X-290Y-82D01*
X-310Y-62D01*
X-309Y-58D01*
X-307Y-50D01*
X-309Y-43D01*
X-311Y-35D01*
X-316Y-29D01*
X-322Y-24D01*
X-330Y-21D01*
X-337Y-20D01*
X-345Y-21D01*
X-352Y-24D01*
X-358Y-29D01*
X-363Y-35D01*
X-366Y-43D01*
X-367Y-50D01*
X-366Y-58D01*
X-363Y-65D01*
X-358Y-71D01*
X-352Y-76D01*
X-345Y-79D01*
X-337Y-80D01*
X-330Y-79D01*
X-326Y-78D01*
X-307Y-96D01*
Y-111D01*
X-312Y-113D01*
X-316Y-108D01*
X-322Y-103D01*
X-330Y-100D01*
X-337Y-99D01*
X-345Y-100D01*
X-352Y-103D01*
X-358Y-108D01*
X-363Y-114D01*
X-366Y-121D01*
X-367Y-129D01*
X-366Y-137D01*
X-363Y-144D01*
X-358Y-150D01*
X-352Y-155D01*
X-345Y-158D01*
X-337Y-159D01*
X-330Y-158D01*
X-322Y-155D01*
X-316Y-150D01*
X-311Y-144D01*
X-309Y-139D01*
X-306Y-138D01*
X-304Y-138D01*
X-304Y-138D01*
X-288Y-153D01*
X-288Y-153D01*
X-285Y-155D01*
Y-186D01*
X-274D01*
Y-195D01*
X-286D01*
Y-254D01*
X-242D01*
Y-195D01*
X-252D01*
Y-190D01*
X-248Y-186D01*
X-234Y-186D01*
X-229Y-186D01*
X-212D01*
Y-158D01*
X-202D01*
Y-186D01*
X-186D01*
X-182Y-186D01*
X-177Y-186D01*
X-109D01*
Y-158D01*
Y-131D01*
X-113D01*
X-115Y-126D01*
X-108Y-119D01*
X-79D01*
Y-80D01*
X-63D01*
X-61Y-83D01*
X-60Y-84D01*
X-19D01*
Y-94D01*
X-59D01*
X-58Y-95D01*
X-58Y-98D01*
X-58Y-102D01*
X-59Y-103D01*
X-19D01*
Y-108D01*
X-14D01*
Y-119D01*
X12D01*
X16Y-119D01*
X20Y-121D01*
X21Y-124D01*
X21Y-125D01*
X20Y-128D01*
Y-189D01*
X21Y-193D01*
X23Y-196D01*
X22Y-199D01*
X21Y-201D01*
X10D01*
X5Y-202D01*
X2Y-204D01*
X2Y-204D01*
X-23Y-229D01*
X-26Y-233D01*
X-26Y-237D01*
Y-253D01*
X-31Y-253D01*
X-33Y-250D01*
X-37Y-245D01*
X-42Y-241D01*
X-49Y-238D01*
X-50Y-238D01*
Y-263D01*
X-55D01*
Y-268D01*
X-81D01*
X-80Y-270D01*
X-78Y-276D01*
X-74Y-281D01*
X-69Y-285D01*
X-68Y-288D01*
Y-288D01*
X-69Y-291D01*
X-74Y-295D01*
X-78Y-300D01*
X-80Y-306D01*
X-81Y-313D01*
X-80Y-320D01*
X-78Y-326D01*
X-74Y-331D01*
X-68Y-335D01*
X-62Y-338D01*
X-55Y-339D01*
X-49Y-338D01*
X-42Y-335D01*
X-37Y-331D01*
X-33Y-326D01*
X-30Y-326D01*
X-30D01*
X-28Y-326D01*
X-24Y-331D01*
X-18Y-335D01*
X-12Y-338D01*
X-5Y-339D01*
X1Y-338D01*
X8Y-335D01*
X13Y-331D01*
X17Y-326D01*
X20Y-326D01*
X20D01*
X22Y-326D01*
X26Y-331D01*
X32Y-335D01*
X38Y-338D01*
X45Y-339D01*
X51Y-338D01*
X58Y-335D01*
X63Y-331D01*
X67Y-326D01*
X70Y-326D01*
X70D01*
X72Y-326D01*
X76Y-331D01*
X82Y-335D01*
X84Y-336D01*
X84Y-337D01*
X87Y-341D01*
X102Y-356D01*
X105Y-358D01*
X110Y-359D01*
X190D01*
X194Y-358D01*
X198Y-356D01*
X220Y-334D01*
X222Y-330D01*
X223Y-326D01*
Y-322D01*
X226Y-320D01*
X230Y-314D01*
X232Y-306D01*
X230Y-298D01*
X226Y-292D01*
X219Y-288D01*
X212Y-286D01*
X204Y-288D01*
X201Y-290D01*
X196Y-287D01*
Y-248D01*
X200Y-246D01*
X201Y-246D01*
X212Y-257D01*
X216Y-260D01*
X220Y-261D01*
X237D01*
Y-283D01*
X288D01*
Y-228D01*
X237D01*
Y-238D01*
X225D01*
X220Y-234D01*
Y-202D01*
X223Y-200D01*
X223Y-200D01*
Y-158D01*
X233D01*
Y-199D01*
X235Y-198D01*
X238Y-197D01*
X241Y-198D01*
X244Y-199D01*
X248Y-200D01*
X252Y-199D01*
X256Y-197D01*
X258Y-193D01*
X259Y-189D01*
Y-177D01*
X264Y-175D01*
X303Y-214D01*
X307Y-216D01*
X311Y-217D01*
X312D01*
Y-244D01*
X342D01*
Y-249D01*
X347D01*
Y-283D01*
X372D01*
Y-283D01*
X375D01*
Y-283D01*
X435D01*
Y-216D01*
X413D01*
X413Y-215D01*
X399Y-201D01*
X400Y-199D01*
Y-163D01*
X405D01*
Y-158D01*
X435D01*
Y-138D01*
X439Y-136D01*
X448Y-145D01*
Y-307D01*
X445Y-309D01*
X440Y-315D01*
X439Y-323D01*
X440Y-331D01*
X445Y-337D01*
X451Y-341D01*
X459Y-343D01*
X466Y-341D01*
X473Y-337D01*
X477Y-331D01*
X479Y-323D01*
X477Y-315D01*
X473Y-309D01*
X473Y-309D01*
X472Y-309D01*
X473Y-308D01*
X478Y-306D01*
X490Y-319D01*
X490Y-322D01*
X491Y-330D01*
X496Y-336D01*
X502Y-340D01*
X510Y-342D01*
X517Y-340D01*
X524Y-336D01*
X528Y-330D01*
X530Y-322D01*
X528Y-314D01*
X524Y-308D01*
X517Y-304D01*
X515Y-303D01*
Y-298D01*
X518Y-297D01*
X525Y-293D01*
X529Y-287D01*
X531Y-279D01*
X529Y-271D01*
X525Y-265D01*
X522Y-263D01*
Y-234D01*
X521Y-230D01*
X519Y-226D01*
X515Y-223D01*
X516Y-220D01*
X521Y-218D01*
X609Y-306D01*
X612Y-308D01*
X616Y-309D01*
X635D01*
X635Y-309D01*
X637Y-314D01*
X636Y-316D01*
X635Y-318D01*
X689D01*
X688Y-316D01*
X686Y-312D01*
Y-309D01*
X688Y-306D01*
X689Y-302D01*
Y-294D01*
X688Y-290D01*
X686Y-287D01*
Y-283D01*
X688Y-280D01*
X689Y-276D01*
Y-268D01*
X688Y-264D01*
X686Y-261D01*
Y-258D01*
X688Y-254D01*
X689Y-251D01*
Y-243D01*
X688Y-239D01*
X686Y-236D01*
X682Y-233D01*
X679Y-233D01*
X673D01*
Y-216D01*
X704D01*
Y-166D01*
X715D01*
Y-185D01*
X738D01*
Y-159D01*
X738Y-159D01*
X755Y-142D01*
X755Y-142D01*
X758Y-139D01*
X758Y-134D01*
Y-124D01*
X762Y-121D01*
X763Y-121D01*
X764Y-122D01*
X766Y-126D01*
X766Y-129D01*
Y-137D01*
X767Y-140D01*
X769Y-144D01*
X772Y-146D01*
X776Y-147D01*
X802D01*
X806Y-146D01*
X809Y-144D01*
X859D01*
X861Y-149D01*
X848Y-163D01*
X845Y-166D01*
X845Y-171D01*
Y-232D01*
X840Y-234D01*
X838Y-233D01*
X834Y-233D01*
X831D01*
X830Y-228D01*
X831Y-227D01*
X835Y-221D01*
X837Y-213D01*
X835Y-205D01*
X831Y-199D01*
X824Y-195D01*
X817Y-193D01*
X809Y-195D01*
X803Y-199D01*
X798Y-205D01*
X797Y-213D01*
X798Y-221D01*
X803Y-227D01*
X803Y-228D01*
X802Y-233D01*
X801D01*
X797Y-233D01*
X793Y-236D01*
X791Y-239D01*
X791Y-243D01*
Y-251D01*
X791Y-254D01*
X793Y-258D01*
Y-261D01*
X791Y-264D01*
X791Y-268D01*
Y-276D01*
X791Y-280D01*
X793Y-283D01*
Y-287D01*
X791Y-290D01*
X791Y-294D01*
Y-302D01*
X791Y-306D01*
X792Y-307D01*
X793Y-311D01*
X792Y-314D01*
X791Y-316D01*
X791Y-318D01*
X844D01*
X843Y-316D01*
X843Y-314D01*
X842Y-314D01*
X845Y-309D01*
X845Y-309D01*
X864D01*
Y-328D01*
X919D01*
Y-276D01*
X868D01*
X865Y-271D01*
X866Y-270D01*
X867Y-266D01*
Y-263D01*
X886D01*
Y-237D01*
Y-211D01*
X867D01*
Y-175D01*
X875Y-167D01*
X919D01*
Y-115D01*
X864D01*
Y-122D01*
X812D01*
X812Y-121D01*
X810Y-117D01*
X811Y-115D01*
X812Y-111D01*
Y-103D01*
X811Y-99D01*
X810Y-98D01*
X812Y-93D01*
X812Y-93D01*
X818D01*
X821Y-96D01*
X827Y-100D01*
X835Y-101D01*
X842Y-100D01*
X849Y-96D01*
X851Y-93D01*
X864D01*
Y-101D01*
X919D01*
Y-49D01*
X864D01*
Y-70D01*
X851D01*
X849Y-68D01*
X846Y-66D01*
Y-54D01*
X856D01*
Y-2D01*
X800D01*
Y-54D01*
X824D01*
Y-66D01*
X821Y-68D01*
X819Y-70D01*
X809D01*
X806Y-68D01*
X802Y-67D01*
X776D01*
X772Y-68D01*
X769Y-70D01*
X767Y-74D01*
X766Y-77D01*
Y-85D01*
X767Y-89D01*
X768Y-91D01*
X766Y-96D01*
X766Y-96D01*
X758D01*
X754Y-97D01*
X751Y-99D01*
X739Y-110D01*
X737Y-114D01*
X736Y-118D01*
Y-130D01*
X728Y-138D01*
X726Y-137D01*
X723Y-136D01*
Y-129D01*
X723Y-125D01*
X720Y-121D01*
Y-118D01*
X723Y-115D01*
X723Y-112D01*
X678D01*
X678Y-115D01*
X679Y-117D01*
X678Y-121D01*
X677Y-122D01*
X647D01*
X625Y-99D01*
X621Y-97D01*
X617Y-96D01*
X611D01*
X609Y-93D01*
X602Y-89D01*
X595Y-87D01*
X587Y-89D01*
X581Y-93D01*
X576Y-99D01*
X575Y-107D01*
X576Y-115D01*
X581Y-121D01*
X583Y-123D01*
Y-129D01*
X581Y-131D01*
X576Y-137D01*
X575Y-145D01*
X576Y-153D01*
X581Y-159D01*
X587Y-163D01*
X595Y-165D01*
X602Y-163D01*
X609Y-159D01*
X611Y-156D01*
X618D01*
X625Y-163D01*
X628Y-165D01*
X633Y-166D01*
X649D01*
Y-182D01*
X644Y-184D01*
X639Y-182D01*
X632Y-180D01*
X624Y-182D01*
X618Y-186D01*
X613Y-192D01*
X612Y-200D01*
X613Y-208D01*
X618Y-214D01*
X624Y-218D01*
X632Y-220D01*
X639Y-218D01*
X644Y-216D01*
X649Y-216D01*
X651Y-220D01*
Y-233D01*
X645D01*
X641Y-233D01*
X638Y-236D01*
X636Y-239D01*
X635Y-243D01*
Y-251D01*
X636Y-254D01*
X637Y-256D01*
X635Y-261D01*
X635Y-261D01*
X627D01*
X555Y-188D01*
Y-114D01*
X554Y-110D01*
X552Y-106D01*
X504Y-59D01*
X506Y-54D01*
X555D01*
Y-6D01*
X566D01*
Y-23D01*
X622D01*
Y-6D01*
X730D01*
X730Y-6D01*
X734Y-9D01*
Y-23D01*
X756D01*
Y-2D01*
X744D01*
X743Y2D01*
X758Y17D01*
X760Y21D01*
X761Y24D01*
X761Y25D01*
X765Y24D01*
X766Y22D01*
X767Y18D01*
X769Y15D01*
X772Y13D01*
X776Y12D01*
X802D01*
X806Y13D01*
X809Y15D01*
X864D01*
Y-3D01*
X919D01*
Y49D01*
X864D01*
Y37D01*
X854D01*
X852Y42D01*
X853Y44D01*
X855Y52D01*
X853Y60D01*
X852Y61D01*
X855Y66D01*
X864D01*
Y62D01*
X919D01*
Y114D01*
X864D01*
Y88D01*
X809D01*
X806Y91D01*
X802Y91D01*
X776D01*
X772Y91D01*
X769Y88D01*
X767Y85D01*
X766Y81D01*
Y73D01*
X767Y69D01*
X768Y68D01*
X768Y66D01*
X766Y63D01*
X766Y63D01*
X763Y62D01*
X759Y60D01*
X759Y60D01*
X742Y42D01*
X739Y38D01*
X739Y34D01*
Y30D01*
X728Y19D01*
X723Y21D01*
X723Y22D01*
Y30D01*
X723Y34D01*
X720Y37D01*
Y41D01*
X723Y44D01*
X723Y47D01*
X678D01*
X678Y44D01*
X679Y43D01*
X676Y38D01*
X622D01*
Y66D01*
X566D01*
Y16D01*
X555D01*
Y66D01*
X517D01*
X478Y105D01*
X480Y109D01*
X499D01*
Y160D01*
X510D01*
Y140D01*
X566D01*
Y160D01*
X625D01*
X629Y161D01*
X633Y164D01*
X640Y171D01*
X742D01*
X746Y172D01*
X750Y174D01*
X771Y195D01*
X794D01*
X797Y193D01*
X801Y193D01*
X834D01*
X838Y193D01*
X841Y196D01*
X843Y199D01*
X844Y203D01*
Y211D01*
X844Y212D01*
X849Y214D01*
X886Y177D01*
X889Y175D01*
X894Y174D01*
X919D01*
Y150D01*
X974D01*
Y202D01*
X919D01*
Y196D01*
X898D01*
X871Y224D01*
X873Y229D01*
X919D01*
Y211D01*
X974D01*
Y263D01*
X919D01*
Y251D01*
X873D01*
X867Y258D01*
X869Y262D01*
X875Y264D01*
X882Y268D01*
X886Y274D01*
X888Y282D01*
X886Y290D01*
X882Y296D01*
X875Y300D01*
X868Y302D01*
X860Y300D01*
X854Y296D01*
X853Y295D01*
X841D01*
X838Y297D01*
X834Y297D01*
X825D01*
Y304D01*
X841D01*
Y356D01*
X785D01*
Y304D01*
X803D01*
Y297D01*
X801D01*
X797Y297D01*
X793Y294D01*
X791Y291D01*
X791Y287D01*
Y279D01*
X791Y276D01*
X792Y274D01*
X793Y271D01*
X792Y267D01*
X791Y266D01*
X791Y262D01*
Y254D01*
X791Y250D01*
X793Y247D01*
Y243D01*
X791Y240D01*
X791Y236D01*
Y228D01*
X791Y224D01*
X792Y223D01*
X792Y223D01*
X790Y218D01*
X790Y218D01*
X766D01*
X762Y217D01*
X758Y214D01*
X737Y193D01*
X690D01*
X688Y198D01*
X688Y199D01*
X689Y202D01*
X635D01*
X636Y199D01*
X636Y198D01*
X636Y196D01*
X634Y193D01*
X631Y192D01*
X627Y190D01*
X620Y183D01*
X569D01*
X566Y186D01*
Y202D01*
X538D01*
Y212D01*
X566D01*
Y233D01*
X571Y233D01*
X584D01*
X593Y224D01*
X596Y222D01*
X600Y221D01*
X600Y221D01*
X635D01*
X635Y221D01*
X637Y216D01*
X636Y214D01*
X635Y212D01*
X689D01*
X688Y214D01*
X686Y218D01*
Y221D01*
X688Y224D01*
X689Y228D01*
Y236D01*
X688Y240D01*
X686Y243D01*
Y247D01*
X688Y250D01*
X689Y254D01*
Y262D01*
X688Y266D01*
X686Y269D01*
Y272D01*
X688Y276D01*
X689Y279D01*
Y287D01*
X688Y291D01*
X686Y294D01*
X682Y297D01*
X679Y297D01*
X645D01*
X641Y297D01*
X638Y295D01*
X638D01*
X628Y304D01*
X625Y306D01*
X621Y307D01*
X615D01*
X614Y309D01*
X607Y313D01*
X600Y315D01*
X592Y313D01*
X586Y309D01*
X584Y307D01*
X525D01*
X471Y362D01*
X472Y366D01*
X472Y367D01*
X1599D01*
Y-367D01*
D02*
G37*
G36*
X178Y112D02*
X179Y108D01*
X181Y104D01*
X188Y97D01*
X191Y95D01*
X196Y94D01*
X228D01*
X234Y88D01*
Y-23D01*
X234Y-27D01*
X237Y-31D01*
X243Y-37D01*
X247Y-40D01*
X251Y-41D01*
X255D01*
Y-115D01*
X214D01*
Y-158D01*
X204D01*
Y-115D01*
X121D01*
Y-104D01*
X124Y-102D01*
X128Y-96D01*
X130Y-88D01*
X128Y-80D01*
X124Y-74D01*
X118Y-70D01*
X110Y-68D01*
X103Y-70D01*
X96Y-74D01*
X92Y-80D01*
X90Y-88D01*
X92Y-96D01*
X96Y-102D01*
X99Y-104D01*
Y-115D01*
X95D01*
Y-158D01*
X85D01*
Y-115D01*
X26D01*
X25Y-115D01*
X22Y-110D01*
X23Y-108D01*
X22Y-104D01*
X22Y-104D01*
Y-93D01*
X22Y-93D01*
X23Y-89D01*
X22Y-84D01*
X22Y-84D01*
Y-74D01*
X-19D01*
Y-64D01*
X22D01*
Y-54D01*
X-19D01*
Y-44D01*
X22D01*
Y-34D01*
X22Y-34D01*
X23Y-30D01*
X22Y-25D01*
X22Y-25D01*
Y-15D01*
X22Y-14D01*
X23Y-10D01*
X22Y-6D01*
X22Y-5D01*
Y5D01*
X22Y6D01*
X23Y10D01*
X22Y14D01*
X22Y15D01*
Y25D01*
X-19D01*
Y35D01*
X22D01*
Y45D01*
X22Y45D01*
X23Y49D01*
X22Y53D01*
X22Y54D01*
Y64D01*
X22Y65D01*
X23Y69D01*
X22Y73D01*
X22Y74D01*
Y84D01*
X22Y84D01*
X23Y89D01*
X22Y93D01*
X22Y93D01*
Y103D01*
X-19D01*
Y113D01*
X22D01*
X22Y114D01*
X24Y117D01*
X30D01*
X31Y117D01*
X32Y117D01*
X50D01*
X51Y117D01*
X52Y117D01*
X70D01*
X71Y117D01*
X72Y117D01*
X90D01*
X90Y117D01*
X91Y117D01*
X109D01*
X110Y117D01*
X111Y117D01*
X129D01*
X130Y117D01*
X131Y117D01*
X149D01*
X149Y117D01*
X150Y117D01*
X168D01*
X169Y117D01*
X170Y117D01*
X178D01*
Y112D01*
D02*
G37*
%LPC*%
G36*
X771Y-195D02*
X748D01*
Y-216D01*
X771D01*
Y-195D01*
D02*
G37*
G36*
X738D02*
X715D01*
Y-216D01*
X738D01*
Y-195D01*
D02*
G37*
G36*
X-167Y-195D02*
X-184D01*
Y-220D01*
X-167D01*
Y-195D01*
D02*
G37*
G36*
X-456Y-170D02*
X-463Y-172D01*
X-470Y-176D01*
X-474Y-183D01*
X-475Y-190D01*
X-474Y-198D01*
X-470Y-204D01*
X-472Y-208D01*
X-472Y-208D01*
X-477Y-208D01*
X-477Y-208D01*
X-479Y-205D01*
X-483Y-202D01*
X-488Y-201D01*
X-488D01*
Y-227D01*
Y-253D01*
X-488D01*
X-483Y-252D01*
X-479Y-250D01*
X-477Y-246D01*
X-477Y-246D01*
X-472Y-246D01*
X-472Y-246D01*
X-469Y-250D01*
X-465Y-252D01*
X-461Y-253D01*
X-450D01*
X-446Y-252D01*
X-442Y-250D01*
X-439Y-246D01*
X-439Y-243D01*
X-433D01*
Y-247D01*
X-381D01*
Y-192D01*
X-431D01*
X-434Y-191D01*
X-436Y-189D01*
X-437Y-183D01*
X-441Y-176D01*
X-448Y-172D01*
X-456Y-170D01*
D02*
G37*
G36*
X258Y-327D02*
X237D01*
Y-350D01*
X258D01*
Y-327D01*
D02*
G37*
G36*
X1085Y-177D02*
X1065D01*
Y-200D01*
X1085D01*
Y-177D01*
D02*
G37*
G36*
X1055D02*
X1034D01*
Y-200D01*
X1055D01*
Y-177D01*
D02*
G37*
G36*
X1115Y-210D02*
X1094D01*
Y-232D01*
X1115D01*
Y-210D01*
D02*
G37*
G36*
X1085Y-210D02*
X1065D01*
Y-232D01*
X1085D01*
Y-210D01*
D02*
G37*
G36*
X1055D02*
X1034D01*
Y-232D01*
X1055D01*
Y-210D01*
D02*
G37*
G36*
X1145Y-210D02*
X1125D01*
Y-232D01*
X1145D01*
Y-210D01*
D02*
G37*
G36*
X-194Y-195D02*
X-211D01*
Y-220D01*
X-194D01*
Y-195D01*
D02*
G37*
G36*
X919Y-211D02*
X896D01*
Y-232D01*
X919D01*
Y-211D01*
D02*
G37*
G36*
X288Y-327D02*
X268D01*
Y-350D01*
X288D01*
Y-327D01*
D02*
G37*
G36*
X1115Y-177D02*
X1094D01*
Y-200D01*
X1115D01*
Y-177D01*
D02*
G37*
G36*
X188Y34D02*
X180Y32D01*
X174Y28D01*
X169Y22D01*
X168Y14D01*
X169Y6D01*
X174Y-0D01*
X177Y-2D01*
Y-39D01*
X174Y-41D01*
X169Y-47D01*
X168Y-55D01*
X169Y-63D01*
X174Y-69D01*
X180Y-73D01*
X188Y-75D01*
X195Y-73D01*
X202Y-69D01*
X206Y-63D01*
X208Y-55D01*
X206Y-47D01*
X202Y-41D01*
X199Y-39D01*
Y-2D01*
X202Y-0D01*
X206Y6D01*
X208Y14D01*
X206Y22D01*
X202Y28D01*
X195Y32D01*
X188Y34D01*
D02*
G37*
G36*
X655Y-40D02*
X647Y-42D01*
X641Y-46D01*
X636Y-52D01*
X635Y-60D01*
X636Y-68D01*
X641Y-74D01*
X647Y-78D01*
X655Y-80D01*
X658Y-79D01*
X668Y-89D01*
X668Y-89D01*
X672Y-92D01*
X676Y-93D01*
X676Y-93D01*
X677D01*
X679Y-98D01*
X678Y-99D01*
X678Y-102D01*
X723D01*
X723Y-99D01*
X720Y-96D01*
Y-93D01*
X723Y-89D01*
X723Y-85D01*
Y-77D01*
X723Y-74D01*
X720Y-70D01*
X717Y-68D01*
X713Y-67D01*
X688D01*
X684Y-68D01*
X681Y-70D01*
X674Y-63D01*
X675Y-60D01*
X673Y-52D01*
X669Y-46D01*
X662Y-42D01*
X655Y-40D01*
D02*
G37*
G36*
X-24Y-113D02*
X-59D01*
X-57Y-116D01*
X-54Y-119D01*
X-49Y-119D01*
X-24D01*
Y-113D01*
D02*
G37*
G36*
X589Y-33D02*
X566D01*
Y-54D01*
X589D01*
Y-33D01*
D02*
G37*
G36*
X789D02*
X766D01*
Y-54D01*
X789D01*
Y-33D01*
D02*
G37*
G36*
X756D02*
X734D01*
Y-54D01*
X756D01*
Y-33D01*
D02*
G37*
G36*
X622D02*
X599D01*
Y-54D01*
X622D01*
Y-33D01*
D02*
G37*
G36*
X1395Y-177D02*
X1344D01*
Y-193D01*
X1335D01*
Y-177D01*
X1284D01*
Y-232D01*
X1335D01*
Y-216D01*
X1344D01*
Y-232D01*
X1395D01*
Y-177D01*
D02*
G37*
G36*
X435Y-168D02*
X410D01*
Y-196D01*
X435D01*
Y-168D01*
D02*
G37*
G36*
X1145Y-177D02*
X1125D01*
Y-200D01*
X1145D01*
Y-177D01*
D02*
G37*
G36*
X-79Y-163D02*
X-99D01*
Y-186D01*
X-79D01*
Y-163D01*
D02*
G37*
G36*
X1535Y-100D02*
Y-120D01*
X1556D01*
X1555Y-118D01*
X1553Y-112D01*
X1549Y-107D01*
X1543Y-103D01*
X1537Y-100D01*
X1535Y-100D01*
D02*
G37*
G36*
X-79Y-131D02*
X-99D01*
Y-153D01*
X-79D01*
Y-131D01*
D02*
G37*
G36*
X771Y-164D02*
X748D01*
Y-185D01*
X771D01*
Y-164D01*
D02*
G37*
G36*
X-91Y-229D02*
X-111D01*
Y-252D01*
X-91D01*
Y-229D01*
D02*
G37*
G36*
X1305Y-276D02*
X1284D01*
Y-299D01*
X1305D01*
Y-276D01*
D02*
G37*
G36*
X-381Y-292D02*
X-402D01*
Y-314D01*
X-381D01*
Y-292D01*
D02*
G37*
G36*
X-412D02*
X-433D01*
Y-314D01*
X-412D01*
Y-292D01*
D02*
G37*
G36*
X1335Y-276D02*
X1315D01*
Y-299D01*
X1335D01*
Y-276D01*
D02*
G37*
G36*
X-121Y-262D02*
X-142D01*
Y-284D01*
X-121D01*
Y-262D01*
D02*
G37*
G36*
X1265Y-276D02*
X1245D01*
Y-299D01*
X1265D01*
Y-276D01*
D02*
G37*
G36*
X1235D02*
X1214D01*
Y-299D01*
X1235D01*
Y-276D01*
D02*
G37*
G36*
X844Y-328D02*
X822D01*
Y-337D01*
X834D01*
X838Y-337D01*
X841Y-334D01*
X843Y-331D01*
X844Y-328D01*
D02*
G37*
G36*
X812D02*
X791D01*
X791Y-331D01*
X793Y-334D01*
X797Y-337D01*
X801Y-337D01*
X812D01*
Y-328D01*
D02*
G37*
G36*
X689D02*
X667D01*
Y-337D01*
X679D01*
X682Y-337D01*
X686Y-334D01*
X688Y-331D01*
X689Y-328D01*
D02*
G37*
G36*
X1395Y-244D02*
X1344D01*
Y-299D01*
X1356D01*
X1359Y-304D01*
X1357Y-305D01*
X1356Y-313D01*
X1357Y-321D01*
X1362Y-327D01*
X1368Y-331D01*
X1376Y-333D01*
X1383Y-331D01*
X1390Y-327D01*
X1394Y-321D01*
X1396Y-313D01*
X1394Y-305D01*
X1393Y-304D01*
X1395Y-299D01*
X1395D01*
Y-244D01*
D02*
G37*
G36*
X288Y-295D02*
X268D01*
Y-317D01*
X288D01*
Y-295D01*
D02*
G37*
G36*
X258D02*
X237D01*
Y-317D01*
X258D01*
Y-295D01*
D02*
G37*
G36*
X-308Y-178D02*
X-367D01*
Y-237D01*
X-348D01*
Y-328D01*
X-429D01*
X-431Y-328D01*
X-438D01*
Y-319D01*
X-439Y-315D01*
X-442Y-311D01*
X-446Y-308D01*
X-450Y-307D01*
X-461D01*
X-465Y-308D01*
X-469Y-311D01*
X-472Y-315D01*
X-472Y-315D01*
X-477Y-315D01*
X-477Y-315D01*
X-479Y-311D01*
X-483Y-308D01*
X-488Y-307D01*
X-498D01*
X-503Y-308D01*
X-507Y-311D01*
X-509Y-315D01*
X-509Y-315D01*
X-514D01*
X-514Y-315D01*
X-517Y-311D01*
X-520Y-308D01*
X-525Y-307D01*
X-536D01*
X-540Y-308D01*
X-544Y-311D01*
X-546Y-315D01*
X-547Y-317D01*
X-552Y-319D01*
X-552Y-319D01*
X-560Y-317D01*
X-568Y-319D01*
X-574Y-323D01*
X-578Y-330D01*
X-580Y-337D01*
X-578Y-345D01*
X-574Y-351D01*
X-568Y-356D01*
X-560Y-357D01*
X-552Y-356D01*
X-547Y-352D01*
X-546Y-352D01*
X-544Y-356D01*
X-540Y-358D01*
X-536Y-359D01*
X-525D01*
X-520Y-358D01*
X-517Y-356D01*
X-514Y-352D01*
X-514Y-352D01*
X-509D01*
X-509Y-352D01*
X-507Y-356D01*
X-503Y-358D01*
X-498Y-359D01*
X-488D01*
X-483Y-358D01*
X-479Y-356D01*
X-477Y-352D01*
X-477Y-352D01*
X-472Y-352D01*
X-472Y-352D01*
X-469Y-356D01*
X-465Y-358D01*
X-461Y-359D01*
X-450D01*
X-446Y-358D01*
X-442Y-356D01*
X-439Y-352D01*
X-439Y-350D01*
X-427D01*
X-426Y-350D01*
X-262D01*
X-258Y-349D01*
X-254Y-347D01*
X-253Y-346D01*
X-248Y-345D01*
Y-345D01*
X-248Y-345D01*
X-205D01*
Y-334D01*
X-142D01*
Y-351D01*
X-91D01*
Y-296D01*
X-142D01*
Y-312D01*
X-205D01*
Y-286D01*
X-248D01*
Y-312D01*
X-251Y-313D01*
X-254Y-315D01*
X-254Y-315D01*
X-267Y-328D01*
X-326D01*
Y-237D01*
X-308D01*
Y-178D01*
D02*
G37*
G36*
X-91Y-262D02*
X-111D01*
Y-284D01*
X-91D01*
Y-262D01*
D02*
G37*
G36*
X-60Y-238D02*
X-62Y-238D01*
X-68Y-241D01*
X-74Y-245D01*
X-78Y-250D01*
X-80Y-256D01*
X-81Y-258D01*
X-60D01*
Y-238D01*
D02*
G37*
G36*
X1205Y-244D02*
X1154D01*
Y-260D01*
X1145D01*
Y-244D01*
X1094D01*
Y-260D01*
X1085D01*
Y-244D01*
X1034D01*
Y-299D01*
X1085D01*
Y-283D01*
X1094D01*
Y-299D01*
X1099D01*
X1101Y-304D01*
X1099Y-307D01*
X1098Y-315D01*
X1099Y-323D01*
X1104Y-329D01*
X1110Y-333D01*
X1118Y-335D01*
X1125Y-333D01*
X1132Y-329D01*
X1136Y-323D01*
X1138Y-315D01*
X1136Y-307D01*
X1134Y-304D01*
X1136Y-299D01*
X1145D01*
Y-283D01*
X1154D01*
Y-299D01*
X1205D01*
Y-244D01*
D02*
G37*
G36*
X919Y-242D02*
X896D01*
Y-263D01*
X919D01*
Y-242D01*
D02*
G37*
G36*
X-194Y-230D02*
X-211D01*
Y-254D01*
X-194D01*
Y-230D01*
D02*
G37*
G36*
X-121Y-229D02*
X-142D01*
Y-252D01*
X-121D01*
Y-229D01*
D02*
G37*
G36*
X657Y-328D02*
X635D01*
X636Y-331D01*
X638Y-334D01*
X641Y-337D01*
X645Y-337D01*
X657D01*
Y-328D01*
D02*
G37*
G36*
X-167Y-230D02*
X-184D01*
Y-254D01*
X-167D01*
Y-230D01*
D02*
G37*
G36*
X-381Y-259D02*
X-402D01*
Y-282D01*
X-381D01*
Y-259D01*
D02*
G37*
G36*
X-412D02*
X-433D01*
Y-282D01*
X-412D01*
Y-259D01*
D02*
G37*
G36*
X337Y-254D02*
X312D01*
Y-283D01*
X337D01*
Y-254D01*
D02*
G37*
G36*
X1305Y-244D02*
X1284D01*
Y-266D01*
X1305D01*
Y-244D01*
D02*
G37*
G36*
X1265Y-244D02*
X1245D01*
Y-266D01*
X1265D01*
Y-244D01*
D02*
G37*
G36*
X1235D02*
X1214D01*
Y-266D01*
X1235D01*
Y-244D01*
D02*
G37*
G36*
X1335Y-244D02*
X1315D01*
Y-266D01*
X1335D01*
Y-244D01*
D02*
G37*
G36*
X1094Y301D02*
X1065D01*
X1066Y297D01*
X1069Y289D01*
X1075Y282D01*
X1082Y277D01*
X1090Y273D01*
X1094Y273D01*
Y301D01*
D02*
G37*
G36*
X974Y293D02*
X951D01*
Y272D01*
X974D01*
Y293D01*
D02*
G37*
G36*
X941D02*
X919D01*
Y272D01*
X941D01*
Y293D01*
D02*
G37*
G36*
X1132Y301D02*
X1104D01*
Y273D01*
X1107Y273D01*
X1116Y277D01*
X1123Y282D01*
X1128Y289D01*
X1131Y297D01*
X1132Y301D01*
D02*
G37*
G36*
X-187Y321D02*
X-209D01*
Y300D01*
X-187D01*
Y321D01*
D02*
G37*
G36*
X1246Y324D02*
X1238Y323D01*
X1231Y318D01*
X1227Y312D01*
X1225Y304D01*
X1227Y296D01*
X1231Y290D01*
X1238Y285D01*
X1246Y284D01*
X1253Y285D01*
X1260Y290D01*
X1264Y296D01*
X1266Y304D01*
X1264Y312D01*
X1260Y318D01*
X1253Y323D01*
X1246Y324D01*
D02*
G37*
G36*
X348Y331D02*
X292D01*
Y279D01*
X348D01*
Y285D01*
X377D01*
X379Y282D01*
X385Y278D01*
X393Y276D01*
X400Y278D01*
X407Y282D01*
X411Y288D01*
X413Y296D01*
X411Y304D01*
X407Y310D01*
X400Y314D01*
X393Y316D01*
X385Y314D01*
X379Y310D01*
X377Y307D01*
X348D01*
Y331D01*
D02*
G37*
G36*
X-321Y297D02*
X-348D01*
Y267D01*
X-321D01*
Y297D01*
D02*
G37*
G36*
X-358D02*
X-384D01*
Y267D01*
X-358D01*
Y297D01*
D02*
G37*
G36*
X1204Y299D02*
X1184D01*
Y265D01*
X1204D01*
Y299D01*
D02*
G37*
G36*
X-187Y290D02*
X-209D01*
Y269D01*
X-187D01*
Y290D01*
D02*
G37*
G36*
X41D02*
X18D01*
Y269D01*
X41D01*
Y290D01*
D02*
G37*
G36*
X8D02*
X-14D01*
Y269D01*
X8D01*
Y290D01*
D02*
G37*
G36*
X-154D02*
X-177D01*
Y269D01*
X-154D01*
Y290D01*
D02*
G37*
G36*
Y321D02*
X-177D01*
Y300D01*
X-154D01*
Y321D01*
D02*
G37*
G36*
X1204Y343D02*
X1184D01*
Y309D01*
X1204D01*
Y343D01*
D02*
G37*
G36*
X1174D02*
X1153D01*
Y309D01*
X1174D01*
Y343D01*
D02*
G37*
G36*
X-321Y338D02*
X-348D01*
Y307D01*
X-321D01*
Y338D01*
D02*
G37*
G36*
X1094Y339D02*
X1090Y339D01*
X1082Y335D01*
X1075Y330D01*
X1069Y323D01*
X1066Y315D01*
X1065Y311D01*
X1094D01*
Y339D01*
D02*
G37*
G36*
X774Y356D02*
X751D01*
Y335D01*
X774D01*
Y356D01*
D02*
G37*
G36*
X741D02*
X719D01*
Y335D01*
X741D01*
Y356D01*
D02*
G37*
G36*
X1104Y339D02*
Y311D01*
X1132D01*
X1131Y315D01*
X1128Y323D01*
X1123Y330D01*
X1116Y335D01*
X1107Y339D01*
X1104Y339D01*
D02*
G37*
G36*
X941Y324D02*
X919D01*
Y303D01*
X941D01*
Y324D01*
D02*
G37*
G36*
X41Y321D02*
X18D01*
Y300D01*
X41D01*
Y321D01*
D02*
G37*
G36*
X8D02*
X-14D01*
Y300D01*
X8D01*
Y321D01*
D02*
G37*
G36*
X974Y324D02*
X951D01*
Y303D01*
X974D01*
Y324D01*
D02*
G37*
G36*
X-358Y338D02*
X-384D01*
Y307D01*
X-358D01*
Y338D01*
D02*
G37*
G36*
X774Y325D02*
X751D01*
Y304D01*
X774D01*
Y325D01*
D02*
G37*
G36*
X741D02*
X719D01*
Y304D01*
X741D01*
Y325D01*
D02*
G37*
G36*
X1174Y299D02*
X1153D01*
Y265D01*
X1174D01*
Y299D01*
D02*
G37*
G36*
X1235Y134D02*
X1227Y133D01*
X1219Y129D01*
X1212Y124D01*
X1207Y117D01*
X1204Y109D01*
X1203Y105D01*
X1235D01*
Y134D01*
D02*
G37*
G36*
X1556Y120D02*
X1535D01*
Y100D01*
X1537Y100D01*
X1543Y103D01*
X1549Y107D01*
X1553Y112D01*
X1555Y118D01*
X1556Y120D01*
D02*
G37*
G36*
X1480Y251D02*
X1474Y250D01*
X1467Y247D01*
X1462Y243D01*
X1458Y238D01*
X1455Y232D01*
X1454Y225D01*
X1455Y218D01*
X1458Y212D01*
X1462Y207D01*
X1467Y203D01*
X1467Y200D01*
Y200D01*
X1467Y197D01*
X1462Y193D01*
X1458Y188D01*
X1455Y182D01*
X1454Y175D01*
X1455Y168D01*
X1458Y162D01*
X1462Y157D01*
X1467Y153D01*
X1467Y150D01*
Y150D01*
X1467Y147D01*
X1462Y143D01*
X1458Y138D01*
X1455Y132D01*
X1454Y125D01*
X1455Y118D01*
X1458Y112D01*
X1462Y107D01*
X1467Y103D01*
X1474Y100D01*
X1480Y99D01*
X1487Y100D01*
X1493Y103D01*
X1499Y107D01*
X1503Y112D01*
X1505Y112D01*
X1505D01*
X1508Y112D01*
X1512Y107D01*
X1517Y103D01*
X1524Y100D01*
X1525Y100D01*
Y125D01*
X1530D01*
Y130D01*
X1556D01*
X1555Y132D01*
X1553Y138D01*
X1549Y143D01*
X1543Y147D01*
X1543Y150D01*
Y150D01*
X1543Y153D01*
X1549Y157D01*
X1553Y162D01*
X1555Y168D01*
X1556Y170D01*
X1530D01*
Y180D01*
X1556D01*
X1555Y182D01*
X1553Y188D01*
X1549Y193D01*
X1543Y197D01*
X1543Y200D01*
Y200D01*
X1543Y203D01*
X1549Y207D01*
X1553Y212D01*
X1555Y218D01*
X1556Y220D01*
X1530D01*
Y225D01*
X1525D01*
Y250D01*
X1524Y250D01*
X1517Y247D01*
X1512Y243D01*
X1508Y238D01*
X1505Y238D01*
X1505D01*
X1503Y238D01*
X1499Y243D01*
X1493Y247D01*
X1487Y250D01*
X1480Y251D01*
D02*
G37*
G36*
X1245Y134D02*
Y105D01*
X1276D01*
X1276Y109D01*
X1272Y117D01*
X1267Y124D01*
X1260Y129D01*
X1252Y133D01*
X1245Y134D01*
D02*
G37*
G36*
X773Y132D02*
X750D01*
Y111D01*
X773D01*
Y132D01*
D02*
G37*
G36*
X566Y130D02*
X543D01*
Y109D01*
X566D01*
Y130D01*
D02*
G37*
G36*
X533D02*
X510D01*
Y109D01*
X533D01*
Y130D01*
D02*
G37*
G36*
X-206Y42D02*
X-229D01*
Y21D01*
X-206D01*
Y42D01*
D02*
G37*
G36*
X-239D02*
X-261D01*
Y21D01*
X-239D01*
Y42D01*
D02*
G37*
G36*
X789Y-2D02*
X766D01*
Y-23D01*
X789D01*
Y-2D01*
D02*
G37*
G36*
X1235Y95D02*
X1203D01*
X1204Y91D01*
X1207Y83D01*
X1212Y76D01*
X1219Y71D01*
X1227Y67D01*
X1235Y66D01*
Y95D01*
D02*
G37*
G36*
X1041Y202D02*
X985D01*
Y150D01*
X1032D01*
X1046Y137D01*
Y82D01*
X1046Y80D01*
X1041Y77D01*
X1024Y95D01*
X1020Y97D01*
X1016Y98D01*
X986D01*
Y114D01*
X930D01*
Y62D01*
X947D01*
Y49D01*
X930D01*
Y-3D01*
X986D01*
Y49D01*
X969D01*
Y62D01*
X986D01*
Y76D01*
X1011D01*
X1082Y6D01*
Y-17D01*
X1082Y-21D01*
X1085Y-25D01*
X1105Y-45D01*
X1103Y-50D01*
X1097D01*
X1095Y-47D01*
X1088Y-43D01*
X1081Y-41D01*
X1073Y-43D01*
X1067Y-47D01*
X1062Y-53D01*
X1061Y-61D01*
X1062Y-65D01*
X1058Y-69D01*
X986D01*
Y-49D01*
X930D01*
Y-101D01*
X957D01*
Y-115D01*
X930D01*
Y-167D01*
X971D01*
X973Y-171D01*
X960Y-184D01*
X958Y-187D01*
X957Y-192D01*
Y-211D01*
X930D01*
Y-263D01*
X957D01*
Y-276D01*
X930D01*
Y-328D01*
X986D01*
Y-276D01*
X979D01*
Y-263D01*
X986D01*
Y-211D01*
X979D01*
Y-196D01*
X1000Y-176D01*
X1002Y-172D01*
X1003Y-168D01*
Y-129D01*
X1020Y-112D01*
X1105D01*
X1107Y-117D01*
X1112Y-124D01*
X1119Y-129D01*
X1127Y-133D01*
X1136Y-134D01*
X1143D01*
X1152Y-133D01*
X1160Y-129D01*
X1167Y-124D01*
X1172Y-117D01*
X1176Y-109D01*
X1177Y-100D01*
X1176Y-91D01*
X1172Y-83D01*
X1168Y-77D01*
X1170Y-72D01*
X1209D01*
X1211Y-77D01*
X1207Y-83D01*
X1204Y-91D01*
X1202Y-100D01*
X1204Y-109D01*
X1207Y-117D01*
X1212Y-124D01*
X1219Y-129D01*
X1227Y-133D01*
X1229Y-133D01*
Y-177D01*
X1214D01*
Y-190D01*
X1205D01*
Y-177D01*
X1154D01*
Y-232D01*
X1205D01*
Y-213D01*
X1214D01*
Y-232D01*
X1265D01*
Y-177D01*
X1251D01*
Y-133D01*
X1252Y-133D01*
X1260Y-129D01*
X1267Y-124D01*
X1272Y-117D01*
X1276Y-109D01*
X1277Y-100D01*
X1276Y-91D01*
X1272Y-83D01*
X1268Y-77D01*
X1270Y-72D01*
X1306D01*
X1309Y-77D01*
X1307Y-79D01*
X1306Y-87D01*
X1307Y-95D01*
X1312Y-101D01*
X1318Y-105D01*
X1326Y-107D01*
X1333Y-105D01*
X1340Y-101D01*
X1341Y-99D01*
X1347D01*
X1349Y-101D01*
X1355Y-105D01*
X1363Y-107D01*
X1370Y-105D01*
X1377Y-101D01*
X1381Y-94D01*
X1382Y-88D01*
X1385Y-86D01*
X1387Y-85D01*
X1392Y-88D01*
X1400Y-90D01*
X1407Y-88D01*
X1414Y-84D01*
X1418Y-78D01*
X1420Y-70D01*
X1418Y-62D01*
X1414Y-56D01*
X1416Y-51D01*
X1416Y-51D01*
X1417Y-46D01*
Y-18D01*
X1416Y-13D01*
X1414Y-9D01*
X1410Y-7D01*
X1405Y-6D01*
X1395D01*
X1390Y-7D01*
X1386Y-9D01*
X1384Y-13D01*
X1384Y-13D01*
X1379D01*
X1379Y-13D01*
X1376Y-9D01*
X1373Y-7D01*
X1368Y-6D01*
X1357D01*
X1353Y-7D01*
X1349Y-9D01*
X1346Y-13D01*
X1346Y-13D01*
X1342D01*
X1341Y-13D01*
X1339Y-9D01*
X1335Y-7D01*
X1331Y-6D01*
X1320D01*
X1315Y-7D01*
X1312Y-9D01*
X1309Y-13D01*
X1308Y-18D01*
Y-46D01*
X1308Y-46D01*
X1305Y-50D01*
X1213D01*
X1211Y-45D01*
X1225Y-31D01*
X1227Y-33D01*
X1236Y-34D01*
X1243D01*
X1252Y-33D01*
X1260Y-29D01*
X1267Y-24D01*
X1272Y-17D01*
X1276Y-9D01*
X1277Y0D01*
X1276Y9D01*
X1272Y17D01*
X1267Y24D01*
X1267Y26D01*
X1293Y52D01*
X1311D01*
X1312Y52D01*
X1315Y49D01*
X1320Y48D01*
X1331D01*
X1335Y49D01*
X1339Y52D01*
X1341Y56D01*
X1342Y56D01*
X1346D01*
X1346Y56D01*
X1349Y52D01*
X1353Y49D01*
X1357Y48D01*
X1358D01*
Y74D01*
Y100D01*
X1357D01*
X1353Y99D01*
X1349Y97D01*
X1346Y93D01*
X1346Y93D01*
X1342D01*
X1341Y93D01*
X1339Y97D01*
X1335Y99D01*
X1331Y100D01*
X1320D01*
X1315Y99D01*
X1312Y97D01*
X1309Y93D01*
X1308Y89D01*
Y75D01*
X1288D01*
X1284Y74D01*
X1280Y71D01*
X1243Y34D01*
X1236D01*
X1227Y33D01*
X1219Y29D01*
X1212Y24D01*
X1207Y17D01*
X1204Y9D01*
X1202Y0D01*
X1204Y-9D01*
X1207Y-17D01*
X1207Y-17D01*
X1195Y-30D01*
X1167D01*
X1166Y-25D01*
X1167Y-24D01*
X1172Y-17D01*
X1176Y-9D01*
X1177Y0D01*
X1176Y9D01*
X1172Y17D01*
X1167Y24D01*
X1160Y29D01*
X1152Y33D01*
X1143Y34D01*
X1136D01*
X1127Y33D01*
X1124Y31D01*
X1068Y87D01*
Y141D01*
X1068Y141D01*
X1067Y146D01*
X1065Y149D01*
X1065Y149D01*
X1041Y173D01*
Y202D01*
D02*
G37*
G36*
X1177Y133D02*
X1103D01*
Y67D01*
X1177D01*
Y133D01*
D02*
G37*
G36*
X1276Y95D02*
X1245D01*
Y66D01*
X1252Y67D01*
X1260Y71D01*
X1267Y76D01*
X1272Y83D01*
X1276Y91D01*
X1276Y95D01*
D02*
G37*
G36*
X806Y132D02*
X783D01*
Y111D01*
X806D01*
Y132D01*
D02*
G37*
G36*
X-397Y258D02*
X-424D01*
Y227D01*
X-397D01*
Y258D01*
D02*
G37*
G36*
X-434D02*
X-461D01*
Y227D01*
X-434D01*
Y258D01*
D02*
G37*
G36*
X-26Y321D02*
X-81D01*
Y269D01*
X-65D01*
Y257D01*
X-81D01*
Y205D01*
X-26D01*
Y257D01*
X-43D01*
Y269D01*
X-26D01*
Y321D01*
D02*
G37*
G36*
X1535Y250D02*
Y230D01*
X1556D01*
X1555Y232D01*
X1553Y238D01*
X1549Y243D01*
X1543Y247D01*
X1537Y250D01*
X1535Y250D01*
D02*
G37*
G36*
X1338Y343D02*
X1287D01*
Y265D01*
X1334D01*
X1343Y256D01*
X1341Y251D01*
X1041D01*
Y263D01*
X1024D01*
Y272D01*
X1041D01*
Y324D01*
X985D01*
Y272D01*
X1002D01*
Y263D01*
X985D01*
Y211D01*
X1041D01*
Y229D01*
X1340D01*
X1389Y180D01*
Y99D01*
X1386Y97D01*
X1384Y93D01*
X1384Y93D01*
X1379D01*
X1379Y93D01*
X1376Y97D01*
X1373Y99D01*
X1368Y100D01*
X1368D01*
Y74D01*
Y48D01*
X1368D01*
X1373Y49D01*
X1376Y52D01*
X1379Y56D01*
X1379Y56D01*
X1384D01*
X1384Y56D01*
X1386Y52D01*
X1390Y49D01*
X1395Y48D01*
X1405D01*
X1410Y49D01*
X1414Y52D01*
X1414Y52D01*
X1427D01*
X1450Y30D01*
Y11D01*
X1440Y1D01*
X1437Y-3D01*
X1437Y-7D01*
Y-167D01*
X1437Y-171D01*
X1440Y-175D01*
X1448Y-184D01*
X1452Y-186D01*
X1456Y-187D01*
X1456Y-187D01*
X1457D01*
X1458Y-188D01*
X1462Y-193D01*
X1467Y-197D01*
X1467Y-200D01*
Y-200D01*
X1467Y-203D01*
X1462Y-207D01*
X1458Y-212D01*
X1455Y-218D01*
X1454Y-225D01*
X1455Y-232D01*
X1458Y-238D01*
X1462Y-243D01*
X1467Y-247D01*
X1474Y-250D01*
X1480Y-251D01*
X1487Y-250D01*
X1493Y-247D01*
X1499Y-243D01*
X1500Y-242D01*
X1505Y-244D01*
Y-251D01*
X1556D01*
Y-199D01*
X1549D01*
X1547Y-194D01*
X1549Y-193D01*
X1553Y-188D01*
X1555Y-182D01*
X1556Y-180D01*
X1530D01*
Y-170D01*
X1556D01*
X1555Y-168D01*
X1553Y-162D01*
X1549Y-157D01*
X1543Y-153D01*
X1543Y-150D01*
Y-150D01*
X1543Y-147D01*
X1549Y-143D01*
X1553Y-138D01*
X1555Y-132D01*
X1556Y-130D01*
X1530D01*
Y-125D01*
X1525D01*
Y-100D01*
X1524Y-100D01*
X1517Y-103D01*
X1512Y-107D01*
X1508Y-112D01*
X1505Y-112D01*
X1505D01*
X1503Y-112D01*
X1499Y-107D01*
X1493Y-103D01*
X1493Y-100D01*
Y-100D01*
X1493Y-97D01*
X1499Y-93D01*
X1503Y-88D01*
X1505Y-82D01*
X1506Y-75D01*
X1505Y-68D01*
X1503Y-62D01*
X1499Y-57D01*
X1493Y-53D01*
X1493Y-50D01*
Y-50D01*
X1493Y-47D01*
X1499Y-43D01*
X1503Y-38D01*
X1505Y-38D01*
X1505D01*
X1508Y-38D01*
X1512Y-43D01*
X1517Y-47D01*
X1524Y-50D01*
X1530Y-51D01*
X1537Y-50D01*
X1543Y-47D01*
X1549Y-43D01*
X1553Y-38D01*
X1555Y-32D01*
X1556Y-25D01*
X1555Y-18D01*
X1553Y-12D01*
X1549Y-7D01*
X1543Y-3D01*
X1537Y0D01*
X1530Y1D01*
X1524Y0D01*
X1517Y-3D01*
X1512Y-7D01*
X1508Y-12D01*
X1505Y-12D01*
X1505D01*
X1503Y-12D01*
X1499Y-7D01*
X1493Y-3D01*
X1491Y-2D01*
Y53D01*
X1491Y58D01*
X1488Y61D01*
X1436Y114D01*
Y190D01*
X1435Y194D01*
X1433Y198D01*
X1338Y292D01*
Y343D01*
D02*
G37*
G36*
X-154Y257D02*
X-177D01*
Y236D01*
X-154D01*
Y257D01*
D02*
G37*
G36*
X-187D02*
X-209D01*
Y236D01*
X-187D01*
Y257D01*
D02*
G37*
G36*
X739Y163D02*
X684D01*
Y148D01*
X671D01*
X669Y151D01*
X662Y155D01*
X655Y157D01*
X647Y155D01*
X641Y151D01*
X636Y145D01*
X635Y137D01*
X636Y129D01*
X641Y123D01*
X647Y119D01*
X655Y117D01*
X662Y119D01*
X669Y123D01*
X671Y126D01*
X684D01*
Y111D01*
X690D01*
Y91D01*
X688D01*
X684Y91D01*
X680Y88D01*
X678Y85D01*
X677Y81D01*
Y73D01*
X678Y69D01*
X680Y66D01*
Y63D01*
X678Y60D01*
X678Y57D01*
X723D01*
X723Y60D01*
X720Y63D01*
Y66D01*
X723Y69D01*
X723Y73D01*
Y81D01*
X723Y85D01*
X720Y88D01*
X717Y91D01*
X713Y91D01*
X712D01*
Y111D01*
X739D01*
Y163D01*
D02*
G37*
G36*
X806D02*
X783D01*
Y142D01*
X806D01*
Y163D01*
D02*
G37*
G36*
X773D02*
X750D01*
Y142D01*
X773D01*
Y163D01*
D02*
G37*
G36*
X-434Y217D02*
X-461D01*
Y186D01*
X-434D01*
Y217D01*
D02*
G37*
G36*
X-154Y226D02*
X-177D01*
Y205D01*
X-154D01*
Y226D01*
D02*
G37*
G36*
X-187D02*
X-209D01*
Y205D01*
X-187D01*
Y226D01*
D02*
G37*
G36*
X-397Y217D02*
X-424D01*
Y186D01*
X-397D01*
Y217D01*
D02*
G37*
%LPD*%
D10*
X789Y-81D02*
D03*
Y-107D02*
D03*
Y-133D02*
D03*
X700D02*
D03*
Y-107D02*
D03*
Y-81D02*
D03*
Y77D02*
D03*
Y52D02*
D03*
Y26D02*
D03*
X789D02*
D03*
Y52D02*
D03*
Y77D02*
D03*
D11*
X817Y207D02*
D03*
Y232D02*
D03*
Y258D02*
D03*
Y283D02*
D03*
X662Y207D02*
D03*
Y232D02*
D03*
Y258D02*
D03*
Y283D02*
D03*
Y-247D02*
D03*
Y-272D02*
D03*
Y-298D02*
D03*
Y-323D02*
D03*
X817Y-247D02*
D03*
Y-272D02*
D03*
Y-298D02*
D03*
Y-323D02*
D03*
D12*
X-189Y-225D02*
D03*
X-264D02*
D03*
X-226Y-315D02*
D03*
D13*
X1400Y74D02*
D03*
X1363D02*
D03*
X1325D02*
D03*
X1400Y-32D02*
D03*
X1325D02*
D03*
X1363D02*
D03*
X-456Y-227D02*
D03*
X-493Y-227D02*
D03*
X-530D02*
D03*
X-456Y-333D02*
D03*
X-530Y-333D02*
D03*
X-493D02*
D03*
D14*
X891Y-237D02*
D03*
X958D02*
D03*
X711Y137D02*
D03*
X778D02*
D03*
X761Y-28D02*
D03*
X828D02*
D03*
X813Y330D02*
D03*
X746D02*
D03*
X-234Y47D02*
D03*
X-167D02*
D03*
X538Y207D02*
D03*
X471D02*
D03*
Y135D02*
D03*
X538D02*
D03*
X320Y305D02*
D03*
X253D02*
D03*
X946Y237D02*
D03*
X1013D02*
D03*
Y298D02*
D03*
X946D02*
D03*
X891Y23D02*
D03*
X958D02*
D03*
Y88D02*
D03*
X891D02*
D03*
Y-141D02*
D03*
X958D02*
D03*
Y-75D02*
D03*
X891D02*
D03*
X-234Y99D02*
D03*
X-167D02*
D03*
Y151D02*
D03*
X-234D02*
D03*
X-115Y231D02*
D03*
X-182D02*
D03*
X743Y-190D02*
D03*
X676D02*
D03*
X-115Y295D02*
D03*
X-182D02*
D03*
X-54Y231D02*
D03*
X13D02*
D03*
X1013Y176D02*
D03*
X946D02*
D03*
X891Y-302D02*
D03*
X958D02*
D03*
X594Y-28D02*
D03*
X527D02*
D03*
Y40D02*
D03*
X594D02*
D03*
X-54Y295D02*
D03*
X13D02*
D03*
D15*
X1240Y-205D02*
D03*
Y-271D02*
D03*
X-207Y-92D02*
D03*
Y-158D02*
D03*
X-155Y-158D02*
D03*
Y-92D02*
D03*
X263Y-256D02*
D03*
Y-322D02*
D03*
X-104Y-158D02*
D03*
Y-92D02*
D03*
X1180Y-205D02*
D03*
Y-271D02*
D03*
X1120D02*
D03*
Y-205D02*
D03*
X1060Y-271D02*
D03*
Y-205D02*
D03*
X-116Y-257D02*
D03*
Y-323D02*
D03*
X-259Y-92D02*
D03*
Y-158D02*
D03*
X1310Y-271D02*
D03*
Y-205D02*
D03*
X-407Y-287D02*
D03*
Y-220D02*
D03*
X1370Y-271D02*
D03*
Y-205D02*
D03*
D16*
X1313Y304D02*
D03*
X1179D02*
D03*
D17*
X-429Y222D02*
D03*
X-504D02*
D03*
X-353D02*
D03*
X-278D02*
D03*
Y302D02*
D03*
X-353D02*
D03*
D18*
X405Y-249D02*
D03*
X342D02*
D03*
Y-163D02*
D03*
X405D02*
D03*
D19*
X-450Y97D02*
D03*
Y-97D02*
D03*
D20*
X-436Y26D02*
D03*
Y51D02*
D03*
Y-51D02*
D03*
Y-26D02*
D03*
Y0D02*
D03*
D21*
X-541Y33D02*
D03*
Y-33D02*
D03*
D22*
Y-115D02*
D03*
Y115D02*
D03*
D23*
X-19Y108D02*
D03*
Y89D02*
D03*
Y69D02*
D03*
Y49D02*
D03*
Y30D02*
D03*
Y10D02*
D03*
Y-10D02*
D03*
Y-30D02*
D03*
Y-49D02*
D03*
Y-69D02*
D03*
Y-89D02*
D03*
Y-108D02*
D03*
X298D02*
D03*
Y-89D02*
D03*
Y-69D02*
D03*
Y-49D02*
D03*
Y-30D02*
D03*
Y-10D02*
D03*
Y10D02*
D03*
Y30D02*
D03*
Y49D02*
D03*
Y69D02*
D03*
Y89D02*
D03*
Y108D02*
D03*
D24*
X31Y-158D02*
D03*
X51D02*
D03*
X71D02*
D03*
X90D02*
D03*
X110D02*
D03*
X130D02*
D03*
X149D02*
D03*
X169D02*
D03*
X189D02*
D03*
X209D02*
D03*
X228D02*
D03*
X248D02*
D03*
Y158D02*
D03*
X228D02*
D03*
X209D02*
D03*
X189D02*
D03*
X169D02*
D03*
X149D02*
D03*
X130D02*
D03*
X110D02*
D03*
X90D02*
D03*
X71D02*
D03*
X51D02*
D03*
X31D02*
D03*
D25*
X-357Y45D02*
Y62D01*
X-366Y96D02*
Y209D01*
X-385Y78D02*
X-366Y96D01*
X-385Y58D02*
Y78D01*
X-329Y18D02*
Y95D01*
X-456Y-232D02*
X-414D01*
X-456Y-229D02*
Y-187D01*
X-540Y-102D02*
Y109D01*
X-533Y-102D02*
X-450D01*
X-523Y92D02*
X-450D01*
X-337Y-50D02*
X-296Y-91D01*
Y-129D02*
Y-91D01*
Y-129D02*
X-281Y-145D01*
X-269D01*
X-455Y-339D02*
X-427D01*
X-186Y-323D02*
X-122D01*
X-72Y69D02*
X-20D01*
X521Y296D02*
X621D01*
X462Y355D02*
X521Y296D01*
X-301Y80D02*
X-297D01*
X-333Y131D02*
X-278Y186D01*
X-364Y209D02*
Y211D01*
X-66Y-89D02*
X-20D01*
X-71Y-94D02*
X-66Y-89D01*
X-20Y-49D02*
X44D01*
X868Y282D02*
X872D01*
X894Y185D02*
X946D01*
X846Y232D02*
X894Y185D01*
X807Y232D02*
X846D01*
X807Y-272D02*
X850D01*
X856Y-266D02*
Y-171D01*
X850Y-272D02*
X856Y-266D01*
X1015Y-101D02*
X1140D01*
X992Y-124D02*
X1015Y-101D01*
X856Y-171D02*
X891Y-135D01*
X783Y-133D02*
X891D01*
X817Y-246D02*
Y-213D01*
X511Y-279D02*
Y-234D01*
X503Y-226D02*
X511Y-234D01*
X503Y-226D02*
Y-128D01*
X-87Y49D02*
X-20D01*
X1117Y-41D02*
X1199D01*
X1093Y-17D02*
X1117Y-41D01*
X1093Y-17D02*
Y10D01*
X1063Y-80D02*
X1081Y-61D01*
X1323D01*
X968Y-80D02*
X1063D01*
X1288Y64D02*
X1325D01*
X1240Y15D02*
X1288Y64D01*
X1240Y-1D02*
Y15D01*
X1325Y-87D02*
Y-21D01*
X1323Y-61D02*
X1324Y-62D01*
X1199Y-41D02*
X1240Y-1D01*
X1313Y302D02*
X1425Y190D01*
Y109D02*
Y190D01*
Y109D02*
X1480Y53D01*
X1345Y240D02*
X1400Y185D01*
Y64D02*
Y185D01*
X1432Y64D02*
X1461Y35D01*
X1400Y64D02*
X1432D01*
X1461Y6D02*
Y35D01*
X1448Y-7D02*
X1461Y6D01*
X1448Y-167D02*
Y-7D01*
X1016Y87D02*
X1093Y10D01*
X1448Y-167D02*
X1456Y-176D01*
X1363Y-87D02*
Y-21D01*
X1400Y-66D02*
Y-21D01*
X-531Y-324D02*
X-530Y-325D01*
X595Y-107D02*
X617D01*
X642Y-133D01*
X215Y273D02*
X247Y305D01*
X215Y238D02*
Y273D01*
X209Y232D02*
X215Y238D01*
X228Y214D02*
X238Y223D01*
X1376Y-313D02*
Y-265D01*
X1358Y-275D02*
X1362Y-271D01*
X264Y-159D02*
X311Y-206D01*
X248Y-159D02*
X264D01*
X311Y-206D02*
X388D01*
X405Y-223D01*
X433Y-83D02*
Y-51D01*
X411Y-30D02*
X433Y-51D01*
X251Y-30D02*
X411D01*
X433Y-83D02*
X482Y-132D01*
X417Y-10D02*
X454Y-46D01*
Y-79D02*
Y-46D01*
X299Y-10D02*
X417D01*
X454Y-79D02*
X503Y-128D01*
X427Y10D02*
X472Y-35D01*
Y-69D02*
Y-35D01*
Y-69D02*
X523Y-120D01*
X464Y2D02*
X491Y-25D01*
Y-61D02*
Y-25D01*
Y-61D02*
X544Y-114D01*
X354Y-49D02*
X374Y-69D01*
X299Y-49D02*
X354D01*
X393Y30D02*
X417Y53D01*
X299Y30D02*
X393D01*
X464Y2D02*
Y30D01*
X490Y11D02*
Y45D01*
Y11D02*
X496Y5D01*
X393Y102D02*
X465D01*
X360Y69D02*
X393Y102D01*
X299Y69D02*
X360D01*
X299Y49D02*
X376D01*
X465Y102D02*
X531Y36D01*
X342Y-157D02*
Y-123D01*
X327Y-108D02*
X342Y-123D01*
X299Y-108D02*
X327D01*
X299Y-69D02*
X374D01*
X299Y10D02*
X427D01*
X431Y-112D02*
X459Y-140D01*
X80Y-102D02*
X90Y-113D01*
Y-159D02*
Y-113D01*
X482Y-294D02*
Y-132D01*
Y-294D02*
X510Y-322D01*
X1118Y-315D02*
Y-272D01*
X459Y-323D02*
Y-140D01*
X1063Y-205D02*
X1119D01*
X1240Y-202D02*
Y-101D01*
X1183Y-202D02*
X1240D01*
X1063Y-271D02*
X1175D01*
X1306Y-205D02*
X1362D01*
X828Y-35D02*
X835Y-42D01*
X496Y5D02*
X730D01*
X471Y172D02*
Y207D01*
X-84Y106D02*
X-67Y89D01*
X-98Y18D02*
X-73D01*
X-65Y10D01*
X-20D01*
Y108D02*
X44D01*
X-67Y89D02*
X-20D01*
X31Y159D02*
Y198D01*
X14Y216D02*
X31Y198D01*
X14Y216D02*
Y241D01*
X-263Y-227D02*
Y-166D01*
X-70Y-108D02*
X-20D01*
X-86Y-69D02*
X-20D01*
X-278Y186D02*
Y302D01*
X747Y-118D02*
X758Y-107D01*
X190Y-348D02*
X212Y-326D01*
Y-306D01*
X185Y-299D02*
Y-218D01*
X170Y-313D02*
X185Y-299D01*
X-530Y-240D02*
X-530Y-240D01*
X169Y-203D02*
X185Y-218D01*
X145Y-313D02*
X170D01*
X-15Y-283D02*
Y-237D01*
Y-283D02*
X-5Y-293D01*
Y-313D02*
Y-293D01*
X-15Y-237D02*
X10Y-212D01*
X110Y-348D02*
X190D01*
X95Y-333D02*
X110Y-348D01*
X95Y-333D02*
Y-313D01*
X10Y-245D02*
X25Y-230D01*
X10Y-278D02*
Y-245D01*
Y-278D02*
X45Y-313D01*
X169Y-203D02*
Y-159D01*
X220Y-250D02*
X270D01*
X209Y-238D02*
X220Y-250D01*
X209Y-238D02*
Y-159D01*
X405Y-249D02*
Y-223D01*
X-523Y142D02*
Y220D01*
X169Y159D02*
Y204D01*
X247Y305D02*
X253D01*
X228Y-218D02*
Y-159D01*
X110Y-88D02*
X110Y-88D01*
Y-159D02*
Y-88D01*
X329Y296D02*
X393D01*
X730Y5D02*
X750Y25D01*
X655Y-60D02*
X676Y-82D01*
X595Y27D02*
X696D01*
X529Y-25D02*
Y3D01*
X958Y40D02*
Y87D01*
X299Y108D02*
X370D01*
X299Y89D02*
X350D01*
X807Y-298D02*
X889D01*
X228Y159D02*
Y214D01*
X-20Y30D02*
X60D01*
X209Y-159D02*
Y-86D01*
X655Y51D02*
X732D01*
X758Y-107D02*
X783D01*
X1013Y240D02*
Y295D01*
X696Y-107D02*
X727D01*
X750Y-84D01*
Y-74D01*
X750Y-74D01*
Y-46D01*
X676Y-82D02*
X696D01*
X701Y83D02*
Y121D01*
X655Y137D02*
X705D01*
X396Y135D02*
X471D01*
X616Y207D02*
X701D01*
X751Y-237D02*
Y-162D01*
X968Y-135D02*
Y-80D01*
X766Y207D02*
X807D01*
X350Y89D02*
X370Y108D01*
X396Y135D01*
X-157Y45D02*
X-125D01*
X-98Y18D01*
X531Y27D02*
Y36D01*
X662Y-247D02*
Y-202D01*
X589Y244D02*
X600Y232D01*
X662D01*
X673D01*
X609Y258D02*
X662D01*
Y258D02*
X673D01*
X602Y265D02*
X609Y258D01*
X188Y-55D02*
Y14D01*
X183Y217D02*
Y252D01*
X169Y204D02*
X183Y217D01*
X149Y159D02*
Y249D01*
X148Y251D02*
X150D01*
X209Y159D02*
Y232D01*
X136Y277D02*
X219D01*
X109Y250D02*
X136Y277D01*
X90Y159D02*
Y221D01*
X110Y202D01*
Y159D02*
Y202D01*
X621Y296D02*
X633Y283D01*
X673D01*
X357Y223D02*
X418D01*
X439Y244D01*
X589D01*
X430Y265D02*
X602D01*
X642Y-133D02*
X696D01*
X747Y-134D02*
Y-118D01*
X632Y-200D02*
X671D01*
X789Y26D02*
X883D01*
X750Y25D02*
Y34D01*
X767Y52D01*
X789D01*
X890Y-81D02*
X891Y-80D01*
X789Y-81D02*
X835D01*
X890D01*
X835Y-82D02*
Y-81D01*
Y-42D01*
X376Y49D02*
X407Y80D01*
X455D01*
X490Y45D01*
X835Y52D02*
Y73D01*
X789Y77D02*
X881D01*
X1456Y-176D02*
X1480D01*
X958Y87D02*
X1016D01*
X1013Y240D02*
X1345D01*
X1013Y185D02*
X1057Y141D01*
Y82D02*
Y141D01*
Y82D02*
X1140Y-1D01*
X742Y182D02*
X766Y207D01*
X635Y182D02*
X742D01*
X625Y172D02*
X635Y182D01*
X249Y172D02*
X625D01*
X727Y-155D02*
X747Y-134D01*
X595Y-145D02*
X623D01*
X633Y-155D01*
X727D01*
X51Y159D02*
Y219D01*
X82Y250D01*
X109D01*
X415D02*
X430Y265D01*
X238Y223D02*
X319D01*
X346Y250D01*
X415D01*
X544Y-193D02*
Y-114D01*
Y-193D02*
X623Y-272D01*
X673D01*
X523Y-204D02*
Y-120D01*
Y-204D02*
X616Y-298D01*
X673D01*
X872Y282D02*
X873Y283D01*
X814D02*
Y316D01*
Y283D02*
X873D01*
X807Y258D02*
X851D01*
X869Y240D01*
X946D01*
X25Y-230D02*
X139D01*
X149Y-219D01*
Y-159D01*
X10Y-212D02*
X121D01*
X130Y-203D01*
Y-159D01*
X299Y-89D02*
X346D01*
X370Y-112D01*
X431D01*
X189Y112D02*
Y159D01*
X-208Y-101D02*
Y-92D01*
X-157D01*
Y-82D01*
X-132Y-57D01*
X-155Y-158D02*
Y-151D01*
X-104Y-100D01*
Y-92D01*
X-75Y-30D02*
X-20D01*
X-132Y-57D02*
X-102D01*
X-75Y-30D01*
X-112Y-76D02*
X-93D01*
X-67Y-49D01*
X-20D01*
X-329Y95D02*
X-286Y138D01*
X-247D01*
X-167Y151D02*
X-155D01*
X-153Y137D02*
X-141D01*
X-72Y69D01*
X-167Y101D02*
X-157Y91D01*
X-128D01*
X-87Y49D01*
X-297Y80D02*
X-286Y91D01*
X-244D01*
X-234Y101D01*
X-54Y235D02*
Y292D01*
X-115Y328D02*
X-88Y355D01*
X462D01*
X-115Y206D02*
Y328D01*
Y206D02*
X-46Y137D01*
Y112D02*
Y137D01*
X245Y-23D02*
X251Y-30D01*
X245Y-23D02*
Y93D01*
X233Y105D02*
X245Y93D01*
X189Y112D02*
X196Y105D01*
X233D01*
X968Y-310D02*
Y-192D01*
X992Y-168D01*
Y-124D01*
X-530Y-240D02*
Y-187D01*
X-493Y-260D02*
Y-227D01*
Y-190D01*
X-262Y-339D02*
X-246Y-323D01*
X-186D01*
X-337Y-333D02*
Y-208D01*
X-429Y-339D02*
X-262D01*
X-436Y51D02*
X-392D01*
X-385Y58D01*
X-365Y38D02*
X-357Y45D01*
X-475Y-51D02*
X-436D01*
X-479Y-56D02*
X-475D01*
X1480Y-26D02*
Y-25D01*
Y53D01*
X-560Y-337D02*
X-530D01*
D26*
X-436Y26D02*
X-377D01*
X-365Y38D01*
X-436Y0D02*
X-346D01*
X-329Y18D01*
D27*
X-493Y-265D02*
D03*
D28*
X-493Y-280D02*
D03*
D29*
X1246Y304D02*
D03*
D30*
X386Y-69D02*
D03*
X1099Y306D02*
D03*
D31*
X-55Y-313D02*
D03*
Y-263D02*
D03*
X-5Y-313D02*
D03*
X45D02*
D03*
Y-263D02*
D03*
X95Y-313D02*
D03*
Y-263D02*
D03*
X145Y-313D02*
D03*
X1480Y-225D02*
D03*
X1530Y-175D02*
D03*
X1480D02*
D03*
X1530Y-125D02*
D03*
X1480D02*
D03*
Y-75D02*
D03*
X1530Y-25D02*
D03*
X1480D02*
D03*
X1530Y125D02*
D03*
X1480D02*
D03*
X1530Y175D02*
D03*
X1480D02*
D03*
X1530Y225D02*
D03*
X1480D02*
D03*
D32*
X145Y-263D02*
D03*
D33*
X1530Y-225D02*
D03*
D34*
X1140Y-100D02*
D03*
Y0D02*
D03*
X1240Y-100D02*
D03*
Y0D02*
D03*
Y100D02*
D03*
D35*
X1140D02*
D03*
D36*
X-337Y-129D02*
D03*
Y-50D02*
D03*
D37*
Y-208D02*
D03*
D38*
X-357Y62D02*
D03*
X68Y294D02*
D03*
X-560Y-337D02*
D03*
X-456Y165D02*
D03*
X-227Y-206D02*
D03*
X-385Y-87D02*
D03*
X451Y306D02*
D03*
X-301Y80D02*
D03*
X-333Y131D02*
D03*
X-129Y-30D02*
D03*
X868Y282D02*
D03*
X1020Y-185D02*
D03*
X817Y-213D02*
D03*
X1001Y59D02*
D03*
X1081Y-61D02*
D03*
X1400Y-70D02*
D03*
X1326Y-87D02*
D03*
X1432Y21D02*
D03*
X1293Y23D02*
D03*
X1208Y-149D02*
D03*
X-493Y-190D02*
D03*
X741Y-86D02*
D03*
X624Y-81D02*
D03*
X595Y-107D02*
D03*
X271Y-210D02*
D03*
X-30Y-146D02*
D03*
X1376Y-313D02*
D03*
X-82Y123D02*
D03*
X-0Y161D02*
D03*
X464Y30D02*
D03*
X417Y53D02*
D03*
X877Y-30D02*
D03*
X934Y-186D02*
D03*
X717Y-311D02*
D03*
X1019Y-244D02*
D03*
X1473Y-312D02*
D03*
X1118Y-315D02*
D03*
X511Y-279D02*
D03*
X459Y-323D02*
D03*
X835Y52D02*
D03*
X510Y-322D02*
D03*
X787Y172D02*
D03*
X760Y-247D02*
D03*
X-98Y18D02*
D03*
X-185Y-280D02*
D03*
X-113Y155D02*
D03*
X-227Y235D02*
D03*
X587Y-189D02*
D03*
X357Y223D02*
D03*
X212Y-306D02*
D03*
X-432Y283D02*
D03*
X342Y-303D02*
D03*
X110Y-88D02*
D03*
X53D02*
D03*
X1069Y-148D02*
D03*
X393Y296D02*
D03*
X758Y280D02*
D03*
X655Y-60D02*
D03*
X595Y-145D02*
D03*
X705Y-35D02*
D03*
X789Y-166D02*
D03*
X835Y-82D02*
D03*
X716Y214D02*
D03*
X840Y120D02*
D03*
X193Y316D02*
D03*
X1029Y-31D02*
D03*
X600Y130D02*
D03*
X1024Y133D02*
D03*
X598Y204D02*
D03*
X538Y337D02*
D03*
X600Y295D02*
D03*
X428Y135D02*
D03*
X-171Y-349D02*
D03*
X-267Y-281D02*
D03*
X-240Y5D02*
D03*
X1320Y-350D02*
D03*
X1183D02*
D03*
X743Y74D02*
D03*
X910Y140D02*
D03*
X188Y14D02*
D03*
Y-55D02*
D03*
X183Y252D02*
D03*
X150Y251D02*
D03*
X550Y-276D02*
D03*
X420Y-303D02*
D03*
X539Y-71D02*
D03*
X632Y-200D02*
D03*
X-155Y-226D02*
D03*
X1364Y149D02*
D03*
X1542Y43D02*
D03*
X1268Y-149D02*
D03*
X1363Y-87D02*
D03*
X1258Y196D02*
D03*
X1330Y177D02*
D03*
X1084Y194D02*
D03*
X1397Y267D02*
D03*
X1491Y338D02*
D03*
X-456Y-190D02*
D03*
X655Y137D02*
D03*
X91Y222D02*
D03*
X244Y255D02*
D03*
X-530Y-190D02*
D03*
X-483Y43D02*
D03*
Y-43D02*
D03*
D39*
X-505Y-280D02*
D03*
X-481D02*
D03*
M02*
