G04 Layer_Color=32896*
%FSLAX23Y23*%
%MOIN*%
G70*
G01*
G75*
%ADD43C,0.005*%
%ADD44C,0.007*%
G36*
X1332Y1354D02*
Y1353D01*
X1335Y1333D01*
Y1333D01*
Y1333D01*
X1336Y1333D01*
X1336Y1332D01*
X1350Y1327D01*
X1351D01*
X1367Y1338D01*
X1369D01*
X1369Y1338D01*
X1383Y1324D01*
Y1324D01*
Y1323D01*
Y1323D01*
Y1323D01*
X1372Y1306D01*
Y1306D01*
Y1306D01*
Y1305D01*
Y1305D01*
X1378Y1291D01*
Y1291D01*
X1378Y1291D01*
X1379Y1290D01*
X1398Y1287D01*
X1398D01*
X1399Y1287D01*
Y1286D01*
Y1266D01*
Y1266D01*
X1398Y1266D01*
X1398Y1265D01*
X1379Y1261D01*
X1379D01*
X1379Y1261D01*
X1378Y1261D01*
X1372Y1246D01*
Y1246D01*
Y1245D01*
Y1245D01*
Y1245D01*
X1383Y1229D01*
Y1228D01*
Y1228D01*
Y1228D01*
X1369Y1214D01*
X1369Y1214D01*
X1368D01*
X1367Y1214D01*
X1352Y1224D01*
X1351D01*
X1344Y1220D01*
X1344D01*
X1344Y1221D01*
X1343Y1221D01*
X1329Y1255D01*
Y1255D01*
Y1255D01*
X1330Y1256D01*
X1332Y1257D01*
X1332Y1257D01*
X1332Y1257D01*
X1332Y1258D01*
X1333Y1258D01*
X1334Y1259D01*
X1335Y1260D01*
X1337Y1262D01*
X1339Y1265D01*
X1341Y1268D01*
X1342Y1271D01*
X1342Y1276D01*
Y1276D01*
Y1277D01*
X1342Y1279D01*
X1342Y1281D01*
X1341Y1283D01*
X1340Y1286D01*
X1338Y1289D01*
X1336Y1291D01*
X1336Y1291D01*
X1335Y1292D01*
X1334Y1293D01*
X1332Y1294D01*
X1330Y1296D01*
X1327Y1297D01*
X1324Y1298D01*
X1321Y1298D01*
X1319D01*
X1318Y1298D01*
X1315Y1297D01*
X1313Y1296D01*
X1310Y1295D01*
X1308Y1293D01*
X1305Y1291D01*
X1305Y1291D01*
X1304Y1290D01*
X1304Y1289D01*
X1302Y1287D01*
X1301Y1284D01*
X1300Y1282D01*
X1299Y1279D01*
X1299Y1276D01*
Y1275D01*
X1299Y1274D01*
X1300Y1271D01*
X1300Y1269D01*
X1302Y1266D01*
X1303Y1263D01*
X1305Y1260D01*
X1309Y1258D01*
X1309Y1258D01*
X1309Y1257D01*
X1310D01*
X1310Y1257D01*
X1312Y1256D01*
X1312Y1256D01*
X1312Y1255D01*
X1299Y1221D01*
X1298Y1221D01*
X1297Y1220D01*
X1290Y1224D01*
X1289D01*
X1274Y1214D01*
X1274Y1214D01*
X1273D01*
X1273Y1214D01*
X1258Y1228D01*
Y1228D01*
Y1229D01*
Y1229D01*
X1269Y1245D01*
Y1245D01*
Y1245D01*
Y1245D01*
Y1246D01*
X1263Y1261D01*
Y1261D01*
Y1261D01*
X1263Y1261D01*
X1262D01*
X1244Y1265D01*
X1244D01*
X1243Y1266D01*
X1243Y1266D01*
Y1286D01*
Y1286D01*
Y1287D01*
X1243Y1287D01*
X1244D01*
X1263Y1290D01*
X1263D01*
X1264Y1291D01*
X1264Y1291D01*
X1270Y1305D01*
Y1305D01*
Y1306D01*
Y1306D01*
Y1306D01*
Y1306D01*
X1258Y1323D01*
Y1323D01*
Y1323D01*
Y1324D01*
Y1324D01*
X1273Y1338D01*
X1273Y1338D01*
X1274D01*
X1290Y1327D01*
X1292D01*
X1305Y1332D01*
X1305D01*
X1306Y1333D01*
X1306Y1333D01*
Y1333D01*
X1310Y1353D01*
Y1353D01*
Y1354D01*
X1310Y1354D01*
X1311Y1354D01*
X1331D01*
X1332Y1354D01*
D02*
G37*
D43*
X1654Y1484D02*
Y1455D01*
X1648Y1449D01*
X1637D01*
X1631Y1455D01*
Y1484D01*
X1596Y1478D02*
X1602Y1484D01*
X1613D01*
X1619Y1478D01*
Y1472D01*
X1613Y1466D01*
X1602D01*
X1596Y1461D01*
Y1455D01*
X1602Y1449D01*
X1613D01*
X1619Y1455D01*
X1584Y1484D02*
Y1449D01*
X1567D01*
X1561Y1455D01*
Y1461D01*
X1567Y1466D01*
X1584D01*
X1567D01*
X1561Y1472D01*
Y1478D01*
X1567Y1484D01*
X1584D01*
X1549D02*
Y1449D01*
X1532D01*
X1526Y1455D01*
Y1478D01*
X1532Y1484D01*
X1549D01*
X1514Y1449D02*
Y1484D01*
X1502Y1472D01*
X1491Y1484D01*
Y1449D01*
X1479Y1443D02*
X1456D01*
X1444Y1484D02*
Y1449D01*
Y1461D01*
X1421Y1484D01*
X1438Y1466D01*
X1421Y1449D01*
X1409D02*
X1397D01*
X1403D01*
Y1472D01*
X1409D01*
X1380Y1449D02*
Y1472D01*
X1362D01*
X1357Y1466D01*
Y1449D01*
X1327D02*
X1339D01*
X1345Y1455D01*
Y1466D01*
X1339Y1472D01*
X1327D01*
X1322Y1466D01*
Y1461D01*
X1345D01*
X1304Y1478D02*
Y1472D01*
X1310D01*
X1298D01*
X1304D01*
Y1455D01*
X1298Y1449D01*
X1281D02*
X1269D01*
X1275D01*
Y1472D01*
X1281D01*
X1252Y1449D02*
X1234D01*
X1228Y1455D01*
X1234Y1461D01*
X1246D01*
X1252Y1466D01*
X1246Y1472D01*
X1228D01*
X1217Y1443D02*
X1193D01*
X1182Y1449D02*
Y1484D01*
X1170Y1472D01*
X1158Y1484D01*
Y1449D01*
X1147Y1484D02*
Y1449D01*
Y1461D01*
X1123Y1484D01*
X1141Y1466D01*
X1123Y1449D01*
X1088D02*
X1112D01*
X1088Y1472D01*
Y1478D01*
X1094Y1484D01*
X1106D01*
X1112Y1478D01*
X1077D02*
X1071Y1484D01*
X1059D01*
X1053Y1478D01*
Y1455D01*
X1059Y1449D01*
X1071D01*
X1077Y1455D01*
Y1478D01*
X1042Y1443D02*
X1018D01*
X1007Y1484D02*
Y1461D01*
X995Y1449D01*
X983Y1461D01*
Y1484D01*
X972Y1478D02*
X966Y1484D01*
X954D01*
X948Y1478D01*
Y1472D01*
X954Y1466D01*
X960D01*
X954D01*
X948Y1461D01*
Y1455D01*
X954Y1449D01*
X966D01*
X972Y1455D01*
X1842Y1332D02*
Y1302D01*
X1827D01*
X1822Y1307D01*
Y1312D01*
X1827Y1317D01*
X1842D01*
X1827D01*
X1822Y1322D01*
Y1327D01*
X1827Y1332D01*
X1842D01*
X1812D02*
Y1302D01*
Y1312D01*
X1792Y1332D01*
X1807Y1317D01*
X1792Y1302D01*
X1762Y1327D02*
X1767Y1332D01*
X1777D01*
X1782Y1327D01*
Y1307D01*
X1777Y1302D01*
X1767D01*
X1762Y1307D01*
Y1317D01*
X1772D01*
X1752Y1332D02*
Y1302D01*
X1737D01*
X1732Y1307D01*
Y1327D01*
X1737Y1332D01*
X1752D01*
X1842Y1205D02*
Y1235D01*
X1827D01*
X1822Y1230D01*
Y1220D01*
X1827Y1215D01*
X1842D01*
X1832D02*
X1822Y1205D01*
X1812Y1225D02*
X1792Y1205D01*
X1802Y1215D01*
X1792Y1225D01*
X1812Y1205D01*
X1842Y1134D02*
X1822D01*
X1832D01*
Y1104D01*
X1812Y1124D02*
X1792Y1104D01*
X1802Y1114D01*
X1792Y1124D01*
X1812Y1104D01*
X2096Y1329D02*
X2101Y1334D01*
X2111D01*
X2116Y1329D01*
Y1309D01*
X2111Y1304D01*
X2101D01*
X2096Y1309D01*
Y1319D01*
X2106D01*
X2086Y1304D02*
Y1324D01*
X2071D01*
X2066Y1319D01*
Y1304D01*
X2036Y1334D02*
Y1304D01*
X2051D01*
X2056Y1309D01*
Y1319D01*
X2051Y1324D01*
X2036D01*
X2104Y1192D02*
Y1222D01*
X2089D01*
X2084Y1217D01*
Y1207D01*
X2089Y1202D01*
X2104D01*
X2094D02*
X2084Y1192D01*
X2074D02*
X2059D01*
X2054Y1197D01*
X2059Y1202D01*
X2069D01*
X2074Y1207D01*
X2069Y1212D01*
X2054D01*
X2039Y1217D02*
Y1212D01*
X2044D01*
X2034D01*
X2039D01*
Y1197D01*
X2034Y1192D01*
X2117Y1115D02*
Y1095D01*
X2107Y1085D01*
X2097Y1095D01*
Y1115D01*
X2067D02*
Y1085D01*
X2082D01*
X2087Y1090D01*
Y1100D01*
X2082Y1105D01*
X2067D01*
X2037Y1115D02*
Y1085D01*
X2052D01*
X2057Y1090D01*
Y1100D01*
X2052Y1105D01*
X2037D01*
X2331Y959D02*
Y939D01*
X2321Y929D01*
X2311Y939D01*
Y959D01*
X2281D02*
Y929D01*
X2296D01*
X2301Y934D01*
Y944D01*
X2296Y949D01*
X2281D01*
X2251Y959D02*
Y929D01*
X2266D01*
X2271Y934D01*
Y944D01*
X2266Y949D01*
X2251D01*
X2180Y1004D02*
X2185Y1009D01*
X2195D01*
X2200Y1004D01*
Y999D01*
X2195Y994D01*
X2185D01*
X2180Y989D01*
Y984D01*
X2185Y979D01*
X2195D01*
X2200Y984D01*
X2170Y1009D02*
Y979D01*
X2160Y989D01*
X2150Y979D01*
Y1009D01*
X2140D02*
Y979D01*
X2125D01*
X2120Y984D01*
Y1004D01*
X2125Y1009D01*
X2140D01*
X2180Y1052D02*
X2185Y1057D01*
X2195D01*
X2200Y1052D01*
Y1047D01*
X2195Y1042D01*
X2185D01*
X2180Y1037D01*
Y1032D01*
X2185Y1027D01*
X2195D01*
X2200Y1032D01*
X2170Y1057D02*
Y1027D01*
X2160Y1037D01*
X2150Y1027D01*
Y1057D01*
X2120Y1052D02*
X2125Y1057D01*
X2135D01*
X2140Y1052D01*
Y1032D01*
X2135Y1027D01*
X2125D01*
X2120Y1032D01*
X2110Y1057D02*
Y1027D01*
X2090D01*
X2080Y1057D02*
Y1027D01*
Y1037D01*
X2060Y1057D01*
X2075Y1042D01*
X2060Y1027D01*
X2200Y1107D02*
X2180D01*
X2190D01*
Y1077D01*
X2170Y1097D02*
X2150Y1077D01*
X2160Y1087D01*
X2150Y1097D01*
X2170Y1077D01*
X2311Y1131D02*
Y1161D01*
X2296D01*
X2291Y1156D01*
Y1146D01*
X2296Y1141D01*
X2311D01*
X2301D02*
X2291Y1131D01*
X2281Y1151D02*
X2261Y1131D01*
X2271Y1141D01*
X2261Y1151D01*
X2281Y1131D01*
X2200Y1175D02*
Y1205D01*
X2185D01*
X2180Y1200D01*
Y1190D01*
X2185Y1185D01*
X2200D01*
X2190D02*
X2180Y1175D01*
X2170D02*
X2155D01*
X2150Y1180D01*
X2155Y1185D01*
X2165D01*
X2170Y1190D01*
X2165Y1195D01*
X2150D01*
X2135Y1200D02*
Y1195D01*
X2140D01*
X2130D01*
X2135D01*
Y1180D01*
X2130Y1175D01*
X2317Y1419D02*
X2312Y1424D01*
Y1434D01*
X2317Y1439D01*
X2337D01*
X2342Y1434D01*
Y1424D01*
X2337Y1419D01*
X2327D01*
Y1429D01*
X2342Y1409D02*
X2322D01*
Y1394D01*
X2327Y1389D01*
X2342D01*
X2312Y1359D02*
X2342D01*
Y1374D01*
X2337Y1379D01*
X2327D01*
X2322Y1374D01*
Y1359D01*
X2318Y1089D02*
X2313Y1094D01*
Y1104D01*
X2318Y1109D01*
X2338D01*
X2343Y1104D01*
Y1094D01*
X2338Y1089D01*
X2328D01*
Y1099D01*
X2343Y1079D02*
X2323D01*
Y1064D01*
X2328Y1059D01*
X2343D01*
X2313Y1029D02*
X2343D01*
Y1044D01*
X2338Y1049D01*
X2328D01*
X2323Y1044D01*
Y1029D01*
X564Y1026D02*
X544D01*
X554D01*
Y996D01*
X534Y991D02*
X514D01*
X484Y1026D02*
X504D01*
Y1011D01*
X494Y1016D01*
X489D01*
X484Y1011D01*
Y1001D01*
X489Y996D01*
X499D01*
X504Y1001D01*
X474Y1026D02*
Y1006D01*
X464Y996D01*
X454Y1006D01*
Y1026D01*
X593Y1187D02*
X573D01*
X583D01*
Y1157D01*
X563Y1152D02*
X543D01*
X533Y1182D02*
X528Y1187D01*
X518D01*
X513Y1182D01*
Y1177D01*
X518Y1172D01*
X523D01*
X518D01*
X513Y1167D01*
Y1162D01*
X518Y1157D01*
X528D01*
X533Y1162D01*
X503Y1187D02*
Y1167D01*
X493Y1157D01*
X483Y1167D01*
Y1187D01*
X473Y1182D02*
X468Y1187D01*
X458D01*
X453Y1182D01*
Y1177D01*
X458Y1172D01*
X463D01*
X458D01*
X453Y1167D01*
Y1162D01*
X458Y1157D01*
X468D01*
X473Y1162D01*
X565Y1109D02*
X545D01*
X555D01*
Y1079D01*
X535Y1109D02*
Y1089D01*
X525Y1079D01*
X515Y1089D01*
Y1109D01*
X485D02*
Y1079D01*
X500D01*
X505Y1084D01*
Y1094D01*
X500Y1099D01*
X485D01*
X455Y1109D02*
Y1079D01*
X470D01*
X475Y1084D01*
Y1094D01*
X470Y1099D01*
X455D01*
X863Y1018D02*
X868Y1023D01*
X878D01*
X883Y1018D01*
Y1013D01*
X878Y1008D01*
X868D01*
X863Y1003D01*
Y998D01*
X868Y993D01*
X878D01*
X883Y998D01*
X853Y1023D02*
Y993D01*
X843Y1003D01*
X833Y993D01*
Y1023D01*
X823D02*
Y993D01*
X808D01*
X803Y998D01*
Y1018D01*
X808Y1023D01*
X823D01*
X793Y1008D02*
X773D01*
X763Y993D02*
Y1023D01*
X753Y1013D01*
X743Y1023D01*
Y993D01*
X733Y1023D02*
Y993D01*
Y1003D01*
X713Y1023D01*
X728Y1008D01*
X713Y993D01*
X1170Y1222D02*
X1150D01*
X1160D01*
Y1192D01*
X1140D02*
Y1222D01*
X1125D01*
X1120Y1217D01*
Y1207D01*
X1125Y1202D01*
X1140D01*
X1105Y1212D02*
X1095D01*
X1090Y1207D01*
Y1192D01*
X1105D01*
X1110Y1197D01*
X1105Y1202D01*
X1090D01*
X1780Y1540D02*
X1785Y1545D01*
X1795D01*
X1800Y1540D01*
Y1520D01*
X1795Y1515D01*
X1785D01*
X1780Y1520D01*
Y1530D01*
X1790D01*
X1770Y1515D02*
Y1535D01*
X1755D01*
X1750Y1530D01*
Y1515D01*
X1720Y1545D02*
Y1515D01*
X1735D01*
X1740Y1520D01*
Y1530D01*
X1735Y1535D01*
X1720D01*
X419Y1407D02*
X439D01*
Y1392D01*
X429Y1397D01*
X424D01*
X419Y1392D01*
Y1382D01*
X424Y1377D01*
X434D01*
X439Y1382D01*
X409Y1407D02*
Y1387D01*
X399Y1377D01*
X389Y1387D01*
Y1407D01*
X1013Y964D02*
X1008Y969D01*
X998D01*
X993Y964D01*
Y959D01*
X998Y954D01*
X1003D01*
X998D01*
X993Y949D01*
Y944D01*
X998Y939D01*
X1008D01*
X1013Y944D01*
X983Y969D02*
Y949D01*
X973Y939D01*
X963Y949D01*
Y969D01*
X953Y964D02*
X948Y969D01*
X938D01*
X933Y964D01*
Y959D01*
X938Y954D01*
X943D01*
X938D01*
X933Y949D01*
Y944D01*
X938Y939D01*
X948D01*
X953Y944D01*
D44*
X1364Y1202D02*
X1374D01*
X1379Y1197D01*
Y1177D01*
X1374Y1172D01*
X1364D01*
X1359Y1177D01*
Y1197D01*
X1364Y1202D01*
X1329Y1197D02*
X1334Y1202D01*
X1344D01*
X1349Y1197D01*
Y1192D01*
X1344Y1187D01*
X1334D01*
X1329Y1182D01*
Y1177D01*
X1334Y1172D01*
X1344D01*
X1349Y1177D01*
X1319Y1202D02*
Y1172D01*
Y1187D01*
X1299D01*
Y1202D01*
Y1172D01*
X1289Y1202D02*
Y1172D01*
X1279Y1182D01*
X1269Y1172D01*
Y1202D01*
M02*
