G04 Layer_Color=65535*
%FSLAX23Y23*%
%MOIN*%
G70*
G01*
G75*
%ADD38C,0.010*%
%ADD39C,0.024*%
%ADD40C,0.008*%
%ADD41C,0.004*%
%ADD42C,0.012*%
%ADD43C,0.005*%
%ADD44C,0.008*%
G36*
X2305Y890D02*
X2240D01*
X2275Y945D01*
X2305Y890D01*
D02*
G37*
G36*
X980Y918D02*
X925Y953D01*
X980Y983D01*
Y918D01*
D02*
G37*
G36*
X1890Y1387D02*
X1860Y1442D01*
X1926D01*
X1890Y1387D01*
D02*
G37*
D38*
X293Y860D02*
G03*
X293Y860I-5J0D01*
G01*
X735Y1354D02*
G03*
X735Y1354I-5J0D01*
G01*
X1488Y1151D02*
G03*
X1488Y1151I-5J0D01*
G01*
X1490Y1308D02*
G03*
X1490Y1308I-5J0D01*
G01*
X1466Y1509D02*
G03*
X1466Y1509I-5J0D01*
G01*
X1467Y976D02*
G03*
X1467Y976I-5J0D01*
G01*
D39*
X833Y1287D02*
G03*
X833Y1287I-12J0D01*
G01*
D40*
X2196Y898D02*
G03*
X2196Y898I-47J0D01*
G01*
X374Y1136D02*
X452D01*
Y900D02*
Y1136D01*
X374Y900D02*
Y1136D01*
Y900D02*
X452D01*
X782Y1110D02*
X998D01*
X782Y1326D02*
X998D01*
Y1110D02*
Y1326D01*
X782Y1110D02*
Y1326D01*
D41*
X602Y1433D02*
Y1473D01*
X234Y871D02*
X272D01*
X234Y989D02*
X272D01*
X614Y928D02*
X654D01*
X475Y1120D02*
X515D01*
X1495Y1323D02*
Y1363D01*
X1545Y1163D02*
Y1203D01*
X1530Y1528D02*
Y1568D01*
X583Y1176D02*
Y1216D01*
X1001Y935D02*
X1040D01*
X1455Y1005D02*
Y1045D01*
X602Y1490D02*
Y1530D01*
X616Y1093D02*
X656D01*
X1795Y968D02*
X1835D01*
X280Y1450D02*
Y1510D01*
X435Y1411D02*
Y1470D01*
X1967Y1558D02*
Y1566D01*
X2085Y1558D02*
Y1566D01*
X1967D02*
X2085D01*
X1967Y1468D02*
X2085D01*
Y1476D01*
X1967Y1468D02*
Y1476D01*
X794Y1490D02*
Y1530D01*
X730Y1490D02*
Y1530D01*
X584Y916D02*
Y954D01*
X557Y916D02*
X584D01*
X466D02*
X493D01*
X466D02*
Y954D01*
X1075Y1006D02*
Y1018D01*
X1173Y1005D02*
Y1017D01*
X2189Y964D02*
Y1469D01*
X2323D01*
Y964D02*
Y1469D01*
X2189Y964D02*
X2323D01*
X668Y997D02*
X922D01*
X668Y863D02*
Y997D01*
Y863D02*
X922D01*
Y997D01*
X1235Y1402D02*
Y1444D01*
X1255Y1332D02*
Y1374D01*
X1037Y1502D02*
Y1544D01*
X1730Y1437D02*
Y1479D01*
Y1492D02*
Y1534D01*
X1675Y1197D02*
Y1239D01*
X1675Y1284D02*
Y1326D01*
X1685Y1062D02*
Y1104D01*
Y1117D02*
Y1159D01*
X525Y1236D02*
Y1278D01*
Y1307D02*
Y1349D01*
X730Y1432D02*
Y1474D01*
X1730Y1382D02*
Y1424D01*
X1685Y887D02*
Y929D01*
X2015Y913D02*
Y955D01*
X1849Y968D02*
X1891D01*
X1311Y1162D02*
Y1204D01*
X1330Y1237D02*
Y1279D01*
X325Y1358D02*
Y1370D01*
Y1056D02*
Y1068D01*
X262Y1370D02*
X325D01*
X262Y1056D02*
X325D01*
X153Y1059D02*
Y1367D01*
X435Y1491D02*
Y1550D01*
X2006Y977D02*
Y1036D01*
X1507Y1072D02*
Y1151D01*
X1483Y1072D02*
Y1151D01*
Y1072D02*
X1507D01*
X1483Y1151D02*
X1507D01*
X1483Y1310D02*
X1507D01*
X1483Y1231D02*
X1507D01*
X1483D02*
Y1310D01*
X1507Y1231D02*
Y1310D01*
X1449Y1405D02*
X1531D01*
X1449Y1522D02*
X1531D01*
Y1405D02*
Y1522D01*
X1449Y1405D02*
Y1522D01*
Y875D02*
Y992D01*
X1531Y875D02*
Y992D01*
X1449D02*
X1531D01*
X1449Y875D02*
X1531D01*
D42*
X1840Y1067D02*
X2040D01*
X1840D02*
Y1367D01*
X2040D01*
Y1067D02*
Y1367D01*
D43*
X380Y1178D02*
X387Y1185D01*
X400D01*
X407Y1178D01*
Y1172D01*
X400Y1165D01*
X393D01*
X400D01*
X407Y1158D01*
Y1152D01*
X400Y1145D01*
X387D01*
X380Y1152D01*
X420Y1185D02*
Y1158D01*
X433Y1145D01*
X447Y1158D01*
Y1185D01*
X408Y891D02*
X381D01*
Y871D01*
X394Y878D01*
X401D01*
X408Y871D01*
Y858D01*
X401Y851D01*
X388D01*
X381Y858D01*
X421Y891D02*
Y864D01*
X434Y851D01*
X448Y864D01*
Y891D01*
X329Y1010D02*
Y999D01*
Y1004D01*
X358D01*
X364Y999D01*
Y993D01*
X358Y987D01*
X364Y1022D02*
X329D01*
Y1039D01*
X335Y1045D01*
X347D01*
X352Y1039D01*
Y1022D01*
X364Y1057D02*
Y1069D01*
Y1063D01*
X329D01*
X335Y1057D01*
X630Y1026D02*
X624Y1032D01*
X613D01*
X607Y1026D01*
Y1003D01*
X613Y997D01*
X624D01*
X630Y1003D01*
X659Y997D02*
Y1032D01*
X642Y1014D01*
X665D01*
X534Y1113D02*
X528Y1107D01*
Y1096D01*
X534Y1090D01*
X557D01*
X563Y1096D01*
Y1107D01*
X557Y1113D01*
X534Y1125D02*
X528Y1131D01*
Y1142D01*
X534Y1148D01*
X540D01*
X546Y1142D01*
Y1137D01*
Y1142D01*
X551Y1148D01*
X557D01*
X563Y1142D01*
Y1131D01*
X557Y1125D01*
X272Y1433D02*
Y1398D01*
X295D01*
X330D02*
X307D01*
X330Y1421D01*
Y1427D01*
X324Y1433D01*
X313D01*
X307Y1427D01*
X412Y1398D02*
Y1363D01*
X435D01*
X447D02*
X459D01*
X453D01*
Y1398D01*
X447Y1392D01*
X1899Y1559D02*
X1893Y1565D01*
X1882D01*
X1876Y1559D01*
Y1553D01*
X1882Y1547D01*
X1893D01*
X1899Y1542D01*
Y1536D01*
X1893Y1530D01*
X1882D01*
X1876Y1536D01*
X1911Y1530D02*
X1923D01*
X1917D01*
Y1565D01*
X1911Y1559D01*
X808Y1529D02*
Y1494D01*
X825D01*
X831Y1500D01*
Y1523D01*
X825Y1529D01*
X808D01*
X843Y1494D02*
X855D01*
X849D01*
Y1529D01*
X843Y1523D01*
X175Y1035D02*
Y1006D01*
X181Y1000D01*
X192D01*
X198Y1006D01*
Y1035D01*
X233Y1000D02*
X210D01*
X233Y1023D01*
Y1029D01*
X227Y1035D01*
X216D01*
X210Y1029D01*
X556Y855D02*
X585D01*
X591Y861D01*
Y872D01*
X585Y878D01*
X556D01*
X562Y890D02*
X556Y896D01*
Y907D01*
X562Y913D01*
X568D01*
X574Y907D01*
Y902D01*
Y907D01*
X579Y913D01*
X585D01*
X591Y907D01*
Y896D01*
X585Y890D01*
X1288Y1287D02*
Y1322D01*
X1305D01*
X1311Y1316D01*
Y1304D01*
X1305Y1299D01*
X1288D01*
X1300D02*
X1311Y1287D01*
X1323D02*
X1335D01*
X1329D01*
Y1322D01*
X1323Y1316D01*
X1352Y1293D02*
X1358Y1287D01*
X1370D01*
X1375Y1293D01*
Y1316D01*
X1370Y1322D01*
X1358D01*
X1352Y1316D01*
Y1310D01*
X1358Y1304D01*
X1375D01*
X1265Y1115D02*
Y1150D01*
X1282D01*
X1288Y1144D01*
Y1132D01*
X1282Y1127D01*
X1265D01*
X1277D02*
X1288Y1115D01*
X1323D02*
X1300D01*
X1323Y1138D01*
Y1144D01*
X1317Y1150D01*
X1306D01*
X1300Y1144D01*
X1335D02*
X1341Y1150D01*
X1352D01*
X1358Y1144D01*
Y1121D01*
X1352Y1115D01*
X1341D01*
X1335Y1121D01*
Y1144D01*
X1783Y891D02*
X1777Y897D01*
X1766D01*
X1760Y891D01*
Y868D01*
X1766Y862D01*
X1777D01*
X1783Y868D01*
X1795Y862D02*
X1807D01*
X1801D01*
Y897D01*
X1795Y891D01*
X1824Y862D02*
X1836D01*
X1830D01*
Y897D01*
X1824Y891D01*
X1863Y864D02*
Y899D01*
X1880D01*
X1886Y893D01*
Y881D01*
X1880Y876D01*
X1863D01*
X1875D02*
X1886Y864D01*
X1898D02*
X1910D01*
X1904D01*
Y899D01*
X1898Y893D01*
X1927D02*
X1933Y899D01*
X1945D01*
X1950Y893D01*
Y870D01*
X1945Y864D01*
X1933D01*
X1927Y870D01*
Y893D01*
X1985Y867D02*
Y902D01*
X2002D01*
X2008Y896D01*
Y884D01*
X2002Y879D01*
X1985D01*
X1997D02*
X2008Y867D01*
X2020Y873D02*
X2026Y867D01*
X2037D01*
X2043Y873D01*
Y896D01*
X2037Y902D01*
X2026D01*
X2020Y896D01*
Y890D01*
X2026Y884D01*
X2043D01*
X1668Y946D02*
Y981D01*
X1685D01*
X1691Y975D01*
Y963D01*
X1685Y957D01*
X1668D01*
X1679D02*
X1691Y946D01*
X1703Y975D02*
X1709Y981D01*
X1720D01*
X1726Y975D01*
Y969D01*
X1720Y963D01*
X1726Y957D01*
Y952D01*
X1720Y946D01*
X1709D01*
X1703Y952D01*
Y957D01*
X1709Y963D01*
X1703Y969D01*
Y975D01*
X1709Y963D02*
X1720D01*
X1605Y946D02*
X1634D01*
X1640Y952D01*
Y963D01*
X1634Y969D01*
X1605D01*
X1640Y998D02*
X1605D01*
X1623Y981D01*
Y1004D01*
X1320Y1495D02*
Y1466D01*
X1326Y1460D01*
X1337D01*
X1343Y1466D01*
Y1495D01*
X1378D02*
X1367Y1489D01*
X1355Y1477D01*
Y1466D01*
X1361Y1460D01*
X1372D01*
X1378Y1466D01*
Y1472D01*
X1372Y1477D01*
X1355D01*
X1690Y1340D02*
Y1375D01*
X1707D01*
X1713Y1369D01*
Y1357D01*
X1707Y1352D01*
X1690D01*
X1702D02*
X1713Y1340D01*
X1725D02*
X1737D01*
X1731D01*
Y1375D01*
X1725Y1369D01*
X1777Y1375D02*
X1754D01*
Y1357D01*
X1766Y1363D01*
X1772D01*
X1777Y1357D01*
Y1346D01*
X1772Y1340D01*
X1760D01*
X1754Y1346D01*
X2109Y1020D02*
X2103Y1026D01*
X2092D01*
X2086Y1020D01*
Y997D01*
X2092Y991D01*
X2103D01*
X2109Y997D01*
X2121Y991D02*
X2133D01*
X2127D01*
Y1026D01*
X2121Y1020D01*
X2173Y991D02*
X2150D01*
X2173Y1014D01*
Y1020D01*
X2168Y1026D01*
X2156D01*
X2150Y1020D01*
X806Y1436D02*
Y1471D01*
X823D01*
X829Y1465D01*
Y1453D01*
X823Y1448D01*
X806D01*
X818D02*
X829Y1436D01*
X841Y1471D02*
X864D01*
Y1465D01*
X841Y1442D01*
Y1436D01*
X193Y1440D02*
X182D01*
X187D01*
Y1411D01*
X182Y1405D01*
X176D01*
X170Y1411D01*
X205Y1405D02*
X217D01*
X211D01*
Y1440D01*
X205Y1434D01*
X576Y1087D02*
X570Y1081D01*
Y1070D01*
X576Y1064D01*
X599D01*
X605Y1070D01*
Y1081D01*
X599Y1087D01*
Y1099D02*
X605Y1105D01*
Y1116D01*
X599Y1122D01*
X576D01*
X570Y1116D01*
Y1105D01*
X576Y1099D01*
X582D01*
X588Y1105D01*
Y1122D01*
X605Y1569D02*
X599Y1575D01*
X588D01*
X582Y1569D01*
Y1546D01*
X588Y1540D01*
X599D01*
X605Y1546D01*
X617Y1575D02*
X640D01*
Y1569D01*
X617Y1546D01*
Y1540D01*
X1553Y1043D02*
X1547Y1049D01*
X1536D01*
X1530Y1043D01*
Y1020D01*
X1536Y1014D01*
X1547D01*
X1553Y1020D01*
X1588Y1049D02*
X1565D01*
Y1031D01*
X1577Y1037D01*
X1582D01*
X1588Y1031D01*
Y1020D01*
X1582Y1014D01*
X1571D01*
X1565Y1020D01*
X1079Y899D02*
X1073Y905D01*
X1062D01*
X1056Y899D01*
Y876D01*
X1062Y870D01*
X1073D01*
X1079Y876D01*
X1091Y870D02*
X1102D01*
X1097D01*
Y905D01*
X1091Y899D01*
X1120D02*
X1126Y905D01*
X1137D01*
X1143Y899D01*
Y893D01*
X1137Y888D01*
X1131D01*
X1137D01*
X1143Y882D01*
Y876D01*
X1137Y870D01*
X1126D01*
X1120Y876D01*
X597Y1415D02*
X591Y1421D01*
X580D01*
X574Y1415D01*
Y1392D01*
X580Y1386D01*
X591D01*
X597Y1392D01*
X632Y1421D02*
X621Y1415D01*
X609Y1403D01*
Y1392D01*
X615Y1386D01*
X626D01*
X632Y1392D01*
Y1398D01*
X626Y1403D01*
X609D01*
X322Y1565D02*
X316Y1571D01*
X305D01*
X299Y1565D01*
Y1542D01*
X305Y1536D01*
X316D01*
X322Y1542D01*
X357Y1536D02*
X334D01*
X357Y1559D01*
Y1565D01*
X351Y1571D01*
X340D01*
X334Y1565D01*
X591Y1308D02*
Y1343D01*
X608D01*
X614Y1337D01*
Y1325D01*
X608Y1320D01*
X591D01*
X603D02*
X614Y1308D01*
X643D02*
Y1343D01*
X626Y1325D01*
X649D01*
X591Y1236D02*
Y1271D01*
X608D01*
X614Y1265D01*
Y1253D01*
X608Y1248D01*
X591D01*
X603D02*
X614Y1236D01*
X649D02*
X626D01*
X649Y1259D01*
Y1265D01*
X643Y1271D01*
X632D01*
X626Y1265D01*
X2092Y1165D02*
X2057D01*
Y1182D01*
X2063Y1188D01*
X2075D01*
X2080Y1182D01*
Y1165D01*
X2092Y1200D02*
Y1212D01*
Y1206D01*
X2057D01*
X2063Y1200D01*
X1755Y1118D02*
Y1153D01*
X1772D01*
X1778Y1147D01*
Y1135D01*
X1772Y1130D01*
X1755D01*
X1767D02*
X1778Y1118D01*
X1813Y1153D02*
X1790D01*
Y1135D01*
X1802Y1141D01*
X1807D01*
X1813Y1135D01*
Y1124D01*
X1807Y1118D01*
X1796D01*
X1790Y1124D01*
X1755Y1063D02*
Y1098D01*
X1772D01*
X1778Y1092D01*
Y1080D01*
X1772Y1075D01*
X1755D01*
X1767D02*
X1778Y1063D01*
X1813Y1098D02*
X1802Y1092D01*
X1790Y1080D01*
Y1069D01*
X1796Y1063D01*
X1807D01*
X1813Y1069D01*
Y1075D01*
X1807Y1080D01*
X1790D01*
X1740Y1285D02*
Y1320D01*
X1757D01*
X1763Y1314D01*
Y1303D01*
X1757Y1297D01*
X1740D01*
X1751D02*
X1763Y1285D01*
X1775D02*
X1786D01*
X1781D01*
Y1320D01*
X1775Y1314D01*
X1804Y1320D02*
X1827D01*
Y1314D01*
X1804Y1291D01*
Y1285D01*
X1741Y1223D02*
Y1258D01*
X1758D01*
X1764Y1252D01*
Y1240D01*
X1758Y1235D01*
X1741D01*
X1753D02*
X1764Y1223D01*
X1776D02*
X1788D01*
X1782D01*
Y1258D01*
X1776Y1252D01*
X1805D02*
X1811Y1258D01*
X1823D01*
X1828Y1252D01*
Y1246D01*
X1823Y1240D01*
X1828Y1235D01*
Y1229D01*
X1823Y1223D01*
X1811D01*
X1805Y1229D01*
Y1235D01*
X1811Y1240D01*
X1805Y1246D01*
Y1252D01*
X1811Y1240D02*
X1823D01*
X1699Y1543D02*
Y1578D01*
X1716D01*
X1722Y1572D01*
Y1560D01*
X1716Y1555D01*
X1699D01*
X1711D02*
X1722Y1543D01*
X1734D02*
X1746D01*
X1740D01*
Y1578D01*
X1734Y1572D01*
X1781Y1543D02*
Y1578D01*
X1763Y1560D01*
X1786D01*
X1660Y1420D02*
X1625D01*
Y1437D01*
X1631Y1443D01*
X1643D01*
X1648Y1437D01*
Y1420D01*
Y1432D02*
X1660Y1443D01*
Y1455D02*
Y1467D01*
Y1461D01*
X1625D01*
X1631Y1455D01*
X1660Y1507D02*
Y1484D01*
X1637Y1507D01*
X1631D01*
X1625Y1502D01*
Y1490D01*
X1631Y1484D01*
X1194Y1045D02*
Y1039D01*
X1206Y1027D01*
X1217Y1039D01*
Y1045D01*
X1206Y1027D02*
Y1010D01*
X1229D02*
X1241D01*
X1235D01*
Y1045D01*
X1229Y1039D01*
X1397Y1222D02*
Y1193D01*
X1403Y1187D01*
X1415D01*
X1421Y1193D01*
Y1222D01*
X1432D02*
X1456D01*
Y1216D01*
X1432Y1193D01*
Y1187D01*
X1375Y1131D02*
Y1102D01*
X1381Y1096D01*
X1392D01*
X1398Y1102D01*
Y1131D01*
X1410Y1096D02*
X1422D01*
X1416D01*
Y1131D01*
X1410Y1125D01*
X1011Y1453D02*
Y1488D01*
X1028D01*
X1034Y1482D01*
Y1470D01*
X1028Y1465D01*
X1011D01*
X1023D02*
X1034Y1453D01*
X1046D02*
X1058D01*
X1052D01*
Y1488D01*
X1046Y1482D01*
X1120Y1326D02*
Y1361D01*
X1137D01*
X1143Y1355D01*
Y1344D01*
X1137Y1338D01*
X1120D01*
X1132D02*
X1143Y1326D01*
X1155Y1355D02*
X1161Y1361D01*
X1172D01*
X1178Y1355D01*
Y1350D01*
X1172Y1344D01*
X1167D01*
X1172D01*
X1178Y1338D01*
Y1332D01*
X1172Y1326D01*
X1161D01*
X1155Y1332D01*
X1079Y1398D02*
Y1433D01*
X1096D01*
X1102Y1427D01*
Y1415D01*
X1096Y1410D01*
X1079D01*
X1091D02*
X1102Y1398D01*
X1114D02*
X1126D01*
X1120D01*
Y1433D01*
X1114Y1427D01*
X1166Y1433D02*
X1155Y1427D01*
X1143Y1415D01*
Y1404D01*
X1149Y1398D01*
X1161D01*
X1166Y1404D01*
Y1410D01*
X1161Y1415D01*
X1143D01*
X1025Y1388D02*
Y1359D01*
X1031Y1353D01*
X1042D01*
X1048Y1359D01*
Y1388D01*
X1083D02*
X1060D01*
Y1370D01*
X1072Y1376D01*
X1077D01*
X1083Y1370D01*
Y1359D01*
X1077Y1353D01*
X1066D01*
X1060Y1359D01*
X475Y1219D02*
X469Y1225D01*
X458D01*
X452Y1219D01*
Y1196D01*
X458Y1190D01*
X469D01*
X475Y1196D01*
X487Y1219D02*
X493Y1225D01*
X504D01*
X510Y1219D01*
Y1213D01*
X504Y1207D01*
X510Y1202D01*
Y1196D01*
X504Y1190D01*
X493D01*
X487Y1196D01*
Y1202D01*
X493Y1207D01*
X487Y1213D01*
Y1219D01*
X493Y1207D02*
X504D01*
X1383Y1564D02*
X1377Y1570D01*
X1366D01*
X1360Y1564D01*
Y1541D01*
X1366Y1535D01*
X1377D01*
X1383Y1541D01*
X1395Y1535D02*
X1407D01*
X1401D01*
Y1570D01*
X1395Y1564D01*
X1424D02*
X1430Y1570D01*
X1442D01*
X1447Y1564D01*
Y1541D01*
X1442Y1535D01*
X1430D01*
X1424Y1541D01*
Y1564D01*
X1588Y1242D02*
X1582Y1248D01*
X1571D01*
X1565Y1242D01*
Y1219D01*
X1571Y1213D01*
X1582D01*
X1588Y1219D01*
X1600Y1213D02*
X1612D01*
X1606D01*
Y1248D01*
X1600Y1242D01*
X1588Y1389D02*
X1582Y1395D01*
X1571D01*
X1565Y1389D01*
Y1366D01*
X1571Y1360D01*
X1582D01*
X1588Y1366D01*
X1600Y1360D02*
X1612D01*
X1606D01*
Y1395D01*
X1600Y1389D01*
X1647Y1360D02*
Y1395D01*
X1629Y1377D01*
X1652D01*
X2176Y1158D02*
X2141D01*
Y1175D01*
X2147Y1181D01*
X2159D01*
X2164Y1175D01*
Y1158D01*
X2176Y1216D02*
Y1193D01*
X2153Y1216D01*
X2147D01*
X2141Y1210D01*
Y1199D01*
X2147Y1193D01*
X930Y865D02*
Y900D01*
X947D01*
X953Y894D01*
Y882D01*
X947Y877D01*
X930D01*
X965Y894D02*
X971Y900D01*
X982D01*
X988Y894D01*
Y888D01*
X982Y882D01*
X977D01*
X982D01*
X988Y877D01*
Y871D01*
X982Y865D01*
X971D01*
X965Y871D01*
D44*
X1933Y1437D02*
Y1387D01*
X1958D01*
X1966Y1395D01*
Y1404D01*
X1958Y1412D01*
X1933D01*
X1958D01*
X1966Y1420D01*
Y1429D01*
X1958Y1437D01*
X1933D01*
X1983D02*
Y1387D01*
X2008D01*
X2016Y1395D01*
Y1429D01*
X2008Y1437D01*
X1983D01*
X2033Y1387D02*
Y1437D01*
X2050Y1420D01*
X2066Y1437D01*
Y1387D01*
X2219Y1547D02*
X2211Y1555D01*
X2194D01*
X2186Y1547D01*
Y1538D01*
X2194Y1530D01*
X2211D01*
X2219Y1522D01*
Y1513D01*
X2211Y1505D01*
X2194D01*
X2186Y1513D01*
X2236Y1555D02*
Y1505D01*
X2253Y1522D01*
X2269Y1505D01*
Y1555D01*
X2286D02*
Y1505D01*
X2311D01*
X2319Y1513D01*
Y1547D01*
X2311Y1555D01*
X2286D01*
M02*
