G04 Layer_Color=8421504*
%FSLAX23Y23*%
%MOIN*%
G70*
G01*
G75*
%ADD10R,0.043X0.039*%
%ADD11R,0.022X0.057*%
%ADD12R,0.057X0.022*%
%ADD13R,0.039X0.043*%
%ADD14R,0.051X0.059*%
%ADD15R,0.039X0.067*%
%ADD16O,0.012X0.071*%
%ADD17O,0.071X0.012*%
%ADD18R,0.033X0.016*%
%ADD19R,0.047X0.055*%
%ADD20R,0.075X0.094*%
%ADD21R,0.075X0.046*%
%ADD22R,0.054X0.018*%
%ADD23R,0.083X0.058*%
%ADD24R,0.059X0.051*%
%ADD25O,0.041X0.016*%
%ADD26R,0.031X0.047*%
D10*
X1642Y979D02*
D03*
X1708D02*
D03*
X1462Y1343D02*
D03*
X1528D02*
D03*
X1512Y1183D02*
D03*
X1578D02*
D03*
X1563Y1548D02*
D03*
X1497D02*
D03*
X517Y1269D02*
D03*
X583D02*
D03*
X1288Y1425D02*
D03*
X1222D02*
D03*
Y1353D02*
D03*
X1288D02*
D03*
X1070Y1523D02*
D03*
X1004D02*
D03*
X1697Y1458D02*
D03*
X1763D02*
D03*
Y1513D02*
D03*
X1697D02*
D03*
X1642Y1252D02*
D03*
X1708D02*
D03*
Y1305D02*
D03*
X1642D02*
D03*
Y1083D02*
D03*
X1708D02*
D03*
Y1138D02*
D03*
X1642D02*
D03*
X517Y1319D02*
D03*
X583D02*
D03*
Y1369D02*
D03*
X517D02*
D03*
X635Y1453D02*
D03*
X569D02*
D03*
X1493Y1025D02*
D03*
X1427D02*
D03*
X635Y1510D02*
D03*
X569D02*
D03*
X697Y1453D02*
D03*
X763D02*
D03*
X1763Y1403D02*
D03*
X1697D02*
D03*
X1642Y921D02*
D03*
X1708D02*
D03*
X1344Y1190D02*
D03*
X1278D02*
D03*
Y1258D02*
D03*
X1344D02*
D03*
X763Y1510D02*
D03*
X697D02*
D03*
D11*
X2113Y1197D02*
D03*
X2076D02*
D03*
X2150D02*
D03*
X2076Y1282D02*
D03*
X2113D02*
D03*
X2150D02*
D03*
D12*
X203Y967D02*
D03*
Y893D02*
D03*
X287Y967D02*
D03*
Y930D02*
D03*
Y893D02*
D03*
D13*
X541Y1126D02*
D03*
Y1060D02*
D03*
X591Y1126D02*
D03*
Y1060D02*
D03*
X1013Y962D02*
D03*
Y896D02*
D03*
X641Y1060D02*
D03*
Y1126D02*
D03*
X1925Y1013D02*
D03*
Y947D02*
D03*
X1869D02*
D03*
Y1013D02*
D03*
X1813Y947D02*
D03*
Y1013D02*
D03*
X634Y961D02*
D03*
Y895D02*
D03*
X491Y1126D02*
D03*
Y1060D02*
D03*
X2056Y947D02*
D03*
Y1013D02*
D03*
X2112Y947D02*
D03*
Y1013D02*
D03*
D14*
X317Y1480D02*
D03*
X243D02*
D03*
X398Y1440D02*
D03*
X472D02*
D03*
Y1520D02*
D03*
X398D02*
D03*
D15*
X1929Y1522D02*
D03*
X2063D02*
D03*
D16*
X782Y1377D02*
D03*
X801D02*
D03*
X821D02*
D03*
X841D02*
D03*
X860D02*
D03*
X880D02*
D03*
X900D02*
D03*
X920D02*
D03*
X939D02*
D03*
X959D02*
D03*
X979D02*
D03*
X998D02*
D03*
Y1059D02*
D03*
X979D02*
D03*
X959D02*
D03*
X939D02*
D03*
X920D02*
D03*
X900D02*
D03*
X880D02*
D03*
X860D02*
D03*
X841D02*
D03*
X821D02*
D03*
X801D02*
D03*
X782D02*
D03*
D17*
X1049Y1326D02*
D03*
Y1307D02*
D03*
Y1287D02*
D03*
Y1267D02*
D03*
Y1248D02*
D03*
Y1228D02*
D03*
Y1208D02*
D03*
Y1188D02*
D03*
Y1169D02*
D03*
Y1149D02*
D03*
Y1129D02*
D03*
Y1110D02*
D03*
X731D02*
D03*
Y1129D02*
D03*
Y1149D02*
D03*
Y1169D02*
D03*
Y1188D02*
D03*
Y1208D02*
D03*
Y1228D02*
D03*
Y1248D02*
D03*
Y1267D02*
D03*
Y1287D02*
D03*
Y1307D02*
D03*
Y1326D02*
D03*
D18*
X1539Y1137D02*
D03*
Y1111D02*
D03*
Y1085D02*
D03*
X1451D02*
D03*
Y1111D02*
D03*
Y1137D02*
D03*
Y1295D02*
D03*
Y1270D02*
D03*
Y1244D02*
D03*
X1539D02*
D03*
Y1270D02*
D03*
Y1295D02*
D03*
D19*
X1155Y969D02*
D03*
X1092D02*
D03*
Y1055D02*
D03*
X1155D02*
D03*
D20*
X210Y1328D02*
D03*
Y1098D02*
D03*
D21*
Y1180D02*
D03*
Y1246D02*
D03*
D22*
X314Y1213D02*
D03*
Y1187D02*
D03*
Y1162D02*
D03*
Y1264D02*
D03*
Y1239D02*
D03*
D23*
X300Y1116D02*
D03*
Y1310D02*
D03*
D24*
X1991Y1017D02*
D03*
Y943D02*
D03*
D25*
X1568Y1425D02*
D03*
Y1450D02*
D03*
Y1476D02*
D03*
Y1501D02*
D03*
X1412Y1425D02*
D03*
Y1450D02*
D03*
Y1476D02*
D03*
Y1501D02*
D03*
Y971D02*
D03*
Y946D02*
D03*
Y920D02*
D03*
Y895D02*
D03*
X1568Y971D02*
D03*
Y946D02*
D03*
Y920D02*
D03*
Y895D02*
D03*
D26*
X561Y993D02*
D03*
X487D02*
D03*
X524Y903D02*
D03*
M02*
